<svg xmlns="http://www.w3.org/2000/svg" xmlns:xlink="http://www.w3.org/1999/xlink" width="290" height="187.5" viewBox="0 0 290 187.5"><defs><style>.a{stroke:#432b86;fill:url(#a);}.b,.d,.h{fill:#fff;}.b,.c{font-size:13px;}.b{font-family:Montserrat-Regular, Montserrat;}.c,.g{fill:#03f87e;}.c{font-family:Montserrat-Bold, Montserrat;font-weight:700;}.e{opacity:0.12;}.f,.j,.l{fill:none;}.f{stroke:#000;}.h,.j{stroke:#fff;}.h{stroke-width:0.4px;}.i{fill:#ff4376;}.j{stroke-linecap:round;stroke-width:1.8px;}.k{stroke:none;}</style><radialGradient id="a" cx="0.702" cy="0.456" r="0.613" gradientTransform="translate(0 -0.156) scale(1 1.342)" gradientUnits="objectBoundingBox"><stop offset="0" stop-color="#4e44be"/><stop offset="1" stop-color="#1b0d3a"/></radialGradient></defs><g transform="translate(-92 -1217)"><g transform="translate(90.5 1219.5)"><g class="a" transform="translate(291.5 -2.5) rotate(90)"><rect class="k" width="187.5" height="290" rx="8"/><rect class="l" x="0.5" y="0.5" width="186.5" height="289" rx="7.5"/></g><g transform="translate(26.4 26.916)"><text class="b" transform="translate(43.5 14.584)"><tspan x="0" y="0">Share</tspan></text><text class="c" transform="translate(43.5 51.584)"><tspan x="0" y="0">Hide</tspan></text><text class="b" transform="translate(43.5 90.584)"><tspan x="0" y="0">Remove</tspan></text><text class="b" transform="translate(43.5 132.584)"><tspan x="0" y="0">Similar titles</tspan></text><path class="d" d="M15,482.177,8.017,475.1v4.635a8.361,8.361,0,0,0-5.536,2.5A8.583,8.583,0,0,0,0,488.308V490.1l.851-1.573a7.554,7.554,0,0,1,6.638-3.978q.263,0,.528.019v4.684Zm-7.511,1.454A8.431,8.431,0,0,0,1.1,486.567a7.6,7.6,0,0,1,7.366-5.922h.454v-3.323l4.792,4.855-4.792,4.855v-3.287l-.4-.05A8.377,8.377,0,0,0,7.489,483.631Z" transform="translate(11.021 -472.797)"/><g class="e" transform="translate(-3.433 29.424)"><line class="f" x2="248.4"/></g><g class="e" transform="translate(-3.433 65.258)"><line class="f" x2="248.4"/></g><g class="e" transform="translate(-3.433 107.862)"><line class="f" x2="248.4"/></g><g transform="translate(9.014 38.584)"><path class="g" d="M23.333,77.218a2.724,2.724,0,0,1,.478.048.457.457,0,1,0,.159-.9,3.62,3.62,0,0,0-4.295,3.594,3.605,3.605,0,0,0,.064.637.458.458,0,0,0,.449.378.4.4,0,0,0,.08-.007.457.457,0,0,0,.37-.529,2.655,2.655,0,0,1-.049-.478A2.746,2.746,0,0,1,23.333,77.218Z" transform="translate(-12.789 -72.027)"/><path class="g" d="M25.463,71.575A21.386,21.386,0,0,0,20.308,67.3l2.532-2.55a.438.438,0,0,0,0-.617.431.431,0,0,0-.612,0L19.288,67.1l-.007.007L7.5,78.962a.439.439,0,0,0,0,.617.434.434,0,0,0,.307.127.429.429,0,0,0,.306-.127l2.605-2.623a10.675,10.675,0,0,0,4.451,1.006c5.336,0,10.091-5.585,10.291-5.823A.438.438,0,0,0,25.463,71.575Zm-7.692.282a2.61,2.61,0,0,1-2.6,2.616,2.564,2.564,0,0,1-1.505-.484l3.623-3.648A2.608,2.608,0,0,1,17.771,71.857Zm-2.6,5.233a9.731,9.731,0,0,1-3.793-.8l1.669-1.681a3.418,3.418,0,0,0,2.124.733,3.493,3.493,0,0,0,2.736-5.627l1.762-1.774a20.692,20.692,0,0,1,4.88,3.913C23.518,72.982,19.456,77.089,15.173,77.089Z" transform="translate(-4.635 -64.008)"/><path class="g" d="M4.528,79.641a.458.458,0,0,0,.252-.838,16.729,16.729,0,0,1-3.733-3.452c1.053-1.143,5.37-5.511,9.925-5.511a8.551,8.551,0,0,1,2.708.478.451.451,0,0,0,.578-.287.456.456,0,0,0-.287-.579,9.44,9.44,0,0,0-3-.527C5.339,68.925.319,74.781.108,75.03a.457.457,0,0,0-.026.557,16.975,16.975,0,0,0,4.194,3.977A.451.451,0,0,0,4.528,79.641Z" transform="translate(0 -67.097)"/></g><g transform="translate(11.69 119.774)"><circle class="h" cx="0.237" cy="0.237" r="0.237" transform="translate(0 6.006)"/><path class="h" d="M-211.205-91.727a.237.237,0,0,0,.237-.237V-92.2a.237.237,0,0,0-.237-.237.237.237,0,0,0-.237.237v.237A.237.237,0,0,0-211.205-91.727Z" transform="translate(213.055 97.407)"/><path class="h" d="M-211.442-81.3a.237.237,0,0,0,.237.237.237.237,0,0,0,.237-.237v-3.788a.237.237,0,0,0-.237-.237.237.237,0,0,0-.237.237Z" transform="translate(213.055 91.814)"/><path class="h" d="M-207.336-119.466H-214.1a1.824,1.824,0,0,0-1.822,1.822v1.562h-3.384a1.824,1.824,0,0,0-1.822,1.822.26.26,0,0,0,.26.26.26.26,0,0,0,.26-.26,1.3,1.3,0,0,1,1.3-1.3h6.768a1.3,1.3,0,0,1,1.3,1.3v7.318a1.815,1.815,0,0,0-1.3-.55h-6.768a1.815,1.815,0,0,0-1.3.55v-5.235a.26.26,0,0,0-.26-.26.26.26,0,0,0-.26.26v6.508a1.824,1.824,0,0,0,1.822,1.822h6.768a1.824,1.824,0,0,0,1.822-1.822v-1.562h3.384a1.824,1.824,0,0,0,1.822-1.822v-8.591A1.824,1.824,0,0,0-207.336-119.466Zm-5.206,15.1h-6.768a1.3,1.3,0,0,1-1.3-1.3,1.3,1.3,0,0,1,1.3-1.3h6.768a1.3,1.3,0,0,1,1.3,1.3A1.3,1.3,0,0,1-212.542-104.367Zm6.125-3.765a1.284,1.284,0,0,1-.919.381h-3.384v-2.6h3.384a1.3,1.3,0,0,1,1.3,1.3A1.285,1.285,0,0,1-206.417-108.133Zm.383-2.193a1.815,1.815,0,0,0-1.3-.55h-3.384v-3.384a1.824,1.824,0,0,0-1.822-1.822h-1.822v-.26a.26.26,0,0,0-.26-.26.26.26,0,0,0-.26.26v.26h-.521v-1.562a1.3,1.3,0,0,1,1.3-1.3h6.768a1.3,1.3,0,0,1,1.3,1.3Z" transform="translate(221.133 119.466)"/><path class="h" d="M-186.754-110.931a.237.237,0,0,0-.237.237v.237a.237.237,0,0,0,.237.237.237.237,0,0,0,.237-.237v-.237A.237.237,0,0,0-186.754-110.931Z" transform="translate(193.258 112.351)"/></g><g transform="translate(-289.744 -349.037)"><path class="d" d="M316.617,428.34h-4.988v-.866a.861.861,0,0,0-.867-.853h-3.472a.861.861,0,0,0-.867.853v.866h-4.988a.429.429,0,1,0,0,.858h.81l.552,14.123a1.613,1.613,0,0,0,1.629,1.541h9.2a1.613,1.613,0,0,0,1.629-1.541l.552-14.123h.809a.429.429,0,1,0,0-.858Zm-9.319-.86h3.458v.86H307.3Zm7.085,15.809a.749.749,0,0,1-.756.716h-9.2a.749.749,0,0,1-.756-.716l-.551-14.09h11.813Z" transform="translate(0 0)"/><path class="d" d="M310.383,446.668h.009a.436.436,0,0,0,.428-.444l-.137-7.114a.435.435,0,0,0-.436-.427h-.008a.436.436,0,0,0-.428.444l.137,7.113A.435.435,0,0,0,310.383,446.668Z" transform="translate(-4.316 -6.084)"/><path class="d" d="M316.316,446.668a.436.436,0,0,0,.436-.436v-7.113a.436.436,0,0,0-.872,0v7.113A.436.436,0,0,0,316.316,446.668Z" transform="translate(-7.289 -6.084)"/><path class="d" d="M322.108,446.668h.008a.436.436,0,0,0,.436-.427l.137-7.114a.436.436,0,0,0-.872-.017l-.137,7.114A.436.436,0,0,0,322.108,446.668Z" transform="translate(-10.13 -6.084)"/></g></g></g><g transform="translate(342.663 1240.462) rotate(-45)"><circle class="i" cx="11.408" cy="11.408" r="11.408" transform="translate(0)"/><g transform="translate(5.895 5.891)"><line class="j" y2="10.297" transform="translate(5.53 0)"/><line class="j" y2="10.585" transform="translate(10.585 5.307) rotate(90)"/></g></g></g></svg>