<svg id="Group_8280" data-name="Group 8280" xmlns="http://www.w3.org/2000/svg" width="20.931" height="15.698" viewBox="0 0 20.931 15.698">
  <path id="Path_28172" data-name="Path 28172" d="M23.333,77.218a2.724,2.724,0,0,1,.478.048.457.457,0,1,0,.159-.9,3.62,3.62,0,0,0-4.295,3.594,3.605,3.605,0,0,0,.064.637.458.458,0,0,0,.449.378.4.4,0,0,0,.08-.007.457.457,0,0,0,.37-.529,2.655,2.655,0,0,1-.049-.478A2.746,2.746,0,0,1,23.333,77.218Z" transform="translate(-12.789 -72.027)" fill="#03f87e"/>
  <path id="Path_28173" data-name="Path 28173" d="M25.463,71.575A21.386,21.386,0,0,0,20.308,67.3l2.532-2.55a.438.438,0,0,0,0-.617.431.431,0,0,0-.612,0L19.288,67.1l-.007.007L7.5,78.962a.439.439,0,0,0,0,.617.434.434,0,0,0,.307.127.429.429,0,0,0,.306-.127l2.605-2.623a10.675,10.675,0,0,0,4.451,1.006c5.336,0,10.091-5.585,10.291-5.823A.438.438,0,0,0,25.463,71.575Zm-7.692.282a2.61,2.61,0,0,1-2.6,2.616,2.564,2.564,0,0,1-1.505-.484l3.623-3.648A2.608,2.608,0,0,1,17.771,71.857Zm-2.6,5.233a9.731,9.731,0,0,1-3.793-.8l1.669-1.681a3.418,3.418,0,0,0,2.124.733,3.493,3.493,0,0,0,2.736-5.627l1.762-1.774a20.692,20.692,0,0,1,4.88,3.913C23.518,72.982,19.456,77.089,15.173,77.089Z" transform="translate(-4.635 -64.008)" fill="#03f87e"/>
  <path id="Path_28174" data-name="Path 28174" d="M4.528,79.641a.458.458,0,0,0,.252-.838,16.729,16.729,0,0,1-3.733-3.452c1.053-1.143,5.37-5.511,9.925-5.511a8.551,8.551,0,0,1,2.708.478.451.451,0,0,0,.578-.287.456.456,0,0,0-.287-.579,9.44,9.44,0,0,0-3-.527C5.339,68.925.319,74.781.108,75.03a.457.457,0,0,0-.026.557,16.975,16.975,0,0,0,4.194,3.977A.451.451,0,0,0,4.528,79.641Z" transform="translate(0 -67.097)" fill="#03f87e"/>
</svg>
