<svg xmlns="http://www.w3.org/2000/svg" width="50.033" height="44.514" viewBox="0 0 50.033 44.514">
  <g id="Group_13235" data-name="Group 13235" transform="translate(-198.299 -633.052)">
    <path id="Path_27835" data-name="Path 27835" d="M214.441,117.054a2.935,2.935,0,0,1-1.934-.727c-2.021-1.768-3.97-3.429-5.689-4.893l-.01-.008c-5.04-4.3-9.393-8.005-12.422-11.659-3.385-4.085-4.961-7.958-4.961-12.19A15.64,15.64,0,0,1,193.394,76.9,13.455,13.455,0,0,1,203.4,72.54a12.585,12.585,0,0,1,7.861,2.714,16.068,16.068,0,0,1,3.178,3.318,16.07,16.07,0,0,1,3.178-3.318,12.585,12.585,0,0,1,7.861-2.714A13.455,13.455,0,0,1,235.488,76.9a15.641,15.641,0,0,1,3.97,10.681c0,4.232-1.577,8.1-4.963,12.19-3.029,3.654-7.381,7.364-12.421,11.659C220.352,112.893,215.152,117.054,214.441,117.054Z" transform="translate(8.875 560.512)" fill="#03f87e"/>
  </g>
</svg>
