<svg xmlns="http://www.w3.org/2000/svg" width="58" height="58" viewBox="0 0 58 58"><defs><style>.a{fill:#0bd671;stroke:#0bd671;}.b,.d{fill:none;}.b{stroke:#1d0740;stroke-width:1.5px;}.c{stroke:none;}</style></defs><g transform="translate(-8484.091 -1953.267)"><g class="a" transform="translate(8484.091 1953.267)"><circle class="c" cx="29" cy="29" r="29"/><circle class="d" cx="29" cy="29" r="28.5"/></g><path class="b" d="M201.45,93.584a1.424,1.424,0,0,1-.93-.344c-.971-.836-1.908-1.621-2.735-2.313l0,0a50.542,50.542,0,0,1-5.971-5.512,8.726,8.726,0,0,1-2.385-5.763,7.323,7.323,0,0,1,1.908-5.049,6.518,6.518,0,0,1,4.811-2.059,6.114,6.114,0,0,1,3.779,1.283,7.652,7.652,0,0,1,1.528,1.569,7.656,7.656,0,0,1,1.528-1.569,6.115,6.115,0,0,1,3.779-1.283,6.518,6.518,0,0,1,4.811,2.059,7.324,7.324,0,0,1,1.908,5.049,8.724,8.724,0,0,1-2.385,5.763,50.536,50.536,0,0,1-5.97,5.512c-.828.694-1.766,1.48-2.74,2.317A1.426,1.426,0,0,1,201.45,93.584Z" transform="translate(8311.166 1899.227)"/></g></svg>