<svg xmlns="http://www.w3.org/2000/svg" width="30" height="30" viewBox="0 0 30 30"><defs><style>.a,.b,.d{fill:none;}.a,.b{stroke:#fff;}.a{opacity:0.3;}.c{stroke:none;}</style></defs><g transform="translate(-8484.091 -1953.267)"><g class="a" transform="translate(8484.091 1953.267)"><circle class="c" cx="15" cy="15" r="15"/><circle class="d" cx="15" cy="15" r="14.5"/></g><path class="b" d="M195.425,83.04a.711.711,0,0,1-.464-.171c-.485-.417-.952-.809-1.365-1.154l0,0a25.218,25.218,0,0,1-2.979-2.75,4.354,4.354,0,0,1-1.19-2.875,3.654,3.654,0,0,1,.952-2.519,3.252,3.252,0,0,1,2.4-1.028,3.051,3.051,0,0,1,1.885.64,3.818,3.818,0,0,1,.762.783,3.82,3.82,0,0,1,.762-.783,3.051,3.051,0,0,1,1.885-.64,3.252,3.252,0,0,1,2.4,1.028,3.654,3.654,0,0,1,.952,2.519,4.353,4.353,0,0,1-1.19,2.875,25.217,25.217,0,0,1-2.979,2.75c-.413.346-.881.738-1.367,1.156A.711.711,0,0,1,195.425,83.04Z" transform="translate(8303.166 1891.452)"/></g></svg>