<svg xmlns="http://www.w3.org/2000/svg" width="12.598" height="14.314" viewBox="0 0 12.598 14.314"><defs><style>.a{fill:#75689a;fill-rule:evenodd;}</style></defs><g transform="translate(0 0)"><path class="a" d="M12.318,5.778H2.779l9.162-2.654a.28.28,0,0,0,.191-.346l-.479-1.655A1.565,1.565,0,0,0,10.156,0a1.549,1.549,0,0,0-.431.061l-8.6,2.492A1.56,1.56,0,0,0,.062,4.481L.53,6.1v6.661a1.558,1.558,0,0,0,1.556,1.556h3.36a.28.28,0,1,0,0-.559H2.086a1,1,0,0,1-1-1v-3.8H12.038v3.8a1,1,0,0,1-1,1H7.682a.28.28,0,0,0,0,.559h3.36A1.558,1.558,0,0,0,12.6,12.759v-6.7a.28.28,0,0,0-.28-.28ZM7.388,8.395,8.576,6.338h1.545L8.933,8.395Zm-2.191,0L6.385,6.338H7.93L6.742,8.395Zm-2.191,0L4.194,6.338H5.739L4.552,8.395ZM4.046,4.776,2.057,2.865l1.49-.432a.277.277,0,0,0,.037.043L5.573,4.387l-1.49.432a.278.278,0,0,0-.037-.043ZM7.792,1.257,9.782,3.168,8.291,3.6a.272.272,0,0,0-.037-.043L6.265,1.646l1.49-.432A.277.277,0,0,0,7.792,1.257Zm-2.1.61,1.989,1.91-1.49.432a.272.272,0,0,0-.037-.043L4.161,2.255l1.49-.432A.3.3,0,0,0,5.688,1.867ZM9.881.6a.989.989,0,0,1,.275-.039,1,1,0,0,1,.96.719l.4,1.386L10.4,2.99a.284.284,0,0,0-.037-.043L8.37,1.036ZM.684,3.568a.989.989,0,0,1,.594-.477l.164-.048a.284.284,0,0,0,.037.043L3.469,5,1,5.712.6,4.325a.99.99,0,0,1,.086-.757Zm.4,2.77h2.46L2.361,8.395H1.089Zm8.49,2.057,1.188-2.057h1.272V8.395Zm0,0" transform="translate(0 0)"/><path class="a" d="M199.082,346.089a.28.28,0,0,0-.14-.242l-2.456-1.418a.28.28,0,0,0-.419.242v2.836a.279.279,0,0,0,.419.242l2.456-1.418A.279.279,0,0,0,199.082,346.089Zm-2.456.934v-1.868l1.617.934Zm0,0" transform="translate(-190.585 -334.763)"/><path class="a" d="M225.053,492a.28.28,0,1,0,.28.279A.28.28,0,0,0,225.053,492Zm0,0" transform="translate(-218.489 -478.245)"/></g></svg>