<svg xmlns="http://www.w3.org/2000/svg" width="16.053" height="18.242" viewBox="0 0 16.053 18.242">
  <g id="Group_8171" data-name="Group 8171" transform="translate(-301 -426.621)">
    <path id="Path_28387" data-name="Path 28387" d="M316.617,428.34h-4.988v-.866a.861.861,0,0,0-.867-.853h-3.472a.861.861,0,0,0-.867.853v.866h-4.988a.429.429,0,1,0,0,.858h.81l.552,14.123a1.613,1.613,0,0,0,1.629,1.541h9.2a1.613,1.613,0,0,0,1.629-1.541l.552-14.123h.809a.429.429,0,1,0,0-.858Zm-9.319-.86h3.458v.86H307.3Zm7.085,15.809a.749.749,0,0,1-.756.716h-9.2a.749.749,0,0,1-.756-.716l-.551-14.09h11.813Z" transform="translate(0 0)" fill="#fff"/>
    <path id="Path_28388" data-name="Path 28388" d="M310.383,446.668h.009a.436.436,0,0,0,.428-.444l-.137-7.114a.435.435,0,0,0-.436-.427h-.008a.436.436,0,0,0-.428.444l.137,7.113A.435.435,0,0,0,310.383,446.668Z" transform="translate(-4.316 -6.084)" fill="#fff"/>
    <path id="Path_28389" data-name="Path 28389" d="M316.316,446.668a.436.436,0,0,0,.436-.436v-7.113a.436.436,0,0,0-.872,0v7.113A.436.436,0,0,0,316.316,446.668Z" transform="translate(-7.289 -6.084)" fill="#fff"/>
    <path id="Path_28390" data-name="Path 28390" d="M322.108,446.668h.008a.436.436,0,0,0,.436-.427l.137-7.114a.436.436,0,0,0-.872-.017l-.137,7.114A.436.436,0,0,0,322.108,446.668Z" transform="translate(-10.13 -6.084)" fill="#fff"/>
  </g>
</svg>
