<svg xmlns="http://www.w3.org/2000/svg" width="14.633" height="14.633" viewBox="0 0 14.633 14.633"><defs><style>.a{fill:#75689a;}</style></defs><path class="a" d="M9.282,0H3.458V2.572h6.859a3.442,3.442,0,0,1,.848,6.782c.006-.107.009-.214.009-.323a5.6,5.6,0,1,0-.8,2.888,5.349,5.349,0,0,0,4.258-5.21V5.352A5.369,5.369,0,0,0,9.282,0ZM8.6,1.715H6.888V.857H8.6ZM4.316.857H6.031v.857H4.316Zm6,.857H9.46V.861A4.487,4.487,0,0,1,12.7,2.441,4.261,4.261,0,0,0,10.318,1.715ZM5.6,13.776a4.744,4.744,0,1,1,4.716-4.744A4.75,4.75,0,0,1,5.6,13.776Zm5.259-2.889a5.573,5.573,0,0,0,.18-.631,4.311,4.311,0,0,0,1.633-.638,4.54,4.54,0,0,1-1.813,1.269Z"/><path class="a" d="M152.286,183.572A1.286,1.286,0,1,0,151,182.286,1.288,1.288,0,0,0,152.286,183.572Zm0-1.715a.429.429,0,1,1-.429.429A.429.429,0,0,1,152.286,181.857Z" transform="translate(-146.684 -175.827)"/><path class="a" d="M152.286,361a1.286,1.286,0,1,0,1.286,1.286A1.288,1.288,0,0,0,152.286,361Zm0,1.715a.429.429,0,1,1,.429-.429A.429.429,0,0,1,152.286,362.715Z" transform="translate(-146.684 -350.682)"/><path class="a" d="M62.286,271a1.286,1.286,0,1,0,1.286,1.286A1.288,1.288,0,0,0,62.286,271Zm0,1.715a.429.429,0,1,1,.429-.429A.429.429,0,0,1,62.286,272.715Z" transform="translate(-59.257 -263.255)"/><path class="a" d="M242.286,271a1.286,1.286,0,1,0,1.286,1.286A1.288,1.288,0,0,0,242.286,271Zm0,1.715a.429.429,0,1,1,.429-.429A.429.429,0,0,1,242.286,272.715Z" transform="translate(-234.112 -263.255)"/><path class="a" d="M181,301h.857v.857H181Z" transform="translate(-175.827 -292.397)"/></svg>