<svg xmlns="http://www.w3.org/2000/svg" width="16.019" height="16.019" viewBox="0 0 16.019 16.019">
  <g id="Group_8281" data-name="Group 8281" transform="translate(0.2 0.2)">
    <circle id="Ellipse_255" data-name="Ellipse 255" cx="0.237" cy="0.237" r="0.237" transform="translate(0 6.006)" fill="#fff" stroke="#fff" stroke-width="0.4"/>
    <path id="Path_28427" data-name="Path 28427" d="M-211.205-91.727a.237.237,0,0,0,.237-.237V-92.2a.237.237,0,0,0-.237-.237.237.237,0,0,0-.237.237v.237A.237.237,0,0,0-211.205-91.727Z" transform="translate(213.055 97.407)" fill="#fff" stroke="#fff" stroke-width="0.4"/>
    <path id="Path_28428" data-name="Path 28428" d="M-211.442-81.3a.237.237,0,0,0,.237.237.237.237,0,0,0,.237-.237v-3.788a.237.237,0,0,0-.237-.237.237.237,0,0,0-.237.237Z" transform="translate(213.055 91.814)" fill="#fff" stroke="#fff" stroke-width="0.4"/>
    <path id="Path_28429" data-name="Path 28429" d="M-207.336-119.466H-214.1a1.824,1.824,0,0,0-1.822,1.822v1.562h-3.384a1.824,1.824,0,0,0-1.822,1.822.26.26,0,0,0,.26.26.26.26,0,0,0,.26-.26,1.3,1.3,0,0,1,1.3-1.3h6.768a1.3,1.3,0,0,1,1.3,1.3v7.318a1.815,1.815,0,0,0-1.3-.55h-6.768a1.815,1.815,0,0,0-1.3.55v-5.235a.26.26,0,0,0-.26-.26.26.26,0,0,0-.26.26v6.508a1.824,1.824,0,0,0,1.822,1.822h6.768a1.824,1.824,0,0,0,1.822-1.822v-1.562h3.384a1.824,1.824,0,0,0,1.822-1.822v-8.591A1.824,1.824,0,0,0-207.336-119.466Zm-5.206,15.1h-6.768a1.3,1.3,0,0,1-1.3-1.3,1.3,1.3,0,0,1,1.3-1.3h6.768a1.3,1.3,0,0,1,1.3,1.3A1.3,1.3,0,0,1-212.542-104.367Zm6.125-3.765a1.284,1.284,0,0,1-.919.381h-3.384v-2.6h3.384a1.3,1.3,0,0,1,1.3,1.3A1.285,1.285,0,0,1-206.417-108.133Zm.383-2.193a1.815,1.815,0,0,0-1.3-.55h-3.384v-3.384a1.824,1.824,0,0,0-1.822-1.822h-1.822v-.26a.26.26,0,0,0-.26-.26.26.26,0,0,0-.26.26v.26h-.521v-1.562a1.3,1.3,0,0,1,1.3-1.3h6.768a1.3,1.3,0,0,1,1.3,1.3Z" transform="translate(221.133 119.466)" fill="#fff" stroke="#fff" stroke-width="0.4"/>
    <path id="Path_28431" data-name="Path 28431" d="M-186.754-110.931a.237.237,0,0,0-.237.237v.237a.237.237,0,0,0,.237.237.237.237,0,0,0,.237-.237v-.237A.237.237,0,0,0-186.754-110.931Z" transform="translate(193.258 112.351)" fill="#fff" stroke="#fff" stroke-width="0.4"/>
  </g>
</svg>
