<svg xmlns="http://www.w3.org/2000/svg" width="15.498" height="27.521" viewBox="0 0 15.498 27.521"><defs><style>.a{fill:#9080ad;}</style></defs><g transform="translate(-220.727 -122.928)"><path class="a" d="M235.98,138.193a1.6,1.6,0,0,0-2.077-.139,1.569,1.569,0,0,0-.407-.684,1.6,1.6,0,0,0-2.238,0l-5.643,5.588-.525-3.315a1.852,1.852,0,0,0-1.829-1.575,1.244,1.244,0,0,0-1.243,1.231v7.74a4.461,4.461,0,0,0,1.335,3.192l1.3,1.291a4.586,4.586,0,0,0,6.284.148l3.425-3.086a1.566,1.566,0,0,0-.69-2.619,1.56,1.56,0,0,0-.143-2.066,1.577,1.577,0,0,0-.669-.394l3.124-3.094a1.562,1.562,0,0,0,0-2.208Zm-.58,1.64-4.973,4.925a.409.409,0,0,0,0,.578l0,0a.415.415,0,0,0,.586,0l.865-.856a.762.762,0,0,1,1.072,0,.746.746,0,0,1,0,1.055h0l-.865.86h0a.408.408,0,0,0,0,.576l0,0a.415.415,0,0,0,.586,0l.036-.036a.776.776,0,0,1,1.072,0,.739.739,0,0,1,.014,1.044l-3.411,3.073a3.752,3.752,0,0,1-5.139-.12l-1.306-1.295a3.652,3.652,0,0,1-1.092-2.612V139.3a.415.415,0,0,1,.414-.414,1.024,1.024,0,0,1,1.01.876l.655,4.114a.413.413,0,0,0,.281.327.42.42,0,0,0,.421-.1l6.216-6.158a.763.763,0,0,1,1.072,0,.746.746,0,0,1,0,1.055l0,0-4.144,4.106a.41.41,0,0,0,0,.579h0a.415.415,0,0,0,.586,0l4.973-4.925a.763.763,0,0,1,1.072,0,.745.745,0,0,1,0,1.055Z" transform="translate(-0.221 -2.393)"/><path class="a" d="M220.773,132.169c.126-.283,3.073-6.574,12.85-7.169l-1.711-1.078a.539.539,0,0,1,.575-.912l3.031,1.911a.709.709,0,0,1,.162,1.059l-2.26,2.661a.539.539,0,1,1-.821-.7l1.605-1.89c-9.5.366-12.329,6.292-12.449,6.555a.539.539,0,0,1-.492.317.55.55,0,0,1-.22-.047A.54.54,0,0,1,220.773,132.169Z" transform="translate(0 0)"/></g></svg>