<svg xmlns="http://www.w3.org/2000/svg" width="30" height="30" viewBox="0 0 30 30"><defs><style>.a,.b,.d{fill:none;}.a{stroke:#fff;opacity:0.3;}.c,.e{stroke:none;}.e{fill:#fff;}</style></defs><g transform="translate(-8484.091 -1953.267)"><g class="a" transform="translate(8484.091 1953.267)"><circle class="c" cx="15" cy="15" r="15"/><circle class="d" cx="15" cy="15" r="14.5"/></g><g class="b" transform="translate(8506.5 1960.992) rotate(90)"><path class="c" d="M5.121,3.039a2,2,0,0,1,3.473,0L12,9.008A2,2,0,0,1,10.268,12H3.446A2,2,0,0,1,1.71,9.008Z"/><path class="e" d="M 6.857141971588135 3.031130790710449 C 6.682651996612549 3.031130790710449 6.248752117156982 3.080230712890625 5.988892078399658 3.534991264343262 L 2.57811164855957 9.503860473632813 C 2.320241928100586 9.955131530761719 2.494542121887207 10.35217094421387 2.581452369689941 10.50193119049072 C 2.668361663818359 10.6516809463501 2.92661190032959 11.00000095367432 3.446361541748047 11.00000095367432 L 10.26792144775391 11.00000095367432 C 10.78767204284668 11.00000095367432 11.04592227935791 10.6516809463501 11.13283157348633 10.50193119049072 C 11.21974182128906 10.35217094421387 11.39404201507568 9.955131530761719 11.1361722946167 9.503860473632813 L 7.725391864776611 3.534991264343262 C 7.465521812438965 3.080230712890625 7.031631946563721 3.031130790710449 6.857141971588135 3.031130790710449 M 6.857141971588135 2.031128883361816 C 7.533439636230469 2.031128883361816 8.209736824035645 2.367035865783691 8.593631744384766 3.038850784301758 L 12.0044116973877 9.007720947265625 C 12.76630210876465 10.34103107452393 11.8035717010498 12.00000095367432 10.26792144775391 12.00000095367432 L 3.446361541748047 12.00000095367432 C 1.910712242126465 12.00000095367432 0.9479818344116211 10.34103107452393 1.709872245788574 9.007720947265625 L 5.120652198791504 3.038850784301758 C 5.504547119140625 2.367035865783691 6.180844306945801 2.031128883361816 6.857141971588135 2.031128883361816 Z"/></g></g></svg>