<svg xmlns="http://www.w3.org/2000/svg" width="39" height="40" viewBox="0 0 39 40"><defs><style>.a{fill:#0c0022;}.b{fill:#03f87e;}.c,.d{stroke:none;}.d{fill:rgba(214,198,244,0.2);}</style></defs><g transform="translate(-0.345 0)"><g class="a" transform="translate(0.345 0)"><path class="c" d="M19.5,0A19.755,19.755,0,0,1,39,20,19.755,19.755,0,0,1,19.5,40,19.755,19.755,0,0,1,0,20,19.755,19.755,0,0,1,19.5,0Z"/><path class="d" d="M 19.5 1 C 14.56327056884766 1 9.920669555664063 2.973148345947266 6.427421569824219 6.555961608886719 C 4.726039886474609 8.300960540771484 3.390159606933594 10.3332405090332 2.456878662109375 12.59634017944336 C 1.490169525146484 14.94051933288574 1 17.43147087097168 1 20 C 1 22.56852912902832 1.490169525146484 25.05947875976563 2.456878662109375 27.40365982055664 C 3.390159606933594 29.6667594909668 4.726039886474609 31.69903945922852 6.427421569824219 33.44403839111328 C 9.920669555664063 37.02685165405273 14.56327056884766 39 19.5 39 C 24.43672943115234 39 29.07933044433594 37.02685165405273 32.57257843017578 33.44403839111328 C 34.27396011352539 31.69903945922852 35.60984039306641 29.6667594909668 36.54312133789063 27.40365982055664 C 37.50983047485352 25.05947875976563 38 22.56852912902832 38 20 C 38 17.43147087097168 37.50983047485352 14.94051933288574 36.54312133789063 12.59634017944336 C 35.60984039306641 10.3332405090332 34.27396011352539 8.300960540771484 32.57257843017578 6.555961608886719 C 29.07933044433594 2.973148345947266 24.43672943115234 1 19.5 1 M 19.5 0 C 30.26955032348633 0 39 8.954299926757813 39 20 C 39 31.04570007324219 30.26955032348633 40 19.5 40 C 8.730449676513672 40 0 31.04570007324219 0 20 C 0 8.954299926757813 8.730449676513672 0 19.5 0 Z"/></g><path class="b" d="M2309.042,216.9a3.945,3.945,0,0,0-2.664,3.968l.04.675-.683-.083a11.126,11.126,0,0,1-6.5-3.2l-.9-.9-.231.661a3.976,3.976,0,0,0,.848,4.08c.547.578.423.661-.518.317a1.614,1.614,0,0,0-.644-.151,4.947,4.947,0,0,0,.492,1.847,4.418,4.418,0,0,0,1.872,1.764l.67.317-.793.012c-.765,0-.792.014-.71.3a4.129,4.129,0,0,0,2.555,2.26l.847.289-.738.441a7.661,7.661,0,0,1-3.663,1.019,4.025,4.025,0,0,0-1.121.111,10.481,10.481,0,0,0,2.637,1.212,11.554,11.554,0,0,0,8.963-1.02,11.97,11.97,0,0,0,4.551-5.348,14.191,14.191,0,0,0,.929-4.133c0-.635.041-.717.805-1.474a9.124,9.124,0,0,0,.956-1.061c.138-.262.123-.262-.573-.028-1.161.414-1.324.359-.751-.261a4.009,4.009,0,0,0,.929-1.474c0-.041-.2.028-.437.151a7.454,7.454,0,0,1-1.2.468l-.738.235-.669-.456a5.551,5.551,0,0,0-1.162-.606A4.673,4.673,0,0,0,2309.042,216.9Z" transform="translate(-2286.044 -204.901)"/></g></svg>