<svg xmlns="http://www.w3.org/2000/svg" width="21.331" height="18.335" viewBox="0 0 21.331 18.335"><defs><style>.a{fill:#8b7fa0;}</style></defs><g transform="translate(108.886 -149.803)"><g transform="translate(-108.886 149.803)"><path class="a" d="M-78.173,154.922a.712.712,0,0,1-.727.513q-4.937-.011-9.874,0A.628.628,0,0,1-89.4,155a.781.781,0,0,1,.091-.777.613.613,0,0,1,.538-.258c1.225.005,2.451,0,3.676,0,2.053,0,4.106.007,6.159-.006a.73.73,0,0,1,.766.515Z" transform="translate(99.504 -151.81)"/><path class="a" d="M-78.162,174.708a.7.7,0,0,1-.726.513q-4.926-.009-9.852,0a.679.679,0,0,1-.7-.736.666.666,0,0,1,.624-.73c.638-.006,1.277,0,1.916,0,2.658,0,5.317,0,7.975-.006a.731.731,0,0,1,.766.515Z" transform="translate(99.493 -161.37)"/><path class="a" d="M-104.9,149.8c.792,0,1.584,0,2.376,0a1.543,1.543,0,0,1,1.562,1.564q.006,2.4,0,4.8a1.545,1.545,0,0,1-1.565,1.563q-2.4.005-4.8,0a1.543,1.543,0,0,1-1.562-1.565q-.005-2.4,0-4.8a1.545,1.545,0,0,1,1.565-1.562C-106.512,149.8-105.705,149.8-104.9,149.8Zm2.472,3.941q0-1.088,0-2.175c0-.27-.026-.3-.294-.3h-4.394c-.272,0-.3.028-.3.292,0,1.473,0,2.945,0,4.417,0,.216.08.286.292.285,1.457-.006,2.914,0,4.372,0,.3,0,.329-.036.329-.342Q-102.426,154.832-102.427,153.745Z" transform="translate(108.886 -149.803)"/><path class="a" d="M-100.957,173.922c0,.792,0,1.584,0,2.376a1.554,1.554,0,0,1-1.566,1.564q-2.4,0-4.8,0a1.546,1.546,0,0,1-1.564-1.564q-.005-2.4,0-4.8a1.545,1.545,0,0,1,1.565-1.562q2.4-.006,4.8,0a1.549,1.549,0,0,1,1.563,1.566c0,.807,0,1.614,0,2.421Zm-3.988,2.473h2.218c.27,0,.3-.029.3-.293q0-2.2,0-4.392c0-.28-.026-.306-.31-.306h-4.37c-.285,0-.311.026-.311.3q0,2.2,0,4.392c0,.266.028.294.3.295Z" transform="translate(108.886 -159.528)"/><path class="a" d="M-84.942,160.644c-1.262,0-2.524,0-3.787,0a.707.707,0,0,1-.712-.617.722.722,0,0,1,.509-.818.967.967,0,0,1,.265-.03q3.719,0,7.439,0a.721.721,0,0,1,.786.732.715.715,0,0,1-.78.735q-1.859,0-3.719,0Z" transform="translate(99.495 -154.332)"/><path class="a" d="M-84.927,179.31c1.255,0,2.51,0,3.766,0a.709.709,0,0,1,.7.53.737.737,0,0,1-.312.822.716.716,0,0,1-.4.112q-3.766,0-7.532,0a.716.716,0,0,1-.73-.743.7.7,0,0,1,.727-.719C-87.453,179.307-86.19,179.31-84.927,179.31Z" transform="translate(99.493 -164.058)"/></g></g></svg>