<svg xmlns="http://www.w3.org/2000/svg" width="21.11" height="22" viewBox="0 0 21.11 22"><defs><style>.a{fill:#8b7fa0;}</style></defs><g transform="translate(-10.359 0.002)"><path class="a" d="M31.271,12.962l-.82-1.678a.645.645,0,0,1,0-.57l.82-1.678A1.91,1.91,0,0,0,30.448,6.5L28.8,5.623a.644.644,0,0,1-.335-.461l-.323-1.841a1.91,1.91,0,0,0-2.158-1.567l-1.85.261a.644.644,0,0,1-.542-.176L22.247.54a1.911,1.911,0,0,0-2.667,0l-1.343,1.3a.644.644,0,0,1-.542.176l-1.85-.261a1.909,1.909,0,0,0-2.157,1.567l-.323,1.84a.645.645,0,0,1-.335.461L11.38,6.5a1.91,1.91,0,0,0-.824,2.536l.821,1.678a.645.645,0,0,1,0,.57l-.821,1.678A1.91,1.91,0,0,0,11.38,15.5l1.65.875a.645.645,0,0,1,.335.462l.323,1.84a1.909,1.909,0,0,0,1.883,1.587,1.969,1.969,0,0,0,.274-.019l1.85-.262a.643.643,0,0,1,.542.176l1.343,1.3a1.91,1.91,0,0,0,2.667,0l1.343-1.3a.646.646,0,0,1,.542-.176l1.85.262a1.91,1.91,0,0,0,2.158-1.567l.323-1.84a.645.645,0,0,1,.335-.462l1.651-.875A1.91,1.91,0,0,0,31.271,12.962Zm-1.419,1.415-1.651.876a1.906,1.906,0,0,0-.99,1.363l-.323,1.84a.646.646,0,0,1-.73.531l-1.85-.262a1.907,1.907,0,0,0-1.6.521l-1.343,1.3a.646.646,0,0,1-.9,0l-1.343-1.3a1.9,1.9,0,0,0-1.329-.539,1.931,1.931,0,0,0-.273.019l-1.85.262a.647.647,0,0,1-.73-.531l-.323-1.84a1.906,1.906,0,0,0-.99-1.363l-1.651-.876a.646.646,0,0,1-.279-.858l.82-1.678a1.907,1.907,0,0,0,0-1.684L11.7,8.478a.646.646,0,0,1,.279-.858l1.651-.876a1.906,1.906,0,0,0,.99-1.363l.323-1.84a.647.647,0,0,1,.73-.531l1.85.262a1.907,1.907,0,0,0,1.6-.521l1.343-1.3a.646.646,0,0,1,.9,0l1.343,1.3a1.907,1.907,0,0,0,1.6.521l1.85-.262a.647.647,0,0,1,.73.531l.323,1.84a1.9,1.9,0,0,0,.99,1.363l1.651.876a.646.646,0,0,1,.279.858l-.82,1.678a1.907,1.907,0,0,0,0,1.684l.82,1.678A.646.646,0,0,1,29.853,14.377Z" transform="translate(0 0)"/><path class="a" d="M29.755,10.657a.649.649,0,0,0-.918,0L20.264,19.23a.649.649,0,1,0,.918.918l8.572-8.572A.65.65,0,0,0,29.755,10.657Z" transform="translate(-4.096 -4.405)"/><path class="a" d="M22.383,13.724A2.381,2.381,0,1,0,20,11.343,2.384,2.384,0,0,0,22.383,13.724Zm0-3.463A1.082,1.082,0,1,1,21.3,11.343,1.084,1.084,0,0,1,22.383,10.261Z" transform="translate(-3.99 -3.707)"/><path class="a" d="M30.983,20.429a2.381,2.381,0,1,0,2.381,2.381A2.384,2.384,0,0,0,30.983,20.429Zm0,3.463a1.082,1.082,0,1,1,1.082-1.083A1.084,1.084,0,0,1,30.983,23.892Z" transform="translate(-7.549 -8.45)"/></g></svg>