<svg xmlns="http://www.w3.org/2000/svg" width="13.866" height="12.875" viewBox="0 0 13.866 12.875"><defs><style>.a{fill:#fba214;}.b,.c{stroke:none;}.c{fill:#fba214;}</style></defs><g class="a"><path class="b" d="M 9.655097007751465 11.26547241210938 C 9.566697120666504 11.26548290252686 9.47995662689209 11.24014282226562 9.397287368774414 11.19015312194824 L 7.709006786346436 10.16920280456543 C 7.474846839904785 10.02760314941406 7.206437110900879 9.952762603759766 6.932806968688965 9.952762603759766 C 6.659176826477051 9.952762603759766 6.390767097473145 10.02760314941406 6.156617164611816 10.16919326782227 L 4.468327045440674 11.19015312194824 C 4.385676860809326 11.24013328552246 4.298916816711426 11.26547241210938 4.210466861724854 11.26547241210938 C 4.057706832885742 11.26547241210938 3.908016920089722 11.19048309326172 3.810036897659302 11.06486320495605 C 3.743807077407837 10.97994327545166 3.675226926803589 10.83740329742432 3.724647045135498 10.64055252075195 L 4.179176807403564 8.830062866210938 C 4.319286823272705 8.271992683410645 4.123157024383545 7.674633026123047 3.67950701713562 7.308242797851562 L 2.242227077484131 6.121232986450195 C 2.000216960906982 5.92136287689209 2.060186862945557 5.659183025360107 2.084326982498169 5.583592891693115 C 2.108466863632202 5.508002758026123 2.21157693862915 5.259603023529053 2.52463698387146 5.237002849578857 L 4.449127197265625 5.098123073577881 C 5.016427040100098 5.057202816009521 5.505267143249512 4.705832958221436 5.724856853485107 4.181142807006836 L 6.471577167510986 2.397042751312256 C 6.590786933898926 2.112222909927368 6.85474681854248 2.090092897415161 6.932806968688965 2.090092897415161 C 7.010867118835449 2.090092897415161 7.274827003479004 2.112222909927368 7.394036769866943 2.397042751312256 L 8.140756607055664 4.181142807006836 C 8.360366821289062 4.705832958221436 8.849197387695312 5.057202816009521 9.416497230529785 5.098123073577881 L 11.34097671508789 5.237002849578857 C 11.65403652191162 5.259603023529053 11.75714683532715 5.508002758026123 11.78128719329834 5.583592891693115 C 11.80542659759521 5.659183025360107 11.86539649963379 5.92136287689209 11.62338733673096 6.121232986450195 L 10.18610668182373 7.308242797851562 C 9.742457389831543 7.674633026123047 9.546326637268066 8.271992683410645 9.686436653137207 8.830062866210938 L 10.14096736907959 10.64055252075195 C 10.1903772354126 10.83734321594238 10.12180709838867 10.97986316680908 10.05558681488037 11.064772605896 C 9.957587242126465 11.19043254852295 9.807876586914062 11.26545238494873 9.655097007751465 11.26547241210938 Z"/><path class="c" d="M 6.932806968688965 2.590092658996582 L 6.186087131500244 4.374202728271484 C 5.893277168273926 5.073782920837402 5.241497039794922 5.542263031005859 4.485116958618164 5.596832752227783 L 2.560626983642578 5.735713005065918 C 2.560626983642578 5.735713005065918 2.560626983642578 5.735713005065918 2.560626983642578 5.735713005065918 C 2.560626029968262 5.735714912414551 2.560625076293945 5.735716819763184 2.560616493225098 5.735713005065918 L 3.997897148132324 6.922722816467285 C 4.589436531066895 7.411252975463867 4.850947380065918 8.207712173461914 4.664127349853516 8.951812744140625 L 4.209587097167969 10.76230239868164 L 5.897867202758789 9.741353034973145 C 6.210066795349121 9.552553176879883 6.567946910858154 9.452762603759766 6.932806968688965 9.452762603759766 C 7.297667026519775 9.452762603759766 7.655547142028809 9.552553176879883 7.967746734619141 9.741353034973145 L 9.65599536895752 10.76228618621826 C 9.656000137329102 10.762282371521 9.656004905700684 10.76227855682373 9.656017303466797 10.76230239868164 L 9.201486587524414 8.951822280883789 C 9.014667510986328 8.207712173461914 9.276176452636719 7.411252975463867 9.867716789245605 6.922722816467285 L 11.30498695373535 5.735713005065918 L 9.380527496337891 5.596832752227783 C 8.624116897583008 5.542263031005859 7.972336769104004 5.073782920837402 7.679526805877686 4.37419319152832 L 6.932806968688965 2.590092658996582 M 6.932806968688965 1.590090751647949 C 7.308389663696289 1.590090751647949 7.683971881866455 1.79472827911377 7.85526704788208 2.204002380371094 L 8.601986885070801 3.988102912902832 C 8.747567176818848 4.335923194885254 9.076396942138672 4.572293281555176 9.452476501464844 4.599422454833984 L 11.37696647644043 4.738303184509277 C 12.27667713165283 4.80323314666748 12.63729667663574 5.932332992553711 11.94177722930908 6.506752967834473 L 10.50449752807617 7.69376277923584 C 10.20707702636719 7.939393043518066 10.07745742797852 8.334182739257812 10.17138671875 8.70831298828125 L 10.62591743469238 10.51880264282227 C 10.79544925689697 11.19407844543457 10.26101016998291 11.76547336578369 9.6551513671875 11.76547336578369 C 9.483871459960938 11.76547336578369 9.30698299407959 11.71985530853271 9.138557434082031 11.61800289154053 L 7.450276851654053 10.59705257415771 C 7.291196823120117 10.50085830688477 7.112001895904541 10.45276069641113 6.932806968688965 10.45276069641113 C 6.753612041473389 10.45276069641113 6.574417114257812 10.50085830688477 6.415337085723877 10.59705257415771 L 4.727056503295898 11.61800289154053 C 4.558677673339844 11.71982765197754 4.381697654724121 11.76547336578369 4.210461616516113 11.76547336578369 C 3.604541778564453 11.76547336578369 3.070143699645996 11.19413185119629 3.239696502685547 10.51880264282227 L 3.69422721862793 8.70831298828125 C 3.788156509399414 8.334182739257812 3.658536911010742 7.939393043518066 3.361117362976074 7.69376277923584 L 1.923836708068848 6.506752967834473 C 1.228317260742188 5.932332992553711 1.588936805725098 4.80323314666748 2.488646507263184 4.738303184509277 L 4.413137435913086 4.599422454833984 C 4.789216995239258 4.572293281555176 5.118046760559082 4.335923194885254 5.263627052307129 3.988102912902832 L 6.01034688949585 2.204002380371094 C 6.181642055511475 1.79472827911377 6.557224273681641 1.590090751647949 6.932806968688965 1.590090751647949 Z"/></g></svg>