<svg xmlns="http://www.w3.org/2000/svg" width="22.167" height="18.3" viewBox="0 0 22.167 18.3"><defs><style>.a{fill:#8b7fa0;stroke:#8b7fa0;stroke-width:0.3px;}</style></defs><g transform="translate(0.15 0.15)"><path class="a" d="M20.18,0H1.687A1.688,1.688,0,0,0,0,1.687V16.313A1.688,1.688,0,0,0,1.687,18H20.18a1.688,1.688,0,0,0,1.688-1.687V1.687A1.688,1.688,0,0,0,20.18,0Zm.563,16.313a.562.562,0,0,1-.563.562H1.687a.562.562,0,0,1-.562-.562V1.687a.562.562,0,0,1,.562-.562H20.18a.562.562,0,0,1,.563.562Z"/><rect class="a" width="1.161" height="1.161" transform="translate(2.322 2.322)"/><rect class="a" width="1.161" height="1.161" transform="translate(18.385 2.322)"/><rect class="a" width="1.161" height="1.161" transform="translate(18.385 14.518)"/><rect class="a" width="1.161" height="1.161" transform="translate(2.322 14.518)"/><path class="a" d="M23.75,24.073H21.429V21.751H20.268v5.8h1.161V25.233H23.75v2.322h1.161v-5.8H23.75Z" transform="translate(-14.55 -15.653)"/><path class="a" d="M42.707,25.233V24.073a2.322,2.322,0,1,0-4.643,0v1.161A2.305,2.305,0,0,0,41.4,27.311a1.161,1.161,0,0,0,.726.244h1.161V26.394h-.894A2.321,2.321,0,0,0,42.707,25.233Zm-1.161,0a1.161,1.161,0,0,1-2.322,0V24.073a1.161,1.161,0,0,1,2.322,0Z" transform="translate(-27.34 -15.653)"/></g></svg>