<svg xmlns="http://www.w3.org/2000/svg" width="21.489" height="21.476" viewBox="0 0 21.489 21.476"><defs><style>.a{fill:#8b7fa0;stroke:#8b7fa0;stroke-width:0.2px;}</style></defs><g transform="translate(0.107 0.1)"><path class="a" d="M21.982,42.2a.415.415,0,0,0-.416.415v1.529l-.392-.727a1.469,1.469,0,0,0-2.721,1.043l.761,3.153a5.693,5.693,0,0,0,.942,2.034l1.49,2.039a.416.416,0,0,0,.671-.49l-1.49-2.039a4.866,4.866,0,0,1-.805-1.738l-.761-3.153a.638.638,0,0,1,1.182-.453l1.173,2.173a.415.415,0,0,0,.781-.2V42.616A.415.415,0,0,0,21.982,42.2Z" transform="translate(-13.342 -30.582)"/><path class="a" d="M37.28,28.433a1.4,1.4,0,0,0-.677.173,1.413,1.413,0,0,0-2.034-.716,1.412,1.412,0,0,0-1.869-.7V25.2a1.415,1.415,0,1,0-2.83,0v.72a.416.416,0,0,0,.831,0V25.2a.584.584,0,1,1,1.167,0v5.864a.416.416,0,0,0,.831,0V28.479a.584.584,0,1,1,1.167,0v2.589a.415.415,0,1,0,.831,0V29.112a.584.584,0,1,1,1.167,0v1.956a.415.415,0,0,0,.831,0V29.848a.584.584,0,1,1,1.167,0v3.506a9.19,9.19,0,0,1-.421,2.752l-.586,1.869a.415.415,0,1,0,.793.249l.586-1.869a10.018,10.018,0,0,0,.46-3V29.848A1.417,1.417,0,0,0,37.28,28.433Z" transform="translate(-21.646 -17.239)"/><path class="a" d="M61.086,2.2a.7.7,0,0,0-.565-.476l-1.273-.185L58.679.39A.7.7,0,0,0,58.052,0h0a.7.7,0,0,0-.627.39l-.569,1.154-1.273.185A.7.7,0,0,0,55.2,2.922l.921.9L55.9,5.087a.7.7,0,0,0,1.015.737l1.138-.6,1.139.6a.7.7,0,0,0,1.015-.738l-.218-1.268.921-.9A.7.7,0,0,0,61.086,2.2ZM59.359,3.272a.7.7,0,0,0-.2.619l.184,1.073-.964-.506a.7.7,0,0,0-.651,0l-.964.507.184-1.073a.7.7,0,0,0-.2-.619l-.78-.76,1.077-.157a.7.7,0,0,0,.527-.383L58.052,1l.482.976a.7.7,0,0,0,.527.383l1.077.156Z" transform="translate(-39.845)"/><path class="a" d="M28.625,3.82l-.217,1.268a.7.7,0,0,0,1.015.737l1.138-.6,1.139.6a.7.7,0,0,0,1.015-.738L32.5,3.819l.921-.9a.7.7,0,0,0-.388-1.193l-1.273-.185L31.187.39A.7.7,0,0,0,30.56,0h0a.7.7,0,0,0-.627.39l-.569,1.154-1.273.185A.7.7,0,0,0,27.7,2.922Zm.927-1.464a.7.7,0,0,0,.527-.383L30.56,1l.482.976a.7.7,0,0,0,.527.383l1.078.156-.779.76a.7.7,0,0,0-.2.619l.184,1.073-.964-.506a.7.7,0,0,0-.651,0l-.964.507.184-1.073a.7.7,0,0,0-.2-.619l-.78-.76Z" transform="translate(-19.923)"/><path class="a" d="M5.223,5.086,5,3.819l.921-.9a.7.7,0,0,0-.388-1.193L4.265,1.543,3.7.39A.7.7,0,0,0,3.068,0h0a.7.7,0,0,0-.627.39L1.872,1.544.6,1.729A.7.7,0,0,0,.212,2.922l.921.9L.916,5.087a.7.7,0,0,0,1.015.737l1.138-.6,1.138.6a.7.7,0,0,0,1.015-.738ZM4.375,3.272a.7.7,0,0,0-.2.619l.184,1.073-.964-.506a.7.7,0,0,0-.651,0l-.964.507.184-1.073a.7.7,0,0,0-.2-.619l-.78-.76L2.06,2.356a.7.7,0,0,0,.527-.383L3.068,1l.482.976a.7.7,0,0,0,.527.383l1.078.156Z" transform="translate(0)"/><path class="a" d="M30.286,37.084a.416.416,0,1,0-.294-.122A.42.42,0,0,0,30.286,37.084Z" transform="translate(-21.646 -26.272)"/></g></svg>