<svg xmlns="http://www.w3.org/2000/svg" width="18.132" height="18" viewBox="0 0 18.132 18"><defs><style>.a,.b{fill:#8a7fa0;}.b{stroke:#8a7fa0;stroke-width:0.4px;}</style></defs><path class="a" d="M17.843,29.626c-.158.039-.319.075-.479.1a.769.769,0,0,0,.281,1.513c.19-.035.381-.077.57-.124a.769.769,0,1,0-.371-1.493Z" transform="translate(-6.953 -13.263)"/><path class="a" d="M27.543,12.113A.769.769,0,1,0,29,11.629c-.061-.184-.128-.368-.2-.548a.769.769,0,1,0-1.429.571C27.435,11.8,27.491,11.959,27.543,12.113Z" transform="translate(-11.357 -5.389)"/><path class="a" d="M22.055,27.793c-.136.09-.276.176-.417.258a.769.769,0,1,0,.769,1.333c.168-.1.335-.2.5-.307a.769.769,0,1,0-.848-1.284Z" transform="translate(-8.827 -12.529)"/><path class="a" d="M29.862,16.046a.769.769,0,1,0-1.537.06c.006.163.008.327,0,.489a.769.769,0,1,0,1.539.034C29.871,16.436,29.87,16.24,29.862,16.046Z" transform="translate(-11.738 -7.347)"/><path class="a" d="M26.521,24.519a.769.769,0,0,0-1.077.154c-.1.13-.2.258-.306.382a.769.769,0,0,0,.087,1.085.521.521,0,0,0,.056.043.77.77,0,0,0,1.029-.13c.125-.147.248-.3.365-.457A.77.77,0,0,0,26.521,24.519Z" transform="translate(-10.461 -11.105)"/><path class="a" d="M28.58,20.113a.769.769,0,0,0-.964.5c-.049.155-.1.311-.161.463a.769.769,0,0,0,1.438.548c.069-.181.133-.366.191-.55A.769.769,0,0,0,28.58,20.113Z" transform="translate(-11.389 -9.329)"/><path class="a" d="M7.654,18.241A7.411,7.411,0,0,1,5.8,17.647l-.02-.011c-.138-.065-.277-.136-.411-.209h0A7.624,7.624,0,0,1,2.825,6.373a7.539,7.539,0,0,1,1.854-1.86L4.7,4.495a7.5,7.5,0,0,1,8.469-.068l-.565.823c-.157.229-.06.4.215.371L15.276,5.4a.407.407,0,0,0,.366-.533l-.659-2.393c-.074-.268-.263-.3-.42-.071L14,3.225a8.869,8.869,0,0,0-6.542-1.4q-.348.061-.685.147h0l-.026.007A8.915,8.915,0,0,0,1.8,5.319c-.011.013-.021.025-.031.038-.041.056-.082.113-.121.17-.065.093-.13.189-.191.285-.008.011-.013.023-.02.035a9.043,9.043,0,0,0-1.425,5.3c0,.006,0,.012,0,.019.008.183.023.368.042.551,0,.012,0,.023.006.035q.03.275.077.551A9.02,9.02,0,0,0,2.65,17.18l.009.01,0,0a9.154,9.154,0,0,0,1.152.97A8.865,8.865,0,0,0,7.4,19.676a.729.729,0,0,0,.256-1.435Z" transform="translate(0 -1.688)"/><path class="b" d="M14.107,7.086a.463.463,0,0,0-.463.463v4.612l4.218,2.181a.463.463,0,1,0,.425-.823L14.57,11.6V7.549A.463.463,0,0,0,14.107,7.086Z" transform="translate(-5.005 -2.839)"/></svg>