<svg xmlns="http://www.w3.org/2000/svg" width="12.496" height="12.468" viewBox="0 0 12.496 12.468"><defs><style>.a{fill:#29f87e;stroke:#29f87e;stroke-width:0.5px;}</style></defs><path class="a" d="M125.177,49.063a5.353,5.353,0,1,0-1.968,4.764l.214-.172,2.509,2.51a.319.319,0,0,0,.227.1.3.3,0,0,0,.227-.091.32.32,0,0,0,0-.452h0l-2.526-2.508.171-.215A5.315,5.315,0,0,0,125.177,49.063ZM123.2,52.99a4.677,4.677,0,0,1-3.329,1.381h0a4.712,4.712,0,0,1,0-9.424h0A4.712,4.712,0,0,1,123.2,52.99Z" transform="translate(-114.249 -44.047)"/></svg>