<svg xmlns="http://www.w3.org/2000/svg" width="27.448" height="27.448" viewBox="0 0 27.448 27.448"><defs><style>.a{fill:#fff;}</style></defs><path class="a" d="M27.448,488.049,14.67,475.1v8.481a15.3,15.3,0,0,0-10.13,4.578A15.705,15.705,0,0,0,0,499.267v3.283l1.558-2.878a13.823,13.823,0,0,1,12.146-7.28q.482,0,.966.034V501ZM13.7,490.709A15.427,15.427,0,0,0,2.021,496.08,13.9,13.9,0,0,1,15.5,485.245h.831v-6.081l8.769,8.885-8.769,8.885v-6.015l-.728-.091A15.333,15.333,0,0,0,13.7,490.709Z" transform="translate(0 -475.102)"/></svg>