<svg xmlns="http://www.w3.org/2000/svg" width="70.012" height="70.018" viewBox="0 0 70.012 70.018"><defs><style>.a{fill:#fff;}.b{fill:#03f87e;}.c{fill:#ff4376;}</style></defs><g transform="translate(-16 -15.97)"><g transform="translate(25.335 34.645)"><path class="a" d="M348.329,263.548l-2.19-.805,3.189-8.673V242.141a16.472,16.472,0,0,0-.327-3.268l2.287-.464a18.792,18.792,0,0,1,.374,3.733v12.136a1.166,1.166,0,0,1-.072.4Z" transform="translate(-307.319 -224.637)"/><path class="a" d="M117.961,265.076l-1.716,4.668a1.168,1.168,0,0,0-.072.4v3.5H99.837v-2.334h1.534a4.1,4.1,0,0,0,3.927-2.962l1.263-4.419-2.244-.642-1.263,4.42a1.758,1.758,0,0,1-1.683,1.269H90.246l-2.113-8.451A1.167,1.167,0,0,0,87,259.644H82.334v-3.056l5.538-6.2a1.167,1.167,0,0,0,.3-.777v-7.468a16.47,16.47,0,0,1,.327-3.268l-2.287-.464a18.792,18.792,0,0,0-.374,3.733v7.023l-5.538,6.2a1.167,1.167,0,0,0-.3.777v4.668a1.167,1.167,0,0,0,1.167,1.167H86.09l2.113,8.451a1.167,1.167,0,0,0,1.132.884H97.5v3.5a1.167,1.167,0,0,0,1.167,1.167h18.67a1.167,1.167,0,0,0,1.167-1.167v-4.46l1.644-4.473Z" transform="translate(-80 -224.637)"/></g><g transform="translate(17.167 17.141)"><g transform="translate(0)"><circle class="b" cx="14.003" cy="14.003" r="14.003"/><path d="M57.335,84.668H55a2.334,2.334,0,1,0-4.668,0H48a4.668,4.668,0,1,1,9.335,0Z" transform="translate(-44.499 -71.832)"/><path d="M137.335,84.668H135a2.334,2.334,0,1,0-4.668,0H128a4.668,4.668,0,1,1,9.335,0Z" transform="translate(-112.83 -71.832)"/><path d="M79,143a7.009,7.009,0,0,1-7-7h2.334a4.668,4.668,0,1,0,9.335,0H86A7.009,7.009,0,0,1,79,143Z" transform="translate(-64.999 -119.663)"/></g><circle class="b" cx="2.334" cy="2.334" r="2.334" transform="translate(23.338 35.007)"/></g><g transform="translate(16 15.97)"><g transform="translate(40.841 1.171)"><circle class="c" cx="14.003" cy="14.003" r="14.003"/><path d="M324.668,92.668A4.673,4.673,0,0,1,320,88h2.334A2.334,2.334,0,1,0,327,88h2.334A4.673,4.673,0,0,1,324.668,92.668Z" transform="translate(-316.499 -78.665)"/><path d="M404.668,92.668A4.673,4.673,0,0,1,400,88h2.334A2.334,2.334,0,1,0,407,88h2.334A4.673,4.673,0,0,1,404.668,92.668Z" transform="translate(-384.83 -78.665)"/><path d="M358,135h-2.334a4.668,4.668,0,1,0-9.335,0H344a7,7,0,0,1,14,0Z" transform="translate(-336.999 -112.83)"/></g><g transform="translate(0 0)"><circle class="c" cx="2.334" cy="2.334" r="2.334" transform="translate(40.841 36.178)"/><path class="a" d="M70.844,15.975A15.177,15.177,0,0,0,55.973,34.146a18.651,18.651,0,0,0-4.966-.668H49.84a18.776,18.776,0,0,0-3.743.376,15.172,15.172,0,0,0-29.619-6.5l2.26.582a12.848,12.848,0,1,1-.4,3.21c0-.356.015-.717.044-1.071l-2.326-.191c-.034.418-.052.843-.052,1.262A15.171,15.171,0,0,0,36.452,45.366l3.839,6.719a3.489,3.489,0,1,0,2.076-1.071L38.576,44.38a15.255,15.255,0,0,0,6.871-8.108l.035.128a16.377,16.377,0,0,1,4.357-.587h1.167a16.27,16.27,0,0,1,5.788,1.055,15.264,15.264,0,0,0,6.642,7.513l-3.791,6.634a3.507,3.507,0,1,0,2.076,1.071l3.839-6.719a15.17,15.17,0,1,0,5.282-29.391ZM44.005,54.482a1.167,1.167,0,1,1-1.167-1.167,1.167,1.167,0,0,1,1.167,1.167Zm15.17,1.167a1.167,1.167,0,1,1,1.167-1.167,1.167,1.167,0,0,1-1.167,1.167ZM70.844,43.98A12.836,12.836,0,1,1,83.68,31.144,12.836,12.836,0,0,1,70.844,43.98Z" transform="translate(-16 -15.97)"/></g></g></g></svg>