<svg xmlns="http://www.w3.org/2000/svg" width="76.001" height="76.001" viewBox="0 0 76.001 76.001"><defs><style>.a{fill:#03f87e;}.b{fill:#ff4376;}.c{fill:#fff;}</style></defs><g transform="translate(0)"><g transform="translate(23.47 1.113)"><path class="a" d="M185.076,17.415l1.481.821a1.19,1.19,0,0,1,.613,1.041v3.874a1.19,1.19,0,0,1-.613,1.041l-1.481.821a1.19,1.19,0,0,0-.454.446l-2.316,4.011a1.189,1.189,0,0,0-.159.616l.03,1.693a1.19,1.19,0,0,1-.6,1.052l-3.355,1.937a1.19,1.19,0,0,1-1.208-.011l-1.451-.872a1.191,1.191,0,0,0-.613-.17h-4.632a1.191,1.191,0,0,0-.613.17l-1.451.872a1.19,1.19,0,0,1-1.208.011L163.7,32.83a1.19,1.19,0,0,1-.6-1.052l.03-1.693a1.192,1.192,0,0,0-.159-.616l-2.316-4.011a1.19,1.19,0,0,0-.454-.446l-1.481-.821a1.19,1.19,0,0,1-.613-1.041V19.277a1.19,1.19,0,0,1,.613-1.041l1.481-.821a1.19,1.19,0,0,0,.454-.446l2.316-4.011a1.189,1.189,0,0,0,.159-.616l-.03-1.693a1.19,1.19,0,0,1,.6-1.052l3.355-1.937a1.19,1.19,0,0,1,1.208.011l1.451.872a1.191,1.191,0,0,0,.613.17h4.632a1.191,1.191,0,0,0,.613-.17l1.451-.872a1.19,1.19,0,0,1,1.208-.011L181.581,9.6a1.19,1.19,0,0,1,.6,1.052l-.03,1.693a1.192,1.192,0,0,0,.159.616l2.316,4.011A1.192,1.192,0,0,0,185.076,17.415Zm-12.438-1.821a5.62,5.62,0,1,0,5.62,5.62A5.62,5.62,0,0,0,172.638,15.594Z" transform="translate(-158.107 -7.501)"/></g><g transform="translate(7.671 22.169)"><g transform="translate(40.509)"><path class="b" d="M343.271,156.223l1.026.569a.825.825,0,0,1,.425.722V160.2a.825.825,0,0,1-.425.722l-1.026.569a.825.825,0,0,0-.315.309l-1.606,2.781a.824.824,0,0,0-.11.427l.02,1.174a.826.826,0,0,1-.413.729l-2.326,1.343a.825.825,0,0,1-.838-.007l-1.006-.6a.825.825,0,0,0-.425-.118h-3.212a.826.826,0,0,0-.425.118l-1.006.6a.825.825,0,0,1-.838.007l-2.326-1.343a.826.826,0,0,1-.413-.729l.021-1.174a.825.825,0,0,0-.11-.427l-1.606-2.781a.824.824,0,0,0-.315-.309L325,160.921a.825.825,0,0,1-.425-.722v-2.686a.825.825,0,0,1,.425-.722l1.026-.569a.826.826,0,0,0,.315-.309l1.606-2.781a.826.826,0,0,0,.11-.427l-.021-1.174a.826.826,0,0,1,.413-.729l2.326-1.343a.825.825,0,0,1,.838.007l1.006.6a.825.825,0,0,0,.425.118h3.212a.826.826,0,0,0,.425-.118l1.006-.6a.825.825,0,0,1,.838-.007l2.326,1.343a.826.826,0,0,1,.413.729l-.02,1.174a.825.825,0,0,0,.11.427l1.606,2.781A.824.824,0,0,0,343.271,156.223Zm-8.624-1.263a3.9,3.9,0,1,0,3.9,3.9A3.9,3.9,0,0,0,334.647,154.96Z" transform="translate(-324.571 -149.349)"/></g><g transform="translate(0 0)"><path class="b" d="M70.375,156.224l1.026.569a.825.825,0,0,1,.425.722V160.2a.825.825,0,0,1-.425.722l-1.026.569a.826.826,0,0,0-.315.309l-1.606,2.781a.824.824,0,0,0-.11.427l.02,1.174a.826.826,0,0,1-.413.729l-2.326,1.343a.825.825,0,0,1-.838-.007l-1.006-.6a.825.825,0,0,0-.425-.118H60.146a.826.826,0,0,0-.425.118l-1.006.6a.825.825,0,0,1-.838.007l-2.326-1.343a.826.826,0,0,1-.413-.729l.02-1.174a.825.825,0,0,0-.11-.427L53.442,161.8a.825.825,0,0,0-.315-.309l-1.026-.569a.825.825,0,0,1-.425-.722v-2.686a.825.825,0,0,1,.425-.722l1.026-.569a.826.826,0,0,0,.315-.309l1.606-2.781a.824.824,0,0,0,.11-.427l-.02-1.174a.826.826,0,0,1,.413-.729l2.326-1.343a.825.825,0,0,1,.838.007l1.006.6a.825.825,0,0,0,.425.118h3.212a.826.826,0,0,0,.425-.118l1.006-.6a.825.825,0,0,1,.838-.007l2.326,1.343a.826.826,0,0,1,.413.729l-.02,1.174a.825.825,0,0,0,.11.427l1.606,2.781A.826.826,0,0,0,70.375,156.224Zm-8.624-1.263a3.9,3.9,0,1,0,3.9,3.9A3.9,3.9,0,0,0,61.752,154.962Z" transform="translate(-51.676 -149.35)"/></g></g><g transform="translate(0)"><path class="c" d="M296.29,254.156l-.056,0a3.885,3.885,0,0,0-3.618,2.946l-1.193,4.9a16.015,16.015,0,0,1-8.55,10.628,1.466,1.466,0,0,1-2.088-1.569l.942-5.393a3.016,3.016,0,0,0-5.511-2.145l-6.094,9.519a2.236,2.236,0,0,0-2.884.231l-4.42,4.42a1.113,1.113,0,0,0,0,1.575L275.652,292.1a1.114,1.114,0,0,0,1.575,0l4.42-4.42a2.236,2.236,0,0,0,.123-3.022,34.881,34.881,0,0,0,4.115-2.689,1.113,1.113,0,1,0-1.346-1.774,33.91,33.91,0,0,1-4.4,2.82l-8.39-8.39,6.34-9.9a.789.789,0,0,1,1.442.561l-.942,5.393a3.693,3.693,0,0,0,5.259,3.952,18.235,18.235,0,0,0,9.735-12.1l1.193-4.9c.384-1.577,2.652-1.65,2.519-.268a32.684,32.684,0,0,1-9.507,20.013,1.113,1.113,0,0,0,1.568,1.581,34.913,34.913,0,0,0,10.155-21.379A3.122,3.122,0,0,0,296.29,254.156Zm-19.85,35.585-11.26-11.26,3.642-3.634,11.251,11.26Z" transform="translate(-223.527 -216.428)"/><path class="c" d="M151.793,18.777l1.48.82a.079.079,0,0,1,.03.029l2.316,4.011a.077.077,0,0,1,.01.04l-.03,1.692a2.3,2.3,0,0,0,1.152,2.035l3.355,1.937a2.3,2.3,0,0,0,2.338-.02l1.451-.872a.077.077,0,0,1,.039-.011h4.632a.077.077,0,0,1,.04.011l1.451.872a2.3,2.3,0,0,0,2.338.02l3.355-1.937a2.3,2.3,0,0,0,1.152-2.035l-.029-1.692a.077.077,0,0,1,.01-.04l2.316-4.011a.078.078,0,0,1,.029-.029l1.481-.821a2.3,2.3,0,0,0,1.187-2.015V12.889a2.3,2.3,0,0,0-1.187-2.015l-1.48-.82a.08.08,0,0,1-.03-.029l-.134-.232a1.113,1.113,0,1,0-1.928,1.114l.133.231a2.3,2.3,0,0,0,.878.863l1.48.82a.078.078,0,0,1,.04.068v3.874a.077.077,0,0,1-.04.068l-1.481.821a2.3,2.3,0,0,0-.878.863l-2.316,4.011a2.306,2.306,0,0,0-.308,1.192l.029,1.692a.077.077,0,0,1-.039.068l-3.355,1.937a.078.078,0,0,1-.078,0l-1.451-.872a2.3,2.3,0,0,0-1.187-.329h-4.632a2.3,2.3,0,0,0-1.186.329l-1.451.872a.077.077,0,0,1-.078,0l-3.355-1.937a.078.078,0,0,1-.039-.068l.03-1.692a2.305,2.305,0,0,0-.308-1.192l-2.316-4.011a2.3,2.3,0,0,0-.878-.863l-1.481-.821a.077.077,0,0,1-.04-.068V12.889a.078.078,0,0,1,.04-.068L154.354,12a2.3,2.3,0,0,0,.878-.863l2.316-4.011a2.306,2.306,0,0,0,.308-1.192l-.03-1.692a.077.077,0,0,1,.039-.068l3.355-1.937a.077.077,0,0,1,.078,0l1.451.872a2.305,2.305,0,0,0,1.186.329h4.632a2.305,2.305,0,0,0,1.186-.329l1.451-.872a.077.077,0,0,1,.078,0l3.355,1.937a.077.077,0,0,1,.038.068l-.029,1.693a2.315,2.315,0,0,0,.225,1.029,1.113,1.113,0,0,0,2.011-.956.086.086,0,0,1-.01-.034l.029-1.692a2.3,2.3,0,0,0-1.152-2.035L172.4.309a2.3,2.3,0,0,0-2.339.02l-1.45.871a.078.078,0,0,1-.04.011h-4.632a.078.078,0,0,1-.04-.011L162.445.329a2.3,2.3,0,0,0-2.339-.021l-3.355,1.937A2.305,2.305,0,0,0,155.6,4.281l.03,1.692a.077.077,0,0,1-.01.04L153.3,10.025a.077.077,0,0,1-.029.029l-1.481.821a2.305,2.305,0,0,0-1.186,2.015v3.874a2.3,2.3,0,0,0,1.187,2.015Z" transform="translate(-128.25 0)"/><path class="c" d="M217.376,54.52a6.733,6.733,0,1,0,6.733,6.733A6.741,6.741,0,0,0,217.376,54.52Zm0,11.239a4.506,4.506,0,1,1,4.506-4.506A4.511,4.511,0,0,1,217.376,65.759Z" transform="translate(-179.375 -46.427)"/><path class="c" d="M363.708,189.671a5.01,5.01,0,1,0-5.01-5.01A5.015,5.015,0,0,0,363.708,189.671Zm0-7.793a2.783,2.783,0,1,1-2.783,2.783A2.786,2.786,0,0,1,363.708,181.879Z" transform="translate(-305.453 -152.984)"/><path class="c" d="M320.535,145.166l.019,1.094-1.526,2.643-.956.53a1.939,1.939,0,0,0-1,1.7v2.686a1.94,1.94,0,0,0,1,1.7l.956.53,1.526,2.643-.019,1.094a1.94,1.94,0,0,0,.969,1.713l2.326,1.343a1.94,1.94,0,0,0,1.968-.017l.937-.563h3.052l.937.563a1.94,1.94,0,0,0,1.968.017l2.326-1.343a1.939,1.939,0,0,0,.969-1.713l-.019-1.094,1.526-2.643.957-.53a1.94,1.94,0,0,0,1-1.7v-2.686a1.939,1.939,0,0,0-1-1.7l-.957-.53-1.526-2.643.019-1.094a1.94,1.94,0,0,0-.969-1.713l-2.326-1.343a1.94,1.94,0,0,0-1.968.017l-.937.563h-3.052l-.937-.563a1.94,1.94,0,0,0-1.968-.017l-2.326,1.343A1.94,1.94,0,0,0,320.535,145.166Zm2.229.131,2.032-1.173.861.517a1.939,1.939,0,0,0,1,.277h3.212a1.941,1.941,0,0,0,1-.277l.861-.517,2.032,1.173-.018,1a1.938,1.938,0,0,0,.259,1l1.606,2.781a1.937,1.937,0,0,0,.739.727l.878.487v2.347l-.879.487a1.939,1.939,0,0,0-.739.726L334,157.639a1.939,1.939,0,0,0-.26,1l.018,1-2.032,1.173-.861-.517a1.939,1.939,0,0,0-1-.277h-3.212a1.942,1.942,0,0,0-1,.277l-.861.517-2.032-1.173.018-1a1.938,1.938,0,0,0-.259-1l-1.606-2.781a1.937,1.937,0,0,0-.739-.727l-.878-.487V151.3l.877-.486a1.935,1.935,0,0,0,.74-.727l1.605-2.781a1.938,1.938,0,0,0,.26-1Z" transform="translate(-270.007 -120.794)"/><path class="c" d="M90.814,189.671a5.01,5.01,0,1,0-5.01-5.01A5.015,5.015,0,0,0,90.814,189.671Zm0-7.793a2.783,2.783,0,1,1-2.783,2.783A2.786,2.786,0,0,1,90.814,181.879Z" transform="translate(-73.067 -152.984)"/><path class="c" d="M45.175,155.509l.957.53,1.526,2.643-.019,1.094a1.94,1.94,0,0,0,.969,1.713l2.326,1.343a1.94,1.94,0,0,0,1.968-.017l.937-.563h3.052l.938.563a1.94,1.94,0,0,0,1.968.017l2.326-1.343a1.94,1.94,0,0,0,.969-1.713l-.019-1.094,1.526-2.643.957-.53a1.94,1.94,0,0,0,1-1.7v-2.686a1.939,1.939,0,0,0-1-1.7l-.957-.53-1.526-2.643.019-1.094a1.94,1.94,0,0,0-.969-1.713L59.8,142.109a1.939,1.939,0,0,0-1.968.017l-.938.563H53.839l-.938-.563a1.94,1.94,0,0,0-1.968-.017l-2.326,1.343a1.94,1.94,0,0,0-.969,1.713l.019,1.093L46.132,148.9l-.957.53a1.94,1.94,0,0,0-1,1.7v2.686A1.94,1.94,0,0,0,45.175,155.509ZM46.4,151.3l.877-.486a1.937,1.937,0,0,0,.74-.727l1.606-2.781a1.94,1.94,0,0,0,.259-1l-.018-1,2.032-1.173.861.517a1.938,1.938,0,0,0,1,.277h3.212a1.94,1.94,0,0,0,1-.277l.861-.517,2.032,1.173-.018,1a1.94,1.94,0,0,0,.259,1l1.606,2.782a1.939,1.939,0,0,0,.74.727l.877.486v2.347l-.878.487a1.938,1.938,0,0,0-.739.726L61.1,157.638a1.94,1.94,0,0,0-.259,1l.018,1-2.032,1.173-.861-.517a1.938,1.938,0,0,0-1-.277H53.759a1.94,1.94,0,0,0-1,.277l-.861.517-2.032-1.173.018-1a1.941,1.941,0,0,0-.259-1l-1.606-2.782a1.94,1.94,0,0,0-.739-.726l-.878-.487V151.3Z" transform="translate(-37.619 -120.793)"/><path class="c" d="M32.291,273.27a2.236,2.236,0,0,0-2.884-.231l-6.094-9.519a3.016,3.016,0,0,0-5.511,2.145l.941,5.393a1.466,1.466,0,0,1-2.088,1.569A16.015,16.015,0,0,1,8.106,262l-1.193-4.9a3.885,3.885,0,0,0-3.619-2.946l-.055,0a3.123,3.123,0,0,0-3.224,3.421,34.825,34.825,0,0,0,17.743,27.082,2.236,2.236,0,0,0,.123,3.023l4.42,4.42a1.114,1.114,0,0,0,1.575,0l4.94-4.94a1.113,1.113,0,0,0-1.575-1.574l-4.152,4.152L19.456,286.1l11.261-11.251,3.633,3.633-3.96,3.96a1.113,1.113,0,0,0,1.574,1.575l4.747-4.747a1.114,1.114,0,0,0,0-1.575ZM2.231,257.36a.9.9,0,0,1,.925-.981l.055,0a1.628,1.628,0,0,1,1.538,1.247l1.193,4.9a18.235,18.235,0,0,0,9.735,12.1,3.692,3.692,0,0,0,5.259-3.952L20,265.282a.789.789,0,0,1,1.442-.561l6.34,9.9-8.39,8.39c-.135-.125-15.374-7.278-17.156-25.655Z" transform="translate(0 -216.425)"/></g></g></svg>