<svg xmlns="http://www.w3.org/2000/svg" width="76.001" height="77.534" viewBox="0 0 76.001 77.534"><defs><style>.a{fill:#ff4376;}.b{fill:#fff;}</style></defs><g transform="translate(-349.999 -1485.467)"><path class="a" d="M-4641,21781.551l6.6-8.2,5,8.2h7.6l-5.8,8.4,1,7.6-9.2-2.2-7.6,4v-9.4l-5-7.4Z" transform="translate(5022 -20286)"/><path class="a" d="M-4643.96,21778.27l3.959-4.92,3,4.92h4.56l-3.48,5.039.6,4.559-5.519-1.32-4.56,2.4v-5.639l-3-4.439Z" transform="translate(5056.321 -20278.799)"/><path class="a" d="M-4643.96,21778.27l3.959-4.92,3,4.92h4.56l-3.48,5.039.6,4.559-5.519-1.32-4.56,2.4v-5.639l-3-4.439Z" transform="translate(5000.321 -20278.799)"/><g transform="translate(354 1492)"><g transform="translate(18.679 39.228)"><path class="b" d="M125.882,284.034a2.088,2.088,0,0,1,2.793.877l3.861,7.149a1.367,1.367,0,0,0,2.57-.65V280.971a1.367,1.367,0,0,0-2.735,0V286l-1.291-2.39a4.834,4.834,0,0,0-8.952,3.431l2.5,10.375a18.726,18.726,0,0,0,3.1,6.69l4.9,6.71a1.367,1.367,0,1,0,2.208-1.613l-4.9-6.71a16,16,0,0,1-2.65-5.718l-2.5-10.375A2.091,2.091,0,0,1,125.882,284.034Z" transform="translate(-121.991 -279.604)"/></g><g transform="translate(29.058 22.55)"><path class="b" d="M222.289,172.9a4.626,4.626,0,0,0-2.229.569,4.649,4.649,0,0,0-6.69-2.356,4.649,4.649,0,0,0-6.151-2.3v-6.537a4.655,4.655,0,1,0-9.309,0v2.37a1.367,1.367,0,0,0,2.734,0v-2.37a1.92,1.92,0,0,1,3.841,0v19.292a1.367,1.367,0,1,0,2.734,0v-8.517a1.92,1.92,0,1,1,3.841,0v8.517a1.367,1.367,0,1,0,2.734,0v-6.435a1.92,1.92,0,1,1,3.841,0v6.435a1.367,1.367,0,1,0,2.734,0v-4.013a1.92,1.92,0,0,1,3.841,0V189.09a30.222,30.222,0,0,1-1.386,9.053l-1.929,6.15a1.367,1.367,0,1,0,2.609.818l1.929-6.15a32.955,32.955,0,0,0,1.512-9.872V177.554A4.66,4.66,0,0,0,222.289,172.9Z" transform="translate(-197.909 -157.619)"/></g><g transform="translate(51.808 0)"><g transform="translate(0 0)"><path class="b" d="M384.38,7.25a2.288,2.288,0,0,0-1.859-1.566l-4.188-.607L376.46,1.283A2.287,2.287,0,0,0,374.4,0h0a2.287,2.287,0,0,0-2.064,1.284l-1.872,3.8-4.187.61A2.3,2.3,0,0,0,365,9.615l3.031,2.953-.714,4.171a2.3,2.3,0,0,0,3.34,2.426l3.745-1.97,3.746,1.968a2.3,2.3,0,0,0,3.339-2.427l-.716-4.17L383.8,9.61A2.288,2.288,0,0,0,384.38,7.25ZM378.7,10.766a2.3,2.3,0,0,0-.661,2.038l.606,3.531-3.171-1.666a2.3,2.3,0,0,0-2.142,0l-3.17,1.668.6-3.531a2.3,2.3,0,0,0-.663-2.037l-2.566-2.5,3.545-.516a2.3,2.3,0,0,0,1.733-1.26L374.4,3.28l1.586,3.212a2.3,2.3,0,0,0,1.733,1.259l3.545.514Z" transform="translate(-364.301 0)"/></g></g><g transform="translate(18.193 -6.533)"><g transform="translate(0 0)"><path class="b" d="M211.6,10.633a3.354,3.354,0,0,0-2.725-2.3l-6.141-.89-2.748-5.564A3.355,3.355,0,0,0,196.955,0h0a3.354,3.354,0,0,0-3.026,1.883l-2.745,5.566-6.141.894a3.376,3.376,0,0,0-1.869,5.758l4.445,4.33-1.047,6.117a3.371,3.371,0,0,0,4.9,3.557l5.492-2.889,5.494,2.886a3.376,3.376,0,0,0,4.9-3.56L206.3,18.426l4.443-4.333A3.355,3.355,0,0,0,211.6,10.633Zm-8.334,5.155a3.374,3.374,0,0,0-.97,2.988l.889,5.178-4.651-2.443a3.374,3.374,0,0,0-3.142,0l-4.65,2.446.887-5.178a3.375,3.375,0,0,0-.972-2.987l-3.763-3.666,5.2-.757a3.376,3.376,0,0,0,2.541-1.847l2.324-4.712,2.326,4.71a3.375,3.375,0,0,0,2.542,1.846l5.2.754Z" transform="translate(-182.15 0)"/></g></g><g transform="translate(-4 0)"><g transform="translate(0 0)"><path class="b" d="M20.079,7.25A2.288,2.288,0,0,0,18.22,5.684l-4.188-.607L12.159,1.283A2.287,2.287,0,0,0,10.1,0h0A2.287,2.287,0,0,0,8.031,1.284l-1.872,3.8-4.187.61A2.3,2.3,0,0,0,.7,9.615l3.031,2.953-.714,4.171a2.3,2.3,0,0,0,3.34,2.426l3.745-1.97,3.746,1.968a2.3,2.3,0,0,0,3.339-2.428l-.716-4.17L19.5,9.61A2.288,2.288,0,0,0,20.079,7.25ZM14.4,10.765a2.3,2.3,0,0,0-.662,2.038l.606,3.531L11.17,14.668a2.3,2.3,0,0,0-2.142,0L5.857,16.336l.6-3.531A2.3,2.3,0,0,0,5.8,10.768l-2.566-2.5,3.545-.516a2.3,2.3,0,0,0,1.733-1.26L10.1,3.279l1.586,3.212A2.3,2.3,0,0,0,13.415,7.75l3.545.514Z" transform="translate(0 0)"/></g></g><g transform="translate(29.058 33.84)"><path class="b" d="M200.245,240.6a1.366,1.366,0,1,0,.4.967A1.377,1.377,0,0,0,200.245,240.6Z" transform="translate(-197.911 -240.2)"/></g></g></g></svg>