<svg xmlns="http://www.w3.org/2000/svg" width="48.394" height="62.632" viewBox="0 0 48.394 62.632"><defs><style>.a{fill:#f51818;}.b{fill:#ff4376;}.c{fill:#00cb66;}.d{fill:#372d47;}.e{fill:#fff;}</style></defs><g transform="translate(-58.197)"><circle class="a" cx="4.159" cy="4.159" r="4.159" transform="translate(82.922 1.223)"/><path class="b" d="M285.382,126.749a5.749,5.749,0,0,0-11.5,0Z" transform="translate(-189.302 -106.198)"/><circle class="c" cx="4.159" cy="4.159" r="4.159" transform="translate(67.76 12.233)"/><path class="b" d="M120.279,168H77.807a1.223,1.223,0,0,0-1.015,1.906l16.624,24.721v14.231l11.254-4.9v-9.33l16.624-24.721A1.223,1.223,0,0,0,120.279,168Z" transform="translate(-16.135 -147.449)"/><path class="d" d="M120.279,168H77.807a1.223,1.223,0,0,0-1.015,1.906l2.667,3.966h39.169l2.667-3.966A1.223,1.223,0,0,0,120.279,168Z" transform="translate(-16.135 -147.449)"/><path class="e" d="M113.671,99.615a2.442,2.442,0,0,0-2.159-1.3h-6.949a6.971,6.971,0,0,0-13.726,0H83.8a5.382,5.382,0,1,0-9.016,0H69.04a2.447,2.447,0,0,0-2.03,3.812l16.416,24.411V140.4a1.223,1.223,0,0,0,1.712,1.122l11.254-4.9a1.223,1.223,0,0,0,.735-1.122v-8.957l16.416-24.411A2.442,2.442,0,0,0,113.671,99.615ZM97.7,95.015a4.533,4.533,0,0,1,4.357,3.3H93.343A4.533,4.533,0,0,1,97.7,95.015Zm-21.347.367a2.936,2.936,0,1,1,2.936,2.936A2.939,2.939,0,0,1,76.352,95.382Zm18.536,30.1a1.223,1.223,0,0,0-.208.683V134.7l-8.808,3.835V127.392h4.419a1.223,1.223,0,0,0,0-2.447H85.3L72.989,106.637H97.7a1.223,1.223,0,1,0,0-2.447H71.344l-2.3-3.425h42.472Z" transform="translate(-7.369 -78.99)"/><path class="e" d="M255.706,10.765a5.382,5.382,0,1,0-5.382-5.382A5.388,5.388,0,0,0,255.706,10.765Zm0-8.318a2.936,2.936,0,1,1-2.936,2.936A2.939,2.939,0,0,1,255.706,2.447Z" transform="translate(-168.624)"/><path class="e" d="M392.42,57.732a1.223,1.223,0,0,0,1.223-1.223V49.556a1.223,1.223,0,1,0-2.447,0v6.952A1.223,1.223,0,0,0,392.42,57.732Z" transform="translate(-292.265 -42.421)"/><path class="e" d="M392.42,17.947a1.224,1.224,0,1,0-.865-.358A1.233,1.233,0,0,0,392.42,17.947Z" transform="translate(-292.265 -13.604)"/><path class="e" d="M195.6,20.217a1.223,1.223,0,0,0,1.223-1.223V13.978a1.223,1.223,0,1,0-2.447,0v5.015A1.223,1.223,0,0,0,195.6,20.217Z" transform="translate(-119.52 -11.195)"/><path class="e" d="M59.42,10.418A1.223,1.223,0,0,0,60.644,9.2V1.223a1.223,1.223,0,1,0-2.447,0V9.2A1.223,1.223,0,0,0,59.42,10.418Z"/><path class="e" d="M60.285,104.758a1.223,1.223,0,1,0-.865.358A1.233,1.233,0,0,0,60.285,104.758Z" transform="translate(0 -90.111)"/><path class="e" d="M355.705,206.358a1.223,1.223,0,1,0,.865-.358A1.227,1.227,0,0,0,355.705,206.358Z" transform="translate(-260.8 -180.8)"/></g></svg>