<svg xmlns="http://www.w3.org/2000/svg" width="81.067" height="63.152" viewBox="0 0 81.067 63.152"><defs><style>.a{fill:#ff4376;}.b{fill:#fff;}</style></defs><g transform="translate(-347.467 -1027.852)"><rect class="a" width="77" height="16" transform="translate(350 1051)"/><g transform="translate(347.467 971.281)"><g transform="translate(0 56.571)"><path class="b" d="M422.248,231.353a4.064,4.064,0,0,0,5.976,3.589l1.089,1.089a1.187,1.187,0,0,0,1.679-1.679l-1.089-1.089a4.066,4.066,0,1,0-7.655-1.91Zm5.758,0a1.683,1.683,0,0,1-.452,1.147c-.016.015-.033.029-.049.044s-.029.032-.044.049a1.689,1.689,0,1,1,.545-1.24Z" transform="translate(-355.392 -200.257)"/><path class="b" d="M79.879,78.483H76.629a1.188,1.188,0,0,0,0,2.375h2.063V95.437H64.112V80.858h6.975a1.188,1.188,0,0,0,0-2.375H70.6A31.84,31.84,0,0,0,59.729,63.073a31.288,31.288,0,0,0-19.005-6.5c-.135,0,0,0-.38,0A31.55,31.55,0,0,0,24.313,61.05a1.188,1.188,0,0,0,1.222,2.037,29.022,29.022,0,0,1,7.082-3.049A25.962,25.962,0,0,0,26.6,69.526H18.042a29.382,29.382,0,0,1,3.2-3.3,1.187,1.187,0,1,0-1.569-1.783,31.505,31.505,0,0,0-9.207,14.038H1.188A1.188,1.188,0,0,0,0,79.67V96.624a1.188,1.188,0,0,0,1.188,1.188h9.279a31.84,31.84,0,0,0,10.872,15.41,31.288,31.288,0,0,0,19.006,6.5c.062,0,.092,0,.38,0a31.289,31.289,0,0,0,19.006-6.5A31.84,31.84,0,0,0,70.6,97.812h9.279a1.188,1.188,0,0,0,1.187-1.188V79.67A1.188,1.188,0,0,0,79.879,78.483Zm-16.954,0H56.906A48.2,48.2,0,0,0,55.312,71.9h9.473a28.829,28.829,0,0,1,3.31,6.582Zm-36.353,0A44.541,44.541,0,0,1,28.266,71.9h11.08v6.582ZM41.721,71.9H52.8a44.561,44.561,0,0,1,1.694,6.582H41.721Zm0-12.857c3.986.651,7.648,4.55,10.169,10.482H41.721ZM63,69.526H54.467a26.016,26.016,0,0,0-5.985-9.462A29.558,29.558,0,0,1,63,69.526ZM39.346,59.045V69.526H29.177C31.7,63.6,35.358,59.7,39.346,59.045ZM16.266,71.9h9.488a48.191,48.191,0,0,0-1.594,6.582H12.974A29.036,29.036,0,0,1,16.266,71.9ZM14.228,95.437H2.375V80.858H61.737V95.437H19.77a1.188,1.188,0,0,0,0,2.375h4.391a48.2,48.2,0,0,0,1.594,6.582H16.282a28.829,28.829,0,0,1-3.31-6.582h1.257a1.188,1.188,0,0,0,0-2.375Zm25.118,11.331v10.482c-3.986-.651-7.648-4.55-10.169-10.482Zm-11.08-2.375a44.561,44.561,0,0,1-1.694-6.582H39.346v6.582ZM41.721,117.25V106.769H51.89C49.37,112.7,45.709,116.595,41.721,117.25Zm0-12.856V97.812H54.494a44.542,44.542,0,0,1-1.694,6.582H41.721Zm-23.653,2.375H26.6a26.016,26.016,0,0,0,5.985,9.462,29.558,29.558,0,0,1-14.517-9.462Zm30.41,9.463a26,26,0,0,0,5.989-9.463H63A29.557,29.557,0,0,1,48.478,116.232Zm16.307-11.838H55.312a48.191,48.191,0,0,0,1.594-6.582H68.1A28.833,28.833,0,0,1,64.785,104.394Z" transform="translate(0 -56.571)"/></g></g></g></svg>