<svg xmlns="http://www.w3.org/2000/svg" width="71.402" height="71.402" viewBox="0 0 71.402 71.402"><defs><style>.a{isolation:isolate;}.b{fill:#ff4376;}.c{fill:#fff;}</style></defs><g class="a" transform="translate(10.476 10.476)"><circle class="b" cx="25.225" cy="25.225" r="25.225"/><g transform="translate(21.818 21.818)"><circle class="b" cx="3.408" cy="3.408" r="3.408"/></g></g><g transform="translate(0 0)"><path class="c" d="M63.784,13.658H65.99a1.394,1.394,0,1,0,0-2.787h-5.3A1.394,1.394,0,0,0,59.3,12.264v5.3a1.394,1.394,0,1,0,2.787,0V16.027A32.914,32.914,0,1,1,35.7,2.787a33.41,33.41,0,0,1,4.015.242A1.394,1.394,0,0,0,40.053.263,36.208,36.208,0,0,0,35.7,0,35.7,35.7,0,0,0,10.457,60.946,35.7,35.7,0,0,0,63.784,13.658Z" transform="translate(0 0)"/><path class="c" d="M71.212,77.142a1.394,1.394,0,0,0-1.923.432,26.611,26.611,0,1,0,8.33-8.313A1.394,1.394,0,0,0,79.1,71.619a23.834,23.834,0,1,1-4.16,37.029,23.985,23.985,0,0,1-3.3-29.583A1.394,1.394,0,0,0,71.212,77.142Z" transform="translate(-56.095 -56.096)"/><path class="c" d="M377.563,249.117h1.719a1.394,1.394,0,0,0,0-2.787h-1.719a1.394,1.394,0,1,0,0,2.787Z" transform="translate(-323.744 -212)"/><path class="c" d="M103.835,247.4a1.394,1.394,0,0,0,1.394,1.394h1.719a1.394,1.394,0,1,0,0-2.787h-1.719A1.394,1.394,0,0,0,103.835,247.4Z" transform="translate(-89.364 -211.721)"/><path class="c" d="M249.117,106.947v-1.719a1.394,1.394,0,0,0-2.787,0v1.719a1.394,1.394,0,1,0,2.787,0Z" transform="translate(-212 -89.364)"/><path class="c" d="M246.006,377.563v1.719a1.394,1.394,0,0,0,2.787,0v-1.719a1.394,1.394,0,1,0-2.787,0Z" transform="translate(-211.721 -323.744)"/><path class="c" d="M191.351,159.7a1.394,1.394,0,0,0-1.971,1.971l4.723,4.723a4.8,4.8,0,1,0,8.467,0l9.53-9.53a1.394,1.394,0,0,0-1.971-1.971l-9.53,9.53a4.791,4.791,0,0,0-4.525,0Zm9,8.957a2.014,2.014,0,1,1-2.014-2.014A2.016,2.016,0,0,1,200.351,168.653Z" transform="translate(-162.636 -132.952)"/><path class="c" d="M120.557,120.557a1.393,1.393,0,1,0-.985.408A1.4,1.4,0,0,0,120.557,120.557Z" transform="translate(-101.708 -101.708)"/><path class="c" d="M316.832,12.665a1.394,1.394,0,1,0-.985-.408A1.4,1.4,0,0,0,316.832,12.665Z" transform="translate(-271.477 -8.501)"/></g></svg>