<svg xmlns="http://www.w3.org/2000/svg" width="23.164" height="20.677" viewBox="0 0 23.164 20.677"><defs><style>.a,.b{fill:#8b7fa0;stroke:#8b7fa0;}.a{stroke-width:0.6px;}.b{stroke-width:0.3px;}</style></defs><g transform="translate(0.3 0.3)"><path class="a" d="M56.866,1.666h-2.05V1.25A1.418,1.418,0,0,0,53.279,0h0a1.417,1.417,0,0,0-1.537,1.25v.416H48.668V1.25A1.418,1.418,0,0,0,47.13,0h0a1.417,1.417,0,0,0-1.537,1.25v.416H42.518V1.25A1.418,1.418,0,0,0,40.981,0h0a1.417,1.417,0,0,0-1.537,1.25v.416h-2.05a1.429,1.429,0,0,0-1.554,1.25V18.827a1.428,1.428,0,0,0,1.554,1.25H56.866a1.418,1.418,0,0,0,1.538-1.25V2.916A1.418,1.418,0,0,0,56.866,1.666Zm-4.1-.416a.523.523,0,0,1,1.025,0V2.916a.523.523,0,0,1-1.025,0Zm-6.15,0a.524.524,0,0,1,1.025,0V2.916a.524.524,0,0,1-1.025,0Zm-6.149,0a.524.524,0,0,1,1.025,0V2.916a.524.524,0,0,1-1.025,0Zm-3.6,1.666a.489.489,0,0,1,.529-.417h2.05v.417a1.571,1.571,0,0,0,3.075,0V2.5h3.075v.417a1.571,1.571,0,0,0,3.075,0V2.5h3.075v.417a1.571,1.571,0,0,0,3.075,0V2.5h2.05a.473.473,0,0,1,.513.417v2.5H36.865ZM57.379,18.827a.472.472,0,0,1-.513.417H37.394a.489.489,0,0,1-.529-.417V6.248H57.379Z" transform="translate(-35.84)"/><path class="b" d="M49.053,23.4l-.38,2.177h0a.612.612,0,0,0,.889.647l1.953-1.034,1.922,1.018a.611.611,0,0,0,.316.088.639.639,0,0,0,.107-.009.614.614,0,0,0,.5-.71l-.38-2.177,1.566-1.517a.613.613,0,0,0-.32-1.066L53.036,20.5l-.969-1.979a.612.612,0,0,0-1.1,0L50,20.5l-2.189.311h0a.613.613,0,0,0-.341,1.046Zm-.214-1.809,1.285-.182.478-.068.213-.434.7-1.432.7,1.432.213.434.478.068,1.584.225-1.147,1.111L53,23.08l.083.476.275,1.576-1.413-.749-.427-.226-.427.226-1.413.749.049-.283h0l.226-1.292.083-.476-.347-.336-1.146-1.111.3-.043Z" transform="translate(-40.109 -10.213)"/></g></svg>