<svg xmlns="http://www.w3.org/2000/svg" width="24.879" height="33.172" viewBox="0 0 24.879 33.172"><defs><style>.a{fill:#d6c6f4;opacity:0.8;}</style></defs><path class="a" d="M73.59,28.4H69.44V25.723a.7.7,0,0,0-.707-.7H65.2l-2.29-9.368,4.036,2.093a.711.711,0,0,0,.954-.295.69.69,0,0,0,.071-.438L67,11.436l4.113-3.955a.69.69,0,0,0,.019-.986.713.713,0,0,0-.408-.207l-5.655-.816L62.492.387a.711.711,0,0,0-.947-.313.7.7,0,0,0-.317.313l-2.545,5.05-5.654.816a.694.694,0,0,0-.389,1.193L56.754,11.4l-.969,5.581a.7.7,0,0,0,.581.8.72.72,0,0,0,.444-.07l4.036-2.093-2.318,9.4H54.994a.7.7,0,0,0-.707.7V28.4H50.124a.7.7,0,0,0-.707.7v3.376a.7.7,0,0,0,.707.7H73.59a.7.7,0,0,0,.706-.7V29.1A.7.7,0,0,0,73.59,28.4ZM57.383,15.844l.792-4.555a.692.692,0,0,0-.205-.614L54.619,7.46l4.637-.7a.7.7,0,0,0,.53-.384L61.857,2.27l2.07,4.143a.709.709,0,0,0,.531.384l4.636.7-3.35,3.188a.692.692,0,0,0-.2.614l.792,4.555L62.189,13.7h-.121a.652.652,0,0,0-.417,0h-.12ZM61.857,17.3l1.859,7.673H60Zm-6.171,9.068h12.34v1.982H55.686Zm17.2,5.413H50.831V29.8H72.883Z" transform="translate(-49.417 0)"/></svg>