<svg xmlns="http://www.w3.org/2000/svg" width="31.835" height="28.323" viewBox="0 0 31.835 28.323"><defs><style>.a{fill:#08001f;}.b,.c{stroke:none;}.c{fill:#47347b;}</style></defs><g class="a" transform="translate(-189.425 -72.54)"><path class="b" d="M 205.342041015625 100.363395690918 C 205.0103607177734 100.363395690918 204.6903839111328 100.2431564331055 204.4410705566406 100.0248336791992 C 203.1297760009766 98.87791442871094 201.8468475341797 97.78505706787109 200.8159942626953 96.90692901611328 L 200.8100433349609 96.90185546875 L 200.8099670410156 96.90178680419922 L 200.80615234375 96.89853668212891 C 197.6183929443359 94.1817626953125 194.8653411865234 91.83547973632813 192.9667053222656 89.54457855224609 C 190.8915252685547 87.0400390625 189.9249877929688 84.67688751220703 189.9249877929688 82.10768890380859 C 189.9249877929688 79.61781311035156 190.7747955322266 77.32466888427734 192.3178405761719 75.650634765625 C 193.8701629638672 73.9671630859375 196.0010986328125 73.04000854492188 198.3180236816406 73.04000854492188 C 200.0419464111328 73.04000854492188 201.6218719482422 73.58594512939453 203.013916015625 74.66267395019531 C 203.7206115722656 75.20868682861328 204.3675537109375 75.88447570800781 204.9369506835938 76.67144775390625 L 205.3420257568359 77.23130798339844 L 205.7471160888672 76.67146301269531 C 206.3165740966797 75.88447570800781 206.9635009765625 75.20867919921875 207.6699523925781 74.66283416748047 C 209.0622711181641 73.58595275878906 210.6422119140625 73.04000854492188 212.3661193847656 73.04000854492188 C 214.6830139160156 73.04000854492188 216.8139495849609 73.9671630859375 218.3663635253906 75.65070343017578 C 219.9098663330078 77.32527923583984 220.7599487304688 79.61843872070313 220.7599487304688 82.10768890380859 C 220.7599487304688 84.67719268798828 219.7931823730469 87.04031372070313 217.7174682617188 89.5445556640625 C 215.8169555664063 91.83769226074219 213.0634155273438 94.18442535400391 209.8750762939453 96.90172576904297 C 208.9084320068359 97.72474670410156 207.5843200683594 98.85212707519531 206.2433624267578 100.0245895385742 C 205.9937286376953 100.2431488037109 205.6737213134766 100.363395690918 205.342041015625 100.363395690918 Z"/><path class="c" d="M 205.342041015625 99.86339569091797 C 205.5525207519531 99.86339569091797 205.7555541992188 99.78711700439453 205.9142456054688 99.64817810058594 C 207.2576751708984 98.47355651855469 208.5832366943359 97.34494781494141 209.5507507324219 96.52117919921875 C 212.7213897705078 93.8189697265625 215.4596557617188 91.48526763916016 217.3325042724609 89.22547912597656 C 219.3297424316406 86.81592559814453 220.2599487304688 84.55419921875 220.2599487304688 82.10768890380859 C 220.2599487304688 79.74436950683594 219.4568634033203 77.57154846191406 217.9987945556641 75.98965454101563 C 216.5421447753906 74.40997314453125 214.541748046875 73.54000854492188 212.3661193847656 73.54000854492188 C 210.7555541992188 73.54000854492188 209.2785186767578 74.05079650878906 207.9756622314453 75.05849456787109 C 207.3070831298828 75.57506561279297 206.6935729980469 76.21636962890625 206.1521911621094 76.96456909179688 L 205.3420104980469 78.08425903320313 L 204.5318603515625 76.96454620361328 C 203.9905242919922 76.21635437011719 203.3770446777344 75.5750732421875 202.7080078125 75.05816650390625 C 201.4056243896484 74.05078887939453 199.9286041259766 73.54000854492188 198.3180236816406 73.54000854492188 C 196.1423645019531 73.54000854492188 194.1419830322266 74.40997314453125 192.6854858398438 75.98951721191406 C 191.227783203125 77.57094573974609 190.4249877929688 79.74375915527344 190.4249877929688 82.10768890380859 C 190.4249877929688 84.55393218994141 191.3549957275391 86.81570434570313 193.3516693115234 89.22552490234375 C 195.2226715087891 91.48304748535156 197.9604187011719 93.81630706787109 201.1304779052734 96.51799774169922 L 201.1343841552734 96.52131652832031 L 201.1345367431641 96.52144622802734 L 201.1402130126953 96.52629852294922 C 202.1721954345703 97.40537261962891 203.4564971923828 98.49941253662109 204.7704620361328 99.64867401123047 C 204.9285888671875 99.78713226318359 205.1315765380859 99.86339569091797 205.342041015625 99.86339569091797 M 205.342041015625 100.863395690918 C 204.8884582519531 100.863395690918 204.4516296386719 100.6986923217773 204.1116638183594 100.400993347168 C 202.8257446289063 99.27626800537109 201.5856323242188 98.21935272216797 200.4917602539063 97.28754425048828 L 200.4855651855469 97.28226470947266 C 197.2787475585938 94.54924774169922 194.5087890625 92.18880462646484 192.5817260742188 89.86363220214844 C 190.4281921386719 87.26450347900391 189.4249877929688 84.80013275146484 189.4249877929688 82.10768890380859 C 189.4249877929688 79.49179840087891 190.3216247558594 77.07855224609375 191.9501953125 75.31175231933594 C 193.5980529785156 73.52468872070313 195.8589477539063 72.54000854492188 198.3180236816406 72.54000854492188 C 200.1553039550781 72.54000854492188 201.83837890625 73.12129974365234 203.31982421875 74.26717376708984 C 204.067626953125 74.84493255615234 204.7449035644531 75.55305480957031 205.342041015625 76.37835693359375 C 205.939208984375 75.55305480957031 206.6164855957031 74.84493255615234 207.3642578125 74.26717376708984 C 208.8457641601563 73.12129974365234 210.5288391113281 72.54000854492188 212.3661193847656 72.54000854492188 C 214.8251953125 72.54000854492188 217.0860595703125 73.52468872070313 218.7339477539063 75.31175231933594 C 220.3624572753906 77.07855224609375 221.2599487304688 79.49179840087891 221.2599487304688 82.10768890380859 C 221.2599487304688 84.80013275146484 220.2567749023438 87.26450347900391 218.1024169921875 89.86363220214844 C 216.1753540039063 92.18880462646484 213.4061889648438 94.54924774169922 210.1994018554688 97.28226470947266 C 209.1029052734375 98.21584320068359 207.8618774414063 99.27361297607422 206.5724792480469 100.400993347168 C 206.2324523925781 100.6986923217773 205.7947692871094 100.863395690918 205.342041015625 100.863395690918 Z"/></g></svg>