<svg xmlns="http://www.w3.org/2000/svg" width="37" height="37" viewBox="0 0 37 37"><defs><style>.a{fill:#03f87e;}</style></defs><g transform="translate(-1285.4 -283.601)"><circle class="a" cx="18.5" cy="18.5" r="18.5" transform="translate(1285.4 283.601)"/><g transform="translate(1293.302 293.479)"><g transform="translate(0 0)"><g transform="translate(0 0)"><path d="M20.321,47.378a2.26,2.26,0,0,0-1.658-.7H15.345v-.04a1.794,1.794,0,0,0-.539-1.3,1.828,1.828,0,0,0-1.3-.539H7.513a1.842,1.842,0,0,0-1.858,1.838v.04h-3.3a2.26,2.26,0,0,0-1.658.7A2.376,2.376,0,0,0,0,49.036v9.951a2.26,2.26,0,0,0,.7,1.658,2.376,2.376,0,0,0,1.658.7h16.3a2.26,2.26,0,0,0,1.658-.7,2.376,2.376,0,0,0,.7-1.658V49.036A2.26,2.26,0,0,0,20.321,47.378Zm-.34,11.609h-.02a1.3,1.3,0,0,1-1.3,1.3H2.358a1.3,1.3,0,0,1-1.3-1.3V49.036a1.3,1.3,0,0,1,1.3-1.3H6.214a.537.537,0,0,0,.539-.539v-.579a.752.752,0,0,1,.779-.779h5.974a.752.752,0,0,1,.779.779V47.2a.537.537,0,0,0,.539.539h3.856a1.3,1.3,0,0,1,1.3,1.3Z" transform="translate(0 -44.8)"/><path d="M116.915,130.8a4.912,4.912,0,1,0,3.477,1.439A4.924,4.924,0,0,0,116.915,130.8Zm2.717,7.653a3.859,3.859,0,0,1-5.435,0,3.82,3.82,0,0,1-1.119-2.717,3.9,3.9,0,0,1,1.119-2.717,3.82,3.82,0,0,1,2.717-1.119,3.9,3.9,0,0,1,2.717,1.119,3.82,3.82,0,0,1,1.119,2.717A3.739,3.739,0,0,1,119.633,138.453Z" transform="translate(-106.405 -126.504)"/><circle cx="0.979" cy="0.979" r="0.979" transform="translate(16.644 4.276)"/></g></g></g></g></svg>