<svg xmlns="http://www.w3.org/2000/svg" width="23.111" height="22.77" viewBox="0 0 23.111 22.77"><defs><style>.a{fill:#03f87e;stroke:#03f87e;stroke-width:0.5px;}</style></defs><g transform="translate(0.252 0.25)"><path class="a" d="M19.483,16.3a.3.3,0,0,1,.086-.264l3.58-3.489a1.491,1.491,0,0,0-.826-2.543l-4.946-.719a.3.3,0,0,1-.225-.163L14.939,4.641a1.491,1.491,0,0,0-2.674,0L10.052,9.123a.3.3,0,0,1-.224.163l-4.947.719a1.491,1.491,0,0,0-.826,2.543l3.579,3.489a.3.3,0,0,1,.086.264l-.845,4.926A1.491,1.491,0,0,0,9.039,22.8l4.424-2.326a.3.3,0,0,1,.278,0L18.165,22.8a1.491,1.491,0,0,0,2.163-1.572Zm-.449,5.42a.29.29,0,0,1-.314.023L14.3,19.417a1.49,1.49,0,0,0-1.388,0L8.484,21.743a.3.3,0,0,1-.433-.314L8.9,16.5a1.49,1.49,0,0,0-.429-1.32L4.888,11.694a.3.3,0,0,1,.165-.509L10,10.467a1.491,1.491,0,0,0,1.123-.816l2.212-4.482a.3.3,0,0,1,.535,0h0l2.212,4.482a1.491,1.491,0,0,0,1.123.816l4.946.719a.3.3,0,0,1,.165.508l-3.579,3.489a1.49,1.49,0,0,0-.429,1.32l.845,4.926A.29.29,0,0,1,19.033,21.72Z" transform="translate(-2.298 -3.81)"/><path class="a" d="M46.311,7.739a.6.6,0,0,0,.833-.132l.633-.871a.6.6,0,0,0-.965-.7l-.633.871A.6.6,0,0,0,46.311,7.739Z" transform="translate(-29.375 -5.072)"/><path class="a" d="M12.031,7.6A.6.6,0,1,0,13,6.9l-.633-.871a.6.6,0,0,0-.965.7Z" transform="translate(-7.196 -5.065)"/><path class="a" d="M1.437,39.629l-1.024.333A.6.6,0,1,0,.781,41.1L1.8,40.763a.6.6,0,1,0-.368-1.134Z" transform="translate(0 -26.633)"/><path class="a" d="M30.148,59.012a.6.6,0,0,0-.6.6v1.077a.6.6,0,1,0,1.193,0V59.608A.6.6,0,0,0,30.148,59.012Z" transform="translate(-18.845 -39.012)"/><path class="a" d="M58.08,39.964l-1.024-.333a.6.6,0,0,0-.368,1.134l1.024.333a.6.6,0,0,0,.368-1.134Z" transform="translate(-35.886 -26.634)"/></g></svg>