<svg xmlns="http://www.w3.org/2000/svg" xmlns:xlink="http://www.w3.org/1999/xlink" width="202.628" height="269.245" viewBox="0 0 202.628 269.245"><defs><style>.a,.b,.c,.ct,.cu,.cv,.d,.x{opacity:0.3;}.b,.ba{fill:url(#a);}.c{fill:url(#b);}.d{fill:url(#c);}.bg,.cw,.cx,.cy,.cz,.da,.e,.f,.g,.h,.i{opacity:0.2;}.e{fill:url(#d);}.f{fill:url(#e);}.bw,.g{fill:url(#f);}.cd,.h{fill:url(#g);}.i{fill:url(#h);}.aq,.av,.aw,.bm,.bn,.bz,.ca,.cb,.ck,.cl,.cm,.cn,.cp,.cq,.db,.dc,.dd,.ea,.eb,.ep,.eq,.fc,.fd,.fe,.fn,.fo,.fp,.fq,.fs,.ft,.gp,.gs,.j,.k,.l{mix-blend-mode:color-dodge;}.aq,.av,.aw,.bm,.bn,.bz,.ca,.cb,.ck,.cl,.cm,.cn,.co,.cp,.cq,.cr,.cs,.db,.dc,.dd,.ea,.eb,.ep,.eq,.fc,.fd,.fe,.fn,.fo,.fp,.fq,.fr,.fs,.ft,.fu,.fv,.fy,.ga,.gd,.ge,.gg,.gi,.gj,.gk,.gl,.gm,.gp,.gs,.gt,.gu,.gx,.j,.k,.l{isolation:isolate;}.j{fill:url(#i);}.dc,.dd,.gj,.gk,.gl,.gm,.gt,.gu,.k,.l{opacity:0.5;}.k{fill:url(#j);}.l{fill:url(#k);}.m,.n,.o,.p,.q,.r,.s,.t,.u,.v,.w,.x{fill:#231f20;}.m{opacity:0.073;}.n{opacity:0.093;}.o{opacity:0.114;}.p{opacity:0.135;}.q{opacity:0.155;}.r{opacity:0.176;}.s{opacity:0.197;}.t{opacity:0.217;}.u{opacity:0.238;}.v{opacity:0.259;}.w{opacity:0.279;}.y{fill:url(#l);}.z{fill:url(#m);}.aa{fill:url(#n);}.ab{fill:url(#o);}.ac{fill:url(#p);}.ad{fill:url(#q);}.ae{fill:url(#r);}.af{fill:url(#s);}.ag{fill:url(#t);}.ah{fill:url(#u);}.ai{fill:url(#v);}.aj{fill:url(#w);}.ak{fill:url(#x);}.al{fill:url(#y);}.am{fill:url(#z);}.an{fill:url(#aa);}.ao{fill:url(#ab);}.ap{fill:url(#ac);}.ar{fill:url(#ad);}.as{fill:url(#ae);}.at{fill:url(#af);}.au{fill:url(#ag);}.av{fill:url(#ah);}.aw{fill:url(#ai);}.ax{fill:url(#aj);}.ay{fill:url(#ak);}.az{fill:url(#al);}.bb{fill:url(#an);}.bc{fill:url(#ao);}.bd{fill:url(#ap);}.be{fill:url(#aq);}.bf{fill:url(#ar);}.bh{fill:url(#as);}.bi{fill:url(#at);}.bj{fill:url(#au);}.bk{fill:url(#av);}.bl{fill:url(#aw);}.bm{fill:url(#ax);}.bn{fill:url(#ay);}.bo{fill:url(#az);}.bp{fill:url(#ba);}.bq{fill:url(#bb);}.br{fill:url(#bc);}.bs{fill:url(#bd);}.bt{fill:url(#be);}.bu{fill:url(#bf);}.bv{fill:url(#bg);}.bx{fill:url(#bi);}.by{fill:url(#bj);}.bz{fill:url(#bk);}.ca{fill:url(#bl);}.cb{fill:url(#bm);}.cc{fill:url(#bn);}.ce{fill:url(#bp);}.cf{fill:url(#bq);}.cg{fill:url(#br);}.ch{fill:url(#bs);}.ci{fill:url(#bt);}.cj{fill:url(#bu);}.ck{fill:url(#bv);}.cl{fill:url(#bw);}.cm{fill:url(#bx);}.cn{fill:url(#by);}.co,.cr,.cs,.fr,.fu,.fv,.gd,.ge,.gg{mix-blend-mode:screen;}.co{fill:url(#bz);}.cp{fill:url(#ca);}.cq{fill:url(#cb);}.cr{fill:url(#cc);}.cs{fill:url(#cd);}.ct,.ee{fill:url(#ce);}.cu{fill:url(#cf);}.cv{fill:url(#cg);}.cw{fill:url(#ch);}.cx{fill:url(#ci);}.cy,.ez{fill:url(#cj);}.cz,.fg{fill:url(#ck);}.da{fill:url(#cl);}.db{fill:url(#cm);}.dc{fill:url(#cn);}.dd{fill:url(#co);}.de{fill:url(#cp);}.df{fill:url(#cq);}.dg{fill:url(#cr);}.dh{fill:url(#cs);}.di{fill:url(#ct);}.dj{fill:url(#cu);}.dk{fill:url(#cv);}.dl{fill:url(#cw);}.dm{fill:url(#cx);}.dn{fill:url(#cy);}.do{fill:#fff;}.dp{fill:url(#cz);}.dq{fill:url(#da);}.dr{fill:url(#db);}.ds{fill:url(#dc);}.dt{fill:url(#dd);}.du{fill:url(#de);}.dv{fill:url(#df);}.dw{fill:url(#dg);}.dx{fill:url(#dh);}.dy{fill:url(#di);}.dz{fill:url(#dj);}.ea{fill:url(#dk);}.eb{fill:url(#dl);}.ec{fill:url(#dm);}.ed{fill:url(#dn);}.ef{fill:url(#dp);}.eg{fill:url(#dq);}.eh{fill:url(#dr);}.ei{fill:url(#ds);}.ej{fill:url(#dt);}.ek{fill:url(#du);}.el{fill:url(#dv);}.em{fill:url(#dw);}.en{fill:url(#dx);}.eo{fill:url(#dy);}.ep{fill:url(#dz);}.eq{fill:url(#ea);}.er{fill:url(#eb);}.es{fill:url(#ec);}.et{fill:url(#ed);}.eu{fill:url(#ee);}.ev{fill:url(#ef);}.ew{fill:url(#eg);}.ex{fill:url(#eh);}.ey{fill:url(#ei);}.fa{fill:url(#ek);}.fb{fill:url(#el);}.fc{fill:url(#em);}.fd{fill:url(#en);}.fe{fill:url(#eo);}.ff{fill:url(#ep);}.fh{fill:url(#er);}.fi{fill:url(#es);}.fj{fill:url(#et);}.fk{fill:url(#eu);}.fl{fill:url(#ev);}.fm{fill:url(#ew);}.fn{fill:url(#ex);}.fo{fill:url(#ey);}.fp{fill:url(#ez);}.fq{fill:url(#fa);}.fr{fill:url(#fb);}.fs{fill:url(#fc);}.ft{fill:url(#fd);}.fu{fill:url(#fe);}.fv{fill:url(#ff);}.fw{fill:url(#fg);}.fx{fill:url(#fh);}.fy,.ga,.gi,.gj,.gk,.gl,.gm,.gt,.gu,.gx{mix-blend-mode:multiply;}.fy{fill:url(#fi);}.fz{fill:#e6e7e8;}.gb{fill:url(#fj);}.gc{fill:url(#fk);}.gd{fill:url(#fl);}.ge{fill:url(#fm);}.gf{fill:url(#fn);}.gg{opacity:0.6;fill:url(#fo);}.gh{fill:url(#fp);}.gi{opacity:0.8;fill:url(#fq);}.gj{fill:url(#fr);}.gk{fill:url(#fs);}.gl{fill:url(#ft);}.gm{fill:url(#fu);}.gn{fill:url(#fv);}.go{fill:url(#fw);}.gp{fill:url(#fx);}.gq{fill:url(#fy);}.gr{fill:url(#fz);}.gs{fill:url(#ga);}.gt{fill:url(#gb);}.gu{fill:url(#gc);}.gv{fill:#25054d;}.gw{fill:url(#gd);}.gx{fill:url(#ge);}</style><linearGradient id="a" x1="0.004" y1="0.5" x2="1.007" y2="0.5" gradientUnits="objectBoundingBox"><stop offset="0" stop-color="#1bb0d4"/><stop offset="0.107" stop-color="#1ebfdd"/><stop offset="0.237" stop-color="#23d8ec"/><stop offset="0.367" stop-color="#1ebfdd"/><stop offset="0.439" stop-color="#1bb0d4"/><stop offset="0.495" stop-color="#1bb0d4"/><stop offset="0.505" stop-color="#1bb0d4"/><stop offset="0.545" stop-color="#20c6e2"/><stop offset="0.563" stop-color="#1aafd3"/><stop offset="0.584" stop-color="#169bc7"/><stop offset="0.605" stop-color="#138fbf"/><stop offset="0.626" stop-color="#138bbd"/></linearGradient><linearGradient id="b" x1="-0.882" y1="0.897" x2="1.942" y2="0.085" gradientUnits="objectBoundingBox"><stop offset="0.035" stop-color="#138bbd"/><stop offset="0.226" stop-color="#169ac6"/><stop offset="0.595" stop-color="#1ec2df"/><stop offset="1" stop-color="#2af6ff"/></linearGradient><linearGradient id="c" x1="0.594" y1="0.634" x2="0.894" y2="1.059" xlink:href="#b"/><linearGradient id="d" x1="0.178" y1="0.623" x2="2.353" y2="-0.208" gradientUnits="objectBoundingBox"><stop offset="0.035" stop-color="#9f19ab"/><stop offset="0.244" stop-color="#ae24b0"/><stop offset="0.645" stop-color="#d643bf"/><stop offset="1" stop-color="#ff63ce"/></linearGradient><linearGradient id="e" x1="-0.262" y1="0.681" x2="1.437" y2="0.282" xlink:href="#d"/><linearGradient id="f" x1="1.124" y1="0.5" x2="-0.03" y2="0.5" gradientUnits="objectBoundingBox"><stop offset="0" stop-color="#9f19ab"/><stop offset="0.166" stop-color="#ae24b0"/><stop offset="0.486" stop-color="#d643bf"/><stop offset="0.768" stop-color="#ff63ce"/><stop offset="0.924" stop-color="#dc48c1"/></linearGradient><linearGradient id="g" x1="0.001" y1="0.5" x2="1.001" y2="0.5" gradientUnits="objectBoundingBox"><stop offset="0.066" stop-color="#fcce9e"/><stop offset="0.52" stop-color="#fac099"/><stop offset="0.585" stop-color="#fee0a5"/><stop offset="0.591" stop-color="#ffe4a7"/><stop offset="0.609" stop-color="#fcd4a0"/><stop offset="0.643" stop-color="#f9bd97"/><stop offset="0.675" stop-color="#f7ae91"/><stop offset="0.702" stop-color="#f7aa90"/><stop offset="1" stop-color="#f9b695"/></linearGradient><linearGradient id="h" x1="-1.169" y1="0.702" x2="2.1" y2="0.182" gradientUnits="objectBoundingBox"><stop offset="0.035" stop-color="#ffa98c"/><stop offset="0.317" stop-color="#feb892"/><stop offset="0.86" stop-color="#fee0a3"/><stop offset="1" stop-color="#feeca8"/></linearGradient><radialGradient id="i" cx="0.5" cy="0.5" r="0.5" gradientTransform="matrix(-0.039, 1, -0.999, -0.003, 1575.137, 3991.89)" gradientUnits="objectBoundingBox"><stop offset="0" stop-color="#972a74"/><stop offset="0.041" stop-color="#8a266a"/><stop offset="0.194" stop-color="#601a49"/><stop offset="0.35" stop-color="#3d112f"/><stop offset="0.507" stop-color="#22091a"/><stop offset="0.667" stop-color="#0f040b"/><stop offset="0.829" stop-color="#030102"/><stop offset="1"/></radialGradient><radialGradient id="j" cx="0.5" cy="0.5" r="0.817" gradientTransform="translate(0.509 -7.325) scale(0.612 0.612)" gradientUnits="objectBoundingBox"><stop offset="0" stop-color="#fa45c1"/><stop offset="0.205" stop-color="#cb389d"/><stop offset="0.668" stop-color="#571843"/><stop offset="1"/></radialGradient><radialGradient id="k" cx="0.5" cy="0.5" r="0.817" gradientTransform="translate(0.509 -7.198) scale(0.612 0.612)" xlink:href="#j"/><linearGradient id="l" x1="1.099" y1="-1.364" x2="0.464" y2="0.808" gradientUnits="objectBoundingBox"><stop offset="0.035" stop-color="#6b24d6"/><stop offset="0.294" stop-color="#7733dc"/><stop offset="0.794" stop-color="#965bec"/><stop offset="1" stop-color="#a56ef4"/></linearGradient><linearGradient id="m" x1="-1.372" y1="1.523" x2="6.546" y2="-1.952" xlink:href="#l"/><linearGradient id="n" x1="0.593" y1="0.63" x2="1.04" y2="2.094" xlink:href="#l"/><linearGradient id="o" x1="0.628" y1="0.454" x2="7.655" y2="-1.535" xlink:href="#l"/><linearGradient id="p" x1="0.543" y1="0.646" x2="0.741" y2="1.335" xlink:href="#l"/><linearGradient id="q" x1="0.552" y1="0.822" x2="0.81" y2="2.483" xlink:href="#l"/><linearGradient id="r" x1="-0.994" y1="1.062" x2="2.061" y2="-0.065" xlink:href="#l"/><linearGradient id="s" x1="0.038" y1="0.5" x2="1.004" y2="0.5" gradientUnits="objectBoundingBox"><stop offset="0" stop-color="#6b24d6"/><stop offset="0.067" stop-color="#712cd9"/><stop offset="0.162" stop-color="#7734dc"/><stop offset="0.323" stop-color="#8c4ee7"/><stop offset="0.485" stop-color="#a56ef4"/><stop offset="0.874" stop-color="#6b24d6"/></linearGradient><linearGradient id="t" x1="0.504" y1="0.507" x2="0.556" y2="0.595" xlink:href="#l"/><linearGradient id="u" x1="0.539" y1="0.626" x2="0.728" y2="1.254" xlink:href="#l"/><linearGradient id="v" x1="-0.998" y1="3.322" x2="2.054" y2="-2.497" xlink:href="#l"/><linearGradient id="w" x1="-0.908" y1="1.422" x2="1.971" y2="-0.463" xlink:href="#l"/><linearGradient id="x" x1="-1.087" y1="3.683" x2="2.145" y2="-2.585" xlink:href="#l"/><linearGradient id="y" x1="-0.916" y1="1.492" x2="1.978" y2="-0.536" xlink:href="#l"/><linearGradient id="z" x1="-1.009" y1="6.551" x2="2.074" y2="-5.889" xlink:href="#l"/><linearGradient id="aa" x1="-1.201" y1="1.305" x2="2.266" y2="-0.325" xlink:href="#l"/><linearGradient id="ab" x1="-6.515" y1="0.577" x2="8.974" y2="0.42" xlink:href="#l"/><linearGradient id="ac" x1="0.06" y1="0.5" x2="0.967" y2="0.5" gradientUnits="objectBoundingBox"><stop offset="0" stop-color="#7c3adf"/><stop offset="0.042" stop-color="#7633dc"/><stop offset="0.144" stop-color="#6d27d7"/><stop offset="0.253" stop-color="#6b24d6"/><stop offset="0.556" stop-color="#9a60ee"/><stop offset="0.975" stop-color="#7734dc"/></linearGradient><radialGradient id="ad" cx="0.747" cy="0.535" r="0.504" gradientTransform="translate(0.008) scale(0.985 1)" gradientUnits="objectBoundingBox"><stop offset="0" stop-color="#fff"/><stop offset="0.066" stop-color="#d8d8d8"/><stop offset="0.162" stop-color="#a5a5a5"/><stop offset="0.262" stop-color="#797979"/><stop offset="0.366" stop-color="#545454"/><stop offset="0.473" stop-color="#353535"/><stop offset="0.585" stop-color="#1d1d1d"/><stop offset="0.704" stop-color="#0d0d0d"/><stop offset="0.835" stop-color="#030303"/><stop offset="1"/></radialGradient><radialGradient id="ae" cx="0.818" cy="0.762" r="1.086" gradientTransform="translate(0.376) scale(0.248 1)" xlink:href="#ad"/><radialGradient id="af" cx="0.5" cy="0.5" r="1.08" gradientTransform="translate(0.327) scale(0.346 1)" xlink:href="#ad"/><radialGradient id="ag" cx="0.5" cy="0.5" r="1.152" gradientTransform="translate(0.339) scale(0.323 1)" xlink:href="#ad"/><radialGradient id="ah" cx="0.5" cy="0.5" r="0.5" gradientTransform="matrix(-0.046, 1, -0.998, -0.003, 1461.06, 2094.23)" gradientUnits="objectBoundingBox"><stop offset="0" stop-color="#4916a1"/><stop offset="0.07" stop-color="#3e128a"/><stop offset="0.218" stop-color="#2b0d60"/><stop offset="0.37" stop-color="#1b083d"/><stop offset="0.522" stop-color="#0f0422"/><stop offset="0.677" stop-color="#06020f"/><stop offset="0.834" stop-color="#010003"/><stop offset="1"/></radialGradient><radialGradient id="ai" cx="0.5" cy="0.5" r="0.5" gradientTransform="matrix(-0.046, 1, -0.999, -0.003, 1482.095, 2099.687)" xlink:href="#ah"/><linearGradient id="aj" x1="1.154" y1="-1.615" x2="0.44" y2="0.691" xlink:href="#b"/><linearGradient id="ak" x1="0.319" y1="0.672" x2="2.384" y2="0.15" xlink:href="#b"/><linearGradient id="al" x1="0.646" y1="0.57" x2="1.502" y2="0.995" xlink:href="#b"/><linearGradient id="an" x1="-0.93" y1="0.848" x2="1.993" y2="0.137" xlink:href="#b"/><linearGradient id="ao" x1="-526.899" y1="-260.478" x2="5145.623" y2="2543.866" xlink:href="#b"/><linearGradient id="ap" x1="1527.793" y1="755.307" x2="3831.135" y2="1894.018" xlink:href="#b"/><linearGradient id="aq" x1="0.207" y1="0.192" x2="1.444" y2="1.491" xlink:href="#b"/><linearGradient id="ar" x1="0.655" y1="0.663" x2="1.157" y2="1.19" xlink:href="#b"/><linearGradient id="as" x1="-526.899" y1="-260.478" x2="5145.623" y2="2543.866" xlink:href="#b"/><linearGradient id="at" x1="1527.793" y1="755.307" x2="3831.135" y2="1894.018" xlink:href="#b"/><radialGradient id="au" cx="0.361" cy="0.419" r="1.191" gradientTransform="translate(0.277) scale(0.446 1)" xlink:href="#ad"/><radialGradient id="av" cx="0.5" cy="0.5" r="0.672" gradientTransform="translate(0.191) scale(0.618 1)" xlink:href="#ad"/><radialGradient id="aw" cx="0.301" cy="0.229" r="1.387" gradientTransform="translate(0.368) scale(0.264 1)" xlink:href="#ad"/><radialGradient id="ax" cx="0.5" cy="0.5" r="0.5" gradientTransform="matrix(-0.057, 1, -0.998, -0.002, 1666.15, 2368.565)" xlink:href="#i"/><radialGradient id="ay" cx="0.5" cy="0.5" r="0.265" gradientTransform="matrix(1.46, -0.38, 1.2, 1.85, -90.44, -106.482)" xlink:href="#i"/><linearGradient id="az" x1="0" y1="0.5" x2="1" y2="0.5" xlink:href="#d"/><linearGradient id="ba" x1="1.097" y1="-1.425" x2="0.383" y2="0.881" xlink:href="#d"/><linearGradient id="bb" x1="1.647" y1="0.5" x2="-0.343" y2="0.5" gradientUnits="objectBoundingBox"><stop offset="0" stop-color="#9f19ab"/><stop offset="0.136" stop-color="#ae24b0"/><stop offset="0.399" stop-color="#d643bf"/><stop offset="0.631" stop-color="#ff63ce"/><stop offset="0.874" stop-color="#dc48c1"/></linearGradient><linearGradient id="bc" x1="0.374" y1="0.218" x2="0.751" y2="1.061" xlink:href="#d"/><linearGradient id="bd" x1="0.167" y1="0.608" x2="2.417" y2="-0.12" xlink:href="#d"/><linearGradient id="be" x1="-1.154" y1="0.792" x2="2.114" y2="0.081" xlink:href="#d"/><linearGradient id="bf" x1="-0.321" y1="0.644" x2="1.509" y2="0.326" xlink:href="#d"/><linearGradient id="bg" x1="0.622" y1="0.639" x2="1.414" y2="2.327" xlink:href="#d"/><radialGradient id="bi" cx="0.693" cy="0.48" r="0.931" gradientTransform="translate(0.199) scale(0.602 1)" xlink:href="#ad"/><radialGradient id="bj" cx="0.785" cy="0.176" r="1.035" gradientTransform="translate(0.182) scale(0.637 1)" xlink:href="#ad"/><radialGradient id="bk" cx="0.5" cy="0.5" r="0.5" gradientTransform="matrix(-0.05, 1, -0.999, -0.003, 1386.141, 1665.249)" gradientUnits="objectBoundingBox"><stop offset="0" stop-color="#ad3185"/><stop offset="0.102" stop-color="#8a276a"/><stop offset="0.245" stop-color="#601b4a"/><stop offset="0.391" stop-color="#3d112f"/><stop offset="0.538" stop-color="#22091a"/><stop offset="0.688" stop-color="#0f040b"/><stop offset="0.84" stop-color="#030102"/><stop offset="1"/></radialGradient><radialGradient id="bl" cx="0.175" cy="0.936" r="2.019" gradientTransform="translate(0.358) scale(0.284 1)" xlink:href="#ad"/><radialGradient id="bm" cx="0.657" cy="0.555" r="0.892" gradientTransform="translate(0.192) scale(0.616 1)" xlink:href="#ad"/><linearGradient id="bn" x1="0.993" y1="-1.335" x2="0.381" y2="0.726" xlink:href="#h"/><linearGradient id="bp" x1="-1.278" y1="0.736" x2="2.255" y2="0.111" xlink:href="#h"/><linearGradient id="bq" x1="1.026" y1="0.5" x2="-2.231" y2="0.5" gradientUnits="objectBoundingBox"><stop offset="0.035" stop-color="#f7aa90"/><stop offset="0.232" stop-color="#f9b996"/><stop offset="0.61" stop-color="#fee1a6"/><stop offset="0.631" stop-color="#ffe4a7"/><stop offset="0.874" stop-color="#f7aa90"/></linearGradient><radialGradient id="br" cx="0.506" cy="0.499" r="0.358" gradientTransform="translate(-2.289) scale(5.578 1)" xlink:href="#ad"/><radialGradient id="bs" cx="0.5" cy="0.5" r="0.578" gradientTransform="translate(0.113) scale(0.774 1)" xlink:href="#ad"/><radialGradient id="bt" cx="0.429" cy="0.593" r="0.776" gradientTransform="translate(0.244) scale(0.512 1)" xlink:href="#ad"/><radialGradient id="bu" cx="0.346" cy="0.541" r="1.106" gradientTransform="translate(0.331) scale(0.337 1)" xlink:href="#ad"/><radialGradient id="bv" cx="0.5" cy="0.5" r="0.5" gradientTransform="matrix(-0.08, 1, -0.996, -0.002, 1851.405, 1680.603)" xlink:href="#i"/><radialGradient id="bw" cx="0.5" cy="0.5" r="0.5" gradientTransform="matrix(-0.057, 1, -0.998, -0.002, 2049.25, 2924)" xlink:href="#i"/><radialGradient id="bx" cx="0.5" cy="0.5" r="0.402" gradientTransform="matrix(1.101, -0.38, 0.579, 1.184, 56.431, -4.211)" xlink:href="#i"/><radialGradient id="by" cx="0.586" cy="0.662" r="1.091" gradientTransform="translate(0.329) scale(0.343 1)" xlink:href="#j"/><radialGradient id="bz" cx="0.5" cy="0.5" r="0.5" gradientUnits="objectBoundingBox"><stop offset="0.086" stop-color="#c211a1"/><stop offset="0.089" stop-color="#b8109b"/><stop offset="0.126" stop-color="#5b0663"/><stop offset="0.149" stop-color="#500557"/><stop offset="0.214" stop-color="#37033c"/><stop offset="0.288" stop-color="#230226"/><stop offset="0.374" stop-color="#130114"/><stop offset="0.479" stop-color="#080008"/><stop offset="0.624" stop-color="#010001"/><stop offset="1"/></radialGradient><radialGradient id="ca" cx="0.569" cy="0.234" r="0.867" gradientTransform="translate(0.208) scale(0.584 1)" xlink:href="#j"/><radialGradient id="cb" cx="0.501" cy="-8.501" r="44.765" gradientTransform="matrix(0.007, 0.505, -0.004, 0.863, 0.426, -1.236)" xlink:href="#j"/><radialGradient id="cc" cx="0.5" cy="0.5" r="0.5" gradientTransform="translate(0)" xlink:href="#bz"/><radialGradient id="cd" cx="0.5" cy="0.5" r="0.5" gradientTransform="translate(0)" xlink:href="#bz"/><linearGradient id="ce" x1="21.495" y1="0.5" x2="22.498" y2="0.5" xlink:href="#a"/><linearGradient id="cf" x1="16.17" y1="0.897" x2="18.993" y2="0.086" xlink:href="#b"/><linearGradient id="cg" x1="48.58" y1="0.634" x2="48.88" y2="1.058" xlink:href="#b"/><linearGradient id="ch" x1="24.592" y1="0.623" x2="26.766" y2="-0.208" xlink:href="#d"/><linearGradient id="ci" x1="53.667" y1="0.681" x2="55.366" y2="0.282" xlink:href="#d"/><linearGradient id="cj" x1="47.556" y1="0.5" x2="46.402" y2="0.5" xlink:href="#f"/><linearGradient id="ck" x1="10.195" y1="0.5" x2="11.195" y2="0.5" xlink:href="#g"/><linearGradient id="cl" x1="112.326" y1="0.702" x2="115.595" y2="0.183" xlink:href="#h"/><radialGradient id="cm" cx="0.5" cy="0.5" r="0.5" gradientTransform="matrix(0.039, 1, 0.999, -0.003, -3566.802, 3623.499)" xlink:href="#i"/><radialGradient id="cn" cx="0.5" cy="0.5" r="0.817" gradientTransform="matrix(-0.612, 0, 0, 0.612, 8.052, -7.4)" xlink:href="#j"/><radialGradient id="co" cx="0.5" cy="0.5" r="0.817" gradientTransform="matrix(-0.612, 0, 0, 0.612, 8.14, -7.273)" xlink:href="#j"/><linearGradient id="cp" x1="11.044" y1="-1.364" x2="10.41" y2="0.808" xlink:href="#l"/><linearGradient id="cq" x1="78.244" y1="1.523" x2="86.161" y2="-1.952" xlink:href="#l"/><linearGradient id="cr" x1="10.539" y1="0.63" x2="10.986" y2="2.094" xlink:href="#l"/><linearGradient id="cs" x1="68.406" y1="0.454" x2="75.432" y2="-1.535" xlink:href="#l"/><linearGradient id="ct" x1="12111.679" y1="0.625" x2="12111.856" y2="1.182" xlink:href="#l"/><linearGradient id="cu" x1="23930.121" y1="0.786" x2="23930.383" y2="2.398" xlink:href="#l"/><linearGradient id="cv" x1="14.452" y1="1.062" x2="17.507" y2="-0.065" xlink:href="#l"/><linearGradient id="cw" x1="44.849" y1="0.5" x2="45.815" y2="0.5" xlink:href="#s"/><linearGradient id="cx" x1="2663.655" y1="0.509" x2="2663.706" y2="0.599" xlink:href="#l"/><linearGradient id="cy" x1="2600.943" y1="0.622" x2="2601.131" y2="1.242" xlink:href="#l"/><linearGradient id="cz" x1="43.222" y1="1.422" x2="46.101" y2="-0.463" xlink:href="#l"/><linearGradient id="da" x1="33143.172" y1="2.104" x2="33146.496" y2="-1.125" xlink:href="#l"/><linearGradient id="db" x1="454.04" y1="1.497" x2="456.937" y2="-0.541" xlink:href="#l"/><linearGradient id="dc" x1="2529.401" y1="6.442" x2="2532.481" y2="-5.76" xlink:href="#l"/><linearGradient id="dd" x1="34078.871" y1="1.125" x2="34082.445" y2="-0.159" xlink:href="#l"/><linearGradient id="de" x1="123987.445" y1="0.577" x2="124005.719" y2="0.421" xlink:href="#l"/><linearGradient id="df" x1="41.822" y1="0.5" x2="42.729" y2="0.5" xlink:href="#ac"/><radialGradient id="dg" cx="0.253" cy="0.535" r="0.504" gradientTransform="matrix(-0.985, 0, 0, 1, 159.506, 0)" xlink:href="#ad"/><radialGradient id="dh" cx="0.182" cy="0.762" r="1.085" gradientTransform="matrix(-0.248, 0, 0, 1, 22.107, 0)" xlink:href="#ad"/><radialGradient id="di" cx="0.5" cy="0.5" r="1.08" gradientTransform="matrix(-0.346, 0, 0, 1, 50.785, 0)" xlink:href="#ad"/><radialGradient id="dj" cx="0.5" cy="0.5" r="1.151" gradientTransform="matrix(-0.323, 0, 0, 1, 57.081, 0)" xlink:href="#ad"/><radialGradient id="dk" cx="0.5" cy="0.5" r="0.5" gradientTransform="matrix(0.046, 1, 0.998, -0.003, -1848.1, 1869.255)" xlink:href="#ah"/><radialGradient id="dl" cx="0.5" cy="0.5" r="0.5" gradientTransform="matrix(0.046, 1, 0.999, -0.003, -1874.631, 1895.639)" xlink:href="#ah"/><linearGradient id="dm" x1="10.028" y1="-1.615" x2="9.314" y2="0.691" xlink:href="#b"/><linearGradient id="dn" x1="80.583" y1="0.672" x2="82.648" y2="0.15" xlink:href="#b"/><linearGradient id="dp" x1="16.121" y1="0.848" x2="19.044" y2="0.137" xlink:href="#b"/><linearGradient id="dq" x1="279882.406" y1="-214.055" x2="286853.188" y2="2092.111" xlink:href="#b"/><linearGradient id="dr" x1="282407.344" y1="621.281" x2="285237.844" y2="1557.706" xlink:href="#b"/><linearGradient id="ds" x1="48.193" y1="0.192" x2="49.429" y2="1.491" xlink:href="#b"/><linearGradient id="dt" x1="48.64" y1="0.663" x2="49.143" y2="1.19" xlink:href="#b"/><linearGradient id="du" x1="279873.063" y1="-245.656" x2="286943.688" y2="2399.294" xlink:href="#b"/><linearGradient id="dv" x1="282434.156" y1="712.393" x2="285305.219" y2="1786.382" xlink:href="#b"/><radialGradient id="dw" cx="0.639" cy="0.419" r="1.191" gradientTransform="matrix(-0.446, 0, 0, 1, 18.737, 0)" xlink:href="#ad"/><radialGradient id="dx" cx="0.5" cy="0.5" r="0.672" gradientTransform="matrix(-0.619, 0, 0, 1, 130.114, 0)" xlink:href="#ad"/><radialGradient id="dy" cx="0.699" cy="0.229" r="1.387" gradientTransform="matrix(-0.264, 0, 0, 1, 27.544, 0)" xlink:href="#ad"/><radialGradient id="dz" cx="0.5" cy="0.5" r="0.5" gradientTransform="matrix(0.058, 1, 0.997, -0.002, -2101.355, 2131.683)" xlink:href="#i"/><radialGradient id="ea" cx="0.5" cy="0.5" r="0.265" gradientTransform="matrix(-1.459, -0.38, -1.2, 1.85, 282.432, -74.997)" xlink:href="#i"/><linearGradient id="eb" x1="11.394" y1="0.5" x2="12.394" y2="0.5" xlink:href="#d"/><linearGradient id="ec" x1="12.491" y1="-1.425" x2="11.777" y2="0.881" xlink:href="#d"/><linearGradient id="ed" x1="95.856" y1="0.5" x2="93.866" y2="0.5" xlink:href="#bb"/><linearGradient id="ee" x1="24.788" y1="0.218" x2="25.164" y2="1.061" xlink:href="#d"/><linearGradient id="ef" x1="24.581" y1="0.608" x2="26.831" y2="-0.12" xlink:href="#d"/><linearGradient id="eg" x1="53.715" y1="0.792" x2="56.984" y2="0.081" xlink:href="#d"/><linearGradient id="eh" x1="53.608" y1="0.644" x2="55.438" y2="0.326" xlink:href="#d"/><linearGradient id="ei" x1="47.054" y1="0.639" x2="47.846" y2="2.327" xlink:href="#d"/><radialGradient id="ek" cx="0.307" cy="0.48" r="0.931" gradientTransform="matrix(-0.603, 0, 0, 1, 89.048, 0)" xlink:href="#ad"/><radialGradient id="el" cx="0.215" cy="0.176" r="1.034" gradientTransform="matrix(-0.637, 0, 0, 1, 155.908, 0)" xlink:href="#ad"/><radialGradient id="em" cx="0.5" cy="0.5" r="0.5" gradientTransform="matrix(0.05, 1, 0.998, -0.003, -1465.42, 1477.783)" xlink:href="#bk"/><radialGradient id="en" cx="0.825" cy="0.936" r="2.019" gradientTransform="matrix(-0.284, 0, 0, 1, 32.369, 0)" xlink:href="#ad"/><radialGradient id="eo" cx="0.343" cy="0.556" r="0.892" gradientTransform="matrix(-0.616, 0, 0, 1, 40.428, 0)" xlink:href="#ad"/><linearGradient id="ep" x1="11.187" y1="-1.335" x2="10.574" y2="0.726" xlink:href="#h"/><linearGradient id="er" x1="62.718" y1="0.736" x2="66.251" y2="0.111" xlink:href="#h"/><linearGradient id="es" x1="115.437" y1="0.5" x2="112.18" y2="0.5" xlink:href="#bq"/><radialGradient id="et" cx="0.497" cy="0.501" r="0.359" gradientTransform="matrix(-6.128, 0, 0, 1, 224261.281, 0)" xlink:href="#ad"/><radialGradient id="eu" cx="0.5" cy="0.5" r="0.578" gradientTransform="matrix(-0.774, 0, 0, 1, 202.817, 0)" xlink:href="#ad"/><radialGradient id="ev" cx="0.571" cy="0.593" r="0.776" gradientTransform="matrix(-0.512, 0, 0, 1, 97.332, 0)" xlink:href="#ad"/><radialGradient id="ew" cx="0.654" cy="0.541" r="1.106" gradientTransform="matrix(-0.337, 0, 0, 1, 14.095, 0)" xlink:href="#ad"/><radialGradient id="ex" cx="0.5" cy="0.5" r="0.5" gradientTransform="matrix(0.081, 1, 0.996, -0.002, -1442.144, 1444.174)" xlink:href="#i"/><radialGradient id="ey" cx="0.5" cy="0.5" r="0.5" gradientTransform="matrix(0.058, 1, 0.998, -0.002, -2593.413, 2629.229)" xlink:href="#i"/><radialGradient id="ez" cx="0.5" cy="0.5" r="0.402" gradientTransform="matrix(-1.101, -0.38, -0.579, 1.184, 90.598, 33.616)" xlink:href="#i"/><radialGradient id="fa" cx="0.414" cy="0.662" r="1.091" gradientTransform="matrix(-0.343, 0, 0, 1, 14.425, 0)" xlink:href="#j"/><radialGradient id="fb" cx="0.5" cy="0.5" r="0.5" gradientTransform="matrix(-1, 0, 0, 1, 102.446, 0)" xlink:href="#bz"/><radialGradient id="fc" cx="0.516" cy="-14.289" r="44.28" gradientTransform="matrix(-0.009, -0.5, -0.005, 0.866, 12.392, 4.421)" xlink:href="#j"/><radialGradient id="fd" cx="0.544" cy="0.368" r="0.753" gradientTransform="matrix(-0.591, 0, 0, 1, 28.16, 0)" xlink:href="#j"/><radialGradient id="fe" cx="0.5" cy="0.5" r="0.5" gradientTransform="matrix(-1, 0, 0, 1, 118.765, 0)" xlink:href="#bz"/><radialGradient id="ff" cx="0.5" cy="0.5" r="0.5" gradientTransform="matrix(-1, 0, 0, 1, 82.089, 0)" xlink:href="#bz"/><linearGradient id="fg" x1="24.734" y1="-3.575" x2="23.545" y2="-5.029" gradientUnits="objectBoundingBox"><stop offset="0" stop-color="#25054d"/><stop offset="0.261" stop-color="#340558"/><stop offset="0.379" stop-color="#3d065f"/><stop offset="0.511" stop-color="#4c086a"/><stop offset="0.765" stop-color="#74108a"/><stop offset="1" stop-color="#9f19ab"/></linearGradient><radialGradient id="fh" cx="0.547" cy="0.208" r="0.721" gradientTransform="translate(0.037) scale(0.927 1)" gradientUnits="objectBoundingBox"><stop offset="0" stop-color="#feeca8"/><stop offset="1" stop-color="#ffa98c"/></radialGradient><radialGradient id="fi" cx="0.462" cy="0.395" r="0.56" gradientTransform="matrix(0.674, 0.234, -0.107, 0.641, -1.741, -8.544)" gradientUnits="objectBoundingBox"><stop offset="0.192" stop-color="#948f90"/><stop offset="1" stop-color="#fff"/></radialGradient><radialGradient id="fj" cx="1.79" cy="-18.702" r="34.79" gradientTransform="translate(0.209) scale(0.581 1)" gradientUnits="objectBoundingBox"><stop offset="0.379" stop-color="#fff"/><stop offset="0.468" stop-color="#f4f2f8"/><stop offset="0.632" stop-color="#d7cfe7"/><stop offset="0.851" stop-color="#a999cc"/><stop offset="1" stop-color="#8770b8"/></radialGradient><radialGradient id="fk" cx="0.379" cy="0.448" r="1.839" gradientTransform="translate(0.081) scale(0.839 1)" gradientUnits="objectBoundingBox"><stop offset="0" stop-color="#fbf8ff"/><stop offset="0.636" stop-color="#d4d1d8"/><stop offset="0.947" stop-color="#a5a5b8"/><stop offset="1" stop-color="#9d9eb3"/></radialGradient><radialGradient id="fl" cx="0.698" cy="0.333" r="0.369" gradientTransform="translate(-1.166) scale(3.332 1)" gradientUnits="objectBoundingBox"><stop offset="0" stop-color="#fff"/><stop offset="1"/></radialGradient><radialGradient id="fm" cx="0.547" cy="0.208" r="0.693" gradientTransform="translate(-0.044) scale(1.089 1)" xlink:href="#fl"/><radialGradient id="fn" cx="0.36" cy="0.394" r="0.49" gradientTransform="translate(-0.162) scale(1.323 1)" gradientUnits="objectBoundingBox"><stop offset="0.03" stop-color="#fedfcb"/><stop offset="1" stop-color="#f9b69e"/></radialGradient><linearGradient id="fo" x1="0.009" y1="0.191" x2="0.678" y2="0.669" gradientTransform="matrix(1, 0, 0, 1, 0, 0)" xlink:href="#fl"/><linearGradient id="fp" x1="0.616" y1="1.049" x2="0.394" y2="-0.185" xlink:href="#fg"/><linearGradient id="fq" x1="0.788" y1="0.676" x2="0.055" y2="-0.134" gradientUnits="objectBoundingBox"><stop offset="0" stop-color="#fff"/><stop offset="1" stop-color="#dbac9b"/></linearGradient><linearGradient id="fr" x1="0.278" y1="0.253" x2="0.568" y2="0.522" gradientUnits="objectBoundingBox"><stop offset="0" stop-color="#fff"/><stop offset="1" stop-color="#bcbec0"/></linearGradient><linearGradient id="fs" x1="0.042" y1="0.612" x2="1.236" y2="0.273" xlink:href="#fr"/><linearGradient id="ft" x1="0.57" y1="0.222" x2="0.409" y2="0.961" xlink:href="#fr"/><linearGradient id="fu" x1="0.202" y1="-0.029" x2="1.001" y2="0.797" xlink:href="#fr"/><linearGradient id="fv" x1="236.99" y1="0.885" x2="236.164" y2="0.03" gradientUnits="objectBoundingBox"><stop offset="0.035" stop-color="#25054d"/><stop offset="0.224" stop-color="#2d075c"/><stop offset="0.587" stop-color="#420f84"/><stop offset="0.631" stop-color="#45108a"/><stop offset="0.874" stop-color="#25054d"/></linearGradient><linearGradient id="fw" x1="246.877" y1="0.554" x2="248.455" y2="0.187" gradientUnits="objectBoundingBox"><stop offset="0" stop-color="#25054d"/><stop offset="1" stop-color="#45108a"/></linearGradient><radialGradient id="fx" cx="0.244" cy="0.449" r="0.424" gradientTransform="matrix(-1.514, 0, 0, 1, 738.674, 0)" xlink:href="#ad"/><linearGradient id="fy" x1="340.669" y1="0.866" x2="339.94" y2="0.053" gradientUnits="objectBoundingBox"><stop offset="0.035" stop-color="#a7a9ac"/><stop offset="0.195" stop-color="#b6b8ba"/><stop offset="0.504" stop-color="#dedfe0"/><stop offset="0.631" stop-color="#f1f2f2"/><stop offset="0.874" stop-color="#bcbec0"/></linearGradient><linearGradient id="fz" x1="408.777" y1="0.554" x2="410.355" y2="0.187" gradientUnits="objectBoundingBox"><stop offset="0.035" stop-color="#9d9eb3"/><stop offset="0.581" stop-color="#d4d1d8"/><stop offset="1" stop-color="#eeebf2"/></linearGradient><radialGradient id="ga" cx="0.244" cy="0.449" r="0.424" gradientTransform="matrix(-1.514, 0, 0, 1, 1221.918, 0)" xlink:href="#ad"/><linearGradient id="gb" x1="0.554" y1="1.225" x2="0.428" y2="-0.438" xlink:href="#fr"/><linearGradient id="gc" x1="0" y1="0.5" x2="1" y2="0.5" xlink:href="#fr"/><linearGradient id="gd" x1="0.202" y1="-0.029" x2="1.001" y2="0.797" xlink:href="#fy"/><linearGradient id="ge" x1="0.184" y1="-0.086" x2="0.993" y2="0.791" xlink:href="#fy"/></defs><g transform="translate(0 53.857)"><g transform="translate(0 36.273)"><g class="a" transform="translate(20.959 109.693)"><path class="b" d="M405.17,316.212c-.663.385-1.814.15-1.906-.392a4.631,4.631,0,0,0-2.76-3.093,13.618,13.618,0,0,0-10.709-.042c-3.606,1.8-3.738,4.967-.4,6.9a11.425,11.425,0,0,0,5.02,1.368c.569.032.932.295.98.579h0v.007c0,.007,0,.017,0,.028v-3.738a12.157,12.157,0,0,1,5.106,1.111,4.625,4.625,0,0,1,2.76,3.093c.092.542,1.243.776,1.906.393l12.532-7.239.554-.114v-6.411Z" transform="translate(-347.038 -308.097)"/><path class="c" d="M337.128,310.046a1.912,1.912,0,0,1-1.112-1.515V314.5l.016-.006a1.777,1.777,0,0,0,1.1,1.757l33.827,19.528v-6.208Z" transform="translate(-336.014 -308.069)"/><path class="d" d="M393.7,325.6l-13.1,7.564v6.208l13.1-7.564a.542.542,0,0,0,.309-.409h.006v-.062c0-.013,0-.023,0-.031v-6.181A.515.515,0,0,1,393.7,325.6Z" transform="translate(-345.656 -311.658)"/><path class="e" d="M531.772,314.153l.023-.005v-6.206l-.023,0a1.835,1.835,0,0,1-1.093,1.589l-33.614,19.407v6.208l33.614-19.41A1.82,1.82,0,0,0,531.772,314.153Z" transform="translate(-370.844 -307.942)"/><path class="f" d="M479.658,324.859a2.208,2.208,0,0,0-1.489-.2v6.207a2.214,2.214,0,0,1,1.489.2l13.32,7.688v-6.208Z" transform="translate(-366.758 -311.548)"/><path class="g" d="M472.675,325.386a4.033,4.033,0,0,1-2.253,2.886,12.162,12.162,0,0,1-11.206-.115,4.173,4.173,0,0,1-2.06-2.519l-.057.016v5.377a3.7,3.7,0,0,0,2.118,3.338,12.178,12.178,0,0,0,11.206.112,4.037,4.037,0,0,0,2.253-2.887c.038-.353.438-.611.935-.71v-6.207C473.113,324.777,472.713,325.032,472.675,325.386Z" transform="translate(-362.199 -311.561)"/><path class="h" d="M441.727,363.045a5.683,5.683,0,0,1-5.233.584l-39.677-15.417v6.2l39.677,15.422a5.681,5.681,0,0,0,5.233-.587l26.457-22.813v-6.208Z" transform="translate(-349.164 -314.925)"/><path class="i" d="M400.586,341.778c-2.075-.8-3.27-2.082-3.453-3.411v5.544a3.2,3.2,0,0,0,1.149,2.689l4.481-2.965C403.44,343.053,402.227,342.416,400.586,341.778Z" transform="translate(-349.228 -314.522)"/><path class="j" d="M450.516,376.259c-.821-.011-1.46-2.322-1.429-5.166s.726-5.145,1.547-5.136,1.461,2.325,1.428,5.169S451.338,376.268,450.516,376.259Z" transform="translate(-360.468 -320.489)"/></g><path class="k" d="M502.459,227.077c0,32.64-43.248,59.1-96.594,59.1s-96.594-26.459-96.594-59.1,43.246-59.1,96.594-59.1S502.459,194.438,502.459,227.077Z" transform="translate(-309.271 -167.98)"/><path class="l" d="M509.218,304.808c0,32.638-43.247,59.1-96.594,59.1s-96.595-26.46-96.595-59.1,43.249-59.1,96.595-59.1S509.218,272.168,509.218,304.808Z" transform="translate(-310.733 -184.79)"/><g transform="translate(3.807 53.965)"><path class="m" d="M314.129,296.439l105.977,49.655,81.431-58.2-90.111-51.054Z" transform="translate(-314.129 -236.837)"/><path class="n" d="M317.147,295.681l103.4,49.054,80.03-57.2-88.561-50.176Z" transform="translate(-314.782 -236.95)"/><path class="o" d="M320.165,294.923l100.82,48.454,78.629-56.2-87.01-49.3Z" transform="translate(-315.434 -237.062)"/><path class="p" d="M323.184,294.166l98.24,47.853,77.228-55.2L413.192,238.4Z" transform="translate(-316.087 -237.175)"/><path class="q" d="M326.2,293.408l95.662,47.252,75.828-54.2-83.91-47.541Z" transform="translate(-316.74 -237.288)"/><path class="r" d="M329.22,292.65,422.3,339.3l74.427-53.2-82.36-46.663Z" transform="translate(-317.393 -237.4)"/><path class="s" d="M332.237,291.892l90.5,46.05,73.026-52.194-80.81-45.786Z" transform="translate(-318.045 -237.513)"/><path class="t" d="M335.256,291.134l87.926,45.45,71.626-51.193-79.26-44.907Z" transform="translate(-318.698 -237.626)"/><path class="u" d="M338.273,290.376l85.347,44.849,70.225-50.192L416.136,241Z" transform="translate(-319.351 -237.738)"/><path class="v" d="M341.292,289.619l82.768,44.249,68.824-49.191-76.16-43.151Z" transform="translate(-320.004 -237.851)"/><path class="w" d="M344.31,288.86l80.19,43.648,67.423-48.189-74.609-42.273Z" transform="translate(-320.656 -237.964)"/><path class="x" d="M347.328,288.1l77.611,43.047,66.022-47.188L417.9,242.568Z" transform="translate(-321.309 -238.076)"/></g><g transform="translate(61.18 35.373)"><path class="y" d="M406.036,239.548c2.382-2.331,7.724-3.027,11.67-1.451,3.175,1.268,4.4,4.022,2.662,6a8.156,8.156,0,0,1-4.487,2.294c-.883.184-.984.883-.171,1.163l16.011,5.482,9.5-9.317a1.967,1.967,0,0,1,2.572.155,6.408,6.408,0,0,0,3.846,2.606c3.579,1.076,8.052.382,10.186-1.58,2.343-2.154,1.119-5-2.667-6.293a12.82,12.82,0,0,0-5.413-.56c-1.2.13-2.1-.625-1.483-1.23l9.5-9.314-41.13-14.081c-1.8-.618-4.113-.278-5.168.756l-24.134,23.661,16.032,5.489c.8.275,1.807-.11,1.655-.639A3.116,3.116,0,0,1,406.036,239.548Z" transform="translate(-387.334 -213.114)"/><path class="z" d="M466.506,242.018a12.82,12.82,0,0,1,5.413.56,8.593,8.593,0,0,1,1.809.852l.8-.782V231.474l-9.5,9.314C464.406,241.393,465.309,242.148,466.506,242.018Z" transform="translate(-404.093 -217.084)"/><path class="aa" d="M458.961,249.691a3.491,3.491,0,0,1-1.133,1.869c-2.134,1.962-6.607,2.656-10.186,1.58a6.408,6.408,0,0,1-3.846-2.606,1.967,1.967,0,0,0-2.572-.155l-9.5,9.317-16.011-5.482c-.813-.28-.712-.979.171-1.163a8.155,8.155,0,0,0,4.487-2.294c1.733-1.978.513-4.732-2.662-6-3.946-1.576-9.288-.88-11.67,1.451a3.116,3.116,0,0,0-1.015,3.141c.152.528-.855.914-1.655.639L387.334,244.5v11.174l16.032,5.489c.8.274,1.807-.111,1.655-.64a3.113,3.113,0,0,1,1.015-3.14c1.9-1.862,5.695-2.679,9.158-2.127v9.427c-.1.256.054.548.517.705l16.011,5.484,9.5-9.317a1.969,1.969,0,0,1,2.572.154,6.411,6.411,0,0,0,3.846,2.61c3.579,1.075,8.052.379,10.186-1.583a3.074,3.074,0,0,0,1.133-2.911Z" transform="translate(-387.334 -219.773)"/><path class="ab" d="M454.9,262.84V251.663a1.905,1.905,0,0,0-1.43.392l-9.5,9.317v11.174l9.5-9.317A1.9,1.9,0,0,1,454.9,262.84Z" transform="translate(-399.583 -221.449)"/><g transform="translate(0 24.135)"><path class="ac" d="M456.512,266.142a.626.626,0,0,0-.064.023A.626.626,0,0,1,456.512,266.142Z" transform="translate(-402.281 -248.717)"/><path class="ad" d="M456.931,266c-.01,0-.02,0-.033.006C456.91,266,456.921,266,456.931,266Z" transform="translate(-402.379 -248.685)"/><path class="ae" d="M415.711,254.214c-.813-.28-.712-.979.171-1.163a8.155,8.155,0,0,0,4.487-2.294c1.733-1.978.513-4.732-2.662-6-3.946-1.576-9.288-.88-11.67,1.451a3.119,3.119,0,0,0-1.015,3.141c.152.528-.855.914-1.655.639L387.334,244.5v11.174l16.032,5.489c.8.274,1.807-.111,1.655-.64a3.116,3.116,0,0,1,1.015-3.14c1.9-1.862,5.695-2.679,9.158-2.127v9.427c-.1.256.054.548.517.705l16.011,5.484V259.7Z" transform="translate(-387.334 -243.908)"/><path class="af" d="M474.014,261.421V251.287a3.491,3.491,0,0,1-1.133,1.869c-2.134,1.962-6.607,2.656-10.186,1.58a6.4,6.4,0,0,1-3.846-2.606,1.856,1.856,0,0,0-1.909-.49,2.484,2.484,0,0,1,.767-.055V262.76a1.438,1.438,0,0,1,1.142.543,6.412,6.412,0,0,0,3.846,2.61c3.579,1.075,8.052.379,10.186-1.583A3.072,3.072,0,0,0,474.014,261.421Z" transform="translate(-402.388 -245.504)"/><path class="ag" d="M456.371,251.914a1.1,1.1,0,0,0-.277.2A1.1,1.1,0,0,1,456.371,251.914Z" transform="translate(-402.205 -245.64)"/><path class="ah" d="M456.818,251.745a2.378,2.378,0,0,0-.288.107A2.378,2.378,0,0,1,456.818,251.745Z" transform="translate(-402.299 -245.603)"/></g><g transform="translate(0 24.135)"><path class="ai" d="M408.191,251.754a.153.153,0,0,0,.053.006A.153.153,0,0,1,408.191,251.754Z" transform="translate(-391.845 -245.605)"/><path class="aj" d="M402.2,249.75l-14.869-5.089h0Z" transform="translate(-387.334 -244.071)"/><path class="ak" d="M408.619,251.773l-.02,0Z" transform="translate(-391.933 -245.609)"/><path class="al" d="M407.469,265.813l-1.163-.4,1.163.4a1.841,1.841,0,0,0,.314.072A1.841,1.841,0,0,1,407.469,265.813Z" transform="translate(-391.437 -248.559)"/><path class="am" d="M408.259,266.017a1.513,1.513,0,0,0,.266.013A1.513,1.513,0,0,1,408.259,266.017Z" transform="translate(-391.859 -248.69)"/><g transform="translate(17.224)"><path class="an" d="M409.332,265.88v0C409.309,265.889,409.3,265.893,409.332,265.88Z" transform="translate(-409.311 -248.659)"/><path class="ao" d="M422.854,270.512a.405.405,0,0,0,0,.144Z" transform="translate(-412.238 -249.662)"/><path class="ap" d="M419.932,253.764c-.085-.288.16-.6.708-.713a8.156,8.156,0,0,0,4.487-2.294c1.733-1.978.513-4.732-2.662-6-3.946-1.576-9.288-.88-11.67,1.451a3.119,3.119,0,0,0-1.015,3.141c.073.257-.128.477-.442.606v11.172c.1-.052.532-.289.442-.605a3.116,3.116,0,0,1,1.015-3.14c1.9-1.857,5.683-2.674,9.138-2.129Z" transform="translate(-409.317 -243.908)"/></g></g><g class="aq" transform="translate(0 14.445)"><path class="ar" d="M464.981,241.1c.015-.014.026-.03.042-.045l9.5-9.316-.565-.192-8.937,8.765A.524.524,0,0,0,464.981,241.1Z" transform="translate(-404.092 -231.544)"/><path class="as" d="M465.505,252.482c-2.134,1.962-6.607,2.659-10.186,1.582a6.426,6.426,0,0,1-3.846-2.607,1.969,1.969,0,0,0-2.572-.155l-9.5,9.317-16.011-5.482a1.071,1.071,0,0,1-.346-.2c-.359.29-.261.731.346.939l16.011,5.481,9.5-9.314a1.961,1.961,0,0,1,2.572.156,6.441,6.441,0,0,0,3.846,2.606c3.579,1.076,8.052.382,10.186-1.581a3.106,3.106,0,0,0,1.156-2.758A3.4,3.4,0,0,1,465.505,252.482Z" transform="translate(-395.012 -235.637)"/><path class="at" d="M404.941,249.29a1.564,1.564,0,0,1-1.575.277l-15.468-5.3-.564.553,16.032,5.488c.8.276,1.807-.107,1.655-.636A3.05,3.05,0,0,1,404.941,249.29Z" transform="translate(-387.334 -234.297)"/><path class="au" d="M425.98,248.512c.231-1.659-1.049-3.441-3.423-4.389-3.946-1.577-9.288-.881-11.67,1.454a3.188,3.188,0,0,0-1.092,2.756,3.469,3.469,0,0,1,1.092-2.012c2.382-2.332,7.724-3.031,11.67-1.454C424.579,245.677,425.8,247.087,425.98,248.512Z" transform="translate(-392.186 -234.081)"/></g><path class="av" d="M467.47,263.346c-.957-.013-1.7-3.2-1.654-7.112s.858-7.084,1.816-7.076,1.7,3.2,1.657,7.112S468.43,263.355,467.47,263.346Z" transform="translate(-404.307 -220.909)"/><path class="aw" d="M419.787,249.4c-.958-.009-1.7-3.2-1.654-7.112s.857-7.085,1.815-7.076,1.7,3.2,1.656,7.116S420.746,249.416,419.787,249.4Z" transform="translate(-393.994 -217.894)"/></g><g transform="translate(20.959 63.851)"><path class="ax" d="M378.371,281.448c-3.338-1.925-3.206-5.091.4-6.9a13.632,13.632,0,0,1,10.709.042,4.638,4.638,0,0,1,2.76,3.093c.092.542,1.243.777,1.906.392l13.086-7.554-13.317-7.688c-.865-.5-.328-1.355.885-1.4a10.68,10.68,0,0,0,5.306-1.484c2.677-1.725,2.6-4.4-.179-6.1a12.16,12.16,0,0,0-11.2-.114,4.031,4.031,0,0,0-2.256,2.887c-.075.7-1.558,1.013-2.423.517l-13.319-7.69-33.616,19.408c-1.469.848-1.46,2.23.017,3.083l33.827,19.528,13.1-7.566c.653-.377.258-1.036-.668-1.089A11.4,11.4,0,0,1,378.371,281.448Z" transform="translate(-336.014 -249.451)"/><path class="ay" d="M415.965,262.15a10.68,10.68,0,0,1-5.306,1.484c-1.213.046-1.75.9-.885,1.4l8.1,4.679v-10.1A3.915,3.915,0,0,1,415.965,262.15Z" transform="translate(-351.874 -251.649)"/><path class="az" d="M336.018,276.125h0v.007Z" transform="translate(-336.014 -255.22)"/><g transform="translate(0 20.976)"><path class="ba" d="M405.17,283.9c-.663.385-1.814.15-1.906-.392a4.638,4.638,0,0,0-2.76-3.093,13.632,13.632,0,0,0-10.709-.042c-3.606,1.8-3.738,4.97-.4,6.9a11.4,11.4,0,0,0,5.02,1.368c.569.031.932.292.98.58h0v.007c0,.01,0,.017,0,.027v1.228a12.146,12.146,0,0,1,5.106,1.112,4.634,4.634,0,0,1,2.76,3.093c.092.542,1.243.777,1.906.392l12.532-7.234.554-.118V276.341Z" transform="translate(-347.038 -276.242)"/><path class="bb" d="M337.128,277.73a1.913,1.913,0,0,1-1.112-1.515v10.936l.016,0a1.777,1.777,0,0,0,1.1,1.756l33.827,19.529V297.258Z" transform="translate(-336.014 -276.215)"/><path class="bc" d="M397.717,292.762h0l0,.007Z" transform="translate(-349.358 -279.794)"/><path class="bd" d="M397.717,292.762h0l0,.007Z" transform="translate(-349.358 -279.794)"/><path class="be" d="M393.7,293.28l-13.1,7.566V312.02l13.1-7.563a.547.547,0,0,0,.309-.41h.006v-.067c0-.009,0-.017,0-.027V292.8A.516.516,0,0,1,393.7,293.28Z" transform="translate(-345.656 -279.803)"/><path class="bf" d="M393.7,293.28l-13.1,7.566V312.02l13.1-7.563a.547.547,0,0,0,.309-.41h.006v-.067c0-.009,0-.017,0-.027V292.8A.516.516,0,0,1,393.7,293.28Z" transform="translate(-345.656 -279.803)"/></g><g class="bg" transform="translate(48.357 61.753)"><path class="bh" d="M397.717,328.245h0l0,.007Z" transform="translate(-397.715 -328.245)"/><path class="bi" d="M397.717,328.245h0l0,.007Z" transform="translate(-397.715 -328.245)"/></g><g class="aq" transform="translate(0.004 7.502)"><path class="bj" d="M383.981,289.233l-13.026,7.519-33.827-19.53a2.253,2.253,0,0,1-1.01-1.053c-.287.71.047,1.489,1.01,2.044l33.827,19.532,13.1-7.567C384.548,289.9,384.45,289.458,383.981,289.233Z" transform="translate(-336.019 -262.731)"/><path class="bk" d="M415.966,261.525a10.648,10.648,0,0,1-5.306,1.484c-1.141.043-1.683.808-1.018,1.31a1.774,1.774,0,0,1,1.018-.313,10.666,10.666,0,0,0,5.306-1.488c1.515-.977,2.144-2.259,1.9-3.495A3.936,3.936,0,0,1,415.966,261.525Z" transform="translate(-351.879 -259.023)"/><path class="bl" d="M405.172,283.4c-.663.385-1.814.15-1.906-.392a4.633,4.633,0,0,0-2.76-3.093,13.625,13.625,0,0,0-10.709-.042c-2.107,1.055-3.02,2.573-2.752,4.039a4.591,4.591,0,0,1,2.752-3.046,13.628,13.628,0,0,1,10.709.044,4.62,4.62,0,0,1,2.76,3.092c.092.542,1.243.777,1.906.393l13.086-7.554-.862-.5Z" transform="translate(-347.045 -262.768)"/></g><path class="bm" d="M396.672,287.253c-.77-.009-1.36-3.24-1.315-7.217s.708-7.192,1.479-7.181,1.362,3.237,1.318,7.214S397.444,287.262,396.672,287.253Z" transform="translate(-348.848 -254.512)"/><path class="bn" d="M401.082,277.223c1.844,4.483,1.52,8.869-.723,9.79s-5.554-1.97-7.4-6.455-1.52-8.87.722-9.792S399.239,272.735,401.082,277.223Z" transform="translate(-348.071 -254.024)"/></g><g transform="translate(110.674 62.684)"><path class="bo" d="M479.345,257.982c3.336,1.925,3.208,5.09-.4,6.895a13.626,13.626,0,0,1-10.711-.043,4.611,4.611,0,0,1-2.759-3.093c-.092-.539-1.244-.776-1.906-.392L450.485,268.9l13.316,7.69c.861.5.328,1.357-.883,1.4a10.688,10.688,0,0,0-5.309,1.485c-2.675,1.728-2.594,4.4.179,6.1a12.169,12.169,0,0,0,11.206.115,4.038,4.038,0,0,0,2.253-2.886c.075-.7,1.56-1.017,2.424-.514l13.32,7.688L520.6,270.57c1.469-.846,1.462-2.226-.017-3.08l-33.827-19.529-13.1,7.565c-.655.376-.259,1.035.666,1.088A11.475,11.475,0,0,1,479.345,257.982Z" transform="translate(-450.485 -247.961)"/><path class="bp" d="M479.345,257.982c3.336,1.925,3.208,5.09-.4,6.895a13.626,13.626,0,0,1-10.711-.043,4.611,4.611,0,0,1-2.759-3.093c-.092-.539-1.244-.776-1.906-.392L450.485,268.9l13.316,7.69c.861.5.328,1.357-.883,1.4a10.688,10.688,0,0,0-5.309,1.485c-2.675,1.728-2.594,4.4.179,6.1a12.169,12.169,0,0,0,11.206.115,4.038,4.038,0,0,0,2.253-2.886c.075-.7,1.56-1.017,2.424-.514l13.32,7.688L520.6,270.57c1.469-.846,1.462-2.226-.017-3.08l-33.827-19.529-13.1,7.565c-.655.376-.259,1.035.666,1.088A11.475,11.475,0,0,1,479.345,257.982Z" transform="translate(-450.485 -247.961)"/><path class="bq" d="M485.248,267.1c3.607-1.8,3.735-4.97.4-6.895a11.474,11.474,0,0,0-5.021-1.368c-.592-.033-.963-.315-.984-.611l-.02,0v9.939A12.447,12.447,0,0,0,485.248,267.1Z" transform="translate(-456.786 -250.18)"/><g transform="translate(36.505 21.016)"><path class="br" d="M531.772,285.955l.023,0V274.776l-.023.009a1.825,1.825,0,0,1-1.093,1.585l-33.614,19.409v11.174l33.614-19.408A1.828,1.828,0,0,0,531.772,285.955Z" transform="translate(-497.064 -274.776)"/><path class="bs" d="M531.772,285.955l.023,0V274.776l-.023.009a1.825,1.825,0,0,1-1.093,1.585l-33.614,19.409v11.174l33.614-19.408A1.828,1.828,0,0,0,531.772,285.955Z" transform="translate(-497.064 -274.776)"/></g><path class="bt" d="M457.609,285.256a10.688,10.688,0,0,1,5.309-1.485c1.212-.042,1.745-.9.883-1.4l-13.316-7.69v11.173l5.185,3,.057-.019C455.443,287.573,456.062,286.257,457.609,285.256Z" transform="translate(-450.485 -253.74)"/><path class="bu" d="M479.658,291.7a2.214,2.214,0,0,0-1.489-.2v11.174a2.236,2.236,0,0,1,1.489.194l13.32,7.692V299.385Z" transform="translate(-456.472 -257.367)"/><path class="bv" d="M472.675,292.225a4.038,4.038,0,0,1-2.253,2.886A12.169,12.169,0,0,1,459.216,295a4.18,4.18,0,0,1-2.06-2.522l-.057.019v10.344a3.7,3.7,0,0,0,2.118,3.336,12.171,12.171,0,0,0,11.206.111,4.036,4.036,0,0,0,2.253-2.885c.038-.355.438-.612.935-.712V291.513C473.113,291.614,472.713,291.867,472.675,292.225Z" transform="translate(-451.913 -257.38)"/><path class="bw" d="M472.675,292.225a4.038,4.038,0,0,1-2.253,2.886A12.169,12.169,0,0,1,459.216,295a4.18,4.18,0,0,1-2.06-2.522l-.057.019v10.344a3.7,3.7,0,0,0,2.118,3.336,12.171,12.171,0,0,0,11.206.111,4.036,4.036,0,0,0,2.253-2.885c.038-.355.438-.612.935-.712V291.513C473.113,291.614,472.713,291.867,472.675,292.225Z" transform="translate(-451.913 -257.38)"/><g class="aq" transform="translate(0 8.016)"><path class="bx" d="M463.936,282.957c.394-.306.412-.765-.135-1.083l-12.457-7.192-.86.5,13.316,7.69A1.033,1.033,0,0,1,463.936,282.957Z" transform="translate(-450.485 -261.756)"/><path class="by" d="M480.629,259.322a11.432,11.432,0,0,1,5.021,1.368,4.4,4.4,0,0,1,2.356,2.857c.252-1.371-.528-2.8-2.356-3.851a11.464,11.464,0,0,0-5.021-1.368,1.563,1.563,0,0,1-.588-.139l-.078.045C479.307,258.611,479.7,259.271,480.629,259.322Z" transform="translate(-456.79 -258.189)"/></g><path class="bz" d="M461.271,303.585c-1.01-.01-1.79-3.613-1.74-8.043s.911-8.012,1.921-8,1.792,3.611,1.741,8.042S462.282,303.6,461.271,303.585Z" transform="translate(-452.441 -256.521)"/><g transform="translate(5.177 21.078)"><path class="ca" d="M475.1,291.063c-.864-.5-2.349-.187-2.424.515a4.033,4.033,0,0,1-2.253,2.885,12.166,12.166,0,0,1-11.206-.114,4.121,4.121,0,0,1-2.082-2.6c-.233,1.278.461,2.606,2.082,3.6a12.162,12.162,0,0,0,11.206.114,4.036,4.036,0,0,0,2.253-2.885c.075-.7,1.56-1.015,2.424-.517l13.224,7.637V298.7Z" transform="translate(-457.09 -278.307)"/><path class="cb" d="M530.652,276.883c.952-.545,1.279-1.32.994-2.027a2.23,2.23,0,0,1-.994,1.038L497.038,295.3l-.1-.056v.995l.1.054Z" transform="translate(-465.709 -274.855)"/></g></g><g transform="translate(68.613 92.951)"><path class="cc" d="M449.677,300.891c-2.611,2.249-8.015,2.766-11.8,1.06-3.043-1.373-3.989-4.158-2.064-6.074a8.807,8.807,0,0,1,4.711-2.141c.9-.155,1.07-.852.286-1.153l-15.445-6-10.417,8.98c-.673.582-2.24.44-2.555-.24a5.851,5.851,0,0,0-3.58-2.728c-3.467-1.193-8-.649-10.33,1.24-2.553,2.074-1.613,4.95,2.038,6.369a12.545,12.545,0,0,0,5.351.736c1.209-.088,2.036.694,1.36,1.276L396.817,311.2l39.677,15.418a5.656,5.656,0,0,0,5.233-.584l26.457-22.811-15.465-6.01c-.775-.3-1.818.048-1.718.582A3.3,3.3,0,0,1,449.677,300.891Z" transform="translate(-396.817 -286.581)"/><path class="cd" d="M441.727,330.62a5.656,5.656,0,0,1-5.233.584l-39.677-15.418V326.96l39.677,15.418a5.667,5.667,0,0,0,5.233-.582l26.457-22.816V307.809Z" transform="translate(-396.817 -291.172)"/><path class="ce" d="M405.937,303.755a12.545,12.545,0,0,1-5.351-.736c-2.075-.806-3.27-2.082-3.453-3.415v10.515a3.2,3.2,0,0,0,1.149,2.686l9.014-7.774C407.973,304.448,407.146,303.667,405.937,303.755Z" transform="translate(-396.882 -289.397)"/><path class="cf" d="M451.009,295.583a8.806,8.806,0,0,0-4.711,2.141c-1.925,1.915-.979,4.7,2.064,6.074a11.7,11.7,0,0,0,3.394.907v-9.584A.935.935,0,0,1,451.009,295.583Z" transform="translate(-407.302 -288.428)"/><g class="aq" transform="translate(0 6.542)"><path class="cg" d="M465.984,301.244a.371.371,0,0,0-.026.144C465.967,301.34,465.978,301.292,465.984,301.244Z" transform="translate(-411.77 -296.294)"/><path class="ch" d="M446.3,297.184a3.071,3.071,0,0,0-.949,2.761,3.254,3.254,0,0,1,.949-1.768,8.841,8.841,0,0,1,4.711-2.141c.862-.147,1.045-.786.37-1.108a1.354,1.354,0,0,1-.37.114A8.837,8.837,0,0,0,446.3,297.184Z" transform="translate(-407.303 -294.928)"/><path class="ci" d="M400.584,303.414a12.545,12.545,0,0,0,5.351.736,1.949,1.949,0,0,1,1.312.327l.048-.042c.676-.585-.15-1.366-1.36-1.278a12.474,12.474,0,0,1-5.351-.739c-2.006-.777-3.188-2-3.428-3.282C396.836,300.76,398.064,302.433,400.584,303.414Z" transform="translate(-396.88 -295.838)"/><path class="cj" d="M441.727,330.179a5.67,5.67,0,0,1-5.233.583L397.61,315.656l-.793.683,39.677,15.418a5.663,5.663,0,0,0,5.233-.587l26.457-22.812-.795-.306Z" transform="translate(-396.817 -297.766)"/></g><path class="ck" d="M450.315,348.908c-.628-.009-1.1-3.68-1.048-8.2s.6-8.184,1.233-8.178,1.1,3.679,1.049,8.2S450.943,348.915,450.315,348.908Z" transform="translate(-408.159 -296.517)"/><path class="cl" d="M400.526,309.124c-.629,0-1.111-2.626-1.074-5.846s.577-5.828,1.207-5.823,1.111,2.626,1.074,5.847S401.156,309.132,400.526,309.124Z" transform="translate(-397.387 -288.933)"/><path class="cm" d="M453.88,334.956c1.512,3.675.409,7.614-2.463,8.8s-6.424-.844-7.937-4.522-.407-7.614,2.465-8.8S452.368,331.278,453.88,334.956Z" transform="translate(-406.762 -295.993)"/></g><path class="cn" d="M438.678,358.185a3.288,3.288,0,0,1-1.186-.223L396.7,342.053l.183-.461L437.672,357.5a2.765,2.765,0,0,0,2.8-.471L468,333.653l.321.379-27.53,23.376A3.262,3.262,0,0,1,438.678,358.185Z" transform="translate(-328.179 -203.81)"/><path class="co" d="M455.782,362.661a7.3,7.3,0,1,1-7.3-7.3A7.3,7.3,0,0,1,455.782,362.661Z" transform="translate(-337.8 -208.505)"/><path class="cp" d="M368.53,322.326l-43.155-24.911.251-.43L368.78,321.9Z" transform="translate(-312.754 -195.88)"/><rect class="cq" width="57.733" height="0.498" transform="translate(147.039 125.487) rotate(-30.31)"/><path class="cr" d="M531.821,309.066a7.3,7.3,0,1,1-7.3-7.3A7.3,7.3,0,0,1,531.821,309.066Z" transform="translate(-354.245 -196.914)"/><path class="cs" d="M361.1,312.549a7.3,7.3,0,1,1-7.3-7.3A7.3,7.3,0,0,1,361.1,312.549Z" transform="translate(-317.323 -197.667)"/></g><g transform="translate(4.142)"><g class="a" transform="translate(16.575 109.693)"><path class="ct" d="M463.285,269.935c.665.382,1.815.147,1.908-.395a4.63,4.63,0,0,1,2.76-3.093,13.644,13.644,0,0,1,10.71-.043c3.605,1.806,3.735,4.97.4,6.9a11.48,11.48,0,0,1-5.022,1.368c-.566.031-.93.292-.981.577h0v.008a.123.123,0,0,0,0,.03v-3.737a12.1,12.1,0,0,0-5.1,1.108,4.618,4.618,0,0,0-2.76,3.093c-.092.541-1.243.776-1.908.392l-12.533-7.235-.552-.118v-6.408Z" transform="translate(-360.467 -261.816)"/><path class="cu" d="M530.315,263.766a1.914,1.914,0,0,0,1.112-1.516v5.974l-.016-.009a1.776,1.776,0,0,1-1.1,1.756L496.489,289.5v-6.208Z" transform="translate(-370.477 -261.788)"/><path class="cv" d="M479.681,279.32l13.1,7.564v6.208l-13.1-7.567a.549.549,0,0,1-.313-.407h-.005v-.067a.1.1,0,0,1,0-.027v-6.179A.527.527,0,0,0,479.681,279.32Z" transform="translate(-366.773 -265.377)"/><path class="cw" d="M335.729,267.872l-.024,0V261.66l.024.008a1.832,1.832,0,0,0,1.093,1.585l33.617,19.408v6.208l-33.617-19.41A1.818,1.818,0,0,1,335.729,267.872Z" transform="translate(-335.705 -261.66)"/><path class="cx" d="M393.34,278.577a2.2,2.2,0,0,1,1.49-.194v6.206a2.22,2.22,0,0,0-1.49.2l-13.316,7.688v-6.208Z" transform="translate(-345.29 -265.266)"/><path class="cy" d="M399.852,279.108a4.013,4.013,0,0,0,2.253,2.882,12.143,12.143,0,0,0,11.2-.114,4.164,4.164,0,0,0,2.062-2.519l.057.018v5.377a3.7,3.7,0,0,1-2.119,3.335,12.176,12.176,0,0,1-11.2.114,4.032,4.032,0,0,1-2.253-2.885c-.038-.357-.44-.613-.936-.715V278.4C399.411,278.5,399.813,278.75,399.852,279.108Z" transform="translate(-349.375 -265.279)"/><path class="cz" d="M415.663,316.764a5.671,5.671,0,0,0,5.234.585l39.678-15.418v6.206L420.9,323.557a5.669,5.669,0,0,1-5.234-.586l-26.458-22.813v-6.206Z" transform="translate(-347.275 -268.644)"/><path class="da" d="M474.889,295.5c2.071-.8,3.268-2.081,3.451-3.413v5.55a3.193,3.193,0,0,1-1.15,2.686l-4.477-2.963C472.033,296.771,473.248,296.135,474.889,295.5Z" transform="translate(-365.294 -268.24)"/><path class="db" d="M425.744,329.977c.822-.009,1.462-2.321,1.43-5.166s-.723-5.14-1.545-5.13-1.462,2.321-1.43,5.166S424.925,329.987,425.744,329.977Z" transform="translate(-354.843 -274.208)"/></g><path class="dc" d="M321.315,180.8c0,32.641,43.247,59.1,96.595,59.1S514.5,213.438,514.5,180.8s-43.248-59.1-96.594-59.1S321.315,148.158,321.315,180.8Z" transform="translate(-316.018 -121.698)"/><path class="dd" d="M314.556,258.526c0,32.638,43.246,59.1,96.6,59.1s96.593-26.461,96.593-59.1-43.246-59.1-96.593-59.1S314.556,225.889,314.556,258.526Z" transform="translate(-314.556 -138.508)"/><g transform="translate(7.269 53.967)"><path class="m" d="M511.239,250.158,405.263,299.815l-81.432-58.2,90.112-51.055Z" transform="translate(-323.831 -190.557)"/><path class="n" d="M509.32,249.4l-103.4,49.057-80.031-57.2,88.562-50.176Z" transform="translate(-324.277 -190.669)"/><path class="o" d="M507.4,248.642,406.581,297.1l-78.63-56.2,87.012-49.3Z" transform="translate(-324.722 -190.782)"/><path class="p" d="M505.48,247.884l-98.24,47.855-77.229-55.2,85.46-48.42Z" transform="translate(-325.168 -190.895)"/><path class="q" d="M503.56,247.126,407.9,294.38l-75.828-54.2,83.91-47.541Z" transform="translate(-325.613 -191.008)"/><path class="r" d="M501.64,246.368l-93.083,46.653-74.428-53.2,82.36-46.663Z" transform="translate(-326.058 -191.12)"/><path class="s" d="M499.72,245.61l-90.5,46.052L336.19,239.468,417,193.684Z" transform="translate(-326.504 -191.233)"/><path class="t" d="M497.8,244.852,409.876,290.3l-71.626-51.193L417.509,194.2Z" transform="translate(-326.949 -191.345)"/><path class="u" d="M495.88,244.095l-85.346,44.85-70.226-50.191,77.709-44.028Z" transform="translate(-327.395 -191.458)"/><path class="v" d="M493.961,243.336l-82.767,44.25L342.369,238.4l76.157-43.15Z" transform="translate(-327.84 -191.571)"/><path class="w" d="M492.041,242.579l-80.188,43.649-67.424-48.188,74.608-42.272Z" transform="translate(-328.286 -191.684)"/><path class="x" d="M490.121,241.82l-77.609,43.048-66.023-47.186,73.057-41.393Z" transform="translate(-328.731 -191.796)"/></g><g transform="translate(65.619 35.374)"><path class="de" d="M451.267,193.269c-2.382-2.334-7.724-3.031-11.671-1.453-3.17,1.268-4.392,4.023-2.659,6a8.145,8.145,0,0,0,4.484,2.3c.884.182.985.885.172,1.161l-16.012,5.483-9.5-9.317a1.966,1.966,0,0,0-2.574.157,6.436,6.436,0,0,1-3.846,2.607c-3.577,1.078-8.05.379-10.185-1.583-2.341-2.154-1.121-4.995,2.666-6.291a12.781,12.781,0,0,1,5.414-.561c1.2.13,2.1-.625,1.484-1.228l-9.5-9.317L440.67,167.14c1.794-.615,4.108-.276,5.165.758l24.135,23.658-16.031,5.489c-.8.275-1.808-.11-1.658-.636A3.115,3.115,0,0,0,451.267,193.269Z" transform="translate(-398.283 -166.834)"/><path class="df" d="M407.9,195.737a12.782,12.782,0,0,0-5.414.561,8.66,8.66,0,0,0-1.808.85l-.8-.781V185.192l9.5,9.317C410,195.113,409.1,195.867,407.9,195.737Z" transform="translate(-398.629 -170.804)"/><path class="dg" d="M398.345,203.408a3.466,3.466,0,0,0,1.132,1.87c2.136,1.962,6.608,2.661,10.185,1.583a6.437,6.437,0,0,0,3.846-2.607,1.965,1.965,0,0,1,2.574-.157l9.5,9.317,16.012-5.483c.813-.276.712-.979-.172-1.161a8.146,8.146,0,0,1-4.484-2.3c-1.733-1.976-.511-4.731,2.659-6,3.948-1.578,9.29-.881,11.671,1.453a3.115,3.115,0,0,1,1.013,3.141c-.15.526.856.911,1.658.636l16.031-5.489v11.174L453.94,214.88c-.8.275-1.808-.107-1.658-.64a3.11,3.11,0,0,0-1.013-3.137c-1.9-1.865-5.7-2.679-9.159-2.129V218.4c.1.258-.055.549-.516.7l-16.012,5.485-9.5-9.312a1.961,1.961,0,0,0-2.574.154,6.429,6.429,0,0,1-3.846,2.605c-3.577,1.079-8.05.382-10.185-1.582a3.066,3.066,0,0,1-1.132-2.908Z" transform="translate(-398.285 -173.493)"/><path class="dh" d="M419.165,216.558V205.384a1.886,1.886,0,0,1,1.431.39l9.5,9.317v11.172l-9.5-9.312A1.88,1.88,0,0,0,419.165,216.558Z" transform="translate(-402.799 -175.169)"/><g transform="translate(0.007 24.133)"><path class="di" d="M420.553,219.861a.423.423,0,0,1,.062.024A.423.423,0,0,0,420.553,219.861Z" transform="translate(-403.106 -202.435)"/><path class="dj" d="M420.145,219.717a.275.275,0,0,1,.031.006A.219.219,0,0,0,420.145,219.717Z" transform="translate(-403.018 -202.404)"/><path class="dk" d="M449.126,207.932c.813-.276.712-.979-.172-1.161a8.145,8.145,0,0,1-4.484-2.3c-1.733-1.976-.511-4.727,2.659-6,3.948-1.578,9.29-.881,11.671,1.453a3.122,3.122,0,0,1,1.013,3.141c-.15.526.856.911,1.658.636l16.031-5.489v11.174l-16.031,5.489c-.8.275-1.808-.107-1.658-.64A3.117,3.117,0,0,0,458.8,211.1c-1.9-1.865-5.7-2.679-9.159-2.129V218.4c.1.258-.055.549-.516.7l-16.012,5.485V213.415Z" transform="translate(-405.822 -197.626)"/><path class="dl" d="M398.345,215.142V205a3.466,3.466,0,0,0,1.132,1.87c2.136,1.962,6.608,2.661,10.185,1.583a6.427,6.427,0,0,0,3.846-2.607,1.852,1.852,0,0,1,1.911-.488,2.351,2.351,0,0,0-.768-.058v11.174a1.44,1.44,0,0,0-1.143.547,6.419,6.419,0,0,1-3.846,2.605c-3.577,1.079-8.05.382-10.185-1.582A3.065,3.065,0,0,1,398.345,215.142Z" transform="translate(-398.291 -199.222)"/><path class="dm" d="M420.632,205.632a1.159,1.159,0,0,1,.281.2A1.159,1.159,0,0,0,420.632,205.632Z" transform="translate(-403.123 -199.358)"/><path class="dn" d="M420.185,205.467a1.682,1.682,0,0,1,.288.107A1.455,1.455,0,0,0,420.185,205.467Z" transform="translate(-403.026 -199.322)"/></g><g transform="translate(37.864 24.133)"><path class="do" d="M468.879,205.479h0Z" transform="translate(-451.403 -199.324)"/><path class="dp" d="M470.78,203.469l14.868-5.09h0Z" transform="translate(-451.826 -197.789)"/><path class="dq" d="M468.459,205.492l.02,0Z" transform="translate(-451.324 -199.327)"/><path class="dr" d="M469.209,219.532l1.163-.4-1.163.4a1.715,1.715,0,0,1-.315.074A1.715,1.715,0,0,0,469.209,219.532Z" transform="translate(-451.418 -202.278)"/><path class="ds" d="M468.751,219.736a2.557,2.557,0,0,1-.267.014A1.8,1.8,0,0,0,468.751,219.736Z" transform="translate(-451.329 -202.408)"/><path class="dt" d="M467.748,219.6V219.6C467.77,219.608,467.779,219.614,467.748,219.6Z" transform="translate(-451.17 -202.377)"/><path class="du" d="M454.23,224.23a.493.493,0,0,1,0,.147Z" transform="translate(-448.247 -203.38)"/><path class="dv" d="M452.579,207.483c.082-.287-.161-.6-.71-.712a8.145,8.145,0,0,1-4.484-2.3c-1.733-1.976-.511-4.727,2.659-6,3.948-1.578,9.29-.881,11.671,1.453a3.122,3.122,0,0,1,1.013,3.141c-.073.255.127.476.444.607v11.168c-.1-.05-.534-.289-.444-.6a3.117,3.117,0,0,0-1.013-3.137c-1.9-1.863-5.682-2.677-9.137-2.132Z" transform="translate(-446.595 -197.626)"/></g><g class="aq" transform="translate(0.007 14.443)"><path class="dw" d="M409.425,194.818c-.014-.015-.024-.031-.04-.046l-9.5-9.317.566-.193,8.937,8.764A.528.528,0,0,1,409.425,194.818Z" transform="translate(-398.636 -185.262)"/><path class="dx" d="M399.477,206.2c2.136,1.962,6.608,2.658,10.185,1.582a6.426,6.426,0,0,0,3.846-2.606,1.964,1.964,0,0,1,2.574-.156l9.5,9.315,16.012-5.482a1.03,1.03,0,0,0,.346-.194c.358.289.262.734-.346.939l-16.012,5.482-9.5-9.315a1.968,1.968,0,0,0-2.574.155,6.426,6.426,0,0,1-3.846,2.607c-3.577,1.075-8.05.381-10.185-1.581a3.122,3.122,0,0,1-1.158-2.759A3.441,3.441,0,0,0,399.477,206.2Z" transform="translate(-398.292 -189.355)"/><path class="dy" d="M467.258,203.01a1.564,1.564,0,0,0,1.576.278l15.466-5.294.565.552-16.031,5.489c-.8.272-1.808-.109-1.658-.638A2.856,2.856,0,0,0,467.258,203.01Z" transform="translate(-413.186 -188.016)"/><path class="dz" d="M446.621,202.237c-.23-1.666,1.05-3.446,3.423-4.394,3.948-1.578,9.29-.879,11.671,1.453a3.2,3.2,0,0,1,1.093,2.757,3.5,3.5,0,0,0-1.093-2.014c-2.382-2.332-7.724-3.03-11.671-1.451C448.024,199.4,446.8,200.806,446.621,202.237Z" transform="translate(-408.738 -187.799)"/></g><path class="ea" d="M408.655,217.066c.959-.011,1.7-3.2,1.656-7.114s-.859-7.085-1.818-7.071-1.7,3.195-1.654,7.112S407.694,217.074,408.655,217.066Z" transform="translate(-400.133 -174.63)"/><path class="eb" d="M456.337,203.125c.959-.013,1.7-3.2,1.657-7.115s-.857-7.084-1.817-7.073-1.7,3.2-1.655,7.113S455.379,203.134,456.337,203.125Z" transform="translate(-410.445 -171.614)"/></g><g transform="translate(106.309 63.852)"><path class="ec" d="M479.062,235.165c3.336-1.924,3.206-5.086-.4-6.894a13.63,13.63,0,0,0-10.71.042,4.618,4.618,0,0,0-2.76,3.095c-.092.539-1.243.774-1.908.39L450.2,224.247l13.317-7.688c.863-.5.327-1.358-.885-1.4a10.721,10.721,0,0,1-5.306-1.485c-2.678-1.728-2.6-4.405.178-6.1a12.169,12.169,0,0,1,11.2-.115,4.025,4.025,0,0,1,2.255,2.888c.075.7,1.558,1.014,2.422.512L486.7,203.17l33.616,19.41c1.47.846,1.462,2.225-.017,3.079l-33.826,19.53-13.1-7.565c-.653-.379-.259-1.038.665-1.089A11.439,11.439,0,0,0,479.062,235.165Z" transform="translate(-450.201 -203.17)"/><path class="ed" d="M458.767,215.87a10.721,10.721,0,0,0,5.306,1.485c1.212.043,1.748.9.885,1.4l-8.1,4.676v-10.1A3.91,3.91,0,0,0,458.767,215.87Z" transform="translate(-451.64 -205.368)"/><path class="do" d="M541.067,229.847h0v0Z" transform="translate(-469.852 -208.939)"/><g transform="translate(0 20.974)"><path class="ee" d="M463.285,237.614c.665.385,1.815.15,1.908-.389a4.618,4.618,0,0,1,2.76-3.095,13.631,13.631,0,0,1,10.71-.042c3.605,1.807,3.735,4.97.4,6.894a11.44,11.44,0,0,1-5.022,1.371c-.566.033-.93.293-.981.578l0,0v.01a.123.123,0,0,0,0,.03v1.226a12.2,12.2,0,0,0-5.1,1.112,4.622,4.622,0,0,0-2.76,3.093c-.092.541-1.243.774-1.908.393l-12.533-7.237-.552-.115V230.063Z" transform="translate(-450.201 -229.96)"/><path class="ef" d="M530.315,231.447a1.909,1.909,0,0,0,1.112-1.515v10.939l-.016-.007a1.78,1.78,0,0,1-1.1,1.757l-33.826,19.53V250.977Z" transform="translate(-460.212 -229.932)"/><path class="eg" d="M479.363,246.476l0,0,0,.007Z" transform="translate(-456.508 -233.51)"/><path class="eh" d="M479.363,246.476l0,0,0,.007Z" transform="translate(-456.508 -233.51)"/><path class="ei" d="M479.681,247l13.1,7.565V265.74l-13.1-7.565a.557.557,0,0,1-.313-.41h-.005V257.7a.1.1,0,0,1,0-.027V246.527A.523.523,0,0,0,479.681,247Z" transform="translate(-456.508 -233.521)"/><path class="ej" d="M479.681,247l13.1,7.565V265.74l-13.1-7.565a.557.557,0,0,1-.313-.41h-.005V257.7a.1.1,0,0,1,0-.027V246.527A.523.523,0,0,0,479.681,247Z" transform="translate(-456.508 -233.521)"/></g><g class="bg" transform="translate(22.855 61.753)"><path class="ek" d="M479.363,281.964h0l0,.009Z" transform="translate(-479.363 -281.964)"/><path class="el" d="M479.363,281.964h0l0,.009Z" transform="translate(-479.363 -281.964)"/></g><g class="aq" transform="translate(0 7.501)"><path class="em" d="M479.757,242.952l13.027,7.519,33.826-19.529a2.262,2.262,0,0,0,1.012-1.051c.287.708-.049,1.488-1.012,2.044l-33.826,19.53-13.1-7.564C479.191,243.618,479.29,243.176,479.757,242.952Z" transform="translate(-456.506 -216.45)"/><path class="en" d="M458.755,215.243a10.641,10.641,0,0,0,5.306,1.488c1.142.04,1.68.8,1.018,1.308a1.752,1.752,0,0,0-1.018-.314,10.672,10.672,0,0,1-5.306-1.488c-1.516-.977-2.145-2.26-1.9-3.5A3.921,3.921,0,0,0,458.755,215.243Z" transform="translate(-451.628 -212.741)"/><path class="eo" d="M463.285,237.12c.665.382,1.815.147,1.908-.392a4.618,4.618,0,0,1,2.76-3.095,13.61,13.61,0,0,1,10.71-.041c2.107,1.053,3.019,2.571,2.752,4.037a4.587,4.587,0,0,0-2.752-3.044,13.613,13.613,0,0,0-10.71.041,4.615,4.615,0,0,0-2.76,3.095c-.092.539-1.243.774-1.908.39L450.2,230.557l.861-.494Z" transform="translate(-450.201 -216.487)"/></g><path class="ep" d="M479.639,240.972c.77-.008,1.361-3.238,1.317-7.216s-.709-7.194-1.481-7.184-1.362,3.241-1.317,7.217S478.866,240.981,479.639,240.972Z" transform="translate(-456.247 -208.231)"/><path class="eq" d="M473.1,230.939c-1.843,4.488-1.52,8.875.724,9.8s5.554-1.97,7.4-6.456,1.519-8.873-.726-9.793S474.944,226.454,473.1,230.939Z" transform="translate(-454.895 -207.743)"/></g><g transform="translate(16.575 62.682)"><path class="er" d="M378.087,211.7c-3.336,1.927-3.207,5.093.4,6.9a13.634,13.634,0,0,0,10.711-.04,4.627,4.627,0,0,0,2.758-3.093c.094-.545,1.243-.777,1.905-.4l13.088,7.554-13.32,7.689c-.861.5-.325,1.357.887,1.4a10.71,10.71,0,0,1,5.307,1.481c2.674,1.728,2.594,4.407-.18,6.1a12.171,12.171,0,0,1-11.2.111,4.02,4.02,0,0,1-2.253-2.885c-.076-.7-1.56-1.013-2.426-.515L370.445,243.7l-33.617-19.407c-1.467-.851-1.462-2.229.017-3.083l33.827-19.531,13.1,7.565c.657.377.258,1.039-.664,1.089A11.478,11.478,0,0,0,378.087,211.7Z" transform="translate(-335.711 -201.677)"/><path class="es" d="M378.087,211.7c-3.336,1.927-3.207,5.093.4,6.9a13.634,13.634,0,0,0,10.711-.04,4.627,4.627,0,0,0,2.758-3.093c.094-.545,1.243-.777,1.905-.4l13.088,7.554-13.32,7.689c-.861.5-.325,1.357.887,1.4a10.71,10.71,0,0,1,5.307,1.481c2.674,1.728,2.594,4.407-.18,6.1a12.171,12.171,0,0,1-11.2.111,4.02,4.02,0,0,1-2.253-2.885c-.076-.7-1.56-1.013-2.426-.515L370.445,243.7l-33.617-19.407c-1.467-.851-1.462-2.229.017-3.083l33.827-19.531,13.1,7.565c.657.377.258,1.039-.664,1.089A11.478,11.478,0,0,0,378.087,211.7Z" transform="translate(-335.711 -201.677)"/><path class="et" d="M389.51,220.814c-3.607-1.8-3.735-4.968-.4-6.9a11.478,11.478,0,0,1,5.022-1.368c.592-.032.962-.312.983-.611l.019,0v9.941A12.487,12.487,0,0,1,389.51,220.814Z" transform="translate(-346.734 -203.896)"/><g transform="translate(0 21.019)"><path class="eu" d="M335.729,239.674l-.024,0V228.5l.024.01a1.831,1.831,0,0,0,1.093,1.585L370.439,249.5v11.174l-33.617-19.41A1.818,1.818,0,0,1,335.729,239.674Z" transform="translate(-335.705 -228.496)"/><path class="ev" d="M335.729,239.674l-.024,0V228.5l.024.01a1.831,1.831,0,0,0,1.093,1.585L370.439,249.5v11.174l-33.617-19.41A1.818,1.818,0,0,1,335.729,239.674Z" transform="translate(-335.705 -228.496)"/></g><path class="ew" d="M415.683,238.974a10.71,10.71,0,0,0-5.307-1.481c-1.212-.046-1.748-.9-.887-1.4l13.32-7.689v11.174l-5.186,3-.057-.015C417.85,241.292,417.23,239.976,415.683,238.974Z" transform="translate(-351.571 -207.456)"/><path class="ex" d="M393.34,245.415a2.239,2.239,0,0,1,1.49-.2v11.173a2.239,2.239,0,0,0-1.49.2l-13.316,7.688V253.1Z" transform="translate(-345.29 -211.083)"/><path class="ey" d="M399.852,245.943a4.02,4.02,0,0,0,2.253,2.885,12.171,12.171,0,0,0,11.2-.111,4.176,4.176,0,0,0,2.062-2.521l.057.015v10.345a3.707,3.707,0,0,1-2.119,3.336,12.169,12.169,0,0,1-11.2.111,4.022,4.022,0,0,1-2.253-2.884c-.038-.354-.44-.611-.936-.714V245.231C399.411,245.334,399.813,245.588,399.852,245.943Z" transform="translate(-349.375 -211.096)"/><path class="ez" d="M399.852,245.943a4.02,4.02,0,0,0,2.253,2.885,12.171,12.171,0,0,0,11.2-.111,4.176,4.176,0,0,0,2.062-2.521l.057.015v10.345a3.707,3.707,0,0,1-2.119,3.336,12.169,12.169,0,0,1-11.2.111,4.022,4.022,0,0,1-2.253-2.884c-.038-.354-.44-.611-.936-.714V245.231C399.411,245.334,399.813,245.588,399.852,245.943Z" transform="translate(-349.375 -211.096)"/><g class="aq" transform="translate(39.976 8.017)"><path class="fa" d="M409.355,236.679c-.393-.307-.411-.77.135-1.084l12.459-7.195.861.5-13.32,7.689A1.338,1.338,0,0,0,409.355,236.679Z" transform="translate(-391.547 -215.473)"/><path class="fb" d="M394.135,213.041a11.456,11.456,0,0,0-5.022,1.367,4.4,4.4,0,0,0-2.354,2.859c-.253-1.371.527-2.8,2.354-3.852a11.521,11.521,0,0,1,5.022-1.368,1.566,1.566,0,0,0,.588-.14l.076.045C395.455,212.328,395.056,212.99,394.135,213.041Z" transform="translate(-386.712 -211.906)"/></g><path class="fc" d="M414.8,257.3c1.012-.009,1.791-3.611,1.742-8.043s-.911-8.01-1.924-8-1.789,3.609-1.739,8.04S413.789,257.317,414.8,257.3Z" transform="translate(-352.395 -210.238)"/><g transform="translate(0.023 21.078)"><path class="fd" d="M393.366,244.782c.867-.5,2.35-.187,2.426.516a4.024,4.024,0,0,0,2.253,2.884,12.155,12.155,0,0,0,11.2-.115,4.113,4.113,0,0,0,2.084-2.6c.233,1.279-.461,2.605-2.084,3.6a12.157,12.157,0,0,1-11.2.114,4.022,4.022,0,0,1-2.253-2.886c-.076-.7-1.56-1.013-2.426-.514l-13.222,7.635v-.992Z" transform="translate(-345.339 -232.025)"/><path class="fe" d="M336.828,230.6c-.951-.547-1.28-1.319-.994-2.029a2.226,2.226,0,0,0,.994,1.038l33.617,19.406.094-.051v.992l-.094.053Z" transform="translate(-335.735 -228.572)"/></g></g><g transform="translate(58.505 92.953)"><path class="ff" d="M407.716,254.61c2.609,2.249,8.013,2.766,11.8,1.06,3.043-1.37,3.988-4.158,2.061-6.074a8.816,8.816,0,0,0-4.708-2.144c-.9-.152-1.072-.848-.288-1.151l15.444-6,10.417,8.979c.674.582,2.24.439,2.556-.24a5.871,5.871,0,0,1,3.583-2.729c3.466-1.194,8-.646,10.329,1.241,2.553,2.072,1.615,4.951-2.037,6.369a12.553,12.553,0,0,1-5.355.736c-1.205-.086-2.032.7-1.357,1.281l10.417,8.978L420.9,280.335a5.673,5.673,0,0,1-5.234-.584l-26.458-22.814,15.468-6.01c.771-.3,1.814.048,1.716.582A3.3,3.3,0,0,0,407.716,254.61Z" transform="translate(-389.205 -240.301)"/><path class="fg" d="M415.663,284.341a5.673,5.673,0,0,0,5.234.584l39.678-15.42v11.176L420.9,296.1a5.671,5.671,0,0,1-5.234-.585L389.205,272.7V261.527Z" transform="translate(-389.205 -244.892)"/><path class="fh" d="M468.268,257.473a12.553,12.553,0,0,0,5.355-.736c2.071-.806,3.268-2.082,3.451-3.412v10.512a3.187,3.187,0,0,1-1.15,2.686l-9.013-7.769C466.236,258.17,467.062,257.387,468.268,257.473Z" transform="translate(-405.958 -243.118)"/><path class="fi" d="M424.295,249.3A8.816,8.816,0,0,1,429,251.444c1.926,1.916.981,4.7-2.061,6.074a11.647,11.647,0,0,1-3.394.906V248.84A.915.915,0,0,0,424.295,249.3Z" transform="translate(-396.632 -242.148)"/><g class="aq" transform="translate(0 6.539)"><path class="fj" d="M411.094,254.959a.4.4,0,0,1,.024.149C411.11,255.059,411.1,255.008,411.094,254.959Z" transform="translate(-393.939 -250.011)"/><path class="fk" d="M428.991,250.9a3.077,3.077,0,0,1,.955,2.763,3.244,3.244,0,0,0-.955-1.768,8.813,8.813,0,0,0-4.705-2.14c-.865-.147-1.049-.788-.372-1.111a1.312,1.312,0,0,0,.372.115A8.832,8.832,0,0,1,428.991,250.9Z" transform="translate(-396.622 -248.645)"/><path class="fl" d="M473.623,257.133a12.529,12.529,0,0,1-5.355.736,1.952,1.952,0,0,0-1.31.327l-.047-.042c-.676-.582.151-1.364,1.357-1.278a12.553,12.553,0,0,0,5.355-.736c2.006-.778,3.184-2,3.426-3.282C477.369,254.48,476.141,256.152,473.623,257.133Z" transform="translate(-405.958 -249.556)"/><path class="fm" d="M415.663,283.894a5.665,5.665,0,0,0,5.234.587l38.883-15.108.8.685L420.9,285.475a5.674,5.674,0,0,1-5.234-.587l-26.458-22.811.8-.306Z" transform="translate(-389.205 -251.484)"/></g><path class="fn" d="M426.138,302.629c.631-.008,1.1-3.682,1.048-8.2s-.6-8.185-1.234-8.176-1.1,3.679-1.049,8.2S425.509,302.636,426.138,302.629Z" transform="translate(-396.925 -250.238)"/><path class="fo" d="M475.927,262.843c.631,0,1.111-2.624,1.074-5.846s-.575-5.828-1.207-5.823-1.108,2.627-1.075,5.85S475.3,262.849,475.927,262.843Z" transform="translate(-407.699 -242.653)"/><path class="fp" d="M419.96,288.675c-1.512,3.676-.408,7.614,2.463,8.793s6.425-.843,7.937-4.521.408-7.613-2.465-8.794S421.471,284.995,419.96,288.675Z" transform="translate(-395.71 -249.712)"/></g><path class="fq" d="M418.642,311.9a3.293,3.293,0,0,0,1.187-.223l40.792-15.91-.181-.462-40.792,15.907a2.756,2.756,0,0,1-2.795-.467l-27.529-23.379-.321.379,27.529,23.378A3.265,3.265,0,0,0,418.642,311.9Z" transform="translate(-330.657 -157.528)"/><path class="fr" d="M417.277,316.383a7.3,7.3,0,1,0,7.3-7.3A7.3,7.3,0,0,0,417.277,316.383Z" transform="translate(-336.771 -162.223)"/><rect class="fs" width="49.83" height="0.496" transform="translate(142.461 126.02) rotate(-29.999)"/><path class="ft" d="M366.116,274.221l.25-.429L316.552,244.61l-.253.429Z" transform="translate(-314.933 -148.28)"/><path class="fu" d="M341.234,262.783a7.3,7.3,0,1,0,7.3-7.3A7.3,7.3,0,0,0,341.234,262.783Z" transform="translate(-320.326 -150.632)"/><path class="fv" d="M511.956,266.27a7.3,7.3,0,1,0,7.3-7.3A7.3,7.3,0,0,0,511.956,266.27Z" transform="translate(-357.247 -151.386)"/></g></g><g transform="translate(55.473 0)"><path class="fw" d="M465.3,88.72c4.758-2.9,13.472,4.173,9.389,15.494s-12.412,22.51-4.224,32.854c6.65,8.4,13.556,10.929,13.556,10.929s-46.237,7.636-42.172-25.211A44.116,44.116,0,0,1,465.3,88.72Z" transform="translate(-393.362 -60.568)"/><path class="fx" d="M462.651,160.712c-6.324-5.327-18.339-11.991-32.216-18.984-10.593-5.338-22.3-6.22-31.551,0-4.858,3.266-7.585,9.3-7.585,15.321a21.432,21.432,0,0,1-3.185,11.982c-2.654,4.323-4.521,7.42-5.916,10.012-4.246,7.887-2.124,15.927,5.765,20.932,6.821,4.329,33.941,18.8,42.168,20.933a49.115,49.115,0,0,0,11.266,1.4c11.158.9,30.371-4.109,30.371-10.623C471.768,206.936,472.976,169.409,462.651,160.712Z" transform="translate(-380.052 -71.234)"/><path class="fy" d="M459.392,162.8c-2.276,9.453-15.742,14.316-30.08,10.863s-24.117-13.909-21.841-23.361,15.742-14.316,30.078-10.864S461.665,153.354,459.392,162.8Z" transform="translate(-385.91 -71.438)"/><g transform="translate(32.049 136.723)"><path class="fz" d="M427,230.949c-1.964-1.141-4-2.321-6.057-3.519C423,228.625,425.037,229.81,427,230.949Z" transform="translate(-420.944 -227.43)"/></g><g class="ga" transform="translate(32.049 136.723)"><path class="gb" d="M427,230.949c-1.964-1.141-4-2.321-6.057-3.519C423,228.625,425.037,229.81,427,230.949Z" transform="translate(-420.944 -227.43)"/></g><path class="gc" d="M423.172,138.757c-3.837,1.279-6.948,7.416-6.522,14.965.512,9.081,3.325,12.152,3.325,12.152l8.315-12.152,4.941,15.469a50.859,50.859,0,0,0,12.454-6.9c5.7-4.584,9.21-9.465,6.649-13.539C449.26,143.862,428.088,137.119,423.172,138.757Z" transform="translate(-387.958 -71.476)"/><path class="gd" d="M477.856,165.594c-5.948,1.344-13.366,7.484-14.581,18.867-1.125,10.556-.574,35.879-.574,35.879s-3.986-33.307.19-43.746c4.477-11.192,12.472-12.472,12.472-12.472Z" transform="translate(-397.555 -77.016)"/><path class="ge" d="M433.957,173.134l-4.942-15.469L420.7,169.817l-.736-1.952,9.018-11.128,6.043,15.925Z" transform="translate(-388.684 -75.419)"/><path class="gf" d="M404.422,82.333c-1.949,8.413-1.569,33.569,4.761,38.94,5.01,4.252,9.5,1.448,9.814,7.626s-2.292,6.757,1.493,9.467c3.625,2.6,24.5.718,24-5.9-.473-6.214-1.861-8.431,1.022-14.2S456.731,103.235,455.494,95,411.322,52.573,404.422,82.333Z" transform="translate(-385.098 -56.743)"/><path class="gg" d="M405.721,86.069s-1.792,17.523.766,24.557,17.526-9.337,19.188-15.988S421.068,81.976,405.721,86.069Z" transform="translate(-385.471 -59.846)"/><path class="gh" d="M403.73,79.175s-7.423-4.132,7.157-17.614c12.8-11.834,35.343-12.31,46.786,4.128,11.236,16.145,4.746,33.437-3.286,41.653a97.6,97.6,0,0,1-9.946,9.015s2.654-7.993,4.956-10.913c3.356-4.263,5.789-9.9,3.2-13.165-1.446-1.817-3.709-2.8-6.857.345-5.219,5.219-12.287-14.276-27.7-12.624C406.807,81.2,407.06,80.453,403.73,79.175Z" transform="translate(-384.764 -52.979)"/><path class="gi" d="M426.417,140.664a15.354,15.354,0,0,1-5.369-.711c1.018.622,1.665,1.67,1.77,3.778.309,6.179-2.292,6.757,1.493,9.467,1.3.935,4.883,1.468,8.907,1.463,5.862-5.921,5.4-15.7,5.4-15.7A94.681,94.681,0,0,1,426.417,140.664Z" transform="translate(-388.918 -71.575)"/><path class="gj" d="M466.877,68.8c-.36-.516-.758-.962-1.137-1.444-3.515,1.386-7.123,3.825-8.9,8.159-2.169,5.284-7.7,10.77-12.439,14.776,4.619,4.195,7.833,8.154,10.543,5.443,3.148-3.147,5.411-2.162,6.857-.343,2.589,3.261.156,8.9-3.2,13.163-2.3,2.922-4.956,10.913-4.956,10.913a97.6,97.6,0,0,0,9.946-9.015C471.623,102.236,478.113,84.944,466.877,68.8Z" transform="translate(-393.968 -56.088)"/><path class="gk" d="M460.67,111.59s4.51-4.7,2.877-7.1-4.412,1.248-4.412,1.248Z" transform="translate(-397.155 -63.943)"/><path class="gl" d="M442.725,209.246s-8.191,18.808-36.709,8.645c-17.785-6.337-23.081-16.962-24.67-25.017-3.015,7.282-.658,14.483,6.621,19.1,6.821,4.329,33.941,18.8,42.168,20.933a49.116,49.116,0,0,0,11.266,1.4,35.69,35.69,0,0,0,3.587.1C441.452,223.963,442.725,209.246,442.725,209.246Z" transform="translate(-380.055 -83.234)"/><path class="gm" d="M454.721,95.063a44.815,44.815,0,0,0,.672-8.445c0-9.938-6.875-25.031-22.118-26.377s-20.763,3.041-20.763,3.041,5.221-9.391,24.125-7.076c17.458,2.139,23.05,21.028,22.791,29.068a92.1,92.1,0,0,1-.893,10.966Z" transform="translate(-387.072 -53.598)"/><g transform="translate(55.483 33.967)"><path class="gn" d="M450.845,111.162c0,2.469.851,4.217,2.236,5.063.041.024,2.365,1.466,2.407,1.489,1.441.806.52-1.02,2.708-2.284,4.4-2.542,7.971-8.7,7.971-13.75,0-2.5,2.31-2.517.9-3.352-.038-.023-2.641-1.508-2.68-1.529-1.437-.779-3.4-.636-5.563.615C454.414,99.956,450.845,106.11,450.845,111.162Z" transform="translate(-450.845 -96.319)"/><path class="go" d="M454.173,113.146c0,5.053,3.569,7.088,7.972,4.546s7.971-8.7,7.971-13.75-3.57-7.087-7.971-4.545S454.173,108.095,454.173,113.146Z" transform="translate(-451.565 -96.748)"/><path class="gp" d="M461.655,99.153c2.112-1.219,4.029-1.382,5.456-.668a6.266,6.266,0,0,0-4.766.938c-4.4,2.54-7.972,8.7-7.972,13.747,0,2.631.97,4.441,2.518,5.216-1.947-.544-3.206-2.482-3.206-5.482C453.685,107.852,457.253,101.694,461.655,99.153Z" transform="translate(-451.459 -96.695)"/></g><g transform="translate(61.55 39.951)"><path class="gq" d="M458.586,112.9a3.372,3.372,0,0,0,1.348,3.051c.024.016,2.94,1.757,2.964,1.771.867.484.313-.618,1.632-1.379a10.58,10.58,0,0,0,4.8-8.285c0-1.506,1.392-1.516.541-2.021-.026-.013-3.108-1.781-3.13-1.794a3.429,3.429,0,0,0-3.355.372A10.583,10.583,0,0,0,458.586,112.9Z" transform="translate(-458.586 -103.955)"/><path class="gr" d="M462.523,115.21c0,3.044,2.152,4.271,4.8,2.739a10.586,10.586,0,0,0,4.805-8.287c0-3.043-2.151-4.27-4.805-2.738A10.589,10.589,0,0,0,462.523,115.21Z" transform="translate(-459.437 -104.454)"/><path class="gs" d="M467.033,106.776a3.478,3.478,0,0,1,3.288-.4,3.783,3.783,0,0,0-2.872.567,10.58,10.58,0,0,0-4.8,8.284,3.268,3.268,0,0,0,1.517,3.144c-1.174-.328-1.932-1.5-1.932-3.3A10.589,10.589,0,0,1,467.033,106.776Z" transform="translate(-459.374 -104.423)"/></g><path class="gt" d="M418.043,86.09c14.322-1.535,21.436,15.179,26.56,13.364a69.622,69.622,0,0,1-8.809-9.329c-5.119-6.826-11.946-7.054-22.3-7.054-6.433,0-9.656-.573-11.642-1.931a4.4,4.4,0,0,0,1.879,4.125C407.061,86.543,406.809,87.3,418.043,86.09Z" transform="translate(-384.765 -59.07)"/><path class="gu" d="M420.94,133.915a33.821,33.821,0,0,1-7.181-.754l.426-1.77c.085.021,8.738,2.034,15.715-.907,6.533-2.748,14.717-11.006,14.8-11.087l1.3,1.275c-.345.353-8.528,8.6-15.389,11.491A25.187,25.187,0,0,1,420.94,133.915Z" transform="translate(-387.341 -67.343)"/><path class="gv" d="M420.555,132.853a33.318,33.318,0,0,1-7.181-.758l.425-1.769c.085.025,8.739,2.033,15.715-.9,6.533-2.752,14.716-11.007,14.8-11.088l1.3,1.277c-.345.347-8.528,8.6-15.389,11.49A25.2,25.2,0,0,1,420.555,132.853Z" transform="translate(-387.258 -67.113)"/><path class="gv" d="M414.164,136.216a1.812,1.812,0,0,1-.4-.044l-3.922-.831a1.9,1.9,0,0,1,.788-3.721l3.922.832a1.9,1.9,0,0,1-.392,3.764Z" transform="translate(-386.169 -69.978)"/><path class="gw" d="M455.525,93.739a45.028,45.028,0,0,0,.676-8.489c0-9.99-6.911-25.163-22.234-26.518s-20.875,3.058-20.875,3.058,5.249-9.444,24.253-7.115c17.552,2.151,23.172,21.14,22.911,29.223a92,92,0,0,1-.9,11.023Z" transform="translate(-387.197 -53.266)"/><path class="gx" d="M456.388,94.927a46.521,46.521,0,0,0,1.016-9.355c0-9.99-7.513-25.391-22.837-26.743-11.853-1.045-18.158,1.362-20.415,2.511a8.532,8.532,0,0,0-1.059,1.37s5.549-4.407,20.875-3.054S456.2,76.183,456.2,86.173a44.926,44.926,0,0,1-.678,8.489Z" transform="translate(-387.197 -54.189)"/></g></svg>