<svg xmlns="http://www.w3.org/2000/svg" width="24.997" height="21.486" viewBox="0 0 24.997 21.486"><defs><style>.a{fill:#03f87e;}</style></defs><g transform="translate(0)"><path class="a" d="M-76.233,155.088a.834.834,0,0,1-.852.6q-5.786-.013-11.571,0a.736.736,0,0,1-.736-.511.915.915,0,0,1,.106-.911.719.719,0,0,1,.63-.3c1.436.006,2.872,0,4.307,0,2.406,0,4.812.008,7.218-.007a.856.856,0,0,1,.9.6Z" transform="translate(101.229 -151.441)"/><path class="a" d="M-76.224,174.874a.825.825,0,0,1-.851.6q-5.772-.011-11.545,0a.8.8,0,0,1-.824-.862.781.781,0,0,1,.731-.856c.748-.007,1.5,0,2.245,0,3.115,0,6.23.005,9.345-.007a.857.857,0,0,1,.9.6Z" transform="translate(101.22 -159.243)"/><path class="a" d="M-104.213,149.8c.929,0,1.856,0,2.784,0a1.808,1.808,0,0,1,1.83,1.833q.007,2.81,0,5.62a1.811,1.811,0,0,1-1.833,1.832q-2.81.006-5.621,0a1.809,1.809,0,0,1-1.83-1.833q-.006-2.81,0-5.621a1.81,1.81,0,0,1,1.833-1.83C-106.1,149.8-105.159,149.8-104.213,149.8Zm2.9,4.618q0-1.275,0-2.549c0-.316-.031-.35-.344-.35h-5.15c-.319,0-.354.033-.354.342,0,1.726,0,3.451,0,5.176,0,.253.094.335.342.334,1.707-.007,3.415,0,5.123,0,.346,0,.386-.042.386-.4Q-101.316,155.7-101.317,154.422Z" transform="translate(108.886 -149.803)"/><path class="a" d="M-99.595,174.607c0,.928,0,1.856,0,2.784a1.821,1.821,0,0,1-1.835,1.833q-2.81.005-5.62,0a1.812,1.812,0,0,1-1.832-1.833q-.006-2.811,0-5.621a1.811,1.811,0,0,1,1.834-1.831q2.81-.007,5.62,0a1.815,1.815,0,0,1,1.831,1.835c0,.946,0,1.891,0,2.837Zm-4.673,2.9h2.6c.317,0,.352-.034.352-.343q0-2.574,0-5.147c0-.328-.031-.359-.363-.359H-106.8c-.334,0-.365.03-.365.357q0,2.573,0,5.147c0,.312.033.345.349.345Z" transform="translate(108.886 -157.74)"/><path class="a" d="M-84.167,160.9c-1.479,0-2.958,0-4.437,0a.828.828,0,0,1-.835-.723.847.847,0,0,1,.6-.958,1.133,1.133,0,0,1,.31-.035q4.358,0,8.717,0a.845.845,0,0,1,.921.858.838.838,0,0,1-.914.861q-2.179,0-4.358,0Z" transform="translate(101.222 -153.499)"/><path class="a" d="M-84.151,179.31c1.471,0,2.942,0,4.413,0a.831.831,0,0,1,.816.621.864.864,0,0,1-.366.964.839.839,0,0,1-.473.131q-4.414,0-8.827,0a.838.838,0,0,1-.855-.871.824.824,0,0,1,.852-.843C-87.111,179.307-85.631,179.31-84.151,179.31Z" transform="translate(101.22 -161.437)"/></g></svg>