<svg xmlns="http://www.w3.org/2000/svg" width="189" height="40" viewBox="0 0 189 40"><defs><style>.a,.c,.d{fill:#0c0022;}.a{stroke:rgba(214,198,244,0.2);}.b{fill:#03f87e;}.d{opacity:0.998;}.e,.g{stroke:none;}.f{fill:none;}.g{fill:rgba(214,198,244,0.2);}</style></defs><g transform="translate(0)"><g transform="translate(0 0)"><g class="a" transform="translate(0 0)"><circle class="e" cx="20" cy="20" r="20"/><circle class="f" cx="20" cy="20" r="19.5"/></g><path class="b" d="M1.939,18.742H5.822V9.37H8.411l.343-3.229H5.822l0-1.617c0-.842.08-1.294,1.292-1.294H8.736V0H6.145C3.033,0,1.939,1.567,1.939,4.2V6.141H0v3.23H1.939Z" transform="translate(15.949 10.816)"/></g><g transform="translate(49.655 0)"><g class="c" transform="translate(0.345 0)"><path class="e" d="M19.5,0A19.755,19.755,0,0,1,39,20,19.755,19.755,0,0,1,19.5,40,19.755,19.755,0,0,1,0,20,19.755,19.755,0,0,1,19.5,0Z"/><path class="g" d="M 19.5 1 C 14.56327056884766 1 9.920669555664063 2.973148345947266 6.427421569824219 6.555961608886719 C 4.726039886474609 8.300960540771484 3.390159606933594 10.3332405090332 2.456878662109375 12.59634017944336 C 1.490169525146484 14.94051933288574 1 17.43147087097168 1 20 C 1 22.56852912902832 1.490169525146484 25.05947875976563 2.456878662109375 27.40365982055664 C 3.390159606933594 29.6667594909668 4.726039886474609 31.69903945922852 6.427421569824219 33.44403839111328 C 9.920669555664063 37.02685165405273 14.56327056884766 39 19.5 39 C 24.43672943115234 39 29.07933044433594 37.02685165405273 32.57257843017578 33.44403839111328 C 34.27396011352539 31.69903945922852 35.60984039306641 29.6667594909668 36.54312133789063 27.40365982055664 C 37.50983047485352 25.05947875976563 38 22.56852912902832 38 20 C 38 17.43147087097168 37.50983047485352 14.94051933288574 36.54312133789063 12.59634017944336 C 35.60984039306641 10.3332405090332 34.27396011352539 8.300960540771484 32.57257843017578 6.555961608886719 C 29.07933044433594 2.973148345947266 24.43672943115234 1 19.5 1 M 19.5 0 C 30.26955032348633 0 39 8.954299926757813 39 20 C 39 31.04570007324219 30.26955032348633 40 19.5 40 C 8.730449676513672 40 0 31.04570007324219 0 20 C 0 8.954299926757813 8.730449676513672 0 19.5 0 Z"/></g><path class="b" d="M2309.042,216.9a3.945,3.945,0,0,0-2.664,3.968l.04.675-.683-.083a11.126,11.126,0,0,1-6.5-3.2l-.9-.9-.231.661a3.976,3.976,0,0,0,.848,4.08c.547.578.423.661-.518.317a1.614,1.614,0,0,0-.644-.151,4.947,4.947,0,0,0,.492,1.847,4.418,4.418,0,0,0,1.872,1.764l.67.317-.793.012c-.765,0-.792.014-.71.3a4.129,4.129,0,0,0,2.555,2.26l.847.289-.738.441a7.661,7.661,0,0,1-3.663,1.019,4.025,4.025,0,0,0-1.121.111,10.481,10.481,0,0,0,2.637,1.212,11.554,11.554,0,0,0,8.963-1.02,11.97,11.97,0,0,0,4.551-5.348,14.191,14.191,0,0,0,.929-4.133c0-.635.041-.717.805-1.474a9.124,9.124,0,0,0,.956-1.061c.138-.262.123-.262-.573-.028-1.161.414-1.324.359-.751-.261a4.009,4.009,0,0,0,.929-1.474c0-.041-.2.028-.437.151a7.454,7.454,0,0,1-1.2.468l-.738.235-.669-.456a5.551,5.551,0,0,0-1.162-.606A4.673,4.673,0,0,0,2309.042,216.9Z" transform="translate(-2286.044 -204.901)"/></g><g transform="translate(100.02 0)"><g class="a" transform="translate(-0.019 0)"><circle class="e" cx="20" cy="20" r="20"/><circle class="f" cx="20" cy="20" r="19.5"/></g><path class="b" d="M2352.166,215.929h-12.207a2,2,0,0,0-2.035,2.029v12.175a2,2,0,0,0,2.035,2.03h12.206a2,2,0,0,0,2.035-2.03V217.959A2,2,0,0,0,2352.166,215.929Zm-6.091,4.928a3.16,3.16,0,1,1-3.267,3.158A3.214,3.214,0,0,1,2346.074,220.857Zm6.091,8.77c0,.356-.152.508-.508.508h-11.191c-.355,0-.508-.152-.508-.508v-7.1l1.269.275a4.7,4.7,0,0,0-.21,1.392,5.06,5.06,0,0,0,10.115,0,4.685,4.685,0,0,0-.21-1.392l1.244-.275v7.1Zm0-9.132a.508.508,0,0,1-.508.507h-2.035a.509.509,0,0,1-.509-.507v-2.029a.509.509,0,0,1,.509-.508h2.035a.508.508,0,0,1,.508.508Z" transform="translate(-2326.298 -204.117)"/></g><g transform="translate(149.675 0)"><g class="d" transform="translate(0.326 0)"><path class="e" d="M19.5,0A19.755,19.755,0,0,1,39,20,19.755,19.755,0,0,1,19.5,40,19.755,19.755,0,0,1,0,20,19.755,19.755,0,0,1,19.5,0Z"/><path class="g" d="M 19.5 1 C 14.56327056884766 1 9.920669555664063 2.973148345947266 6.427421569824219 6.555961608886719 C 4.726039886474609 8.300960540771484 3.390159606933594 10.3332405090332 2.456878662109375 12.59634017944336 C 1.490169525146484 14.94051933288574 1 17.43147087097168 1 20 C 1 22.56852912902832 1.490169525146484 25.05947875976563 2.456878662109375 27.40365982055664 C 3.390159606933594 29.6667594909668 4.726039886474609 31.69903945922852 6.427421569824219 33.44403839111328 C 9.920669555664063 37.02685165405273 14.56327056884766 39 19.5 39 C 24.43672943115234 39 29.07933044433594 37.02685165405273 32.57257843017578 33.44403839111328 C 34.27396011352539 31.69903945922852 35.60984039306641 29.6667594909668 36.54312133789063 27.40365982055664 C 37.50983047485352 25.05947875976563 38 22.56852912902832 38 20 C 38 17.43147087097168 37.50983047485352 14.94051933288574 36.54312133789063 12.59634017944336 C 35.60984039306641 10.3332405090332 34.27396011352539 8.300960540771484 32.57257843017578 6.555961608886719 C 29.07933044433594 2.973148345947266 24.43672943115234 1 19.5 1 M 19.5 0 C 30.26955032348633 0 39 8.954299926757813 39 20 C 39 31.04570007324219 30.26955032348633 40 19.5 40 C 8.730449676513672 40 0 31.04570007324219 0 20 C 0 8.954299926757813 8.730449676513672 0 19.5 0 Z"/></g><g transform="translate(10.975 9.049)"><path class="b" d="M2471.2,227.59a.41.41,0,0,0-.355.145.791.791,0,0,0-.106.472v.531h.917v-.531a.778.778,0,0,0-.11-.472A.394.394,0,0,0,2471.2,227.59Z" transform="translate(-2456.475 -212.57)"/><path class="b" d="M2468.048,227.573a.493.493,0,0,0-.219.051.762.762,0,0,0-.216.16v3.279a.909.909,0,0,0,.248.186.573.573,0,0,0,.25.056.328.328,0,0,0,.277-.112.578.578,0,0,0,.091-.362v-2.717a.639.639,0,0,0-.11-.4A.388.388,0,0,0,2468.048,227.573Z" transform="translate(-2456.894 -212.573)"/><path class="b" d="M2475.077,224.067c-.854-.848-8.03-.86-8.03-.86s-7.177.01-8.031.858-.856,5.046-.856,5.07,0,4.221.856,5.071,8.031.866,8.031.866,7.177-.018,8.03-.866.866-5.071.866-5.071C2475.943,229.113,2475.931,224.917,2475.077,224.067Zm-11.443,2.473h-1.208v6.1h-1.168v-6.1h-1.211V225.5h3.586v1.036Zm3.416,6.095h-1.036v-.578a2.2,2.2,0,0,1-.6.487,1.248,1.248,0,0,1-.6.167.641.641,0,0,1-.542-.235,1.153,1.153,0,0,1-.181-.7v-4.4h1.036v4.036a.46.46,0,0,0,.064.271.255.255,0,0,0,.213.084.57.57,0,0,0,.29-.112,1.421,1.421,0,0,0,.321-.282v-4h1.036Zm3.764-1.087a1.319,1.319,0,0,1-.244.857.855.855,0,0,1-.705.3,1.2,1.2,0,0,1-.542-.114,1.353,1.353,0,0,1-.443-.356v.4h-1.048V225.5h1.048v2.3a1.557,1.557,0,0,1,.444-.365,1.02,1.02,0,0,1,.48-.126.893.893,0,0,1,.751.335,1.584,1.584,0,0,1,.26.984Zm3.6-1.416h-1.983v.989a1.162,1.162,0,0,0,.1.577.384.384,0,0,0,.351.16.426.426,0,0,0,.361-.136,1.129,1.129,0,0,0,.1-.6v-.24h1.067v.271a1.712,1.712,0,0,1-.39,1.22,1.533,1.533,0,0,1-1.164.407,1.414,1.414,0,0,1-1.1-.433,1.685,1.685,0,0,1-.4-1.193v-2.363a1.5,1.5,0,0,1,.44-1.115,1.552,1.552,0,0,1,1.136-.431,1.447,1.447,0,0,1,1.094.4,1.593,1.593,0,0,1,.381,1.147v1.342Z" transform="translate(-2458.159 -213.144)"/><path class="b" d="M2471.54,221.928h-1.168v-.64a2.44,2.44,0,0,1-.672.538,1.438,1.438,0,0,1-.675.185.726.726,0,0,1-.61-.259,1.232,1.232,0,0,1-.207-.777v-4.844h1.166v4.444a.479.479,0,0,0,.076.3.282.282,0,0,0,.237.093.669.669,0,0,0,.326-.122,1.58,1.58,0,0,0,.359-.312v-4.4h1.168v5.8Z" transform="translate(-2456.815 -214.072)"/><path class="b" d="M2467.311,216.423a1.7,1.7,0,0,0-1.189-.422,1.893,1.893,0,0,0-1.266.4,1.328,1.328,0,0,0-.472,1.073v3a1.55,1.55,0,0,0,.46,1.176,1.711,1.711,0,0,0,1.226.437,1.771,1.771,0,0,0,1.252-.423,1.522,1.522,0,0,0,.452-1.166v-2.995A1.4,1.4,0,0,0,2467.311,216.423Zm-.728,4.165a.485.485,0,0,1-.14.366.525.525,0,0,1-.376.133.464.464,0,0,1-.356-.13.515.515,0,0,1-.126-.369v-3.158a.391.391,0,0,1,.134-.308.512.512,0,0,1,.348-.116.575.575,0,0,1,.374.116.38.38,0,0,1,.142.308Z" transform="translate(-2457.327 -214.089)"/><path class="b" d="M2461.735,214.31h-1.325l1.564,4.743v3.112h1.316v-3.259l1.529-4.6h-1.337l-.811,3.139h-.083Z" transform="translate(-2457.859 -214.31)"/></g></g></g></svg>