<svg xmlns="http://www.w3.org/2000/svg" width="44" height="25.643" viewBox="0 0 44 25.643"><defs><style>.a{fill:#cdc6db;}.b{fill:#03f87e;}.c{fill:#ff4376;}</style></defs><g transform="translate(-22 -561)"><path class="a" d="M144.389,70.069h9.266a9.863,9.863,0,0,0,6.749-3.187,2.421,2.421,0,0,1,3.874.013,9.729,9.729,0,0,0,6.714,3.172h8.493a4.466,4.466,0,0,0,4.451-4.453V59.066a4.447,4.447,0,0,0-1.9-3.641l-.08-.056.011-.1a.6.6,0,0,0-.246-.552L169.1,45.859a8.675,8.675,0,0,0-3.793-1.432,1.869,1.869,0,0,0-1.954,1.74c0,.039,0,.079,0,.118-.172,1.794-.228,5.058.65,6.025a1.013,1.013,0,0,0,.765.357,1.345,1.345,0,0,0,.964-.5,7.037,7.037,0,0,0,1.023-1.52,6.126,6.126,0,0,1,.361-.612l.095-.144.142.1a3.351,3.351,0,0,1,.585.541c1.071,1.177,2.337,2.72,3.211,3.808l.218.271H152.251l.218-.271c.711-.883,2.071-2.552,3.215-3.81a3.739,3.739,0,0,1,.577-.538l.142-.1.1.147a6.3,6.3,0,0,1,.362.613,7.063,7.063,0,0,0,1.018,1.517,1.342,1.342,0,0,0,.982.5,1.021,1.021,0,0,0,.752-.351c.881-.97.824-4.235.652-6.011a1.861,1.861,0,0,0-1.85-1.876c-.039,0-.079,0-.116,0a8.6,8.6,0,0,0-3.8,1.436l-12.61,8.855a.594.594,0,0,0-.227.676l.008.051v.08l-.064.061a4.425,4.425,0,0,0-1.673,3.476v6.548A4.467,4.467,0,0,0,144.389,70.069ZM168.826,49.72l-.013-.017a2.354,2.354,0,0,0-1.635-.994c-.749,0-1.123.694-1.485,1.366a6.98,6.98,0,0,1-.693,1.1l-.224.292-.072-.363a14.6,14.6,0,0,1-.151-4.693c.061-.648.33-.776.775-.776a7.469,7.469,0,0,1,3.089,1.223l11.042,7.753H172.9l-.051-.064C172.081,53.56,170.244,51.279,168.826,49.72Zm-13.644-2.854a7.489,7.489,0,0,1,3.081-1.227h.008c.534,0,.736.2.793.779a14.559,14.559,0,0,1-.154,4.69l-.072.366-.226-.3a7.051,7.051,0,0,1-.688-1.111c-.359-.662-.735-1.353-1.5-1.353a2.343,2.343,0,0,0-1.616.99c-1.474,1.621-3.317,3.929-4.043,4.848l-.051.063h-6.57Zm-14.039,12.2a3.254,3.254,0,0,1,3.245-3.245h35.1a3.254,3.254,0,0,1,3.245,3.245v6.548a3.255,3.255,0,0,1-3.245,3.247h-8.5a8.343,8.343,0,0,1-5.767-2.717,3.577,3.577,0,0,0-5.751-.013,8.452,8.452,0,0,1-5.8,2.741h-9.275a3.251,3.251,0,0,1-3.245-3.256Z" transform="translate(-117.936 516.574)"/><path class="b" d="M2.8,0H9.294a4.671,4.671,0,0,1,4.671,4.671v0a2.8,2.8,0,0,1-2.8,2.8H2.8A2.8,2.8,0,0,1,0,4.671V2.8A2.8,2.8,0,0,1,2.8,0Z" transform="translate(62.068 582.688) rotate(-180)"/><path class="c" d="M2.8,0h8.36a2.8,2.8,0,0,1,2.8,2.8v0A4.671,4.671,0,0,1,9.294,7.474H2.8A2.8,2.8,0,0,1,0,4.671V2.8A2.8,2.8,0,0,1,2.8,0Z" transform="translate(26.28 575.214)"/></g></svg>