<svg xmlns="http://www.w3.org/2000/svg" width="13" height="15" viewBox="0 0 13 15"><defs><style>.a{fill:#fff;}</style></defs><path class="a" d="M313.646,428.034h-4.039v-.712a.7.7,0,0,0-.7-.7h-2.811a.7.7,0,0,0-.7.7v.712h-4.039a.353.353,0,1,0,0,.706h.655l.447,11.613a1.315,1.315,0,0,0,1.319,1.267h7.449a1.315,1.315,0,0,0,1.319-1.267l.447-11.613h.656a.353.353,0,1,0,0-.706Zm-7.547-.707h2.8v.707h-2.8Zm5.737,13a.61.61,0,0,1-.613.589h-7.449a.611.611,0,0,1-.613-.589l-.446-11.586h9.567Z" transform="translate(-301 -426.621)"/><path class="a" d="M310.294,445.417h.007a.368.368,0,0,0,.361-.374l-.116-6a.367.367,0,0,0-.368-.36h-.007a.368.368,0,0,0-.361.375l.116,6A.367.367,0,0,0,310.294,445.417Z" transform="translate(-306.181 -433.866)"/><path class="a" d="M316.247,445.417a.367.367,0,0,0,.368-.368v-6a.368.368,0,1,0-.735,0v6A.367.367,0,0,0,316.247,445.417Z" transform="translate(-309.748 -433.866)"/><path class="a" d="M322.041,445.417h.007a.367.367,0,0,0,.368-.36l.116-6a.368.368,0,0,0-.735-.014l-.115,6A.368.368,0,0,0,322.041,445.417Z" transform="translate(-313.16 -433.865)"/></svg>