<svg xmlns="http://www.w3.org/2000/svg" width="43.867" height="43.867" viewBox="0 0 43.867 43.867"><defs><style>.a,.d{fill:none;}.a{stroke:#fff;opacity:0.3;}.b{fill:#9e8cc0;}.c{stroke:none;}</style></defs><g transform="translate(-290 -40)"><g transform="translate(290 40)"><g class="a" transform="translate(0)"><circle class="c" cx="21.934" cy="21.934" r="21.934"/><circle class="d" cx="21.934" cy="21.934" r="21.434"/></g></g><path class="b" d="M89.457,85.88h.157l7.56-1.645a.744.744,0,0,0,.392-.2l12.808-12.808a4.936,4.936,0,0,0,1.449-3.525,5.092,5.092,0,0,0-1.449-3.564,4.935,4.935,0,0,0-3.525-1.449h0a4.818,4.818,0,0,0-3.525,1.488L90.553,76.989a.7.7,0,0,0-.235.353L88.673,84.9a.862.862,0,0,0,.235.744A.783.783,0,0,0,89.457,85.88ZM108.18,71.191,97.016,82.316,92.2,77.537l11.163-11.163Zm-1.332-6.933h0a3.408,3.408,0,0,1,3.408,3.408c0,.013,0,.026,0,.039a3.29,3.29,0,0,1-.979,2.389l-4.818-4.857A3.368,3.368,0,0,1,106.848,64.258ZM91.572,79.1l3.878,3.878-4.975,1.1Z" transform="translate(212.02 -12.013)"/></g></svg>