<svg xmlns="http://www.w3.org/2000/svg" width="47" height="47" viewBox="0 0 47 47"><defs><style>.a{opacity:0.5;}.b{fill:#fff;}</style></defs><g transform="translate(-0.777 0.141)"><rect class="a" width="47" height="47" rx="4" transform="translate(0.777 -0.141)"/><g transform="translate(8.365 8.045)"><path class="b" d="M26.741,6l3.967,3.967L25.73,14.936l2.446,2.446L33.145,12.4l3.967,3.967V6ZM6,16.371,9.967,12.4l4.969,4.978,2.446-2.446L12.4,9.967,16.371,6H6ZM16.371,37.112,12.4,33.145l4.978-4.969L14.936,25.73,9.967,30.708,6,26.741V37.112ZM37.112,26.741l-3.967,3.967L28.176,25.73,25.73,28.176l4.978,4.969-3.967,3.967H37.112Z" transform="translate(-6 -6)"/></g></g></svg>