<svg xmlns="http://www.w3.org/2000/svg" xmlns:xlink="http://www.w3.org/1999/xlink" width="54.65" height="54.65" viewBox="0 0 54.65 54.65"><defs><style>.a{fill:none;}.b{fill:#6904b2;}.c{fill:#440284;opacity:0.63;}.d{fill:#77f5f7;}.e{fill:#1c0477;}.f{fill:#ff5082;}.g{fill:#d10554;}.h{clip-path:url(#a);}.aa,.i{fill:#bc84f7;}.i{opacity:0.35;}.j{fill:#3b0377;opacity:0.51;}.k{fill:#4e048e;}.l{fill:#fefefe;}.m{fill:#ddd8d0;}.n{fill:#ffe25a;}.o{fill:#ffdf8f;}.p{fill:#f90;}.q{fill:#20a8ec;}.r{fill:#61c9f7;}.s{fill:#06c;}.t{fill:#20a8f0;}.u{fill:#ffc927;}.v{fill:#25a0f9;}.w{fill:#261a91;}.x,.y{fill:#acd5f9;}.y{stroke-linecap:round;stroke-linejoin:round;opacity:0.53;}.z{fill:#fafafc;}.aa{opacity:0.52;}.ab{fill:#03f87e;}.ac{fill:#83fcbd;}.ad,.ae{stroke:none;}.ae{fill:#1c0477;}</style><clipPath id="a"><circle class="a" cx="27.325" cy="27.325" r="27.325"/></clipPath></defs><path class="b" d="M27.325,0A27.325,27.325,0,1,1,0,27.325,27.325,27.325,0,0,1,27.325,0Z" transform="translate(0)"/><path class="c" d="M2002.8,406.173l-20.371-6.73a.564.564,0,0,1-.147-1l6.846-4.8a2.491,2.491,0,0,1,2.212-.326L2011.568,400a.564.564,0,0,1,.147,1l-6.966,4.886A2.2,2.2,0,0,1,2002.8,406.173Z" transform="translate(-1977.664 -365.488)"/><g transform="translate(4.757 26.017)"><path class="d" d="M2005.108,404a2.47,2.47,0,0,1-.993-.207l-19.662-8.584a.847.847,0,0,1-.082-1.512l7.26-4.149a2.773,2.773,0,0,1,2.486-.134l19.528,8.525a.848.848,0,0,1,.081,1.513l-7.387,4.221A2.489,2.489,0,0,1,2005.108,404Z" transform="translate(-1983.661 -388.897)"/><path class="e" d="M1992.482,388.937a2.49,2.49,0,0,1,1,.208l19.529,8.525a.564.564,0,0,1,.054,1.007l-7.387,4.221a2.2,2.2,0,0,1-1.971.106l-19.663-8.583a.564.564,0,0,1-.055-1.007l7.26-4.149a2.492,2.492,0,0,1,1.236-.328m0-.566h0a3.063,3.063,0,0,0-1.517.4l-7.26,4.149a1.131,1.131,0,0,0,.109,2.018l19.662,8.583a2.767,2.767,0,0,0,2.479-.133l7.388-4.222a1.131,1.131,0,0,0-.109-2.018l-19.528-8.525a3.035,3.035,0,0,0-1.223-.255Z" transform="translate(-1983.135 -388.371)"/></g><g transform="translate(5.204 24.868)"><path class="f" d="M2005.861,400.357a2.418,2.418,0,0,1-.971-.2l-19.166-8.367a.833.833,0,0,1-.081-1.487l7.077-4.044a2.712,2.712,0,0,1,2.431-.131l19.035,8.31a.833.833,0,0,1,.08,1.487l-7.2,4.115A2.433,2.433,0,0,1,2005.861,400.357Z" transform="translate(-1984.941 -385.616)"/><path class="e" d="M1993.54,385.656a2.425,2.425,0,0,1,.972.2l19.035,8.31a.55.55,0,0,1,.053.982l-7.2,4.115a2.144,2.144,0,0,1-1.922.1L1985.311,391a.55.55,0,0,1-.053-.982l7.077-4.044a2.424,2.424,0,0,1,1.2-.32m0-.567h0a3,3,0,0,0-1.487.395l-7.077,4.044a1.116,1.116,0,0,0,.107,1.992l19.166,8.367a2.711,2.711,0,0,0,2.43-.131l7.2-4.115a1.116,1.116,0,0,0-.107-1.992l-19.035-8.31a2.978,2.978,0,0,0-1.2-.25Z" transform="translate(-1984.415 -385.089)"/></g><path class="g" d="M2007.7,401.125,1993.27,394.9a.55.55,0,0,1-.053-.981l6.891-4.23a2.429,2.429,0,0,1,2.177-.117l14.48,6.358a.55.55,0,0,1,.053.982l-7.2,4.115A2.145,2.145,0,0,1,2007.7,401.125Z" transform="translate(-1984.752 -363)"/><g transform="translate(9.57 27.111)"><line class="f" y1="1.239" x2="2.039" transform="translate(0.283 0.283)"/><path class="e" d="M1997.173,393.3a.283.283,0,0,1-.148-.526l2.038-1.239a.283.283,0,1,1,.294.484l-2.038,1.239A.284.284,0,0,1,1997.173,393.3Z" transform="translate(-1996.89 -391.498)"/></g><g transform="translate(27.89 35.078)"><ellipse class="g" cx="1.238" cy="0.732" rx="1.238" ry="0.732" transform="translate(0.283 0.283)"/><path class="e" d="M2050.767,414.831c.527,0,.955.2.955.449s-.428.449-.955.449-.954-.2-.954-.449.427-.449.954-.449m0-.566c-.9,0-1.521.418-1.521,1.016s.625,1.015,1.521,1.015,1.521-.418,1.521-1.015-.625-1.016-1.521-1.016Z" transform="translate(-2049.246 -414.265)"/></g><g class="h" transform="translate(0)"><path class="i" d="M1993.36,332.6c-4.008-1.691-6.589,2.537-6.589,2.537s-2.63-4.2-6.618-2.461-3.483,8-.065,10.462c2.247,1.616,6.755,4.639,6.755,4.639s4.473-3.074,6.7-4.716C1996.935,340.568,1997.368,334.3,1993.36,332.6Z" transform="translate(-1974.599 -325.987)"/><path class="j" d="M2076.487,328.125c-5.8-2.45-9.543,3.675-9.543,3.675s-3.809-6.082-9.585-3.565-5.045,11.593-.094,15.152c3.255,2.341,9.784,6.718,9.784,6.718s6.477-4.452,9.7-6.829C2081.665,339.659,2082.292,330.577,2076.487,328.125Z" transform="translate(-2023.838 -322.967)"/><ellipse class="k" cx="10.601" cy="3.6" rx="10.601" ry="3.6" transform="translate(33.269 41.067)"/></g><g transform="translate(35.584 34.792)"><path class="l" d="M2076.149,419.727a1.21,1.21,0,0,1-.591-.155l-3.668-2.064a1.212,1.212,0,0,1-.461-1.648l.768-1.364a.284.284,0,0,1,.344-.127l1.425.522a.284.284,0,0,1,.149.4l-.452.8a.187.187,0,0,0,.071.253l1.855,1.044a.187.187,0,0,0,.252-.07l.7-1.241a.283.283,0,0,1,.344-.127l1.425.522a.283.283,0,0,1,.149.4l-1.252,2.225a1.214,1.214,0,0,1-1.057.616Z" transform="translate(-2070.991 -414.068)"/><path class="e" d="M2071.917,414.107l1.425.522-.452.805a.47.47,0,0,0,.178.639l1.856,1.044a.47.47,0,0,0,.638-.179l.7-1.24,1.425.522-1.251,2.225a.929.929,0,0,1-1.263.353l-3.667-2.064a.929.929,0,0,1-.353-1.263l.768-1.364m0-.566a.566.566,0,0,0-.494.289l-.768,1.365a1.5,1.5,0,0,0,.569,2.034l3.668,2.064a1.495,1.495,0,0,0,2.033-.569l1.252-2.225a.567.567,0,0,0-.3-.81l-1.425-.522a.566.566,0,0,0-.689.254l-.65,1.155-1.685-.948.405-.721a.567.567,0,0,0-.3-.809l-1.425-.522a.565.565,0,0,0-.2-.035Z" transform="translate(-2070.464 -413.541)"/></g><path class="m" d="M2085.946,419.706l-.583,1.035.382.139,1.042.383.583-1.035Z" transform="translate(-2044.566 -382.756)"/><path class="m" d="M2072.953,416.2l.381.139,1.115.409a.448.448,0,0,1,.058-.256l.452-.805-1.425-.522Z" transform="translate(-2036.498 -379.801)"/><path class="m" d="M2085.363,420.741l.382.139,1.042.383.583-1.035-1.425-.522Z" transform="translate(-2044.566 -382.756)"/><path class="m" d="M2072.953,416.2l.381.139,1.115.409a.448.448,0,0,1,.058-.256l.452-.805-1.425-.522Z" transform="translate(-2036.498 -379.801)"/><g transform="translate(33.917 25.02)"><path class="n" d="M2076.792,399.491a.276.276,0,0,1-.1-.017l-1.677-.616-5.767-2.113-2.553-.936a.283.283,0,0,1,.009-.535c6.888-2.266,6.42-8.286,6.4-8.541a.284.284,0,0,1,.181-.29.29.29,0,0,1,.1-.019.282.282,0,0,1,.227.114l6.339,8.476a.279.279,0,0,1,.056.175,5.023,5.023,0,0,1-3.1,4.278A.282.282,0,0,1,2076.792,399.491Z" transform="translate(-2066.227 -386.14)"/><path class="e" d="M2072.858,386.18l6.339,8.476a4.781,4.781,0,0,1-2.931,4.025l-1.678-.616-1.425-.522-2.918-1.069-1.425-.522-2.553-.936c7.163-2.357,6.6-8.7,6.59-8.836m0-.566a.566.566,0,0,0-.563.618c.022.246.477,6.048-6.2,8.246a.567.567,0,0,0-.018,1.07l2.554.936,1.425.522,2.918,1.069,1.424.522,1.677.616a.566.566,0,0,0,.427-.014,5.315,5.315,0,0,0,3.266-4.531.564.564,0,0,0-.113-.35l-6.339-8.476a.567.567,0,0,0-.454-.227Z" transform="translate(-2065.702 -385.614)"/></g><path class="o" d="M2086.138,387.233a6.673,6.673,0,0,1-.009,1.017l6.205,8.3a3.832,3.832,0,0,0,.143-.84Z" transform="translate(-2045.064 -361.646)"/><path class="p" d="M2067.321,411.23l2.553.936,1.424.522,2.918,1.069,1.425.522,1.678.616a5.378,5.378,0,0,0,1.292-.807l-.393-.144-1.678-.616-1.425-.522-2.918-1.069-1.425-.522-1.8-.66h0A12.17,12.17,0,0,1,2067.321,411.23Z" transform="translate(-2032.837 -376.807)"/><g transform="translate(42.977 32.403)"><path class="q" d="M2097.249,415.237h-.029l-.042,0-.043-.015-3.392-1.243.637-.284a4.462,4.462,0,0,0,2.763-3.773l.021-.817,1.924,2.571.009.019a2.513,2.513,0,0,1-.041,2.583,2.442,2.442,0,0,1-1.807.962Z" transform="translate(-2092.991 -408.266)"/><path class="e" d="M2096.029,408.373l1.422,1.9s.739,1.369-.01,2.267a2.165,2.165,0,0,1-1.59.86h-.016l-2.737-1a4.781,4.781,0,0,0,2.93-4.025m-.533-1.659-.033,1.646a4.194,4.194,0,0,1-2.6,3.521l-1.274.569,1.309.48,2.737,1,.079.029.091.005h.041a2.734,2.734,0,0,0,2.025-1.064c.983-1.179.111-2.829.073-2.9l-.02-.037-.025-.033-1.421-1.9-.988-1.32Z" transform="translate(-2091.594 -406.714)"/></g><path class="r" d="M2103.863,412.3l.09.119,1.383,1.849a.663.663,0,0,1,.071.116,3.244,3.244,0,0,1,.257.8,2.624,2.624,0,0,0-.237-1.828l-1.421-1.9A3.8,3.8,0,0,1,2103.863,412.3Z" transform="translate(-2056.592 -377.393)"/><path class="s" d="M2095.894,421.46l2.737,1a2.137,2.137,0,0,0,1.605-.86,1.343,1.343,0,0,0,.218-.367,2.164,2.164,0,0,1-.378.175,1.271,1.271,0,0,1-.855-.012l-2.036-.746A5.36,5.36,0,0,1,2095.894,421.46Z" transform="translate(-2051.412 -383.372)"/><g transform="translate(29.738 21.513)"><path class="t" d="M2059.031,389.311a.282.282,0,0,1-.1-.017l-4.178-1.532a.283.283,0,0,1,.1-.549.292.292,0,0,1,.068.008,3.017,3.017,0,0,0,.734.087c1.829,0,4.032-1.414,5.613-3.6,1.72-2.379,2.329-5.214,1.48-6.895a.283.283,0,0,1,.479-.3l2.619,3.5a.274.274,0,0,1,.046.092.245.245,0,0,1,.01.055c.025.274.532,6.724-6.784,9.132A.284.284,0,0,1,2059.031,389.311Z" transform="translate(-2054.286 -376.119)"/><path class="e" d="M2062.475,376.159l2.619,3.5s0,0,0,0c.012.133.573,6.479-6.591,8.836l-4.178-1.531a3.3,3.3,0,0,0,.8.1c1.858,0,4.159-1.389,5.843-3.718,1.844-2.55,2.384-5.445,1.5-7.188m0-.566a.566.566,0,0,0-.505.822c.8,1.59.2,4.3-1.457,6.6-1.53,2.117-3.643,3.484-5.384,3.484a2.723,2.723,0,0,1-.665-.078.574.574,0,0,0-.138-.017.567.567,0,0,0-.195,1.1l4.179,1.532a.56.56,0,0,0,.194.035.568.568,0,0,0,.177-.028,9.638,9.638,0,0,0,6.335-5.581,8.96,8.96,0,0,0,.642-3.846.6.6,0,0,0-.022-.112.563.563,0,0,0-.09-.178l-2.619-3.5a.567.567,0,0,0-.454-.227Z" transform="translate(-2053.76 -375.592)"/></g><path class="r" d="M2078.667,377.211a4.07,4.07,0,0,1,.4,1.566l2.166,2.9a0,0,0,0,0,0,0c0,.017.012.141.015.347.012-.1.021-.2.029-.289a6.613,6.613,0,0,0,.009-1.017.007.007,0,0,1,0,0Z" transform="translate(-2040.213 -355.131)"/><path class="u" d="M2086,389.974c0,.017.012.141.014.347.012-.1.021-.2.029-.289Z" transform="translate(-2044.983 -363.428)"/><path class="s" d="M2055.378,407.542l4.179,1.532a12.173,12.173,0,0,0,1.652-.675l-.752-.275-2.418-.886A4.328,4.328,0,0,1,2055.378,407.542Z" transform="translate(-2025.073 -374.65)"/><path class="e" d="M2055.78,371.749a2.922,2.922,0,0,1,1.743.529,2.765,2.765,0,0,1,.85,1.011l0,0c.88,1.743.34,4.639-1.5,7.188-1.684,2.33-3.984,3.718-5.842,3.718a3.3,3.3,0,0,1-.8-.1l0,0-.551-.2a2.481,2.481,0,0,1-.383-.229c-1.916-1.386-1.625-5.058.649-8.2a10.047,10.047,0,0,1,3.475-3.083,5.327,5.327,0,0,1,2.367-.634m0-.566a5.915,5.915,0,0,0-2.623.695,10.684,10.684,0,0,0-3.678,3.256,10.258,10.258,0,0,0-2,5.049,4.225,4.225,0,0,0,1.479,3.946,3.079,3.079,0,0,0,.469.28c.017.008.034.015.051.022l.545.2a.626.626,0,0,0,.069.022,3.871,3.871,0,0,0,.941.112c2.093,0,4.566-1.552,6.3-3.953,1.928-2.667,2.552-5.792,1.55-7.775-.007-.013-.014-.026-.021-.039a3.306,3.306,0,0,0-1.006-1.179,3.459,3.459,0,0,0-2.075-.637Z" transform="translate(-2019.923 -351.212)"/><path class="s" d="M2050.341,384.722a2.5,2.5,0,0,0,.383.23l.551.2,0,0c.1.024.2.044.3.059-.923-1.738-.389-4.667,1.473-7.244a10.045,10.045,0,0,1,3.475-3.083,4.894,4.894,0,0,1,2.87-.6,2.746,2.746,0,0,0-.822-.961c-1.063-.768-2.581-.67-4.111.1a10.054,10.054,0,0,0-3.475,3.083C2048.717,379.664,2048.425,383.336,2050.341,384.722Z" transform="translate(-2020.976 -352.264)"/><path class="v" d="M2050.341,384.722a2.492,2.492,0,0,0,.383.229l.551.2,0,0c.1.024.2.044.3.059-.017-.032-.033-.063-.047-.1l-.154-.056a2.494,2.494,0,0,1-.383-.229c-1.917-1.386-1.624-5.058.65-8.2a10.046,10.046,0,0,1,3.475-3.083,5.113,5.113,0,0,1,2.609-.626,4.58,4.58,0,0,0-3.264.513,10.055,10.055,0,0,0-3.475,3.083C2048.717,379.664,2048.425,383.336,2050.341,384.722Z" transform="translate(-2020.976 -352.264)"/><path class="w" d="M2055.415,387.915c1.931.285,4.505-1.137,6.345-3.682s2.384-5.445,1.5-7.188l0,0a.5.5,0,0,0-.028-.05,4.893,4.893,0,0,0-2.869.6,10.044,10.044,0,0,0-3.475,3.083C2055.025,383.248,2054.492,386.177,2055.415,387.915Z" transform="translate(-2024.809 -354.964)"/><g transform="translate(25.095 21.239)"><path class="e" d="M2048.448,380.552a.282.282,0,0,1-.158-.048l-7.677-5.177a.283.283,0,1,1,.317-.47l7.677,5.177a.283.283,0,0,1-.159.518Z" transform="translate(-2040.488 -374.808)"/></g><g transform="translate(30.965 15.978)"><path class="e" d="M2061.335,368.631a.283.283,0,0,1-.258-.165l-3.786-8.292a.283.283,0,1,1,.515-.235l3.786,8.292a.283.283,0,0,1-.14.375A.277.277,0,0,1,2061.335,368.631Z" transform="translate(-2057.265 -359.773)"/></g><g transform="translate(22.692 29.505)"><path class="e" d="M2033.9,399.087a.283.283,0,0,1,0-.566l9.551-.091h0a.283.283,0,0,1,0,.567l-9.551.091Z" transform="translate(-2033.621 -398.43)"/></g><g transform="translate(18.809 38.788)"><path class="x" d="M2028.843,432.123a.283.283,0,0,1-.195-.1l-4.714-5.332a.283.283,0,0,1,.025-.4l.917-.811a.283.283,0,0,1,.4.025l4.714,5.332a.283.283,0,0,1-.025.4l-.917.81a.281.281,0,0,1-.188.071Z" transform="translate(-2023.579 -425.131)"/><path class="e" d="M2024.536,425.172l4.715,5.332-.917.81-4.715-5.332.917-.81m0-.567a.564.564,0,0,0-.375.142l-.917.81a.567.567,0,0,0-.049.8l4.715,5.332a.566.566,0,0,0,.8.049l.917-.81a.566.566,0,0,0,.049-.8l-4.715-5.332a.564.564,0,0,0-.425-.191Z" transform="translate(-2023.053 -424.605)"/></g><g transform="translate(22.018 42.434)"><path class="f" d="M2037.709,442.23a1.276,1.276,0,0,1-.956-.431l-3.4-3.845a1.276,1.276,0,1,1,1.911-1.69l3.4,3.845a1.275,1.275,0,0,1-.955,2.121Z" transform="translate(-2032.751 -435.55)"/><path class="e" d="M2033.783,435.591a.99.99,0,0,1,.744.335l3.4,3.845a.992.992,0,1,1-1.487,1.315l-3.4-3.845a.992.992,0,0,1,.743-1.65m0-.567h0a1.559,1.559,0,0,0-1.167,2.591l3.4,3.845a1.559,1.559,0,0,0,2.336-2.065l-3.4-3.845a1.56,1.56,0,0,0-1.168-.526Z" transform="translate(-2032.225 -435.024)"/></g><g class="y" transform="translate(-1996.892 -377.93)"><path class="ad" d="M 2014.50634765625 420.5023193359375 C 2013.481567382812 420.5023193359375 2012.485473632812 420.2050170898438 2011.625854492188 419.642578125 C 2010.449340820312 418.8730773925781 2009.642822265625 417.6912231445312 2009.355224609375 416.31494140625 C 2009.067626953125 414.9389038085938 2009.333129882812 413.5330505371094 2010.102783203125 412.3563842773438 C 2011.078735351562 410.8645324707031 2012.726196289062 409.9739685058594 2014.509887695312 409.9739685058594 C 2015.5341796875 409.9739685058594 2016.529907226562 410.2710571289062 2017.389282226562 410.8331604003906 C 2018.566162109375 411.603271484375 2019.37255859375 412.7849426269531 2019.660522460938 414.1608581542969 C 2019.94873046875 415.5376892089844 2019.683349609375 416.9439697265625 2018.913208007812 418.1206970214844 C 2017.937133789062 419.6120300292969 2016.289794921875 420.5023193359375 2014.50634765625 420.5023193359375 Z"/><path class="ae" d="M 2014.509887695312 412.4739685058594 C 2013.608642578125 412.4739685058594 2012.725341796875 412.9142456054688 2012.194946289062 413.7249145507812 C 2011.359252929688 415.0025024414062 2011.717041015625 416.7149658203125 2012.99462890625 417.5505676269531 C 2013.461791992188 417.856201171875 2013.986938476562 418.0023193359375 2014.50634765625 418.0023193359375 C 2015.407470703125 418.0023193359375 2016.290893554688 417.5621948242188 2016.821411132812 416.7516784667969 C 2017.6572265625 415.4745483398438 2017.298217773438 413.7612915039062 2016.020874023438 412.9253845214844 C 2015.553955078125 412.6199645996094 2015.028930664062 412.4739685058594 2014.509887695312 412.4739685058594 M 2014.509887695312 407.4739685058594 C 2016.021484375 407.4739685058594 2017.490356445312 407.9120788574219 2018.757690429688 408.7409057617188 C 2020.493530273438 409.8768310546875 2021.682739257812 411.6195068359375 2022.107543945312 413.648681640625 C 2022.532592773438 415.6795043945312 2022.14111328125 417.7538757324219 2021.005126953125 419.4896850585938 C 2019.565551757812 421.6892395019531 2017.136108398438 423.0023193359375 2014.50634765625 423.0023193359375 C 2012.994018554688 423.0023193359375 2011.524780273438 422.5639343261719 2010.257080078125 421.7345886230469 C 2008.52197265625 420.5997314453125 2007.332397460938 418.8564758300781 2006.908081054688 416.8263854980469 C 2006.48388671875 414.7967834472656 2006.87548828125 412.7232971191406 2008.010620117188 410.9878540039062 C 2009.4501953125 408.7874755859375 2011.879760742188 407.4739685058594 2014.509887695312 407.4739685058594 Z"/></g><g transform="translate(12.154 31.844)"><g transform="translate(0.28 0.283)"><path class="u" d="M2010.012,415.93a5.181,5.181,0,1,1,4.34-2.345,5.162,5.162,0,0,1-4.34,2.345Zm.007-8.307a3.127,3.127,0,1,0,1.708.511A3.119,3.119,0,0,0,2010.02,407.624Z" transform="translate(-2004.836 -405.569)"/></g><path class="e" d="M2009.5,405.325a4.9,4.9,0,1,1-4.1,2.217,4.871,4.871,0,0,1,4.1-2.217m-.008,8.306a3.409,3.409,0,1,0-1.864-.557,3.4,3.4,0,0,0,1.864.557m.008-8.873a5.463,5.463,0,1,0,2.986.892,5.451,5.451,0,0,0-2.986-.892Zm-.008,8.306a2.841,2.841,0,1,1,2.381-1.286,2.832,2.832,0,0,1-2.381,1.286Z" transform="translate(-2004.035 -404.759)"/></g><g transform="translate(15.462 35.491)"><path class="z" d="M2013.782,417.357a.284.284,0,0,1-.281-.248,1.74,1.74,0,0,1,1.257-1.916.283.283,0,0,1,.152.545,1.186,1.186,0,0,0-.848,1.3.283.283,0,0,1-.246.316Z" transform="translate(-2013.489 -415.182)"/></g><g transform="translate(17.469 35.216)"><circle class="z" cx="0.374" cy="0.374" r="0.374"/></g><g class="h" transform="translate(0)"><path class="aa" d="M2038.175,440.168c-9.608-4.055-15.8,6.084-15.8,6.084s-6.3-10.067-15.865-5.9-8.351,19.188-.155,25.079c5.388,3.874,16.195,11.12,16.195,11.12s10.722-7.369,16.063-11.3C2046.746,459.259,2047.784,444.225,2038.175,440.168Z" transform="translate(-1989.142 -395.364)"/></g><g transform="translate(16.599 14.054)"><path class="ab" d="M2022.091,362.879a.28.28,0,0,1-.158-.048c-.02-.014-2.056-1.379-3.066-2.1a3.513,3.513,0,0,1-1.343-3.157,2.425,2.425,0,0,1,2.409-2.281,2.574,2.574,0,0,0,4.255-.025,2.47,2.47,0,0,1,.961.2,2.443,2.443,0,0,1,1.448,2.051,3.515,3.515,0,0,1-1.307,3.173c-1,.737-3.02,2.125-3.041,2.139A.281.281,0,0,1,2022.091,362.879Z" transform="translate(-2017.223 -354.98)"/><path class="e" d="M2023.663,355.021a2.171,2.171,0,0,1,.851.181c1.814.766,1.618,3.6.084,4.734-1.009.743-3.033,2.134-3.033,2.134s-2.041-1.368-3.058-2.1c-1.547-1.112-1.776-3.948.03-4.735a2.168,2.168,0,0,1,.871-.191,2.377,2.377,0,0,0,4.256-.025m0-.566a2.783,2.783,0,0,1-4.256.025,2.709,2.709,0,0,0-2.69,2.535,3.8,3.8,0,0,0,1.459,3.417c1.013.729,2.989,2.054,3.073,2.11a.567.567,0,0,0,.636,0c.083-.057,2.043-1.4,3.047-2.145a3.805,3.805,0,0,0,1.42-3.434,2.719,2.719,0,0,0-1.619-2.279,2.75,2.75,0,0,0-1.071-.225Z" transform="translate(-2016.697 -354.454)"/><path class="ac" d="M2026.671,357.389a2,2,0,0,0-.943-.814c-1.814-.766-2.982,1.149-2.982,1.149s-1.19-1.9-2.995-1.114a2.591,2.591,0,0,0-.992,3.5c-.75-1.319-.588-3.206.831-3.825,1.8-.786,3,1.114,3,1.114s1.168-1.914,2.982-1.148A2.025,2.025,0,0,1,2026.671,357.389Z" transform="translate(-2017.751 -355.507)"/></g><g transform="translate(8.541 20.769)"><path class="ab" d="M2022.091,362.879a.28.28,0,0,1-.158-.048c-.02-.014-2.056-1.379-3.066-2.1a3.513,3.513,0,0,1-1.343-3.157,2.425,2.425,0,0,1,2.409-2.281,2.574,2.574,0,0,0,4.255-.025,2.47,2.47,0,0,1,.961.2,2.443,2.443,0,0,1,1.448,2.051,3.515,3.515,0,0,1-1.307,3.173c-1,.737-3.02,2.125-3.041,2.139A.281.281,0,0,1,2022.091,362.879Z" transform="translate(-2017.223 -354.98)"/><path class="e" d="M2023.663,355.021a2.171,2.171,0,0,1,.851.181c1.814.766,1.618,3.6.084,4.734-1.009.743-3.033,2.134-3.033,2.134s-2.041-1.368-3.058-2.1c-1.547-1.112-1.776-3.948.03-4.735a2.168,2.168,0,0,1,.871-.191,2.377,2.377,0,0,0,4.256-.025m0-.566a2.783,2.783,0,0,1-4.256.025,2.709,2.709,0,0,0-2.69,2.535,3.8,3.8,0,0,0,1.459,3.417c1.013.729,2.989,2.054,3.073,2.11a.567.567,0,0,0,.636,0c.083-.057,2.043-1.4,3.047-2.145a3.805,3.805,0,0,0,1.42-3.434,2.719,2.719,0,0,0-1.619-2.279,2.75,2.75,0,0,0-1.071-.225Z" transform="translate(-2016.697 -354.454)"/><path class="ac" d="M2026.671,357.389a2,2,0,0,0-.943-.814c-1.814-.766-2.982,1.149-2.982,1.149s-1.19-1.9-2.995-1.114a2.591,2.591,0,0,0-.992,3.5c-.75-1.319-.588-3.206.831-3.825,1.8-.786,3,1.114,3,1.114s1.168-1.914,2.982-1.148A2.025,2.025,0,0,1,2026.671,357.389Z" transform="translate(-2017.751 -355.507)"/></g><g transform="translate(24.228 6.832)"><path class="ab" d="M2043.765,342.471a.283.283,0,0,1-.158-.048c-.02-.014-2.055-1.379-3.065-2.1a3.514,3.514,0,0,1-1.343-3.157,2.425,2.425,0,0,1,2.409-2.281,2.573,2.573,0,0,0,4.255-.025,2.469,2.469,0,0,1,.961.2,2.444,2.444,0,0,1,1.448,2.051,3.516,3.516,0,0,1-1.307,3.173c-1,.737-3.02,2.125-3.041,2.139A.281.281,0,0,1,2043.765,342.471Z" transform="translate(-2038.897 -334.572)"/><path class="e" d="M2045.337,334.612a2.175,2.175,0,0,1,.851.181c1.814.766,1.618,3.6.083,4.734-1.009.743-3.033,2.134-3.033,2.134s-2.04-1.368-3.057-2.1c-1.547-1.112-1.776-3.948.029-4.735a2.17,2.17,0,0,1,.872-.191,2.377,2.377,0,0,0,4.255-.025m0-.567a2.782,2.782,0,0,1-4.255.025,2.709,2.709,0,0,0-2.691,2.535,3.806,3.806,0,0,0,1.459,3.417c1.013.728,2.989,2.054,3.073,2.11a.565.565,0,0,0,.636,0c.083-.057,2.044-1.4,3.048-2.145a3.8,3.8,0,0,0,1.42-3.434,2.709,2.709,0,0,0-2.69-2.5Z" transform="translate(-2038.37 -334.046)"/></g><path class="ac" d="M2048.344,336.981a1.992,1.992,0,0,0-.943-.814c-1.814-.766-2.982,1.149-2.982,1.149s-1.19-1.9-2.994-1.114a2.591,2.591,0,0,0-.993,3.5c-.75-1.319-.588-3.206.831-3.825,1.805-.786,3,1.114,3,1.114s1.168-1.914,2.982-1.148A2.023,2.023,0,0,1,2048.344,336.981Z" transform="translate(-2015.196 -328.267)"/></svg>