<svg xmlns="http://www.w3.org/2000/svg" width="23.87" height="24.876" viewBox="0 0 23.87 24.876"><defs><style>.a{fill:#03f87e;}</style></defs><path class="a" d="M34.005,14.656l-.928-1.9a.729.729,0,0,1,0-.645l.928-1.9a2.159,2.159,0,0,0-.932-2.867l-1.866-.99a.728.728,0,0,1-.378-.521l-.365-2.081a2.16,2.16,0,0,0-2.44-1.772l-2.091.3a.728.728,0,0,1-.613-.2L23.8.611a2.161,2.161,0,0,0-3.016,0L19.268,2.081a.729.729,0,0,1-.613.2l-2.092-.3a2.159,2.159,0,0,0-2.439,1.772l-.365,2.081a.729.729,0,0,1-.379.521l-1.866.99a2.16,2.16,0,0,0-.932,2.867l.928,1.9a.729.729,0,0,1,0,.645l-.928,1.9a2.16,2.16,0,0,0,.932,2.868l1.866.99a.729.729,0,0,1,.379.522l.365,2.081a2.158,2.158,0,0,0,2.129,1.794,2.227,2.227,0,0,0,.31-.022l2.092-.3a.727.727,0,0,1,.613.2l1.518,1.469a2.16,2.16,0,0,0,3.016,0l1.518-1.469a.731.731,0,0,1,.613-.2l2.091.3a2.16,2.16,0,0,0,2.44-1.772l.365-2.081a.73.73,0,0,1,.378-.522l1.866-.99A2.16,2.16,0,0,0,34.005,14.656Zm-1.6,1.6-1.866.99a2.155,2.155,0,0,0-1.119,1.541l-.365,2.081a.731.731,0,0,1-.825.6l-2.091-.3a2.156,2.156,0,0,0-1.812.589L22.8,23.229a.73.73,0,0,1-1.02,0l-1.518-1.469a2.153,2.153,0,0,0-1.5-.61,2.183,2.183,0,0,0-.308.021l-2.092.3a.731.731,0,0,1-.825-.6l-.365-2.081a2.155,2.155,0,0,0-1.119-1.541l-1.866-.99a.73.73,0,0,1-.315-.97l.928-1.9a2.156,2.156,0,0,0,0-1.9l-.928-1.9a.73.73,0,0,1,.315-.97l1.866-.99a2.155,2.155,0,0,0,1.119-1.541L15.537,4a.731.731,0,0,1,.825-.6l2.091.3a2.156,2.156,0,0,0,1.812-.589l1.518-1.469a.73.73,0,0,1,1.02,0l1.518,1.469a2.156,2.156,0,0,0,1.812.589l2.091-.3a.732.732,0,0,1,.825.6l.365,2.081a2.153,2.153,0,0,0,1.119,1.541l1.866.99a.73.73,0,0,1,.315.97l-.928,1.9a2.156,2.156,0,0,0,0,1.9l.928,1.9A.73.73,0,0,1,32.4,16.257Z" transform="translate(-10.359 0.002)"/><path class="a" d="M31.02,10.682a.734.734,0,0,0-1.038,0l-9.693,9.693a.734.734,0,1,0,1.038,1.038l9.693-9.693A.735.735,0,0,0,31.02,10.682Z" transform="translate(-13.72 -3.61)"/><path class="a" d="M22.695,14.347A2.692,2.692,0,1,0,20,11.655,2.7,2.7,0,0,0,22.695,14.347Zm0-3.916a1.224,1.224,0,1,1-1.224,1.224A1.225,1.225,0,0,1,22.695,10.431Z" transform="translate(-13.61 -3.018)"/><path class="a" d="M31.295,20.429a2.692,2.692,0,1,0,2.692,2.692A2.7,2.7,0,0,0,31.295,20.429Zm0,3.916a1.224,1.224,0,1,1,1.223-1.224A1.226,1.226,0,0,1,31.295,24.345Z" transform="translate(-16.509 -6.882)"/></svg>