<svg xmlns="http://www.w3.org/2000/svg" width="30.661" height="21.433" viewBox="0 0 30.661 21.433"><defs><style>.a{fill:#03f87e;stroke:#03f87e;stroke-width:0.4px;}</style></defs><g transform="translate(0.213 0.216)"><path class="a" d="M13.944,95.157a.564.564,0,0,0,.711-.361l.005-.017a.564.564,0,0,0-.378-.7A4.762,4.762,0,0,0,9.85,95.207a.564.564,0,1,0,.761.8A3.711,3.711,0,0,1,13.944,95.157Z" transform="translate(-6.044 -85.072)"/><path class="a" d="M33.272,89.317v-.011a4.776,4.776,0,0,0-4.432,1.127.564.564,0,0,0,.778.818A3.671,3.671,0,0,1,32.95,90.4a.565.565,0,1,0,.321-1.083Z" transform="translate(-18.649 -81.971)"/><path class="a" d="M26.624,105.664a.563.563,0,0,0-.429-.062l-6.947,1.759a.564.564,0,0,0-.423.676h0a3.645,3.645,0,0,0,3.71,2.566,4.822,4.822,0,0,0,1.189-.152c2.222-.564,3.637-2.56,3.158-4.46A.562.562,0,0,0,26.624,105.664Zm-3.175,3.71a3.723,3.723,0,0,1-.908.113,2.768,2.768,0,0,1-2.4-1.19l5.7-1.443A2.98,2.98,0,0,1,23.449,109.374Z" transform="translate(-12.288 -92.768)"/><path class="a" d="M29.856,72.69h0L15.515,68.733a.538.538,0,0,0-.662.376h0l-.237.845L.4,73.555a.538.538,0,0,0-.387.651l2.4,9.488a7.96,7.96,0,0,0,13.3,3.73,7.971,7.971,0,0,0,11.9-4.639l2.6-9.429A.538.538,0,0,0,29.856,72.69ZM11.84,88.42a6.889,6.889,0,0,1-8.375-4.977l0-.018L1.189,74.465l13.4-3.385,2.271,8.966A6.9,6.9,0,0,1,11.84,88.42ZM26.585,82.5a6.9,6.9,0,0,1-10.139,4.111,8.034,8.034,0,0,0,1.222-2.238L22.118,85.6a.528.528,0,0,0,.145,0,.539.539,0,0,0,.538-.393,3.7,3.7,0,0,0-2.922-4.306,4.512,4.512,0,0,0-1.814-.124,7.92,7.92,0,0,0-.178-1.006l-.9-3.525a4.3,4.3,0,0,0,1.749.387,4.039,4.039,0,0,0,1.076-.145.545.545,0,0,0-.3-1.05,3.369,3.369,0,0,1-2.9-.667L15.553,70.6l.194-.705,13.3,3.676Zm-8.611.834a7.945,7.945,0,0,0,.161-1.47,3.418,3.418,0,0,1,1.469.081A2.841,2.841,0,0,1,21.844,84.4Z" transform="translate(0 -68.714)"/><path class="a" d="M66.007,92.391a4.214,4.214,0,0,0,1.127-.153.564.564,0,1,0-.3-1.088,3.671,3.671,0,0,1-3.315-.925.564.564,0,1,0-.795.8A5.076,5.076,0,0,0,66.007,92.391Z" transform="translate(-40.893 -82.577)"/></g></svg>