<svg xmlns="http://www.w3.org/2000/svg" width="58" height="58" viewBox="0 0 58 58"><defs><style>.a{fill:#fff;}.b{fill:#fbbd00;}.c{fill:#0f9d58;}.d{fill:#31aa52;}.e{fill:#3c79e6;}.f{fill:#cf2d48;}.g{fill:#eb4132;}</style></defs><g transform="translate(-0.475)"><circle class="a" cx="29" cy="29" r="29" transform="translate(0.475 0)"/><g transform="translate(13.723 14.699)"><path class="b" d="M7.124,19.872a8.025,8.025,0,0,1,1.136-4.124V10.624H3.136a15.2,15.2,0,0,0,0,18.5H8.259V24A8.025,8.025,0,0,1,7.124,19.872Z" transform="translate(0 -4.675)"/><path class="c" d="M24.34,40.667l-3.562,3.562,3.562,3.562a15.079,15.079,0,0,0,9.248-3.136V39.537H28.47A8.072,8.072,0,0,1,24.34,40.667Z" transform="translate(-9.142 -17.396)"/><path class="d" d="M10.723,34.5,5.6,39.626a15.415,15.415,0,0,0,1.315,1.5,15.1,15.1,0,0,0,10.746,4.451V38.452A8.076,8.076,0,0,1,10.723,34.5Z" transform="translate(-2.464 -15.181)"/><path class="e" d="M42.335,24.4a15.323,15.323,0,0,0-.249-2.753l-.134-.73H27.138v7.124h7.21a8.038,8.038,0,0,1-3.08,3.3l5.118,5.118a15.338,15.338,0,0,0,1.5-1.315A15.1,15.1,0,0,0,42.335,24.4Z" transform="translate(-11.941 -9.204)"/><path class="f" d="M30.048,9.489l.63.629,5.037-5.037-.629-.629A15.1,15.1,0,0,0,24.34,0L20.778,3.562,24.34,7.124A8.02,8.02,0,0,1,30.048,9.489Z" transform="translate(-9.142)"/><path class="g" d="M17.661,7.124V0A15.1,15.1,0,0,0,6.915,4.451,15.41,15.41,0,0,0,5.6,5.949l5.123,5.123A8.076,8.076,0,0,1,17.661,7.124Z" transform="translate(-2.464)"/></g></g></svg>