<svg xmlns="http://www.w3.org/2000/svg" xmlns:xlink="http://www.w3.org/1999/xlink" width="164.65" height="191.493" viewBox="0 0 164.65 191.493"><defs><style>.a{fill:#03f87e;font-size:20px;font-family:Montserrat-SemiBold, Montserrat;font-weight:600;}.b{stroke:#03f87e;stroke-width:2px;fill:url(#a);}.c{fill:url(#b);}.d{fill:url(#e);}.e{stroke:rgba(0,0,0,0);stroke-miterlimit:10;fill:url(#f);}.f{fill:url(#g);}.g{fill:#fff;}.h{stroke:none;}.i{fill:none;}.j{filter:url(#c);}</style><linearGradient id="a" x1="0.96" y1="0.034" x2="0.042" y2="0.977" gradientUnits="objectBoundingBox"><stop offset="0" stop-color="#7259b4"/><stop offset="1" stop-color="#22183c"/></linearGradient><linearGradient id="b" x1="0.75" y1="0.933" x2="0.25" y2="0.067" gradientUnits="objectBoundingBox"><stop offset="0" stop-color="#41365a"/><stop offset="1" stop-color="#4a396f"/></linearGradient><filter id="c" x="0" y="0" width="164.65" height="164.65" filterUnits="userSpaceOnUse"><feOffset input="SourceAlpha"/><feGaussianBlur stdDeviation="10" result="d"/><feFlood/><feComposite operator="in" in2="d"/><feComposite in="SourceGraphic"/></filter><linearGradient id="e" x1="0.75" y1="0.933" x2="0.25" y2="0.067" gradientUnits="objectBoundingBox"><stop offset="0" stop-color="#33244d"/><stop offset="1" stop-color="#0c061d"/></linearGradient><linearGradient id="f" y1="0.976" x2="0" y2="0.03" gradientUnits="objectBoundingBox"><stop offset="0" stop-color="#efffb9"/><stop offset="1" stop-color="#beaf00"/></linearGradient><linearGradient id="g" x1="0.75" y1="0.933" x2="0.25" y2="0.067" gradientUnits="objectBoundingBox"><stop offset="0" stop-color="#363847"/><stop offset="0.513" stop-color="#44475b"/><stop offset="1" stop-color="#4f536a"/></linearGradient></defs><g transform="translate(15.682 17.493)"><text class="a" transform="translate(60.876 169)"><tspan x="-39.75" y="0">30 Mins</tspan></text><g transform="translate(0 0)"><g class="b" transform="translate(-0.124 0)"><rect class="h" width="132" height="131" rx="10"/><rect class="i" x="1" y="1" width="130" height="129" rx="9"/></g><g transform="translate(14.318 12.507)"><g class="j" transform="matrix(1, 0, 0, 1, -30, -30)"><path class="c" d="M217.857,95.693a52.325,52.325,0,1,0,52.325,52.325A52.325,52.325,0,0,0,217.857,95.693Zm0,98.479a46.154,46.154,0,1,1,46.154-46.154A46.154,46.154,0,0,1,217.857,194.172Z" transform="translate(-135.53 -65.69)"/></g><circle class="d" cx="47.997" cy="47.997" r="47.997" transform="translate(4.328 4.328)"/><path class="e" d="M0,93.531H0V86.354c.332.009.684.014,1.048.014a39.219,39.219,0,0,0,15.362-3.1,39.335,39.335,0,0,0,12.545-8.458,39.336,39.336,0,0,0,8.458-12.545,39.6,39.6,0,0,0,0-30.724,39.335,39.335,0,0,0-8.458-12.545,39.334,39.334,0,0,0-12.545-8.458,39.221,39.221,0,0,0-15.362-3.1c-.347,0-.7,0-1.048.014V0A47.345,47.345,0,0,1,33.137,13.436,47.492,47.492,0,0,1,43.411,28.065a47.24,47.24,0,0,1,4.156,17.98h.023v.244c0,.146,0,.292-.006.438,0,.253.007.506.008.76h-.026a47.236,47.236,0,0,1-4.155,17.98A47.484,47.484,0,0,1,33.137,80.1,47.347,47.347,0,0,1,0,93.531Z" transform="translate(51.574 5.483)"/><circle class="f" cx="2.472" cy="2.472" r="2.472" transform="translate(49.491 17.968) rotate(-80.817)"/><circle class="f" cx="2.472" cy="2.472" r="2.472" transform="translate(13.45 49.853)"/><circle class="f" cx="2.472" cy="2.472" r="2.472" transform="translate(49.853 86.256)"/><circle class="f" cx="2.472" cy="2.472" r="2.472" transform="translate(86.257 49.853)"/><g transform="translate(23.68 24.757)"><circle class="g" cx="2.416" cy="2.416" r="2.416" transform="translate(24.996 29.764) rotate(-80.749)"/><g transform="translate(0)"><path class="g" d="M213.785,114.3a.516.516,0,1,1-.632-.365A.517.517,0,0,1,213.785,114.3Z" transform="translate(-192.797 -113.92)"/><path class="g" d="M203.838,118.277a.516.516,0,1,1-.705-.189A.516.516,0,0,1,203.838,118.277Z" transform="translate(-189.714 -115.197)"/><path class="g" d="M195.259,124.69a.517.517,0,1,1-.73,0A.517.517,0,0,1,195.259,124.69Z" transform="translate(-187.067 -117.228)"/><path class="g" d="M188.632,133.1a.516.516,0,1,1-.706.189A.517.517,0,0,1,188.632,133.1Z" transform="translate(-185.036 -119.875)"/><path class="g" d="M184.409,142.948a.516.516,0,1,1-.632.365A.517.517,0,0,1,184.409,142.948Z" transform="translate(-183.759 -122.958)"/><path class="g" d="M184.142,164.185a.516.516,0,1,1-.365.633A.517.517,0,0,1,184.142,164.185Z" transform="translate(-183.759 -129.574)"/><path class="g" d="M188.116,174.132a.516.516,0,1,1-.189.7A.516.516,0,0,1,188.116,174.132Z" transform="translate(-185.036 -132.656)"/><path class="g" d="M194.529,182.711a.517.517,0,1,1,0,.73A.517.517,0,0,1,194.529,182.711Z" transform="translate(-187.067 -135.303)"/><path class="g" d="M202.944,189.337a.516.516,0,1,1,.189.706A.517.517,0,0,1,202.944,189.337Z" transform="translate(-189.714 -137.335)"/><path class="g" d="M212.787,193.561a.516.516,0,1,1,.366.632A.516.516,0,0,1,212.787,193.561Z" transform="translate(-192.797 -138.612)"/><path class="g" d="M234.024,193.828a.516.516,0,1,1,.633.365A.516.516,0,0,1,234.024,193.828Z" transform="translate(-199.413 -138.612)"/><path class="g" d="M243.971,189.854a.516.516,0,1,1,.706.189A.516.516,0,0,1,243.971,189.854Z" transform="translate(-202.496 -137.335)"/><path class="g" d="M252.55,183.441a.516.516,0,1,1,.73,0A.516.516,0,0,1,252.55,183.441Z" transform="translate(-205.143 -135.303)"/><path class="g" d="M259.177,175.026a.516.516,0,1,1,.705-.189A.516.516,0,0,1,259.177,175.026Z" transform="translate(-207.174 -132.656)"/><path class="g" d="M263.4,165.183a.516.516,0,1,1,.633-.365A.516.516,0,0,1,263.4,165.183Z" transform="translate(-208.451 -129.574)"/><path class="g" d="M263.667,143.946a.516.516,0,1,1,.366-.633A.516.516,0,0,1,263.667,143.946Z" transform="translate(-208.451 -122.958)"/><path class="g" d="M259.693,134a.516.516,0,1,1,.189-.7A.517.517,0,0,1,259.693,134Z" transform="translate(-207.174 -119.875)"/><path class="g" d="M253.28,125.42a.517.517,0,1,1,0-.73A.516.516,0,0,1,253.28,125.42Z" transform="translate(-205.143 -117.228)"/><path class="g" d="M244.865,118.793a.516.516,0,1,1-.189-.706A.516.516,0,0,1,244.865,118.793Z" transform="translate(-202.496 -115.197)"/><path class="g" d="M235.022,114.57a.516.516,0,1,1-.365-.632A.516.516,0,0,1,235.022,114.57Z" transform="translate(-199.413 -113.92)"/></g></g></g></g></g></svg>