<svg xmlns="http://www.w3.org/2000/svg" xmlns:xlink="http://www.w3.org/1999/xlink" width="164.65" height="191.493" viewBox="0 0 164.65 191.493"><defs><style>.a{fill:#03f87e;font-size:20px;font-family:Montserrat-SemiBold, Montserrat;font-weight:600;}.b{stroke:#03f87e;stroke-width:2px;fill:url(#a);}.c{fill:url(#b);}.d{fill:url(#e);}.e{stroke:rgba(0,0,0,0);stroke-miterlimit:10;fill:url(#f);}.f{fill:#373a49;}.g{fill:url(#g);}.h{opacity:0.398;}.i{fill:#fff;}.j{stroke:none;}.k{fill:none;}.l{filter:url(#c);}</style><linearGradient id="a" x1="0.96" y1="0.034" x2="0.042" y2="0.977" gradientUnits="objectBoundingBox"><stop offset="0" stop-color="#7259b4"/><stop offset="1" stop-color="#22183c"/></linearGradient><linearGradient id="b" x1="0.75" y1="0.933" x2="0.25" y2="0.067" gradientUnits="objectBoundingBox"><stop offset="0" stop-color="#41365a"/><stop offset="1" stop-color="#4a396f"/></linearGradient><filter id="c" x="0" y="0" width="164.65" height="164.65" filterUnits="userSpaceOnUse"><feOffset input="SourceAlpha"/><feGaussianBlur stdDeviation="10" result="d"/><feFlood/><feComposite operator="in" in2="d"/><feComposite in="SourceGraphic"/></filter><linearGradient id="e" x1="0.75" y1="0.933" x2="0.25" y2="0.067" gradientUnits="objectBoundingBox"><stop offset="0" stop-color="#2a1e40"/><stop offset="1" stop-color="#120a27"/></linearGradient><linearGradient id="f" x1="0.796" y1="0.235" x2="0.033" y2="1" gradientUnits="objectBoundingBox"><stop offset="0" stop-color="#ffeea8"/><stop offset="1" stop-color="#c65f1e"/></linearGradient><linearGradient id="g" x1="0.75" y1="0.933" x2="0.25" y2="0.067" gradientUnits="objectBoundingBox"><stop offset="0" stop-color="#363847"/><stop offset="0.513" stop-color="#44475b"/><stop offset="1" stop-color="#4f536a"/></linearGradient></defs><g transform="translate(16.825 17.493)"><text class="a" transform="translate(64.146 169)"><tspan x="-40.2" y="0">60 Mins</tspan></text><g transform="translate(0 0)"><g class="b" transform="translate(0.146)"><rect class="j" width="132" height="131" rx="10"/><rect class="k" x="1" y="1" width="130" height="129" rx="9"/></g><g transform="translate(13.175 12.507)"><g class="l" transform="matrix(1, 0, 0, 1, -30, -30)"><path class="c" d="M217.857,95.693a52.325,52.325,0,1,0,52.325,52.325A52.325,52.325,0,0,0,217.857,95.693Zm0,98.479a46.154,46.154,0,1,1,46.154-46.154A46.154,46.154,0,0,1,217.857,194.172Z" transform="translate(-135.53 -65.69)"/></g><circle class="d" cx="47.997" cy="47.997" r="47.997" transform="translate(4.328 4.328)"/><path class="e" d="M47.589,93.531h0c-.289,0-.542,0-.772-.005s-.479.005-.772.005v-.025A47.6,47.6,0,0,1,.025,47.487H0c0-.216,0-.452.007-.72S0,46.263,0,46.045H.025A47.6,47.6,0,0,1,46.044.025V0c.235,0,.48,0,.772.007S47.357,0,47.589,0V.025A47.6,47.6,0,0,1,93.61,46.045h.023v.245c0,.146,0,.292-.006.437,0,.253.007.506.008.76h-.026A47.6,47.6,0,0,1,47.589,93.506v.023Zm-.5-86.1A39.477,39.477,0,0,0,31.73,83.266a39.477,39.477,0,0,0,30.724-72.73A39.221,39.221,0,0,0,47.092,7.434Z" transform="translate(5.53 5.483)"/><circle class="f" cx="2.416" cy="2.416" r="2.416" transform="translate(49.553 54.321) rotate(-80.749)"/><circle class="g" cx="2.472" cy="2.472" r="2.472" transform="translate(49.491 17.968) rotate(-80.817)"/><circle class="g" cx="2.472" cy="2.472" r="2.472" transform="translate(13.45 49.853)"/><circle class="g" cx="2.472" cy="2.472" r="2.472" transform="translate(49.853 86.256)"/><circle class="g" cx="2.472" cy="2.472" r="2.472" transform="translate(86.257 49.853)"/><g class="h" transform="translate(15.753 15.752)"><path class="i" d="M214.105,114.424a.679.679,0,1,1-.831-.48A.68.68,0,0,1,214.105,114.424Z" transform="translate(-186.494 -113.92)"/><path class="i" d="M204.142,118.359a.679.679,0,1,1-.928-.249A.679.679,0,0,1,204.142,118.359Z" transform="translate(-185.561 -114.306)"/><path class="i" d="M195.537,124.737a.68.68,0,1,1-.961,0A.679.679,0,0,1,195.537,124.737Z" transform="translate(-184.76 -114.921)"/><path class="i" d="M188.877,133.126a.679.679,0,1,1-.928.249A.68.68,0,0,1,188.877,133.126Z" transform="translate(-184.146 -115.722)"/><path class="i" d="M184.614,142.954a.679.679,0,1,1-.831.48A.68.68,0,0,1,184.614,142.954Z" transform="translate(-183.759 -116.655)"/><path class="i" d="M184.263,164.191a.679.679,0,1,1-.48.832A.68.68,0,0,1,184.263,164.191Z" transform="translate(-183.759 -118.657)"/><path class="i" d="M188.2,174.154a.679.679,0,1,1-.249.927A.679.679,0,0,1,188.2,174.154Z" transform="translate(-184.146 -119.589)"/><path class="i" d="M194.576,182.758a.68.68,0,1,1,0,.961A.679.679,0,0,1,194.576,182.758Z" transform="translate(-184.76 -120.39)"/><path class="i" d="M202.966,189.419a.679.679,0,1,1,.249.928A.68.68,0,0,1,202.966,189.419Z" transform="translate(-185.561 -121.005)"/><path class="i" d="M212.793,193.682a.679.679,0,1,1,.481.831A.679.679,0,0,1,212.793,193.682Z" transform="translate(-186.494 -121.391)"/><path class="i" d="M234.03,194.033a.679.679,0,1,1,.832.48A.679.679,0,0,1,234.03,194.033Z" transform="translate(-188.496 -121.391)"/><path class="i" d="M243.993,190.1a.679.679,0,1,1,.928.249A.679.679,0,0,1,243.993,190.1Z" transform="translate(-189.429 -121.005)"/><path class="i" d="M252.6,183.719a.68.68,0,1,1,.961,0A.68.68,0,0,1,252.6,183.719Z" transform="translate(-190.23 -120.39)"/><path class="i" d="M259.259,175.33a.679.679,0,1,1,.927-.249A.679.679,0,0,1,259.259,175.33Z" transform="translate(-190.844 -119.589)"/><path class="i" d="M263.521,165.5a.679.679,0,1,1,.832-.48A.679.679,0,0,1,263.521,165.5Z" transform="translate(-191.231 -118.657)"/><path class="i" d="M263.872,144.266a.679.679,0,1,1,.481-.832A.679.679,0,0,1,263.872,144.266Z" transform="translate(-191.231 -116.655)"/><path class="i" d="M259.938,134.3a.679.679,0,1,1,.248-.927A.68.68,0,0,1,259.938,134.3Z" transform="translate(-190.844 -115.722)"/><path class="i" d="M253.558,125.7a.68.68,0,1,1,0-.961A.679.679,0,0,1,253.558,125.7Z" transform="translate(-190.23 -114.921)"/><path class="i" d="M245.169,119.038a.679.679,0,1,1-.248-.928A.679.679,0,0,1,245.169,119.038Z" transform="translate(-189.429 -114.306)"/><path class="i" d="M235.342,114.775a.679.679,0,1,1-.48-.831A.679.679,0,0,1,235.342,114.775Z" transform="translate(-188.496 -113.92)"/></g></g></g></g></svg>