<svg xmlns="http://www.w3.org/2000/svg" width="20.633" height="20.633" viewBox="0 0 20.633 20.633"><defs><style>.a{fill:#03f87e;}</style></defs><g transform="translate(14958.333 -14999.333)"><path class="a" d="M10.317,0A10.317,10.317,0,1,0,20.633,10.317,10.316,10.316,0,0,0,10.317,0Zm0,19.021a8.7,8.7,0,1,1,8.7-8.7A8.7,8.7,0,0,1,10.317,19.021Z" transform="translate(-14958.333 14999.333)"/><path class="a" d="M240,352h1.29v1.29H240Z" transform="translate(-15188.661 14661.518)"/><path class="a" d="M181.712,128.893a2.9,2.9,0,0,0-1-.646,3.894,3.894,0,0,0-1.462-.247,3.418,3.418,0,0,0-1.321.247,3.063,3.063,0,0,0-1.035.69,2.741,2.741,0,0,0-.665,1,2.976,2.976,0,0,0-.23,1.289h1.316a2.282,2.282,0,0,1,.521-1.552,1.707,1.707,0,0,1,1.414-.6,1.762,1.762,0,0,1,1.3.441,1.654,1.654,0,0,1,.419,1.2,1.619,1.619,0,0,1-.392,1.068,10.265,10.265,0,0,1-.84.9,8.325,8.325,0,0,0-.8.912,1.7,1.7,0,0,0-.351,1.108v1.029h1.29v-.554a1.854,1.854,0,0,1,.178-.867,2.672,2.672,0,0,1,.477-.681,7.429,7.429,0,0,1,.623-.6,6.925,6.925,0,0,0,.626-.611,2.868,2.868,0,0,0,.481-.724,2.138,2.138,0,0,0,.195-.946,2.813,2.813,0,0,0-.177-.969A2.507,2.507,0,0,0,181.712,128.893Z" transform="translate(-15127.24 14876.491)"/></g></svg>