<svg xmlns="http://www.w3.org/2000/svg" width="23.454" height="19.686" viewBox="0 0 23.454 19.686"><defs><style>.a{fill:#03f87e;stroke:#03f87e;stroke-width:0.4px;}</style></defs><g transform="translate(15070.2 -15079.059)"><path class="a" d="M70.959,178.512a.337.337,0,0,0-.468.093,1.779,1.779,0,0,1-2.936.034.337.337,0,0,0-.552.388,2.452,2.452,0,0,0,2.008,1.044h.04a2.455,2.455,0,0,0,2-1.09A.337.337,0,0,0,70.959,178.512Z" transform="translate(-15133.93 14906.955)"/><path class="a" d="M290.683,41.842a5.079,5.079,0,0,0-3.481,1.373.337.337,0,1,0,.46.492,4.413,4.413,0,1,1-.878,1.14.337.337,0,1,0-.594-.319,5.1,5.1,0,1,0,4.492-2.686Z" transform="translate(-15342.727 15037.417)"/><g transform="translate(-15070 15079.259)"><path class="a" d="M201.267,329.9a.337.337,0,0,0,.337-.337v-.657a.337.337,0,0,0-.674,0v.657A.337.337,0,0,0,201.267,329.9Z" transform="translate(-191.883 -315.658)"/><path class="a" d="M296.437,329.562v-.657a.337.337,0,0,0-.674,0v.657a.337.337,0,1,0,.674,0Z" transform="translate(-282.446 -315.658)"/><path class="a" d="M201.267,381.521h4.27a.337.337,0,1,0,0-.674h-4.27a.337.337,0,1,0,0,.674Z" transform="translate(-191.883 -365.582)"/><path class="a" d="M10.195,46.938a5.1,5.1,0,1,0-5.1,5.1A5.1,5.1,0,0,0,10.195,46.938ZM5.1,51.362a4.423,4.423,0,1,1,4.423-4.423A4.428,4.428,0,0,1,5.1,51.362Z" transform="translate(0 -41.841)"/><path class="a" d="M58.978,127.66V127a.337.337,0,1,0-.674,0v.657a.337.337,0,0,0,.674,0Z" transform="translate(-55.679 -122.847)"/><path class="a" d="M153.475,126.666a.337.337,0,0,0-.337.337v.657a.337.337,0,0,0,.674,0V127A.337.337,0,0,0,153.475,126.666Z" transform="translate(-146.243 -122.847)"/><path class="a" d="M344.227,126.666a.337.337,0,0,0-.337.337v.657a.337.337,0,1,0,.674,0V127A.337.337,0,0,0,344.227,126.666Z" transform="translate(-328.405 -122.847)"/><path class="a" d="M439.4,127.66V127a.337.337,0,1,0-.674,0v.657a.337.337,0,0,0,.674,0Z" transform="translate(-418.969 -122.847)"/><path class="a" d="M354.913,173.009a2.455,2.455,0,0,0-2,1.09.337.337,0,1,0,.56.375,1.779,1.779,0,0,1,2.936-.034.337.337,0,0,0,.552-.387A2.452,2.452,0,0,0,354.913,173.009Z" transform="translate(-336.968 -167.103)"/><path class="a" d="M147.889,243.743a5.1,5.1,0,1,0,.68,10.15.337.337,0,1,0-.089-.668,4.481,4.481,0,0,1-.591.039,4.42,4.42,0,1,1,1.981-.467.337.337,0,0,0,.3.6,5.1,5.1,0,0,0-2.284-9.656Z" transform="translate(-136.363 -234.652)"/></g></g></svg>