<svg xmlns="http://www.w3.org/2000/svg" width="23" height="20" viewBox="0 0 23 20"><defs><style>.a{fill:none;}.b,.d{fill:#03f87e;}.c,.d{stroke:none;}</style></defs><g transform="translate(-1238 -462)"><g class="a" transform="translate(1238 462)"><path class="c" d="M10.633,1.508a1,1,0,0,1,1.734,0L22.138,18.5a1,1,0,0,1-.867,1.5H1.729a1,1,0,0,1-.867-1.5Z"/><path class="d" d="M 11.49999904632568 2.808582305908203 L 2.419939041137695 18.59999847412109 L 20.5800609588623 18.59999847412109 L 11.49999904632568 2.808582305908203 M 11.5 1.006134033203125 C 11.83732795715332 1.006134033203125 12.17465496063232 1.173309326171875 12.36690998077393 1.507659912109375 L 22.13838005065918 18.50152969360352 C 22.52170944213867 19.16819000244141 22.04048919677734 20 21.27146911621094 20 L 1.728530883789063 20 C 0.9595108032226563 20 0.4782905578613281 19.16819000244141 0.8616199493408203 18.50152969360352 L 10.63309001922607 1.507659912109375 C 10.82534503936768 1.173309326171875 11.16267204284668 1.006134033203125 11.5 1.006134033203125 Z"/></g><path class="b" d="M22.483,22.584A1.083,1.083,0,1,1,23.567,21.5,1.084,1.084,0,0,1,22.483,22.584ZM23.317,19H21.65V14h1.667v5Z" transform="translate(1226.763 456.624)"/></g></svg>