<svg xmlns="http://www.w3.org/2000/svg" width="16.307" height="16.419" viewBox="0 0 16.307 16.419">
  <g id="cast_active" transform="translate(0.008 0.219)">
    <path id="Path_27240" data-name="Path 27240" d="M16.1,9h0V6.33A.333.333,0,0,0,15.765,6H4.128L15.839,3.322a.334.334,0,0,0,.247-.411L15.522.757A1,1,0,0,0,14.333.025L.968,3.213A1,1,0,0,0,.225,4.431L.84,6.873v7.46A1.665,1.665,0,0,0,2.5,16H14.439A1.665,1.665,0,0,0,16.1,14.333V9Zm-.663-.333H12.985l1-2h1.454Zm-5.766,0,1-2h2.575l-1,2Zm-3.317,0,1-2H9.921l-1,2Zm-3.316,0,1-2H6.6l-1,2Zm-1.532,0v-2H3.287l-1,2Zm3.461-5.72L6.729,4.718l-2.48.567L2.505,3.531Zm3.22-.768,1.789,1.8-2.479.566L5.723,2.764ZM11.4,1.41l1.815,1.826L10.737,3.8,8.942,2ZM14.483.674a.3.3,0,0,1,.072-.009.336.336,0,0,1,.324.257l.478,1.824-1.379.315L12.157,1.229ZM.907,4.013a.335.335,0,0,1,.212-.151l.628-.15L3.485,5.459l-2.191.5L.868,4.269A.336.336,0,0,1,.907,4.013Zm13.531,11.32H2.5a1,1,0,0,1-1-1v-5H15.434v5A1,1,0,0,1,14.439,15.333Z" transform="translate(0 0)" fill="#03f87e" stroke="#29f87e" stroke-width="0.4"/>
    <path id="Path_27241" data-name="Path 27241" d="M28.1,44.779l-.7-1.312-.7,1.312-1.465.264,1.03,1.075-.2,1.475,1.34-.647,1.34.647-.2-1.475,1.03-1.075Zm.024,1.971L27.4,46.4l-.728.352.109-.8-.559-.584.8-.144.382-.712.382.712.8.144-.559.584Z" transform="translate(-19.293 -33.388)" fill="#03f87e" stroke="#29f87e" stroke-width="0.4"/>
  </g>
</svg>
