<svg xmlns="http://www.w3.org/2000/svg" width="14.538" height="16.52" viewBox="0 0 14.538 16.52">
  <path id="crew_active" d="M13.692,15.364l-5.967-2.54,5.965-2.54a.343.343,0,0,0,.2-.3s0,0,0-.008V8.66a.989.989,0,0,0-.99-.989V.99a.99.99,0,0,0-.99-.99H1.853a.99.99,0,0,0-.99.99V7.669a.99.99,0,0,0-.99.99V9.978a.333.333,0,0,0,.2.3l5.966,2.54L.075,15.364a.33.33,0,0,0,.247.612l.011,0,6.55-2.79,6.55,2.79a.33.33,0,0,0,.259-.607ZM1.523.99a.33.33,0,0,1,.33-.33h10.06a.33.33,0,0,1,.33.33V7.669H1.523ZM.534,8.659a.33.33,0,0,1,.33-.33H12.9a.33.33,0,0,1,.33.33v.99H.534ZM1.82,10.308H11.946L6.883,12.464Z" transform="translate(0.383 0.25)" fill="#03f87e" stroke="#03f87e" stroke-width="0.5"/>
</svg>
