<svg xmlns="http://www.w3.org/2000/svg" width="20.002" height="17.829" viewBox="0 0 20.002 17.829"><defs><style>.a{fill:#03f87e;stroke:#03f87e;stroke-width:0.3px;}</style></defs><g transform="translate(0.15 0.15)"><path class="a" d="M199.276,90.069a1.156,1.156,0,0,1-.762-.286c-.8-.7-1.563-1.35-2.24-1.927l0,0a41.681,41.681,0,0,1-4.892-4.591,7.334,7.334,0,0,1-1.954-4.8,6.159,6.159,0,0,1,1.563-4.206,5.3,5.3,0,0,1,3.941-1.715,4.956,4.956,0,0,1,3.1,1.069,6.328,6.328,0,0,1,1.252,1.307,6.328,6.328,0,0,1,1.252-1.307,4.956,4.956,0,0,1,3.1-1.069,5.3,5.3,0,0,1,3.941,1.715,6.159,6.159,0,0,1,1.563,4.206,7.332,7.332,0,0,1-1.954,4.8,41.681,41.681,0,0,1-4.891,4.591c-.679.578-1.447,1.232-2.245,1.93A1.157,1.157,0,0,1,199.276,90.069Zm-4.347-16.375a4.158,4.158,0,0,0-3.093,1.343,5.011,5.011,0,0,0-1.257,3.424,6.17,6.17,0,0,0,1.688,4.064,41,41,0,0,0,4.752,4.45l0,0c.68.579,1.45,1.236,2.252,1.937.807-.7,1.578-1.361,2.259-1.941a41,41,0,0,0,4.752-4.449,6.17,6.17,0,0,0,1.688-4.064,5.011,5.011,0,0,0-1.257-3.424,4.158,4.158,0,0,0-3.093-1.343,3.829,3.829,0,0,0-2.39.827,5.607,5.607,0,0,0-1.332,1.541.728.728,0,0,1-1.252,0,5.6,5.6,0,0,0-1.332-1.541A3.829,3.829,0,0,0,194.929,73.695Z" transform="translate(-189.425 -72.54)"/></g></svg>