<svg xmlns="http://www.w3.org/2000/svg" width="22.054" height="21.595" viewBox="0 0 22.054 21.595"><defs><style>.a{fill:#03f87e;stroke:#03f87e;stroke-width:0.4px;}</style></defs><g transform="translate(0.321 0.314)"><path class="a" d="M15.807,11.466c-1.887-1.887-2.171-2.835-2.171-5.85a5.614,5.614,0,1,0-11.228,0,9.485,9.485,0,0,1-.267,2.978,6.88,6.88,0,0,1-1.9,2.872A.8.8,0,0,0,.8,12.835H5.255l-.04.4a2.807,2.807,0,1,0,5.614,0l-.04-.4H15.24A.8.8,0,0,0,15.807,11.466ZM8.022,15.241a2.005,2.005,0,0,1-2.005-2.005l.04-.4H9.986l.041.4A2.006,2.006,0,0,1,8.022,15.241ZM.8,12.033C3.21,9.626,3.21,8.022,3.21,5.615a4.812,4.812,0,1,1,9.624,0c0,2.406,0,4.011,2.406,6.417Z" transform="translate(2.676 5.295) rotate(-11)"/><path class="a" d="M2.877,5.958,4.022,6.2A8.263,8.263,0,0,0,.763,0L0,.929A6.7,6.7,0,0,1,2.877,5.958Z" transform="matrix(0.978, -0.208, 0.208, 0.978, 14.474, 0.836)"/><path class="a" d="M2.876.243,4.021,0A8.263,8.263,0,0,1,.763,6.2L0,5.272A6.7,6.7,0,0,0,2.876.243Z" transform="translate(6.583 9.071) rotate(150)"/></g></svg>