<svg xmlns="http://www.w3.org/2000/svg" width="40" height="40" viewBox="0 0 40 40">
  <g id="Group_15013" data-name="Group 15013" transform="translate(0.019)">
    <g id="Ellipse_251" data-name="Ellipse 251" transform="translate(-0.019 0)" fill="#0c0022" stroke="rgba(214,198,244,0.2)" stroke-width="1">
      <circle cx="20" cy="20" r="20" stroke="none"/>
      <circle cx="20" cy="20" r="19.5" fill="none"/>
    </g>
    <path id="Op_component_2" data-name="Op component 2" d="M2352.166,215.929h-12.207a2,2,0,0,0-2.035,2.029v12.175a2,2,0,0,0,2.035,2.03h12.206a2,2,0,0,0,2.035-2.03V217.959A2,2,0,0,0,2352.166,215.929Zm-6.091,4.928a3.16,3.16,0,1,1-3.267,3.158A3.214,3.214,0,0,1,2346.074,220.857Zm6.091,8.77c0,.356-.152.508-.508.508h-11.191c-.355,0-.508-.152-.508-.508v-7.1l1.269.275a4.7,4.7,0,0,0-.21,1.392,5.06,5.06,0,0,0,10.115,0,4.685,4.685,0,0,0-.21-1.392l1.244-.275v7.1Zm0-9.132a.508.508,0,0,1-.508.507h-2.035a.509.509,0,0,1-.509-.507v-2.029a.509.509,0,0,1,.509-.508h2.035a.508.508,0,0,1,.508.508Z" transform="translate(-2326.298 -204.117)" fill="#03f87e"/>
  </g>
</svg>
