<svg xmlns="http://www.w3.org/2000/svg" width="22.182" height="25.131" viewBox="0 0 22.182 25.131"><defs><style>.a,.b{fill:none;}.a{stroke:#03f87e;stroke-width:0.9px;}.c,.d{stroke:none;}.d{fill:#03f87e;}</style></defs><g transform="translate(0.647 0.45)"><path class="a" d="M7.774,14.224,8.9,13.1a1.2,1.2,0,0,0,.321.066,1.318,1.318,0,1,0-1.318-1.318,1.2,1.2,0,0,0,.066.321L6.843,13.293,2.032,8.482A.653.653,0,0,0,1,8.606a8.456,8.456,0,0,0,11.45,11.45.649.649,0,0,0,.124-1.03ZM8.606-.023a.663.663,0,0,0-.7.659v1.3a.652.652,0,0,0,.618.655,10.578,10.578,0,0,1,9.922,9.947.658.658,0,0,0,.655.618h1.322a.663.663,0,0,0,.659-.7A13.212,13.212,0,0,0,8.606-.023Zm.012,3.954a.665.665,0,0,0-.713.663V5.916a.657.657,0,0,0,.61.655,6.579,6.579,0,0,1,5.968,5.98.662.662,0,0,0,.655.605h1.326a.667.667,0,0,0,.663-.713A9.267,9.267,0,0,0,8.618,3.931Z" transform="translate(0.003 0.024)"/><g class="b" transform="translate(0.001 22.52)"><path class="c" d="M5.911-2.25V1.53c0,.348-.441.63-.985.63H.985C.441,2.16,0,1.878,0,1.53V-8A23.791,23.791,0,0,0,3.264-3.905,9.866,9.866,0,0,0,5.911-2.25Z"/><path class="d" d="M 4.911355972290039 1.16013765335083 L 4.911355972290039 -1.607295989990234 C 4.359912872314453 -1.886508703231812 3.51875638961792 -2.377759695053101 2.616875886917114 -3.142402410507202 C 2.090641021728516 -3.588554620742798 1.521638631820679 -4.231657981872559 0.9999958276748657 -4.885917186737061 L 0.9999958276748657 1.16013765335083 L 4.911355972290039 1.16013765335083 M 4.926126003265381 2.16013765335083 L 0.9852258563041687 2.16013765335083 C 0.4410958290100098 2.16013765335083 -4.159622221777681e-06 1.878087639808655 -4.159622221777681e-06 1.530157685279846 L -4.159622221777681e-06 -8.000001907348633 C -4.159622221777681e-06 -8.000001907348633 1.847295880317688 -5.105902194976807 3.263555765151978 -3.905162334442139 C 4.679815769195557 -2.704412460327148 5.911355972290039 -2.249692440032959 5.911355972290039 -2.249692440032959 L 5.911355972290039 1.530157685279846 C 5.911355972290039 1.878087639808655 5.470255851745605 2.16013765335083 4.926126003265381 2.16013765335083 Z"/></g></g></svg>