<svg xmlns="http://www.w3.org/2000/svg" width="19.199" height="19.199" viewBox="0 0 19.199 19.199"><defs><style>.a{fill:#03f87e;stroke:#03f87e;stroke-width:0.5px;}</style></defs><g transform="translate(-107.651 -3435.25)"><path class="a" d="M26.227,17.628H20.965a2.5,2.5,0,0,1-2.59-2.4V3.472a2.5,2.5,0,0,1,2.59-2.4h5.347A.556.556,0,0,0,26.89.536.556.556,0,0,0,26.312,0H20.965a3.621,3.621,0,0,0-3.746,3.472V15.227A3.621,3.621,0,0,0,20.965,18.7h5.262a.537.537,0,1,0,0-1.071Z" transform="translate(90.682 3435.5)"/><path class="a" d="M134.626,140.169l-3.673-3.673a.578.578,0,0,0-.818.818L132.823,140H121.1a.578.578,0,1,0,0,1.156h11.726l-2.689,2.689a.58.58,0,0,0,.407.989.564.564,0,0,0,.407-.171l3.673-3.673A.578.578,0,0,0,134.626,140.169Z" transform="translate(-8.195 3304.175)"/></g></svg>