<svg xmlns="http://www.w3.org/2000/svg" width="29.865" height="32.822" viewBox="0 0 29.865 32.822"><defs><style>.a{fill:#8a7e9f;stroke:#8a7e9f;stroke-width:0.3px;}</style></defs><g transform="translate(-1432.832 -3289.85)"><path class="a" d="M31.037,2.168h-3.7V.542A.535.535,0,0,0,26.814,0h-3.7a.535.535,0,0,0-.528.542V2.168H10.975V.542A.535.535,0,0,0,10.447,0h-3.7a.535.535,0,0,0-.528.542V2.168h-3.7A.535.535,0,0,0,2,2.71V31.98a.535.535,0,0,0,.528.542H31.037a.535.535,0,0,0,.528-.542V2.71A.535.535,0,0,0,31.037,2.168Zm-7.391.542V1.084h2.64V4.336h-2.64ZM7.28,2.71V1.084h2.64V4.336H7.28Zm23.23,28.728H3.056V9.215H30.509Zm0-23.307H3.056V3.252H6.224V4.878a.535.535,0,0,0,.528.542h3.7a.535.535,0,0,0,.528-.542V3.252H22.59V4.878a.535.535,0,0,0,.528.542h3.7a.535.535,0,0,0,.528-.542V3.252h3.168Z" transform="translate(1430.982 3290)"/><path class="a" d="M15.293,35.54H25.83V23H11V35.54h4.293Zm7.025-11.675H25.05v3.027H22.318Zm0,3.892H25.05v3.027H22.318Zm0,3.892H25.05v3.027H22.318Zm-3.512-7.783h2.732v3.027H18.805Zm0,3.892h2.732v3.027H18.805Zm0,3.892h2.732v3.027H18.805Zm-3.512-7.783h2.732v3.027H15.293Zm0,3.892h2.732v3.027H15.293Zm0,3.892h2.732v3.027H15.293Zm-3.512-7.783h2.732v3.027H11.781Zm0,3.892h2.732v3.027H11.781Zm0,3.892h2.732v3.027H11.781Z" transform="translate(1429.35 3280.532)"/></g></svg>