<svg xmlns="http://www.w3.org/2000/svg" width="20.079" height="16.465" viewBox="0 0 20.079 16.465"><defs><style>.a,.b{fill:#a89abf;stroke:#a89abf;}.a{stroke-width:0.1px;}.b{stroke-width:0.5px;}</style></defs><g transform="translate(0.048 0.047)"><path class="a" d="M1,16.6v2.734H3.722C3.722,17.828,1,16.6,1,16.6Zm0-3.618V14.8a4.539,4.539,0,0,1,4.538,4.538H7.352A6.348,6.348,0,0,0,1,12.982Zm0-3.63v1.815a8.168,8.168,0,0,1,8.168,8.168h1.815A9.983,9.983,0,0,0,1,9.352ZM20.128,3,1.58,2.984c-.7,0-.58-.257-.58,1.83V7.537h.838v-3.7h18.29V18.5H12.8v.838H19.15c1,0,1.815.161,1.815-.838V4.814C20.965,3.816,21.126,3,20.128,3Z" transform="translate(-0.991 -2.974)"/><path class="b" d="M12.8,2.989,1.355,2.98C.92,2.98,1,2.826,1,4.08V5.715h.517V3.493H12.8V12.3H8.276v.5H12.2c.616,0,1.12.1,1.12-.5V4.08C13.316,3.48,13.415,2.989,12.8,2.989Z" transform="translate(1.277 1.205)"/></g></svg>