<svg xmlns="http://www.w3.org/2000/svg" width="22.085" height="22.171" viewBox="0 0 22.085 22.171"><defs><style>.a{fill:none;stroke:#8a7e9f;}.b,.c{fill:#8a7e9f;}.c{font-size:5px;font-family:NirmalaUI-Bold, Nirmala UI;font-weight:700;}</style></defs><g transform="translate(0.5 0.5)"><g transform="translate(0)"><path class="a" d="M266.873,82.951c-8.393,0-8.3-.23-8.223,0l.247.613,4.489,13.128-3.542,3.83c-.16.183-.106,0,0,0h7.028a2.2,2.2,0,0,0,2.2-2.2V85.148A2.2,2.2,0,0,0,266.873,82.951Z" transform="translate(-247.984 -79.437)"/><path class="a" d="M247.688,409.741c-.071-.154.122.186,0-.075l-.069.539-.756.107c-.243,0-3.857-.014-4.53,0,0,.052.16.034.178.082l1.291,3.138a.437.437,0,0,0,.333.273.5.5,0,0,0,.078.007.443.443,0,0,0,.33-.148l3.075-3.459A.427.427,0,0,0,247.688,409.741Z" transform="translate(-232.353 -392.727)"/><path class="a" d="M15.351,16.989,9.64.3A.439.439,0,0,0,9.225,0H2.2A2.2,2.2,0,0,0,0,2.2V15.374a2.2,2.2,0,0,0,2.2,2.2H14.935a.439.439,0,0,0,.416-.582Z" transform="translate(0)"/><g transform="translate(3.734 4.514)"><path class="b" d="M90.909,136.575a.494.494,0,0,1-.465-.328l-2-5.609-2,5.609a.494.494,0,0,1-.929-.332l2.468-6.91a.513.513,0,0,1,.929,0l2.468,6.91a.494.494,0,0,1-.3.631A.5.5,0,0,1,90.909,136.575Z" transform="translate(-85.487 -128.711)"/><path class="b" d="M119.8,214.32h-1.974a.494.494,0,1,1,0-.987H119.8a.494.494,0,1,1,0,.987Z" transform="translate(-115.859 -209.418)"/></g></g><text class="c" transform="translate(17.058 11.509)"><tspan x="-2.352" y="0">เคนเคฟ</tspan></text></g></svg>