<svg xmlns="http://www.w3.org/2000/svg" width="16.684" height="22.279" viewBox="0 0 16.684 22.279"><defs><style>.a{fill:none;stroke:#a89abf;stroke-linecap:square;stroke-miterlimit:10;stroke-width:1.3px;}</style></defs><g transform="translate(0.65 0.65)"><path class="a" d="M28.391,6.2A4.2,4.2,0,0,0,24.2,2h0A4.2,4.2,0,0,0,20,6.2V8.643" transform="translate(-16.504 -2)"/><path class="a" d="M23.986,38.587H11.4a1.4,1.4,0,0,1-1.4-1.4V27.4A1.4,1.4,0,0,1,11.4,26H23.986a1.4,1.4,0,0,1,1.4,1.4v9.79A1.4,1.4,0,0,1,23.986,38.587Z" transform="translate(-10 -17.608)"/><line class="a" y2="1" transform="translate(7.576 16.327)"/><ellipse class="a" cx="2.5" cy="3" rx="2.5" ry="3" transform="translate(5.576 10.327)"/></g></svg>