<svg xmlns="http://www.w3.org/2000/svg" width="21.585" height="23.248" viewBox="0 0 21.585 23.248"><defs><style>.a{fill:#a89abf;stroke:#a89abf;stroke-width:0.5px;}</style></defs><g transform="translate(0.25 0.25)"><path class="a" d="M10.157,21.444H4.224A2.925,2.925,0,0,1,1.3,18.524V4.224A2.925,2.925,0,0,1,4.224,1.3h6.03a.652.652,0,1,0,0-1.3H4.224A4.229,4.229,0,0,0,0,4.224v14.3a4.229,4.229,0,0,0,4.224,4.224h5.933a.652.652,0,0,0,0-1.3Z" transform="translate(21.085 22.748) rotate(180)"/><path class="a" d="M15.907,4.334,11.765.192a.652.652,0,0,0-.922.922l3.032,3.032H.652a.652.652,0,1,0,0,1.3H13.875L10.843,8.481A.654.654,0,0,0,11.3,9.6.636.636,0,0,0,11.76,9.4L15.9,5.261A.651.651,0,0,0,15.907,4.334Z" transform="translate(0 6.571)"/></g></svg>