<svg xmlns="http://www.w3.org/2000/svg" width="20.904" height="20.904" viewBox="0 0 20.904 20.904"><defs><style>.a{fill:#8a7e9f;}</style></defs><g transform="translate(-1123.667 -616.333)"><path class="a" d="M10.452,0A10.452,10.452,0,1,0,20.9,10.452,10.452,10.452,0,0,0,10.452,0Zm0,19.271a8.819,8.819,0,1,1,8.819-8.819A8.819,8.819,0,0,1,10.452,19.271Z" transform="translate(1123.667 616.333)"/><path class="a" d="M1.207,9.566A1.207,1.207,0,1,1,2.415,8.358,1.208,1.208,0,0,1,1.207,9.566Zm.929-3.993H.279V0H2.136V5.572Z" transform="translate(1135.473 631.639) rotate(180)"/></g></svg>