<svg xmlns="http://www.w3.org/2000/svg" width="34" height="32.522" viewBox="0 0 34 32.522"><defs><style>.a{fill:#8a7e9f;}</style></defs><g transform="translate(-1337.999 -3289)"><g transform="translate(1337.999 3289)"><path class="a" d="M-106.021,484.2h-18.863l15.73-6.172a.693.693,0,0,0,.4-.9.71.71,0,0,0-.917-.389l-19.012,7.466h-.536c-2.491,0-5.4,1.391-5.4,5.323v14.361c0,3.932,2.908,5.323,5.4,5.323h23.2c2.491,0,5.4-1.391,5.4-5.323V489.534C-100.615,485.6-103.509,484.2-106.021,484.2Zm.007,23.615h-23.21a3.637,3.637,0,0,1-3.988-3.932V489.534a3.651,3.651,0,0,1,3.988-3.931h23.2a3.637,3.637,0,0,1,3.988,3.931l.007,14.354A3.651,3.651,0,0,1-106.013,507.82Z" transform="translate(134.622 -476.689)"/><path class="a" d="M-124.533,498.522h20.928a.7.7,0,0,0,.738-.652v-3.76a.7.7,0,0,0-.738-.652h-20.928a.7.7,0,0,0-.738.652v3.76A.7.7,0,0,0-124.533,498.522Zm14.977-3.76h5.214v2.456h-5.214Zm-14.24,0h12.765v2.456H-123.8Z" transform="translate(131.07 -482.213)"/><path class="a" d="M-100.106,505.185a4.834,4.834,0,0,0-4.834,4.834,4.834,4.834,0,0,0,4.834,4.834,4.834,4.834,0,0,0,4.834-4.834A4.835,4.835,0,0,0-100.106,505.185Zm0,8.366a3.532,3.532,0,0,1-3.531-3.531,3.532,3.532,0,0,1,3.531-3.531,3.532,3.532,0,0,1,3.531,3.531A3.539,3.539,0,0,1-100.106,513.551Z" transform="translate(125.955 -485.446)"/><path class="a" d="M-113.814,512.466a2.5,2.5,0,0,0-2.5,2.5,2.5,2.5,0,0,0,2.5,2.5,2.5,2.5,0,0,0,2.5-2.5A2.5,2.5,0,0,0-113.814,512.466Zm0,3.682a1.192,1.192,0,0,1-1.192-1.193,1.192,1.192,0,0,1,1.192-1.192,1.192,1.192,0,0,1,1.192,1.192A1.192,1.192,0,0,1-113.814,516.148Z" transform="translate(128.787 -488.213)"/><path class="a" d="M-124.237,512.466a2.5,2.5,0,0,0-2.5,2.5,2.5,2.5,0,0,0,2.5,2.5,2.5,2.5,0,0,0,2.5-2.5A2.494,2.494,0,0,0-124.237,512.466Zm0,3.682a1.192,1.192,0,0,1-1.192-1.193,1.192,1.192,0,0,1,1.192-1.192,1.192,1.192,0,0,1,1.192,1.192A1.192,1.192,0,0,1-124.237,516.148Z" transform="translate(132.108 -488.213)"/></g></g></svg>