<svg xmlns="http://www.w3.org/2000/svg" width="34.332" height="34.296" viewBox="0 0 34.332 34.296"><defs><style>.a{fill:#8a7e9f;stroke:#8a7e9f;stroke-width:0.3px;}</style></defs><g transform="translate(2437.161 -15929.85)"><path class="a" d="M28.447,16.1a.664.664,0,0,0-.555-.3H6.135a.664.664,0,0,0-.555.3L.127,24.386A.653.653,0,0,0,.06,24.5a.666.666,0,0,0,.105.713l2.764,3.161a.664.664,0,1,0,1-.876l-1.8-2.058H11.06L15.548,40.79l-5.072-5.8a.664.664,0,1,0-1,.877L16.5,43.9a.663.663,0,0,0,1,0l7.48-8.556a.664.664,0,1,0-1-.876L18.456,40.79l4.488-15.348h8.928l-4.129,4.724a.664.664,0,1,0,1,.876l5.093-5.827a.665.665,0,0,0,.056-.8ZM1.9,24.111l4.236-6.44,4.216,6.44Zm5.467-6.986h8.409l-4.2,6.422ZM17,17.673l4.215,6.438h-8.43ZM17,41.03,12.444,25.442H21.56Zm5.445-17.467-4.215-6.438h8.43Zm1.229.548,4.215-6.438,4.215,6.438Z" transform="translate(-2437 15919.868)"/><path class="a" d="M14.961,53.966a.658.658,0,0,0-.658-.659,3.084,3.084,0,0,1-3.08-3.08.659.659,0,1,0-1.317,0,3.084,3.084,0,0,1-3.08,3.08.659.659,0,0,0,0,1.317,3.084,3.084,0,0,1,3.08,3.08.659.659,0,1,0,1.317,0,3.084,3.084,0,0,1,3.08-3.08A.658.658,0,0,0,14.961,53.966Zm-4.4,1.426a4.428,4.428,0,0,0-1.426-1.426,4.432,4.432,0,0,0,1.426-1.427,4.437,4.437,0,0,0,1.427,1.427A4.432,4.432,0,0,0,10.564,55.393Z" transform="translate(-2440.952 15898.428)"/><path class="a" d="M76.2,3.978a1.978,1.978,0,0,1,1.975,1.975.658.658,0,1,0,1.317,0,1.977,1.977,0,0,1,1.975-1.975.659.659,0,0,0,0-1.317A1.977,1.977,0,0,1,79.491.685a.658.658,0,0,0-1.317,0A1.978,1.978,0,0,1,76.2,2.661a.659.659,0,1,0,0,1.317Zm2.634-1.319a3.307,3.307,0,0,0,.66.66,3.317,3.317,0,0,0-.66.66,3.326,3.326,0,0,0-.66-.66A3.317,3.317,0,0,0,78.832,2.659Z" transform="translate(-2485.124 15929.973)"/><path class="a" d="M71.378,60.974a.659.659,0,1,0,.465.193A.661.661,0,0,0,71.378,60.974Z" transform="translate(-2482.097 15891.107)"/></g></svg>