<svg xmlns="http://www.w3.org/2000/svg" width="28.082" height="19.502" viewBox="0 0 28.082 19.502"><defs><style>.a,.b,.c,.e{fill:none;}.a,.b{stroke:#8a7e9f;stroke-width:1.3px;}.a{stroke-linecap:round;}.d,.f{stroke:none;}.f{fill:#8a7e9f;}</style></defs><g transform="translate(14963.65 -14825)"><line class="a" x2="6.155" transform="translate(-14963 14829.069)"/><line class="a" x2="4.657" transform="translate(-14961.502 14833.121)"/><line class="a" x2="3.459" transform="translate(-14960.304 14836.542)"/><g class="b" transform="translate(-14950.118 14830.991)"><circle class="d" cx="1.198" cy="1.198" r="1.198"/><circle class="e" cx="1.198" cy="1.198" r="0.548"/></g><g class="b" transform="translate(-14946.522 14830.991)"><circle class="d" cx="1.198" cy="1.198" r="1.198"/><circle class="e" cx="1.198" cy="1.198" r="0.548"/></g><g class="b" transform="translate(-14942.928 14830.991)"><circle class="d" cx="1.198" cy="1.198" r="1.198"/><circle class="e" cx="1.198" cy="1.198" r="0.548"/></g><g class="b" transform="translate(-14954.516 14825)"><rect class="d" width="18.948" height="15.246" rx="2"/><rect class="e" x="0.65" y="0.65" width="17.648" height="13.946" rx="1.35"/></g><g class="c" transform="translate(-14946.719 14844.502) rotate(-173)"><path class="d" d="M6.467,0V3.642L0,4.913Z"/><path class="f" d="M 6.466700553894043 4.76837158203125e-07 L 6.466700553894043 3.642080545425415 L 4.76837158203125e-07 4.912600517272949 L 6.466700553894043 4.76837158203125e-07 Z"/></g></g></svg>