<svg xmlns="http://www.w3.org/2000/svg" width="58" height="58" viewBox="0 0 58 58"><defs><style>.a{fill:#0bd671;stroke:#0bd671;}.b{fill:#1d0740;}.c{stroke:none;}.d{fill:none;}</style></defs><g transform="translate(-8484.091 -1953.267)"><g class="a" transform="translate(8484.091 1953.267)"><circle class="c" cx="29" cy="29" r="29"/><circle class="d" cx="29" cy="29" r="28.5"/></g><path class="b" d="M19.353,484.231,10.344,475.1v5.98A10.787,10.787,0,0,0,3.2,484.31,11.074,11.074,0,0,0,0,492.14v2.314l1.1-2.03a9.746,9.746,0,0,1,8.564-5.133q.34,0,.681.024v6.043Zm-9.69,1.876a10.878,10.878,0,0,0-8.238,3.787,9.8,9.8,0,0,1,9.5-7.64h.586v-4.287l6.183,6.264L11.514,490.5v-4.241L11,486.19A10.8,10.8,0,0,0,9.663,486.106Z" transform="translate(8503.091 1497.165)"/></g></svg>