<svg xmlns="http://www.w3.org/2000/svg" width="58" height="58" viewBox="0 0 58 58"><defs><style>.a{fill:#0bd671;stroke:#0bd671;}.b,.d{fill:none;}.b{stroke:#1d0740;stroke-linejoin:round;stroke-miterlimit:10;stroke-width:1.5px;}.c{stroke:none;}</style></defs><g transform="translate(-8484.091 -1953.267)"><g class="a" transform="translate(8484.091 1953.267)"><circle class="c" cx="29" cy="29" r="29"/><circle class="d" cx="29" cy="29" r="28.5"/></g><g transform="translate(3.334 -14.725)"><path class="b" d="M359.328-270.669H346.484a2.447,2.447,0,0,0-2.446,2.446v10.4a2.447,2.447,0,0,0,2.446,2.446H353.4l4.268,4.416a.612.612,0,0,0,1.051-.425v-3.991h.612a2.447,2.447,0,0,0,2.446-2.446v-10.4A2.447,2.447,0,0,0,359.328-270.669Z" transform="translate(8156.719 2257.66)"/><path class="b" d="M352.038-261.335h10.4" transform="translate(8152.389 2252.608)"/><path class="b" d="M352.038-254.669h10.4" transform="translate(8152.389 2249)"/><path class="b" d="M352.038-248h4.893" transform="translate(8152.389 2245.391)"/></g></g></svg>