<svg xmlns="http://www.w3.org/2000/svg" width="58" height="58" viewBox="0 0 58 58"><defs><style>.a,.b,.d{fill:none;}.a,.b{stroke:#fff;}.a{opacity:0.5;}.b{stroke-linejoin:round;stroke-miterlimit:10;}.c{stroke:none;}</style></defs><g transform="translate(-8484.091 -1953.267)"><g class="a" transform="translate(8484.091 1953.267)"><circle class="c" cx="29" cy="29" r="29"/><circle class="d" cx="29" cy="29" r="28.5"/></g><g transform="translate(0.431 -17.85)"><path class="b" d="M364.213-270.669H347.266a3.228,3.228,0,0,0-3.228,3.228v13.719a3.228,3.228,0,0,0,3.228,3.228h9.122l5.631,5.827a.807.807,0,0,0,1.387-.561v-5.267h.807a3.228,3.228,0,0,0,3.228-3.228v-13.719A3.228,3.228,0,0,0,364.213-270.669Z" transform="translate(8156.719 2257.66)"/><path class="b" d="M352.038-261.335h13.719" transform="translate(8153.561 2253.976)"/><path class="b" d="M352.038-254.669h13.719" transform="translate(8153.561 2251.344)"/><path class="b" d="M352.038-248h6.456" transform="translate(8153.561 2248.713)"/></g></g></svg>