<svg xmlns="http://www.w3.org/2000/svg" width="104.907" height="43" viewBox="0 0 104.907 43"><defs><style>.a{fill:#83ccb0;}.b{fill:#ed1c24;}.c{fill:#fff;}.d{fill:#ffeaaa;}.e{fill:#eacf86;}.f{fill:#e0c580;}.g{fill:#c9aa5d;}.h{fill:#ccb16d;}.i{fill:#e0c885;}.j{fill:#c6ac6d;}.k{fill:#bfa562;}.l{fill:#b65a18;}.m{fill:#e0c47e;}.n{fill:#fff5de;}.o{fill:#fadbd1;}.p{fill:#b20f17;}.q{fill:#d21014;}.r{fill:#e2000f;}</style></defs><g transform="translate(31.641 7.477)"><path class="a" d="M51.413,9.36A16.413,16.413,0,1,1,35,25.773,16.413,16.413,0,0,1,51.413,9.36" transform="translate(-35 -9.36)"/></g><g transform="translate(44.753 9.77)"><path class="b" d="M53.243,11.86A3.943,3.943,0,1,1,49.3,15.8a3.943,3.943,0,0,1,3.943-3.943" transform="translate(-49.3 -11.86)"/></g><g transform="translate(35.4 14.171)"><path class="b" d="M43.043,16.66a3.962,3.962,0,1,0,0,.037" transform="translate(-39.1 -16.66)"/></g><g transform="translate(35.125 24.569)"><path class="b" d="M42.743,28A3.943,3.943,0,1,1,38.8,31.943,3.943,3.943,0,0,1,42.743,28" transform="translate(-38.8 -28)"/></g><g transform="translate(52.272 25.358)"><path class="b" d="M61.443,28.86A3.943,3.943,0,1,1,57.5,32.8a3.943,3.943,0,0,1,3.943-3.943" transform="translate(-57.5 -28.86)"/></g><g transform="translate(43.469 29.943)"><path class="b" d="M51.843,33.86A3.943,3.943,0,1,1,47.9,37.8a3.943,3.943,0,0,1,3.943-3.943" transform="translate(-47.9 -33.86)"/></g><g transform="translate(53.281 15.913)"><path class="b" d="M62.543,18.56A3.943,3.943,0,1,1,58.6,22.5a3.943,3.943,0,0,1,3.943-3.943" transform="translate(-58.6 -18.56)"/></g><g transform="translate(45.762 21.323)"><path class="b" d="M52.509,24.46A2.109,2.109,0,1,1,50.4,26.569a2.109,2.109,0,0,1,2.109-2.109" transform="translate(-50.4 -24.46)"/></g><g transform="translate(5.659 24.369)"><path class="c" d="M11.465,28.5c3.3-1.834,5.043-.183,3.76,5.5-1.1,5.043,3.76-.275,7.061,1.284,2.659,1.284,4.31,5.318.275,5.868-3.484.55-10.912,2.2-13.938.917-1.192-.55-2.476-3.668-1.742-4.952S9.173,35.1,9.815,33.905s.367-3.668.367-4.952c-.092-.917.917-.55,1.284-.458" transform="translate(-6.666 -27.781)"/></g><g transform="translate(56.187 8.802)"><path class="d" d="M62.9,27.361s-1.834-.917-.825-2.109.917-1.559.917-1.559a.486.486,0,0,1,.458-.367c.367,0-.275-.642-.092-1.009a3.925,3.925,0,0,1,.825-1.192c.275-.275.367-.458.734-.367s-1.192-.275-.183-1.651-.367-1.375.367-1.1a4.786,4.786,0,0,1,1.1.55l.458-.917c.183-.367.092-.367.55-.458s.275-1.375.275-1.375,0-1.192.367-1.284-.825-1.559.367-1.926,1.375-.642,1.742-.183-.183.458.734.458.917-.275,1.192.183.183-1.1.734-1.1.917-.458,1.284-.183.092-.642.825-.642.275-.734.734,0a1.834,1.834,0,0,0,1.1.917c.367.183.367.275.275.734s0-.367.734-.458a3.778,3.778,0,0,1,1.834.183,1.375,1.375,0,0,1,.917.825c.183.458.092.55.275.825s0-.825.275-1.192.275-.917.734-.275.642.917.642,1.284.917-.55.917.183,2.017.092,2.017,1.1,0,1.375-.367,1.742.367-.092.642.458a1.834,1.834,0,0,1,.275,1.284c-.092.458,0-.183.917-.092s1.375.183,1.559.734-.55.367.183.55.917-.367,1.009.275.183.917,0,1.284a1.953,1.953,0,0,1-.825.642Z" transform="translate(-61.77 -10.804)"/></g><g transform="translate(57.834 7.707)"><path class="d" d="M65.706,10.885s.825,0,.917.367a2.42,2.42,0,0,1,.092.642c0,.183.367.183.092.642a2.439,2.439,0,0,1-2.017,1.009c-.734-.183-1.375-.55-1.192-1.1l.183-.55s-.275-.458,0-.734a1.164,1.164,0,0,1,.734-.275s-.183-.917.092-1.1.734-.275.734,0,.367.642.367.825l-.092.275Z" transform="translate(-63.565 -9.611)"/></g><g transform="translate(60.672)"><path class="d" d="M67.889,2.448s-.092-.825.55-1.009S70,.98,70.365,1.531a2.668,2.668,0,0,1,.458.917c0,.183.734-.092.917.458s.642.642.275.917a1.275,1.275,0,0,0-.458.642.578.578,0,0,1-.092.825c-.275.367-.642.734-.917.367A5.3,5.3,0,0,1,70.089,4.1a3.531,3.531,0,0,1-1.009.734A3.365,3.365,0,0,1,67.43,4.74c-.367-.183-.917-1.009-.734-1.375s.367-.825.55-.825a5.172,5.172,0,0,0,.642-.092" transform="translate(-66.66 -1.206)"/></g><g transform="translate(67.55 3.082)"><path class="d" d="M74.564,6.119s-.183-.917.183-1.1,1.009-.642,1.284-.367l.55.367s.092-.183.734-.092.642.275.642.458.275.458.183.55.367.458.275.642c-.275.275-.275.55-.734.55s-.367.092-.642-.275a5.611,5.611,0,0,0-.458-.55l-.183.55a.679.679,0,0,1-.458.55c-.367.183-.642.55-.917.458a2.118,2.118,0,0,1-.825-.55,1.494,1.494,0,0,1,0-.642,5.432,5.432,0,0,1,.367-.55" transform="translate(-74.162 -4.566)"/></g><g transform="translate(73.129 4.236)"><path class="d" d="M81.121,7.233s-.092-.734.458-.917,1.375-.734,1.834-.367.825.55.825.917v.458s.642-.092.825.183.458.458.458.734a1.751,1.751,0,0,1-.275.734c-.183.183.092,1.009.092,1.009a1.357,1.357,0,0,1-.642.458.7.7,0,0,1-.825-.275,1.65,1.65,0,0,1-.183-.917,1.834,1.834,0,0,0-.183-.642,1.366,1.366,0,0,1-.55.642c-.367.183-.642.642-1.192.55s-.917-.183-1.1-.55-.55-.642-.367-1.009.275-.734.458-.825a.569.569,0,0,1,.367-.183" transform="translate(-80.245 -5.825)"/></g><g transform="translate(82.165 8.643)"><path class="d" d="M91.2,13.72s-.183-1.651.367-1.467.275-.275.275-.275a2.668,2.668,0,0,1,.458-.917c.275-.275.458-.642.642-.275s.367.458.367.917v1.009s.642.183.642.458.183.55.092.825a.681.681,0,0,1-.55.55,5.447,5.447,0,0,1-1.009.092s.092.092-.183.367a1.44,1.44,0,0,1-1.192.367C90.65,15.279,90.1,15,90.1,14.637s.092-.55.367-.642a4.052,4.052,0,0,1,.734-.275" transform="translate(-90.1 -10.632)"/></g><g transform="translate(64.192 14.75)"><path class="e" d="M71.509,20.38s-.183-1.651.367-1.467.367-.275.367-.275a2.668,2.668,0,0,1,.458-.917c.275-.275.458-.642.642-.275s.367.458.367.917v1.009s.642.183.642.458.183.55.092.825a.681.681,0,0,1-.55.55,5.447,5.447,0,0,1-1.009.092s.092.092-.183.367a1.44,1.44,0,0,1-1.192.367c-.459-.092-1.009-.367-1.009-.734s.092-.55.367-.642a2.384,2.384,0,0,1,.642-.275" transform="translate(-70.5 -17.292)"/></g><g transform="translate(59.182 19.875)"><path class="e" d="M66.1,23.907s1.009.275.825.55.092.275.092.275a1.009,1.009,0,0,1,.458.458c.092.275.275.367,0,.458a.779.779,0,0,1-.642,0,6.1,6.1,0,0,1-.642-.275s-.275.367-.458.275-.367,0-.458-.183-.275-.183-.183-.458.183-.642.183-.642-.092,0-.183-.183a.917.917,0,0,1,.092-.825c.183-.275.458-.55.642-.458s.275.183.275.367Z" transform="translate(-65.036 -22.88)"/></g><g transform="translate(66.465 14.48)"><path class="f" d="M74.044,18.027s1.009.266.825.541.092.284.092.284a.917.917,0,0,1,.458.458c.092.266.275.358,0,.458a.779.779,0,0,1-.642,0c-.275-.1-.642-.284-.642-.284s-.275.376-.458.284-.367,0-.458-.193-.275-.174-.183-.458.183-.633.183-.633-.092,0-.183-.193a.917.917,0,0,1,.092-.816c.183-.284.458-.559.642-.458s.275.174.275.358Z" transform="translate(-72.979 -16.997)"/></g><g transform="translate(68.251 14.942)"><path class="e" d="M75.993,18.527s1.009.275.825.55.092.275.092.275a1.009,1.009,0,0,1,.458.458c.092.275.275.367,0,.458a.779.779,0,0,1-.642,0,6.105,6.105,0,0,1-.642-.275s-.275.367-.458.275-.367,0-.458-.183-.275-.183-.183-.458.183-.642.183-.642-.092,0-.183-.183a.917.917,0,0,1,.092-.825c.183-.275.458-.55.642-.458s.275.183.275.367Z" transform="translate(-74.926 -17.5)"/></g><g transform="translate(73.729 5.7)"><path class="e" d="M82,8.007s-.183.642.367.55.367.092.367.092a1.036,1.036,0,0,0,.458.367c.275.092.458.275.642.092s.367-.183.367-.367V8.374s.642-.092.642-.183.183-.183.092-.275-.183-.183-.55-.183H83.376s.092,0-.183-.183a2.824,2.824,0,0,0-1.284-.092c-.458,0-1.009.092-1.009.275s.092.183.367.275a1.706,1.706,0,0,1,.734,0" transform="translate(-80.9 -7.421)"/></g><g transform="translate(66.723 17.725)"><path class="g" d="M73.434,21.759s-.147-.724.147-.862.8-.513,1.009-.293a3.255,3.255,0,0,0,.44.367s.073-.147.578-.073.5.211.5.358.22.367.147.431.293.367.22.513-.073.431-.44.431-.358.073-.5-.211a1.256,1.256,0,0,0-.358-.44l-.147.44a.541.541,0,0,1-.367.431c-.284.147-.5.431-.724.358a1.715,1.715,0,0,1-.651-.431,1.155,1.155,0,0,1,0-.5.578.578,0,0,1,.147-.513" transform="translate(-73.26 -20.536)"/></g><g transform="translate(64.032 15.98)"><path class="h" d="M70.733,19.391s-.092-.458.092-.55.458-.275.642-.183a1.137,1.137,0,0,1,.275.183s.092-.092.367,0,.275.183.275.275.092.183.092.275.183.183.092.367,0,.275-.275.275-.183,0-.367-.183a.688.688,0,0,0-.275-.275.917.917,0,0,0-.092.275c-.092.092-.092.183-.275.275s-.367.275-.458.183-.458-.183-.458-.275-.092-.183,0-.367a.633.633,0,0,0,.367-.275" transform="translate(-70.326 -18.633)"/></g><g transform="translate(67.911 3.509)"><path class="i" d="M74.78,5.791s-.092-.458.092-.55.458-.275.642-.183a1.137,1.137,0,0,1,.275.183s.092-.092.367,0,.275.183.275.275.092.183.092.275.183.183.092.367,0,.275-.275.275-.183,0-.367-.183a.917.917,0,0,0-.092-.33.917.917,0,0,0-.092.275c-.092.092-.092.183-.275.275s-.367.275-.458.183S74.6,6.47,74.6,6.378s-.092-.183,0-.367c.092,0,.183-.183.183-.183" transform="translate(-74.556 -5.033)"/></g><g transform="translate(83.224 10.753)"><path class="i" d="M91.663,13.691s-.092-.458.092-.55.458-.275.642-.183a1.137,1.137,0,0,1,.275.183s.092-.092.367,0,.275.183.275.275.092.183.092.275.183.183.092.367,0,.275-.275.275-.183,0-.367-.183a.688.688,0,0,0-.275-.275.917.917,0,0,0-.092.275c-.092.092-.092.183-.275.275s-.367.275-.458.183-.458-.183-.458-.275-.092-.183,0-.367a2.754,2.754,0,0,0,.367-.275" transform="translate(-91.256 -12.933)"/></g><g transform="translate(66.151 16.377)"><path class="j" d="M73.043,19.831s-.092-.458.092-.559.458-.266.642-.183a1.137,1.137,0,0,1,.275.183s.092-.092.367,0,.275.193.275.275.092.183.092.284.183.174.092.358,0,.275-.275.275-.183,0-.367-.174A.669.669,0,0,0,73.96,20a.917.917,0,0,0-.092.284c-.092.092-.092.174-.275.266s-.367.284-.458.193-.458-.193-.458-.284-.092-.174,0-.367a2.385,2.385,0,0,0,.367-.266" transform="translate(-72.636 -19.066)"/></g><g transform="translate(61.676 1.034)"><path class="i" d="M67.98,3.091s-.092-.458.092-.55.458-.275.642-.183a1.137,1.137,0,0,1,.275.183s.092-.092.367,0,.275.183.275.275.183.092.092.183.183.183.092.367,0,.275-.275.275-.183,0-.367-.183a.688.688,0,0,0-.275-.275.916.916,0,0,0-.092.275c.092.092.092.183-.092.275s-.367.275-.458.183-.458-.183-.458-.275-.092-.183,0-.367Z" transform="translate(-67.756 -2.333)"/></g><g transform="translate(58.467 8.828)"><path class="i" d="M64.663,11.591s-.092-.458.092-.55.458-.275.642-.183a1.137,1.137,0,0,1,.275.183s.092-.092.367,0,.275.183.275.275.092.183.092.275.183.183.092.367,0,.275-.275.275-.183,0-.367-.183a.688.688,0,0,0-.275-.275.917.917,0,0,0-.092.275c-.092.092-.092.183-.275.275s-.367.275-.458.183-.458-.183-.458-.275-.092-.183,0-.367a.633.633,0,0,0,.367-.275" transform="translate(-64.256 -10.833)"/></g><g transform="translate(64.385 18.151)"><path class="k" d="M71.627,22.834s-.458.183-.559,0-.358-.367-.358-.55a1.339,1.339,0,0,1,.174-.275s-.083,0-.083-.367.083-.367.174-.367.193-.183.284-.092.174-.183.266-.183.275,0,.275.183.092.183-.083.367a.7.7,0,0,0-.193.275H71.8c.092,0,.183,0,.376.183s.266.275.266.367-.092.458-.183.458-.174.092-.275.092a.917.917,0,0,1-.358-.092" transform="translate(-70.71 -21)"/></g><g transform="translate(62.872 11.504)"><path class="e" d="M70.069,16.84s-.183-1.641.367-1.467.367-.266.367-.266a2.6,2.6,0,0,1,.458-.917c.275-.284.458-.651.642-.284s.367.458.367.917v.99s.642.193.642.458.183.55.092.825a.681.681,0,0,1-.55.55,5.447,5.447,0,0,1-1.009.092s.092.1-.183.367a1.412,1.412,0,0,1-1.192.367c-.458-.083-1.009-.367-1.009-.734s.092-.55.367-.642a2.751,2.751,0,0,1,.642-.275" transform="translate(-69.06 -13.752)"/></g><g transform="translate(65.139 11.237)"><path class="f" d="M72.594,14.487s1.009.275.834.55.083.275.083.275.376.183.458.458.284.367,0,.458a.761.761,0,0,1-.633,0,5.73,5.73,0,0,1-.651-.275s-.266.367-.458.275-.358,0-.458-.183-.266-.183-.174-.458.174-.642.174-.642-.092,0-.174-.183a.917.917,0,0,1,.083-.825c.193-.275.458-.55.651-.458s.266.183.266.367Z" transform="translate(-71.532 -13.46)"/></g><g transform="translate(62.557 10.705)"><path class="f" d="M69.783,13.907s1.009.275.825.55.092.275.092.275a1.009,1.009,0,0,1,.458.458c.092.275.275.367,0,.458a.779.779,0,0,1-.642,0,6.107,6.107,0,0,1-.642-.275s-.275.367-.458.275-.367,0-.458-.183-.275-.183-.183-.458.183-.642.183-.642-.092,0-.183-.183a.917.917,0,0,1,.092-.825c.183-.275.458-.55.642-.458s.275.183.275.367Z" transform="translate(-68.716 -12.88)"/></g><g transform="translate(66.921 11.696)"><path class="e" d="M74.543,14.987s1.009.275.825.55.092.275.092.275a1.009,1.009,0,0,1,.458.458c.092.275.275.367,0,.458a.779.779,0,0,1-.642,0,6.107,6.107,0,0,1-.642-.275s-.275.367-.458.275-.367,0-.458-.183-.275-.183-.183-.458.183-.642.183-.642-.092,0-.183-.183a.917.917,0,0,1,.092-.825c.183-.275.458-.55.642-.458s.275.183.275.367Z" transform="translate(-73.476 -13.96)"/></g><g transform="translate(67.846 13.102)"><path class="e" d="M75.874,16.233s1.284.367,1.009.642.092.275.092.275.458.275.55.55.367.458.092.458a1.973,1.973,0,0,1-.734,0l-.825-.275s-.275.275-.458.275a1.7,1.7,0,0,1-.642-.183c-.183-.092-.367-.183-.275-.458a1.833,1.833,0,0,1,.183-.642s-.092,0-.275-.183-.092-.642,0-.825a.743.743,0,0,1,.734-.367c.275.092.367.183.367.458.183,0,.183.275.183.275" transform="translate(-74.485 -15.494)"/></g><g transform="translate(65.393 14.482)"><path class="g" d="M71.984,18.229s-.147-.724.138-.871.8-.5,1.018-.293a3.558,3.558,0,0,0,.431.367s.073-.147.587-.073.5.22.5.358.211.367.147.44.284.358.211.5-.073.431-.431.431-.358.073-.5-.211a1.219,1.219,0,0,0-.367-.44l-.147.44a.55.55,0,0,1-.358.431c-.293.147-.5.44-.724.367a1.641,1.641,0,0,1-.651-.44,1.156,1.156,0,0,1,0-.5.569.569,0,0,1,.147-.5" transform="translate(-71.81 -16.999)"/></g><g transform="translate(62.712 12.743)"><path class="h" d="M69.293,15.861s-.092-.458.092-.55.458-.275.642-.183a1.138,1.138,0,0,1,.275.183s.092-.092.367,0,.275.183.275.275.092.183.092.275.183.183.092.367,0,.275-.275.275-.183,0-.367-.183a.688.688,0,0,0-.275-.275.917.917,0,0,0-.092.275c-.092.092-.092.183-.275.275s-.367.275-.458.183-.458-.183-.458-.275-.092-.183,0-.367a.633.633,0,0,0,.367-.275" transform="translate(-68.886 -15.103)"/></g><g transform="translate(64.83 13.137)"><path class="j" d="M71.6,16.291s-.092-.458.092-.55.458-.275.642-.183a1.137,1.137,0,0,1,.275.183s.092-.092.367,0,.275.183.275.275.092.183.092.275.183.183.092.367,0,.275-.275.275-.183,0-.367-.183a.688.688,0,0,0-.275-.275.917.917,0,0,0-.092.275c-.092.092-.092.183-.275.275s-.367.275-.459.183-.458-.183-.458-.275-.092-.183,0-.367a2.749,2.749,0,0,0,.367-.275" transform="translate(-71.196 -15.533)"/></g><g transform="translate(63.055 14.932)"><path class="k" d="M70.177,19.324s-.458.183-.55,0-.367-.367-.367-.55a1.137,1.137,0,0,1,.183-.275s-.092,0-.092-.367.092-.367.183-.367.183-.183.275-.092.183-.183.275-.183.275,0,.275.183.092.183-.092.367-.183.275-.183.275h.275c.092,0,.183,0,.367.183s.275.275.275.367-.092.458-.183.458-.183.092-.275.092a.917.917,0,0,1-.367-.092" transform="translate(-69.26 -17.49)"/></g><g transform="translate(69.612 19.636)"><path class="k" d="M77.327,24.454s-.458.183-.55,0-.367-.367-.367-.55a1.138,1.138,0,0,1,.183-.275s-.092,0-.092-.367.092-.367.183-.367.183-.183.275-.092.183-.183.275-.183.275,0,.275.183.092.183-.092.367-.183.275-.183.275h.275c.092,0,.183,0,.367.183s.275.275.275.367-.092.458-.183.458-.183.092-.275.092a.917.917,0,0,1-.367-.092" transform="translate(-76.41 -22.62)"/></g><g transform="translate(79.322 22.653)"><path class="l" d="M87,25.91" transform="translate(-87 -25.91)"/></g><g transform="translate(64.559 19.106)"><path class="e" d="M71.909,25.13s-.183-1.651.367-1.467.367-.275.367-.275a2.668,2.668,0,0,1,.458-.917c.275-.275.458-.642.642-.275s.367.458.367.917v1.009s.642.183.642.458.183.55.092.825a.681.681,0,0,1-.55.55,5.446,5.446,0,0,1-1.009.092s.092.092-.183.367a1.44,1.44,0,0,1-1.192.367c-.458-.092-1.009-.367-1.009-.734s.092-.55.367-.642a2.384,2.384,0,0,1,.642-.275" transform="translate(-70.9 -22.042)"/></g><g transform="translate(66.335 17.922)"><path class="f" d="M73.9,21.777s1.009.275.825.55.092.275.092.275a1.009,1.009,0,0,1,.458.458c.092.275.275.367,0,.458a.779.779,0,0,1-.642,0A6.107,6.107,0,0,1,74,23.244s-.275.367-.459.275-.367,0-.458-.183-.275-.183-.183-.458.183-.642.183-.642-.092,0-.183-.183a.917.917,0,0,1,.092-.825c.183-.275.458-.55.642-.458s.275.183.275.367Z" transform="translate(-72.836 -20.75)"/></g><g transform="translate(68.077 18.408)"><path class="e" d="M75.84,22.28s1.009.275.825.55.092.275.092.275a1.009,1.009,0,0,1,.458.458c.092.275.275.367,0,.458a.779.779,0,0,1-.642,0,6.1,6.1,0,0,1-.679-.248s-.275.367-.458.275-.367,0-.458-.183-.275-.183-.183-.458.183-.642.183-.642-.092,0-.183-.183a.917.917,0,0,1,.092-.825c.183-.275.458-.55.642-.458s.275.183.275.367Z" transform="translate(-74.736 -21.28)"/></g><g transform="translate(63.904 19.428)"><path class="h" d="M70.593,23.151s-.092-.458.092-.55.458-.275.642-.183a1.137,1.137,0,0,1,.275.183s.092-.092.367,0,.275.183.275.275.092.183.092.275.183.183.092.367,0,.275-.275.275-.183,0-.367-.183a.688.688,0,0,0-.275-.275.917.917,0,0,0-.092.275c-.092.092-.092.183-.275.275s-.367.275-.458.183-.458-.183-.458-.275-.092-.183,0-.367a.633.633,0,0,0,.367-.275" transform="translate(-70.186 -22.393)"/></g><g transform="translate(66.022 19.822)"><path class="j" d="M72.9,23.581s-.092-.458.092-.55.458-.275.642-.183a1.137,1.137,0,0,1,.275.183s.092-.092.367,0,.275.183.275.275.092.183.092.275.183.183.092.367,0,.275-.275.275-.183,0-.367-.183a.688.688,0,0,0-.275-.275.916.916,0,0,0-.092.275c-.092.092-.092.183-.275.275s-.367.275-.458.183-.458-.183-.458-.275-.092-.183,0-.367a2.749,2.749,0,0,0,.367-.275" transform="translate(-72.496 -22.823)"/></g><g transform="translate(64.247 21.617)"><path class="k" d="M71.477,26.614s-.458.183-.55,0-.367-.367-.367-.55a1.137,1.137,0,0,1,.183-.275s-.092,0-.092-.367.092-.367.183-.367.183-.183.275-.092.183-.183.275-.183.275,0,.275.183.092.183-.092.367-.183.275-.183.275h.275c.092,0,.183,0,.367.183s.275.275.275.367-.092.458-.183.458-.183.092-.275.092a.917.917,0,0,1-.367-.092" transform="translate(-70.56 -24.78)"/></g><g transform="translate(59.828 15.979)"><path class="e" d="M66.749,21.72s-.183-1.651.367-1.467.367-.275.367-.275a2.668,2.668,0,0,1,.458-.917c.275-.275.458-.642.642-.275s.367.458.367.917v1.009s.642.183.642.458.183.55.092.825a.681.681,0,0,1-.55.55,5.447,5.447,0,0,1-1.009.092s.092.092-.183.367a1.44,1.44,0,0,1-1.192.367c-.458-.092-1.009-.367-1.009-.734s.092-.55.367-.642a2.384,2.384,0,0,1,.642-.275" transform="translate(-65.74 -18.632)"/></g><g transform="translate(62.092 15.666)"><path class="f" d="M69.283,19.317s1.009.275.816.55.1.275.1.275a1.054,1.054,0,0,1,.458.458c.092.275.266.367,0,.458a.807.807,0,0,1-.651,0,6.565,6.565,0,0,1-.633-.275s-.284.367-.458.275-.367,0-.458-.183-.284-.183-.193-.458.193-.642.193-.642-.092,0-.193-.183a.917.917,0,0,1,.1-.825c.183-.275.458-.55.642-.458s.275.183.275.367Z" transform="translate(-68.21 -18.29)"/></g><g transform="translate(63.877 16.134)"><path class="e" d="M71.223,19.827s1.009.275.825.55.092.275.092.275a1.009,1.009,0,0,1,.459.458c.092.275.275.367,0,.458a.779.779,0,0,1-.642,0,6.107,6.107,0,0,1-.642-.275s-.275.367-.458.275-.367,0-.458-.183-.275-.183-.183-.458.183-.642.183-.642-.092,0-.183-.183a.917.917,0,0,1,.092-.825c.183-.275.458-.55.642-.458s.275.183.275.367Z" transform="translate(-70.156 -18.8)"/></g><g transform="translate(64.765 17.54)"><path class="e" d="M72.514,21.073s1.284.367,1.009.642.092.275.092.275.458.275.55.55.367.458.092.458a1.973,1.973,0,0,1-.734,0l-.825-.275s-.275.275-.458.275a1.7,1.7,0,0,1-.642-.183c-.183-.092-.367-.183-.275-.458a1.833,1.833,0,0,1,.183-.642s-.092,0-.275-.183-.092-.642,0-.825a.743.743,0,0,1,.734-.367c.275.092.367.183.367.458.183,0,.183.275.183.275" transform="translate(-71.125 -20.334)"/></g><g transform="translate(59.659 17.172)"><path class="h" d="M65.963,20.691s-.092-.458.092-.55.458-.275.642-.183a1.137,1.137,0,0,1,.275.183s.092-.092.367,0,.275.183.275.275.092.183.092.275.183.183.092.367,0,.275-.275.275-.183,0-.367-.183a.688.688,0,0,0-.275-.238.916.916,0,0,0-.092.275c-.092.092-.092.183-.275.275s-.367.275-.458.183-.458-.183-.458-.275-.092-.183,0-.367a.633.633,0,0,0,.367-.275" transform="translate(-65.556 -19.933)"/></g><g transform="translate(61.786 17.566)"><path class="j" d="M68.283,21.121s-.092-.458.092-.55.458-.275.642-.183a1.137,1.137,0,0,1,.275.183s.092-.092.367,0,.275.183.275.275.092.183.092.275.183.183.092.367,0,.275-.275.275-.183,0-.367-.183A.688.688,0,0,0,69.2,21.3a.917.917,0,0,0-.092.275c-.092.092-.092.183-.275.275s-.367.275-.458.183-.458-.183-.458-.275-.092-.183,0-.367a2.75,2.75,0,0,0,.367-.275" transform="translate(-67.876 -20.363)"/></g><g transform="translate(60.011 19.37)"><path class="k" d="M66.857,24.164s-.458.183-.55,0-.367-.367-.367-.55a1.138,1.138,0,0,1,.183-.275s-.092,0-.092-.367.092-.367.183-.367.183-.183.275-.092.183-.183.275-.183.275,0,.275.183.092.183-.092.367-.183.275-.183.275h.275c.092,0,.183,0,.367.183s.275.275.275.367-.092.458-.183.458-.183.092-.275.092a.917.917,0,0,1-.367-.092" transform="translate(-65.94 -22.33)"/></g><g transform="translate(67.237 12.632)"><path class="e" d="M74.829,18.07s-.183-1.651.367-1.467.367-.275.367-.275a2.669,2.669,0,0,1,.458-.917c.275-.275.458-.642.642-.275s.367.458.367.917v1.009s.642.183.642.458.183.55.092.825a.681.681,0,0,1-.55.55,5.447,5.447,0,0,1-1.009.092s.092.092-.183.367a1.44,1.44,0,0,1-1.192.367c-.458-.092-1.009-.367-1.009-.734s.092-.55.367-.642a2.384,2.384,0,0,1,.642-.275" transform="translate(-73.82 -14.982)"/></g><g transform="translate(69.507 12.365)"><path class="f" d="M77.363,15.717s1.009.275.825.55.092.275.092.275a1.009,1.009,0,0,1,.458.458c.092.275.275.367,0,.458a.779.779,0,0,1-.642,0,6.107,6.107,0,0,1-.642-.275s-.275.367-.458.275-.367,0-.459-.183-.275-.183-.183-.458.183-.642.183-.642-.092,0-.183-.183a.917.917,0,0,1,.092-.825c.183-.275.458-.55.642-.458s.275.183.275.367Z" transform="translate(-76.296 -14.69)"/></g><g transform="translate(67.077 13.863)"><path class="h" d="M74.053,17.091s-.092-.458.092-.55.458-.284.642-.193a1.311,1.311,0,0,1,.275.193s.092-.092.367,0,.275.174.275.266.092.193.092.284.183.174.092.367,0,.266-.275.266-.183,0-.367-.183a.761.761,0,0,0-.275-.275,1.036,1.036,0,0,0-.092.275c-.092.092-.092.183-.275.284s-.367.266-.458.174-.458-.174-.458-.275-.092-.183,0-.358a.679.679,0,0,0,.367-.275" transform="translate(-73.646 -16.324)"/></g><g transform="translate(69.195 14.265)"><path class="j" d="M76.363,17.521s-.092-.458.092-.55.458-.275.642-.183a1.137,1.137,0,0,1,.275.183s.092-.092.367,0,.275.183.275.275.092.183.092.275.183.183.092.367,0,.275-.275.275-.183,0-.367-.183a.688.688,0,0,0-.275-.275.917.917,0,0,0-.092.275c-.092.092-.092.183-.275.275s-.367.275-.458.183S76,18.255,76,18.163s-.092-.183,0-.367a2.752,2.752,0,0,0,.367-.275" transform="translate(-75.956 -16.763)"/></g><g transform="translate(67.402 16.06)"><path class="k" d="M74.917,20.554s-.458.183-.55,0S74,20.187,74,20a1,1,0,0,1,.193-.275s-.1,0-.1-.367.1-.367.193-.367.174-.183.266-.092.193-.183.275-.183.284,0,.284.183.092.183-.1.367-.183.275-.183.275h.284c.092,0,.174,0,.358.183s.275.275.275.367-.083.458-.174.458-.193.092-.284.092a1.009,1.009,0,0,1-.367-.092" transform="translate(-74 -18.72)"/></g><g transform="translate(88.611 19.984)"><path class="l" d="M97.13,23" transform="translate(-97.13 -23)"/></g><g transform="translate(72.982 10.109)"><path class="f" d="M81.153,13.257s1.009.275.825.55.092.275.092.275a1.009,1.009,0,0,1,.458.458c.092.275.275.367,0,.458a.779.779,0,0,1-.642,0,6.106,6.106,0,0,1-.642-.275s-.275.367-.458.275-.367,0-.458-.183-.275-.183-.183-.458.183-.642.183-.642-.092,0-.183-.183a.917.917,0,0,1,.092-.825c.183-.275.458-.55.642-.458s.275.183.275.367Z" transform="translate(-80.086 -12.23)"/></g><g transform="translate(74.138 12.163)"><path class="e" d="M82.413,15.5s1.009.275.825.55.092.275.092.275a1.009,1.009,0,0,1,.458.458c.092.275.275.367,0,.458a.779.779,0,0,1-.642,0,6.108,6.108,0,0,1-.642-.275s-.275.367-.458.275-.367,0-.458-.183-.275-.183-.183-.458.183-.642.183-.642-.092,0-.183-.183a.917.917,0,0,1,.092-.825c.183-.275.458-.55.642-.458s.275.183.275.367Z" transform="translate(-81.346 -14.47)"/></g><g transform="translate(69.919 13.202)"><path class="h" d="M77.153,16.361s-.092-.458.092-.55.458-.275.642-.183a1.137,1.137,0,0,1,.275.183s.092-.092.367,0,.275.183.275.275.092.183.092.275.183.183.092.367,0,.275-.275.275-.183,0-.367-.183a.688.688,0,0,0-.275-.275.917.917,0,0,0-.092.275c-.092.092-.092.183-.275.275s-.367.275-.458.183-.458-.183-.458-.275-.092-.183,0-.367a.633.633,0,0,0,.367-.275" transform="translate(-76.746 -15.603)"/></g><g transform="translate(72.037 13.596)"><path class="j" d="M79.463,16.791s-.092-.458.092-.55.458-.275.642-.183a1.136,1.136,0,0,1,.275.183s.092-.092.367,0,.275.183.275.275.092.183.092.275.183.183.092.367,0,.275-.275.275-.183,0-.367-.183a.688.688,0,0,0-.275-.275.917.917,0,0,0-.092.275c-.092.092-.092.183-.275.275s-.367.275-.459.183-.458-.183-.458-.275-.092-.183,0-.367a2.75,2.75,0,0,0,.367-.275" transform="translate(-79.056 -16.033)"/></g><g transform="translate(81.404 14.052)"><path class="l" d="M89.27,16.53" transform="translate(-89.27 -16.53)"/></g><g transform="translate(66.173 9.56)"><path class="e" d="M73.678,14.72s-.193-1.651.358-1.467.367-.275.367-.275a2.861,2.861,0,0,1,.458-.917c.284-.275.458-.642.651-.275s.358.458.358.917v1.009s.651.183.651.458.174.55.083.825a.67.67,0,0,1-.541.55,5.5,5.5,0,0,1-1.009.092s.092.092-.193.367a1.421,1.421,0,0,1-1.183.367c-.458-.092-1.018-.367-1.018-.734s.1-.55.367-.642a2.512,2.512,0,0,1,.651-.275" transform="translate(-72.66 -11.632)"/></g><g transform="translate(68.444 9.321)"><path class="e" d="M76.2,12.4s1.009.275.825.55.092.275.092.275a1.009,1.009,0,0,1,.458.458c.092.275.275.367,0,.458a.779.779,0,0,1-.642,0,6.108,6.108,0,0,1-.642-.275s-.275.367-.458.275-.367,0-.458-.183-.275-.183-.183-.458.183-.642.183-.642-.092,0-.183-.183a.917.917,0,0,1,.092-.825c.183-.275.458-.55.642-.458s.275.183.275.367Z" transform="translate(-75.136 -11.37)"/></g><g transform="translate(70.232 9.788)"><path class="e" d="M78.153,12.907s1.009.275.825.55.092.275.092.275a1.009,1.009,0,0,1,.458.458c.092.275.275.367,0,.458a.779.779,0,0,1-.642,0,6.1,6.1,0,0,1-.642-.275s-.275.367-.458.275-.367,0-.458-.183-.275-.183-.183-.458.183-.642.183-.642-.092,0-.183-.183a.917.917,0,0,1,.092-.825c.183-.275.458-.55.642-.458s.275.183.275.367Z" transform="translate(-77.086 -11.88)"/></g><g transform="translate(71.12 11.185)"><path class="e" d="M79.444,14.143s1.284.367,1.009.642.092.275.092.275.458.275.55.55.367.458.092.458a1.973,1.973,0,0,1-.734,0l-.825-.275s-.275.275-.458.275a1.7,1.7,0,0,1-.642-.183c-.183-.092-.367-.183-.275-.458a1.834,1.834,0,0,1,.183-.642s-.092,0-.275-.183-.092-.642,0-.825a.743.743,0,0,1,.734-.367c.275.092.367.183.367.458.183,0,.183.275.183.275" transform="translate(-78.055 -13.404)"/></g><g transform="translate(66.022 10.825)"><path class="e" d="M72.9,13.771s-.092-.458.092-.559.458-.266.642-.174a.991.991,0,0,1,.275.174s.092-.092.367,0,.275.193.275.284.092.174.092.275.183.183.092.358,0,.284-.275.284-.183,0-.367-.183a.623.623,0,0,0-.275-.275.835.835,0,0,0-.092.275c-.092.092-.092.183-.275.266s-.367.284-.458.193-.458-.193-.458-.275-.092-.183,0-.376a.605.605,0,0,0,.367-.266" transform="translate(-72.496 -13.011)"/></g><g transform="translate(68.14 11.221)"><path class="m" d="M75.213,14.2s-.092-.458.092-.55.458-.275.642-.183a1.137,1.137,0,0,1,.275.183s.092-.092.367,0,.275.183.275.275.092.183.092.275.183.183.092.367,0,.275-.275.275-.183,0-.367-.183a.688.688,0,0,0-.275-.275.918.918,0,0,0-.092.275c-.092.092-.092.183-.275.275s-.367.275-.458.183-.458-.183-.458-.275-.092-.183,0-.367a2.752,2.752,0,0,0,.367-.275" transform="translate(-74.806 -13.443)"/></g><g transform="translate(66.366 13.016)"><path class="k" d="M73.787,17.234s-.458.183-.55,0-.367-.367-.367-.55a1.137,1.137,0,0,1,.183-.275s-.092,0-.092-.367.092-.367.183-.367.183-.183.275-.092.183-.183.275-.183.275,0,.275.183.092.183-.092.367-.183.275-.183.275h.275c.092,0,.183,0,.367.183s.275.275.275.367-.092.458-.183.458-.183.092-.275.092a.917.917,0,0,1-.367-.092" transform="translate(-72.87 -15.4)"/></g><g transform="translate(88.492 16.317)"><path class="l" d="M97,19" transform="translate(-97 -19)"/></g><g transform="translate(75.51 11.567)"><path class="f" d="M83.9,14.847s1.009.275.825.55.092.275.092.275a1.009,1.009,0,0,1,.458.458c.092.275.284.367,0,.458a.761.761,0,0,1-.633,0A5.73,5.73,0,0,1,84,16.314s-.266.367-.458.275-.358,0-.458-.183-.266-.183-.183-.458.183-.642.183-.642-.092,0-.183-.183a.972.972,0,0,1,.092-.825c.193-.275.458-.55.651-.458s.266.183.266.367Z" transform="translate(-82.843 -13.82)"/></g><g transform="translate(77.336 12.028)"><path class="e" d="M85.9,15.347s1.009.284.825.55.092.275.092.275a1.009,1.009,0,0,1,.458.458c.092.284.275.376,0,.458a.779.779,0,0,1-.642,0,4.587,4.587,0,0,1-.642-.275s-.275.367-.458.275-.367,0-.458-.174-.275-.193-.183-.458.183-.651.183-.651-.092,0-.183-.174a.917.917,0,0,1,.092-.834c.183-.275.458-.541.642-.458a.379.379,0,0,1,.275.376Z" transform="translate(-84.834 -14.323)"/></g><g transform="translate(73.101 13.073)"><path class="n" d="M80.623,16.221s-.092-.458.092-.55.458-.275.642-.183a1.137,1.137,0,0,1,.275.183s.092-.092.367,0,.275.183.275.275.092.183.092.275.183.183.092.367,0,.275-.275.275-.183,0-.367-.183a.688.688,0,0,0-.275-.275.917.917,0,0,0-.092.275c-.092.092-.092.183-.275.275s-.367.275-.458.183-.458-.183-.458-.275-.092-.183,0-.367a.633.633,0,0,0,.367-.275" transform="translate(-80.216 -15.463)"/></g><g transform="translate(70.667 11.258)"><path class="n" d="M77.964,14.241s-.092-.458.1-.55.458-.275.642-.183a1.439,1.439,0,0,1,.275.183s.092-.092.358,0,.284.183.284.275.083.183.083.275.193.183.092.367,0,.275-.266.275-.193,0-.367-.183a.678.678,0,0,0-.284-.275.917.917,0,0,0-.092.275c-.083.092-.083.183-.266.275s-.367.275-.458.183-.458-.183-.458-.275-.1-.183,0-.367a.633.633,0,0,0,.358-.275" transform="translate(-77.561 -13.483)"/></g><g transform="translate(71.359 12.661)"><path class="n" d="M78.723,15.771s-.092-.458.092-.55.458-.275.642-.183a1.137,1.137,0,0,1,.275.183s.092-.092.367,0,.275.183.275.275.092.183.092.275.183.183.092.367,0,.275-.275.275-.183,0-.367-.183a.688.688,0,0,0-.275-.275.917.917,0,0,0-.092.275c-.092.092-.092.183-.275.275s-.367.275-.458.183-.458-.183-.458-.275-.092-.183,0-.367a.633.633,0,0,0,.367-.275" transform="translate(-78.316 -15.013)"/></g><g transform="translate(66.362 11.711)"><path class="n" d="M73.273,14.741s-.092-.458.092-.55.458-.275.642-.193a1,1,0,0,1,.275.193s.092-.1.367,0,.275.183.275.266.092.193.092.284.183.174.092.367,0,.266-.275.266-.183,0-.367-.174a.669.669,0,0,0-.275-.284,1.008,1.008,0,0,0-.092.284c-.092.092-.092.174-.275.266s-.367.284-.458.193-.458-.193-.458-.284-.092-.174,0-.367a.642.642,0,0,0,.367-.266" transform="translate(-72.866 -13.977)"/></g><g transform="translate(64.958 13.608)"><path class="n" d="M72.862,17.59s-.2.422-.4.376-.532-.055-.624-.248a.917.917,0,0,1-.1-.312s-.128,0-.293-.22-.1-.312-.046-.385,0-.2.092-.275,0-.257.156-.348.165-.22.385-.046.147.11.174.367a.688.688,0,0,0,.055.385,1.1,1.1,0,0,0,.238-.156c.128,0,.183-.092.385-.055s.458,0,.477.138.248.422.193.5,0,.2-.229.293a.614.614,0,0,0-.458,0" transform="translate(-71.335 -16.046)"/></g><g transform="translate(65.256 12.092)"><path class="n" d="M73.182,15.94s-.2.422-.4.376-.532-.064-.624-.248a.917.917,0,0,1-.1-.312s-.128,0-.293-.22-.1-.321,0-.394,0-.193.092-.266,0-.257.156-.348.165-.22.385-.055.147.119.174.376a.688.688,0,0,0,.055.385.917.917,0,0,0,.238-.165c.128,0,.183-.083.385-.046s.458,0,.477.138.248.422.193.5,0,.2-.229.293a.614.614,0,0,0-.458,0" transform="translate(-71.66 -14.393)"/></g><g transform="translate(77.378 14.832)"><path class="n" d="M85.293,18.141s-.092-.458.083-.559.458-.266.642-.174a.835.835,0,0,1,.275.174s.092-.092.376,0,.266.193.266.284.1.174.1.275.174.183.092.358,0,.275-.284.275-.174,0-.367-.174a.679.679,0,0,0-.266-.284.917.917,0,0,0-.092.284c-.1.092-.1.174-.284.266s-.367.284-.458.193-.458-.193-.458-.284-.083-.174,0-.367a.605.605,0,0,0,.376-.266" transform="translate(-84.88 -17.381)"/></g><g transform="translate(74.981 13.018)"><path class="n" d="M82.673,16.161s-.092-.458.092-.55.458-.275.642-.183a1.137,1.137,0,0,1,.275.183s.092-.092.367,0,.275.183.275.275.092.183.092.275.183.183.092.367,0,.275-.275.275-.183,0-.367-.183a.688.688,0,0,0-.275-.275.917.917,0,0,0-.092.275c-.092.092-.092.183-.275.275s-.367.275-.458.183-.458-.183-.458-.275-.092-.183,0-.367a.633.633,0,0,0,.367-.275" transform="translate(-82.266 -15.403)"/></g><g transform="translate(75.641 14.421)"><path class="n" d="M83.393,17.691s-.092-.458.092-.55.458-.275.642-.183a1.137,1.137,0,0,1,.275.183s.092-.092.367,0,.275.183.275.275.092.183.092.275.183.183.092.367,0,.275-.275.275-.183,0-.367-.183a.688.688,0,0,0-.275-.275.916.916,0,0,0-.092.275c-.092.092-.092.183-.275.275s-.367.275-.458.183-.458-.183-.458-.275-.092-.183,0-.367a.633.633,0,0,0,.367-.275" transform="translate(-82.986 -16.933)"/></g><g transform="translate(69.542 13.855)"><path class="n" d="M77.862,17.86s-.211.413-.413.376-.532-.064-.614-.248a1.137,1.137,0,0,1-.11-.312s-.128,0-.284-.229-.11-.312-.055-.385.046-.2.1-.275,0-.257.147-.339.174-.22.385-.055.147.11.183.367a.77.77,0,0,0,0,.394.917.917,0,0,0,.238-.165c.128,0,.193-.092.385-.046s.458,0,.477.128.257.431.193.5,0,.2-.22.284a.633.633,0,0,0-.458,0" transform="translate(-76.334 -16.316)"/></g><g transform="translate(67.633 13.395)"><path class="n" d="M75.965,16.9s0,.458-.238.5-.523.138-.669,0a1.431,1.431,0,0,1-.211-.257s-.11.064-.348-.11-.211-.248-.193-.339a1.472,1.472,0,0,0,0-.284c0-.083-.119-.229,0-.385s.083-.257.339-.183.174.055.3.284a.678.678,0,0,0,.183.339.725.725,0,0,0,.165-.238c.119-.064.147-.147.348-.183s.431-.165.486,0,.385.3.367.394a.625.625,0,0,1-.11.348.642.642,0,0,0-.431.165" transform="translate(-74.252 -15.813)"/></g><g transform="translate(69.417 15.839)"><path class="n" d="M77.915,19.553s0,.468-.248.5-.513.128-.66,0A.917.917,0,0,1,76.8,19.8s-.119.064-.358-.1-.211-.257-.183-.339a1.048,1.048,0,0,0,0-.293c0-.092-.128-.22,0-.376s.073-.266.339-.183.174.055.293.275a.715.715,0,0,0,.193.348,1.1,1.1,0,0,0,.165-.238c.11-.064.138-.156.339-.193s.431-.156.5-.046.385.312.358.394a.888.888,0,0,1-.1.358.633.633,0,0,0-.431.156" transform="translate(-76.198 -18.479)"/></g><g transform="translate(69.183 14.318)"><path class="n" d="M77.655,17.9s0,.468-.238.5-.523.138-.669,0a1.137,1.137,0,0,1-.211-.257s-.11.064-.348-.1-.211-.257-.193-.348a1.473,1.473,0,0,0,0-.284c0-.092-.119-.229,0-.376s.083-.266.339-.183.183.046.3.275a.678.678,0,0,0,.183.339.917.917,0,0,0,.165-.238c.119-.055.147-.147.348-.183s.431-.156.486-.046.385.3.367.394a.625.625,0,0,1-.11.348.642.642,0,0,0-.431.165" transform="translate(-75.942 -16.82)"/></g><g transform="translate(72.504 16.518)"><path class="n" d="M80.23,19.532s.376-.4.587-.293.66.266.624.486a2.378,2.378,0,0,0,0,.431s.119,0,.293.321.092.4,0,.468-.119.284-.2.275-.092.339-.211.358-.293.147-.449-.073-.211-.193-.092-.4a.917.917,0,0,0,.1-.413l-.321.1a.431.431,0,0,1-.431,0c-.211-.119-.486-.119-.532-.284a1.321,1.321,0,0,1,0-.587s.193-.2.312-.22a.431.431,0,0,1,.376-.138" transform="translate(-79.564 -19.219)"/></g><g transform="translate(75.002 16.326)"><path class="n" d="M83.033,19.276s.321-.348.5-.248.5.211.532.413a1.311,1.311,0,0,1,0,.33s.128,0,.211.293,0,.33-.055.385-.1.183-.174.238,0,.257-.248.284-.22.165-.385-.064-.1-.147-.064-.4a.642.642,0,0,0,.064-.385.917.917,0,0,0-.275.092.8.8,0,0,1-.385-.064c-.183-.092-.44-.138-.413-.266s-.119-.477,0-.532.092-.183.293-.211a.679.679,0,0,0,.44.138" transform="translate(-82.288 -19.01)"/></g><g transform="translate(68.625 15.909)"><path class="n" d="M76.862,20.1s-.211.413-.413.376-.532-.064-.614-.248a1.137,1.137,0,0,1-.11-.312s-.128,0-.284-.229-.11-.312-.055-.385,0-.2.1-.275,0-.257.147-.339.174-.22.385-.055.147.11.183.367a.679.679,0,0,0,0,.394.917.917,0,0,0,.238-.165c.128,0,.183-.092.385-.046s.458,0,.477.128.257.431.193.5,0,.2-.22.284a.633.633,0,0,0-.458,0" transform="translate(-75.334 -18.556)"/></g><g transform="translate(68.911 18.6)"><path class="e" d="M76.713,22.517s1.009.275.825.55.092.275.092.275a1.009,1.009,0,0,1,.458.458c.092.275.275.367,0,.458a.779.779,0,0,1-.642,0,6.105,6.105,0,0,1-.642-.275s-.275.367-.458.275-.367,0-.458-.183-.275-.183-.183-.458.183-.642.183-.642-.092,0-.183-.183a.917.917,0,0,1,.092-.825c.183-.275.458-.55.642-.458s.275.183.275.367Z" transform="translate(-75.646 -21.49)"/></g><g transform="translate(79.937 26.311)"><path class="l" d="M87.67,29.9" transform="translate(-87.67 -29.9)"/></g><g transform="translate(67.897 16.291)"><path class="e" d="M75.549,22.06s-.183-1.651.367-1.467.367-.275.367-.275a2.668,2.668,0,0,1,.458-.917c.275-.275.458-.642.642-.275s.367.458.367.917v1.009s.642.183.642.458.183.55.092.825a.681.681,0,0,1-.55.55,5.447,5.447,0,0,1-1.009.092s.092.092-.183.367a1.44,1.44,0,0,1-1.192.367c-.458-.092-1.009-.367-1.009-.734s.092-.55.367-.642a2.384,2.384,0,0,1,.642-.275" transform="translate(-74.54 -18.972)"/></g><g transform="translate(78.824 14.035)"><path class="e" d="M87.138,20.022s-1.1-1.229-.5-1.421.156-.431.156-.431a2.613,2.613,0,0,1-.119-1.018c.073-.385,0-.789.385-.587s.559.183.807.569l.559.834s.633-.2.789,0,.449.358.532.642a.663.663,0,0,1-.156.761,5.063,5.063,0,0,1-.8.633s.128,0,.055.4a1.44,1.44,0,0,1-.8.963c-.431.183-1.045.257-1.247-.055s-.22-.5,0-.734a2.476,2.476,0,0,1,.385-.587" transform="translate(-86.457 -16.511)"/></g><g transform="translate(73.641 17.982)"><path class="n" d="M80.984,22.039s-.147-.724.147-.862.8-.513,1.009-.293a2.75,2.75,0,0,0,.44.358s.073-.138.578-.064.5.211.5.358.22.358.147.431.293.367.22.513-.073.431-.44.431-.358.073-.5-.22a1.275,1.275,0,0,0-.358-.431l-.147.431a.541.541,0,0,1-.367.44c-.284.138-.5.431-.724.358a1.715,1.715,0,0,1-.651-.431c0-.073-.073-.367,0-.5a.578.578,0,0,1,.147-.513" transform="translate(-80.804 -20.816)"/></g><g transform="translate(77.998 18.492)"><path class="n" d="M85.963,22.131s-.092-.458.092-.55.458-.275.642-.183a1.137,1.137,0,0,1,.275.183s.092-.092.367,0,.275.183.275.275.092.183.092.275.183.183.092.367,0,.275-.275.275-.183,0-.367-.183a.688.688,0,0,0-.275-.275.917.917,0,0,0-.092.275c-.092.092-.092.183-.275.275s-.367.275-.458.183-.458-.183-.458-.275-.092-.183,0-.367a.633.633,0,0,0,.367-.275" transform="translate(-85.556 -21.373)"/></g><g transform="translate(76.301 18.08)"><path class="n" d="M84.113,21.681s-.092-.458.092-.55.458-.275.642-.183a1.137,1.137,0,0,1,.275.183s.092-.092.367,0,.275.183.275.275.092.183.092.275.183.183.092.367,0,.275-.275.275-.183,0-.367-.183a.688.688,0,0,0-.275-.275.917.917,0,0,0-.092.275c-.092.092-.092.183-.275.275s-.367.275-.458.183-.458-.183-.458-.275-.092-.183,0-.367a.633.633,0,0,0,.367-.275" transform="translate(-83.706 -20.923)"/></g><g transform="translate(71.631 17.918)"><path class="n" d="M81.416,22.336s-.073.734-.385.789-.917.257-1.054,0a3.063,3.063,0,0,0-.321-.468s-.11.119-.569-.1-.431-.348-.385-.486-.11-.413,0-.458-.174-.431-.064-.55.193-.394.541-.293.367,0,.422.358a1.1,1.1,0,0,0,.229.513l.257-.376a.55.55,0,0,1,.477-.312c.312-.055.605-.275.789-.138a1.669,1.669,0,0,1,.5.6c0,.073,0,.367-.138.486a.587.587,0,0,1-.284.449" transform="translate(-78.612 -20.746)"/></g><g transform="translate(70.077 19.502)"><path class="n" d="M78.635,23.543s-.046.468-.248.5-.513.138-.669,0a1.238,1.238,0,0,1-.211-.248s-.11.055-.348-.11-.211-.248-.183-.339a1.048,1.048,0,0,0,0-.293c0-.092-.128-.22,0-.376s.083-.257.348-.183.174.055.293.275a.66.66,0,0,0,.193.348,1.1,1.1,0,0,0,.165-.238c.11-.064.138-.147.339-.183s.431-.165.5-.046.385.3.358.394a.787.787,0,0,1-.1.348.633.633,0,0,0-.431.156" transform="translate(-76.918 -22.473)"/></g><g transform="translate(73.17 20.176)"><path class="n" d="M80.941,23.522s.385-.4.6-.293.66.266.624.5a2.889,2.889,0,0,0,0,.422s.119,0,.3.321.092.4,0,.468-.128.284-.2.275-.092.33-.211.358-.293.147-.458-.073-.2-.193-.083-.4a.917.917,0,0,0,.1-.413l-.33.1a.394.394,0,0,1-.422,0c-.211-.119-.486-.119-.532-.284a1.2,1.2,0,0,1,0-.587s.193-.2.312-.22a.422.422,0,0,1,.367-.138" transform="translate(-80.29 -23.209)"/></g><g transform="translate(75.642 19.985)"><path class="n" d="M83.751,23.266s.312-.348.5-.248.5.211.523.413a1.137,1.137,0,0,1,0,.33s.128,0,.211.293,0,.33-.064.385-.092.183-.165.238-.046.257-.248.284-.22.165-.385-.055-.1-.156-.064-.413a.734.734,0,0,0,.064-.385.917.917,0,0,0-.275.092.8.8,0,0,1-.385-.064c-.183-.092-.44-.138-.422-.266s-.119-.477,0-.532.092-.183.293-.211a.679.679,0,0,0,.44.138" transform="translate(-82.986 -23)"/></g><g transform="translate(69.281 19.568)"><path class="n" d="M77.581,24.09s-.211.413-.413.376-.532-.064-.614-.248a1.137,1.137,0,0,1-.11-.312s-.128,0-.293-.229-.1-.312,0-.385,0-.2.092-.275,0-.257.156-.339.165-.22.385-.055.147.11.183.376a.66.66,0,0,0,0,.385.917.917,0,0,0,.238-.165c.128,0,.183-.092.385-.046s.458,0,.477.138.248.422.193.5,0,.2-.22.284a.633.633,0,0,0-.458,0" transform="translate(-76.05 -22.546)"/></g><g transform="translate(64.972 17.335)"><path class="e" d="M72.423,21.137s1.009.275.816.55.1.275.1.275a1.054,1.054,0,0,1,.458.458c.092.275.266.367,0,.458a.807.807,0,0,1-.651,0,6.568,6.568,0,0,1-.633-.275s-.284.367-.458.275-.376,0-.458-.183-.284-.183-.193-.458.193-.642.193-.642-.092,0-.193-.183a.917.917,0,0,1,.1-.825c.174-.275.458-.55.633-.458s.284.183.284.367Z" transform="translate(-71.35 -20.11)"/></g><g transform="translate(67.558 21.332)"><path class="k" d="M75.087,26.3s-.458.183-.55,0-.367-.367-.367-.55a1.137,1.137,0,0,1,.183-.275s-.092,0-.092-.367.092-.367.183-.367.183-.183.275-.092.183-.183.275-.183.275,0,.275.183.092.183-.092.367S75,25.3,75,25.3h.275c.092,0,.183,0,.367.183s.275.275.275.367-.092.458-.183.458-.183.092-.275.092a.917.917,0,0,1-.367-.092" transform="translate(-74.17 -24.47)"/></g><g transform="translate(76.003 25.046)"><path class="l" d="M83.38,28.52" transform="translate(-83.38 -28.52)"/></g><g transform="translate(70.268 19.875)"><path class="e" d="M78.193,23.907s1.009.275.825.55.092.275.092.275a1.009,1.009,0,0,1,.458.458c.092.275.275.367,0,.458a.779.779,0,0,1-.642,0,6.1,6.1,0,0,1-.642-.275s-.275.367-.458.275-.367,0-.459-.183-.275-.183-.183-.458.183-.642.183-.642-.092,0-.183-.183a.917.917,0,0,1,.092-.825c.183-.275.458-.55.642-.458s.275.183.275.367Z" transform="translate(-77.126 -22.88)"/></g><g transform="translate(63.963 15.062)"><path class="e" d="M71.259,20.72s-.183-1.651.367-1.467.367-.275.367-.275a2.669,2.669,0,0,1,.458-.917c.275-.275.458-.642.642-.275s.367.458.367.917v1.009s.642.183.642.458.183.55.092.825a.681.681,0,0,1-.55.55,5.446,5.446,0,0,1-1.009.092s.092.092-.183.367a1.44,1.44,0,0,1-1.192.367c-.458-.092-1.009-.367-1.009-.734s.092-.55.367-.642a2.384,2.384,0,0,1,.642-.275" transform="translate(-70.25 -17.632)"/></g><g transform="translate(74.101 17.218)"><path class="n" d="M81.713,20.741s-.092-.458.092-.55.458-.275.642-.183a1.137,1.137,0,0,1,.275.183s.092-.092.367,0,.275.183.275.275.092.183.092.275.183.183.092.367,0,.275-.275.275-.183,0-.367-.183a.688.688,0,0,0-.275-.275.916.916,0,0,0-.092.275c-.092.092-.092.183-.275.275s-.367.275-.458.183-.458-.183-.458-.275-.092-.183,0-.367a.633.633,0,0,0,.367-.275" transform="translate(-81.306 -19.983)"/></g><g transform="translate(72.368 16.814)"><path class="n" d="M79.823,20.3s-.092-.458.092-.55.458-.275.642-.183a1.138,1.138,0,0,1,.275.183s.092-.092.367,0,.275.183.275.275.092.183.092.275.183.183.092.367,0,.275-.275.275-.183,0-.367-.183a.688.688,0,0,0-.275-.275.917.917,0,0,0-.092.275c-.092.092-.092.183-.275.275s-.367.275-.458.183-.458-.183-.458-.275-.092-.183,0-.367a.633.633,0,0,0,.367-.275" transform="translate(-79.416 -19.543)"/></g><g transform="translate(66.144 18.229)"><path class="n" d="M74.345,22.162s0,.468-.248.5-.514.128-.669,0a1.137,1.137,0,0,1-.211-.257s-.11.064-.348-.1-.211-.257-.183-.339a1.049,1.049,0,0,0,0-.293c0-.083-.128-.229,0-.376s.083-.266.348-.193.174.055.293.284a.66.66,0,0,0,.193.339.917.917,0,0,0,.165-.238c.11-.055.138-.147.339-.183s.431-.156.5-.046.385.3.358.394a.788.788,0,0,1-.1.348.614.614,0,0,0-.431.165" transform="translate(-72.628 -21.086)"/></g><g transform="translate(73.148 17.124)"><path class="e" d="M81.333,20.907s1.009.275.825.55.092.275.092.275a1.009,1.009,0,0,1,.458.458c.092.275.275.367,0,.458a.779.779,0,0,1-.642,0,6.105,6.105,0,0,1-.642-.275s-.275.367-.458.275-.367,0-.458-.183-.275-.183-.183-.458.183-.642.183-.642-.092,0-.183-.183a.917.917,0,0,1,.092-.825c.183-.275.458-.55.642-.458s.275.183.275.367Z" transform="translate(-80.266 -19.88)"/></g><g transform="translate(84.182 24.817)"><path class="l" d="M92.3,28.27" transform="translate(-92.3 -28.27)"/></g><g transform="translate(77.891 16.481)"><path class="n" d="M85.614,20.409s-.147-.724.147-.871.789-.5,1.009-.293a3.558,3.558,0,0,0,.431.367s.073-.147.587-.073.5.22.5.358.22.367.147.44.284.358.211.5-.073.431-.431.431-.358.073-.5-.211a1.219,1.219,0,0,0-.367-.44l-.147.44a.513.513,0,0,1-.358.431c-.293.147-.5.431-.724.367a1.641,1.641,0,0,1-.651-.44,1.156,1.156,0,0,1,0-.5.559.559,0,0,1,.147-.5" transform="translate(-85.44 -19.179)"/></g><g transform="translate(80.629 16.851)"><path class="n" d="M88.833,20.341s-.092-.458.092-.55.458-.275.642-.183a1.137,1.137,0,0,1,.275.183s.092-.092.367,0,.275.183.275.275.092.183.092.275.183.183.092.367,0,.275-.275.275-.183,0-.367-.183a.688.688,0,0,0-.275-.275.917.917,0,0,0-.092.275c-.092.092-.092.183-.275.275s-.367.275-.458.183-.458-.183-.458-.275-.092-.183,0-.367a.633.633,0,0,0,.367-.275" transform="translate(-88.426 -19.583)"/></g><g transform="translate(75.866 16.432)"><path class="n" d="M86.036,20.7s-.064.734-.385.8-.917.257-1.054,0a3.477,3.477,0,0,0-.312-.468s-.11.119-.578-.092-.422-.358-.385-.5-.1-.4,0-.458-.174-.422-.064-.541.193-.394.532-.293.376,0,.431.348a1.22,1.22,0,0,0,.22.523l.266-.376a.513.513,0,0,1,.468-.312c.321-.064.605-.275.8-.147a1.614,1.614,0,0,1,.5.605c0,.064,0,.367-.147.486a.559.559,0,0,1-.284.44" transform="translate(-83.231 -19.126)"/></g><g transform="translate(74.318 17.991)"><path class="n" d="M83.264,21.9s0,.468-.248.5-.523.128-.669,0a1.137,1.137,0,0,1-.211-.257s-.11.064-.348-.1-.211-.257-.193-.339a1.569,1.569,0,0,0,0-.293c0-.083-.119-.229,0-.376s.083-.266.339-.193.174.055.3.284a.679.679,0,0,0,.183.339.724.724,0,0,0,.165-.238c.119-.055.147-.147.348-.183s.431-.156.486-.046.385.3.367.394a.625.625,0,0,1-.11.348.605.605,0,0,0-.422.165" transform="translate(-81.542 -20.826)"/></g><g transform="translate(79.897 18.483)"><path class="n" d="M88.372,21.626s.321-.339.5-.248.486.211.523.413a.916.916,0,0,1,0,.33s.128,0,.22.3,0,.33-.064.385-.1.174-.174.229,0,.257-.238.293-.229.156-.385-.064-.11-.147-.064-.4a.743.743,0,0,0,.064-.385,1.32,1.32,0,0,0-.284.083,1,1,0,0,1-.376-.055c-.174-.055-.44-.138-.422-.266s-.119-.486,0-.532.1-.183.3-.22a.6.6,0,0,0,.431.138" transform="translate(-87.626 -21.363)"/></g><g transform="translate(79.154 17.014)"><path class="n" d="M87.581,20.026s.321-.348.5-.248.486.211.523.413a1.312,1.312,0,0,1,0,.33s.128,0,.22.293,0,.33-.064.385-.1.183-.174.238,0,.257-.238.284-.229.165-.385-.064-.11-.147-.064-.4a.688.688,0,0,0,.055-.385.917.917,0,0,0-.275.092A.8.8,0,0,1,87.3,20.9c-.183-.092-.431-.138-.413-.266s-.119-.477-.046-.532.092-.183.293-.211a.679.679,0,0,0,.44.138" transform="translate(-86.816 -19.76)"/></g><g transform="translate(79.987 19.006)"><path class="n" d="M88.133,22.691s-.092-.458.092-.55.458-.275.642-.183a1.138,1.138,0,0,1,.275.183s.092-.092.367,0,.275.183.275.275.092.183.092.275.183.183.092.367,0,.275-.275.275-.183,0-.367-.183a.688.688,0,0,0-.275-.275.917.917,0,0,0-.092.275c-.092.092-.092.183-.275.275s-.367.275-.458.183-.458-.183-.458-.275-.092-.183,0-.367a.633.633,0,0,0,.367-.275" transform="translate(-87.726 -21.933)"/></g><g transform="translate(78.245 18.593)"><path class="n" d="M86.233,22.241s-.092-.458.092-.55.458-.275.642-.183a1.137,1.137,0,0,1,.275.183s.092-.092.367,0,.275.183.275.275.092.183.092.275.183.183.092.367,0,.275-.275.275-.183,0-.367-.183a.688.688,0,0,0-.275-.275.916.916,0,0,0-.092.275c-.092.092-.092.183-.275.275s-.367.275-.458.183-.458-.183-.458-.275-.092-.183,0-.367a.633.633,0,0,0,.367-.275" transform="translate(-85.826 -21.483)"/></g><g transform="translate(81.409 18.309)"><path class="n" d="M89.683,21.931s-.092-.458.092-.55.458-.275.642-.183a1.137,1.137,0,0,1,.275.183s.092-.092.367,0,.275.183.275.275.092.183.092.275.183.183.092.367,0,.275-.275.275-.183,0-.367-.183a.688.688,0,0,0-.275-.275.918.918,0,0,0-.092.275c-.092.092-.092.183-.275.275s-.367.275-.458.183-.458-.183-.458-.275-.092-.183,0-.367a.633.633,0,0,0,.367-.275" transform="translate(-89.276 -21.173)"/></g><g transform="translate(70.873 21.602)"><path class="n" d="M78.193,25.521s-.092-.458.092-.541.458-.284.642-.193a1.312,1.312,0,0,1,.275.193s.092-.092.367,0,.275.174.275.266.092.193.092.275.183.183.092.376,0,.266-.275.266-.183,0-.367-.183a.761.761,0,0,0-.275-.275,1.036,1.036,0,0,0-.092.275c-.092.092-.092.183-.275.284s-.367.266-.458.174-.458-.174-.458-.275-.092-.183,0-.358a.669.669,0,0,0,.367-.284" transform="translate(-77.786 -24.764)"/></g><g transform="translate(73.413 10.497)"><path class="n" d="M80.963,13.411s-.092-.458.092-.55.458-.275.642-.183a1.137,1.137,0,0,1,.275.183s.092-.092.367,0,.275.183.275.275.092.183.092.275.183.183.092.367,0,.275-.275.275-.183,0-.367-.183a.688.688,0,0,0-.275-.275.917.917,0,0,0-.092.275c-.092.092-.092.183-.275.275s-.367.275-.459.183-.458-.183-.458-.275-.092-.183,0-.367a.633.633,0,0,0,.367-.275" transform="translate(-80.556 -12.653)"/></g><g transform="translate(71.647 10.056)"><path class="n" d="M79.043,12.931s-.092-.458.083-.55.458-.275.651-.183a.917.917,0,0,1,.266.183s.092-.092.376,0,.275.183.275.275.092.183.092.275.174.183.092.367,0,.275-.284.275-.174,0-.358-.183a.752.752,0,0,0-.275-.275.916.916,0,0,0-.092.275c-.092.092-.092.183-.284.275s-.367.275-.458.183-.458-.183-.458-.275-.083-.183,0-.367a.633.633,0,0,0,.376-.275" transform="translate(-78.63 -12.173)"/></g><g transform="translate(68.505 12.187)"><path class="n" d="M75.87,14.811s.376-.413.6-.293.651.257.614.486a2.291,2.291,0,0,0,0,.422s.119,0,.3.321.083.4,0,.468-.128.293-.2.275-.092.339-.211.358-.3.147-.458-.073-.2-.193-.092-.4a.99.99,0,0,0,.11-.413l-.33.1a.394.394,0,0,1-.422,0c-.22-.11-.486-.119-.541-.284a1.293,1.293,0,0,1,0-.587s.183-.2.3-.22a.413.413,0,0,1,.376-.128" transform="translate(-75.203 -14.496)"/></g><g transform="translate(67.632 13.59)"><path class="n" d="M77.056,17.607s-.064.743-.385.8-.917.257-1.055,0a3.253,3.253,0,0,0-.312-.477s-.11.119-.578-.092-.422-.348-.385-.5-.1-.4,0-.449-.174-.431-.064-.55.193-.394.532-.293.376,0,.431.348a1.22,1.22,0,0,0,.22.523l.266-.376a.513.513,0,0,1,.468-.312c.321-.064.605-.275.8-.147a1.61,1.61,0,0,1,.5.605c-.018.073,0,.367-.147.486a.587.587,0,0,1-.284.44" transform="translate(-74.251 -16.026)"/></g><g transform="translate(68.37 12.477)"><path class="n" d="M75.463,15.571s-.092-.458.092-.55.458-.275.642-.183a1.137,1.137,0,0,1,.275.183s.092-.092.367,0,.275.183.275.275.092.183.092.275.183.183.092.367,0,.275-.275.275-.183,0-.367-.183a.688.688,0,0,0-.275-.275.917.917,0,0,0-.092.275c-.092.092-.092.183-.275.275s-.367.275-.458.183-.458-.183-.458-.275-.092-.183,0-.367a.633.633,0,0,0,.367-.275" transform="translate(-75.056 -14.813)"/></g><g transform="translate(69.159 12.768)"><path class="e" d="M76.983,16.157s1.009.275.825.55.092.275.092.275a1.009,1.009,0,0,1,.458.458c.092.275.275.367,0,.458a.779.779,0,0,1-.642,0,6.105,6.105,0,0,1-.642-.275s-.275.367-.458.275-.367,0-.458-.183-.275-.183-.183-.458.183-.642.183-.642-.092,0-.183-.183a.917.917,0,0,1,.092-.825c.183-.275.458-.55.642-.458s.275.183.275.367Z" transform="translate(-75.916 -15.13)"/></g><g transform="translate(76.549 12.248)"><path class="n" d="M84.383,15.321s-.092-.458.092-.55.458-.275.642-.183a1.137,1.137,0,0,1,.275.183s.092-.092.367,0,.275.183.275.275.092.183.092.275.183.183.092.367,0,.275-.275.275-.183,0-.367-.183A.688.688,0,0,0,85.3,15.5a.917.917,0,0,0-.092.275c-.092.092-.092.183-.275.275s-.367.275-.458.183-.458-.183-.458-.275-.092-.183,0-.367a.633.633,0,0,0,.367-.275" transform="translate(-83.976 -14.563)"/></g><g transform="translate(70.325 13.666)"><path class="n" d="M78.9,17.183s0,.468-.248.5-.514.138-.669,0a1.238,1.238,0,0,1-.211-.248s-.11.055-.348-.11-.211-.248-.183-.339a1.048,1.048,0,0,0,0-.293c0-.092-.128-.22,0-.376s.083-.266.348-.183.174.055.293.284a.66.66,0,0,0,.193.339,1.1,1.1,0,0,0,.165-.238c.11-.064.138-.156.339-.183s.431-.165.5-.046.385.3.358.394a.82.82,0,0,1-.1.348.633.633,0,0,0-.431.156" transform="translate(-77.188 -16.109)"/></g><g transform="translate(75.903 14.153)"><path class="n" d="M84.022,16.906s.321-.348.5-.248.5.211.532.413a1.31,1.31,0,0,1,0,.33s.128,0,.211.293,0,.33-.064.385-.092.183-.165.238,0,.257-.248.284-.22.165-.385-.064-.1-.147-.064-.4a.642.642,0,0,0,.064-.385.917.917,0,0,0-.275.092.8.8,0,0,1-.385-.064c-.183-.092-.44-.138-.422-.266s-.11-.477,0-.532.092-.183.293-.211a.679.679,0,0,0,.44.138" transform="translate(-83.271 -16.64)"/></g><g transform="translate(77.503 14.219)"><path class="n" d="M85.423,17.471s-.092-.458.092-.55.458-.275.642-.183a1.137,1.137,0,0,1,.275.183s.092-.092.367,0,.275.183.275.275.092.183.092.275.183.183.092.367,0,.275-.275.275-.183,0-.367-.183a.688.688,0,0,0-.275-.275.917.917,0,0,0-.092.275c-.092.092-.092.183-.275.275s-.367.275-.458.183-.458-.183-.458-.275-.092-.183,0-.367a.633.633,0,0,0,.367-.275" transform="translate(-85.016 -16.713)"/></g><g transform="translate(69.542 13.736)"><path class="n" d="M77.862,17.73s-.211.413-.413.376-.532-.064-.614-.248a1.137,1.137,0,0,1-.11-.312s-.128,0-.284-.229-.11-.312-.055-.385,0-.2.092-.275,0-.257.156-.339.174-.22.385-.055.147.119.183.376a.642.642,0,0,0,0,.385.917.917,0,0,0,.238-.165c.128,0,.183-.092.385-.046s.458,0,.477.138.248.422.193.5,0,.2-.22.293a.614.614,0,0,0-.458,0" transform="translate(-76.334 -16.186)"/></g><g transform="translate(63.563 12.847)"><path class="n" d="M70.47,15.531s.376-.413.6-.293.66.257.624.486a2.98,2.98,0,0,0,0,.422s.119,0,.3.321.092.4,0,.468-.119.293-.2.284-.092.33-.211.348-.293.147-.458-.073-.2-.183-.092-.4a.844.844,0,0,0,.11-.413l-.33.1a.376.376,0,0,1-.422,0c-.211-.11-.486-.119-.541-.275a1.329,1.329,0,0,1,0-.6s.193-.2.312-.22a.431.431,0,0,1,.367-.128" transform="translate(-69.813 -15.216)"/></g><g transform="translate(64.706 14.308)"><path class="n" d="M71.234,18.039s-.147-.724.147-.871.789-.5,1.009-.293a3.255,3.255,0,0,0,.44.367s.064-.147.578-.073.5.22.5.358.22.367.147.44.284.358.211.5-.064.431-.431.431-.358.073-.5-.211a1.22,1.22,0,0,0-.367-.44s-.073.22-.138.44a.541.541,0,0,1-.367.431c-.293.147-.5.44-.724.367a1.641,1.641,0,0,1-.651-.44,1.156,1.156,0,0,1,0-.5.559.559,0,0,1,.147-.5" transform="translate(-71.06 -16.809)"/></g><g transform="translate(69.094 14.815)"><path class="n" d="M76.253,18.121s-.092-.458.092-.55.458-.275.642-.183a1.137,1.137,0,0,1,.275.183s.092-.092.367,0,.275.183.275.275.092.183.092.275.183.183.092.367,0,.275-.275.275-.183,0-.367-.183a.688.688,0,0,0-.275-.275.917.917,0,0,0-.092.275c-.092.092-.092.183-.275.275s-.367.275-.458.183-.458-.183-.458-.275-.092-.183,0-.367a.633.633,0,0,0,.367-.275" transform="translate(-75.846 -17.363)"/></g><g transform="translate(65.16 13.55)"><path class="n" d="M71.963,16.741s-.092-.458.092-.55.458-.275.642-.183a1.138,1.138,0,0,1,.275.183s.092-.092.367,0,.275.183.275.275.092.183.092.275.183.183.092.367,0,.275-.275.275-.183,0-.367-.183a.688.688,0,0,0-.275-.284.917.917,0,0,0-.092.275c-.092.092-.092.183-.275.275s-.367.275-.458.183-.458-.183-.458-.275-.092-.183,0-.367a.633.633,0,0,0,.367-.275" transform="translate(-71.556 -15.983)"/></g><g transform="translate(64.207 13.456)"><path class="e" d="M71.583,16.907s1.009.275.825.55.092.275.092.275a1.009,1.009,0,0,1,.458.458c.092.275.275.367,0,.458a.779.779,0,0,1-.642,0,6.1,6.1,0,0,1-.642-.275s-.275.367-.458.275-.367,0-.458-.183-.275-.183-.183-.458.183-.642.183-.642-.092,0-.183-.183a.917.917,0,0,1,.092-.825c.183-.275.458-.55.642-.458s.275.183.275.367Z" transform="translate(-70.516 -15.88)"/></g><g transform="translate(67.223 17.649)"><path class="n" d="M74.213,21.211s-.092-.458.092-.55.458-.275.633-.183a1.1,1.1,0,0,1,.284.183s.083-.092.367,0,.266.183.266.275.1.183.1.275.183.183.092.367,0,.275-.284.275-.174,0-.367-.183a.688.688,0,0,0-.266-.275.916.916,0,0,0-.092.275c-.1.092-.1.183-.275.275s-.376.275-.458.183-.458-.183-.458-.275-.092-.183,0-.367a.633.633,0,0,0,.367-.275" transform="translate(-73.806 -20.453)"/></g><g transform="translate(62.328 16.262)"><path class="e" d="M69.533,19.967s1.009.275.825.55.092.275.092.275a1.009,1.009,0,0,1,.458.458c.092.275.275.367,0,.458a.779.779,0,0,1-.642,0,6.109,6.109,0,0,1-.642-.275s-.275.367-.458.275-.367,0-.458-.183-.275-.183-.183-.458.183-.642.183-.642-.092,0-.183-.183a.917.917,0,0,1,.092-.825c.183-.275.458-.55.642-.458s.275.183.275.367Z" transform="translate(-68.466 -18.94)"/></g><g transform="translate(63.348 19.096)"><path class="n" d="M69.864,22.571s-.064-.33.064-.394.33-.193.458-.128a.8.8,0,0,1,.193.128s.064-.064.257,0,.193.128.193.2.064.128.064.193.138.128.073.257,0,.193-.2.193-.128,0-.257-.128a.477.477,0,0,0-.193-.193.651.651,0,0,0-.064.193c-.064.064-.064.128-.193.193s-.266.193-.33.128-.321-.128-.321-.193-.064-.128,0-.257a.44.44,0,0,0,.257-.193" transform="translate(-69.579 -22.031)"/></g><g transform="translate(61.707 20.154)"><path class="n" d="M68.276,23.373s.22-.248.348-.174.348.147.376.293a1.091,1.091,0,0,1,0,.229s.092,0,.147.211a.381.381,0,0,1,0,.275.284.284,0,0,1-.119.165c-.055.037,0,.174-.165.2s-.165.11-.275-.046-.073-.1-.046-.284a.541.541,0,0,0,.046-.275.78.78,0,0,0-.2.064.643.643,0,0,1-.266-.046c-.128-.046-.312-.092-.293-.183s-.092-.339,0-.376.073-.128.211-.156a.477.477,0,0,0,.312.1" transform="translate(-67.79 -23.185)"/></g><g transform="translate(60.709 21.325)"><path class="n" d="M66.828,25.331s-.11-.513.1-.614.559-.358.715-.211a2.422,2.422,0,0,0,.3.257s.055-.1.413-.046.358.147.358.257.156.248.1.3.2.257.156.358-.055.312-.3.312-.257.046-.367-.156a.917.917,0,0,0-.257-.312.633.633,0,0,1-.1.312.358.358,0,0,1-.248.3c-.211.1-.367.312-.513.257a1.2,1.2,0,0,1-.468-.3.916.916,0,0,1,0-.358.4.4,0,0,1,.11-.358" transform="translate(-66.701 -24.462)"/></g><g transform="translate(63.815 21.682)"><path class="n" d="M70.374,25.391s-.064-.33.064-.394.321-.193.449-.128a.761.761,0,0,1,.2.128s.064-.064.257,0,.193.128.193.2.064.128.064.193.128.128.064.257,0,.193-.193.193-.128,0-.257-.128a.477.477,0,0,0-.193-.193.651.651,0,0,0-.064.193c-.073.064-.073.128-.2.193s-.257.193-.321.128-.321-.128-.321-.193-.064-.128,0-.257a.44.44,0,0,0,.257-.193" transform="translate(-70.089 -24.851)"/></g><g transform="translate(62.587 21.397)"><path class="n" d="M69.034,25.072s-.064-.321.064-.385.33-.193.458-.128a.8.8,0,0,1,.193.128s.064-.064.257,0,.193.128.193.193.064.128.064.193.138.128.073.266,0,.193-.2.193-.128,0-.257-.128a.541.541,0,0,0-.193-.2.734.734,0,0,0-.064.2c-.064.064-.064.128-.193.193s-.266.193-.33.128-.321-.128-.321-.193-.064-.128,0-.257a.477.477,0,0,0,.257-.2" transform="translate(-68.749 -24.541)"/></g><g transform="translate(62.122 22.74)"><path class="n" d="M68.781,26.193s.22-.248.348-.174.348.147.376.293a1.094,1.094,0,0,1,0,.229s.083,0,.147.211,0,.238-.046.275-.064.128-.119.165,0,.174-.174.2-.156.11-.266-.046-.073-.1,0-.284a.541.541,0,0,0,0-.275.779.779,0,0,0-.2.064.621.621,0,0,1-.266-.046c-.128-.046-.312-.092-.3-.183s-.083-.339,0-.376.064-.128.211-.156a.477.477,0,0,0,.312.1" transform="translate(-68.242 -26.005)"/></g><g transform="translate(61.037 20.783)"><path class="n" d="M67.344,24.411s-.064-.33.064-.394.321-.193.449-.128a.761.761,0,0,1,.2.128s.064-.064.257,0,.193.128.193.2.064.128.064.193.128.128.064.257,0,.193-.193.193-.128,0-.257-.128A.477.477,0,0,0,68,24.539a.6.6,0,0,0-.073.193c-.064.064-.064.128-.193.193s-.257.193-.321.128-.321-.128-.321-.193-.064-.128,0-.257a.44.44,0,0,0,.257-.193" transform="translate(-67.059 -23.871)"/></g><g transform="translate(60.355 20.705)"><path class="e" d="M67.072,24.514s.715.193.587.385.064.193.064.193a.706.706,0,0,1,.321.321c.064.2.193.266,0,.33a.55.55,0,0,1-.449,0,3.915,3.915,0,0,1-.458-.193s-.193.257-.321.193-.257,0-.33-.128-.193-.138-.128-.33.128-.449.128-.449-.064,0-.128-.128a.66.66,0,0,1,.064-.587c.138-.193.33-.385.458-.321s.193.128.193.257Z" transform="translate(-66.315 -23.786)"/></g><g transform="translate(65.585 20.361)"><path class="n" d="M72.3,23.951s-.064-.33.064-.394.321-.193.458-.128a.8.8,0,0,1,.193.128s.064-.064.257,0,.193.128.193.193.064.138.064.2.128.128.064.257,0,.193-.193.193-.128,0-.257-.128a.477.477,0,0,0-.193-.193.65.65,0,0,0-.064.193c-.064.064-.064.128-.2.193s-.257.193-.321.128-.321-.128-.321-.193-.064-.128,0-.257a.44.44,0,0,0,.257-.193" transform="translate(-72.019 -23.411)"/></g><g transform="translate(58.764 20.096)"><path class="e" d="M65.589,26.21s-.183-1.651.367-1.467.367-.275.367-.275a2.668,2.668,0,0,1,.458-.917c.275-.275.458-.642.642-.275s.367.458.367.917V25.2s.642.183.642.458.183.55.092.825a.681.681,0,0,1-.55.55,5.447,5.447,0,0,1-1.009.092s.092.092-.183.367a1.44,1.44,0,0,1-1.192.367c-.458-.092-1.009-.367-1.009-.734s.092-.55.367-.642a2.384,2.384,0,0,1,.642-.275" transform="translate(-64.58 -23.122)"/></g><g transform="translate(61.185 21.332)"><path class="n" d="M68.43,25.231s0,.33-.174.358-.358.092-.468,0a.633.633,0,0,1-.147-.183s-.083.046-.257-.073-.147-.183-.128-.238a.81.81,0,0,0,0-.211c0-.064-.083-.156,0-.266s.055-.183.238-.128.128,0,.211.2a.523.523,0,0,0,.128.238.77.77,0,0,0,.119-.165c.083-.046.1-.11.248-.138s.3-.11.339,0,.275.211.257.275a.551.551,0,0,1-.073.248.477.477,0,0,0-.3.11" transform="translate(-67.22 -24.47)"/></g><g transform="translate(65.157 21.679)"><path class="n" d="M72.054,25.033s.22-.238.348-.174.348.147.367.293a.915.915,0,0,1,0,.238s.083,0,.147.2a.331.331,0,0,1,0,.275.314.314,0,0,1-.119.165c-.055.037,0,.183-.174.211s-.156.11-.266-.046-.083-.11-.046-.293a.5.5,0,0,0,.046-.266.532.532,0,0,0-.2.064.66.66,0,0,1-.275-.046c-.128-.046-.3-.1-.293-.193s-.083-.339,0-.376.064-.128.211-.147a.44.44,0,0,0,.312.092" transform="translate(-71.552 -24.848)"/></g><g transform="translate(62.073 20.361)"><path class="n" d="M68.474,23.951s-.064-.33.064-.394.33-.193.458-.128a.8.8,0,0,1,.193.128s.064-.064.257,0,.193.138.193.2.073.128.073.193.128.128.055.257,0,.193-.193.193-.128,0-.257-.128a.477.477,0,0,0-.193-.193.651.651,0,0,0-.064.193c-.064.064-.064.128-.193.193s-.266.2-.33.128-.321-.128-.321-.193-.064-.128,0-.257a.44.44,0,0,0,.257-.193" transform="translate(-68.189 -23.411)"/></g><g transform="translate(60.694 21.317)"><path class="n" d="M67.157,24.67s.266-.284.413-.2.468.183.44.339a1.457,1.457,0,0,0,0,.3s.083,0,.211.229.064.284,0,.33-.083.2-.138.193-.064.238-.156.257-.211.1-.321-.055-.138-.138-.064-.284a.688.688,0,0,0,.083-.293l-.238.073a.284.284,0,0,1-.293,0c-.156-.083-.348-.083-.385-.2a.917.917,0,0,1,0-.413.7.7,0,0,1,.22-.165.312.312,0,0,1,.266-.092" transform="translate(-66.684 -24.454)"/></g><g transform="translate(65.191 22.048)"><path class="n" d="M71.874,25.782s-.064-.321.064-.385.33-.193.458-.128a.8.8,0,0,1,.193.128s.064-.064.257,0,.193.128.193.193.073.128.073.193.128.128.055.266,0,.193-.193.193-.128,0-.257-.128a.467.467,0,0,0-.193-.2.734.734,0,0,0-.064.2c-.064.064-.064.128-.193.193s-.266.193-.33.128-.321-.128-.321-.193-.064-.128,0-.266a.4.4,0,0,0,.257-.193" transform="translate(-71.589 -25.251)"/></g><g transform="translate(66.255 21.728)"><path class="n" d="M73.043,25.432s-.064-.321.064-.385.321-.193.449-.128a.8.8,0,0,1,.193.128s.064-.064.266,0,.193.128.193.193.064.128.064.193.128.128.064.266,0,.193-.193.193-.128,0-.266-.128a.468.468,0,0,0-.193-.2.733.733,0,0,0-.064.2c-.064.064-.064.128-.193.193s-.257.193-.321.128-.33-.128-.33-.193-.064-.128,0-.266a.449.449,0,0,0,.266-.193" transform="translate(-72.749 -24.901)"/></g><g transform="translate(60.629 21.393)"><path class="n" d="M67.692,25.622s-.156.293-.293.266-.376-.046-.44-.174a.707.707,0,0,1-.073-.22s-.092,0-.2-.165-.073-.22,0-.266,0-.147.064-.193,0-.183.11-.248.119-.156.275,0,.1.083.119.266a.459.459,0,0,0,0,.266.715.715,0,0,0,.174-.11c.092,0,.128-.064.275,0s.321,0,.33.1.174.293.138.348,0,.138-.156.2a.44.44,0,0,0-.321,0" transform="translate(-66.614 -24.536)"/></g><g transform="translate(72.601 23.716)"><path class="l" d="M79.67,27.07" transform="translate(-79.67 -27.07)"/></g><g transform="translate(59.644 18.958)"><path class="f" d="M66.613,22.907s1.009.275.816.55.1.275.1.275a1.055,1.055,0,0,1,.458.458c.092.275.266.367,0,.458a.807.807,0,0,1-.651,0,6.569,6.569,0,0,1-.633-.275s-.284.367-.458.275-.376,0-.458-.183-.284-.183-.193-.458.193-.642.193-.642-.092,0-.193-.183a.917.917,0,0,1,.1-.825c.174-.275.458-.55.633-.458s.284.183.284.367Z" transform="translate(-65.54 -21.88)"/></g><g transform="translate(57.22 20.482)"><path class="h" d="M63.3,24.3s-.092-.458.092-.55.458-.275.642-.183a1.137,1.137,0,0,1,.275.183s.092-.092.367,0,.275.183.275.275.092.183.092.275.183.183.092.367,0,.275-.275.275-.183,0-.367-.183a.688.688,0,0,0-.275-.275.917.917,0,0,0-.092.275c-.092.092-.092.183-.275.275s-.367.275-.458.183-.458-.183-.458-.275-.092-.183,0-.367A.633.633,0,0,0,63.3,24.3" transform="translate(-62.896 -23.543)"/></g><g transform="translate(59.338 20.876)"><path class="j" d="M65.613,24.731s-.092-.458.092-.55.458-.275.642-.183a1.137,1.137,0,0,1,.275.183s.092-.092.367,0,.275.183.275.275.092.183.092.275.183.183.092.367,0,.275-.275.275-.183,0-.367-.183a.688.688,0,0,0-.275-.275.917.917,0,0,0-.092.275c-.092.092-.092.183-.275.275s-.367.275-.458.183-.459-.183-.459-.275-.092-.183,0-.367a2.751,2.751,0,0,0,.367-.275" transform="translate(-65.206 -23.973)"/></g><g transform="translate(57.563 22.68)"><path class="k" d="M64.187,27.774s-.458.183-.55,0-.367-.367-.367-.55a1.138,1.138,0,0,1,.183-.275s-.092,0-.092-.367.092-.367.183-.367.183-.183.275-.092.183-.183.275-.183.275,0,.275.183.092.183-.092.367-.183.275-.183.275h.275c.092,0,.183,0,.367.183s.275.275.275.367-.092.458-.183.458-.183.092-.275.092a.917.917,0,0,1-.367-.092" transform="translate(-63.27 -25.94)"/></g><g transform="translate(88.382 20.516)"><path class="l" d="M96.88,23.58" transform="translate(-96.88 -23.58)"/></g><g transform="translate(57.224 18.939)"><path class="o" d="M62.9,28.1l6.235,15.313,20.448-.183L88.941,21.86l-13.112,2.2Z" transform="translate(-62.9 -21.86)"/></g><g transform="translate(81.431 18.939)"><path class="p" d="M91.134,21.86l.642,21.365H90.125L89.3,22.135Z" transform="translate(-89.3 -21.86)"/></g><g transform="translate(78.038 19.489)"><path class="p" d="M87.434,22.46l1.559,20.723H87.709L85.6,22.735Z" transform="translate(-85.6 -22.46)"/></g><g transform="translate(74.279 20.131)"><path class="p" d="M83.609,23.16l2.384,20.173-1.375.092L81.5,23.435Z" transform="translate(-81.5 -23.16)"/></g><g transform="translate(70.153 20.865)"><path class="p" d="M78.742,23.96,82.685,43.4l-1.651.092L77,24.235Z" transform="translate(-77 -23.96)"/></g><g transform="translate(68.319 21.14)"><path class="q" d="M75,24.718l3.668,18.8h2.2L76.834,24.26Z" transform="translate(-75 -24.26)"/></g><g transform="translate(64.101 22.424)"><path class="q" d="M72.417,25.66s4.768,18.156,4.31,18.064a10.611,10.611,0,0,0-1.926.092L70.4,26.394Z" transform="translate(-70.4 -25.66)"/></g><g transform="translate(59.791 23.616)"><path class="q" d="M67.992,26.96,72.3,43.649l-2.017.092L65.7,27.785Z" transform="translate(-65.7 -26.96)"/></g><g transform="translate(66.722 25.535)"><path class="c" d="M79.532,32.544c-2.567.55-2.017-1.375-3.668-.092S69.721,48.5,78.615,45.29c1.375-.458,1.284-6.235,1.284-5.868.183,3.943.459,6.51,2.659,6.327,6.877-.642,23.841-.458,22.74-9.995-.275-2.659-1.926-3.3-3.851-3.76-1.284-.275-6.969,2.476-8.069.917-5.318-7.336-1.284-1.834-5.96-2.476-1.926-.275-5.777-.825-7.336-.275-.734.367,0,2.292-.55,2.384" transform="translate(-73.259 -29.054)"/></g><g transform="translate(0 23.377)"><path class="c" d="M14.254,28.5c.183,0,.092.092.092.275a4.154,4.154,0,0,1-.092.734,27.143,27.143,0,0,0-.183,3.118c-.092,1.375-.092,3.026-.092,4.86a48.533,48.533,0,0,0,.275,6.327v.275c0,.092-.092.092-.183.183-.275,0-1.192.092-2.843.092-.367,0-.642-.092-.642-.275V43.26c0-.092,0-.092-.092-.183a.321.321,0,0,1-.183.092A4.245,4.245,0,0,1,7.377,44.4a4.7,4.7,0,0,1-3.668-1.559,5.447,5.447,0,0,1-1.284-3.851A5.905,5.905,0,0,1,3.709,35.1a4.493,4.493,0,0,1,3.668-1.651,3.448,3.448,0,0,1,2.567,1.009l.183.183c.092,0,.092-.092.092-.275V29.414c0-.183.092-.367.183-.367.458,0,1.1-.092,1.926-.092l1.926-.275c-.092-.183,0-.183,0-.183M8.2,40.876a1.834,1.834,0,0,0,1.467-.642,2.311,2.311,0,0,0,.55-1.559,2.081,2.081,0,0,0-.55-1.467A1.834,1.834,0,0,0,8.2,36.566a1.54,1.54,0,0,0-1.375.642,2.311,2.311,0,0,0-.55,1.559,2.081,2.081,0,0,0,.55,1.467,1.651,1.651,0,0,0,1.375.642M14.162,28.5h0m87.019.734a2.247,2.247,0,0,1,1.467.55,1.651,1.651,0,0,1,.642,1.375c0,1.284-.734,1.926-2.109,1.926a2.329,2.329,0,0,1-1.467-.458,1.834,1.834,0,0,1,0-2.751,1.953,1.953,0,0,1,1.467-.642m-16.689,0a2.247,2.247,0,0,1,1.467.55,1.651,1.651,0,0,1,.642,1.375c0,1.284-.734,1.926-2.109,1.926a2.329,2.329,0,0,1-1.467-.458,1.834,1.834,0,0,1,0-2.751,1.953,1.953,0,0,1,1.467-.642m-50.341,0a2.247,2.247,0,0,1,1.467.55,1.651,1.651,0,0,1,.642,1.375c0,1.284-.734,1.926-2.109,1.926a2.329,2.329,0,0,1-1.467-.458,2.017,2.017,0,0,1,1.467-3.393m41.446.825a3.154,3.154,0,0,1,.825.092c.458.092.734.183.825.183.367.092.917.092,1.651.183.183,0,.275.092.275.183a7.492,7.492,0,0,1-.092,1.284c0,.55-.092,1.009-.092,1.284s.092.55.275.55H81.65c.183,0,.275.092.275.183a2.283,2.283,0,0,1-.092.734c0,.367-.092.55-.092.734v1.467a.248.248,0,0,1-.275.275H79.174c-.092,0-.183.183-.183.458v1.467a3.8,3.8,0,0,0,.183,1.284,1.33,1.33,0,0,0,1.192.458,2.283,2.283,0,0,0,.734-.092,2.577,2.577,0,0,1,.734-.092.248.248,0,0,1,.275.275,4.933,4.933,0,0,1-.092,1.009,4.5,4.5,0,0,0-.092,1.009c0,.183,0,.367-.092.367s-.183.183-.367.275a5.823,5.823,0,0,1-3.118.734c-2.109,0-3.118-.825-3.118-2.384a20.175,20.175,0,0,1,.092-2.109c0-.917.092-1.651.092-2.109,0-.275-.183-.458-.55-.458h-.275V35.833a4.208,4.208,0,0,1,.092-.917c0-.275.092-.458.092-.642h.183a.541.541,0,0,0,.458-.183,5.85,5.85,0,0,0,0-1.284V31.431c0-.917,0-1.375.183-1.375M29.934,32.807c.092,0,.367.367.825,1.192a3.75,3.75,0,0,1,.642,1.375c0,.092-.092.183-.183.275a1.357,1.357,0,0,0-.642-.092,1.953,1.953,0,0,0-1.1.275,1.009,1.009,0,0,0-.55.917c0,.275.183.55.55.917A6.666,6.666,0,0,1,30.484,38.9a3.017,3.017,0,0,1,.55,1.742,6.309,6.309,0,0,1-.183,1.192,2.137,2.137,0,0,1-.642,1.009,12.589,12.589,0,0,1-1.834,1.192,4.585,4.585,0,0,1-2.109.458c-.183,0-.458-.367-1.009-1.192a6.419,6.419,0,0,1-.734-1.467c0-.092,0-.092.092-.092l1.559-.275c.642-.183.917-.55.917-1.009a2.017,2.017,0,0,0-.55-1.1,8.766,8.766,0,0,1-1.009-1.192,2.962,2.962,0,0,1-.55-1.651,3.237,3.237,0,0,1,1.651-2.751,7.161,7.161,0,0,1,3.3-.917m-9.995.275a4.933,4.933,0,0,1,3.576,1.559,4.842,4.842,0,0,1,1.467,3.576c0,.734-.275,1.192-.734,1.284q-.138,0-2.2.275c-.825.092-2.109.183-3.851.367a1.54,1.54,0,0,0,.917,1.1,3.806,3.806,0,0,0,1.467.275A3.851,3.851,0,0,0,22.506,41l.825-.55c.183.092.367.458.734,1.1a3.805,3.805,0,0,1,.55,1.284c0,.092-.092.092-.183.275a5.6,5.6,0,0,1-4.126,1.375,5.548,5.548,0,0,1-4.126-1.467A5.318,5.318,0,0,1,14.529,38.9,5.841,5.841,0,0,1,16,34.769a4.924,4.924,0,0,1,3.943-1.651M18.288,38.07a16.505,16.505,0,0,0,2.476-.275c.275,0,.367-.092.367-.183a1.935,1.935,0,0,0-.458-1.192,1.43,1.43,0,0,0-1.1-.55,1.311,1.311,0,0,0-1.1.55A1.944,1.944,0,0,0,18.1,37.7c-.183.275-.092.367.183.367m41.9-4.676a3.182,3.182,0,0,1,2.659,1.192l.092.092c.092,0,.183-.183.183-.55s.183-.55.275-.55c.275,0,.734.092,1.559.183a7.806,7.806,0,0,1,1.559.367.2.2,0,0,1,.183.183v.183a19.752,19.752,0,0,0-.367,4.126c0,.55,0,1.375.092,2.476s.092,1.926.092,2.476c0,.275-.092.458-.367.458-.917.092-1.926.092-3.118.092-.183,0-.275-.183-.275-.642s-.092-.642-.183-.642-.092.092-.183.183a3.521,3.521,0,0,1-2.567,1.192,4.383,4.383,0,0,1-3.484-1.651,5.364,5.364,0,0,1-1.284-3.76,5.823,5.823,0,0,1,1.375-4.035,5.364,5.364,0,0,1,3.76-1.375m.55,7.519a1.706,1.706,0,0,0,1.467-.642,2.155,2.155,0,0,0,.55-1.559,2.311,2.311,0,0,0-.55-1.559,2.164,2.164,0,0,0-1.467-.642,1.935,1.935,0,0,0-1.467.55,2.155,2.155,0,0,0-.55,1.559,1.834,1.834,0,0,0,.642,1.467,1.44,1.44,0,0,0,1.375.825m-9.72-7.519a3.576,3.576,0,0,1,2.292.642,2.485,2.485,0,0,1,1.009,2.109v7.519c0,.275-.092.367-.367.458H52.307a6.171,6.171,0,0,1-1.651-.092c-.183,0-.367-.183-.367-.55V37.887A1.137,1.137,0,0,0,49.1,36.6a1.669,1.669,0,0,0-1.009.458,1.256,1.256,0,0,0-.55.917v5.777c0,.275-.092.367-.275.367h-3.3c-.183,0-.275-.183-.275-.458v-5.5c0-1.009-.367-1.559-1.192-1.559a1.706,1.706,0,0,0-1.009.367c-.367.275-.642.55-.642.825v5.868c0,.183,0,.275-.092.367a.917.917,0,0,1-.367.092H38.828a9.425,9.425,0,0,1-1.559-.092c-.183,0-.275,0-.275-.092a.917.917,0,0,1-.092-.367V38.437a34.358,34.358,0,0,0-.275-4.035v-.183c0-.092.092-.183.183-.275a5.162,5.162,0,0,1,.917-.183,5.447,5.447,0,0,1,1.009-.092,3.832,3.832,0,0,0,.825-.275,4.649,4.649,0,0,1,.825-.183c.092,0,.183.275.183.734s0,.734.092.734.183-.092.275-.183A13.756,13.756,0,0,1,42.5,33.485a4.108,4.108,0,0,1,1.834-.367,3.512,3.512,0,0,1,1.742.458,2.274,2.274,0,0,1,1.1,1.375,4.346,4.346,0,0,1,1.559-1.284c1.009-.092,1.651-.275,2.292-.275m43.83.092a3.75,3.75,0,0,1,2.292.642,2.283,2.283,0,0,1,1.009,2.109v7.7c0,.183-.092.275-.275.367H96.321a6.171,6.171,0,0,1-1.651-.092.422.422,0,0,1-.367-.458v-5.5c0-1.009-.458-1.467-1.284-1.467a1.706,1.706,0,0,0-1.009.367c-.367.275-.642.55-.642.825v5.869c0,.275-.092.367-.367.367H89.444a7.033,7.033,0,0,1-1.651-.092.394.394,0,0,1-.367-.367V38.62a16.294,16.294,0,0,0-.458-4.218v-.183c0-.092.092-.183.183-.275.458-.092,1.1-.092,1.834-.275,1.192-.183,1.834-.367,1.926-.367s.183.275.183.734.092.734.183.734c-.092,0,.275-.275,1.192-.734a7.18,7.18,0,0,1,2.384-.55m-24.024,0c.092,0,.183.275.275.642s.092.642.183.642c-.092,0,.275-.183.917-.55a4.466,4.466,0,0,1,2.017-.55c.367,0,.642.092.642.275v.275q-.55,0-.55.275v2.567c0,.183.092.275.367.275v.183a.431.431,0,0,1-.458.458H73.03a1.724,1.724,0,0,0-1.192.275,1.55,1.55,0,0,0-.367,1.1v4.585c0,.183-.092.275-.367.275H69.546a8.913,8.913,0,0,1-1.651-.092.339.339,0,0,1-.367-.367V38.62A17.367,17.367,0,0,0,67.07,34.4v-.183a.2.2,0,0,1,.183-.183A8.161,8.161,0,0,0,69,33.761l1.834-.275m28.426.367a3.8,3.8,0,0,1,.917.092c.458,0,.734.092.917.092a3.8,3.8,0,0,0,.917-.092c.458,0,.734-.092.917-.092s.275.092.275.183v.183a37.65,37.65,0,0,0-.275,4.86v4.768a.248.248,0,0,1-.275.275c-.275,0-.825.092-1.651.092a6.593,6.593,0,0,1-1.651-.092c-.183,0-.275-.092-.275-.183V38.987a33.926,33.926,0,0,0-.275-4.86v-.183c.183,0,.275-.092.458-.092m-16.689,0a3.8,3.8,0,0,1,.917.092c.458,0,.734.092.917.092a3.8,3.8,0,0,0,.917-.092c.458,0,.734-.092.917-.092s.275.092.275.183v.183a37.647,37.647,0,0,0-.275,4.86v4.768a.248.248,0,0,1-.275.275c-.275,0-.825.092-1.651.092a6.593,6.593,0,0,1-1.651-.092c-.183,0-.275-.092-.275-.183V38.987a33.929,33.929,0,0,0-.275-4.86v-.183c.183,0,.275-.092.458-.092m-50.341,0a3.8,3.8,0,0,1,.917.092c.458,0,.734.092.917.092a3.8,3.8,0,0,0,.917-.092c.458,0,.734-.092.917-.092s.275.092.275.183v.183a37.648,37.648,0,0,0-.275,4.86v4.768a.248.248,0,0,1-.275.275c-.275,0-.825.092-1.651.092a6.593,6.593,0,0,1-1.651-.092c-.183,0-.275-.092-.275-.183V38.987a33.928,33.928,0,0,0-.275-4.86v-.183c.183,0,.275-.092.458-.092M14.254,26.7h-.367l-.642.092a7.628,7.628,0,0,0-1.192.183,14.268,14.268,0,0,1-1.834.092h-.183l-.183.092a2.054,2.054,0,0,0-1.559,2.072V31.56a3.438,3.438,0,0,0-1.009-.092,6.281,6.281,0,0,0-5.043,2.292A7.822,7.822,0,0,0,.5,38.8a7.336,7.336,0,0,0,1.742,5.043,6.465,6.465,0,0,0,5.043,2.2,6.886,6.886,0,0,0,2.384-.458,3.237,3.237,0,0,0,1.559.367,15.743,15.743,0,0,0,3.118-.092,2.265,2.265,0,0,0,1.467-.917,8.078,8.078,0,0,0,4.493,1.284,8.436,8.436,0,0,0,4.218-1.009,2.2,2.2,0,0,0,1.834,1.1,6.694,6.694,0,0,0,2.843-.642,4.86,4.86,0,0,0,1.375-.734,2.1,2.1,0,0,0,1.559,1.009,8.555,8.555,0,0,0,2.017.092c1.284,0,1.742-.092,2.017-.092a1.3,1.3,0,0,0,.55-.183,4.649,4.649,0,0,0,.825.183,11.692,11.692,0,0,0,1.742.092,9.463,9.463,0,0,0,1.742-.092,1.88,1.88,0,0,0,1.467-.642c.092-.092.092-.183.183-.183a2.081,2.081,0,0,0,1.651.825h3.3a2.274,2.274,0,0,0,1.742-.825,2.109,2.109,0,0,0,1.284.825,8.555,8.555,0,0,0,2.017.092,6.629,6.629,0,0,0,1.834-.092,2.109,2.109,0,0,0,1.651-1.1,6.07,6.07,0,0,0,6.052.825,2.485,2.485,0,0,0,1.1.367c1.284,0,2.292,0,3.209-.092a2.677,2.677,0,0,0,.825-.183,1.724,1.724,0,0,0,.734.183,11.114,11.114,0,0,0,1.834.092,8.95,8.95,0,0,0,1.742-.092,2.109,2.109,0,0,0,2.017-2.109v-4.31h.275v.092c0,1.009-.092,1.742-.092,2.2,0,1.009.367,4.218,4.952,4.218a8.932,8.932,0,0,0,3.118-.55,2.751,2.751,0,0,0,.917.367,8.555,8.555,0,0,0,2.017.092c1.284,0,1.742-.092,2.017-.092a1.3,1.3,0,0,0,.55-.183,1.3,1.3,0,0,0,.55.183c.275,0,.734.092,1.926.092a6.18,6.18,0,0,0,1.742-.092,2.476,2.476,0,0,0,1.559-.917,2.457,2.457,0,0,0,1.375.917,9.059,9.059,0,0,0,2.017.092,6.629,6.629,0,0,0,1.834-.092,1.3,1.3,0,0,0,.55-.183.688.688,0,0,0,.458.092,8.556,8.556,0,0,0,2.017.092c1.284,0,1.742-.092,2.017-.092a2.091,2.091,0,0,0,1.742-2.109V38.987c0-1.742.092-3.3.183-4.676v-.458a1.834,1.834,0,0,0-.367-1.192,3.723,3.723,0,0,0,.367-1.742,3.558,3.558,0,0,0-1.375-2.843,4.31,4.31,0,0,0-5.318,0,3.668,3.668,0,0,0-1.375,2.843,2.824,2.824,0,0,0,.092.917,7,7,0,0,0-2.476-.458,5.5,5.5,0,0,0-2.476.642,1.678,1.678,0,0,0-1.375-.55,9.49,9.49,0,0,0-2.2.367.825.825,0,0,0-.458.092,3.117,3.117,0,0,0,.092-.917,3.558,3.558,0,0,0-1.375-2.843,4.319,4.319,0,0,0-5.318,0,4.41,4.41,0,0,0-1.1,1.467,1.953,1.953,0,0,0-1.651-1.009c-.734-.092-1.284-.183-1.559-.183a3.832,3.832,0,0,1-.642-.092,8.546,8.546,0,0,0-1.284-.183c-1.375,0-2.109,1.009-2.109,3.118h1.742l-1.742.092v.458a6.758,6.758,0,0,0-1.284.367,1.678,1.678,0,0,0-1.375-.55,13.232,13.232,0,0,0-2.017.367c-.734.092-1.284.183-1.651.183h-.183l-.183.092H66.7c-.367-.092-.734-.183-1.284-.275a7.7,7.7,0,0,0-1.926-.275,1.54,1.54,0,0,0-1.009.275,6.006,6.006,0,0,0-2.292-.458,6.639,6.639,0,0,0-4.86,1.834l-.825-.825a5.722,5.722,0,0,0-3.393-1.009,6.886,6.886,0,0,0-2.843.734c-.183.092-.275.183-.458.275a1.614,1.614,0,0,1-.458-.367A5.428,5.428,0,0,0,44.7,31.56a5.859,5.859,0,0,0-2.567.55,2.476,2.476,0,0,0-1.467-.458,9.536,9.536,0,0,0-1.375.183c-.367.092-.55.183-.642.183a1.614,1.614,0,0,0-.55.092H38a3.438,3.438,0,0,0,.092-1.009,3.558,3.558,0,0,0-1.375-2.843,4.31,4.31,0,0,0-5.318,0,3.824,3.824,0,0,0-1.375,2.751H29.75a7.235,7.235,0,0,0-4.218,1.375,5.318,5.318,0,0,0-1.1.917,6.419,6.419,0,0,0-4.768-1.926,6.877,6.877,0,0,0-3.943,1.1,17.908,17.908,0,0,1,.183-2.659L16,29.359v-.275a2.081,2.081,0,0,0-.458-1.651c-.183-.55-.642-.734-1.284-.734M8.2,38.4h0c.092,0,.092,0,.092.092a.458.458,0,0,1,0,.55.4.4,0,0,1-.092-.275c-.092-.183,0-.275,0-.367m52.541.642c-.092,0-.092,0-.183-.092v-.183c0-.183,0-.275.092-.275h.367a.4.4,0,0,1,.092.275c0,.183,0,.183-.092.275Z" transform="translate(-0.494 -26.7)"/></g><g transform="translate(1.922 25.258)"><path class="r" d="M103.189,39.3v4.768a.248.248,0,0,1-.275.275c-.275,0-.825.092-1.651.092a6.594,6.594,0,0,1-1.651-.092c-.183,0-.275-.092-.275-.183V39.213a33.929,33.929,0,0,0-.275-4.86v-.183c0-.183.092-.183.275-.183a3.8,3.8,0,0,1,.917.092c.458,0,.734.092.917.092a3.8,3.8,0,0,0,.917-.092c.458,0,.734-.092.917-.092s.275.092.275.183v.183c0,1.467-.092,3.118-.092,4.952m.275-8.069c0,1.284-.734,1.926-2.109,1.926a2.329,2.329,0,0,1-1.467-.458,1.834,1.834,0,0,1,0-2.751,2.017,2.017,0,0,1,1.467-.458,2.247,2.247,0,0,1,1.467.55,1.165,1.165,0,0,1,.642,1.192M98.421,43.981c0,.183-.092.275-.275.367H96.587a6.172,6.172,0,0,1-1.651-.092.422.422,0,0,1-.367-.458V38.3c0-1.009-.458-1.467-1.284-1.467a1.706,1.706,0,0,0-1.009.367c-.367.275-.642.55-.642.825v5.868c0,.275-.092.367-.367.367H89.71a7.033,7.033,0,0,1-1.651-.092.394.394,0,0,1-.367-.367V38.662a16.294,16.294,0,0,0-.458-4.218v-.183c0-.092.092-.183.183-.275.458-.092,1.1-.092,1.834-.275,1.192-.183,1.834-.367,1.926-.367s.183.275.183.734.092.734.183.734c-.092,0,.275-.275,1.192-.734a5.1,5.1,0,0,1,2.292-.734,3.75,3.75,0,0,1,2.292.642,2.283,2.283,0,0,1,1.009,2.109v5.593c.092,1.1.092,1.834.092,2.292M86.5,39.3v4.768a.248.248,0,0,1-.275.275c-.275,0-.825.092-1.651.092a6.594,6.594,0,0,1-1.651-.092c-.183,0-.275-.092-.275-.183V39.213a33.926,33.926,0,0,0-.275-4.86v-.183c0-.183.092-.183.275-.183a3.8,3.8,0,0,1,.917.092c.458,0,.734.092.917.092a3.8,3.8,0,0,0,.917-.092c.458,0,.734-.092.917-.092s.275.092.275.183v.183c0,1.467-.092,3.118-.092,4.952m.275-8.069c0,1.284-.734,1.926-2.109,1.926A2.329,2.329,0,0,1,83.2,32.7a1.834,1.834,0,0,1,0-2.751,2.017,2.017,0,0,1,1.467-.458,2.247,2.247,0,0,1,1.467.55,1.165,1.165,0,0,1,.642,1.192m-4.4,9.9a4.933,4.933,0,0,1-.092,1.009,4.5,4.5,0,0,0-.092,1.009c0,.183,0,.367-.092.367s-.183.183-.367.275a5.823,5.823,0,0,1-3.118.734c-2.109,0-3.118-.825-3.118-2.384a20.177,20.177,0,0,1,.092-2.109c0-.917.092-1.651.092-2.109,0-.275-.183-.458-.55-.458h-.367c-.275,0-.367-.092-.367-.275V34.628c0-.183.275-.183.734-.275a.541.541,0,0,0,.458-.183,5.85,5.85,0,0,0,0-1.284V31.51c0-.825.092-1.284.275-1.284a3.154,3.154,0,0,1,.825.092c.458.092.734.183.825.183.367.092.917.092,1.651.183.183,0,.275.092.275.183a7.492,7.492,0,0,1-.092,1.284c0,.55-.092,1.009-.092,1.284s.092.55.275.55h2.384c.183,0,.275.092.275.183a2.283,2.283,0,0,1-.092.734c0,.367-.092.55-.092.734V37.1a.248.248,0,0,1-.275.275H79.44c-.092,0-.183.183-.183.458V39.3a3.8,3.8,0,0,0,.183,1.284,1.33,1.33,0,0,0,1.192.458,2.283,2.283,0,0,0,.734-.092,2.577,2.577,0,0,1,.734-.092.248.248,0,0,1,.275.275m-7.519-3.576a.431.431,0,0,1-.458.458H73.2a1.724,1.724,0,0,0-1.192.275,1.55,1.55,0,0,0-.367,1.1v4.585c0,.183-.092.275-.367.275H69.72a8.913,8.913,0,0,1-1.651-.092A.339.339,0,0,1,67.7,43.8V38.662a17.367,17.367,0,0,0-.458-4.218v-.183a.2.2,0,0,1,.183-.183A8.161,8.161,0,0,0,69.17,33.8a17.424,17.424,0,0,0,1.742-.367c.092,0,.183.275.275.642s.092.642.183.642c-.092,0,.183-.183.917-.55a4.466,4.466,0,0,1,2.017-.55c.367,0,.642.092.642.275a3.8,3.8,0,0,1-.092.917c0,.458-.092.734-.092.917v.825a5.447,5.447,0,0,1,.092,1.009M63.026,38.937a2.311,2.311,0,0,0-.55-1.559,2.164,2.164,0,0,0-1.467-.642,1.935,1.935,0,0,0-1.467.55,2.155,2.155,0,0,0-.55,1.559A2.2,2.2,0,0,0,61.1,40.955a1.705,1.705,0,0,0,1.467-.642,1.9,1.9,0,0,0,.458-1.375m3.484-.092c0,.55,0,1.375.092,2.476s.092,1.926.092,2.476c0,.275-.092.458-.367.458-.917.092-1.926.092-3.118.092-.183,0-.275-.183-.275-.642s-.092-.642-.183-.642-.092.092-.183.183A3.521,3.521,0,0,1,60,44.439a4.383,4.383,0,0,1-3.484-1.651,5.364,5.364,0,0,1-1.284-3.723,5.823,5.823,0,0,1,1.375-4.035,4.676,4.676,0,0,1,3.851-1.559,3.182,3.182,0,0,1,2.659,1.192l.092.092c.092,0,.183-.183.183-.55s.183-.55.275-.55c.275,0,.734.092,1.559.183a7.806,7.806,0,0,1,1.559.367.2.2,0,0,1,.183.183v.183a17.239,17.239,0,0,0-.458,4.31M54.59,43.926c0,.275-.092.367-.367.458H52.573a6.17,6.17,0,0,1-1.651-.092c-.183,0-.367-.183-.367-.55V38.149a1.137,1.137,0,0,0-1.192-1.284,1.669,1.669,0,0,0-1.009.458,1.256,1.256,0,0,0-.55.917v5.777c0,.275-.092.367-.275.367h-3.3c-.183,0-.275-.183-.275-.458v-5.5c0-1.009-.367-1.559-1.192-1.559a1.706,1.706,0,0,0-1.009.367c-.367.275-.642.55-.642.825v5.868c0,.183,0,.275-.092.367a.917.917,0,0,1-.367.092H39.094a9.425,9.425,0,0,1-1.559-.092c-.183,0-.275,0-.275-.092a.917.917,0,0,1-.092-.367V38.7a34.358,34.358,0,0,0-.275-4.035v-.183c0-.092.092-.183.183-.275a5.163,5.163,0,0,1,.917-.183A5.447,5.447,0,0,1,39,33.931a3.832,3.832,0,0,0,.825-.275,4.65,4.65,0,0,1,.825-.183c.092,0,.183.275.183.734s0,.734.092.734.183-.092.275-.183a13.755,13.755,0,0,1,1.559-1.009,4.108,4.108,0,0,1,1.834-.367,3.512,3.512,0,0,1,1.742.458,2.274,2.274,0,0,1,1.1,1.375A4.346,4.346,0,0,1,49,33.931a3.851,3.851,0,0,1,1.926-.55,3.576,3.576,0,0,1,2.292.642,2.485,2.485,0,0,1,1.009,2.109v5.5a6.877,6.877,0,0,1,.367,2.292M36.16,39.341v4.768a.248.248,0,0,1-.275.275c-.275,0-.825.092-1.651.092a6.593,6.593,0,0,1-1.651-.092c-.183,0-.275-.092-.275-.183V39.249a33.926,33.926,0,0,0-.275-4.86v-.183c0-.183.092-.183.275-.183a3.8,3.8,0,0,1,.917.092c.458,0,.734.092.917.092a3.8,3.8,0,0,0,.917-.092c.458,0,.734-.092.917-.092s.275.092.275.183v.183c0,1.467-.092,3.118-.092,4.952m.275-8.069c0,1.284-.734,1.926-2.109,1.926a2.329,2.329,0,0,1-1.467-.458,1.834,1.834,0,0,1,0-2.751,2.017,2.017,0,0,1,1.467-.458,2.247,2.247,0,0,1,1.467.55,1.165,1.165,0,0,1,.642,1.192m-4.86,4.31c0,.092-.092.183-.183.275a1.357,1.357,0,0,0-.642-.092,1.953,1.953,0,0,0-1.1.275,1.009,1.009,0,0,0-.55.917c0,.275.183.55.55.917a6.667,6.667,0,0,1,1.009,1.192,3.017,3.017,0,0,1,.55,1.742A6.309,6.309,0,0,1,31.025,42a2.136,2.136,0,0,1-.642,1.009A12.59,12.59,0,0,1,28.549,44.2a4.585,4.585,0,0,1-2.109.458c-.183,0-.458-.367-1.009-1.192A6.419,6.419,0,0,1,24.7,42c0-.092,0-.092.092-.092l1.559-.275c.642-.183.917-.55.917-1.009a2.017,2.017,0,0,0-.55-1.1,8.766,8.766,0,0,1-1.009-1.192,2.962,2.962,0,0,1-.55-1.651,3.237,3.237,0,0,1,1.651-2.751,5.722,5.722,0,0,1,3.118-1.009c.092,0,.367.367.825,1.192a3.338,3.338,0,0,1,.825,1.467M21.3,37.745a1.935,1.935,0,0,0-.458-1.192,1.43,1.43,0,0,0-1.1-.55,1.311,1.311,0,0,0-1.1.55,1.944,1.944,0,0,0-.367,1.284.248.248,0,0,0,.275.275,16.505,16.505,0,0,0,2.476-.275.174.174,0,0,0,.275-.092m3.76.642c0,.734-.275,1.192-.734,1.284q-.138,0-2.2.275c-.825.092-2.109.183-3.851.367a1.54,1.54,0,0,0,.917,1.1,3.805,3.805,0,0,0,1.467.275,3.851,3.851,0,0,0,1.926-.55l.825-.55c.183.092.367.458.734,1.1a3.805,3.805,0,0,1,.55,1.284c0,.092-.092.092-.183.275a5.6,5.6,0,0,1-4.126,1.375,5.548,5.548,0,0,1-4.126-1.467,5.318,5.318,0,0,1-1.651-4.09,5.841,5.841,0,0,1,1.467-4.126,5.052,5.052,0,0,1,3.943-1.651A4.933,4.933,0,0,1,23.6,34.848a4.842,4.842,0,0,1,1.467,3.576m-14.58.458a2.081,2.081,0,0,0-.55-1.467,1.834,1.834,0,0,0-1.467-.642,1.54,1.54,0,0,0-1.375.642,2.311,2.311,0,0,0-.55,1.559,2.081,2.081,0,0,0,.55,1.467,1.65,1.65,0,0,0,1.375.642,1.834,1.834,0,0,0,1.467-.642,2.311,2.311,0,0,0,.55-1.559m4.035-9.9c0-.183,0,.092-.092.734a27.141,27.141,0,0,0-.183,3.118c-.092,1.375-.092,3.026-.092,4.86a48.534,48.534,0,0,0,.275,6.327v.275c0,.092-.092.092-.183.183-.275,0-1.192.092-2.843.092-.367,0-.642-.092-.642-.275v-.825c0-.092,0-.092-.092-.183a.321.321,0,0,1-.183.092,4.246,4.246,0,0,1-2.934,1.192,4.7,4.7,0,0,1-3.668-1.559A5.447,5.447,0,0,1,2.6,39.157,5.905,5.905,0,0,1,3.883,35.27a4.493,4.493,0,0,1,3.668-1.651,3.448,3.448,0,0,1,2.567,1.009l.183.183c.092,0,.092-.092.092-.275V29.585c0-.183.092-.367.183-.367.458,0,1.1-.092,1.926-.092a14.377,14.377,0,0,0,1.926-.275c0-.183.092-.092.092.092" transform="translate(-2.589 -28.751)"/></g><g transform="translate(81.818 17.86)"><path class="n" d="M91.416,21.588s.156.44,0,.559-.348.339-.532.275a.77.77,0,0,1-.266-.138s-.064.11-.33.064-.266-.138-.284-.229-.11-.174-.128-.257-.193-.156-.147-.348,0-.275.193-.312.165,0,.358.119a.651.651,0,0,0,.284.229.917.917,0,0,0,0-.284c.064-.1,0-.193.193-.312s.275-.33.376-.257.431.11.449.2.11.165.064.358a.587.587,0,0,0-.275.33" transform="translate(-89.722 -20.683)"/></g></svg>