<svg xmlns="http://www.w3.org/2000/svg" width="45.107" height="19" viewBox="0 0 45.107 19"><defs><style>.a{fill:#19ff8c;font-size:16px;font-family:Montserrat-Medium, Montserrat;font-weight:500;}.b{fill:#1b0c36;}.c,.d{stroke:none;}.d{fill:#fbbf14;}</style></defs><g transform="translate(-9.387 0)"><g transform="translate(0 0)"><text class="a" transform="translate(21.388 15)"><tspan x="-11.344" y="0">5.9</tspan></text><g class="b" transform="translate(37.949 1)"><path class="c" d="M 11.83902072906494 14.52998638153076 C 11.74678134918213 14.52998638153076 11.65693092346191 14.50252628326416 11.57196140289307 14.44834613800049 L 9.079191207885742 12.85908603668213 C 8.837861061096191 12.70521640777588 8.55902099609375 12.62389659881592 8.272810935974121 12.62389659881592 C 7.986600875854492 12.62389659881592 7.707760810852051 12.70521640777588 7.466431140899658 12.85908603668213 L 4.973660945892334 14.44835662841797 C 4.888690948486328 14.502516746521 4.798840999603271 14.52998638153076 4.706581115722656 14.52998638153076 C 4.554420948028564 14.52998638153076 4.404991149902344 14.4558162689209 4.306870937347412 14.33158683776855 C 4.240770816802979 14.24789619445801 4.171771049499512 14.10697650909424 4.218461036682129 13.91091632843018 L 4.937991142272949 10.88937664031982 C 5.067670822143555 10.34484672546387 4.885971069335938 9.778216361999512 4.463790893554688 9.410626411437988 L 2.13140082359314 7.379796504974365 C 1.898480892181396 7.176996231079102 1.960570931434631 6.919426441192627 1.985150933265686 6.845316410064697 C 2.00973105430603 6.771206378936768 2.113850831985474 6.527576446533203 2.421810865402222 6.504146575927734 L 5.412691116333008 6.276606559753418 C 5.980401039123535 6.233416557312012 6.482970714569092 5.863576412200928 6.693050861358643 5.334396362304688 L 7.808091163635254 2.525686502456665 C 7.92431116104126 2.232926368713379 8.193181037902832 2.210176467895508 8.272810935974121 2.210176467895508 C 8.35244083404541 2.210176467895508 8.621311187744141 2.232926368713379 8.737530708312988 2.525686502456665 L 9.852560997009277 5.334396362304688 C 10.06265068054199 5.863576412200928 10.56523132324219 6.233416557312012 11.13293075561523 6.276606559753418 L 14.12382125854492 6.504146575927734 C 14.43177127838135 6.527576446533203 14.53589057922363 6.771206378936768 14.56047058105469 6.845316410064697 C 14.58505058288574 6.919426441192627 14.64714050292969 7.176996231079102 14.41422080993652 7.379796504974365 L 12.08183097839355 9.410626411437988 C 11.6596508026123 9.778216361999512 11.47795104980469 10.34484672546387 11.60763072967529 10.88938617706299 L 12.32716083526611 13.91091632843018 C 12.37384128570557 14.10692596435547 12.30484104156494 14.24784660339355 12.23873138427734 14.33154678344727 C 12.14060115814209 14.45579624176025 11.99117088317871 14.5299768447876 11.83902072906494 14.52998638153076 Z"/><path class="d" d="M 8.272808074951172 2.71018123626709 L 8.272809982299805 2.710176467895508 L 7.157770156860352 5.518896102905273 C 6.877650260925293 6.224466323852539 6.207559585571289 6.717576026916504 5.450619697570801 6.775166511535645 L 2.459739685058594 7.002706527709961 L 4.792110443115234 9.033526420593262 C 5.355030059814453 9.523635864257813 5.597299575805664 10.27914619445801 5.424389839172363 11.0051965713501 L 4.704859733581543 14.02673625946045 L 7.197620391845703 12.43748664855957 C 7.519399642944336 12.23232650756836 7.891200065612793 12.12388610839844 8.272809982299805 12.12388610839844 C 8.654399871826172 12.12388610839844 9.026189804077148 12.23232650756836 9.347990036010742 12.43747711181641 L 11.84075927734375 14.02674674987793 L 11.12124061584473 11.00521659851074 C 10.94832038879395 10.27914619445801 11.19058990478516 9.523635864257813 11.75349044799805 9.033536911010742 L 14.08588981628418 7.002706527709961 L 11.09499931335449 6.775166511535645 C 10.33806037902832 6.717576026916504 9.667970657348633 6.224466323852539 9.387840270996094 5.518886566162109 L 8.272809982299805 2.710186004638672 C 8.272809028625488 2.710185050964355 8.272809028625488 2.710183143615723 8.272808074951172 2.71018123626709 M 8.272809982299805 1.710176467895508 C 8.654025077819824 1.710176467895508 9.035240173339844 1.920516014099121 9.202249526977539 2.341196060180664 L 10.31727981567383 5.149906158447266 C 10.45835018157959 5.505236625671387 10.78965950012207 5.749046325683594 11.17086029052734 5.778046607971191 L 14.16174983978271 6.005586624145508 C 15.04675960540771 6.07292652130127 15.41193962097168 7.174056053161621 14.74254989624023 7.75688648223877 L 12.41016006469727 9.787715911865234 C 12.12964057922363 10.03195571899414 12.00786018371582 10.41171646118164 12.09403038024902 10.77354621887207 L 12.81356048583984 13.79508590698242 C 12.97407150268555 14.46912956237793 12.43954849243164 15.02998161315918 11.83904552459717 15.02998161315918 C 11.66074371337891 15.02998161315918 11.47664451599121 14.98054695129395 11.3031702041626 14.86994647979736 L 8.810400009155273 13.280686378479 C 8.646444320678711 13.17615699768066 8.459627151489258 13.12389183044434 8.272809982299805 13.12389183044434 C 8.085992813110352 13.12389183044434 7.899174690246582 13.17615699768066 7.735219955444336 13.280686378479 L 5.242449760437012 14.86994647979736 C 5.069021224975586 14.98051643371582 4.884832382202148 15.02998161315918 4.706576347351074 15.02998161315918 C 4.106017112731934 15.02998161315918 3.57154655456543 14.46918296813965 3.732069969177246 13.79508590698242 L 4.451589584350586 10.77354621887207 C 4.537759780883789 10.41171646118164 4.415980339050293 10.03195571899414 4.135459899902344 9.787715911865234 L 1.803070068359375 7.75688648223877 C 1.13368034362793 7.174056053161621 1.498860359191895 6.07292652130127 2.383870124816895 6.005586624145508 L 5.374759674072266 5.778046607971191 C 5.755959510803223 5.749046325683594 6.08726978302002 5.505236625671387 6.228340148925781 5.149906158447266 L 7.34337043762207 2.341196060180664 C 7.510379791259766 1.920516014099121 7.891594886779785 1.710176467895508 8.272809982299805 1.710176467895508 Z"/></g></g></g></svg>