<svg xmlns="http://www.w3.org/2000/svg" width="58" height="58" viewBox="0 0 58 58"><defs><style>.a,.b,.d{fill:none;}.a,.b{stroke:#fff;}.a{opacity:0.5;}.c{stroke:none;}</style></defs><g transform="translate(-8484.091 -1953.267)"><g class="a" transform="translate(8484.091 1953.267)"><circle class="c" cx="29" cy="29" r="29"/><circle class="d" cx="29" cy="29" r="28.5"/></g><path class="b" d="M204.033,98.1a1.73,1.73,0,0,1-1.129-.417c-1.18-1.015-2.318-1.969-3.322-2.81l-.006,0a61.4,61.4,0,0,1-7.254-6.7,10.6,10.6,0,0,1-2.9-7,8.9,8.9,0,0,1,2.317-6.134,7.918,7.918,0,0,1,5.844-2.5,7.428,7.428,0,0,1,4.59,1.559A9.3,9.3,0,0,1,204.033,76a9.3,9.3,0,0,1,1.856-1.906,7.428,7.428,0,0,1,4.59-1.559,7.918,7.918,0,0,1,5.844,2.5,8.9,8.9,0,0,1,2.318,6.134,10.6,10.6,0,0,1-2.9,7,61.392,61.392,0,0,1-7.253,6.7c-1.006.843-2.145,1.8-3.329,2.815A1.732,1.732,0,0,1,204.033,98.1Z" transform="translate(8309.166 1897.227)"/></g></svg>