<svg xmlns="http://www.w3.org/2000/svg" width="40" height="40" viewBox="0 0 40 40"><defs><style>.a{fill:rgba(16,7,33,0.5);stroke:#d6c6f4;}.b{fill:#d6c6f4;}.c{stroke:none;}.d{fill:none;}</style></defs><g transform="translate(-777 -802)"><g transform="translate(780 810)"><g class="a" transform="translate(-3 -8)"><circle class="c" cx="20" cy="20" r="20"/><circle class="d" cx="20" cy="20" r="19.5"/></g><g transform="translate(8.174 5.356)"><path class="b" d="M22.9,77.11a2.4,2.4,0,0,1,.422.043.4.4,0,1,0,.14-.793,3.193,3.193,0,0,0-3.788,3.17,3.18,3.18,0,0,0,.056.562.4.4,0,0,0,.4.333.349.349,0,0,0,.071-.007.4.4,0,0,0,.327-.467,2.341,2.341,0,0,1-.043-.422A2.422,2.422,0,0,1,22.9,77.11Z" transform="translate(-13.603 -72.532)"/><path class="b" d="M23.327,70.681a18.86,18.86,0,0,0-4.546-3.768l2.233-2.249a.387.387,0,0,0,0-.544.38.38,0,0,0-.54,0l-2.593,2.611-.006.006L7.489,77.2a.387.387,0,0,0,0,.544.383.383,0,0,0,.271.112.379.379,0,0,0,.27-.112l2.3-2.314a9.414,9.414,0,0,0,3.925.888c4.706,0,8.9-4.925,9.076-5.135A.386.386,0,0,0,23.327,70.681Zm-6.783.248a2.3,2.3,0,0,1-2.291,2.307,2.261,2.261,0,0,1-1.328-.427l3.2-3.217A2.3,2.3,0,0,1,16.544,70.93Zm-2.291,4.615a8.582,8.582,0,0,1-3.345-.7l1.472-1.482a3.015,3.015,0,0,0,1.873.647,3.08,3.08,0,0,0,2.413-4.963l1.554-1.565a18.248,18.248,0,0,1,4.3,3.451C21.612,71.923,18.029,75.545,14.252,75.545Z" transform="translate(-4.959 -64.008)"/><path class="b" d="M3.994,78.375a.4.4,0,0,0,.223-.739A14.753,14.753,0,0,1,.924,74.592c.928-1.008,4.736-4.86,8.753-4.86a7.541,7.541,0,0,1,2.389.422.4.4,0,0,0,.51-.253.4.4,0,0,0-.253-.511,8.325,8.325,0,0,0-2.646-.465c-4.968,0-9.4,5.164-9.582,5.384a.4.4,0,0,0-.023.491,14.97,14.97,0,0,0,3.7,3.507A.4.4,0,0,0,3.994,78.375Z" transform="translate(0 -67.313)"/></g></g></g></svg>