<svg xmlns="http://www.w3.org/2000/svg" xmlns:xlink="http://www.w3.org/1999/xlink" width="209.504" height="277.925" viewBox="0 0 209.504 277.925"><defs><style>.a{opacity:0.507;fill:url(#a);}.ac,.b,.be,.cw,.gm,.gn,.go,.gp,.gq,.gr,.gs,.gt,.gu,.gv,.gw,.gx,.gy,.gz,.hb,.he,.hh,.r,.y{mix-blend-mode:multiply;}.ac,.ah,.b,.bb,.be,.bm,.bo,.bq,.br,.bs,.bt,.bu,.bv,.bw,.bx,.cw,.cy,.df,.dh,.di,.dk,.dv,.dw,.gi,.gj,.gk,.gl,.gm,.gn,.go,.gp,.gq,.gr,.gs,.gt,.gu,.gv,.gw,.gx,.gy,.gz,.hb,.hd,.he,.hh,.r,.y{isolation:isolate;}.b{fill:url(#b);}.c{opacity:0.05;}.d{opacity:0.064;}.e{opacity:0.077;}.f{opacity:0.091;}.g{opacity:0.105;}.h{opacity:0.118;}.i{opacity:0.132;}.j{opacity:0.145;}.k{opacity:0.159;}.l{opacity:0.173;}.m{opacity:0.186;}.n{opacity:0.2;}.o{fill:url(#c);}.p{fill:url(#d);}.q{fill:url(#e);}.ac,.be,.cw,.da,.r,.y{opacity:0.7;}.r{fill:url(#f);}.s{fill:url(#g);}.t{fill:url(#h);}.u{fill:url(#i);}.v{fill:url(#j);}.w{fill:url(#k);}.x{fill:url(#l);}.y{fill:url(#m);}.z{fill:url(#n);}.aa{fill:url(#o);}.ab{fill:url(#p);}.ac{fill:url(#q);}.ad{fill:url(#r);}.ae{fill:url(#s);}.af{fill:url(#t);}.ag{fill:url(#u);}.ah,.bb,.bo,.bs,.bt,.bu,.bv,.bw,.bx,.cy,.di,.dk,.dv,.dw,.gi,.gj,.gk,.gl,.hd{mix-blend-mode:color-dodge;}.ah{fill:url(#v);}.ai{fill:url(#w);}.aj{fill:url(#x);}.ak{fill:url(#y);}.al{fill:#ecff0d;}.am{fill:url(#z);}.an{fill:url(#aa);}.ao{fill:url(#ab);}.ap{fill:url(#ac);}.aq{fill:url(#ad);}.ar{fill:url(#ae);}.as{fill:url(#af);}.at,.dn{fill:#ff4376;}.au{fill:url(#ag);}.av{fill:url(#ah);}.aw{fill:url(#ai);}.ax{fill:url(#aj);}.ay{fill:url(#ak);}.az{fill:url(#al);}.ba{fill:url(#am);}.bb{fill:url(#an);}.bc{fill:url(#ao);}.bd{fill:url(#ap);}.be{fill:url(#aq);}.bf{fill:url(#ar);}.bg{fill:url(#as);}.bh{fill:url(#at);}.bi{fill:url(#au);}.bj{fill:url(#av);}.bk{fill:url(#aw);}.bl{fill:url(#ax);}.bm,.bq,.br,.bs,.bt,.bu,.bv,.cy,.de,.dg,.di,.dk{opacity:0.5;}.bm,.bq,.br,.df,.dh{mix-blend-mode:screen;}.bm{fill:url(#ay);}.bn{fill:url(#az);}.bo{fill:url(#ba);}.bp{fill:url(#bb);}.bq{fill:url(#bc);}.br{fill:url(#bd);}.bs{fill:url(#be);}.bt{fill:url(#bf);}.bu{fill:url(#bg);}.bv{fill:url(#bh);}.bw{fill:url(#bi);}.bx{fill:url(#bj);}.by{opacity:0;}.bz{opacity:0.01;}.ca{opacity:0.019;}.cb{opacity:0.029;}.cc{opacity:0.038;}.cd{opacity:0.048;}.ce{opacity:0.057;}.cf{opacity:0.067;}.cg{opacity:0.076;}.ch{opacity:0.086;}.ci{opacity:0.095;}.cj{opacity:0.105;}.ck{opacity:0.114;}.cl{opacity:0.124;}.cm{opacity:0.133;}.cn{opacity:0.143;}.co{opacity:0.152;}.cp{opacity:0.162;}.cq{opacity:0.171;}.cr{opacity:0.181;}.cs{opacity:0.19;}.ct{fill:url(#bk);}.cu{fill:url(#bl);}.cv{fill:url(#bm);}.cw{fill:url(#bn);}.cx{fill:url(#bo);}.cy{fill:url(#bp);}.cz{opacity:0.9;}.da{fill:url(#bq);}.db{fill:url(#br);}.dc{fill:url(#bu);}.dd{fill:url(#bv);}.de{fill:url(#bw);}.df{fill:url(#bx);}.dg{fill:url(#by);}.dh{fill:url(#ca);}.di{fill:url(#cb);}.dj{fill:url(#cc);}.dk{fill:url(#cd);}.dl{fill:url(#ce);}.dm{fill:url(#cf);}.dn{opacity:0.699;}.do,.dq{opacity:0.8;}.do{fill:url(#cg);}.dp{fill:#03f87e;}.dq{fill:url(#ch);}.dr{fill:url(#ci);}.ds{fill:url(#cj);}.dt{fill:url(#ck);}.du{fill:url(#cl);}.dv{fill:url(#cm);}.dw{fill:url(#cn);}.dx{opacity:0.075;}.dy{opacity:0.1;}.dz{opacity:0.125;}.ea{opacity:0.15;}.eb{opacity:0.175;}.ec{fill:url(#co);}.ed{fill:url(#cp);}.ee{fill:url(#cq);}.ef{fill:url(#cr);}.eg{fill:url(#cs);}.eh{fill:url(#ct);}.ei{fill:url(#cu);}.ej{fill:url(#cv);}.ek{fill:url(#cw);}.el{fill:url(#cx);}.em{fill:url(#cy);}.en{fill:url(#cz);}.eo{fill:url(#da);}.ep{fill:url(#db);}.eq{fill:url(#dc);}.er{fill:url(#dd);}.es{fill:url(#df);}.et{fill:url(#dg);}.eu{fill:url(#dh);}.ev{fill:url(#di);}.ew{fill:url(#dj);}.ex{fill:url(#dk);}.ey{fill:url(#dl);}.ez{fill:url(#dm);}.fa{fill:url(#dn);}.fb{fill:url(#do);}.fc{fill:url(#dp);}.fd{fill:url(#dq);}.fe{fill:url(#dr);}.ff{fill:url(#ds);}.fg{fill:url(#dt);}.fh{fill:url(#dv);}.fi{fill:url(#dw);}.fj{fill:url(#dx);}.fk{fill:url(#dy);}.fl{fill:url(#dz);}.fm{fill:url(#ea);}.fn{fill:url(#eb);}.fo{fill:url(#ec);}.fp{fill:url(#ed);}.fq{fill:url(#ee);}.fr{fill:url(#ef);}.fs{fill:url(#eg);}.ft{fill:url(#eh);}.fu{fill:url(#ei);}.fv{fill:url(#ej);}.fw{fill:url(#ek);}.fx{fill:url(#el);}.fy{fill:url(#em);}.fz{fill:url(#en);}.ga{fill:url(#eo);}.gb{fill:url(#ep);}.gc{fill:url(#eq);}.gd{fill:url(#er);}.ge{fill:url(#es);}.gf{fill:url(#et);}.gg{fill:url(#eu);}.gh{fill:url(#ev);}.gi{fill:url(#ew);}.gj{fill:url(#ex);}.gk{fill:url(#ey);}.gl{fill:url(#ez);}.gm{fill:url(#fa);}.gn{fill:url(#fb);}.go{fill:url(#fc);}.gp{fill:url(#fd);}.gq{fill:url(#fe);}.gr{fill:url(#ff);}.gs{fill:url(#fg);}.gt{fill:url(#fh);}.gu{fill:url(#fi);}.gv{fill:url(#fj);}.gw{fill:url(#fk);}.gx{fill:url(#fl);}.gy{fill:url(#fm);}.gz{fill:url(#fn);}.ha{fill:url(#fo);}.hb{fill:url(#fp);}.hc{fill:url(#fq);}.hd{fill:url(#fr);}.he{fill:url(#fs);}.hf{fill:url(#ft);}.hg{fill:url(#fu);}.hi{fill:#45108a;}.hj{fill:#ebdef3;}.hk{fill:url(#fv);}.hl{fill:url(#fw);}</style><radialGradient id="a" cx="0.5" cy="0.5" r="0.5" gradientTransform="matrix(0, 1, -1, 0, -179.507, 89.274)" gradientUnits="objectBoundingBox"><stop offset="0" stop-color="#4f18ad"/><stop offset="0.29" stop-color="#39117e"/><stop offset="0.945" stop-color="#04010a"/><stop offset="1"/></radialGradient><radialGradient id="b" cx="0.5" cy="0.5" r="0.579" gradientTransform="translate(2.865 -17.016) scale(0.863 0.863)" gradientUnits="objectBoundingBox"><stop offset="0.192" stop-color="#5f5c5d"/><stop offset="1" stop-color="#fff"/></radialGradient><linearGradient id="c" x1="480.681" y1="0.985" x2="481.128" y2="0.015" gradientUnits="objectBoundingBox"><stop offset="0.035" stop-color="#10054d"/><stop offset="0.178" stop-color="#1a1458"/><stop offset="0.354" stop-color="#2b2d6b"/><stop offset="0.702" stop-color="#181059"/><stop offset="0.965" stop-color="#25226c"/></linearGradient><linearGradient id="d" x1="1355.999" y1="0.411" x2="1356.938" y2="0.727" gradientUnits="objectBoundingBox"><stop offset="0" stop-color="#10054d"/><stop offset="1" stop-color="#363885"/></linearGradient><linearGradient id="e" x1="-456.28" y1="0.867" x2="-456.527" y2="0.232" gradientUnits="objectBoundingBox"><stop offset="0.035" stop-color="#363885"/><stop offset="0.114" stop-color="#2b2975"/><stop offset="0.266" stop-color="#10054d"/><stop offset="0.268" stop-color="#10054d"/><stop offset="0.357" stop-color="#130a52"/><stop offset="0.475" stop-color="#1d1863"/><stop offset="0.61" stop-color="#2d307f"/><stop offset="0.747" stop-color="#4250a3"/><stop offset="1" stop-color="#363885"/></linearGradient><linearGradient id="f" x1="0.596" y1="0.431" x2="1.05" y2="0.129" gradientUnits="objectBoundingBox"><stop offset="0" stop-color="#fff"/><stop offset="1"/></linearGradient><linearGradient id="g" x1="-0.698" y1="0.026" x2="1.658" y2="0.966" gradientUnits="objectBoundingBox"><stop offset="0.035" stop-color="#ffa98c"/><stop offset="0.317" stop-color="#feb892"/><stop offset="0.86" stop-color="#fee0a3"/><stop offset="1" stop-color="#feeca8"/></linearGradient><linearGradient id="h" x1="-0.912" y1="0.044" x2="1.772" y2="0.918" xlink:href="#d"/><linearGradient id="i" x1="0.117" y1="0.417" x2="1.678" y2="0.756" xlink:href="#g"/><linearGradient id="j" x1="-0.158" y1="0.568" x2="1.375" y2="0.409" xlink:href="#d"/><linearGradient id="k" x1="139.263" y1="-0.44" x2="138.933" y2="0.633" xlink:href="#g"/><linearGradient id="l" x1="150.395" y1="-0.387" x2="150.084" y2="0.626" xlink:href="#d"/><linearGradient id="m" x1="0.615" y1="0.663" x2="0.48" y2="0.341" xlink:href="#f"/><linearGradient id="n" x1="-1.481" y1="-0.274" x2="1.575" y2="0.926" xlink:href="#d"/><linearGradient id="o" x1="0.007" y1="0.716" x2="1.748" y2="-0.046" xlink:href="#d"/><linearGradient id="p" x1="257.975" y1="-0.128" x2="257.773" y2="0.533" xlink:href="#d"/><linearGradient id="q" x1="0.882" y1="0.538" x2="0.362" y2="0.486" xlink:href="#f"/><linearGradient id="r" x1="0.574" y1="0.646" x2="0.996" y2="1.46" xlink:href="#d"/><linearGradient id="s" x1="0.558" y1="0.561" x2="1.403" y2="1.452" xlink:href="#d"/><linearGradient id="t" x1="217.199" y1="-0.51" x2="216.845" y2="0.643" xlink:href="#d"/><linearGradient id="u" x1="206.956" y1="0.5" x2="207.708" y2="0.5" gradientUnits="objectBoundingBox"><stop offset="0" stop-color="#a7a9ac"/><stop offset="0.209" stop-color="#d3d5d6"/><stop offset="0.288" stop-color="#e6e7e8"/><stop offset="0.611" stop-color="#b9babc"/><stop offset="0.864" stop-color="#939598"/></linearGradient><radialGradient id="v" cx="0.359" cy="0.209" r="0.646" gradientTransform="translate(0.106) scale(0.787 1)" gradientUnits="objectBoundingBox"><stop offset="0" stop-color="#c211a1"/><stop offset="0.26" stop-color="#930c7a"/><stop offset="0.848" stop-color="#1f0219"/><stop offset="1"/></radialGradient><linearGradient id="w" x1="219.975" y1="0.941" x2="219.313" y2="0.066" gradientUnits="objectBoundingBox"><stop offset="0.02" stop-color="#1d1660"/><stop offset="0.101" stop-color="#2c2b76"/><stop offset="0.268" stop-color="#10054d"/><stop offset="0.35" stop-color="#130952"/><stop offset="0.459" stop-color="#1d1663"/><stop offset="0.582" stop-color="#2d2b7f"/><stop offset="0.687" stop-color="#3f419c"/><stop offset="0.771" stop-color="#393a91"/><stop offset="0.916" stop-color="#2a2776"/><stop offset="0.975" stop-color="#231f69"/></linearGradient><linearGradient id="x" x1="206.449" y1="0.5" x2="207.201" y2="0.5" xlink:href="#u"/><linearGradient id="y" x1="206.418" y1="0.5" x2="207.17" y2="0.5" gradientUnits="objectBoundingBox"><stop offset="0" stop-color="#bcbec0"/><stop offset="1" stop-color="#e6e7e8"/></linearGradient><linearGradient id="z" x1="910.223" y1="0.959" x2="909.504" y2="0.049" gradientUnits="objectBoundingBox"><stop offset="0.035" stop-color="#363885"/><stop offset="0.114" stop-color="#2b2975"/><stop offset="0.266" stop-color="#10054d"/><stop offset="0.268" stop-color="#10054d"/><stop offset="0.336" stop-color="#130a52"/><stop offset="0.426" stop-color="#1c1863"/><stop offset="0.528" stop-color="#2b307f"/><stop offset="0.639" stop-color="#4050a5"/><stop offset="0.687" stop-color="#4b61b8"/><stop offset="1" stop-color="#363885"/></linearGradient><linearGradient id="aa" x1="781.616" y1="0.5" x2="782.368" y2="0.5" xlink:href="#d"/><linearGradient id="ab" x1="1315.276" y1="0.014" x2="1315.859" y2="1.79" xlink:href="#y"/><linearGradient id="ac" x1="208.491" y1="0.5" x2="209.243" y2="0.5" xlink:href="#u"/><linearGradient id="ad" x1="221.594" y1="0.941" x2="220.932" y2="0.066" xlink:href="#w"/><linearGradient id="ae" x1="207.984" y1="0.5" x2="208.736" y2="0.5" xlink:href="#u"/><linearGradient id="af" x1="207.953" y1="0.5" x2="208.705" y2="0.5" xlink:href="#y"/><linearGradient id="ag" x1="917.003" y1="0.959" x2="916.284" y2="0.049" xlink:href="#z"/><linearGradient id="ah" x1="787.433" y1="0.5" x2="788.185" y2="0.5" xlink:href="#d"/><linearGradient id="ai" x1="996.573" y1="-0.247" x2="997.011" y2="2.481" xlink:href="#y"/><linearGradient id="aj" x1="1330.485" y1="0.958" x2="1329.766" y2="0.049" gradientUnits="objectBoundingBox"><stop offset="0.035" stop-color="#f7aa90"/><stop offset="0.232" stop-color="#f9b996"/><stop offset="0.61" stop-color="#fee1a6"/><stop offset="0.631" stop-color="#ffe4a7"/><stop offset="0.874" stop-color="#f7aa90"/></linearGradient><linearGradient id="ak" x1="1519.242" y1="0.5" x2="1520.242" y2="0.5" xlink:href="#aj"/><linearGradient id="al" x1="1446.284" y1="-0.247" x2="1446.722" y2="2.481" xlink:href="#d"/><linearGradient id="am" x1="0.847" y1="0.905" x2="0.163" y2="0.075" xlink:href="#aj"/><radialGradient id="an" cx="0.5" cy="0.5" r="0.406" gradientTransform="matrix(1.413, 0.601, -1.062, 0.799, 0.325, -0.2)" xlink:href="#f"/><linearGradient id="ao" x1="-0.495" y1="0.046" x2="1.736" y2="1.065" xlink:href="#g"/><linearGradient id="ap" x1="-506.243" y1="0.935" x2="-506.627" y2="0.18" xlink:href="#e"/><linearGradient id="aq" x1="0.76" y1="0.344" x2="-0.006" y2="0.783" xlink:href="#f"/><linearGradient id="ar" x1="1325.697" y1="0.958" x2="1324.978" y2="0.049" xlink:href="#aj"/><linearGradient id="as" x1="1513.769" y1="0.5" x2="1514.769" y2="0.5" xlink:href="#aj"/><linearGradient id="at" x1="1915.79" y1="0.014" x2="1916.372" y2="1.79" xlink:href="#d"/><linearGradient id="au" x1="2144.925" y1="0.958" x2="2144.206" y2="0.049" xlink:href="#aj"/><linearGradient id="av" x1="2449.314" y1="0.5" x2="2450.314" y2="0.5" xlink:href="#aj"/><linearGradient id="aw" x1="2332.504" y1="-0.247" x2="2332.942" y2="2.481" xlink:href="#d"/><linearGradient id="ax" x1="246.026" y1="0.815" x2="246.563" y2="-0.134" gradientUnits="objectBoundingBox"><stop offset="0.01" stop-color="#1d1760"/><stop offset="0.251" stop-color="#2d2d78"/><stop offset="0.354" stop-color="#363885"/><stop offset="0.675" stop-color="#1b145d"/><stop offset="0.697" stop-color="#1a125b"/><stop offset="1" stop-color="#363885"/></linearGradient><radialGradient id="ay" cx="0.255" cy="0.611" r="0.858" gradientTransform="translate(0.106) scale(0.788 1)" gradientUnits="objectBoundingBox"><stop offset="0" stop-color="#617ded"/><stop offset="0.037" stop-color="#5a74dd"/><stop offset="0.185" stop-color="#4256a3"/><stop offset="0.334" stop-color="#2e3b71"/><stop offset="0.479" stop-color="#1d2648"/><stop offset="0.621" stop-color="#101528"/><stop offset="0.757" stop-color="#070912"/><stop offset="0.886" stop-color="#010204"/><stop offset="1"/></radialGradient><linearGradient id="az" x1="344.81" y1="-0.19" x2="347.098" y2="0.783" xlink:href="#d"/><radialGradient id="ba" cx="0.701" cy="0.346" r="0.419" gradientTransform="translate(-0.288) scale(1.576 1)" xlink:href="#f"/><radialGradient id="bb" cx="0.939" cy="0.309" r="0.995" gradientTransform="matrix(-1.477, 0, 0, 1, 930.903, 0)" gradientUnits="objectBoundingBox"><stop offset="0" stop-color="#09032b"/><stop offset="0.01" stop-color="#09032b"/><stop offset="0.187" stop-color="#10054d"/><stop offset="0.33" stop-color="#695ed0"/><stop offset="0.581" stop-color="#363885"/><stop offset="0.735" stop-color="#1deeff"/><stop offset="1" stop-color="#486dff"/></radialGradient><radialGradient id="bc" cx="-0.015" cy="1.058" r="1.175" gradientTransform="translate(0.193) scale(0.613 1)" xlink:href="#ay"/><radialGradient id="bd" cx="0.5" cy="0.5" r="0.664" gradientTransform="translate(0.186) scale(0.629 1)" xlink:href="#ay"/><radialGradient id="be" cx="0.5" cy="0.5" r="0.386" gradientTransform="matrix(0.331, -0.883, 1.253, 0.95, 4786.86, 1935.919)" gradientUnits="objectBoundingBox"><stop offset="0" stop-color="#9f19ab"/><stop offset="0.097" stop-color="#80148a"/><stop offset="0.241" stop-color="#590e60"/><stop offset="0.388" stop-color="#39083d"/><stop offset="0.536" stop-color="#200522"/><stop offset="0.686" stop-color="#0e020f"/><stop offset="0.839" stop-color="#030003"/><stop offset="1"/></radialGradient><radialGradient id="bf" cx="0.5" cy="0.5" r="0.386" gradientTransform="matrix(0.331, -0.883, 1.253, 0.95, 4784.521, 1948.8)" xlink:href="#be"/><radialGradient id="bg" cx="0.5" cy="0.5" r="0.386" gradientTransform="matrix(0.331, -0.883, 1.253, 0.95, 4775.118, 1944.292)" xlink:href="#be"/><radialGradient id="bh" cx="0.5" cy="0.5" r="0.386" gradientTransform="matrix(0.331, -0.883, 1.253, 0.95, 4777.336, 1931.701)" xlink:href="#be"/><radialGradient id="bi" cx="0.5" cy="0.5" r="0.378" gradientTransform="matrix(-0.357, -0.87, 1.272, -0.995, 5274.443, 5019.047)" gradientUnits="objectBoundingBox"><stop offset="0" stop-color="#c211a1"/><stop offset="0.013" stop-color="#bc109c"/><stop offset="0.148" stop-color="#8b0c73"/><stop offset="0.285" stop-color="#60084f"/><stop offset="0.423" stop-color="#3d0533"/><stop offset="0.563" stop-color="#22031c"/><stop offset="0.704" stop-color="#0f010c"/><stop offset="0.849" stop-color="#030003"/><stop offset="1"/></radialGradient><radialGradient id="bj" cx="0.5" cy="0.5" r="0.378" gradientTransform="matrix(-0.357, -0.87, 1.272, -0.995, 5286.939, 4998.798)" xlink:href="#bi"/><linearGradient id="bk" x1="0.957" y1="0.5" x2="0.022" y2="0.5" gradientUnits="objectBoundingBox"><stop offset="0" stop-color="#1bd462"/><stop offset="0.035" stop-color="#1bb0d4"/><stop offset="0.203" stop-color="#1edd85"/><stop offset="0.527" stop-color="#50ff8d"/><stop offset="0.631" stop-color="#2af6ff"/><stop offset="0.874" stop-color="#77d41b"/><stop offset="1" stop-color="#1bb0d4"/></linearGradient><linearGradient id="bl" x1="1.602" y1="0.5" x2="-0.721" y2="0.5" gradientUnits="objectBoundingBox"><stop offset="0.035" stop-color="#9f19ab"/><stop offset="0.164" stop-color="#ae24b0"/><stop offset="0.412" stop-color="#d643bf"/><stop offset="0.631" stop-color="#ff63ce"/><stop offset="0.874" stop-color="#dc48c1"/></linearGradient><linearGradient id="bm" x1="0.005" y1="0.5" x2="0.989" y2="0.5" gradientUnits="objectBoundingBox"><stop offset="0.01" stop-color="#c1a1d5"/><stop offset="0.049" stop-color="#c7abd9"/><stop offset="0.115" stop-color="#d9c6e5"/><stop offset="0.2" stop-color="#f6f2f9"/><stop offset="0.222" stop-color="#fff"/><stop offset="0.251" stop-color="#f9f5fb"/><stop offset="0.3" stop-color="#e9dbf1"/><stop offset="0.359" stop-color="#d1b4e3"/><stop offset="0.426" stop-color="#b294d5"/><stop offset="0.495" stop-color="#9b7ccb"/><stop offset="0.558" stop-color="#8d6ec5"/><stop offset="0.611" stop-color="#8969c3"/><stop offset="0.755" stop-color="#9371c5"/><stop offset="1" stop-color="#b086cc"/></linearGradient><linearGradient id="bn" x1="0.569" y1="1.151" x2="0.401" y2="-1.42" xlink:href="#f"/><linearGradient id="bo" x1="1.424" y1="-1.097" x2="0.446" y2="0.594" gradientUnits="objectBoundingBox"><stop offset="0.035" stop-color="#1bb0d4"/><stop offset="0.203" stop-color="#1ebfdd"/><stop offset="0.527" stop-color="#26e7f6"/><stop offset="0.631" stop-color="#2af6ff"/><stop offset="0.874" stop-color="#1bb0d4"/></linearGradient><radialGradient id="bp" cx="0.791" cy="0.501" r="0.173" gradientTransform="matrix(3.696, -0.207, 1.847, 2.314, 748.296, -34.382)" xlink:href="#be"/><linearGradient id="bq" x1="0.005" y1="0.5" x2="0.989" y2="0.5" xlink:href="#bm"/><linearGradient id="br" x1="1.424" y1="-1.097" x2="0.446" y2="0.594" gradientUnits="objectBoundingBox"><stop offset="0" stop-color="#9f79c8"/><stop offset="0.137" stop-color="#a47fca"/><stop offset="0.329" stop-color="#b491d3"/><stop offset="0.553" stop-color="#cdafe1"/><stop offset="0.581" stop-color="#d1b4e3"/><stop offset="0.764" stop-color="#dac3e8"/><stop offset="1" stop-color="#ebdef3"/></linearGradient><linearGradient id="bu" x1="3985690.75" y1="316663.563" x2="3985691.75" y2="316663.563" xlink:href="#bm"/><linearGradient id="bv" x1="4009941.25" y1="316663.563" x2="4009942.25" y2="316663.563" xlink:href="#bm"/><linearGradient id="bw" x1="329.689" y1="1835.196" x2="330.673" y2="1835.196" xlink:href="#bm"/><radialGradient id="bx" cx="0.285" cy="0.703" r="2.086" gradientTransform="translate(0.349) scale(0.301 1)" xlink:href="#f"/><linearGradient id="by" x1="0.005" y1="0.5" x2="0.989" y2="0.5" xlink:href="#bm"/><radialGradient id="ca" cx="0.285" cy="0.703" r="2.086" gradientTransform="translate(0.349) scale(0.301 1)" xlink:href="#f"/><radialGradient id="cb" cx="0.5" cy="0.5" r="0.248" gradientTransform="matrix(2.019, 0, 0, 2.019, -5553.633, 1417.629)" xlink:href="#be"/><linearGradient id="cc" x1="0.702" y1="0.649" x2="0.06" y2="0.191" gradientUnits="objectBoundingBox"><stop offset="0.035" stop-color="#9f19ab"/><stop offset="0.244" stop-color="#ae24b0"/><stop offset="0.645" stop-color="#d643bf"/><stop offset="1" stop-color="#ff63ce"/></linearGradient><radialGradient id="cd" cx="-0.092" cy="0.22" r="0.968" gradientTransform="translate(-0.195) scale(1.39 1)" gradientUnits="objectBoundingBox"><stop offset="0" stop-color="#fff"/><stop offset="0.015" stop-color="#f6f6f6"/><stop offset="0.132" stop-color="#bdbdbd"/><stop offset="0.252" stop-color="#8b8b8b"/><stop offset="0.373" stop-color="#606060"/><stop offset="0.494" stop-color="#3d3d3d"/><stop offset="0.617" stop-color="#222"/><stop offset="0.741" stop-color="#0f0f0f"/><stop offset="0.867" stop-color="#030303"/><stop offset="1"/></radialGradient><linearGradient id="ce" x1="0.48" y1="0.407" x2="0.415" y2="-0.128" gradientUnits="objectBoundingBox"><stop offset="0" stop-color="#daceeb"/><stop offset="1" stop-color="#9f9fc4"/></linearGradient><linearGradient id="cf" x1="1.157" y1="-0.084" x2="0.022" y2="0.836" xlink:href="#ce"/><linearGradient id="cg" x1="0.887" y1="1.134" x2="-0.012" y2="0.106" gradientUnits="objectBoundingBox"><stop offset="0.035" stop-color="#138bbd"/><stop offset="0.226" stop-color="#169ac6"/><stop offset="0.595" stop-color="#1ec2df"/><stop offset="1" stop-color="#2af6ff"/></linearGradient><linearGradient id="ch" x1="0.85" y1="1.157" x2="-0.083" y2="-0.107" xlink:href="#cc"/><linearGradient id="ci" x1="0.57" y1="0.346" x2="0.816" y2="-0.127" xlink:href="#ce"/><linearGradient id="cj" x1="0.857" y1="0.424" x2="-0.337" y2="0.666" xlink:href="#ce"/><linearGradient id="ck" x1="0.494" y1="0.404" x2="0.478" y2="-0.053" xlink:href="#ce"/><linearGradient id="cl" x1="1.142" y1="-0.309" x2="0.011" y2="1.015" xlink:href="#ce"/><radialGradient id="cm" cx="0.5" cy="0.5" r="0.39" gradientTransform="matrix(1.28, 0, 0, 1.28, 18.392, 51.202)" gradientUnits="objectBoundingBox"><stop offset="0" stop-color="#4916a1"/><stop offset="0.07" stop-color="#3e128a"/><stop offset="0.218" stop-color="#2b0d60"/><stop offset="0.37" stop-color="#1b083d"/><stop offset="0.522" stop-color="#0f0422"/><stop offset="0.677" stop-color="#06020f"/><stop offset="0.834" stop-color="#010003"/><stop offset="1"/></radialGradient><radialGradient id="cn" cx="0.5" cy="0.5" r="0.39" gradientTransform="matrix(1.28, 0, 0, 1.28, 14.839, 41.269)" gradientUnits="objectBoundingBox"><stop offset="0" stop-color="#4b61b8"/><stop offset="0.128" stop-color="#38488a"/><stop offset="0.267" stop-color="#273260"/><stop offset="0.409" stop-color="#19203d"/><stop offset="0.552" stop-color="#0e1222"/><stop offset="0.697" stop-color="#06080f"/><stop offset="0.845" stop-color="#010103"/><stop offset="1"/></radialGradient><linearGradient id="co" x1="-0.201" y1="0.926" x2="0.92" y2="0.002" xlink:href="#cc"/><linearGradient id="cp" x1="0.013" y1="0.39" x2="3.262" y2="0.921" xlink:href="#cc"/><radialGradient id="cq" cx="0.31" cy="0.244" r="0.857" gradientTransform="translate(-0.036) scale(1.071 1)" gradientUnits="objectBoundingBox"><stop offset="0.152" stop-color="#fffae9"/><stop offset="0.388" stop-color="#ffeab9"/><stop offset="0.473" stop-color="#ffe4a7"/><stop offset="0.559" stop-color="#fbdfa2"/><stop offset="0.661" stop-color="#f2d393"/><stop offset="0.771" stop-color="#e3bf7b"/><stop offset="0.887" stop-color="#cea45a"/><stop offset="0.909" stop-color="#ca9e53"/></radialGradient><radialGradient id="cr" cx="0.247" cy="0.197" r="0.845" gradientTransform="translate(-0.007) scale(1.014 1)" gradientUnits="objectBoundingBox"><stop offset="0.232" stop-color="#fffae9"/><stop offset="0.384" stop-color="#ffeab9"/><stop offset="0.438" stop-color="#ffe4a7"/><stop offset="0.485" stop-color="#fbdfa2"/><stop offset="0.541" stop-color="#f2d393"/><stop offset="0.601" stop-color="#e3bf7b"/><stop offset="0.664" stop-color="#cea45a"/><stop offset="0.677" stop-color="#ca9e53"/><stop offset="0.955" stop-color="#785e32"/></radialGradient><radialGradient id="cs" cx="0.248" cy="0.197" r="0.845" gradientTransform="translate(-0.007) scale(1.014 1)" xlink:href="#cq"/><radialGradient id="ct" cx="0.31" cy="0.245" r="0.857" gradientTransform="translate(-0.036) scale(1.072 1)" xlink:href="#cq"/><radialGradient id="cu" cx="0.309" cy="0.245" r="0.857" gradientTransform="translate(-0.036) scale(1.072 1)" xlink:href="#cr"/><radialGradient id="cv" cx="0.248" cy="0.197" r="0.845" gradientTransform="translate(-0.007) scale(1.014 1)" xlink:href="#cq"/><radialGradient id="cw" cx="0.248" cy="0.197" r="0.845" xlink:href="#cr"/><radialGradient id="cx" cx="0.31" cy="0.244" r="0.857" gradientTransform="translate(-0.035) scale(1.071 1)" gradientUnits="objectBoundingBox"><stop offset="0.232" stop-color="#fffae9"/><stop offset="0.503" stop-color="#ffeab9"/><stop offset="0.599" stop-color="#ffe4a7"/><stop offset="0.678" stop-color="#fbdfa2"/><stop offset="0.772" stop-color="#f2d393"/><stop offset="0.873" stop-color="#e3bf7b"/><stop offset="0.979" stop-color="#cea45a"/><stop offset="1" stop-color="#ca9e53"/></radialGradient><radialGradient id="cy" cx="0.309" cy="0.244" r="0.857" gradientTransform="translate(-0.036) scale(1.072 1)" gradientUnits="objectBoundingBox"><stop offset="0" stop-color="#fffae9"/><stop offset="0.17" stop-color="#ffeab9"/><stop offset="0.231" stop-color="#ffe4a7"/><stop offset="0.277" stop-color="#fbdfa2"/><stop offset="0.331" stop-color="#f2d393"/><stop offset="0.391" stop-color="#e3bf7b"/><stop offset="0.453" stop-color="#cea45a"/><stop offset="0.465" stop-color="#ca9e53"/><stop offset="0.955" stop-color="#785e32"/></radialGradient><radialGradient id="cz" cx="0.31" cy="0.244" r="0.857" gradientTransform="translate(-0.035) scale(1.071 1)" xlink:href="#cq"/><radialGradient id="da" cx="0.248" cy="0.197" r="0.845" gradientTransform="translate(-0.007) scale(1.014 1)" xlink:href="#cq"/><radialGradient id="db" cx="0.248" cy="0.197" r="0.845" xlink:href="#cr"/><radialGradient id="dc" cx="0.31" cy="0.244" r="0.857" gradientTransform="translate(-0.036) scale(1.072 1)" xlink:href="#cq"/><radialGradient id="dd" cx="0.31" cy="0.244" r="0.857" gradientTransform="translate(-0.036) scale(1.072 1)" xlink:href="#cq"/><radialGradient id="df" cx="0.247" cy="0.197" r="0.845" gradientTransform="translate(-0.007) scale(1.014 1)" xlink:href="#cq"/><radialGradient id="dg" cx="0.309" cy="0.244" r="0.857" gradientTransform="translate(-0.036) scale(1.072 1)" xlink:href="#cr"/><radialGradient id="dh" cx="0.309" cy="0.245" r="0.857" gradientTransform="translate(-0.036) scale(1.072 1)" xlink:href="#cr"/><radialGradient id="di" cx="0.248" cy="0.197" r="0.845" gradientTransform="translate(-0.007) scale(1.014 1)" xlink:href="#cx"/><radialGradient id="dj" cx="0.248" cy="0.197" r="0.845" gradientTransform="translate(-0.007) scale(1.014 1)" xlink:href="#cq"/><radialGradient id="dk" cx="0.31" cy="0.244" r="0.857" xlink:href="#cq"/><radialGradient id="dl" cx="0.31" cy="0.244" r="0.857" xlink:href="#cq"/><radialGradient id="dm" cx="0.309" cy="0.244" r="0.857" xlink:href="#cq"/><radialGradient id="dn" cx="0.31" cy="0.244" r="0.857" gradientTransform="translate(-0.036) scale(1.071 1)" xlink:href="#cr"/><radialGradient id="do" cx="0.248" cy="0.197" r="0.845" gradientTransform="translate(-0.007) scale(1.014 1)" xlink:href="#cx"/><radialGradient id="dp" cx="0.248" cy="0.197" r="0.845" gradientTransform="translate(-0.007) scale(1.014 1)" xlink:href="#cx"/><radialGradient id="dq" cx="0.248" cy="0.197" r="0.845" gradientTransform="translate(-0.007) scale(1.014 1)" xlink:href="#cq"/><radialGradient id="dr" cx="0.248" cy="0.197" r="0.845" gradientTransform="translate(-0.007) scale(1.014 1)" xlink:href="#cq"/><radialGradient id="ds" cx="0.248" cy="0.197" r="0.845" gradientTransform="translate(-0.007) scale(1.015 1)" xlink:href="#cr"/><radialGradient id="dt" cx="0.248" cy="0.197" r="0.845" gradientTransform="translate(-0.007) scale(1.014 1)" xlink:href="#cq"/><radialGradient id="dv" cx="0.309" cy="0.244" r="0.857" xlink:href="#cq"/><radialGradient id="dw" cx="0.309" cy="0.245" r="0.857" gradientTransform="translate(-0.036) scale(1.072 1)" xlink:href="#cq"/><linearGradient id="dx" x1="4.346" y1="0.5" x2="0.226" y2="0.5" gradientUnits="objectBoundingBox"><stop offset="0" stop-color="#e6e7e8"/><stop offset="1" stop-color="#a7a9ac"/></linearGradient><linearGradient id="dy" x1="-1.354" y1="0.653" x2="3.682" y2="0.237" xlink:href="#cc"/><linearGradient id="dz" x1="-1.125" y1="0.619" x2="5.027" y2="0.169" xlink:href="#cc"/><linearGradient id="ea" x1="-0.881" y1="0.587" x2="6.645" y2="0.112" xlink:href="#cc"/><linearGradient id="eb" x1="-0.612" y1="0.559" x2="8.723" y2="0.066" xlink:href="#cc"/><linearGradient id="ec" x1="-0.297" y1="0.533" x2="11.665" y2="0.034" xlink:href="#cc"/><linearGradient id="ed" x1="0.123" y1="0.511" x2="16.559" y2="0.015" xlink:href="#cc"/><linearGradient id="ee" x1="0.874" y1="0.493" x2="27.603" y2="0.011" xlink:href="#cc"/><linearGradient id="ef" x1="0.859" x2="-2.573" xlink:href="#dx"/><linearGradient id="eg" x1="-1.038" y1="0.397" x2="2.803" y2="0.655" xlink:href="#cc"/><linearGradient id="eh" x1="-2.123" y1="0.345" x2="2.657" y2="0.627" xlink:href="#cc"/><linearGradient id="ei" x1="-3.41" y1="0.302" x2="2.52" y2="0.602" xlink:href="#cc"/><linearGradient id="ej" x1="-5.046" y1="0.269" x2="2.396" y2="0.579" xlink:href="#cc"/><linearGradient id="ek" x1="-7.357" y1="0.245" x2="2.298" y2="0.558" xlink:href="#cc"/><linearGradient id="el" x1="-11.274" y1="0.232" x2="2.264" y2="0.54" xlink:href="#cc"/><linearGradient id="em" x1="-20.861" y1="0.23" x2="2.452" y2="0.525" xlink:href="#cc"/><linearGradient id="en" x1="0.166" y1="1.143" x2="1.447" y2="-1.322" xlink:href="#cc"/><linearGradient id="eo" x1="1.165" y1="-0.178" x2="-0.915" y2="1.941" gradientUnits="objectBoundingBox"><stop offset="0.121" stop-color="#f1f2f2"/><stop offset="1" stop-color="#a7a9ac"/></linearGradient><linearGradient id="ep" x1="-566.8" y1="585.498" x2="-557.962" y2="580.433" gradientUnits="objectBoundingBox"><stop offset="0.035" stop-color="#271273"/><stop offset="0.421" stop-color="#321382"/><stop offset="1" stop-color="#4916a1"/></linearGradient><linearGradient id="eq" x1="-462.556" y1="595.235" x2="-455.348" y2="590.095" xlink:href="#ep"/><linearGradient id="er" x1="-567.884" y1="587.263" x2="-559.045" y2="582.201" xlink:href="#ep"/><linearGradient id="es" x1="-643.402" y1="757.985" x2="-633.367" y2="751.424" xlink:href="#ep"/><linearGradient id="et" x1="-586.306" y1="753.925" x2="-577.168" y2="747.408" xlink:href="#ep"/><linearGradient id="eu" x1="-503.655" y1="734.666" x2="-495.81" y2="728.324" xlink:href="#ep"/><linearGradient id="ev" x1="-469.516" y1="580.119" x2="-462.208" y2="575.12" xlink:href="#ep"/><radialGradient id="ew" cx="0.396" cy="0.254" r="0.506" gradientTransform="translate(-0.019) scale(1.039 1)" gradientUnits="objectBoundingBox"><stop offset="0" stop-color="#fff"/><stop offset="0.087" stop-color="#f3f3f3"/><stop offset="0.24" stop-color="#d5d5d5"/><stop offset="0.442" stop-color="#a4a4a4"/><stop offset="0.686" stop-color="#616161"/><stop offset="0.962" stop-color="#0c0c0c"/><stop offset="1"/></radialGradient><radialGradient id="ex" cx="0.396" cy="0.254" r="0.506" xlink:href="#ew"/><radialGradient id="ey" cx="0.396" cy="0.254" r="0.506" xlink:href="#ew"/><radialGradient id="ez" cx="0.501" cy="0.236" r="0.502" gradientTransform="matrix(0.976, 0.38, -0.401, 0.925, 0.112, -0.131)" xlink:href="#ew"/><radialGradient id="fa" cx="0.113" cy="0.163" r="1.059" gradientTransform="translate(-0.019) scale(1.039 1)" gradientUnits="objectBoundingBox"><stop offset="0.457" stop-color="#fff"/><stop offset="0.548" stop-color="#fcfbfa"/><stop offset="0.651" stop-color="#f5f2ec"/><stop offset="0.759" stop-color="#e9e3d6"/><stop offset="0.872" stop-color="#d8cdb6"/><stop offset="0.986" stop-color="#c2b18e"/><stop offset="1" stop-color="#c0ae89"/></radialGradient><radialGradient id="fb" cx="0.273" cy="0.05" r="1.052" gradientTransform="matrix(0.976, 0.38, -0.401, 0.925, 0.069, -0.029)" xlink:href="#fa"/><radialGradient id="fc" cx="0.113" cy="0.163" r="1.059" xlink:href="#fa"/><radialGradient id="fd" cx="0.113" cy="0.163" r="1.059" xlink:href="#fa"/><radialGradient id="fe" cx="0.113" cy="0.163" r="1.059" xlink:href="#fa"/><radialGradient id="ff" cx="0.113" cy="0.163" r="1.059" xlink:href="#fa"/><radialGradient id="fg" cx="0.113" cy="0.163" r="1.059" xlink:href="#fa"/><radialGradient id="fh" cx="0.113" cy="0.163" r="1.059" gradientTransform="translate(-0.02) scale(1.039 1)" xlink:href="#fa"/><radialGradient id="fi" cx="0.113" cy="0.163" r="1.059" gradientTransform="translate(-0.019) scale(1.038 1)" xlink:href="#fa"/><radialGradient id="fj" cx="0.113" cy="0.163" r="1.059" xlink:href="#fa"/><radialGradient id="fk" cx="0.113" cy="0.163" r="1.059" gradientTransform="translate(-0.02) scale(1.039 1)" xlink:href="#fa"/><radialGradient id="fl" cx="0.273" cy="0.05" r="1.052" gradientTransform="matrix(0.976, 0.38, -0.401, 0.925, 0.069, -0.029)" xlink:href="#fa"/><radialGradient id="fm" cx="0.113" cy="0.163" r="1.059" xlink:href="#fa"/><radialGradient id="fn" cx="0.113" cy="0.163" r="1.059" xlink:href="#fa"/><radialGradient id="fo" cx="0.113" cy="0.163" r="2.801" gradientTransform="translate(0.355) scale(0.291 1)" xlink:href="#fa"/><linearGradient id="fp" x1="0.946" y1="0.453" x2="-0.691" y2="0.625" gradientUnits="objectBoundingBox"><stop offset="0" stop-color="#fff"/><stop offset="1" stop-color="#a7a9ac"/></linearGradient><radialGradient id="fq" cx="0.248" cy="0.197" r="0.845" gradientTransform="translate(-0.007) scale(1.014 1)" xlink:href="#cx"/><radialGradient id="fr" cx="0.396" cy="0.254" r="0.506" xlink:href="#ew"/><radialGradient id="fs" cx="0.113" cy="0.163" r="1.059" xlink:href="#fa"/><linearGradient id="ft" x1="0.527" y1="0.414" x2="0.416" y2="0.967" xlink:href="#br"/><linearGradient id="fu" x1="0.663" y1="0.238" x2="0.189" y2="0.854" xlink:href="#cc"/><linearGradient id="fv" x1="0.332" y1="-0.195" x2="0.612" y2="0.938" xlink:href="#br"/><linearGradient id="fw" x1="0.988" y1="0.143" x2="0.073" y2="0.786" xlink:href="#cc"/></defs><ellipse class="a" cx="35.441" cy="60.16" rx="35.441" ry="60.16" transform="matrix(0.408, -0.913, 0.913, 0.408, 39.191, 197.34)"/><ellipse class="b" cx="58.792" cy="50.746" rx="58.792" ry="50.746" transform="translate(67.234 74.404)"/><g transform="translate(0 0)"><g transform="translate(1.709 94.531)"><path class="c" d="M686.025,165.719,710.14,179.41a11.34,11.34,0,0,0,14.087-2.343l12.133-13.691,12.374-6.353,11.09,5.832L837.53,121.4l-32.273-15.718-73.58,43.647Z" transform="translate(-686.025 -105.685)"/><path class="d" d="M836.352,120.995,760.12,161.539l-10.875-4.9-9.14,3.791c-.045-.022-1.214.541-1.262.541s-1.973.969-2.024,1L727.4,172.063c-.023.016-.544.6-.563.621l-2.475,2.794c-2.832,3.2-8.155,5.249-12.065,3.839a10.275,10.275,0,0,1-1.748-.615c-.116.08-3.778-1.876-3.923-1.876h0c-.125,0-3.344-1.789-3.453-1.851l-16.925-9.61L731.28,149.2c.019-.006.473-.274.489-.286l72.57-43.045,5.362,2.143Z" transform="translate(-685.526 -105.27)"/><path class="e" d="M835.168,120.59l-74.755,39.633-10.659-3.959-9.182,2.909c-.09-.045-1.194.447-1.291.447-.116,0-1.905.891-2,.956l-9.709,9.88c-.048.032-.541.576-.576.618l-2.491,2.81c-2.552,2.877-8.29,5.8-11.811,4.531a9.49,9.49,0,0,1-1.725-.418c-.238.158-3.688-1.558-3.978-1.558h0c-.251,0-3.279-1.645-3.5-1.77l-17.012-9.655,44.406-15.94c.035-.013.467-.264.5-.283l72.038-42.733,5.3,1.648Z" transform="translate(-685.025 -104.855)"/><path class="f" d="M833.987,120.181l-73.28,38.726-10.443-3.022-9.224,2.028a9.913,9.913,0,0,0-1.319.354,15.952,15.952,0,0,0-1.986.914l-10.006,9.671c-.071.045-.534.554-.589.615l-2.5,2.826c-2.269,2.559-8.425,6.347-11.554,5.22a8.7,8.7,0,0,1-1.709-.222c-.354.235-3.591-1.233-4.026-1.233h0a27.248,27.248,0,0,1-3.55-1.69l-17.1-9.706,43.782-15.715c.055-.023.457-.254.505-.283l71.51-42.417,5.239,1.152Z" transform="translate(-684.523 -104.441)"/><path class="g" d="M832.806,119.773,761,157.591l-10.231-2.085-9.262,1.146c-.177-.093-1.155.264-1.348.264a11.5,11.5,0,0,0-1.963.866l-10.3,9.465a7.673,7.673,0,0,0-.6.611l-2.523,2.845c-1.982,2.237-8.558,6.89-11.3,5.906a7.8,7.8,0,0,1-1.686-.026c-.473.315-3.5-.911-4.081-.911h0a20.309,20.309,0,0,1-3.6-1.609l-17.183-9.751,43.161-15.5c.071-.026.447-.238.515-.28l70.979-42.1,5.182.653Z" transform="translate(-684.024 -104.026)"/><path class="h" d="M831.626,119.367,761.3,156.281l-10.016-1.152-9.3.267c-.222-.119-1.136.167-1.381.167a9,9,0,0,0-1.941.821l-10.6,9.262a6.773,6.773,0,0,0-.612.605l-2.536,2.861c-1.7,1.918-8.7,7.441-11.042,6.6a7.715,7.715,0,0,1-1.667.171c-.592.393-3.4-.592-4.132-.592h0a16.589,16.589,0,0,1-3.646-1.525l-17.266-9.8,42.536-15.271c.09-.032.441-.228.524-.277l70.448-41.793,5.12.161Z" transform="translate(-683.523 -103.613)"/><path class="i" d="M830.448,119.191,761.592,155.2l-9.8-.216-9.346-.615c-.267-.142-1.117.077-1.41.077a7.221,7.221,0,0,0-1.921.772l-10.9,9.056a5.767,5.767,0,0,0-.621.6l-2.552,2.877c-1.416,1.6-8.831,7.988-10.784,7.286a7.2,7.2,0,0,1-1.648.367c-.711.473-3.315-.267-4.184-.267h0a13.8,13.8,0,0,1-3.7-1.448l-17.353-9.851,41.915-15.046a5.538,5.538,0,0,0,.531-.277l69.924-41.477,5.056-.338Z" transform="translate(-683.024 -103.431)"/><path class="j" d="M829.264,119.124l-67.375,35.1-9.587.721-9.388-1.5a4.226,4.226,0,0,0-1.439-.016,5.978,5.978,0,0,0-1.9.727l-11.19,8.85a4.833,4.833,0,0,0-.637.6l-2.565,2.9c-1.133,1.278-8.966,8.535-10.53,7.972a7.07,7.07,0,0,1-1.628.563c-.827.554-3.218.055-4.235.055h0a11.971,11.971,0,0,1-3.746-1.365l-17.437-9.9,41.291-14.824a4.473,4.473,0,0,0,.54-.277l69.393-41.162,4.995-.834Z" transform="translate(-682.522 -103.358)"/><path class="k" d="M828.086,119.058l-65.9,34.191-9.372,1.657-9.43-2.378a3.869,3.869,0,0,0-1.468-.106,5.069,5.069,0,0,0-1.883.679l-11.486,8.644a4.359,4.359,0,0,0-.647.6l-2.581,2.913c-.849.959-9.1,9.085-10.276,8.66a15.645,15.645,0,0,1-1.609.763c-1.023.5-3.125.377-4.283.377h0a10.512,10.512,0,0,1-3.794-1.287l-17.527-9.948,40.67-14.6a4.342,4.342,0,0,0,.547-.274l68.865-40.85,4.937-1.329Z" transform="translate(-682.023 -103.285)"/><path class="l" d="M826.9,118.993l-64.424,33.284-9.159,2.594-9.468-3.26a3.623,3.623,0,0,0-1.5-.2,4.376,4.376,0,0,0-1.863.634l-11.782,8.438a3.967,3.967,0,0,0-.66.592L725.455,164c-.57.641-9.236,9.632-10.019,9.352a11.006,11.006,0,0,1-1.59.956,10.236,10.236,0,0,1-4.338.7h0a9.513,9.513,0,0,1-3.843-1.2l-17.611-10L728.1,149.435a3.6,3.6,0,0,0,.56-.274l68.334-40.534,4.876-1.828Z" transform="translate(-681.522 -103.214)"/><path class="m" d="M825.724,118.926,762.774,151.3l-8.944,3.534-9.51-4.145a3.47,3.47,0,0,0-1.529-.29,3.773,3.773,0,0,0-1.841.586l-12.078,8.232a3.531,3.531,0,0,0-.669.589l-2.613,2.948c-.283.319-9.369,10.179-9.761,10.038a8.716,8.716,0,0,1-1.57,1.152,8.88,8.88,0,0,1-4.386,1.023h0a8.661,8.661,0,0,1-3.894-1.126L688.28,163.8,727.7,149.648a3.43,3.43,0,0,0,.57-.274l67.8-40.219,4.815-2.324Z" transform="translate(-681.023 -103.141)"/><path class="n" d="M710.23,174.926a8.005,8.005,0,0,1-3.942-1.043l-17.781-10.1,38.8-13.926a3.465,3.465,0,0,0,.576-.27l72.029-42.726,24.633,12L754.34,154.8l-9.552-5.024a3.331,3.331,0,0,0-3.376.154l-12.375,8.026a3.324,3.324,0,0,0-.685.586l-12.133,13.691a8,8,0,0,1-5.989,2.694Z" transform="translate(-680.522 -103.067)"/></g><path class="o" d="M731.214,102.458l11.766-12.41a3.358,3.358,0,0,1,2.185.267l9.468,5.645a2.74,2.74,0,0,1,1.336,2.353v10.35a5.489,5.489,0,0,1-1.361,2.961l-15.947,3.115Z" transform="translate(-584.073 -45.948)"/><path class="p" d="M739.682,98.774v6.43a1.61,1.61,0,0,1-2.417,1.394l-5.564-3.212a1.6,1.6,0,0,1-.8-1.394v-6.54a1.608,1.608,0,0,1,2.433-1.381l5.564,3.318A1.606,1.606,0,0,1,739.682,98.774Z" transform="translate(-584.779 -37.426)"/><g transform="translate(123.116 57.382)"><path class="q" d="M754.873,102.616a2.729,2.729,0,0,1-1.146,2.484c-.023.016-21.875,12.056-21.9,12.069-.895.5-1.426-.019-2.887-.866-2.7-1.558-4.892-5.014-4.892-7.714,0-1.329-.364-1.757.492-2.143.064-.029,22.065-12.146,22.135-12.168a4.135,4.135,0,0,1,3.305.621C752.685,96.459,754.873,99.916,754.873,102.616Z" transform="translate(-723.256 -94.142)"/><path class="r" d="M754.873,102.616a2.729,2.729,0,0,1-1.146,2.484c-.023.016-21.875,12.056-21.9,12.069-.895.5-1.426-.019-2.887-.866-2.7-1.558-4.892-5.014-4.892-7.714,0-1.329-.364-1.757.492-2.143.064-.029,22.065-12.146,22.135-12.168a4.135,4.135,0,0,1,3.305.621C752.685,96.459,754.873,99.916,754.873,102.616Z" transform="translate(-723.256 -94.142)"/><path d="M733.533,106.355c0,2.7-2.188,3.627-4.892,2.069s-4.892-5.014-4.892-7.717,2.192-3.627,4.892-2.066S733.533,103.655,733.533,106.355Z" transform="translate(-723.749 -85.845)"/></g><g transform="translate(52.103 53.942)"><path class="s" d="M725.152,118.5v45.29l-23.468-13.546v-45.74Z" transform="translate(-701.684 -67.708)"/><path class="t" d="M722.38,117.444l-20.187-12.039v41.9l20.187,11.652Z" transform="translate(-700.553 -65.716)"/><path class="u" d="M708.956,134.332v45.29l63.411-36.509V97.373Z" transform="translate(-685.552 -83.536)"/><path class="v" d="M769.6,140.2V98.26l-60.13,35.047v41.509Z" transform="translate(-684.421 -81.568)"/><path class="w" d="M788.5,106.91l-63.411,36.959-23.4-14,63.524-36.8Z" transform="translate(-701.684 -93.073)"/><path class="x" d="M783.034,105.585,762.967,93.664l-60.279,34.92,20.18,12.068Z" transform="translate(-699.454 -91.762)"/></g><g transform="translate(97.102 74.449)"><path class="y" d="M715.747,126.829l5.685,10.033L757.5,115.949l-1.338-12.559Z" transform="translate(-715.488 -90.693)"/><path class="z" d="M722.453,110.655v13.1l-6.787-3.917V106.607Z" transform="translate(-715.666 -83.557)"/><path class="aa" d="M717.769,123.785v13.1l39.764-22.966V100.688Z" transform="translate(-711.001 -96.687)"/><path class="ab" d="M762.2,103.447l-39.764,23.1-6.768-4.048,39.8-23.05Z" transform="translate(-715.666 -99.445)"/></g><g transform="translate(62.233 33.052)"><path class="ac" d="M765.373,103.241,726.08,126.2l-16.313-9.756L749.139,93.6Z" transform="translate(-693.881 -71.021)"/><path class="ad" d="M721.189,103.436V135l-16.358-9.442V93.68Z" transform="translate(-704.831 -70.837)"/><path class="ae" d="M709.9,112.533V144.1l39.293-22.64V89.579Z" transform="translate(-693.587 -79.934)"/><path class="af" d="M760.437,96.227l-39.293,22.954-16.313-9.756L744.2,86.582Z" transform="translate(-704.831 -86.582)"/></g><g transform="translate(76.698)"><ellipse class="ag" cx="29.004" cy="16.409" rx="29.004" ry="16.409" transform="translate(0 48.06) rotate(-53.051)"/><path class="ah" d="M710.331,121.127h-.669c0-14.508,11.126-32.3,25.328-40.5A28.96,28.96,0,0,1,749.4,76.312a18.942,18.942,0,0,1,6.121.978c.795.274.795.274,11.061,6.044l-.328.583c-10.211-5.741-10.211-5.741-10.949-5.992a18.255,18.255,0,0,0-5.906-.943,28.323,28.323,0,0,0-14.071,4.229C721.309,89.3,710.331,106.834,710.331,121.127Z" transform="translate(-708.58 -76.312)"/><path class="ai" d="M712.468,117.221c0,5.342,1.921,9.13,5.111,11.081.106.064,14.431,8.207,14.54,8.268,4,2.233,6.356-.087,12.883-3.856,12.046-6.955,21.813-22.361,21.813-34.41,0-5.915,1.625-7.837-2.2-9.558-.286-.129-15.28-8.606-15.583-8.712-3.885-1.323-9.063-.508-14.75,2.774C722.236,89.766,712.468,105.172,712.468,117.221Z" transform="translate(-702.356 -69.397)"/><ellipse class="aj" cx="29.004" cy="16.409" rx="29.004" ry="16.409" transform="translate(14.722 56.228) rotate(-53.051)"/><ellipse class="ak" cx="29.004" cy="16.409" rx="29.004" ry="16.409" transform="translate(15.619 56.677) rotate(-53.051)"/><path class="al" d="M27.461,0C42.627,0,54.922,6.956,54.922,15.536S42.627,31.072,27.461,31.072,0,24.116,0,15.536,12.295,0,27.461,0Z" transform="matrix(0.601, -0.799, 0.799, 0.601, 17.29, 56.065)"/><path class="am" d="M721.637,97.62a3.224,3.224,0,0,0,1.348,2.925L725.55,102c1.056.592,1.677-.023,3.4-1.017,3.18-1.834,5.758-5.9,5.758-9.079,0-1.561.428-2.069-.579-2.523-.077-.035-2.758-1.548-2.839-1.574a4.855,4.855,0,0,0-3.894.731C724.215,90.376,721.637,94.441,721.637,97.62Z" transform="translate(-682.016 -51.167)"/><ellipse class="an" cx="7.654" cy="4.33" rx="7.654" ry="4.33" transform="translate(39.802 48.064) rotate(-53.051)"/><path class="ao" d="M722.772,96.389c0,2.513,2.038,3.376,4.547,1.925s4.551-4.663,4.551-7.177-2.037-3.376-4.551-1.925S722.772,93.875,722.772,96.389Z" transform="translate(-679.498 -49.26)"/></g><g transform="translate(32.174 27.434)"><ellipse class="ap" cx="29.004" cy="16.409" rx="29.004" ry="16.409" transform="translate(0 46.359) rotate(-53.051)"/><path class="aq" d="M698.633,125.217c0,5.342,1.921,9.127,5.111,11.081.106.064,14.431,8.207,14.54,8.268,4,2.234,6.356-.087,12.883-3.855,12.049-6.955,21.817-22.361,21.817-34.41,0-5.915,1.622-7.837-2.2-9.558-.29-.129-15.281-8.609-15.586-8.712-3.884-1.323-9.062-.508-14.749,2.774C708.4,97.762,698.633,113.168,698.633,125.217Z" transform="translate(-688.522 -79.093)"/><ellipse class="ar" cx="29.004" cy="16.409" rx="29.004" ry="16.409" transform="translate(14.722 54.528) rotate(-53.051)"/><ellipse class="as" cx="29.004" cy="16.409" rx="29.004" ry="16.409" transform="translate(15.619 54.977) rotate(-53.051)"/><ellipse class="at" cx="27.461" cy="15.536" rx="27.461" ry="15.536" transform="matrix(0.601, -0.799, 0.799, 0.601, 17.29, 54.365)"/><g transform="translate(39.623 34.13)"><path class="au" d="M707.8,105.616a3.218,3.218,0,0,0,1.349,2.925c.026.016,2.533,1.439,2.562,1.455,1.056.589,1.68-.023,3.4-1.017,3.179-1.834,5.757-5.9,5.757-9.082,0-1.561.428-2.066-.583-2.52-.074-.035-2.758-1.548-2.838-1.574a4.858,4.858,0,0,0-3.895.731C710.378,98.372,707.8,102.437,707.8,105.616Z" transform="translate(-707.803 -94.993)"/><ellipse class="av" cx="7.654" cy="4.33" rx="7.654" ry="4.33" transform="translate(0.179 12.234) rotate(-53.051)"/><ellipse class="aw" cx="6.049" cy="3.422" rx="6.049" ry="3.422" transform="matrix(0.601, -0.799, 0.799, 0.601, 1.828, 11.45)"/></g></g><g transform="translate(108.759 97.811)"><path class="ax" d="M719.288,113.536a2.21,2.21,0,0,0,.924,2c.019.01,1.738.985,1.757,1,.721.4,1.149-.016,2.327-.7a8.181,8.181,0,0,0,3.946-6.221c0-1.068.293-1.416-.4-1.728-.051-.023-1.889-1.059-1.944-1.078a3.343,3.343,0,0,0-2.668.5A8.185,8.185,0,0,0,719.288,113.536Z" transform="translate(-719.288 -106.704)"/><path class="ay" d="M719.817,113.837c0,2.179,1.767,2.925,3.942,1.667a8.176,8.176,0,0,0,3.946-6.221c0-2.176-1.767-2.922-3.946-1.667A8.19,8.19,0,0,0,719.817,113.837Z" transform="translate(-718.115 -106.033)"/><ellipse class="az" cx="4.144" cy="2.344" rx="4.144" ry="2.344" transform="translate(1.253 7.398) rotate(-53.05)"/></g><g transform="translate(47.23 107.417)"><path class="ba" d="M720.478,124.412a4.627,4.627,0,0,1-1.938,4.2c-.042.023-3.643,2.069-3.685,2.092-1.516.846-2.411-.032-4.882-1.461-4.57-2.639-8.271-8.477-8.271-13.047,0-2.24-.615-2.97.834-3.621.109-.051,3.965-2.221,4.077-2.262,1.474-.5,3.437-.193,5.594,1.052C716.774,114,720.478,119.842,720.478,124.412Z" transform="translate(-697.057 -108.815)"/><ellipse class="bb" cx="6.221" cy="10.995" rx="6.221" ry="10.995" transform="matrix(0.799, -0.601, 0.601, 0.799, 0.446, 7.478)"/><ellipse class="bc" cx="6.221" cy="10.995" rx="6.221" ry="10.995" transform="matrix(0.799, -0.601, 0.601, 0.799, 0, 7.813)"/></g><g transform="translate(35.511 112.866)"><path class="bd" d="M724.694,123.431a3.893,3.893,0,0,1-1.632,3.534c-.032.019-15.013,8.429-15.045,8.448-1.275.715-2.028-.026-4.11-1.229-3.839-2.217-6.955-7.129-6.955-10.971,0-1.886-.518-2.5.7-3.045.094-.042,15.284-8.561,15.381-8.593a5.872,5.872,0,0,1,4.7.885C721.579,114.677,724.694,119.588,724.694,123.431Z" transform="translate(-695.829 -111.382)"/><path class="be" d="M724.694,123.431a3.893,3.893,0,0,1-1.632,3.534c-.032.019-15.013,8.429-15.045,8.448-1.275.715-2.028-.026-4.11-1.229-3.839-2.217-6.955-7.129-6.955-10.971,0-1.886-.518-2.5.7-3.045.094-.042,15.284-8.561,15.381-8.593a5.872,5.872,0,0,1,4.7.885C721.579,114.677,724.694,119.588,724.694,123.431Z" transform="translate(-695.829 -111.382)"/><path d="M710.441,126.043c0,3.843-3.116,5.159-6.958,2.942s-6.955-7.132-6.955-10.971,3.115-5.159,6.955-2.942S710.441,122.2,710.441,126.043Z" transform="translate(-696.528 -105.588)"/></g><g transform="translate(130.344 85.25)"><path class="bf" d="M726,109.633a2.211,2.211,0,0,0,.923,2c.019.01,1.735.985,1.758,1,.721.4,1.149-.016,2.327-.7a8.18,8.18,0,0,0,3.945-6.221c0-1.068.293-1.416-.4-1.728-.052-.023-1.889-1.059-1.944-1.078a3.343,3.343,0,0,0-2.668.5A8.177,8.177,0,0,0,726,109.633Z" transform="translate(-725.995 -102.801)"/><path class="bg" d="M726.524,109.934c0,2.179,1.764,2.925,3.943,1.667a8.175,8.175,0,0,0,3.945-6.221c0-2.176-1.767-2.922-3.945-1.667A8.182,8.182,0,0,0,726.524,109.934Z" transform="translate(-724.822 -102.13)"/><path class="bh" d="M726.772,108.79c0,1.722,1.394,2.311,3.115,1.316a6.456,6.456,0,0,0,3.118-4.914c0-1.722-1.4-2.314-3.118-1.319A6.464,6.464,0,0,0,726.772,108.79Z" transform="translate(-724.271 -101.495)"/></g><g transform="translate(123.969 94.428)"><path class="bi" d="M724.014,109.879a1.363,1.363,0,0,0,.573,1.239l1.085.618c.447.251.711-.01,1.442-.431a5.058,5.058,0,0,0,2.439-3.849c0-.66.183-.875-.245-1.068-.032-.016-1.171-.657-1.2-.666a2.062,2.062,0,0,0-1.651.309A5.058,5.058,0,0,0,724.014,109.879Z" transform="translate(-724.014 -105.653)"/><path class="bj" d="M724.341,110.066c0,1.348,1.094,1.809,2.439,1.033a5.067,5.067,0,0,0,2.443-3.849c0-1.348-1.094-1.809-2.443-1.033A5.067,5.067,0,0,0,724.341,110.066Z" transform="translate(-723.289 -105.238)"/><ellipse class="bk" cx="2.564" cy="1.45" rx="2.564" ry="1.45" transform="translate(0.776 4.576) rotate(-53.051)"/></g><g transform="translate(0 117.139)"><path class="bl" d="M686.77,112.99l39.427-.2a2.562,2.562,0,0,1,1.68.206l7.286,4.345a2.1,2.1,0,0,1,1.026,1.809v7.962a4.249,4.249,0,0,1-1.046,2.279L716.61,162.208Z" transform="translate(-682.664 -112.613)"/><path class="bm" d="M701.394,130.174a6.458,6.458,0,0,0-3.147-5.542l-4.052-2.417,22.158-8.471,2.34,1.4a2.1,2.1,0,0,1,1.027,1.809v2.163l-18.325,14.749Z" transform="translate(-666.193 -110.413)"/><path class="bn" d="M720.7,132.471v25.772a6.452,6.452,0,0,1-9.677,5.587l-22.3-12.873a6.452,6.452,0,0,1-3.225-5.587v-26.2a6.449,6.449,0,0,1,9.755-5.539l22.3,13.3A6.458,6.458,0,0,1,720.7,132.471Z" transform="translate(-685.494 -112.71)"/><path class="bo" d="M715.681,126.928l-22.3-13.3a6.4,6.4,0,0,0-7.045.29,6.39,6.39,0,0,1,6.376.126l22.3,13.3a6.441,6.441,0,0,1,3.148,5.539v25.772a6.368,6.368,0,0,1-2.71,5.246,6.384,6.384,0,0,0,3.379-5.661V132.47A6.458,6.458,0,0,0,715.681,126.928Z" transform="translate(-683.626 -112.709)"/><path class="bp" d="M718.218,131.717v23.725a5.94,5.94,0,0,1-8.908,5.143l-20.53-11.85a5.938,5.938,0,0,1-2.97-5.143V119.471a5.939,5.939,0,0,1,8.982-5.1l20.526,12.242A5.936,5.936,0,0,1,718.218,131.717Z" transform="translate(-684.793 -110.901)"/><path class="bq" d="M718.218,120.245a6.047,6.047,0,0,0-.206-1.548l-32.2,7.663v5.761a6.129,6.129,0,0,0,.106,1.062,8.357,8.357,0,0,0,1.126,2.559,5.915,5.915,0,0,0,1.738,1.522l2.208,1.274.1.032,27.127-17.141Z" transform="translate(-684.793 -99.428)"/></g><path class="br" d="M733.607,102.2l13.681-10.72,2.037,1.213a2.739,2.739,0,0,1,1.336,2.353v4.876Z" transform="translate(-578.765 -42.676)"/><path class="bs" d="M712.576,90.19c4.763,2.536,7.605,6.5,6.35,8.863s-6.137,2.214-10.9-.325-7.605-6.5-6.35-8.863S707.816,87.651,712.576,90.19Z" transform="translate(-650.25 -49.971)"/><path class="bt" d="M726.767,82.115c4.763,2.536,7.6,6.5,6.349,8.863s-6.137,2.214-10.9-.325-7.6-6.5-6.35-8.863S722,79.576,726.767,82.115Z" transform="translate(-618.77 -67.884)"/><path class="bu" d="M731.755,88.971c4.763,2.539,7.6,6.507,6.35,8.863s-6.138,2.214-10.9-.322-7.6-6.5-6.35-8.863S727,86.435,731.755,88.971Z" transform="translate(-607.706 -52.669)"/><path class="bv" d="M718.143,97.077c4.76,2.536,7.6,6.507,6.347,8.863s-6.134,2.214-10.9-.322-7.605-6.5-6.347-8.863S713.38,94.541,718.143,97.077Z" transform="translate(-637.904 -34.687)"/><path class="bw" d="M708.551,112.122c4.692-2.658,9.568-2.929,10.884-.605s-1.422,6.366-6.118,9.024-9.568,2.932-10.884.605S703.855,114.78,708.551,112.122Z" transform="translate(-648.652 -1.722)"/><path class="bx" d="M699.665,117.89c4.7-2.658,9.571-2.929,10.888-.605s-1.422,6.366-6.118,9.024-9.568,2.929-10.888.605S694.969,120.548,699.665,117.89Z" transform="translate(-668.364 11.073)"/></g><g transform="translate(134.517 44.576)"><g transform="translate(5.99 89.866)"><ellipse class="by" cx="23.632" cy="11.587" rx="23.632" ry="11.587"/><ellipse class="bz" cx="22.907" cy="11.232" rx="22.907" ry="11.232" transform="translate(0.627 0.344)"/><ellipse class="ca" cx="22.181" cy="10.876" rx="22.181" ry="10.876" transform="translate(1.255 0.688)"/><ellipse class="cb" cx="21.455" cy="10.52" rx="21.455" ry="10.52" transform="translate(1.882 1.032)"/><ellipse class="cc" cx="20.73" cy="10.164" rx="20.73" ry="10.164" transform="translate(2.509 1.376)"/><ellipse class="cd" cx="20.004" cy="9.809" rx="20.004" ry="9.809" transform="translate(3.136 1.72)"/><ellipse class="ce" cx="19.279" cy="9.453" rx="19.279" ry="9.453" transform="translate(3.764 2.064)"/><ellipse class="cf" cx="18.553" cy="9.097" rx="18.553" ry="9.097" transform="translate(4.391 2.408)"/><ellipse class="cg" cx="17.828" cy="8.741" rx="17.828" ry="8.741" transform="translate(5.018 2.752)"/><ellipse class="ch" cx="17.102" cy="8.386" rx="17.102" ry="8.386" transform="translate(5.645 3.096)"/><ellipse class="ci" cx="16.377" cy="8.03" rx="16.377" ry="8.03" transform="translate(6.273 3.44)"/><ellipse class="cj" cx="15.651" cy="7.674" rx="15.651" ry="7.674" transform="translate(6.9 3.784)"/><ellipse class="ck" cx="14.926" cy="7.318" rx="14.926" ry="7.318" transform="translate(7.527 4.129)"/><ellipse class="cl" cx="14.2" cy="6.963" rx="14.2" ry="6.963" transform="translate(8.154 4.473)"/><ellipse class="cm" cx="13.474" cy="6.607" rx="13.474" ry="6.607" transform="translate(8.782 4.817)"/><ellipse class="cn" cx="12.749" cy="6.251" rx="12.749" ry="6.251" transform="translate(9.409 5.161)"/><ellipse class="co" cx="12.023" cy="5.895" rx="12.023" ry="5.895" transform="translate(10.036 5.505)"/><ellipse class="cp" cx="11.298" cy="5.54" rx="11.298" ry="5.54" transform="translate(10.664 5.849)"/><ellipse class="cq" cx="10.572" cy="5.184" rx="10.572" ry="5.184" transform="translate(11.291 6.193)"/><path class="cr" d="M752.549,124.948c0,2.665-4.409,4.827-9.845,4.827s-9.848-2.163-9.848-4.827,4.409-4.831,9.848-4.831S752.549,122.28,752.549,124.948Z" transform="translate(-720.938 -113.582)"/><path class="cs" d="M751.292,124.7c0,2.472-4.084,4.473-9.121,4.473s-9.121-2-9.121-4.473,4.084-4.473,9.121-4.473S751.292,122.229,751.292,124.7Z" transform="translate(-720.506 -113.344)"/><path class="n" d="M750.036,124.447c0,2.275-3.759,4.119-8.393,4.119s-8.4-1.844-8.4-4.119,3.759-4.116,8.4-4.116S750.036,122.175,750.036,124.447Z" transform="translate(-720.073 -113.107)"/></g><path class="ct" d="M728.061,102.152l6.173,63.05c0,5.178,7.206,9.375,16.095,9.375s16.095-4.2,16.095-9.375l5.954-63.05Z" transform="translate(-725.585 -63.568)"/><path class="cu" d="M751.372,102.152H732.651c.441,5.8-.112,10.981,9.307,25.418,12.262,18.788,5.3,27.423-6.25,46.643a27.023,27.023,0,0,0,4.438.364,26.553,26.553,0,0,0,5.214-.508c12.32-31.951-1.451-48.059,1.783-59.989C749.477,105.467,750.175,104.846,751.372,102.152Z" transform="translate(-715.403 -63.568)"/><path class="cv" d="M762.168,121.293c0,5.175-7.205,9.372-16.095,9.372s-16.095-4.2-16.095-9.372v1.783c0,5.178,7.206,9.372,16.095,9.372s16.095-4.193,16.095-9.372Z" transform="translate(-721.33 -21.107)"/><path class="cw" d="M750.171,110.305c-9.317,0-17.427-3-21.649-7.431h-.389l.8,8.187c3.573,5.3,12.433,9.053,22.8,9.053,7.75,0,14.653-2.1,19.143-5.368L772,102.874h-.18C767.6,107.306,759.488,110.305,750.171,110.305Z" transform="translate(-725.428 -61.966)"/><ellipse class="cx" cx="22.61" cy="13.167" rx="22.61" ry="13.167" transform="translate(2.132 23.645)"/><path class="cy" d="M728.13,105.1s.431,2.057.451,2.137c6.832,25.048,10.308,66.4,13.43,65.74s7.238-46.16,3.656-69.351c-.013-.08-.45-2.137-.45-2.137Z" transform="translate(-725.432 -65.047)"/><g class="cz" transform="translate(0 20.189)"><path class="da" d="M776.777,101.434H727.292v2.81h.006c0,.064-.006.132-.006.2,0,7.956,11.077,14.408,24.742,14.408s24.742-6.453,24.742-14.408c0-.068-.006-.135-.01-.2h.01Z" transform="translate(-727.291 -85.349)"/><ellipse class="db" cx="24.742" cy="14.408" rx="24.742" ry="14.408" transform="translate(0 1.777)"/><path class="da" d="M774.151,100.6H727.775v2.629h.006c0,.064-.006.126-.006.187,0,7.46,10.379,13.5,23.188,13.5s23.188-6.044,23.188-13.5c0-.061-.006-.122-.009-.187h.009Z" transform="translate(-726.22 -87.193)"/><ellipse class="db" cx="23.188" cy="13.503" rx="23.188" ry="13.503" transform="translate(1.554)"/><g transform="translate(5.688 3.231)"><path class="dc" d="M740.9,101.987v-.077l0,.077Z" transform="translate(-702.792 -87.524)"/><path class="dd" d="M729.062,101.987l0-.077v.077Z" transform="translate(-729.059 -87.524)"/><path class="de" d="M748.115,99.68c10.524,0,19.056,4.966,19.056,11.1v-2.085h-.006c0-.052.006-.1.006-.155,0-6.128-8.532-11.1-19.056-11.1s-19.056,4.969-19.056,11.1c0,.051,0,.1.007.155h-.007v2.085C729.059,104.646,737.591,99.68,748.115,99.68Z" transform="translate(-729.059 -97.44)"/></g><path class="df" d="M750.963,113.7c-12.535,0-22.721-5.793-23.149-13.034-.01.158-.039.312-.039.47,0,7.46,10.379,13.5,23.188,13.5s23.188-6.044,23.188-13.5c0-.158-.032-.312-.042-.47C773.681,107.906,763.495,113.7,750.963,113.7Z" transform="translate(-726.22 -87.055)"/><path class="dg" d="M755.677,100.119h-24.5v2.243h0l0,.1c0,3.939,5.484,7.132,12.252,7.132s12.252-3.193,12.252-7.132l-.006-.1h.006Z" transform="translate(-718.682 -88.266)"/><ellipse class="db" cx="12.251" cy="7.134" rx="12.251" ry="7.134" transform="translate(12.491 4.767)"/><path class="dh" d="M743.425,107.039c-6.623,0-12-3.064-12.229-6.887-.007.084-.023.164-.023.248,0,3.939,5.484,7.135,12.252,7.135s12.252-3.2,12.252-7.135c0-.084-.019-.164-.022-.248C755.426,103.975,750.045,107.039,743.425,107.039Z" transform="translate(-718.682 -88.193)"/><path class="n" d="M740.666,102.308l4.16,3.342-5.788-2.4-5.762,2.381L737.4,102.3l-4.159-3.342,5.787,2.4,5.762-2.381Z" transform="translate(-714.097 -90.836)"/></g><ellipse class="di" cx="4.838" cy="9.77" rx="4.838" ry="9.77" transform="translate(24.314 27.152) rotate(-71.201)"/><path class="dj" d="M758.5,91.438c-.5-1-1.484-1.519-2.2-1.162l-.048.032-14.5,6.1a9.838,9.838,0,0,0-6.009,8.339l-1.255,16.41a1.036,1.036,0,0,0-.045.3c0,.032.01.064.013.1v.016h0a1.879,1.879,0,0,0,2.024,1.352,2.061,2.061,0,0,0,1.947-1.046h.026l.006-.074a1.05,1.05,0,0,0,.061-.344.965.965,0,0,0-.023-.164l1.246-16.236a5.826,5.826,0,0,1,3.563-4.947l14.646-6.166,0,0a1.19,1.19,0,0,0,.151-.048A1.81,1.81,0,0,0,758.5,91.438Z" transform="translate(-711.412 -90.163)"/><path class="dk" d="M735.374,120.574a1.13,1.13,0,0,1-.682-.193.919.919,0,0,0,.016-.129l1.258-16.41a8.495,8.495,0,0,1,5.195-7.206l14.5-6.105.058-.026a1.112,1.112,0,0,1,.47.518,1.134,1.134,0,0,1,.132.676l-14.64,6.166a7.172,7.172,0,0,0-4.38,6.079l-1.242,16.236a1.009,1.009,0,0,0,0,.2A1.138,1.138,0,0,1,735.374,120.574Z" transform="translate(-710.878 -89.404)"/></g><g transform="translate(63.476 140.769)"><path class="n" d="M710.294,136.642l42.366,24.111a7.274,7.274,0,0,0,7.637-.274l37-24.716a1.859,1.859,0,0,0,.418-2.71h0L756.4,156.325l-42.9-25.17-3.267,2.011A2.02,2.02,0,0,0,710.294,136.642Z" transform="translate(-696.219 -95.423)"/><path class="dl" d="M747.735,129.075h0c-.682.393-1.3.3-1.6-.232l-.689-1.252c-.637-1.159-1.982-1.352-3.457-.5l-11.512,6.646a14.266,14.266,0,0,0-4.96,5.259h0a17.374,17.374,0,0,1-6.031,6.388L708.5,151.726V140.571l33.834-19.535c3.959-2.285,7.17-.454,7.17,4.09v.895A3.9,3.9,0,0,1,747.735,129.075Z" transform="translate(-697.933 -120.052)"/><path class="dm" d="M747.84,129.216h0c-.682.393-1.3.3-1.6-.232l-.689-1.255c-.637-1.155-1.983-1.352-3.456-.5l-11.512,6.646a14.313,14.313,0,0,0-4.962,5.255h0a17.354,17.354,0,0,1-6.028,6.391l-10.987,6.343V140.708l33.834-19.532c3.959-2.288,7.17-.457,7.17,4.087v.895A3.907,3.907,0,0,1,747.84,129.216Z" transform="translate(-697.703 -119.745)"/><path class="dn" d="M709.374,134v-3.125c0-2.124,1.294-3.1,2.89-2.182l12.993,7.5a6.913,6.913,0,0,1,2.887,5.519v3.122c0,2.127-1.291,3.106-2.887,2.185l-12.993-7.505A6.91,6.91,0,0,1,709.374,134Z" transform="translate(-695.997 -101.649)"/><path class="do" d="M725.733,146.383l-13-7.5a6.921,6.921,0,0,1-2.887-5.516V130.24a3.267,3.267,0,0,1,.46-1.818,2.62,2.62,0,0,0-.937,2.291v3.125a6.921,6.921,0,0,0,2.89,5.519l12.993,7.5a1.678,1.678,0,0,0,2.426-.367A1.817,1.817,0,0,1,725.733,146.383Z" transform="translate(-695.997 -101.486)"/><path class="dp" d="M717.943,138.949v-3.122c0-2.127,1.294-3.106,2.887-2.185l13,7.5a6.927,6.927,0,0,1,2.887,5.519v3.122c0,2.127-1.294,3.106-2.887,2.185l-13-7.5A6.921,6.921,0,0,1,717.943,138.949Z" transform="translate(-676.988 -90.675)"/><path class="dq" d="M734.3,151.328l-12.992-7.5a6.912,6.912,0,0,1-2.887-5.516v-3.125a3.246,3.246,0,0,1,.46-1.815,2.612,2.612,0,0,0-.937,2.291v3.122a6.921,6.921,0,0,0,2.887,5.519l13,7.5a1.676,1.676,0,0,0,2.427-.367A1.816,1.816,0,0,1,734.3,151.328Z" transform="translate(-676.988 -90.51)"/><path class="dr" d="M708.581,126.356v12.757a9.012,9.012,0,0,0,4.091,7.054l15.432,8.911c2.127,1.226,4,.718,4.625-1.258.238-.747.946-.94,1.751-.473l.325.187a4.089,4.089,0,0,1,1.751,2.5,10.819,10.819,0,0,0,4.625,6.594l15.432,8.912c2.259,1.3,4.09.261,4.09-2.333V156.447Zm21.656,22.792c0,2.124-1.29,3.1-2.886,2.182l-13-7.5a6.921,6.921,0,0,1-2.887-5.519v-3.122c0-2.127,1.293-3.106,2.887-2.182l13,7.5a6.907,6.907,0,0,1,2.886,5.516Zm27.578,15.921c0,2.127-1.294,3.1-2.887,2.182l-13-7.5a6.921,6.921,0,0,1-2.887-5.516v-3.125c0-2.127,1.294-3.1,2.887-2.182l13,7.5a6.915,6.915,0,0,1,2.887,5.516Z" transform="translate(-697.756 -106.069)"/><path class="ds" d="M708.477,126.391v12.754a9.013,9.013,0,0,0,4.091,7.058L728,155.111c2.127,1.229,4,.718,4.628-1.255.235-.747.943-.94,1.748-.476l.325.19a4.09,4.09,0,0,1,1.751,2.494,10.817,10.817,0,0,0,4.625,6.6l15.432,8.911c2.259,1.3,4.09.257,4.09-2.333V156.482Zm21.656,22.789c0,2.127-1.29,3.106-2.887,2.185l-12.992-7.5a6.92,6.92,0,0,1-2.89-5.519v-3.125c0-2.124,1.294-3.1,2.89-2.182l12.992,7.5a6.912,6.912,0,0,1,2.887,5.519ZM757.711,165.1c0,2.127-1.294,3.106-2.887,2.185l-13-7.5a6.921,6.921,0,0,1-2.887-5.519v-3.122c0-2.127,1.294-3.106,2.887-2.185l13,7.5a6.927,6.927,0,0,1,2.887,5.519Z" transform="translate(-697.987 -105.991)"/><path class="dt" d="M763.756,138.33h0c-.679.393-1.3.3-1.6-.232l-.689-1.252c-.637-1.159-1.983-1.352-3.456-.5L746.5,142.993a14.262,14.262,0,0,0-4.963,5.255h0a17.348,17.348,0,0,1-6.028,6.388l-10.987,6.343V149.825l33.834-19.532c3.958-2.288,7.17-.457,7.17,4.087v.895A3.9,3.9,0,0,1,763.756,138.33Z" transform="translate(-662.387 -99.521)"/><path class="du" d="M763.9,138.4h0c-.682.4-1.3.306-1.6-.229l-.692-1.255c-.637-1.155-1.983-1.352-3.456-.5l-11.512,6.646a14.283,14.283,0,0,0-4.959,5.255h0a17.361,17.361,0,0,1-6.031,6.392l-10.984,6.343V149.894l33.831-19.532c3.961-2.288,7.17-.457,7.17,4.087v.895A3.9,3.9,0,0,1,763.9,138.4Z" transform="translate(-662.079 -99.368)"/><ellipse class="dv" cx="10.368" cy="13.275" rx="10.368" ry="13.275" transform="matrix(0.925, -0.38, 0.38, 0.925, 30.557, 39.195)"/><ellipse class="dw" cx="12.912" cy="16.533" rx="12.912" ry="16.533" transform="matrix(0.925, -0.38, 0.38, 0.925, 0, 21.055)"/></g><g transform="translate(86.753 94.197)"><g transform="translate(8.668 21.101)"><path class="c" d="M741.059,174.049l18.413-10.766,18.413-10.766-6.376-2.338,2.232-19.021,2.231-19.021-21.747,23.478-19.541,11.793L715.144,159.2Z" transform="translate(-715.144 -112.138)"/><path class="dx" d="M739.516,170.325l17.81-10.407,17.811-10.407-5.881-2.271.253-16.764.253-16.764-17.945,18.248-2.984,3.034-18.288,11.054-14.693,10.731Z" transform="translate(-713.573 -108.646)"/><path class="dy" d="M737.973,166.6l17.208-10.049L772.388,146.5,767,144.3l-1.726-14.507-1.726-14.507-17.241,16.363-2.868,2.721-17.035,10.314-9.846,9.669Z" transform="translate(-712.001 -105.155)"/><path class="dz" d="M736.429,162.875l16.6-9.69,16.6-9.69-4.891-2.136-3.7-12.249-3.7-12.249L740.8,131.339l-2.752,2.409-15.782,9.575-5,8.607Z" transform="translate(-710.43 -101.664)"/><path class="ea" d="M734.886,159.151l16-9.332,16-9.332-4.4-2.069-5.683-9.992-5.683-9.992-15.835,12.6-2.636,2.1-14.529,8.835-.15,7.545Z" transform="translate(-708.859 -98.172)"/><path class="eb" d="M736.58,155.426l15.4-8.974,15.4-8.974-3.9-2-7.662-7.735-7.662-7.735-15.132,10.711L730.5,132.5l-13.276,8.1,4.7,6.483Z" transform="translate(-710.526 -94.681)"/><path class="n" d="M738.379,151.7l14.8-8.615,14.8-8.615-22.687-12.89-14.428,8.827-14.428,8.827Z" transform="translate(-712.296 -91.189)"/></g><g transform="translate(34.632)"><path class="ec" d="M758.078,125.818,745.1,174.808l-21.884-12.914.13-56.313Z" transform="translate(-723.211 -105.581)"/></g><path class="ed" d="M712.45,125.818l12.982,48.391,21.884-12.914-.13-55.713Z" transform="translate(-712.45 -105.581)"/><path class="ee" d="M731.281,109.5a3.04,3.04,0,0,0-5.938-.924,3.043,3.043,0,1,0-1.268,5.848,3.48,3.48,0,1,0,6.2-2.678A3.029,3.029,0,0,0,731.281,109.5Z" transform="translate(-693.216 -103.641)"/><path class="ef" d="M731.178,109.516a3.48,3.48,0,0,0-6.765,1.152,3.44,3.44,0,0,0,.421,1.661,3.04,3.04,0,1,0,5.079,3.038,3.045,3.045,0,1,0,1.265-5.851Z" transform="translate(-686.876 -102.021)"/><path class="eg" d="M728.195,110.529a3.482,3.482,0,1,0-6.347,2.813,3.04,3.04,0,1,0,5.078,3.038,3.045,3.045,0,1,0,1.268-5.851Z" transform="translate(-693.502 -99.774)"/><path class="eh" d="M733.24,112.429a3.037,3.037,0,0,0-5.934-.924,3.043,3.043,0,1,0-1.268,5.848,3.48,3.48,0,1,0,6.2-2.678A3.018,3.018,0,0,0,733.24,112.429Z" transform="translate(-688.864 -97.152)"/><path class="ei" d="M728.19,110.383a3.04,3.04,0,0,0-5.938-.924,3.043,3.043,0,1,0-1.268,5.848,3.481,3.481,0,1,0,6.2-2.678A3.028,3.028,0,0,0,728.19,110.383Z" transform="translate(-700.066 -101.691)"/><path class="ej" d="M728.537,110.843a3.481,3.481,0,1,0-6.343,2.813,3.04,3.04,0,1,0,5.078,3.038,3.045,3.045,0,1,0,1.265-5.851Z" transform="translate(-692.734 -99.078)"/><path class="ek" d="M723.686,111.724a3.482,3.482,0,1,0-6.347,2.813,3.041,3.041,0,1,0,5.081,3.038,3.044,3.044,0,1,0,1.265-5.851Z" transform="translate(-703.504 -97.123)"/><path class="el" d="M728.373,111.618a3.04,3.04,0,0,0-5.938-.927,3.045,3.045,0,1,0-1.268,5.851,3.48,3.48,0,1,0,6.2-2.678A3.034,3.034,0,0,0,728.373,111.618Z" transform="translate(-699.667 -98.951)"/><path class="em" d="M729.588,113.624a3.038,3.038,0,0,0-5.935-.924,3.043,3.043,0,1,0-1.271,5.848,3.481,3.481,0,1,0,6.2-2.678A3.029,3.029,0,0,0,729.588,113.624Z" transform="translate(-696.965 -94.501)"/><path class="en" d="M724.5,113.427a3.04,3.04,0,0,0-5.938-.927,3.045,3.045,0,1,0-1.268,5.851,3.481,3.481,0,1,0,6.2-2.678A3.035,3.035,0,0,0,724.5,113.427Z" transform="translate(-708.269 -94.938)"/><path class="eo" d="M724.392,113.439a3.48,3.48,0,0,0-6.765,1.152,3.441,3.441,0,0,0,.422,1.661,3.04,3.04,0,1,0,5.078,3.038,3.045,3.045,0,1,0,1.265-5.851Z" transform="translate(-701.93 -93.319)"/><path class="ep" d="M721.408,114.452a3.482,3.482,0,1,0-6.346,2.813,3.041,3.041,0,1,0,5.082,3.038,3.044,3.044,0,1,0,1.264-5.851Z" transform="translate(-708.556 -91.072)"/><path class="eq" d="M726.454,116.352a3.037,3.037,0,0,0-5.934-.924,3.043,3.043,0,1,0-1.268,5.848,3.48,3.48,0,1,0,6.2-2.678A3.017,3.017,0,0,0,726.454,116.352Z" transform="translate(-703.917 -88.45)"/><path class="er" d="M735.4,111.736a3.038,3.038,0,0,0-5.935-.927,3.045,3.045,0,1,0-1.271,5.851,3.481,3.481,0,1,0,6.2-2.678A3.034,3.034,0,0,0,735.4,111.736Z" transform="translate(-684.063 -98.689)"/><path class="ek" d="M735.307,111.748a3.482,3.482,0,1,0-6.346,2.813,3.041,3.041,0,1,0,5.082,3.038,3.044,3.044,0,1,0,1.265-5.851Z" transform="translate(-677.726 -97.07)"/><path class="es" d="M732.317,112.761a3.48,3.48,0,0,0-6.765,1.152,3.438,3.438,0,0,0,.422,1.661,3.04,3.04,0,1,0,5.078,3.038,3.045,3.045,0,1,0,1.265-5.851Z" transform="translate(-684.349 -94.823)"/><path class="et" d="M737.366,114.661a3.039,3.039,0,0,0-5.938-.924,3.043,3.043,0,1,0-1.268,5.848,3.481,3.481,0,1,0,6.2-2.678A3.028,3.028,0,0,0,737.366,114.661Z" transform="translate(-679.711 -92.201)"/><path class="eu" d="M732.7,113.4a3.039,3.039,0,0,0-5.937-.924,3.043,3.043,0,1,0-1.268,5.848,3.481,3.481,0,1,0,6.2-2.678A3.028,3.028,0,0,0,732.7,113.4Z" transform="translate(-690.064 -94.989)"/><path class="ev" d="M732.621,113.932a3.482,3.482,0,1,0-6.347,2.813,3.041,3.041,0,1,0,5.082,3.035,3.043,3.043,0,1,0,1.265-5.848Z" transform="translate(-683.684 -92.225)"/><path class="ew" d="M728.374,114.249a3.481,3.481,0,1,0-6.346,2.813,3.041,3.041,0,1,0,5.082,3.038,3.045,3.045,0,1,0,1.264-5.851Z" transform="translate(-693.103 -91.522)"/><path class="ex" d="M733.716,115.856a3.04,3.04,0,0,0-5.938-.924,3.043,3.043,0,1,0-1.268,5.848,3.48,3.48,0,1,0,6.2-2.678A3.029,3.029,0,0,0,733.716,115.856Z" transform="translate(-687.815 -89.55)"/><path class="ey" d="M733.052,114.531a3.038,3.038,0,0,0-5.935-.924,3.043,3.043,0,1,0-1.268,5.848,3.479,3.479,0,1,0,6.2-2.674A3.029,3.029,0,0,0,733.052,114.531Z" transform="translate(-689.281 -92.483)"/><path class="ez" d="M740.409,127.219a2.428,2.428,0,0,0-4.744-.74,2.4,2.4,0,0,0-.94-.19,2.432,2.432,0,0,0-.074,4.863,2.781,2.781,0,1,0,4.953-2.14A2.42,2.42,0,0,0,740.409,127.219Z" transform="translate(-668.435 -62.986)"/><path class="fa" d="M728.618,115.659a3.038,3.038,0,0,0-5.934-.927,3.045,3.045,0,1,0-1.268,5.851,3.479,3.479,0,1,0,6.2-2.678A3.023,3.023,0,0,0,728.618,115.659Z" transform="translate(-699.117 -89.987)"/><path class="fb" d="M728.521,115.671a3.482,3.482,0,1,0-6.347,2.813,3.041,3.041,0,1,0,5.082,3.035,3.043,3.043,0,1,0,1.265-5.848Z" transform="translate(-692.779 -88.368)"/><path class="fc" d="M728.581,112.424a3.481,3.481,0,1,0-6.343,2.816,3.015,3.015,0,0,0-.859,2.111,3.04,3.04,0,0,0,5.938.924,3.045,3.045,0,1,0,1.265-5.851Z" transform="translate(-692.646 -95.57)"/><path class="fd" d="M736.9,113.394a3.481,3.481,0,1,0-6.343,2.813,3.04,3.04,0,1,0,5.079,3.035,3.043,3.043,0,1,0,1.265-5.848Z" transform="translate(-674.174 -93.419)"/><path class="fe" d="M733.41,115.8a3.48,3.48,0,0,0-6.765,1.152,3.441,3.441,0,0,0,.421,1.661,3.04,3.04,0,1,0,5.078,3.038,3.045,3.045,0,1,0,1.265-5.851Z" transform="translate(-681.934 -88.075)"/><path class="ff" d="M730.121,117.319a3.482,3.482,0,1,0-6.346,2.813,3.04,3.04,0,1,0,5.079,3.035,3.043,3.043,0,1,0,1.268-5.848Z" transform="translate(-689.228 -84.718)"/><path class="fg" d="M725.531,116.684a3.48,3.48,0,0,0-6.765,1.152,3.436,3.436,0,0,0,.422,1.661,3.04,3.04,0,1,0,5.078,3.038,3.045,3.045,0,1,0,1.265-5.851Z" transform="translate(-699.403 -86.12)"/><path class="er" d="M730.58,118.584a3.04,3.04,0,0,0-5.938-.927,3.044,3.044,0,1,0-1.268,5.851,3.481,3.481,0,1,0,6.2-2.678A3.035,3.035,0,0,0,730.58,118.584Z" transform="translate(-694.764 -83.498)"/><path class="fh" d="M731.232,121.192a3.04,3.04,0,0,0-5.938-.927,3.044,3.044,0,1,0-1.268,5.851,3.481,3.481,0,1,0,6.2-2.678A3.034,3.034,0,0,0,731.232,121.192Z" transform="translate(-693.318 -77.713)"/><path class="fi" d="M731.321,124.117a3.04,3.04,0,0,0-5.938-.924,3.043,3.043,0,1,0-1.268,5.848,3.481,3.481,0,1,0,6.2-2.678A3.028,3.028,0,0,0,731.321,124.117Z" transform="translate(-693.121 -71.225)"/><g transform="translate(34.831 20.218)"><path class="fj" d="M723.287,132.1l-.014,41.058,21.884-12.548,12.867-48.746Z" transform="translate(-723.273 -111.864)"/><g transform="translate(1.818)"><path class="fk" d="M742.078,112.807l-12.3,48.353.96-.55L743.6,111.864Z" transform="translate(-710.668 -111.864)"/><path class="fl" d="M739.219,113.72l-10.433,47.236.96-.55,11-47.629Z" transform="translate(-712.864 -109.838)"/><path class="fm" d="M736.359,114.633,727.8,160.751l.96-.55,9.126-46.511Z" transform="translate(-715.058 -107.813)"/><path class="fn" d="M733.5,115.546l-6.693,45,.96-.55,7.256-45.393Z" transform="translate(-717.253 -105.787)"/><path class="fo" d="M730.639,116.459l-4.822,43.883.96-.55,5.386-44.275Z" transform="translate(-719.448 -103.762)"/><path class="fp" d="M727.78,117.372l-2.952,42.765.96-.55,3.516-43.158Z" transform="translate(-721.643 -101.737)"/><path class="fq" d="M724.92,118.285l-1.082,41.647.96-.55,1.646-42.04Z" transform="translate(-723.838 -99.711)"/></g></g><g transform="translate(0.033 20.218)"><path class="fr" d="M747.245,132.1l.014,41.058-21.932-12.914L712.46,111.864Z" transform="translate(-712.46 -111.864)"/><g transform="translate(1.059 0.871)"><path class="fs" d="M714.313,113.077l11.911,47.483-.96-.55-12.475-47.876Z" transform="translate(-712.789 -112.134)"/><path class="ft" d="M715.884,113.975l10.041,46.474-.96-.55-10.6-46.867Z" transform="translate(-709.306 -110.142)"/><path class="fu" d="M717.454,114.873l8.171,45.466-.96-.55-8.734-45.859Z" transform="translate(-705.822 -108.15)"/><path class="fv" d="M719.025,115.771l6.3,44.458-.96-.55-6.864-44.85Z" transform="translate(-702.337 -106.158)"/><path class="fw" d="M720.6,116.669l4.43,43.449-.96-.55-4.994-43.842Z" transform="translate(-698.853 -104.166)"/><path class="fx" d="M722.166,117.567l2.56,42.441-.959-.55-3.124-42.834Z" transform="translate(-695.369 -102.174)"/><path class="fy" d="M723.737,118.465l.69,41.433-.96-.55-1.254-41.825Z" transform="translate(-691.886 -100.182)"/></g></g><ellipse class="fz" cx="13.355" cy="7.555" rx="13.355" ry="7.555" transform="translate(33.946 59.763) rotate(-53.051)"/><ellipse class="ga" cx="12.152" cy="6.875" rx="12.152" ry="6.875" transform="translate(35.306 59.319) rotate(-53.051)"/><g transform="translate(40.463 45.202)"><path class="gb" d="M728.853,122.512a1.5,1.5,0,0,1,.058,1.307,4.442,4.442,0,0,1-1.072,1.561l-.338.341.637,1.1-1.2,1.21-1.915-3.331,1.535-1.551a3.513,3.513,0,0,1,1.423-1A.709.709,0,0,1,728.853,122.512Zm-1.773,2.475.219-.222a1.439,1.439,0,0,0,.364-.547.565.565,0,0,0-.019-.476c-.132-.225-.361-.171-.692.167l-.312.312Z" transform="translate(-725.023 -114.094)"/><path class="gc" d="M730.866,121.562a2.226,2.226,0,0,1,.187,1.834,5.146,5.146,0,0,1-1.358,2.06,3.617,3.617,0,0,1-1.854,1.178,1.216,1.216,0,0,1-1.294-.721,2.222,2.222,0,0,1-.177-1.828,5.192,5.192,0,0,1,1.358-2.066,3.665,3.665,0,0,1,1.857-1.184A1.215,1.215,0,0,1,730.866,121.562Zm-3.054,3.083c.37.644.856.666,1.452.061a1.78,1.78,0,0,0,.541-.914,1.38,1.38,0,0,0-.2-.956q-.289-.5-.647-.512a1.153,1.153,0,0,0-.8.434A1.445,1.445,0,0,0,727.812,124.645Z" transform="translate(-722.296 -116.977)"/><path class="gd" d="M731.324,120.021a1.5,1.5,0,0,1,.058,1.3,4.417,4.417,0,0,1-1.071,1.564l-.338.341.637,1.1-1.2,1.21-1.915-3.334,1.535-1.548a3.559,3.559,0,0,1,1.422-1A.707.707,0,0,1,731.324,120.021Zm-1.774,2.472.219-.219a1.461,1.461,0,0,0,.364-.547.564.564,0,0,0-.019-.476c-.132-.225-.361-.171-.692.164l-.313.312Z" transform="translate(-719.542 -119.626)"/><path class="ge" d="M727.074,125.256a1.4,1.4,0,0,0-.409.74,1.1,1.1,0,0,0,.142.763c.289.509.692.5,1.2-.016a4.46,4.46,0,0,0,.425-.5c.126-.18.248-.367.37-.56l.345.6a6.157,6.157,0,0,1-.908,1.146,2.676,2.676,0,0,1-1.413.882.964.964,0,0,1-1-.573,1.643,1.643,0,0,1-.209-.924,2.645,2.645,0,0,1,.318-1.072,4.413,4.413,0,0,1,.808-1.078,5.061,5.061,0,0,1,1.191-.911l.032.853c-.154.087-.306.177-.454.277A3.023,3.023,0,0,0,727.074,125.256Z" transform="translate(-723.698 -110.472)"/><path class="gf" d="M730.125,123.44a1.761,1.761,0,0,1,.148,1.445,4.081,4.081,0,0,1-1.072,1.628,2.875,2.875,0,0,1-1.464.927.961.961,0,0,1-1.02-.566,1.767,1.767,0,0,1-.138-1.445,4.058,4.058,0,0,1,1.072-1.628,2.869,2.869,0,0,1,1.464-.933A.959.959,0,0,1,730.125,123.44Zm-2.407,2.433c.29.508.673.525,1.142.048a1.414,1.414,0,0,0,.428-.724,1.1,1.1,0,0,0-.158-.753c-.151-.261-.321-.4-.512-.4a.917.917,0,0,0-.634.341A1.142,1.142,0,0,0,727.718,125.873Z" transform="translate(-721.777 -112.463)"/><path class="gg" d="M729.373,124.708l.55.956-.946.956-1.512-2.629,1.149-1.159q1.429-1.443,1.873-.663c.177.3.113.74-.187,1.307l1.68.116-1.075,1.081-1.29-.206Zm-.306-.534.177-.18c.331-.331.431-.608.306-.83-.1-.18-.319-.106-.64.219l-.19.19Z" transform="translate(-719.606 -114.591)"/><path class="gh" d="M733.23,123.205l-1.242,1.252-2.343-.563-.023.022a6.2,6.2,0,0,1,.428.621l.682,1.184-.84.846-1.51-2.629,1.236-1.245,2.323.541.016-.016a6.916,6.916,0,0,1-.4-.605l-.682-1.188.843-.85Z" transform="translate(-717.57 -117.52)"/></g><path class="gi" d="M726.739,111.99a2.627,2.627,0,1,1-3.479-1.564A2.7,2.7,0,0,1,726.739,111.99Z" transform="translate(-692.008 -95.252)"/><path class="gj" d="M733.384,111.338a2.627,2.627,0,1,1-3.479-1.564A2.695,2.695,0,0,1,733.384,111.338Z" transform="translate(-677.264 -96.698)"/><path class="gk" d="M723.371,111.1a2.629,2.629,0,1,1-3.482-1.564A2.7,2.7,0,0,1,723.371,111.1Z" transform="translate(-699.482 -97.217)"/><ellipse class="gl" cx="2.624" cy="2.768" rx="2.624" ry="2.768" transform="matrix(0.925, -0.38, 0.38, 0.925, 28.376, 10.222)"/><path class="gm" d="M727.949,112.7a2.627,2.627,0,1,1-3.479-1.564A2.7,2.7,0,0,1,727.949,112.7Z" transform="translate(-689.321 -93.668)"/><ellipse class="gn" cx="2.624" cy="2.768" rx="2.624" ry="2.768" transform="translate(45.617 23.168) rotate(-22.342)"/><path class="go" d="M730,116.276a2.627,2.627,0,1,1-3.479-1.564A2.7,2.7,0,0,1,730,116.276Z" transform="translate(-684.774 -85.744)"/><path class="gp" d="M729.669,117.947a3.872,3.872,0,1,1-5.127-2.3A3.977,3.977,0,0,1,729.669,117.947Z" transform="translate(-690.838 -83.876)"/><path class="gq" d="M733.335,112.324a3.873,3.873,0,1,1-5.127-2.3A3.977,3.977,0,0,1,733.335,112.324Z" transform="translate(-682.708 -96.346)"/><path class="gr" d="M729.129,110.344a2.628,2.628,0,1,1-3.479-1.564A2.695,2.695,0,0,1,729.129,110.344Z" transform="translate(-686.703 -98.903)"/><path class="gs" d="M724.108,114.612a3.305,3.305,0,1,1-4.377-1.966A3.393,3.393,0,0,1,724.108,114.612Z" transform="translate(-700.747 -90.434)"/><path class="gt" d="M726.224,114.975a1.5,1.5,0,1,1-1.986-.892A1.54,1.54,0,0,1,726.224,114.975Z" transform="translate(-688.313 -86.957)"/><path class="gu" d="M727.98,113.2a1.5,1.5,0,1,1-1.986-.891A1.536,1.536,0,0,1,727.98,113.2Z" transform="translate(-684.424 -90.907)"/><path class="gv" d="M731.687,112.7a1.5,1.5,0,1,1-1.986-.891A1.537,1.537,0,0,1,731.687,112.7Z" transform="translate(-676.195 -92.013)"/><path class="gw" d="M726.361,110.533a1.5,1.5,0,1,1-1.986-.891A1.54,1.54,0,0,1,726.361,110.533Z" transform="translate(-688.009 -96.814)"/><ellipse class="gx" cx="3.381" cy="3.567" rx="3.381" ry="3.567" transform="translate(22.224 14.033) rotate(-22.344)"/><path class="gy" d="M725.309,116.276a2.627,2.627,0,1,1-3.479-1.564A2.694,2.694,0,0,1,725.309,116.276Z" transform="translate(-695.178 -85.744)"/><path class="gz" d="M720.838,113.077a2.628,2.628,0,1,1-3.479-1.564A2.7,2.7,0,0,1,720.838,113.077Z" transform="translate(-705.098 -92.841)"/><path class="ha" d="M712.46,111.864,747.245,132.1l34.765-20.236-34.928,19.053Z" transform="translate(-712.428 -91.645)"/><path class="hb" d="M723.287,132.1l-.014,41.058,21.884-12.548,12.867-48.746Z" transform="translate(-688.442 -91.645)"/><path class="hc" d="M736.475,128.4a3.482,3.482,0,1,0-6.346,2.813,3.041,3.041,0,1,0,5.082,3.038,3.044,3.044,0,1,0,1.265-5.851Z" transform="translate(-675.134 -60.126)"/><path class="hd" d="M734.634,127.968a2.628,2.628,0,1,1-3.479-1.564A2.7,2.7,0,0,1,734.634,127.968Z" transform="translate(-674.498 -59.808)"/><path class="he" d="M735.844,128.681a2.628,2.628,0,1,1-3.479-1.564A2.7,2.7,0,0,1,735.844,128.681Z" transform="translate(-671.81 -58.224)"/></g><g transform="translate(19.261 181.982)"><path class="n" d="M738.077,151.7l.029-.013-9.97-5.758h0l-2.62-1.513-10.5-6.063h0l-8.934-5.159,0,0a4.165,4.165,0,0,1-3.743.016l-.583.335a.632.632,0,0,1-.023,1.191,2.308,2.308,0,0,1-2.06.013l-.4.232c.554.331.544.859-.026,1.188a2.3,2.3,0,0,1-2.06.013l-.4.232c.554.331.547.859-.023,1.191a2.307,2.307,0,0,1-2.06.013l-.4.229c.553.331.544.862-.026,1.191a2.3,2.3,0,0,1-2.06.013l-.679.393c1.017.6,1.007,1.564-.029,2.163l-.029.013,22.062,12.738h0l9.967,5.754,0,0a4.164,4.164,0,0,1,3.743-.016l.582-.335c-.553-.331-.547-.859.023-1.191a2.307,2.307,0,0,1,2.06-.013l.4-.232c-.554-.328-.544-.859.026-1.188a2.3,2.3,0,0,1,2.06-.013l.4-.232c-.553-.332-.547-.859.023-1.188a2.3,2.3,0,0,1,2.06-.016l.4-.228c-.554-.332-.544-.863.026-1.191a2.3,2.3,0,0,1,2.059-.013l.679-.393C737.031,153.265,737.04,152.3,738.077,151.7Z" transform="translate(-691.479 -132.108)"/><g transform="translate(8.934 5.159)"><path class="hf" d="M721.7,154.678a2.3,2.3,0,0,1,2.06-.016l.4-.228c-.553-.332-.544-.863.026-1.191a2.308,2.308,0,0,1,2.06-.013l.4-.232c-.553-.331-.547-.859.022-1.188a2.3,2.3,0,0,1,2.06-.013l.4-.232c-.553-.331-.544-.859.026-1.191a2.306,2.306,0,0,1,2.059-.013l.679-.393a1.142,1.142,0,0,1,.029-2.159l.029-.016-23.094-13.333-14.6,8.429,23.094,13.33h0a4.164,4.164,0,0,1,3.743-.019l.583-.335C721.125,155.534,721.131,155.007,721.7,154.678Z" transform="translate(-694.255 -134.461)"/></g><path class="hg" d="M701.726,134.4a2.3,2.3,0,0,1-2.06.013l-.4.232c.554.331.544.859-.026,1.188a2.3,2.3,0,0,1-2.06.016l-.4.229a.631.631,0,0,1-.023,1.191,2.308,2.308,0,0,1-2.06.013l-.4.232c.553.332.544.859-.026,1.188a2.307,2.307,0,0,1-2.06.016l-.679.393c1.017.6,1.007,1.561-.029,2.159l-.029.016,22.062,12.735,14.595-8.429-22.058-12.735,0,0a4.155,4.155,0,0,1-3.743.016l-.583.338C702.3,133.544,702.3,134.075,701.726,134.4Z" transform="translate(-691.479 -132.858)"/><g transform="translate(25.956 14.985)"><g class="hh" transform="translate(9.633)"><path class="hi" d="M708.919,141.5l-6.382-3.685.53-.306,6.382,3.685Z" transform="translate(-702.537 -137.514)"/></g><g class="hh" transform="translate(9.17 0.42)"><path class="hi" d="M709.04,141.33l-6.382-3.685-.265.153,6.382,3.685Z" transform="translate(-702.393 -137.645)"/></g><g class="hh" transform="translate(7.432 1.424)"><path class="hi" d="M708.5,141.641l-6.382-3.685-.265.153,6.382,3.685Z" transform="translate(-701.853 -137.957)"/></g><g class="hh" transform="translate(4.828 2.883)"><path class="hi" d="M707.768,142.095l-6.382-3.685-.342.2,6.382,3.685Z" transform="translate(-701.044 -138.41)"/></g><g class="hh" transform="translate(4.336 3.249)"><path class="hi" d="M707.473,142.208l-6.382-3.685-.2.115,6.382,3.685Z" transform="translate(-700.891 -138.524)"/></g><g class="hh" transform="translate(7.92 1.147)"><path class="hi" d="M708.387,141.7l-6.382-3.685.256-.148,6.382,3.685Z" transform="translate(-702.005 -137.871)"/></g><g class="hh" transform="translate(8.425 0.698)"><path class="hi" d="M708.544,141.721l-6.382-3.685.53-.306,6.382,3.685Z" transform="translate(-702.162 -137.731)"/></g><g class="hh" transform="translate(6.654 1.72)"><path class="hi" d="M707.993,142.039l-6.382-3.685.53-.306,6.382,3.685Z" transform="translate(-701.612 -138.049)"/></g><g class="hh" transform="translate(6.19 2.155)"><path class="hi" d="M708.09,141.869l-6.382-3.685-.24.139,6.382,3.685Z" transform="translate(-701.467 -138.184)"/></g><g class="hh" transform="translate(5.363 2.465)"><path class="hi" d="M707.592,142.271l-6.382-3.685.53-.306,6.382,3.685Z" transform="translate(-701.21 -138.28)"/></g><g class="hh" transform="translate(3.625 3.469)"><path class="hi" d="M707.052,142.583,700.67,138.9l.53-.306,6.382,3.685Z" transform="translate(-700.67 -138.592)"/></g><g class="hh" transform="translate(2.83 3.928)"><path class="hi" d="M706.806,142.725l-6.382-3.685.53-.306,6.382,3.685Z" transform="translate(-700.424 -138.735)"/></g><g class="hh" transform="translate(2.233 4.39)"><path class="hi" d="M706.62,142.751l-6.382-3.685.326-.188,6.382,3.685Z" transform="translate(-700.238 -138.878)"/></g><g class="hh" transform="translate(0.795 5.208)"><path class="hi" d="M706.173,143.018l-6.382-3.685.348-.2,6.382,3.685Z" transform="translate(-699.791 -139.133)"/></g><g class="hh" transform="translate(0 5.562)"><path class="hi" d="M705.926,143.233l-6.382-3.685.529-.306,6.382,3.685Z" transform="translate(-699.544 -139.242)"/></g><g class="hh" transform="translate(1.44 4.73)"><path class="hi" d="M706.374,142.975l-6.382-3.685.53-.306,6.382,3.685Z" transform="translate(-699.991 -138.984)"/></g></g><g transform="translate(6.25 3.587)"><path class="hj" d="M696.5,136.822a1.76,1.76,0,0,1-.5-.1,3.346,3.346,0,0,1-.476-.219,1.177,1.177,0,0,1-.415-.367.515.515,0,0,1-.074-.438,1.162,1.162,0,0,1,.335-.505,4.123,4.123,0,0,1,.8-.573,5.409,5.409,0,0,1,1.023-.463,3.755,3.755,0,0,1,.895-.177,2.583,2.583,0,0,1,.753.048,2.331,2.331,0,0,1,.982.492,1.1,1.1,0,0,1,.2.222l-.464.154a.748.748,0,0,0-.158-.2,1.817,1.817,0,0,0-.3-.209,1.33,1.33,0,0,0-.434-.154,1.917,1.917,0,0,0-.566-.016,3.157,3.157,0,0,0-.689.164,4.671,4.671,0,0,0-.814.383c-.525.3-.83.582-.914.837s.019.47.315.64a1.679,1.679,0,0,0,.376.161,2.521,2.521,0,0,0,.367.071Z" transform="translate(-689.892 -133.973)"/><path class="hj" d="M699.42,134.334l.4.232-3.772,2.179-.4-.232Z" transform="translate(-688.481 -133.171)"/><path class="hj" d="M699.019,135.719l.364-.473-.019-.01-.531.376-2.395,1.381-.386-.222,3.833-2.214.241.138-1.059,2.214-.348.454.023.013.505-.36,2.388-1.377.386.222-3.833,2.211-.244-.142Z" transform="translate(-687.585 -132.676)"/><path class="hj" d="M700.761,135.109l1.667.962-.373.212-1.261-.727-1.278.737,1.162.669-.373.216-1.162-.673-1.378.8,1.291.743-.373.216-1.693-.975Z" transform="translate(-685.506 -131.452)"/><path class="hj" d="M702.547,137.634l.621-.3-.023-.013-.7.209-2.394.512-.132-.077.843-1.4.37-.406-.023-.013-.5.373-2.482,1.432-.383-.222,3.772-2.179.338.193-.95,1.593-.309.335.009.006.576-.187,2.707-.57.354.2-3.772,2.179-.4-.232Z" transform="translate(-683.829 -130.484)"/><path class="hj" d="M701.557,138.279l-1.058-.612-1.355.438-.4-.228,4.963-1.561.219.129-2.7,2.864-.425-.245Zm-.6-.75.856.492.846-.866.47-.386-.013-.006-.682.277Z" transform="translate(-681.604 -128.774)"/><path class="hj" d="M698.133,136.492l-.892-.512-3.147,1.818-.673-.393,3.147-1.815-.888-.515.625-.36,2.452,1.416Z" transform="translate(-693.421 -132.326)"/><path class="hj" d="M697.885,135.274l.676.389-3.772,2.179-.676-.389Z" transform="translate(-691.886 -131.086)"/><path class="hj" d="M696.412,138.6a1.755,1.755,0,0,1-.544-.116,3.348,3.348,0,0,1-.518-.235,1.464,1.464,0,0,1-.438-.367.555.555,0,0,1-.106-.444,1.073,1.073,0,0,1,.315-.521,3.828,3.828,0,0,1,.821-.6,4.961,4.961,0,0,1,1.069-.476,3.637,3.637,0,0,1,.917-.164,2.5,2.5,0,0,1,.763.074,2.426,2.426,0,0,1,.6.241,2.185,2.185,0,0,1,.415.29,1.3,1.3,0,0,1,.222.238l-.731.27a.667.667,0,0,0-.158-.187,1.631,1.631,0,0,0-.293-.2,1.352,1.352,0,0,0-.892-.142,3.435,3.435,0,0,0-1.21.47,3.377,3.377,0,0,0-.5.338,1.046,1.046,0,0,0-.28.328.367.367,0,0,0-.022.306.579.579,0,0,0,.27.267,1.562,1.562,0,0,0,.37.155,3.113,3.113,0,0,0,.363.071Z" transform="translate(-690.371 -130.203)"/><path class="hj" d="M697.888,137.766l-.145-.084-1.616.933-.676-.389,3.772-2.179.676.389-1.67.965.2.039,2.394-.473.76.441-2.443.418-.451-.029.051.267-.792,1.6-.824-.476Z" transform="translate(-688.918 -129.371)"/><path class="hj" d="M700.189,136.6l1.873,1.081-.624.364-1.2-.7-.927.537,1.087.628-.624.36-1.088-.628-.972.56,1.223.7-.624.36-1.9-1.094Z" transform="translate(-686.782 -128.137)"/><path class="hj" d="M702.156,138.815l-.888-.512-3.148,1.818-.676-.389,3.147-1.818-.888-.515.624-.36,2.455,1.416Z" transform="translate(-684.497 -127.173)"/></g><g class="hh" transform="translate(22.01 12.744)"><path class="hi" d="M698.318,138.766l.061-.045.074-.048.074-.045.071-.042a1,1,0,0,1,.3-.116,1.06,1.06,0,0,1,.3-.013,1.351,1.351,0,0,1,.309.074,1.848,1.848,0,0,1,.312.148,1.36,1.36,0,0,1,.244.174.421.421,0,0,1,.139.183.238.238,0,0,1-.01.187.487.487,0,0,1-.2.183l-.067.035-.087.045-.083.045-.061.029Zm.425-.109-.042.026-.042.026-.039.026-.026.023,1.117.644.032-.013.045-.026.045-.022.032-.019a.266.266,0,0,0,.135-.132.174.174,0,0,0-.01-.138.5.5,0,0,0-.126-.142,1.335,1.335,0,0,0-.206-.138,1.543,1.543,0,0,0-.219-.109,1.223,1.223,0,0,0-.235-.071.821.821,0,0,0-.235-.006A.561.561,0,0,0,698.743,138.656Z" transform="translate(-698.318 -133.195)"/><path class="hi" d="M699.968,138.788l-.389.225.274.286-.145.084-.978-1.046.081-.048,1.812.566-.158.09Zm-.476.129.312-.183-.544-.177-.245-.1h0l.171.145Z" transform="translate(-697.406 -133.555)"/><path class="hi" d="M699.845,138.151l-.338.2,1.239.715-.148.087-1.239-.714-.341.2-.135-.08.827-.476Z" transform="translate(-697.065 -134.032)"/><path class="hi" d="M699.2,138.281l.611-.354.135.077-.463.27.463.27.428-.248.135.077-.428.248.5.29.476-.274.135.077-.624.36Z" transform="translate(-696.353 -134.358)"/><path class="hi" d="M700.035,137.576l.154-.039,1.052,1.271-.158.045Z" transform="translate(-694.509 -135.223)"/><path class="hi" d="M701.357,138.355a1.011,1.011,0,0,0,.154-.035.775.775,0,0,0,.177-.074.225.225,0,0,0,.125-.135c.01-.048-.022-.093-.1-.138a.439.439,0,0,0-.174-.055,1.408,1.408,0,0,0-.2,0q-.106,0-.222.019c-.077.01-.151.013-.228.016a1.345,1.345,0,0,1-.229-.019.653.653,0,0,1-.213-.077c-.112-.064-.161-.129-.145-.2a.319.319,0,0,1,.18-.2,1.322,1.322,0,0,1,.193-.09.818.818,0,0,1,.167-.045l.084.1a.6.6,0,0,0-.142.035,1.123,1.123,0,0,0-.17.077c-.071.042-.106.08-.106.122s.026.074.08.1a.365.365,0,0,0,.161.048,1.035,1.035,0,0,0,.2,0q.106,0,.222-.019c.077-.006.154-.01.235-.01a1.407,1.407,0,0,1,.232.019.606.606,0,0,1,.216.08c.116.064.171.138.167.216s-.068.151-.193.222a1.05,1.05,0,0,1-.216.1.867.867,0,0,1-.17.042Z" transform="translate(-693.926 -135.7)"/><path class="hi" d="M700.538,137.511l.615-.354.135.077-.467.27.467.267.428-.248.135.077-.428.248.5.29.476-.274.135.077-.624.36Z" transform="translate(-693.394 -136.066)"/><path class="hi" d="M702.142,137.533l-.389.222.277.286-.148.084-.978-1.046.08-.045,1.812.563-.154.09Zm-.476.126.315-.18-.547-.177-.245-.1,0,0,.174.145Z" transform="translate(-692.584 -136.339)"/><path class="hi" d="M702.02,136.9l-.341.2,1.239.714-.148.084-1.239-.714-.338.2-.135-.077.827-.48Z" transform="translate(-692.24 -136.818)"/></g></g><g transform="translate(38.295 179.404)"><path class="n" d="M729,149.646h0l-2.925-3.746-4.715-6.031h0l-5.2-6.652h-.006a3.656,3.656,0,0,1-3.505-.743l-.747.2c.316.425-.016.917-.746,1.11a2.029,2.029,0,0,1-1.934-.405l-.512.135c.315.425-.016.92-.746,1.114a2.045,2.045,0,0,1-1.934-.406l-.512.135c.315.422-.013.917-.747,1.11a2.03,2.03,0,0,1-1.931-.405l-.515.135c.315.422-.013.917-.747,1.11a2.032,2.032,0,0,1-1.931-.405l-.875.232c.586.766-.013,1.67-1.345,2.021l-.036.006,5.2,6.656h0l13.446,17.2.006,0a3.666,3.666,0,0,1,3.5.743l.747-.2c-.315-.422.016-.917.747-1.11a2.038,2.038,0,0,1,1.935.406l.512-.135c-.316-.425.013-.917.747-1.11a2.022,2.022,0,0,1,1.931.406l.515-.135c-.315-.425.013-.92.747-1.113a2.041,2.041,0,0,1,1.931.405l.515-.135c-.315-.422.013-.917.747-1.11a2.032,2.032,0,0,1,1.931.405l.876-.229c-.586-.769.009-1.673,1.342-2.024l.038-.006Z" transform="translate(-697.393 -131.134)"/><g transform="translate(5.201 7.396)"><path class="hk" d="M717.459,155.934a2.037,2.037,0,0,1,1.934.405l.512-.135c-.315-.422.013-.917.746-1.11a2.03,2.03,0,0,1,1.931.406l.515-.135c-.315-.422.013-.917.747-1.11a2.024,2.024,0,0,1,1.931.406l.515-.135c-.316-.425.012-.917.746-1.11a2.024,2.024,0,0,1,1.931.406l.876-.232c-.586-.769.009-1.67,1.342-2.021l.039-.01-13.446-17.2L699.009,139.3l13.446,17.2.006,0a3.656,3.656,0,0,1,3.5.747l.747-.2C716.4,156.622,716.729,156.127,717.459,155.934Z" transform="translate(-699.009 -134.355)"/></g><path class="hl" d="M711.158,133.367a2.037,2.037,0,0,1-1.934-.406l-.512.135c.315.422-.016.917-.746,1.11a2.036,2.036,0,0,1-1.934-.406l-.512.135c.315.422-.016.917-.747,1.11a2.022,2.022,0,0,1-1.931-.405l-.515.135c.315.425-.013.917-.747,1.11a2.024,2.024,0,0,1-1.931-.405l-.875.232c.586.769-.013,1.67-1.345,2.021l-.036.01,12.844,16.429L729,149.23,716.162,132.8h-.006a3.656,3.656,0,0,1-3.505-.743l-.747.2C712.22,132.678,711.888,133.174,711.158,133.367Z" transform="translate(-697.393 -132.057)"/><g transform="translate(16.671 19.174)"><g class="hh" transform="translate(12.384)"><path class="hi" d="M710.137,142.948l-3.715-4.753.681-.179,3.715,4.753Z" transform="translate(-706.421 -138.015)"/></g><g class="hh" transform="translate(11.789 0.247)"><path class="hi" d="M710.292,142.845l-3.715-4.753-.34.09,3.715,4.753Z" transform="translate(-706.236 -138.091)"/></g><g class="hh" transform="translate(9.554 0.835)"><path class="hi" d="M709.6,143.028l-3.715-4.753-.341.09,3.715,4.753Z" transform="translate(-705.542 -138.274)"/></g><g class="hh" transform="translate(6.207 1.691)"><path class="hi" d="M708.657,143.293l-3.716-4.753-.439.116,3.715,4.753Z" transform="translate(-704.502 -138.54)"/></g><g class="hh" transform="translate(5.575 1.906)"><path class="hi" d="M708.277,143.36l-3.715-4.753-.257.068,3.715,4.753Z" transform="translate(-704.305 -138.607)"/></g><g class="hh" transform="translate(10.182 0.673)"><path class="hi" d="M709.452,143.064l-3.715-4.753.33-.087,3.715,4.753Z" transform="translate(-705.737 -138.224)"/></g><g class="hh" transform="translate(10.831 0.409)"><path class="hi" d="M709.654,143.075l-3.716-4.753.681-.179,3.715,4.753Z" transform="translate(-705.938 -138.142)"/></g><g class="hh" transform="translate(8.554 1.009)"><path class="hi" d="M708.947,143.261l-3.716-4.753.681-.179,3.716,4.753Z" transform="translate(-705.231 -138.328)"/></g><g class="hh" transform="translate(7.959 1.264)"><path class="hi" d="M709.07,143.161l-3.715-4.753-.309.081,3.715,4.753Z" transform="translate(-705.046 -138.407)"/></g><g class="hh" transform="translate(6.894 1.446)"><path class="hi" d="M708.431,143.4l-3.716-4.753.681-.179,3.715,4.753Z" transform="translate(-704.715 -138.464)"/></g><g class="hh" transform="translate(4.66 2.035)"><path class="hi" d="M707.736,143.58l-3.715-4.753.681-.179,3.715,4.753Z" transform="translate(-704.021 -138.647)"/></g><g class="hh" transform="translate(3.639 2.304)"><path class="hi" d="M707.419,143.663,703.7,138.91l.681-.179,3.716,4.753Z" transform="translate(-703.704 -138.731)"/></g><g class="hh" transform="translate(2.871 2.575)"><path class="hi" d="M707.181,143.679l-3.715-4.753.419-.11,3.716,4.753Z" transform="translate(-703.465 -138.815)"/></g><g class="hh" transform="translate(1.021 3.055)"><path class="hi" d="M706.606,143.835l-3.715-4.753.447-.118,3.715,4.753Z" transform="translate(-702.891 -138.964)"/></g><g class="hh" transform="translate(0 3.262)"><path class="hi" d="M706.289,143.961l-3.716-4.753.681-.179,3.715,4.753Z" transform="translate(-702.573 -139.028)"/></g><g class="hh" transform="translate(1.851 2.775)"><path class="hi" d="M706.864,143.81l-3.715-4.753.681-.179,3.715,4.753Z" transform="translate(-703.148 -138.877)"/></g></g><g transform="translate(5.69 4.05)"><path class="hj" d="M702.111,135.7a1.185,1.185,0,0,1-.405-.2,1.634,1.634,0,0,1-.312-.3.726.726,0,0,1-.167-.428.605.605,0,0,1,.2-.425,2.045,2.045,0,0,1,.621-.409,6.368,6.368,0,0,1,1.094-.373,7.393,7.393,0,0,1,1.236-.228,4.539,4.539,0,0,1,.946.013,2.047,2.047,0,0,1,.673.2,1.269,1.269,0,0,1,.419.328,1.342,1.342,0,0,1,.2.331.857.857,0,0,1,.051.248l-.528.052a.45.45,0,0,0-.029-.219,1.059,1.059,0,0,0-.151-.257.859.859,0,0,0-.312-.235,1.647,1.647,0,0,0-.518-.129,3.692,3.692,0,0,0-.746.013,6.847,6.847,0,0,0-.991.2,3.343,3.343,0,0,0-1.368.6.448.448,0,0,0-.093.666.917.917,0,0,0,.257.225,1.577,1.577,0,0,0,.3.142Z" transform="translate(-694.58 -133.315)"/><path class="hj" d="M706.42,133.837l.235.3-4.85,1.274-.235-.3Z" transform="translate(-693.817 -132.158)"/><path class="hj" d="M705.214,135.048l.628-.373-.01-.013-.727.245-3.077.811-.222-.286,4.924-1.3.142.18-2.34,1.863-.6.354.013.016.692-.235,3.07-.808.225.286-4.927,1.3-.141-.183Z" transform="translate(-693.294 -131.506)"/><path class="hj" d="M707.2,134.836l.969,1.239-.476.125-.737-.94-1.641.431.676.866-.476.126-.679-.866-1.773.467.753.962-.48.126-.985-1.262Z" transform="translate(-692.085 -129.942)"/><path class="hj" d="M707.332,137.567l.763-.158-.013-.016-.785.055-2.546-.01-.08-.1,1.644-1.143.589-.306-.009-.016-.692.251-3.186.837-.225-.286,4.85-1.278.2.251-1.857,1.3-.489.248.006.01.65-.058,2.874.013.206.264-4.85,1.278-.235-.3Z" transform="translate(-691.109 -128.695)"/><path class="hj" d="M705.754,137.8l-.615-.789-1.532.135-.232-.293,5.584-.457.129.164L704.82,138.7l-.248-.315Zm-.1-.827.5.637,1.316-.64.672-.267-.006-.006-.8.119Z" transform="translate(-689.813 -126.47)"/><path class="hj" d="M704.117,135.723l-.515-.663-4.049,1.065-.393-.5,4.045-1.065-.515-.663.8-.209,1.429,1.825Z" transform="translate(-699.161 -132.493)"/><path class="hj" d="M704.414,134.407l.393.5-4.85,1.278-.393-.5Z" transform="translate(-698.267 -130.894)"/><path class="hj" d="M700.951,137.347a1.269,1.269,0,0,1-.437-.219,1.63,1.63,0,0,1-.338-.328.783.783,0,0,1-.187-.434.6.6,0,0,1,.171-.438,2,2,0,0,1,.611-.425,6.172,6.172,0,0,1,1.129-.393,7.114,7.114,0,0,1,1.291-.232,3.929,3.929,0,0,1,.956.032,1.977,1.977,0,0,1,.666.225,1.42,1.42,0,0,1,.415.348,1.387,1.387,0,0,1,.209.357.838.838,0,0,1,.061.27l-.847.1a.427.427,0,0,0-.032-.2.931.931,0,0,0-.148-.254,1,1,0,0,0-.747-.312,4.534,4.534,0,0,0-1.419.2,5.906,5.906,0,0,0-.669.216,2.138,2.138,0,0,0-.46.251.535.535,0,0,0-.206.28.358.358,0,0,0,.087.309.876.876,0,0,0,.254.222,2.072,2.072,0,0,0,.3.138Z" transform="translate(-697.327 -129.878)"/><path class="hj" d="M702.9,136.745l-.084-.109-2.079.547-.393-.5,4.85-1.278.393.5-2.146.566.161.077,2.523.045.441.566-2.536-.1-.4-.119-.115.261-1.716,1.342-.479-.615Z" transform="translate(-696.539 -128.684)"/><path class="hj" d="M705.754,136.121l1.091,1.4-.8.212-.7-.895-1.191.312.634.811-.8.212-.634-.811-1.246.328.712.911-.8.212-1.1-1.413Z" transform="translate(-695.295 -127.092)"/><path class="hj" d="M706.46,138.722l-.518-.663-4.046,1.065-.392-.5,4.045-1.065-.518-.663.8-.212,1.429,1.828Z" transform="translate(-693.964 -125.847)"/></g><g class="hh" transform="translate(14.531 16.165)"><path class="hi" d="M701.908,138.2l.087-.029.1-.029.1-.029.093-.026a1.2,1.2,0,0,1,.341-.045.87.87,0,0,1,.537.18,1.09,1.09,0,0,1,.2.2.97.97,0,0,1,.125.209.341.341,0,0,1,.016.2.334.334,0,0,1-.122.171.814.814,0,0,1-.3.132l-.084.023-.109.026-.1.023-.077.013Zm.464-.013-.055.013-.055.016-.051.016-.035.016.65.83.039-.006.058-.013.058-.013.038-.01a.536.536,0,0,0,.206-.1.2.2,0,0,0,.074-.135.294.294,0,0,0-.029-.158.907.907,0,0,0-.106-.171,1.47,1.47,0,0,0-.138-.148.789.789,0,0,0-.177-.113.667.667,0,0,0-.216-.055A.688.688,0,0,0,702.372,138.191Z" transform="translate(-701.908 -134.937)"/><path class="hi" d="M703.324,138.642l-.5.132.084.325-.19.048-.273-1.178.1-.029,1.348.9-.2.055Zm-.525.026.406-.106-.4-.28-.167-.142-.007,0,.074.171Z" transform="translate(-700.724 -135.172)"/><path class="hi" d="M703.779,137.919l-.438.116.721.92-.189.052-.721-.924-.438.116-.077-.1,1.062-.283Z" transform="translate(-700.293 -135.447)"/><path class="hi" d="M703.047,137.939l.792-.209.077.1-.6.158.27.344.55-.145.081.1-.551.145.29.373.615-.161.077.1-.8.212Z" transform="translate(-699.381 -135.638)"/><path class="hi" d="M704.121,137.51l.167-.007.209,1.41-.174.006Z" transform="translate(-696.999 -136.139)"/><path class="hi" d="M705.029,138.456a1.389,1.389,0,0,0,.164,0,1.046,1.046,0,0,0,.212-.035.426.426,0,0,0,.2-.1c.038-.045.035-.093-.01-.151a.269.269,0,0,0-.128-.087,1.324,1.324,0,0,0-.187-.045c-.071-.01-.145-.019-.219-.026s-.151-.019-.225-.032a.96.96,0,0,1-.2-.064.37.37,0,0,1-.154-.116.153.153,0,0,1-.013-.216.605.605,0,0,1,.287-.148,1.9,1.9,0,0,1,.238-.045.952.952,0,0,1,.183-.01l.016.113a.921.921,0,0,0-.154.006,1.345,1.345,0,0,0-.206.039.29.29,0,0,0-.174.093.093.093,0,0,0,.01.113.236.236,0,0,0,.122.077.935.935,0,0,0,.187.042l.219.029a1.744,1.744,0,0,1,.225.035,1.271,1.271,0,0,1,.206.064.394.394,0,0,1,.151.119.184.184,0,0,1,.026.238.54.54,0,0,1-.315.171,1.725,1.725,0,0,1-.264.048,1.256,1.256,0,0,1-.184.007Z" transform="translate(-696.311 -136.415)"/><path class="hi" d="M704.763,137.485l.789-.206.081.1-.6.158.27.348.55-.148.077.1-.55.145.293.373.612-.161.08.1-.8.212Z" transform="translate(-695.575 -136.639)"/><path class="hi" d="M706.119,137.906l-.5.132.08.325-.186.048-.277-1.181.1-.026,1.348.9-.2.051Zm-.524.023.405-.106-.4-.277-.167-.142h-.006l.074.171Z" transform="translate(-694.523 -136.805)"/><path class="hi" d="M706.573,137.18l-.438.116.721.924-.19.048-.721-.921-.437.116-.077-.1,1.062-.28Z" transform="translate(-694.093 -137.08)"/></g></g></svg>