<svg xmlns="http://www.w3.org/2000/svg" xmlns:xlink="http://www.w3.org/1999/xlink" width="538" height="285" viewBox="0 0 538 285"><defs><style>.a{opacity:0.6;fill:url(#a);}.b,.c{stroke:none;}.c{fill:#281855;}</style><radialGradient id="a" cx="0.71" cy="0.478" r="0.784" gradientUnits="objectBoundingBox"><stop offset="0" stop-color="#4e44be"/><stop offset="1" stop-color="#1b0d3a"/></radialGradient></defs><g transform="translate(-16 -2159)"><g class="a" transform="translate(16 2159)"><path class="b" d="M 529.4940795898438 284.5 L 8.50593376159668 284.5 C 4.091466903686523 284.5 0.5 281.4460754394531 0.5 277.6922607421875 L 0.5 7.307666778564453 C 0.5 3.553933382034302 4.091466903686523 0.5 8.50593376159668 0.5 L 529.4940795898438 0.5 C 533.9085083007813 0.5 537.5 3.553933382034302 537.5 7.307666778564453 L 537.5 277.6922607421875 C 537.5 281.4460754394531 533.9085083007813 284.5 529.4940795898438 284.5 Z"/><path class="c" d="M 8.50592041015625 1 C 4.36712646484375 1 1 3.82958984375 1 7.30767822265625 L 1 277.6922607421875 C 1 281.1703186035156 4.36712646484375 284 8.50592041015625 284 L 529.4940795898438 284 C 533.6328735351563 284 537 281.1703186035156 537 277.6922607421875 L 537 7.30767822265625 C 537 3.82958984375 533.6328735351563 1 529.4940795898438 1 L 8.50592041015625 1 M 8.50592041015625 0 L 529.4940795898438 0 C 534.1917114257813 0 538 3.271728515625 538 7.30767822265625 L 538 277.6922607421875 C 538 281.7282104492188 534.1917114257813 285 529.4940795898438 285 L 8.50592041015625 285 C 3.8082275390625 285 0 281.7282104492188 0 277.6922607421875 L 0 7.30767822265625 C 0 3.271728515625 3.8082275390625 0 8.50592041015625 0 Z"/></g></g></svg>