<svg xmlns="http://www.w3.org/2000/svg" xmlns:xlink="http://www.w3.org/1999/xlink" width="676" height="285" viewBox="0 0 676 285"><defs><style>.a{opacity:0.6;fill:url(#a);}.b,.c{stroke:none;}.c{fill:#281855;}</style><radialGradient id="a" cx="0.637" cy="0.5" r="0.674" gradientTransform="translate(0 0.053) scale(1 0.894)" gradientUnits="objectBoundingBox"><stop offset="0" stop-color="#4e44be"/><stop offset="1" stop-color="#1b0d3a"/></radialGradient></defs><g class="a"><path class="b" d="M 665.68115234375 284.5 L 10.31883335113525 284.5 C 7.662000179290771 284.5 5.170750141143799 283.7991638183594 3.303916692733765 282.5266723632813 C 1.495833277702332 281.2941589355469 0.5 279.6744995117188 0.5 277.9660949707031 L 0.5 7.033916473388672 C 0.5 5.325500011444092 1.495833277702332 3.705833435058594 3.303916692733765 2.473333358764648 C 5.170750141143799 1.200833320617676 7.662000179290771 0.5 10.31883335113525 0.5 L 665.68115234375 0.5 C 668.3380126953125 0.5 670.8292236328125 1.200833320617676 672.6961059570313 2.473333358764648 C 674.504150390625 3.705833435058594 675.5 5.325500011444092 675.5 7.033916473388672 L 675.5 277.9660949707031 C 675.5 279.6744995117188 674.504150390625 281.2941589355469 672.6961059570313 282.5266723632813 C 670.8292236328125 283.7991638183594 668.3380126953125 284.5 665.68115234375 284.5 Z"/><path class="c" d="M 10.31884765625 1 C 7.76141357421875 1 5.37017822265625 1.670013427734375 3.58551025390625 2.886505126953125 C 1.91827392578125 4.02301025390625 1 5.49591064453125 1 7.033905029296875 L 1 277.9660949707031 C 1 279.5040893554688 1.91827392578125 280.9769897460938 3.58551025390625 282.1134948730469 C 5.37017822265625 283.3299865722656 7.76141357421875 284 10.31884765625 284 L 665.68115234375 284 C 668.2385864257813 284 670.6298217773438 283.3299865722656 672.4144287109375 282.1134948730469 C 674.0817260742188 280.9769897460938 675 279.5040893554688 675 277.9660949707031 L 675 7.033905029296875 C 675 5.49591064453125 674.0817260742188 4.02301025390625 672.4144287109375 2.886505126953125 C 670.6298217773438 1.670013427734375 668.2385864257813 1 665.68115234375 1 L 10.31884765625 1 M 10.31884765625 0 L 665.68115234375 0 C 671.3800659179688 0 676 3.149169921875 676 7.033905029296875 L 676 277.9660949707031 C 676 281.850830078125 671.3800659179688 285 665.68115234375 285 L 10.31884765625 285 C 4.61981201171875 285 0 281.850830078125 0 277.9660949707031 L 0 7.033905029296875 C 0 3.149169921875 4.61981201171875 0 10.31884765625 0 Z"/></g></svg>