<svg xmlns="http://www.w3.org/2000/svg" width="33" height="33" viewBox="0 0 33 33"><defs><style>.a{fill:rgba(16,7,33,0.5);}.a,.b{stroke:#03f87e;}.b,.d{fill:none;}.c{stroke:none;}</style></defs><g transform="translate(-830 -810)"><g class="a" transform="translate(830 810)"><circle class="c" cx="16.5" cy="16.5" r="16.5"/><circle class="d" cx="16.5" cy="16.5" r="16"/></g><g transform="translate(830 810)"><path class="b" d="M196.254,84.491a.809.809,0,0,1-.528-.2c-.552-.475-1.084-.921-1.553-1.314l0,0a28.7,28.7,0,0,1-3.391-3.13,4.956,4.956,0,0,1-1.354-3.273,4.159,4.159,0,0,1,1.083-2.868,3.7,3.7,0,0,1,2.732-1.17,3.472,3.472,0,0,1,2.146.729,4.346,4.346,0,0,1,.868.891,4.348,4.348,0,0,1,.868-.891,3.473,3.473,0,0,1,2.146-.729A3.7,3.7,0,0,1,202,73.71a4.159,4.159,0,0,1,1.084,2.868,4.955,4.955,0,0,1-1.355,3.273,28.7,28.7,0,0,1-3.391,3.13c-.47.394-1,.84-1.556,1.316A.81.81,0,0,1,196.254,84.491Z" transform="translate(-179.925 -62.04)"/></g></g></svg>