<svg xmlns="http://www.w3.org/2000/svg" width="40" height="40" viewBox="0 0 40 40">
  <g id="Group_13536" data-name="Group 13536" transform="translate(-777 -802)">
    <g id="Group_8198" data-name="Group 8198" transform="translate(780 810)">
      <g id="Ellipse_154" data-name="Ellipse 154" transform="translate(-3 -8)" fill="#03f87e" stroke="#03f87e" stroke-width="1">
        <circle cx="20" cy="20" r="20" stroke="none"/>
        <circle cx="20" cy="20" r="19.5" fill="none"/>
      </g>
      <g id="Group_13538" data-name="Group 13538" transform="translate(-1.5 -6.499)">
        <path id="Path_28266" data-name="Path 28266" d="M198.374,88.2a1.06,1.06,0,0,1-.692-.256c-.723-.622-1.42-1.206-2.035-1.722l0,0a37.613,37.613,0,0,1-4.444-4.1,6.494,6.494,0,0,1-1.775-4.289,5.45,5.45,0,0,1,1.42-3.758,4.851,4.851,0,0,1,3.58-1.533,4.55,4.55,0,0,1,2.812.955,5.7,5.7,0,0,1,1.137,1.167,5.7,5.7,0,0,1,1.137-1.167,4.551,4.551,0,0,1,2.812-.955,4.851,4.851,0,0,1,3.58,1.533,5.45,5.45,0,0,1,1.42,3.758,6.493,6.493,0,0,1-1.775,4.289,37.61,37.61,0,0,1-4.443,4.1c-.617.516-1.314,1.1-2.039,1.724A1.061,1.061,0,0,1,198.374,88.2Z" transform="translate(-179.925 -62.04)" fill="none" stroke="#1d0740" stroke-width="1"/>
      </g>
    </g>
  </g>
</svg>
