<svg xmlns="http://www.w3.org/2000/svg" width="20.086" height="23.808" viewBox="0 0 20.086 23.808"><defs><style>.a{fill:#f6f6f6;}</style></defs><path class="a" d="M6.427,23.808C4.7,23.792,3.388,22.072,2.4,20.543-.357,16.267-.645,11.249,1.056,8.581A6.084,6.084,0,0,1,5.965,5.576C7.79,5.576,8.937,6.6,10.447,6.6c1.464,0,2.356-1.021,4.467-1.021A5.926,5.926,0,0,1,19.4,7.988a5.274,5.274,0,0,0,.682,9.478,17.151,17.151,0,0,1-1.519,2.888c-.986,1.529-2.376,3.433-4.1,3.45a3.8,3.8,0,0,1-1.8-.5,4.677,4.677,0,0,0-2.2-.5c-2.062.012-2.5,1.007-4.008,1.007ZM9.709,5.728a4.9,4.9,0,0,1,1.168-3.77A5.506,5.506,0,0,1,14.45,0a5.279,5.279,0,0,1-1.138,3.865,4.681,4.681,0,0,1-3.5,1.865Z"/></svg>