<svg xmlns="http://www.w3.org/2000/svg" width="27.464" height="27.464" viewBox="0 0 27.464 27.464"><defs><style>.a{fill:#03f87e;}</style></defs><path class="a" d="M18.751,8.714A9.388,9.388,0,1,0,8.715,18.752,9.387,9.387,0,1,0,18.751,8.714ZM1.609,9.387A7.779,7.779,0,0,1,17.14,8.736a9.344,9.344,0,0,0-5.084,2.145L10.2,5.324a.8.8,0,0,0-1.527,0L6.1,13.049a.8.8,0,1,0,1.526.509l.389-1.167h2.595A9.34,9.34,0,0,0,8.736,17.14,7.781,7.781,0,0,1,1.609,9.387Zm8.718,1.394H8.554l.886-2.659Zm7.75,15.073a7.778,7.778,0,1,1,7.778-7.778A7.786,7.786,0,0,1,18.077,25.855Z" transform="translate(0 0)"/><path class="a" d="M23.167,20.846H21.022a.8.8,0,1,0,0,1.609h1.3c-.127,1.381-.576,3.594-1.8,4.575a.8.8,0,1,0,1.005,1.257c2.419-1.936,2.447-6.445,2.447-6.636a.8.8,0,0,0-.8-.8Z" transform="translate(-6.431 -6.631)"/><path class="a" d="M30.29,22.591h-.912v-2.2a.8.8,0,0,0-1.609,0v7.724a.8.8,0,1,0,1.609,0V24.2h.912a.8.8,0,1,0,0-1.609Z" transform="translate(-8.833 -6.231)"/></svg>