<svg xmlns="http://www.w3.org/2000/svg" width="70" height="70" viewBox="0 0 70 70"><defs><style>.a{fill:#160731;stroke:#2d1b4b;}.b{fill:#03f87e;}.c{stroke:none;}.d{fill:none;}</style></defs><g transform="translate(-262 -644)"><g transform="translate(262 644)"><g class="a"><circle class="c" cx="35" cy="35" r="35"/><circle class="d" cx="35" cy="35" r="34.5"/></g></g><path class="b" d="M202.425,95.672a1.525,1.525,0,0,1-1-.378c-1.05-.919-2.063-1.782-2.956-2.543l-.005,0A55,55,0,0,1,192,86.688a9.678,9.678,0,0,1-2.578-6.334,8.127,8.127,0,0,1,2.062-5.55,6.992,6.992,0,0,1,5.2-2.264,6.54,6.54,0,0,1,4.085,1.411,8.35,8.35,0,0,1,1.652,1.724,8.35,8.35,0,0,1,1.652-1.724,6.54,6.54,0,0,1,4.085-1.411,6.992,6.992,0,0,1,5.2,2.264,8.128,8.128,0,0,1,2.063,5.55,9.676,9.676,0,0,1-2.579,6.334,54.99,54.99,0,0,1-6.454,6.059c-.9.762-1.909,1.626-2.962,2.547A1.526,1.526,0,0,1,202.425,95.672Zm-5.737-21.609a5.487,5.487,0,0,0-4.081,1.772,6.613,6.613,0,0,0-1.659,4.518,8.143,8.143,0,0,0,2.228,5.363,54.109,54.109,0,0,0,6.27,5.872l.005,0c.9.765,1.913,1.631,2.972,2.556,1.065-.927,2.082-1.8,2.981-2.561a54.107,54.107,0,0,0,6.27-5.871,8.143,8.143,0,0,0,2.228-5.363,6.613,6.613,0,0,0-1.659-4.518,5.487,5.487,0,0,0-4.081-1.772,5.053,5.053,0,0,0-3.154,1.091,7.4,7.4,0,0,0-1.757,2.034.961.961,0,0,1-1.652,0,7.388,7.388,0,0,0-1.757-2.034A5.053,5.053,0,0,0,196.688,74.064Z" transform="translate(94.575 594.342)"/></g></svg>