<svg xmlns="http://www.w3.org/2000/svg" width="16.438" height="14.625" viewBox="0 0 16.438 14.625"><defs><style>.a{fill:#a89abf;}</style></defs><g transform="translate(-14.143 -14.255)"><g transform="translate(14.143 14.255)"><path class="a" d="M197.644,87.165a.964.964,0,0,1-.635-.239c-.664-.581-1.3-1.127-1.869-1.608l0,0a34.773,34.773,0,0,1-4.081-3.831,6.119,6.119,0,0,1-1.63-4,5.138,5.138,0,0,1,1.3-3.509,4.42,4.42,0,0,1,3.288-1.431,4.135,4.135,0,0,1,2.583.892,5.279,5.279,0,0,1,1.044,1.09,5.279,5.279,0,0,1,1.044-1.09,4.135,4.135,0,0,1,2.583-.892,4.421,4.421,0,0,1,3.288,1.431,5.139,5.139,0,0,1,1.3,3.509,6.117,6.117,0,0,1-1.63,4,34.767,34.767,0,0,1-4.081,3.831c-.566.482-1.207,1.028-1.873,1.61A.965.965,0,0,1,197.644,87.165ZM194.017,73.5a3.469,3.469,0,0,0-2.58,1.121,4.181,4.181,0,0,0-1.049,2.857,5.148,5.148,0,0,0,1.408,3.39,34.209,34.209,0,0,0,3.964,3.712l0,0c.567.483,1.21,1.031,1.879,1.616.673-.586,1.317-1.135,1.885-1.619a34.206,34.206,0,0,0,3.964-3.712,5.148,5.148,0,0,0,1.409-3.39,4.181,4.181,0,0,0-1.049-2.857,3.469,3.469,0,0,0-2.58-1.121,3.194,3.194,0,0,0-1.994.69,4.679,4.679,0,0,0-1.111,1.286.607.607,0,0,1-1.044,0,4.672,4.672,0,0,0-1.111-1.286A3.194,3.194,0,0,0,194.017,73.5Z" transform="translate(-189.425 -72.54)"/></g></g></svg>