<svg xmlns="http://www.w3.org/2000/svg" width="18.036" height="17.285" viewBox="0 0 18.036 17.285"><defs><style>.a{fill:#ff4376;}</style></defs><path class="a" d="M0,17.618A1.67,1.67,0,0,0,.489,18.8a1.866,1.866,0,0,0-.481,1.435,1.942,1.942,0,0,0,1.96,1.7H6.61a10.805,10.805,0,0,0-.6,3.006c0,1.63,1.385,3.006,2.255,3.006a2.36,2.36,0,0,0,1.362-.458A.376.376,0,0,0,9.77,27.2V24.652l2.165-4.689.089-.046v.144a.376.376,0,0,0,.376.376h3.757a1.88,1.88,0,0,0,1.879-1.879V12.546a1.88,1.88,0,0,0-1.879-1.879H13.9a1.883,1.883,0,0,0-1.768,1.242,4.9,4.9,0,0,0-1.989-.491h-6.9a1.729,1.729,0,0,0-1.7,1.312,1.7,1.7,0,0,0,.135,1.13,1.685,1.685,0,0,0-.752,2.255A1.684,1.684,0,0,0,0,17.618Zm1.585-.927a.376.376,0,0,0,.215-.647.931.931,0,0,1,.536-1.607.376.376,0,0,0,.215-.647.929.929,0,0,1-.272-.9.972.972,0,0,1,.969-.723h6.9a3.562,3.562,0,0,1,1.988.642.376.376,0,0,0,.642-.266A1.129,1.129,0,0,1,13.9,11.418h2.255a1.129,1.129,0,0,1,1.127,1.127v6.012a1.129,1.129,0,0,1-1.127,1.127H12.776v-.376a.377.377,0,0,0-.179-.32.384.384,0,0,0-.365-.016l-.751.376a.375.375,0,0,0-.173.178L9.053,24.412a.383.383,0,0,0-.035.158V27a1.585,1.585,0,0,1-.752.2,2.481,2.481,0,0,1-1.5-2.255A11.7,11.7,0,0,1,7.49,21.7a.375.375,0,0,0-.351-.51H1.968A1.186,1.186,0,0,1,.757,20.167,1.123,1.123,0,0,1,1.292,19.1a.376.376,0,0,0-.026-.655.93.93,0,0,1,.319-1.758Z" transform="translate(0 -10.667)"/><g transform="translate(11.885 1.904)"><path class="a" d="M149.809,254.852a.476.476,0,0,0,.476-.476v-8.567a.476.476,0,0,0-.952,0v8.567A.476.476,0,0,0,149.809,254.852Z" transform="translate(-149.333 -245.333)"/></g></svg>