<svg xmlns="http://www.w3.org/2000/svg" width="18.036" height="17.285" viewBox="0 0 18.036 17.285"><defs><style>.a{fill:#03f87e;}</style></defs><g transform="translate(0 0)"><path class="a" d="M18.036,21a1.67,1.67,0,0,0-.489-1.183,1.866,1.866,0,0,0,.481-1.435,1.942,1.942,0,0,0-1.96-1.7H11.426a10.8,10.8,0,0,0,.6-3.006c0-1.63-1.385-3.006-2.255-3.006a2.36,2.36,0,0,0-1.362.458.376.376,0,0,0-.141.294v2.548L6.1,18.655l-.089.046v-.144a.376.376,0,0,0-.376-.376H1.879A1.88,1.88,0,0,0,0,20.061v6.012a1.88,1.88,0,0,0,1.879,1.879H4.133A1.883,1.883,0,0,0,5.9,26.709a4.9,4.9,0,0,0,1.989.491h6.9a1.729,1.729,0,0,0,1.7-1.312,1.7,1.7,0,0,0-.135-1.13,1.685,1.685,0,0,0,.752-2.255A1.684,1.684,0,0,0,18.036,21Zm-1.585.927a.376.376,0,0,0-.215.647.931.931,0,0,1-.536,1.607.376.376,0,0,0-.215.647.929.929,0,0,1,.272.9.972.972,0,0,1-.969.723h-6.9A3.562,3.562,0,0,1,5.9,25.807a.376.376,0,0,0-.642.266A1.129,1.129,0,0,1,4.133,27.2H1.879A1.129,1.129,0,0,1,.751,26.073V20.061a1.129,1.129,0,0,1,1.127-1.127H5.261v.376a.377.377,0,0,0,.179.32.384.384,0,0,0,.365.016l.751-.376a.375.375,0,0,0,.173-.178l2.255-4.885a.383.383,0,0,0,.035-.158V11.622a1.585,1.585,0,0,1,.752-.2,2.481,2.481,0,0,1,1.5,2.255,11.7,11.7,0,0,1-.727,3.248.375.375,0,0,0,.351.51h5.171a1.186,1.186,0,0,1,1.211,1.021,1.123,1.123,0,0,1-.535,1.063.376.376,0,0,0,.026.655.93.93,0,0,1-.319,1.758Z" transform="translate(0 -10.667)"/></g><g transform="translate(5.264 8.422)"><path class="a" d="M149.7,245.333a.369.369,0,0,0-.369.369v6.647a.369.369,0,1,0,.739,0V245.7A.369.369,0,0,0,149.7,245.333Z" transform="translate(-149.333 -245.333)"/></g></svg>