<svg xmlns="http://www.w3.org/2000/svg" width="69" height="69" viewBox="0 0 69 69"><defs><style>.a,.b,.c,.d,.e,.f,.g,.h,.i,.j,.k,.l{fill:#5b4c7b;}.a{opacity:0.4;}.b{opacity:0.5;}.c{opacity:0.6;}.d{opacity:0.65;}.e{opacity:0.7;}.f{opacity:0.8;}.g{opacity:0.85;}.h{opacity:0.9;}.i{opacity:0.95;}.j{opacity:0.1;}.k{opacity:0.2;}.l{opacity:0.3;}</style></defs><rect class="a" width="5.642" height="15.045" transform="translate(31.679)"/><rect class="b" width="5.642" height="15.045" transform="matrix(0.866, -0.5, 0.5, 0.866, 14.847, 5.985)"/><rect class="c" width="5.642" height="15.045" transform="matrix(0.5, -0.866, 0.866, 0.5, 3.15, 19.667)"/><rect class="d" width="15.045" height="5.642" transform="translate(0 31.679)"/><rect class="e" width="15.045" height="5.642" transform="matrix(0.866, -0.5, 0.5, 0.866, 3.168, 49.268)"/><rect class="f" width="15.045" height="5.642" transform="translate(14.782 63.028) rotate(-59.986)"/><rect class="g" width="5.642" height="15.045" transform="translate(31.679 53.955)"/><rect class="h" width="5.642" height="15.045" transform="matrix(0.866, -0.5, 0.5, 0.866, 41.747, 52.806)"/><rect class="i" width="5.642" height="15.045" transform="matrix(0.5, -0.866, 0.866, 0.5, 50.005, 46.694)"/><rect class="j" width="15.045" height="5.642" transform="translate(53.955 31.679)"/><rect class="k" width="15.045" height="5.642" transform="matrix(0.866, -0.5, 0.5, 0.866, 49.988, 22.366)"/><rect class="l" width="15.045" height="5.642" transform="matrix(0.5, -0.866, 0.866, 0.5, 41.814, 16.175)"/></svg>