<svg xmlns="http://www.w3.org/2000/svg" width="188.558" height="44.281" viewBox="0 0 188.558 44.281"><defs><style>.a{fill:#fff;}.b{fill:#ff4376;}.c{fill:#03f87e;}</style></defs><g transform="translate(-307 -5658)"><g transform="translate(168.251 5620)"><g transform="translate(190.638 38)"><path class="a" d="M6.438,8.034a5.71,5.71,0,0,0,5.954-5.868A5.693,5.693,0,0,0,6.438-3.68,5.71,5.71,0,0,0,.462,2.166,5.728,5.728,0,0,0,6.438,8.034Zm0-1.819A3.8,3.8,0,0,1,2.562,2.166,3.782,3.782,0,0,1,6.438-1.861a3.765,3.765,0,0,1,3.854,4.027A3.783,3.783,0,0,1,6.438,6.215ZM23.067-3.572l-4.027,9.2L15.1-3.572H12.934L17.957,7.9h2.122L25.1-3.572ZM37.1,2.231A5.533,5.533,0,0,0,31.425-3.68a5.62,5.62,0,0,0-5.76,5.846c0,3.421,2.468,5.868,6.171,5.868a5.76,5.76,0,0,0,4.525-1.862L35.214,4.829A4.285,4.285,0,0,1,31.9,6.215a3.887,3.887,0,0,1-4.157-3.356h9.311C37.076,2.664,37.1,2.4,37.1,2.231ZM31.425-1.926a3.579,3.579,0,0,1,3.681,3.291H27.744A3.577,3.577,0,0,1,31.425-1.926Zm10.545.281V-3.572H39.977V7.9h2.079V2.188c0-2.512,1.386-3.876,3.616-3.876a3.67,3.67,0,0,1,.476.022V-3.68C44.135-3.68,42.706-2.987,41.97-1.645Zm5.954,4.5h5.824v-1.8H47.924Zm15.048,2.88a2.618,2.618,0,0,1-1.624.541,1.691,1.691,0,0,1-1.8-1.927V-1.861h3.291V-3.572H59.551V-6.083H57.473v2.512H55.524v1.711h1.949v6.3A3.275,3.275,0,0,0,61.11,8.034a3.921,3.921,0,0,0,2.512-.8ZM72.261-3.68a4.976,4.976,0,0,0-4.049,1.732V-8.162H66.134V7.9h2.079V1.993c0-2.49,1.429-3.811,3.638-3.811,1.97,0,3.1,1.1,3.1,3.356V7.9h2.079V1.3C77.025-2.078,75.054-3.68,72.261-3.68ZM91.315,2.231A5.533,5.533,0,0,0,85.642-3.68a5.62,5.62,0,0,0-5.76,5.846c0,3.421,2.468,5.868,6.171,5.868a5.76,5.76,0,0,0,4.525-1.862L89.431,4.829a4.285,4.285,0,0,1-3.313,1.386,3.887,3.887,0,0,1-4.157-3.356h9.311C91.294,2.664,91.315,2.4,91.315,2.231ZM85.642-1.926a3.579,3.579,0,0,1,3.681,3.291H81.961A3.577,3.577,0,0,1,85.642-1.926Zm8.033,4.785H99.5v-1.8H93.675Zm15.048,2.88a2.618,2.618,0,0,1-1.624.541,1.691,1.691,0,0,1-1.8-1.927V-1.861h3.291V-3.572H105.3V-6.083h-2.079v2.512h-1.949v1.711h1.949v6.3a3.275,3.275,0,0,0,3.638,3.594,3.921,3.921,0,0,0,2.512-.8Zm7.687,2.3a5.71,5.71,0,0,0,5.954-5.868,5.966,5.966,0,0,0-11.93,0A5.728,5.728,0,0,0,116.41,8.034Zm0-1.819a3.8,3.8,0,0,1-3.876-4.049,3.868,3.868,0,1,1,7.73,0A3.783,3.783,0,0,1,116.41,6.215Zm14.918-9.9a4.887,4.887,0,0,0-4.092,1.927V-3.572h-1.992V12.1h2.079V6.172a4.9,4.9,0,0,0,4.006,1.862,5.576,5.576,0,0,0,5.8-5.868A5.57,5.57,0,0,0,131.329-3.68Zm-.173,9.9A3.8,3.8,0,0,1,127.3,2.166a3.868,3.868,0,1,1,7.73,0A3.8,3.8,0,0,1,131.155,6.215Z" transform="translate(-0.462 8.162)"/><path class="a" d="M25.393,10.687l7-21.111H27.5L23.1,5.5,18.638-10.424H13.963L9.56,5.5,5.127-10.424H0L6.967,10.687h4.916L16.225-4.362l4.252,15.049Zm27.746-4.1,1.659,4.1h5.1L50.877-10.424H45.961L36.793,10.687h4.916l1.659-4.1ZM51.6,2.755H44.936l3.348-8.2ZM81.79-6.383v-4.041H64.147v4.041h6.424v17.07h4.765V-6.383Zm17.492-4.192C92.888-10.575,88.032-5.991,88.032.1A10.719,10.719,0,0,0,99.1,10.9a12.359,12.359,0,0,0,8.535-3.77l-2.8-3.046a8.146,8.146,0,0,1-5.489,2.473A6.374,6.374,0,0,1,92.918.041a6.349,6.349,0,0,1,6.424-6.484A7.642,7.642,0,0,1,104.831-3.7l2.775-3.378A12.014,12.014,0,0,0,99.281-10.575Zm36.612,21.262V-10.424h-4.765v8.806h-9.56v-8.806H116.8V10.687h4.765V2.363h9.56v8.324Z" transform="translate(0.776 33.383)"/></g><g transform="translate(138.749 41.37)"><path class="b" d="M659.773,378.34l-8.392-4.78a1.406,1.406,0,0,1-.064,2.405l-4.243,2.417a1.389,1.389,0,0,1-1.209.087l5.262,3a3.6,3.6,0,0,1,0,6.251l-10.839,6.173a3.6,3.6,0,0,1-5.378-3.126V378.419a3.6,3.6,0,0,1,5.378-3.126l5.219,2.973a1.39,1.39,0,0,1-.538-1.106v-4.834A1.406,1.406,0,0,1,647,371.068l-8.909-5.074a7.194,7.194,0,0,0-10.755,6.251v24.694a7.2,7.2,0,0,0,10.755,6.252l21.678-12.347A7.2,7.2,0,0,0,659.773,378.34Z" transform="translate(-627.339 -365.04)"/><path class="c" d="M627.34,427.968V438.3l7.57-4.357V423.611Z" transform="translate(-627.339 -408.618)"/><path class="a" d="M695.707,371.69l-10.839-6.174a3.6,3.6,0,0,0-5.378,3.126v12.347a3.6,3.6,0,0,0,5.378,3.126l10.839-6.174A3.6,3.6,0,0,0,695.707,371.69Zm-5.589,4.276-4.243,2.417a1.408,1.408,0,0,1-2.105-1.224v-4.834a1.408,1.408,0,0,1,2.105-1.224l4.243,2.417A1.408,1.408,0,0,1,690.118,375.966Z" transform="translate(-666.141 -365.04)"/><path class="b" d="M640.793,373.067l-1.042-.594-12.412,7.144v10.3l7.57-4.357v-1.608a3.6,3.6,0,0,1,5.378-3.126l.506.288Z" transform="translate(-627.339 -370.57)"/></g></g></g></svg>