<svg xmlns="http://www.w3.org/2000/svg" width="334" height="447" viewBox="0 0 334 447"><defs><style>.a{fill:#403453;}.b,.c{stroke:none;}.c{fill:#6d5986;}</style></defs><g class="a"><path class="b" d="M 314.0001220703125 446.5003051757813 L 19.99978828430176 446.5003051757813 C 17.3670654296875 446.5003051757813 14.81339836120605 445.9848327636719 12.4097318649292 444.9681396484375 C 10.08773231506348 443.9860534667969 8.002287864685059 442.5799865722656 6.211343288421631 440.7889709472656 C 4.420342922210693 438.998046875 3.01428747177124 436.91259765625 2.032176494598389 434.5906066894531 C 1.015509724617004 432.1869201660156 0.5000097751617432 429.6332702636719 0.5000097751617432 427.0005493164063 L 0.5000097751617432 19.99981880187988 C 0.5000097751617432 17.36709785461426 1.015509724617004 14.81343078613281 2.032176494598389 12.40970802307129 C 3.01428747177124 10.08770847320557 4.420342922210693 8.0023193359375 6.211343288421631 6.211319446563721 C 8.002287864685059 4.420319080352783 10.08773231506348 3.01426362991333 12.4097318649292 2.032152652740479 C 14.81339836120605 1.015485882759094 17.3670654296875 0.499985933303833 19.99978828430176 0.499985933303833 L 314.0001220703125 0.499985933303833 C 316.6328430175781 0.499985933303833 319.1865234375 1.015485882759094 321.5901794433594 2.032152652740479 C 323.9121704101563 3.01426362991333 325.9976196289063 4.420319080352783 327.78857421875 6.211319446563721 C 329.5795593261719 8.0023193359375 330.9856262207031 10.08770847320557 331.9677429199219 12.40970802307129 C 332.9844055175781 14.81343078613281 333.4999084472656 17.36709785461426 333.4999084472656 19.99981880187988 L 333.4999084472656 427.0005493164063 C 333.4999084472656 429.6332702636719 332.9844055175781 432.1869201660156 331.9677429199219 434.5906066894531 C 330.9856262207031 436.91259765625 329.5795593261719 438.998046875 327.78857421875 440.7889709472656 C 325.9976196289063 442.5799865722656 323.9121704101563 443.9860534667969 321.5901794433594 444.9681396484375 C 319.1865234375 445.9848327636719 316.6328430175781 446.5003051757813 314.0001220703125 446.5003051757813 Z"/><path class="c" d="M 314.0001220703125 446.0003051757813 C 316.5655517578125 446.0003051757813 319.0536804199219 445.4981079101563 321.3954467773438 444.5076599121094 C 323.6577758789063 443.5507507324219 325.6897888183594 442.1806640625 327.4349975585938 440.4354248046875 C 329.1802368164063 438.6902160644531 330.5503540039063 436.658203125 331.5072326660156 434.3958740234375 C 332.4976806640625 432.0541076660156 332.9999084472656 429.5659790039063 332.9999084472656 427.0005493164063 L 332.9999084472656 19.99981880187988 C 332.9999084472656 17.43437576293945 332.4976806640625 14.94620800018311 331.5072326660156 12.60448551177979 C 330.5503540039063 10.34209728240967 329.1802368164063 8.310096740722656 327.4349975585938 6.564874649047852 C 325.6897888183594 4.819652557373047 323.6577758789063 3.449541568756104 321.3954467773438 2.492652654647827 C 319.0536804199219 1.502208113670349 316.5655517578125 0.999985933303833 314.0001220703125 0.999985933303833 L 19.99978828430176 0.999985933303833 C 17.4343433380127 0.999985933303833 14.94623184204102 1.502208113670349 12.60445404052734 2.492652654647827 C 10.34212112426758 3.449541568756104 8.310120582580566 4.819652557373047 6.564898490905762 6.564874649047852 C 4.819676399230957 8.310096740722656 3.449565410614014 10.34209728240967 2.492676496505737 12.60448551177979 C 1.502231955528259 14.94620800018311 1.000009775161743 17.43437576293945 1.000009775161743 19.99981880187988 L 1.000009775161743 427.0005493164063 C 1.000009775161743 429.5659790039063 1.502231955528259 432.0541076660156 2.492676496505737 434.3958740234375 C 3.449565410614014 436.658203125 4.819676399230957 438.6902160644531 6.564898490905762 440.4354248046875 C 8.310120582580566 442.1806640625 10.34212112426758 443.5507507324219 12.60445404052734 444.5076599121094 C 14.94623184204102 445.4981079101563 17.4343433380127 446.0003051757813 19.99978828430176 446.0003051757813 L 314.0001220703125 446.0003051757813 M 314.0001220703125 447.0003051757813 L 19.99978828430176 447.0003051757813 C 8.954120635986328 447.0003051757813 9.779188076208811e-06 438.0462036132813 9.779188076208811e-06 427.0005493164063 L 9.779188076208811e-06 19.99981880187988 C 9.779188076208811e-06 8.954096794128418 8.954120635986328 -1.407877607562114e-05 19.99978828430176 -1.407877607562114e-05 L 314.0001220703125 -1.407877607562114e-05 C 325.0457763671875 -1.407877607562114e-05 333.9999084472656 8.954096794128418 333.9999084472656 19.99981880187988 L 333.9999084472656 427.0005493164063 C 333.9999084472656 438.0462036132813 325.0457763671875 447.0003051757813 314.0001220703125 447.0003051757813 Z"/></g></svg>