<svg xmlns="http://www.w3.org/2000/svg" width="111.913" height="26.281" viewBox="0 0 111.913 26.281"><defs><style>.a{fill:#fff;}.b{fill:#ff4376;}.c{fill:#03f87e;}</style></defs><g transform="translate(-306.956 -5658)"><g transform="translate(306.956 5658)"><g transform="translate(30.917 0)"><path class="a" d="M4,1.488a3.393,3.393,0,0,0,3.529-3.5A3.382,3.382,0,0,0,4-5.492,3.393,3.393,0,0,0,.462-2.008,3.4,3.4,0,0,0,4,1.488ZM4,.4a2.258,2.258,0,0,1-2.3-2.412A2.248,2.248,0,0,1,4-4.408a2.238,2.238,0,0,1,2.284,2.4A2.249,2.249,0,0,1,4,.4Zm9.855-5.831L11.472.056,9.137-5.427H7.853L10.83,1.411h1.258l2.977-6.838ZM22.174-1.97a3.289,3.289,0,0,0-3.362-3.522A3.34,3.34,0,0,0,15.4-2.008a3.413,3.413,0,0,0,3.657,3.5A3.4,3.4,0,0,0,21.738.378l-.68-.8A2.533,2.533,0,0,1,19.094.4a2.307,2.307,0,0,1-2.464-2h5.518C22.161-1.712,22.174-1.866,22.174-1.97ZM18.812-4.447a2.125,2.125,0,0,1,2.181,1.961H16.631A2.124,2.124,0,0,1,18.812-4.447Zm6.249.168V-5.427H23.881V1.411h1.232V-2A2.035,2.035,0,0,1,27.256-4.3a2.164,2.164,0,0,1,.282.013v-1.2A2.592,2.592,0,0,0,25.061-4.279ZM28.59-1.6h3.452V-2.666H28.59ZM37.508.12a1.546,1.546,0,0,1-.962.323A1,1,0,0,1,35.481-.705v-3.7h1.95V-5.427h-1.95v-1.5H34.249v1.5H33.094v1.019h1.155V-.654A1.946,1.946,0,0,0,36.4,1.488a2.316,2.316,0,0,0,1.489-.477Zm5.505-5.612a2.942,2.942,0,0,0-2.4,1.032v-3.7H39.382V1.411h1.232V-2.111A2.026,2.026,0,0,1,42.77-4.382c1.168,0,1.835.658,1.835,2V1.411h1.232V-2.524A2.642,2.642,0,0,0,43.013-5.492ZM54.306-1.97a3.289,3.289,0,0,0-3.362-3.522A3.34,3.34,0,0,0,47.53-2.008a3.413,3.413,0,0,0,3.657,3.5A3.4,3.4,0,0,0,53.869.378l-.68-.8A2.533,2.533,0,0,1,51.226.4a2.307,2.307,0,0,1-2.464-2H54.28C54.293-1.712,54.306-1.866,54.306-1.97ZM50.944-4.447a2.125,2.125,0,0,1,2.181,1.961H48.762A2.124,2.124,0,0,1,50.944-4.447ZM55.7-1.6h3.452V-2.666H55.7ZM64.623.12a1.546,1.546,0,0,1-.962.323A1,1,0,0,1,62.6-.705v-3.7h1.95V-5.427H62.6v-1.5H61.363v1.5H60.209v1.019h1.155V-.654a1.946,1.946,0,0,0,2.156,2.142,2.316,2.316,0,0,0,1.489-.477Zm4.555,1.368a3.393,3.393,0,0,0,3.529-3.5,3.382,3.382,0,0,0-3.529-3.483,3.393,3.393,0,0,0-3.542,3.483A3.4,3.4,0,0,0,69.178,1.488Zm0-1.084a2.258,2.258,0,0,1-2.3-2.412,2.248,2.248,0,0,1,2.3-2.4,2.238,2.238,0,0,1,2.284,2.4A2.249,2.249,0,0,1,69.178.4Zm8.841-5.9a2.891,2.891,0,0,0-2.425,1.148V-5.427H74.414v9.34h1.232V.378A2.9,2.9,0,0,0,78.02,1.488a3.313,3.313,0,0,0,3.439-3.5A3.31,3.31,0,0,0,78.02-5.492Zm-.1,5.9a2.256,2.256,0,0,1-2.284-2.412,2.252,2.252,0,0,1,2.284-2.4,2.255,2.255,0,0,1,2.3,2.4A2.258,2.258,0,0,1,77.917.4Z" transform="translate(-0.462 8.162)"/><path class="a" d="M15.049,2.093,19.2-10.485H16.3L13.69-1l-2.645-9.488H8.275L5.666-1,3.038-10.485H0L4.129,2.093H7.042L9.616-6.873l2.52,8.967ZM31.492-.351l.983,2.444H35.5L30.151-10.485H27.238L21.8,2.093h2.913L25.7-.351ZM30.58-2.633H26.63L28.614-7.52ZM48.471-8.077v-2.408H38.015v2.408h3.807V2.093h2.824V-8.077Zm10.366-2.5A6.381,6.381,0,0,0,52.17-4.214,6.369,6.369,0,0,0,58.73,2.219,7.306,7.306,0,0,0,63.788-.027L62.125-1.842A4.816,4.816,0,0,1,58.873-.369,3.788,3.788,0,0,1,55.066-4.25a3.773,3.773,0,0,1,3.807-3.863,4.52,4.52,0,0,1,3.253,1.635L63.77-8.491A7.1,7.1,0,0,0,58.837-10.575Zm21.7,12.668V-10.485H77.71v5.247H72.045v-5.247H69.221V2.093h2.824V-2.866H77.71V2.093Z" transform="translate(0.462 24.062)"/></g><g transform="translate(0 2.008)"><path class="b" d="M646.664,372.93l-5-2.836a.832.832,0,0,1-.038,1.427l-2.528,1.434a.831.831,0,0,1-.721.051l3.135,1.778a2.129,2.129,0,0,1,0,3.708l-6.458,3.662a2.143,2.143,0,0,1-3.2-1.854v-7.324a2.143,2.143,0,0,1,3.2-1.854l3.11,1.764a.823.823,0,0,1-.321-.656v-2.868a.838.838,0,0,1,1.213-.746l-5.308-3.01a4.287,4.287,0,0,0-6.408,3.708v14.649a4.287,4.287,0,0,0,6.408,3.709l12.916-7.325A4.259,4.259,0,0,0,646.664,372.93Z" transform="translate(-627.339 -365.04)"/><path class="c" d="M627.34,426.207v6.155l4.51-2.6v-6.155Z" transform="translate(-627.339 -414.74)"/><path class="a" d="M689.152,369l-6.458-3.678a2.143,2.143,0,0,0-3.2,1.862v7.357a2.143,2.143,0,0,0,3.2,1.862l6.458-3.678A2.143,2.143,0,0,0,689.152,369Zm-3.33,2.547-2.528,1.44a.839.839,0,0,1-1.254-.729v-2.88a.839.839,0,0,1,1.254-.729l2.528,1.44A.839.839,0,0,1,685.822,371.549Z" transform="translate(-671.536 -365.04)"/><path class="b" d="M635.355,372.827l-.621-.354-7.4,4.256v6.139l4.511-2.6v-.958a2.143,2.143,0,0,1,3.2-1.863l.3.172Z" transform="translate(-627.339 -371.339)"/></g></g></g></svg>