<svg xmlns="http://www.w3.org/2000/svg" width="107.614" height="29.083" viewBox="0 0 107.614 29.083"><defs><style>.a{fill:#d81f26;}</style></defs><path class="a" d="M14.8,27.209c-1.619.284-3.266.37-4.97.6l-5.2-15.223V28.459c-1.619.17-3.1.4-4.629.625V0H4.317l5.907,16.5V0H14.8Zm8.947-16.558c1.761,0,4.459-.085,6.078-.085V15.11c-2.017,0-4.374,0-6.078.085v6.76c2.67-.17,5.34-.4,8.038-.483v4.374L19.2,26.839V0H31.782V4.544H23.744ZM48.681,4.544H43.966v20.9c-1.534,0-3.067,0-4.544.057V4.544H34.707V0H48.681V4.544Zm7.384,5.794h6.22v4.544h-6.22v10.31H51.606V0H64.3V4.544H56.065ZM71.686,21.216c2.585.057,5.2.256,7.725.4V26.1c-4.061-.256-8.123-.511-12.269-.6V0h4.544Zm11.559,5.2c1.448.085,2.982.171,4.459.341V0H83.245ZM107.614,0l-5.766,13.832,5.766,15.252c-1.7-.227-3.408-.54-5.113-.824l-3.266-8.407-3.323,7.725c-1.648-.284-3.238-.37-4.885-.6l5.851-13.32L91.6,0h4.885l2.982,7.64L102.644,0Z"/></svg>