<svg xmlns="http://www.w3.org/2000/svg" width="244.54" height="55.776" viewBox="0 0 244.54 55.776"><defs><style>.a{fill:#03f87e;}.b{fill:#6804bf;}.c{fill:#ff5082;}.d{fill:#fff;}</style></defs><g transform="translate(-75.297 -89.461)"><g transform="translate(75.298 89.461)"><path class="a" d="M102.916,95.685a23.713,23.713,0,0,0-7.682-1.773,24.653,24.653,0,0,0-7.771.913,22.977,22.977,0,0,0-7.066,3.17,10.779,10.779,0,0,0-2.691,2.588,4.508,4.508,0,0,0-.874,3.242,6.285,6.285,0,0,0,1.611,3.087c.2.231.416.456.642.677l.345.331c.117.11.229.194.342.292s.222.195.343.281l.371.253a7.747,7.747,0,0,0,.777.463,18.738,18.738,0,0,0,7.289,1.763,47.98,47.98,0,0,0,7.764-.159q1.943-.183,3.878-.479c.644-.1,1.287-.2,1.927-.319l.956-.181.475-.1.235-.05.115-.025.058-.013.058-.011.093-.014c.062-.008.124-.013.186-.016l-.3.033a160.892,160.892,0,0,0,47.17-19.808,2.457,2.457,0,0,1,2.6,4.169c-.026.016-.051.032-.077.046l-.011.007A164.744,164.744,0,0,1,104.6,112.382l-.3.034a1.054,1.054,0,0,0,.125,0l.062-.007c.024,0,.043-.009.028-.006l-.065.012-.129.022-.254.044-.505.081-1.007.148c-.67.095-1.341.176-2.013.252q-2.014.222-4.04.332a50.277,50.277,0,0,1-8.144-.166,27.933,27.933,0,0,1-4.066-.738,15.877,15.877,0,0,1-3.921-1.573,9.519,9.519,0,0,1-.909-.593l-.437-.326c-.144-.112-.275-.243-.413-.365s-.278-.25-.4-.371l-.357-.373c-.239-.254-.471-.522-.7-.8a7.836,7.836,0,0,1-1.828-3.974,5.393,5.393,0,0,1,.243-2.272,6.861,6.861,0,0,1,1.035-1.95A12.008,12.008,0,0,1,79.732,97a23.977,23.977,0,0,1,7.521-3.024,25.121,25.121,0,0,1,8.018-.537,22.919,22.919,0,0,1,3.934.774A24.018,24.018,0,0,1,102.916,95.685Z" transform="translate(-75.298 -89.461)"/><path class="b" d="M92.967,135.259a38.779,38.779,0,0,1-9.656-4.776c-1.179-4.162-2.864-10.223-4.312-15.459,3.3,2.3,8.072,3.317,12.986,3.645a.588.588,0,0,1,.549.54l1.211,15.446A.591.591,0,0,1,92.967,135.259Z" transform="translate(-75.305 -89.512)"/><path class="a" d="M118.478,116.68l-3.525,20.88a.6.6,0,0,1-.593.493,86.817,86.817,0,0,1-15.9-1.388.589.589,0,0,1-.472-.567l-.354-16.733a.59.59,0,0,1,.574-.6,94.632,94.632,0,0,0,14.458-1.626c1.6-.329,3.293-.7,5.094-1.131A.592.592,0,0,1,118.478,116.68Z" transform="translate(-75.342 -89.514)"/><path class="b" d="M129.268,137.555c-3.319.218-6.376.357-9.2.429a.589.589,0,0,1-.584-.733l5.664-22.86a.582.582,0,0,1,.408-.423,214.928,214.928,0,0,0,26.957-9.677" transform="translate(-75.385 -89.491)"/><g transform="translate(0.094 14.18)"><path class="a" d="M122.077,145.266c-1.351,0-2.709-.024-4.053-.072-1.636-.06-4.9-.219-8.4-.621-16.873-1.934-25.2-7.868-25.828-10.017-.258-.883-.647-2.248-1.121-3.918L78.36,115.176c-1.621-5.852-2.945-10.676-2.945-10.676a.657.657,0,1,1,1.266-.348s1.323,4.822,2.944,10.673l4.31,15.458c.473,1.664.859,3.024,1.118,3.905.456,1.558,8.758,7.251,24.717,9.081,3.586.411,7,.565,8.3.613,2.007.072,4.041.09,6.044.053a.656.656,0,1,1,.024,1.312C123.455,145.26,122.767,145.266,122.077,145.266Z" transform="translate(-75.391 -103.669)"/></g><path class="a" d="M93.243,109.086c-8.826,0-15.74-3.45-15.74-7.855s6.913-7.855,15.74-7.855,15.74,3.451,15.74,7.855S102.069,109.086,93.243,109.086Zm0-14.4c-7.819,0-14.426,3-14.426,6.542s6.607,6.543,14.426,6.543,14.426-3,14.426-6.543S101.063,94.688,93.243,94.688Z" transform="translate(-75.302 -89.469)"/><ellipse class="c" cx="11.508" cy="5.241" rx="11.508" ry="5.241" transform="translate(6.583 4.921)"/></g><g transform="translate(152.667 107.577)"><path class="d" d="M159.7,136.6a12.076,12.076,0,0,1-5.091-4.586,12.716,12.716,0,0,1-1.788-6.732,17.835,17.835,0,0,1,2.335-9.088,16.413,16.413,0,0,1,6.521-6.31,19.653,19.653,0,0,1,9.53-2.272,17.257,17.257,0,0,1,7.763,1.641,12.092,12.092,0,0,1,5.091,4.587,12.713,12.713,0,0,1,1.788,6.732,17.822,17.822,0,0,1-2.335,9.087,16.436,16.436,0,0,1-6.521,6.311,19.655,19.655,0,0,1-9.53,2.271A17.252,17.252,0,0,1,159.7,136.6Zm13.358-6.647a9.192,9.192,0,0,0,3.24-3.724,11.621,11.621,0,0,0,1.136-5.155,6.37,6.37,0,0,0-1.83-4.775,7,7,0,0,0-5.112-1.788,8.657,8.657,0,0,0-4.88,1.388,9.185,9.185,0,0,0-3.24,3.724,11.623,11.623,0,0,0-1.136,5.154,6.372,6.372,0,0,0,1.829,4.775,7.007,7.007,0,0,0,5.113,1.788A8.66,8.66,0,0,0,173.059,129.954Z" transform="translate(-152.821 -107.613)"/><path class="d" d="M194.243,114.809H185.2l1.345-6.606h26.38l-1.346,6.606h-9l-4.586,22.845h-8.33Z" transform="translate(-152.885 -107.614)"/><path class="d" d="M221.434,114.809h-9.045l1.345-6.606h26.379l-1.345,6.606h-9l-4.586,22.845h-8.33Z" transform="translate(-152.939 -107.614)"/><g transform="translate(79.806 3.041)"><path class="d" d="M254.09,118.7a8.074,8.074,0,0,1,3.074,3.112,9.44,9.44,0,0,1,1.165,4.766,11.874,11.874,0,0,1-1.437,5.84A10.794,10.794,0,0,1,253,136.508,10.143,10.143,0,0,1,247.631,138q-4.293,0-6.04-2.693l-1.892,9.424h-6.913l5.348-26.781h6.55l-.4,1.855A8.12,8.12,0,0,1,250,117.624,8.235,8.235,0,0,1,254.09,118.7Zm-4.058,12.209a5.883,5.883,0,0,0,1.31-3.967,3.776,3.776,0,0,0-1-2.765,3.67,3.67,0,0,0-2.746-1.019,4.25,4.25,0,0,0-3.384,1.528,5.936,5.936,0,0,0-1.31,4,3.462,3.462,0,0,0,3.749,3.749A4.252,4.252,0,0,0,250.033,130.906Z" transform="translate(-232.786 -110.674)"/><path class="d" d="M264.2,110.66h6.914l-5.385,27h-6.914Z" transform="translate(-232.838 -110.66)"/><path class="d" d="M295.01,117.951l-3.93,19.722h-6.549l.4-1.855A8.128,8.128,0,0,1,279.217,138a8.223,8.223,0,0,1-4.093-1.073,8.063,8.063,0,0,1-3.075-3.112,9.5,9.5,0,0,1-1.165-4.8,11.8,11.8,0,0,1,1.437-5.8,10.811,10.811,0,0,1,3.894-4.093,10.137,10.137,0,0,1,5.367-1.492q4.292,0,6.04,2.693l.472-2.365ZM285,130.906a5.881,5.881,0,0,0,1.309-3.967,3.771,3.771,0,0,0-1-2.765,3.672,3.672,0,0,0-2.747-1.019,4.25,4.25,0,0,0-3.384,1.528,5.937,5.937,0,0,0-1.31,4,3.462,3.462,0,0,0,3.748,3.749A4.256,4.256,0,0,0,285,130.906Z" transform="translate(-232.862 -110.674)"/><path class="d" d="M320.268,117.952l-12.626,20.595a21.08,21.08,0,0,1-3,3.912,8.818,8.818,0,0,1-3.038,2,11.259,11.259,0,0,1-6.859.127,6.957,6.957,0,0,1-2.456-1.237l3.093-4.876a4.543,4.543,0,0,0,3.057,1.128,2.92,2.92,0,0,0,1.6-.418,4.881,4.881,0,0,0,1.309-1.364l-4.475-19.867h6.877l2.474,12.117,7.277-12.117Z" transform="translate(-232.904 -110.674)"/></g></g></g></svg>