<svg xmlns="http://www.w3.org/2000/svg" width="31.546" height="31.546" viewBox="0 0 31.546 31.546"><defs><style>.a{fill:#fff;}</style></defs><g transform="translate(-342.121 160.531)"><g transform="translate(342.121 -160.531)"><g transform="translate(0)"><path class="a" d="M31.081,22.544c-3.71-3.711-4.269-5.574-4.269-11.5a11.039,11.039,0,1,0-22.078,0c0,3.2-.085,4.39-.525,5.856A13.529,13.529,0,0,1,.465,22.544,1.578,1.578,0,0,0,1.58,25.237h8.753l-.08.789a5.52,5.52,0,1,0,11.039,0l-.08-.789h8.753A1.577,1.577,0,0,0,31.081,22.544ZM15.774,29.969a3.943,3.943,0,0,1-3.942-3.943l.08-.789h7.725l.081.789A3.944,3.944,0,0,1,15.774,29.969ZM1.581,23.659c4.731-4.732,4.731-7.886,4.731-12.618a9.462,9.462,0,1,1,18.924,0c0,4.732,0,7.886,4.731,12.618Z" transform="translate(0 0)"/></g></g></g></svg>