<svg xmlns="http://www.w3.org/2000/svg" xmlns:xlink="http://www.w3.org/1999/xlink" width="203" height="203" viewBox="0 0 203 203"><defs><style>.a{fill:none;}.b{fill:#6904b2;}.c{fill:#440284;opacity:0.63;}.d{fill:#77f5f7;}.ae,.e{fill:#1c0477;}.f{fill:#ff5082;}.g{fill:#d10554;}.h{clip-path:url(#a);}.ac,.i{fill:#bc84f7;}.i{opacity:0.35;}.j{fill:#3b0377;opacity:0.51;}.k{fill:#4e048e;}.l{fill:#03f87e;}.m{fill:#83fcbd;}.n{fill:#fefefe;}.o{fill:#ddd8d0;}.p{fill:#ffe25a;}.q{fill:#ffdf8f;}.r{fill:#f90;}.s{fill:#20a8ec;}.t{fill:#61c9f7;}.u{fill:#06c;}.v{fill:#20a8f0;}.w{fill:#ffc927;}.x{fill:#25a0f9;}.y{fill:#261a91;}.aa,.z{fill:#acd5f9;}.aa{stroke-linecap:round;stroke-linejoin:round;opacity:0.53;}.ab{fill:#fafafc;}.ac{opacity:0.52;}.ad,.ae{stroke:none;}</style><clipPath id="a"><ellipse class="a" cx="101.5" cy="101.5" rx="101.5" ry="101.5"/></clipPath></defs><g transform="translate(-1970.297 -314.522)"><ellipse class="b" cx="101.5" cy="101.5" rx="101.5" ry="101.5" transform="translate(1970.297 314.523)"/><g transform="translate(1985.592 407.107)"><path class="c" d="M2059.32,441.52l-75.84-25.054a2.1,2.1,0,0,1-.548-3.714l25.487-17.878a9.274,9.274,0,0,1,8.236-1.214l75.324,24.884a2.1,2.1,0,0,1,.547,3.714l-25.933,18.191A8.186,8.186,0,0,1,2059.32,441.52Z" transform="translate(-1982.037 -382.636)"/><g transform="translate(1.43 4.276)"><path class="d" d="M2062.737,444.347a9.2,9.2,0,0,1-3.7-.773l-73.2-31.956a3.154,3.154,0,0,1-.3-5.63l27.029-15.447a10.323,10.323,0,0,1,9.257-.5l72.7,31.737a3.156,3.156,0,0,1,.3,5.632l-27.5,15.716A9.267,9.267,0,0,1,2062.737,444.347Z" transform="translate(-1982.89 -388.126)"/><path class="e" d="M2017.934,390.48a9.272,9.272,0,0,1,3.71.774l72.7,31.739a2.1,2.1,0,0,1,.2,3.749l-27.5,15.716a8.19,8.19,0,0,1-7.339.395L1986.5,410.9a2.1,2.1,0,0,1-.2-3.749l27.03-15.445a9.278,9.278,0,0,1,4.6-1.222m0-2.109h0a11.406,11.406,0,0,0-5.649,1.5l-27.029,15.447a4.21,4.21,0,0,0,.405,7.513l73.2,31.956a10.3,10.3,0,0,0,9.231-.5l27.5-15.718a4.21,4.21,0,0,0-.405-7.513l-72.7-31.737a11.3,11.3,0,0,0-4.554-.951Z" transform="translate(-1983.135 -388.371)"/></g><g transform="translate(3.096)"><path class="f" d="M2062.054,439.727a9,9,0,0,1-3.615-.756l-71.353-31.15a3.1,3.1,0,0,1-.3-5.537l26.348-15.056a10.1,10.1,0,0,1,9.049-.487l70.866,30.937a3.1,3.1,0,0,1,.3,5.535l-26.809,15.32A9.057,9.057,0,0,1,2062.054,439.727Z" transform="translate(-1984.169 -384.844)"/><path class="e" d="M2018.388,387.2a9.027,9.027,0,0,1,3.618.756l70.868,30.937a2.048,2.048,0,0,1,.2,3.654l-26.81,15.32a7.983,7.983,0,0,1-7.154.384l-71.355-31.15a2.048,2.048,0,0,1-.2-3.654L2013.9,388.39a9.03,9.03,0,0,1,4.486-1.192m0-2.109h0a11.175,11.175,0,0,0-5.534,1.47l-26.346,15.057a4.156,4.156,0,0,0,.4,7.418l71.353,31.15a10.094,10.094,0,0,0,9.046-.487l26.808-15.32a4.156,4.156,0,0,0-.4-7.418l-70.868-30.937a11.084,11.084,0,0,0-4.459-.932Z" transform="translate(-1984.414 -385.089)"/></g><path class="g" d="M2047.873,433.149l-53.7-23.19a2.048,2.048,0,0,1-.2-3.654l25.656-15.749a9.043,9.043,0,0,1,8.1-.436l53.909,23.669a2.047,2.047,0,0,1,.2,3.654l-26.808,15.32A7.983,7.983,0,0,1,2047.873,433.149Z" transform="translate(-1978.737 -383.795)"/><g transform="translate(19.348 8.349)"><line class="f" y1="4.613" x2="7.59" transform="translate(1.055 1.055)"/><path class="e" d="M1997.945,398.221a1.055,1.055,0,0,1-.548-1.957l7.589-4.613a1.055,1.055,0,0,1,1.1,1.8l-7.59,4.613A1.052,1.052,0,0,1,1997.945,398.221Z" transform="translate(-1996.89 -391.498)"/></g><g transform="translate(87.555 38.009)"><ellipse class="g" cx="4.608" cy="2.726" rx="4.608" ry="2.726" transform="translate(1.054 1.054)"/><path class="e" d="M2054.909,416.374c1.962,0,3.552.748,3.552,1.671s-1.59,1.671-3.552,1.671-3.554-.749-3.554-1.671,1.59-1.671,3.554-1.671m0-2.109c-3.335,0-5.663,1.554-5.663,3.781s2.328,3.779,5.663,3.779,5.662-1.554,5.662-3.779-2.328-3.781-5.662-3.781Z" transform="translate(-2049.246 -414.265)"/></g></g><g transform="translate(1970.297 314.523)"><g class="h" transform="translate(0)"><path class="i" d="M2036.98,333.691c-14.921-6.3-24.529,9.447-24.529,9.447s-9.791-15.633-24.639-9.163-12.969,29.8-.241,38.948c8.367,6.017,25.149,17.269,25.149,17.269s16.652-11.445,24.948-17.556C2050.291,363.34,2051.9,339.992,2036.98,333.691Z" transform="translate(-1968.119 -309.056)"/><path class="j" d="M2139.664,329.7c-21.611-9.122-35.528,13.682-35.528,13.682s-14.18-22.642-35.685-13.271-18.784,43.16-.349,56.41c12.118,8.714,36.425,25.011,36.425,25.011s24.116-16.576,36.131-25.426C2158.943,372.642,2161.276,338.827,2139.664,329.7Z" transform="translate(-1944.638 -310.496)"/><ellipse class="k" cx="39.469" cy="13.402" rx="39.469" ry="13.402" transform="translate(122.873 152.892)"/></g></g><g transform="translate(2008.509 397.931)"><path class="l" d="M2017.331,407.34a1.044,1.044,0,0,1-.587-.179c-.076-.051-7.654-5.133-11.412-7.835a13.084,13.084,0,0,1-5-11.755,9.027,9.027,0,0,1,8.968-8.494c3.808,0,6.562,2.565,7.9,4.145,1.328-1.61,4.087-4.238,7.946-4.238a9.19,9.19,0,0,1,3.577.757,9.094,9.094,0,0,1,5.391,7.635,13.083,13.083,0,0,1-4.865,11.812c-3.725,2.744-11.243,7.913-11.319,7.965A1.051,1.051,0,0,1,2017.331,407.34Z" transform="translate(-1999.208 -377.932)"/><path class="e" d="M2025.389,380.286a8.084,8.084,0,0,1,3.167.674c6.753,2.852,6.024,13.418.311,17.626-3.754,2.766-11.291,7.945-11.291,7.945s-7.6-5.092-11.383-7.815c-5.76-4.141-6.611-14.7.11-17.629a8.072,8.072,0,0,1,3.244-.71c4.864,0,7.907,4.858,7.907,4.858s3.02-4.949,7.935-4.949m0-2.109a10.361,10.361,0,0,1-15.843.091,10.084,10.084,0,0,0-10.017,9.437,14.167,14.167,0,0,0,5.433,12.723c3.773,2.712,11.128,7.646,11.439,7.855a2.11,2.11,0,0,0,2.37-.014c.309-.212,7.608-5.231,11.347-7.986A14.166,14.166,0,0,0,2035.4,387.5a10.124,10.124,0,0,0-6.028-8.483,10.241,10.241,0,0,0-3.988-.839Z" transform="translate(-1999.453 -378.177)"/><path class="m" d="M2032.17,384.693a7.436,7.436,0,0,0-3.508-3.029c-6.753-2.85-11.1,4.278-11.1,4.278s-4.428-7.079-11.147-4.147c-4.872,2.121-5.766,8.25-3.7,13.042-2.792-4.91-2.188-11.937,3.1-14.24,6.72-2.927,11.153,4.147,11.153,4.147s4.349-7.125,11.1-4.273A7.54,7.54,0,0,1,2032.17,384.693Z" transform="translate(-1998.962 -377.687)"/></g><g transform="translate(2053.793 374.009)"><g transform="translate(47.996 70.045)"><path class="n" d="M2089.425,434.366a4.509,4.509,0,0,1-2.2-.577l-13.654-7.685a4.513,4.513,0,0,1-1.717-6.137l2.859-5.079a1.057,1.057,0,0,1,1.281-.473l5.305,1.944a1.055,1.055,0,0,1,.556,1.507l-1.684,3a.7.7,0,0,0,.263.943l6.908,3.887a.7.7,0,0,0,.937-.262l2.6-4.621a1.057,1.057,0,0,1,1.282-.473l5.3,1.944a1.053,1.053,0,0,1,.555,1.507l-4.66,8.284a4.52,4.52,0,0,1-3.936,2.294Z" transform="translate(-2070.219 -413.296)"/><path class="e" d="M2075.875,415.65l5.3,1.944-1.683,3a1.753,1.753,0,0,0,.662,2.378l6.911,3.887a1.749,1.749,0,0,0,2.375-.667l2.6-4.617,5.306,1.944-4.66,8.284a3.462,3.462,0,0,1-3.018,1.756,3.425,3.425,0,0,1-1.684-.442l-13.654-7.683a3.459,3.459,0,0,1-1.314-4.7l2.858-5.08m0-2.109a2.11,2.11,0,0,0-1.838,1.075l-2.858,5.081a5.567,5.567,0,0,0,2.118,7.572l13.655,7.685a5.566,5.566,0,0,0,7.571-2.117l4.662-8.285a2.11,2.11,0,0,0-1.113-3.015l-5.3-1.944a2.107,2.107,0,0,0-2.563.946l-2.422,4.3-6.273-3.528,1.509-2.684a2.109,2.109,0,0,0-1.114-3.013l-5.3-1.944a2.107,2.107,0,0,0-.726-.129Z" transform="translate(-2070.464 -413.541)"/></g><path class="o" d="M2087.532,419.706l-2.169,3.853,1.421.519,3.883,1.424,2.169-3.853Z" transform="translate(-2017.958 -341.629)"/><path class="o" d="M2072.953,419.013l1.42.519,4.152,1.524a1.664,1.664,0,0,1,.218-.955l1.683-3-5.3-1.944Z" transform="translate(-2021.715 -343.005)"/><path class="o" d="M2085.363,423.559l1.421.519,3.883,1.424,2.169-3.853-5.3-1.943Z" transform="translate(-2017.958 -341.629)"/><path class="o" d="M2072.953,419.013l1.42.519,4.152,1.524a1.664,1.664,0,0,1,.218-.955l1.683-3-5.3-1.944Z" transform="translate(-2021.715 -343.005)"/><g transform="translate(41.791 33.664)"><path class="p" d="M2104.789,435.074a1.032,1.032,0,0,1-.364-.065l-6.245-2.293-21.472-7.866-9.506-3.485a1.054,1.054,0,0,1,.034-1.992c25.644-8.438,23.9-30.849,23.815-31.8a1.054,1.054,0,0,1,1.894-.728l23.6,31.558a1.037,1.037,0,0,1,.209.651,18.7,18.7,0,0,1-11.535,15.927A1.065,1.065,0,0,1,2104.789,435.074Z" transform="translate(-2065.456 -385.369)"/><path class="e" d="M2092.347,387.723l23.6,31.556a17.8,17.8,0,0,1-10.911,14.985l-6.246-2.294-5.3-1.944-10.864-3.979-5.3-1.944-9.506-3.485c26.667-8.775,24.582-32.4,24.537-32.9m0-2.109a2.132,2.132,0,0,0-.756.139,2.11,2.11,0,0,0-1.343,2.163c.083.916,1.774,22.518-23.095,30.7a2.109,2.109,0,0,0-.068,3.984l9.506,3.485,5.305,1.944,10.865,3.98,5.3,1.942,6.243,2.293a2.1,2.1,0,0,0,1.588-.053,19.792,19.792,0,0,0,12.16-16.869,2.105,2.105,0,0,0-.419-1.3l-23.6-31.557a2.107,2.107,0,0,0-1.689-.845Z" transform="translate(-2065.702 -385.614)"/></g><path class="q" d="M2086.163,387.233a24.647,24.647,0,0,1-.034,3.787l23.1,30.9a14.159,14.159,0,0,0,.53-3.128Z" transform="translate(-2017.726 -351.46)"/><path class="r" d="M2067.321,413.069l9.506,3.485,5.3,1.944,10.864,3.978,5.3,1.944,6.246,2.294a19.958,19.958,0,0,0,4.811-3l-1.461-.535-6.246-2.294-5.3-1.942-10.863-3.98-5.3-1.944-6.7-2.458h0A45.318,45.318,0,0,1,2067.321,413.069Z" transform="translate(-2023.42 -344.399)"/><g transform="translate(75.522 61.152)"><path class="s" d="M2106.793,431.942h-.106l-.156-.008-.159-.056-12.628-4.626,2.372-1.059a16.613,16.613,0,0,0,10.288-14.046l.076-3.043,7.162,9.573.037.069c.127.233,3.054,5.769-.155,9.618a9.091,9.091,0,0,1-6.727,3.58Z" transform="translate(-2090.943 -405.991)"/><path class="e" d="M2108.107,412.892l5.292,7.075s2.753,5.1-.036,8.442a8.065,8.065,0,0,1-5.918,3.2h-.059l-10.189-3.732a17.8,17.8,0,0,0,10.911-14.985m-1.986-6.178-.121,6.129a15.618,15.618,0,0,1-9.664,13.108l-4.742,2.118,4.876,1.787,10.19,3.732.293.108.337.02s.054,0,.154,0a10.178,10.178,0,0,0,7.54-3.962c3.658-4.39.412-10.534.271-10.793l-.074-.137-.092-.124-5.292-7.075-3.676-4.915Z" transform="translate(-2091.594 -406.714)"/></g><path class="t" d="M2103.863,414.584l.336.444,5.148,6.885a2.519,2.519,0,0,1,.263.431,12.1,12.1,0,0,1,.957,2.991c1.091-3.151-.882-6.8-.882-6.8l-5.292-7.075A14.2,14.2,0,0,1,2103.863,414.584Z" transform="translate(-2012.357 -344.127)"/><path class="u" d="M2095.894,423.657l10.19,3.732a7.952,7.952,0,0,0,5.977-3.2,4.971,4.971,0,0,0,.814-1.365,8.035,8.035,0,0,1-1.407.65,4.73,4.73,0,0,1-3.184-.044l-7.58-2.776A19.978,19.978,0,0,1,2095.894,423.657Z" transform="translate(-2014.77 -341.342)"/><g transform="translate(26.234 20.608)"><path class="v" d="M2071.181,424.463a1.053,1.053,0,0,1-.363-.064l-15.557-5.7a1.055,1.055,0,0,1,.363-2.045,1.1,1.1,0,0,1,.257.031,11.219,11.219,0,0,0,2.733.324c6.809,0,15.01-5.263,20.9-13.407,6.406-8.857,8.671-19.412,5.512-25.669a1.054,1.054,0,0,1,1.785-1.106l9.752,13.044a1.057,1.057,0,0,1,.169.341,1.028,1.028,0,0,1,.039.2c.094,1.019,1.981,25.033-25.256,34A1.061,1.061,0,0,1,2071.181,424.463Z" transform="translate(-2053.514 -375.347)"/><path class="e" d="M2086.208,377.7l9.752,13.046a.015.015,0,0,0,0,.01c.045.5,2.131,24.121-24.537,32.9l-15.557-5.7a12.281,12.281,0,0,0,2.99.354c6.917,0,15.483-5.169,21.751-13.843,6.865-9.493,8.875-20.273,5.6-26.762m0-2.109a2.109,2.109,0,0,0-1.881,3.06c2.99,5.92.759,16.025-5.424,24.575-5.694,7.88-13.561,12.97-20.042,12.97a10.166,10.166,0,0,1-2.477-.292,2.109,2.109,0,0,0-1.238,4.027l15.558,5.7a2.094,2.094,0,0,0,.725.129,2.119,2.119,0,0,0,.66-.106c14.579-4.8,20.873-13.947,23.586-20.777a33.365,33.365,0,0,0,2.391-14.317,2.147,2.147,0,0,0-.081-.417,2.1,2.1,0,0,0-.334-.662l-9.75-13.046a2.11,2.11,0,0,0-1.691-.847Z" transform="translate(-2053.76 -375.592)"/></g><path class="t" d="M2078.667,377.211a15.136,15.136,0,0,1,1.494,5.83l8.063,10.787a.013.013,0,0,0,0,.01c.008.064.046.525.055,1.292.044-.375.078-.737.107-1.076a24.754,24.754,0,0,0,.034-3.787.015.015,0,0,1,0-.01Z" transform="translate(-2019.985 -354.494)"/><path class="w" d="M2086,389.974c.008.064.046.525.055,1.292.044-.375.079-.737.107-1.076Z" transform="translate(-2017.763 -350.63)"/><path class="u" d="M2055.379,408.372l15.558,5.7a45.367,45.367,0,0,0,6.149-2.514l-2.8-1.025-9-3.3A16.113,16.113,0,0,1,2055.379,408.372Z" transform="translate(-2027.035 -345.404)"/><path class="e" d="M2078.449,373.291a10.878,10.878,0,0,1,6.49,1.97,10.287,10.287,0,0,1,3.163,3.764l.013.012c3.278,6.489,1.267,17.269-5.6,26.762-6.269,8.675-14.833,13.843-21.75,13.843a12.273,12.273,0,0,1-2.99-.354l-.018-.008-2.053-.754a9.262,9.262,0,0,1-1.426-.853c-7.134-5.16-6.047-18.831,2.418-30.543a37.4,37.4,0,0,1,12.938-11.478,19.832,19.832,0,0,1,8.813-2.359m0-2.108a22.018,22.018,0,0,0-9.767,2.586,39.782,39.782,0,0,0-13.694,12.123c-4.318,5.976-6.964,12.651-7.452,18.8-.517,6.531,1.439,11.748,5.507,14.691a11.42,11.42,0,0,0,1.745,1.043,2.058,2.058,0,0,0,.191.081l2.03.745a2.23,2.23,0,0,0,.256.082,14.419,14.419,0,0,0,3.5.418c7.792,0,17-5.776,23.46-14.717,7.182-9.931,9.5-21.564,5.771-28.947-.025-.05-.051-.1-.08-.143a12.339,12.339,0,0,0-3.743-4.39,12.886,12.886,0,0,0-7.727-2.37Z" transform="translate(-2029.434 -356.319)"/><path class="u" d="M2053.79,417.181a9.331,9.331,0,0,0,1.427.855l2.052.753.019.008c.366.091.741.165,1.117.22-3.435-6.472-1.447-17.376,5.485-26.971a37.385,37.385,0,0,1,12.938-11.477,18.211,18.211,0,0,1,10.682-2.221,10.209,10.209,0,0,0-3.061-3.577c-3.958-2.859-9.607-2.5-15.3.39a37.42,37.42,0,0,0-12.938,11.478C2047.742,398.35,2046.656,412.021,2053.79,417.181Z" transform="translate(-2028.943 -355.829)"/><path class="x" d="M2053.79,417.181a9.321,9.321,0,0,0,1.427.855l2.052.753.019.008c.366.091.741.165,1.117.22-.061-.117-.123-.234-.175-.354l-.573-.21a9.294,9.294,0,0,1-1.427-.853c-7.135-5.16-6.046-18.832,2.418-30.544a37.391,37.391,0,0,1,12.939-11.477,19.03,19.03,0,0,1,9.712-2.329c-3.546-1.014-7.839-.277-12.152,1.911a37.42,37.42,0,0,0-12.938,11.478C2047.742,398.35,2046.656,412.021,2053.79,417.181Z" transform="translate(-2028.943 -355.829)"/><path class="y" d="M2056.62,417.759c7.188,1.062,16.774-4.231,23.623-13.709,6.865-9.493,8.875-20.273,5.6-26.762l-.014-.012a1.727,1.727,0,0,0-.1-.186,18.209,18.209,0,0,0-10.681,2.221,37.394,37.394,0,0,0-12.939,11.477C2055.172,400.383,2053.184,411.287,2056.62,417.759Z" transform="translate(-2027.158 -354.571)"/><g transform="translate(8.945 19.586)"><path class="e" d="M2070.123,396.192a1.058,1.058,0,0,1-.589-.18l-28.581-19.275a1.054,1.054,0,1,1,1.179-1.748l28.581,19.275a1.054,1.054,0,0,1-.59,1.928Z" transform="translate(-2040.488 -374.808)"/></g><g transform="translate(30.802 0)"><path class="e" d="M2072.416,392.75a1.054,1.054,0,0,1-.96-.616l-14.094-30.87a1.054,1.054,0,1,1,1.917-.875l14.1,30.87a1.055,1.055,0,0,1-.522,1.4A1.035,1.035,0,0,1,2072.416,392.75Z" transform="translate(-2057.265 -359.773)"/></g><g transform="translate(0 50.36)"><path class="e" d="M2034.676,400.878a1.055,1.055,0,0,1-.009-2.109l35.558-.339h.01a1.055,1.055,0,0,1,.01,2.109l-35.558.339Z" transform="translate(-2033.621 -398.43)"/></g></g><g transform="translate(2014.561 433.077)"><g transform="translate(24.775 25.854)"><path class="z" d="M2042.4,450.39a1.053,1.053,0,0,1-.725-.354l-17.552-19.851a1.053,1.053,0,0,1,.091-1.488l3.413-3.018a1.056,1.056,0,0,1,1.489.091l17.55,19.851a1.055,1.055,0,0,1-.091,1.489l-3.413,3.017a1.049,1.049,0,0,1-.7.265Z" transform="translate(-2022.808 -424.36)"/><path class="e" d="M2028.575,426.714l17.552,19.851-3.413,3.017-17.552-19.851,3.413-3.017m0-2.109a2.1,2.1,0,0,0-1.4.529l-3.413,3.017a2.109,2.109,0,0,0-.184,2.977l17.552,19.851a2.109,2.109,0,0,0,2.977.184l3.413-3.017a2.109,2.109,0,0,0,.184-2.978l-17.552-19.851a2.1,2.1,0,0,0-1.581-.711Z" transform="translate(-2023.053 -424.605)"/></g><g transform="translate(36.723 39.427)"><path class="f" d="M2050.439,459.647a4.752,4.752,0,0,1-3.56-1.6l-12.656-14.315a4.749,4.749,0,1,1,7.116-6.292L2054,451.752a4.749,4.749,0,0,1-3.557,7.895Z" transform="translate(-2031.98 -434.779)"/><path class="e" d="M2038.025,437.133a3.685,3.685,0,0,1,2.769,1.247L2053.45,452.7a3.694,3.694,0,1,1-5.535,4.894l-12.657-14.314a3.694,3.694,0,0,1,2.767-6.142m0-2.109h0a5.8,5.8,0,0,0-4.347,9.648l12.657,14.316a5.8,5.8,0,0,0,8.7-7.689l-12.655-14.316a5.812,5.812,0,0,0-4.35-1.959Z" transform="translate(-2032.225 -435.024)"/></g><g class="aa" transform="translate(-2001.702 -402.423)"><path class="ad" d="M 2022.029174804688 435.5558776855469 C 2019.541381835938 435.5558776855469 2017.121826171875 434.8331909179688 2015.032348632813 433.4660034179688 C 2012.173461914063 431.5960388183594 2010.213989257813 428.7247009277344 2009.51513671875 425.3811340332031 C 2008.816284179688 422.0376586914063 2009.461669921875 418.6217346191406 2011.332275390625 415.7625732421875 C 2013.703857421875 412.137939453125 2017.707763671875 409.9739990234375 2022.042846679688 409.9739990234375 C 2024.529052734375 409.9739990234375 2026.947265625 410.6961364746094 2029.035888671875 412.0622863769531 C 2031.895385742188 413.9333801269531 2033.855346679688 416.80517578125 2034.555297851563 420.14892578125 C 2035.255615234375 423.493896484375 2034.610961914063 426.9103698730469 2032.739990234375 429.7690124511719 C 2030.368774414063 433.3925170898438 2026.364624023438 435.5558776855469 2022.029174804688 435.5558776855469 Z"/><path class="ae" d="M 2022.042846679688 412.4739990234375 C 2018.687866210938 412.4739990234375 2015.39892578125 414.11328125 2013.42431640625 417.1312866210938 C 2010.3125 421.8875732421875 2011.64501953125 428.2631225585938 2016.401123046875 431.3740234375 C 2018.14013671875 432.5118713378906 2020.095581054688 433.0558471679688 2022.029174804688 433.0558471679688 C 2025.384521484375 433.0558471679688 2028.673583984375 431.4172973632813 2030.648193359375 428.3999633789063 C 2033.76025390625 423.6448974609375 2032.423583984375 417.2667236328125 2027.66748046875 414.1544799804688 C 2025.929077148438 413.0174865722656 2023.975219726563 412.4739990234375 2022.042846679688 412.4739990234375 M 2022.042846679688 407.4739990234375 C 2025.016357421875 407.4739990234375 2027.907836914063 408.3371276855469 2030.404418945313 409.9700622558594 C 2032.130493164063 411.0995483398438 2033.584838867188 412.5348815917969 2034.727905273438 414.2367248535156 C 2035.830688476563 415.8784790039063 2036.595947265625 417.6952819824219 2037.002319335938 419.6366577148438 C 2037.408813476563 421.5786437988281 2037.436401367188 423.5500183105469 2037.084228515625 425.4960327148438 C 2036.719116210938 427.5140991210938 2035.961303710938 429.4123229980469 2034.831787109375 431.1380310058594 C 2031.997192382813 435.4696960449219 2027.211059570313 438.0558776855469 2022.029174804688 438.0558776855469 C 2019.053833007813 438.0558776855469 2016.161010742188 437.1921081542969 2013.66357421875 435.5579833984375 C 2011.938598632813 434.4296875 2010.484008789063 432.9945068359375 2009.341186523438 431.2926940917969 C 2008.238647460938 429.6510009765625 2007.473754882813 427.8341674804688 2007.067993164063 425.892578125 C 2006.662231445313 423.9510803222656 2006.63525390625 421.9800109863281 2006.987915039063 420.0341186523438 C 2007.353515625 418.0170288085938 2008.111328125 416.1193542480469 2009.240234375 414.3938293457031 C 2012.075317382813 410.0608215332031 2016.861328125 407.4739990234375 2022.042846679688 407.4739990234375 Z"/></g><g transform="translate(1.043 1.055)"><path class="w" d="M2024.109,444.144a19.29,19.29,0,1,1,16.156-8.73,19.22,19.22,0,0,1-16.156,8.73Zm.027-30.926a11.641,11.641,0,1,0,6.359,1.9A11.611,11.611,0,0,0,2024.136,413.219Z" transform="translate(-2004.836 -405.569)"/></g><path class="e" d="M2024.39,406.868a18.234,18.234,0,1,1-15.276,8.253,18.135,18.135,0,0,1,15.276-8.253m-.029,30.923a12.692,12.692,0,1,0-6.941-2.074,12.674,12.674,0,0,0,6.941,2.074m.029-33.032a20.34,20.34,0,1,0,11.115,3.319,20.294,20.294,0,0,0-11.115-3.319Zm-.029,30.923a10.578,10.578,0,1,1,8.864-4.786,10.547,10.547,0,0,1-8.864,4.786Z" transform="translate(-2004.036 -404.759)"/><g transform="translate(12.316 13.578)"><path class="ab" d="M2014.578,423.281a1.055,1.055,0,0,1-1.045-.925,6.475,6.475,0,0,1,4.681-7.134,1.054,1.054,0,0,1,.568,2.03,4.417,4.417,0,0,0-3.156,4.844,1.053,1.053,0,0,1-.916,1.176A.905.905,0,0,1,2014.578,423.281Z" transform="translate(-2013.489 -415.182)"/></g><g transform="translate(19.789 12.552)"><circle class="ab" cx="1.391" cy="1.391" r="1.391"/></g></g><g transform="translate(1970.297 314.523)"><g class="h" transform="translate(0)"><path class="ac" d="M2142.745,442.775c-35.77-15.1-58.8,22.649-58.8,22.649s-23.471-37.479-59.066-21.967-31.09,71.437-.577,93.369c20.061,14.425,60.292,41.4,60.292,41.4s39.917-27.435,59.8-42.085C2174.656,513.852,2178.519,457.881,2142.745,442.775Z" transform="translate(-1961.184 -275.971)"/></g></g><g transform="translate(2031.108 366.846)"><path class="l" d="M2034.575,383.617a1.048,1.048,0,0,1-.588-.178c-.075-.051-7.654-5.133-11.412-7.835a13.084,13.084,0,0,1-5-11.755,9.029,9.029,0,0,1,8.968-8.494c3.808,0,6.562,2.565,7.9,4.145,1.328-1.61,4.087-4.238,7.945-4.238a9.192,9.192,0,0,1,3.578.757,9.094,9.094,0,0,1,5.391,7.635,13.085,13.085,0,0,1-4.864,11.812c-3.726,2.744-11.244,7.913-11.32,7.965A1.049,1.049,0,0,1,2034.575,383.617Z" transform="translate(-2016.452 -354.209)"/><path class="e" d="M2042.633,356.563a8.088,8.088,0,0,1,3.167.674c6.753,2.852,6.023,13.418.312,17.626-3.755,2.766-11.291,7.945-11.291,7.945s-7.6-5.092-11.383-7.815c-5.761-4.141-6.611-14.7.109-17.629a8.076,8.076,0,0,1,3.244-.71c4.865,0,7.908,4.858,7.908,4.858s3.02-4.949,7.935-4.949m0-2.109a10.359,10.359,0,0,1-15.843.091,10.084,10.084,0,0,0-10.016,9.437,14.165,14.165,0,0,0,5.432,12.723c3.773,2.712,11.128,7.646,11.439,7.855a2.11,2.11,0,0,0,2.37-.014c.309-.212,7.608-5.23,11.346-7.984a14.168,14.168,0,0,0,5.287-12.785,10.124,10.124,0,0,0-6.027-8.483,10.243,10.243,0,0,0-3.988-.839Z" transform="translate(-2016.697 -354.454)"/><path class="m" d="M2049.415,360.97a7.442,7.442,0,0,0-3.509-3.029c-6.753-2.85-11.1,4.278-11.1,4.278s-4.43-7.079-11.149-4.147c-4.872,2.121-5.766,8.25-3.695,13.042-2.793-4.91-2.19-11.937,3.1-14.24,6.72-2.927,11.153,4.147,11.153,4.147s4.349-7.125,11.1-4.273A7.544,7.544,0,0,1,2049.415,360.97Z" transform="translate(-2016.206 -353.964)"/></g><g transform="translate(2059.513 339.957)"><g transform="translate(0 0)"><path class="l" d="M2056.248,363.209a1.051,1.051,0,0,1-.587-.178c-.076-.051-7.652-5.133-11.411-7.835a13.086,13.086,0,0,1-5-11.755,9.029,9.029,0,0,1,8.969-8.494c3.807,0,6.561,2.565,7.9,4.145,1.327-1.61,4.086-4.238,7.944-4.238a9.194,9.194,0,0,1,3.579.757,9.094,9.094,0,0,1,5.391,7.635,13.086,13.086,0,0,1-4.864,11.812c-3.726,2.744-11.244,7.913-11.319,7.965A1.051,1.051,0,0,1,2056.248,363.209Z" transform="translate(-2038.125 -333.801)"/><path class="e" d="M2064.306,336.155a8.09,8.09,0,0,1,3.168.674c6.753,2.852,6.023,13.418.31,17.626-3.755,2.766-11.292,7.945-11.292,7.945s-7.595-5.092-11.382-7.815c-5.761-4.141-6.612-14.7.109-17.629a8.072,8.072,0,0,1,3.244-.71c4.865,0,7.908,4.858,7.908,4.858s3.018-4.949,7.934-4.949m0-2.109a10.359,10.359,0,0,1-15.841.091,10.086,10.086,0,0,0-10.018,9.437,14.171,14.171,0,0,0,5.433,12.723c3.772,2.712,11.129,7.646,11.44,7.854a2.1,2.1,0,0,0,2.368-.013c.311-.212,7.608-5.23,11.348-7.986a14.166,14.166,0,0,0,5.287-12.784,10.122,10.122,0,0,0-6.029-8.483,10.231,10.231,0,0,0-3.987-.839Z" transform="translate(-2038.37 -334.046)"/></g><path class="m" d="M2071.089,340.562a7.438,7.438,0,0,0-3.51-3.029c-6.754-2.852-11.1,4.278-11.1,4.278s-4.43-7.079-11.147-4.147c-4.873,2.121-5.767,8.25-3.7,13.042-2.792-4.91-2.189-11.937,3.1-14.24,6.719-2.927,11.153,4.147,11.153,4.147s4.349-7.125,11.1-4.273A7.54,7.54,0,0,1,2071.089,340.562Z" transform="translate(-2037.879 -333.556)"/></g></g></svg>