<svg xmlns="http://www.w3.org/2000/svg" width="209.465" height="47.776" viewBox="0 0 209.465 47.776"><defs><style>.a{fill:#03f87e;}.b{fill:#6804bf;}.c{fill:#ff5082;}.d{fill:#fff;}</style></defs><g transform="translate(-75.297 -89.461)"><g transform="translate(75.298 89.461)"><path class="a" d="M98.955,94.792a20.311,20.311,0,0,0-6.58-1.519,21.117,21.117,0,0,0-6.656.782,19.681,19.681,0,0,0-6.052,2.715,9.233,9.233,0,0,0-2.3,2.217,3.861,3.861,0,0,0-.749,2.777,5.384,5.384,0,0,0,1.38,2.644c.175.2.356.391.55.58l.3.284c.1.094.2.166.293.25s.19.167.294.241l.318.216a6.636,6.636,0,0,0,.666.4,16.05,16.05,0,0,0,6.244,1.511,41.1,41.1,0,0,0,6.65-.136q1.664-.156,3.322-.41c.551-.085,1.1-.174,1.651-.274l.819-.155.407-.082.2-.043.1-.021.05-.011.05-.009.079-.012c.053-.007.106-.011.159-.014l-.26.028a137.815,137.815,0,0,0,40.4-16.967,2.1,2.1,0,0,1,2.228,3.571c-.022.014-.044.027-.066.039l-.009.006a141.115,141.115,0,0,1-42.038,15.7l-.259.029a.9.9,0,0,0,.107,0l.053-.006c.021,0,.037-.008.024-.005l-.056.01-.11.019-.218.038-.433.069-.863.127c-.574.081-1.149.15-1.724.215q-1.725.19-3.46.285a43.065,43.065,0,0,1-6.976-.142A23.927,23.927,0,0,1,83,109.1a13.6,13.6,0,0,1-3.359-1.347,8.153,8.153,0,0,1-.779-.508l-.374-.28c-.123-.1-.236-.209-.354-.313s-.238-.214-.341-.318l-.306-.32c-.205-.217-.4-.447-.6-.682a6.712,6.712,0,0,1-1.566-3.4,4.619,4.619,0,0,1,.208-1.947,5.877,5.877,0,0,1,.886-1.67A10.286,10.286,0,0,1,79.1,95.921a20.538,20.538,0,0,1,6.442-2.59,21.518,21.518,0,0,1,6.868-.46,19.632,19.632,0,0,1,3.37.663A20.573,20.573,0,0,1,98.955,94.792Z" transform="translate(-75.298 -89.461)"/><path class="b" d="M90.964,132.356a33.217,33.217,0,0,1-8.271-4.091c-1.01-3.565-2.453-8.756-3.694-13.242,2.83,1.974,6.914,2.842,11.124,3.122a.5.5,0,0,1,.47.462l1.037,13.231A.506.506,0,0,1,90.964,132.356Z" transform="translate(-75.835 -93.171)"/><path class="a" d="M115.488,116.581l-3.019,17.885a.511.511,0,0,1-.508.422A74.365,74.365,0,0,1,98.338,133.7a.5.5,0,0,1-.4-.486l-.3-14.333a.505.505,0,0,1,.492-.514,81.058,81.058,0,0,0,12.384-1.393c1.368-.282,2.821-.6,4.363-.969A.507.507,0,0,1,115.488,116.581Z" transform="translate(-78.539 -93.312)"/><path class="b" d="M127.862,132.784c-2.843.186-5.462.306-7.884.368a.5.5,0,0,1-.5-.627l4.851-19.582a.5.5,0,0,1,.35-.362,184.1,184.1,0,0,0,23.091-8.289" transform="translate(-81.707 -91.614)"/><g transform="translate(0.08 12.146)"><path class="a" d="M115.381,139.3c-1.157,0-2.32-.02-3.472-.062-1.4-.051-4.2-.187-7.2-.532-14.453-1.657-21.585-6.74-22.123-8.58-.221-.757-.554-1.925-.96-3.356l-3.694-13.244c-1.388-5.013-2.523-9.144-2.523-9.144a.563.563,0,1,1,1.085-.3s1.134,4.131,2.522,9.142l3.692,13.241c.405,1.425.736,2.59.957,3.345.391,1.334,7.5,6.211,21.172,7.778,3.072.352,6,.484,7.11.525,1.719.062,3.461.077,5.177.045a.562.562,0,1,1,.02,1.124C116.561,139.295,115.972,139.3,115.381,139.3Z" transform="translate(-75.391 -103.669)"/></g><path class="a" d="M90.985,106.832c-7.56,0-13.482-2.955-13.482-6.729s5.922-6.729,13.482-6.729,13.482,2.956,13.482,6.729S98.546,106.832,90.985,106.832Zm0-12.332c-6.7,0-12.357,2.566-12.357,5.6s5.659,5.6,12.357,5.6,12.357-2.566,12.357-5.6S97.684,94.5,90.985,94.5Z" transform="translate(-75.618 -90.029)"/><ellipse class="c" cx="9.858" cy="4.489" rx="9.858" ry="4.489" transform="translate(5.639 4.216)"/></g><g transform="translate(141.57 104.979)"><path class="d" d="M158.714,132.443a10.344,10.344,0,0,1-4.361-3.928,10.892,10.892,0,0,1-1.532-5.766,15.277,15.277,0,0,1,2-7.784,14.059,14.059,0,0,1,5.586-5.405,16.834,16.834,0,0,1,8.163-1.947,14.782,14.782,0,0,1,6.649,1.405,10.357,10.357,0,0,1,4.361,3.929,10.89,10.89,0,0,1,1.532,5.766,15.266,15.266,0,0,1-2,7.784,14.079,14.079,0,0,1-5.586,5.406,16.836,16.836,0,0,1-8.163,1.946A14.777,14.777,0,0,1,158.714,132.443Zm11.442-5.693a7.874,7.874,0,0,0,2.775-3.19,9.954,9.954,0,0,0,.973-4.415,5.456,5.456,0,0,0-1.568-4.09,6,6,0,0,0-4.379-1.532,7.416,7.416,0,0,0-4.18,1.189A7.868,7.868,0,0,0,161,117.9a9.956,9.956,0,0,0-.973,4.415,5.458,5.458,0,0,0,1.567,4.091,6,6,0,0,0,4.379,1.532A7.418,7.418,0,0,0,170.156,126.75Z" transform="translate(-152.821 -107.613)"/><path class="d" d="M192.946,113.861H185.2l1.152-5.658h22.6l-1.153,5.658h-7.713l-3.928,19.569h-7.136Z" transform="translate(-157.52 -107.699)"/><path class="d" d="M220.137,113.861h-7.748l1.152-5.658h22.6l-1.152,5.658h-7.713l-3.928,19.569h-7.135Z" transform="translate(-161.466 -107.699)"/><g transform="translate(68.359 2.605)"><path class="d" d="M251.035,118.543a6.916,6.916,0,0,1,2.633,2.665,8.086,8.086,0,0,1,1,4.083,10.17,10.17,0,0,1-1.231,5A9.246,9.246,0,0,1,250.1,133.8a8.688,8.688,0,0,1-4.6,1.278q-3.678,0-5.174-2.306l-1.621,8.072h-5.922l4.581-22.939h5.61l-.343,1.589a6.955,6.955,0,0,1,4.893-1.87A7.054,7.054,0,0,1,251.035,118.543ZM247.559,129a5.039,5.039,0,0,0,1.122-3.4,3.234,3.234,0,0,0-.857-2.368,3.144,3.144,0,0,0-2.353-.873,3.64,3.64,0,0,0-2.9,1.309,5.084,5.084,0,0,0-1.123,3.428,2.965,2.965,0,0,0,3.211,3.211A3.642,3.642,0,0,0,247.559,129Z" transform="translate(-232.786 -111.671)"/><path class="d" d="M263.43,110.66h5.922l-4.613,23.127h-5.922Z" transform="translate(-236.564 -110.66)"/><path class="d" d="M291.55,117.9,288.183,134.8h-5.609l.343-1.589a6.962,6.962,0,0,1-4.894,1.87,7.043,7.043,0,0,1-3.506-.919,6.907,6.907,0,0,1-2.634-2.665,8.141,8.141,0,0,1-1-4.114,10.109,10.109,0,0,1,1.231-4.972,9.26,9.26,0,0,1,3.336-3.506,8.683,8.683,0,0,1,4.6-1.278q3.676,0,5.174,2.306l.4-2.026ZM282.979,129a5.038,5.038,0,0,0,1.121-3.4,3.23,3.23,0,0,0-.857-2.368,3.145,3.145,0,0,0-2.353-.873,3.641,3.641,0,0,0-2.9,1.309,5.086,5.086,0,0,0-1.122,3.428,2.965,2.965,0,0,0,3.211,3.211A3.645,3.645,0,0,0,282.979,129Z" transform="translate(-238.315 -111.671)"/><path class="d" d="M316.255,117.952,305.44,135.593a18.055,18.055,0,0,1-2.571,3.351,7.553,7.553,0,0,1-2.6,1.714,9.644,9.644,0,0,1-5.875.109,5.959,5.959,0,0,1-2.1-1.059l2.649-4.177a3.891,3.891,0,0,0,2.618.966,2.5,2.5,0,0,0,1.371-.358,4.181,4.181,0,0,0,1.122-1.169l-3.833-17.018h5.891l2.119,10.379,6.234-10.379Z" transform="translate(-241.422 -111.718)"/></g></g></g></svg>