<svg xmlns="http://www.w3.org/2000/svg" width="58" height="58" viewBox="0 0 58 58"><defs><style>.a{fill:#008fed;}.b{fill:#fff;}</style></defs><g transform="translate(-0.484)"><circle class="a" cx="29" cy="29" r="29" transform="translate(0.484 0)"/><path class="b" d="M190.289,187.74a3.582,3.582,0,0,0-.432-1.776,31.639,31.639,0,0,0-2.013-3.2,1.8,1.8,0,0,0-2.56-.785,10.779,10.779,0,0,0-2.238,1.387,2.846,2.846,0,0,0-1.16,2.694c.033.409.091.816.139,1.224a23.261,23.261,0,0,0,21.988,20.993,2.608,2.608,0,0,0,2.184-.734,8.391,8.391,0,0,0,1.9-3.135,1.542,1.542,0,0,0-.557-1.887,33.439,33.439,0,0,0-3.616-2.34,3.253,3.253,0,0,0-3.5.166c-.876.587-1.811,1.086-2.7,1.654a1.284,1.284,0,0,1-1.4.025,18.01,18.01,0,0,1-8.272-8.348,1.312,1.312,0,0,1,.049-1.4c.59-.946,1.144-1.913,1.725-2.864A2.888,2.888,0,0,0,190.289,187.74Z" transform="translate(-165.374 -165.362)"/></g></svg>