<svg xmlns="http://www.w3.org/2000/svg" width="31.835" height="28.323" viewBox="0 0 31.835 28.323"><defs><style>.a{fill:#ff4376;}</style></defs><path class="a" d="M205.342,100.863a1.867,1.867,0,0,1-1.23-.462c-1.286-1.125-2.526-2.182-3.62-3.113l-.006-.005a67.347,67.347,0,0,1-7.9-7.419,11.85,11.85,0,0,1-3.157-7.756,9.951,9.951,0,0,1,2.525-6.8,8.561,8.561,0,0,1,6.368-2.772,8.007,8.007,0,0,1,5,1.727,10.222,10.222,0,0,1,2.022,2.111,10.224,10.224,0,0,1,2.022-2.111,8.008,8.008,0,0,1,5-1.727,8.561,8.561,0,0,1,6.368,2.772,9.952,9.952,0,0,1,2.526,6.8,11.847,11.847,0,0,1-3.158,7.756,67.335,67.335,0,0,1-7.9,7.419c-1.1.934-2.338,1.991-3.627,3.119A1.869,1.869,0,0,1,205.342,100.863Z" transform="translate(-189.425 -72.54)"/></svg>