<svg xmlns="http://www.w3.org/2000/svg" xmlns:xlink="http://www.w3.org/1999/xlink" width="16.407" height="21.871" viewBox="0 0 16.407 21.871"><defs><style>.a{fill:none;}.b{fill:url(#a);}.c{fill:url(#b);}.d{fill:url(#c);}.e{fill:url(#d);}</style><linearGradient id="a" x1="21.885" y1="-26.804" x2="20.879" y2="-27.627" gradientUnits="objectBoundingBox"><stop offset="0" stop-color="#d6ffa1"/><stop offset="0.326" stop-color="#93e2a7"/><stop offset="1" stop-color="#00a3b5"/></linearGradient><linearGradient id="b" x1="33.926" y1="-45.05" x2="36.079" y2="-44.337" gradientUnits="objectBoundingBox"><stop offset="0" stop-color="#ff177b"/><stop offset="0.672" stop-color="#ffa975"/><stop offset="1" stop-color="#ffec73"/></linearGradient><linearGradient id="c" x1="27.315" y1="-13.129" x2="25.565" y2="-13.675" gradientUnits="objectBoundingBox"><stop offset="0" stop-color="#63ffd4"/><stop offset="0.485" stop-color="#329fb9"/><stop offset="0.835" stop-color="#1262a8"/><stop offset="1" stop-color="#064aa2"/></linearGradient><linearGradient id="d" x1="22.488" y1="-27.978" x2="21.62" y2="-26.481" gradientUnits="objectBoundingBox"><stop offset="0" stop-color="#ff4521"/><stop offset="0.341" stop-color="#d43e64"/><stop offset="0.793" stop-color="#9f36b9"/><stop offset="1" stop-color="#8a33db"/></linearGradient></defs><path class="a" d="M18.656,32.1l2.769-3.41h0L18.656,32.1,9.817,21.217h0L18.656,32.1,9.8,43h0l8.853-10.9,2.782,3.424h0Z" transform="translate(-9.275 -21.176)"/><path class="b" d="M21.425,28.692l-10.79-7.3a.89.89,0,0,0-.817-.166L18.657,32.1Z" transform="translate(-9.277 -21.179)"/><path class="c" d="M22.521,34.885,26.2,32.391a1.035,1.035,0,0,0,0-1.839l-3.7-2.5-2.769,3.409Z" transform="translate(-10.358 -20.536)"/><path class="d" d="M9.752,21.217c-.328.126-.541.535-.541,1.154l0,19.478c0,.612.206,1.015.524,1.149l8.853-10.9Z" transform="translate(-9.211 -21.176)"/><path class="e" d="M9.8,42.068a.878.878,0,0,0,.831-.161l10.8-7.314-2.782-3.424Z" transform="translate(-9.275 -20.244)"/></svg>