<svg xmlns="http://www.w3.org/2000/svg" xmlns:xlink="http://www.w3.org/1999/xlink" width="178" height="178" viewBox="0 0 178 178"><defs><style>.a{fill:none;}.b{fill:#99f;}.c{clip-path:url(#a);}.d,.m{fill:#33c;}.e{fill:#6060f4;}.f{fill:#a7a7fc;opacity:0.62;}.g{fill:#7a7af9;}.h{fill:url(#b);}.i{fill:#1c0477;}.j{fill:#ffeb95;}.k{fill:#a47d78;}.l{fill:#fdddce;}.m{opacity:0.45;}.n{fill:#c41856;}.o{fill:#ff5082;}.p{fill:#05e8ad;}.q{fill:#6fc;}.r{fill:#ed3833;}.s{fill:url(#c);}</style><clipPath id="a"><ellipse class="a" cx="88.811" cy="89" rx="88.811" ry="89" transform="translate(0)"/></clipPath><linearGradient id="b" x1="-1.097" y1="0.601" x2="0.937" y2="0.472" gradientUnits="objectBoundingBox"><stop offset="0" stop-color="#33c"/><stop offset="1" stop-color="#d9d6d7"/></linearGradient><linearGradient id="c" x1="-135.825" y1="11.496" x2="-130.488" y2="11.496" gradientUnits="objectBoundingBox"><stop offset="0" stop-color="#fff"/><stop offset="0.259" stop-color="#fffcfd"/><stop offset="0.406" stop-color="#fff4f7"/><stop offset="0.525" stop-color="#ffe6ed"/><stop offset="0.628" stop-color="#ffd2de"/><stop offset="0.722" stop-color="#ffb9cc"/><stop offset="0.809" stop-color="#ff99b5"/><stop offset="0.89" stop-color="#ff7499"/><stop offset="0.965" stop-color="#ff4a7b"/><stop offset="0.977" stop-color="#ff4376"/></linearGradient></defs><g transform="translate(-248.603 -67.805)"><ellipse class="b" cx="88.811" cy="89" rx="88.811" ry="89" transform="translate(248.603 67.805)"/><g transform="translate(248.981 67.805)"><g class="c" transform="translate(0)"><rect class="d" width="262.299" height="131.625" transform="translate(-41.302 -13.241)"/><rect class="e" width="198.331" height="137.165" rx="7.69" transform="translate(1.2 -67.332)"/><path class="f" d="M435.384-113.344,375.645,23.821H362.651l59.74-137.165Z" transform="translate(-320.729 46.012)"/><path class="f" d="M557.938-113.344,498.2,23.821H440.08l59.739-137.165Z" transform="translate(-369.44 46.012)"/></g></g><g transform="translate(345.049 216.557)"><path class="g" d="M531.784,471.007c2.411-.916,3.892-2.474-.874-3.009a35.832,35.832,0,0,0-15.638,2.133c-7.445.026-10.34,3.172.52,2.11-1.434,1.34,1.942,1.556,5.592,1.119C526.182,475.681,540.547,472.671,531.784,471.007Z" transform="translate(-508.639 -467.842)"/><path class="g" d="M521.386,477.343c-3.653.437-7.027.221-5.6-1.118-10.01.977-8.337-1.621-2.171-2.051.127.563,2.223.944,7.132.464-1.432,1.339,1.942,1.554,5.6,1.118,1.9.918,5.295,1,8.166.663C533.823,477.845,524.958,479.069,521.386,477.343Z" transform="translate(-508.637 -471.825)"/><path class="g" d="M533.7,473.351c1.126-.618.85-1.349-2.163-1.922,2.413-.916,3.894-2.475-.873-3.01a35.859,35.859,0,0,0-15.637,2.134,18.468,18.468,0,0,0-5.134.643,14.283,14.283,0,0,1,6.168-1.065A35.811,35.811,0,0,1,531.7,468c4.767.535,3.286,2.094.873,3.01C536.314,471.716,535.84,472.67,533.7,473.351Z" transform="translate(-509.428 -467.841)"/></g><g transform="translate(303.672 209.747)"><path class="g" d="M411.6,452.845c1.513-.923,2.443-2.494-.549-3.032a14.819,14.819,0,0,0-9.814,2.15c-4.673.026-6.489,3.2.327,2.126-.9,1.35,1.218,1.568,3.51,1.128C408.088,457.556,417.1,454.522,411.6,452.845Z" transform="translate(-397.078 -449.656)"/><path class="g" d="M405.078,459.231c-2.293.44-4.41.223-3.512-1.127-6.283.985-5.233-1.633-1.363-2.067.08.568,1.395.951,4.477.467-.9,1.35,1.219,1.567,3.512,1.127,1.192.925,3.323,1.01,5.125.668C412.884,459.737,407.32,460.971,405.078,459.231Z" transform="translate(-397.077 -453.67)"/><path class="g" d="M412.807,455.208c.707-.623.533-1.36-1.357-1.937,1.514-.923,2.444-2.494-.548-3.034a14.829,14.829,0,0,0-9.814,2.15,7.562,7.562,0,0,0-3.222.648,6.141,6.141,0,0,1,3.871-1.074,14.81,14.81,0,0,1,9.814-2.15c2.992.539,2.063,2.111.548,3.034C414.448,453.56,414.15,454.521,412.807,455.208Z" transform="translate(-397.573 -449.655)"/></g><g transform="translate(374.584 198.34)"><path class="g" d="M604.03,422.489c2.448-.6,4.925-1.9,2.378-2.878-2.2-.846-6.659-.98-12.157.39-4.821-.732-9.76,1.891-1.727,2.009-2.234,1.1-.27,1.64,2.508,1.605C595.853,426.254,608.048,424.922,604.03,422.489Z" transform="translate(-588.267 -418.972)"/><path class="g" d="M595.034,425.142c-2.78.034-4.743-.509-2.511-1.6-7.4-.111-3.786-2.349.606-2.122-.469.535.509,1.1,4.141,1.154-2.231,1.1-.268,1.639,2.512,1.6.326,1.044,2.43,1.467,4.611,1.444C602.554,426.87,595.647,427.105,595.034,425.142Z" transform="translate(-588.267 -420.499)"/><path class="g" d="M604.108,424.777c1.33-.459,1.866-1.165.486-2,2.449-.6,4.927-1.9,2.379-2.879-2.2-.845-6.662-.978-12.157.391a11.892,11.892,0,0,0-3.935.075,11.093,11.093,0,0,1,5.014-.361c5.5-1.37,9.96-1.237,12.157-.391,2.548.98.069,2.276-2.379,2.88C607.39,423.526,606.152,424.363,604.108,424.777Z" transform="translate(-589.911 -418.971)"/></g><g transform="translate(398.989 187.221)"><path class="g" d="M669.778,392.566c2.44-.6,4.909-1.893,2.37-2.869-2.192-.843-6.637-.976-12.118.389-4.806-.729-9.728,1.885-1.721,2-2.227,1.093-.27,1.635,2.5,1.6C661.627,396.319,673.783,394.991,669.778,392.566Z" transform="translate(-654.066 -389.06)"/><path class="g" d="M660.811,395.21c-2.771.034-4.728-.507-2.5-1.6-7.379-.11-3.774-2.342.6-2.115-.467.534.508,1.1,4.128,1.151-2.224,1.093-.268,1.633,2.5,1.6.325,1.041,2.423,1.462,4.6,1.439C668.307,396.933,661.422,397.167,660.811,395.21Z" transform="translate(-654.066 -390.582)"/><path class="g" d="M669.857,394.847c1.326-.458,1.86-1.161.484-2,2.441-.6,4.911-1.893,2.372-2.87-2.194-.842-6.641-.975-12.118.389a11.853,11.853,0,0,0-3.922.075,11.06,11.06,0,0,1,5-.361c5.482-1.365,9.928-1.232,12.118-.389,2.54.977.069,2.268-2.372,2.87C673.128,393.6,671.894,394.434,669.857,394.847Z" transform="translate(-655.705 -389.059)"/></g><ellipse class="g" cx="35.354" cy="5.97" rx="35.354" ry="5.97" transform="translate(285.604 190.092)"/><g transform="translate(279.245 95.847)"><g transform="translate(53.22 10.784)"><ellipse class="h" cx="11.648" cy="34.281" rx="11.648" ry="34.281" transform="translate(1.855 1.855)"/><path class="i" d="M488.212,173.318c6.433,0,11.648,15.348,11.648,34.281s-5.215,34.28-11.648,34.28-11.648-15.348-11.648-34.28,5.215-34.281,11.648-34.281m0-1.855c-4.025,0-7.481,3.907-9.992,11.3-2.264,6.662-3.51,15.482-3.51,24.837s1.247,18.175,3.51,24.837c2.512,7.392,5.967,11.3,9.992,11.3s7.481-3.907,9.992-11.3c2.264-6.662,3.51-15.482,3.51-24.837s-1.247-18.175-3.51-24.837c-2.511-7.392-5.967-11.3-9.992-11.3Z" transform="translate(-474.709 -171.463)"/></g><g transform="translate(108.754 41.338)"><path class="j" d="M634.532,269.13c1.092,2,4.065,4.23,7.325,2.624,2.813-1.386,4.2-4.667,1.711-9.167,3.1-3.372-2.939-7.828-5.1-1.882-2.488-1.988-4.42-.688-4.962,1.391C626.108,261.924,626.965,271.4,634.532,269.13Z" transform="translate(-626.921 -256.327)"/><path class="i" d="M639.176,255.307a2.784,2.784,0,0,1,1.907,4.8c2.487,4.5,1.1,7.781-1.711,9.167a5.1,5.1,0,0,1-2.274.55,6.1,6.1,0,0,1-5.051-3.174,7.666,7.666,0,0,1-2.2.352c-5.4,0-5.434-7.387.977-7.387l.2,0a2.823,2.823,0,0,1,2.6-2.378,3.862,3.862,0,0,1,2.364.987c.768-2.115,2.027-2.913,3.191-2.913m0-1.465h0a4.3,4.3,0,0,1-5.555,1.927h0A4.039,4.039,0,0,0,630,258.181a6.477,6.477,0,0,0-3.869,1.582,5.1,5.1,0,0,0-1.693,3.762c0,2.453,1.86,4.937,5.414,4.937a8.376,8.376,0,0,0,1.546-.151,7.393,7.393,0,0,0,5.7,2.973,6.568,6.568,0,0,0,2.922-.7,6.7,6.7,0,0,0,3.509-3.992,8.608,8.608,0,0,0-.73-6.35,4.108,4.108,0,0,0,.27-3.817,4.329,4.329,0,0,0-3.893-2.583Z" transform="translate(-624.436 -253.842)"/><path class="k" d="M631.841,269.792c-1.869,2.581.129,6.808,5.461,5.212.974,1.782,3.439,3.749,6.271,3.012a5.558,5.558,0,0,1-1.715,1.285c-3.259,1.61-6.234-.619-7.325-2.622C627.594,278.76,626.3,270.963,631.841,269.792Z" transform="translate(-626.921 -263.876)"/><path class="l" d="M660.23,271.756a5.078,5.078,0,0,1-2.64.538,5.172,5.172,0,0,0,1.952-.539c2.811-1.389,4.2-4.666,1.71-9.167a2.779,2.779,0,0,0-1.54-4.768,2.78,2.78,0,0,1,2.23,4.773C664.428,267.09,663.043,270.372,660.23,271.756Z" transform="translate(-645.293 -256.331)"/></g><g transform="translate(115.641 77.848)"><path class="j" d="M659.954,364.006c.979-1.906,1.141-5.394-1.828-7.079-2.563-1.455-5.845-.8-8.03,3.511-4.259-.63-4.532,6.418,1.229,4.956-.232,2.984,1.8,3.8,3.7,3.122C658.8,374.36,665.715,368.69,659.954,364.006Z" transform="translate(-645.483 -354.763)"/><path class="i" d="M653.115,353.743a5.129,5.129,0,0,1,2.533.7c2.97,1.686,2.808,5.173,1.829,7.079,4.01,3.261,1.879,7-1.06,7a4.717,4.717,0,0,1-3.867-2.488,3.683,3.683,0,0,1-1.228.223c-1.447,0-2.656-1.007-2.474-3.345a6.006,6.006,0,0,1-1.472.2,2.607,2.607,0,1,1-.285-5.2,3.6,3.6,0,0,1,.527.04c1.508-2.976,3.539-4.21,5.5-4.21m0-1.465h0c-1.485,0-4.195.566-6.346,4.181a3.93,3.93,0,0,0-3.209,1.973,4.187,4.187,0,0,0-.023,4.12,4.257,4.257,0,0,0,3.84,2.023h.111a4.082,4.082,0,0,0,.976,1.953,3.832,3.832,0,0,0,2.859,1.193,4.781,4.781,0,0,0,.619-.041,5.754,5.754,0,0,0,4.476,2.306,4.721,4.721,0,0,0,4.466-3.1c.677-1.9.053-4-1.67-5.765a6.552,6.552,0,0,0-6.1-8.845Z" transform="translate(-643.006 -352.278)"/><path class="k" d="M671.42,369.812c2.994.09,5.224-3.7,1.167-7,.871-1.7,1.1-4.654-.97-6.466a5.234,5.234,0,0,1,1.9.655c2.973,1.683,2.811,5.173,1.83,7.079C680.634,368.377,675.259,373.5,671.42,369.812Z" transform="translate(-660.881 -354.839)"/><path class="l" d="M658.122,356.928a4.774,4.774,0,0,1,1.812,1.768,4.853,4.853,0,0,0-1.451-1.233c-2.564-1.452-5.845-.8-8.029,3.512a2.612,2.612,0,0,0-2.892,3.715,2.613,2.613,0,0,1,2.532-4.254C652.277,356.129,655.56,355.473,658.122,356.928Z" transform="translate(-645.481 -354.764)"/></g><g transform="translate(89.214 71.001)"><path class="j" d="M582.863,350.414c2.133.2,5.433-.938,5.9-4.321.4-2.92-1.424-5.725-6.237-6.157-.993-4.19-7.641-1.832-4.148,2.978-2.857.89-2.862,3.08-1.528,4.6C572.819,353.181,580.647,357.5,582.863,350.414Z" transform="translate(-574.245 -336.301)"/><path class="i" d="M577.493,335.281a2.58,2.58,0,0,1,2.539,2.17c4.812.432,6.638,3.237,6.237,6.157a5.225,5.225,0,0,1-5.409,4.344c-.168,0-.332-.007-.489-.023-.823,2.633-2.42,3.691-3.9,3.691-2.5,0-4.65-3.031-2.118-6.6-1.334-1.516-1.329-3.705,1.528-4.6-2.233-3.076-.321-5.148,1.609-5.148m0-1.465A4.108,4.108,0,0,0,573.841,336a4.362,4.362,0,0,0-.008,3.785,3.955,3.955,0,0,0-1.668,2.206,4.024,4.024,0,0,0,.435,3.084,5.7,5.7,0,0,0-.286,5.44,4.684,4.684,0,0,0,4.16,2.572c2.1,0,3.879-1.358,4.909-3.686a6.571,6.571,0,0,0,6.338-5.591,6.383,6.383,0,0,0-1.28-4.9,8.156,8.156,0,0,0-5.338-2.8,3.942,3.942,0,0,0-3.61-2.293Z" transform="translate(-571.753 -333.816)"/><path class="k" d="M576.087,359.6c1.026,2.814,5.368,3.482,6.931-1.509,1.9.179,4.729-.7,5.646-3.3a5.229,5.229,0,0,1,.1,2.012c-.461,3.384-3.763,4.528-5.9,4.323C580.834,367.621,574.08,364.529,576.087,359.6Z" transform="translate(-574.248 -347.01)"/><path class="l" d="M592.021,346.088a4.77,4.77,0,0,1-.97,2.338,4.853,4.853,0,0,0,.608-1.8c.4-2.919-1.424-5.724-6.237-6.156a2.612,2.612,0,0,0-4.522-1.31,2.612,2.612,0,0,1,4.889.776C590.6,340.363,592.424,343.169,592.021,346.088Z" transform="translate(-577.507 -336.297)"/></g><g transform="translate(93.386 85.751)"><path class="j" d="M595.039,392.551c2.24,1.033,6.26,1.05,8.053-2.448,1.548-3.019.634-6.762-4.43-9.064.517-4.93-7.6-4.9-5.641,1.656-3.443-.121-4.282,2.255-3.41,4.41C583.075,391.73,589.933,399.405,595.039,392.551Z" transform="translate(-585.476 -376.07)"/><path class="i" d="M593.21,375.05a2.972,2.972,0,0,1,2.98,3.5c5.064,2.3,5.978,6.045,4.43,9.064a5.573,5.573,0,0,1-5.182,3.053,7.01,7.01,0,0,1-2.872-.6c-1.456,1.954-3.053,2.727-4.443,2.727-3.485,0-5.658-4.867-.985-8.174-.85-2.1-.073-4.414,3.161-4.414.082,0,.165,0,.249,0-1.054-3.52.8-5.159,2.661-5.158m0-1.465h0a4.321,4.321,0,0,0-3.511,1.725,5.073,5.073,0,0,0-.9,3.588,4.366,4.366,0,0,0-2.745,1.773,4.465,4.465,0,0,0-.6,3.413,6.213,6.213,0,0,0-2.2,6.567,5.118,5.118,0,0,0,4.875,3.606,6.75,6.75,0,0,0,4.913-2.461,8.75,8.75,0,0,0,2.4.338,7.025,7.025,0,0,0,6.486-3.849,7.128,7.128,0,0,0,.465-5.637,9.227,9.227,0,0,0-4.732-5.007,4.441,4.441,0,0,0-1.1-2.6,4.493,4.493,0,0,0-3.344-1.459Z" transform="translate(-583.003 -373.585)"/><path class="k" d="M589.615,387.1c-.872-2.156-.034-4.531,3.407-4.411-1.8-6.044,4.959-6.545,5.614-2.716-1.506.434-2.68,2.063-1.793,5.026-3.442-.12-4.279,2.256-3.408,4.411-2.586,1.832-3.078,4.14-2.4,5.836C587.3,395.677,584.752,390.547,589.615,387.1Z" transform="translate(-585.479 -376.068)"/><path class="l" d="M591.762,394.868c1.553.364,3.514-.273,5.272-2.63,2.24,1.034,6.262,1.05,8.057-2.449,1.545-3.019.629-6.763-4.432-9.063a3.007,3.007,0,0,0-1.3-3.012,2.958,2.958,0,0,1,2.341,3.436c5.065,2.3,5.981,6.045,4.432,9.063-1.8,3.5-5.818,3.483-8.057,2.449C595.9,395.589,593.4,395.867,591.762,394.868Z" transform="translate(-588.513 -376.183)"/></g><path class="m" d="M502.875,205.61c-8.805-14.8-17.97-1.332-23.085,9.235-.052-1.343-.082-2.715-.082-4.1,0-18.934,5.215-34.283,11.646-34.283C497.2,176.461,502.034,189.112,502.875,205.61Z" transform="translate(-424.634 -163.823)"/><g transform="translate(88.607 52.844)"><path class="j" d="M587.288,298.96c1.4-1.984,2.286-5.992-.419-8.639-2.334-2.285-5.842-2.288-8.977,2.2-4.248-1.723-5.982,6.39.241,6.036-.854,3.408,1.066,4.827,3.16,4.484C583.968,310.7,592.243,305.735,587.288,298.96Z" transform="translate(-572.602 -287.349)"/><path class="i" d="M580.969,286.329a4.879,4.879,0,0,1,3.416,1.508c2.7,2.647,1.819,6.655.419,8.639,3.18,4.348.911,7.951-1.829,7.951-1.53,0-3.207-1.123-4.165-3.866a3.725,3.725,0,0,1-.6.05c-1.84,0-3.332-1.456-2.56-4.534-.134.007-.263.011-.389.011-5.193,0-4.281-6.289-1-6.288a3.064,3.064,0,0,1,1.151.24c1.829-2.62,3.785-3.711,5.561-3.711m0-1.465c-1.564,0-3.846.634-6.144,3.509a4.183,4.183,0,0,0-.567-.039,3.967,3.967,0,0,0-3.478,2.088,4.9,4.9,0,0,0-.055,4.818,4.592,4.592,0,0,0,3.254,2.2,4.67,4.67,0,0,0,.917,3.1,4.033,4.033,0,0,0,2.946,1.526c1.138,2.418,3,3.83,5.133,3.83a4.779,4.779,0,0,0,4.243-2.685c1.008-1.986.754-4.414-.681-6.773,1.3-2.5,1.93-6.651-1.127-9.644a6.3,6.3,0,0,0-4.441-1.925h0Z" transform="translate(-570.118 -284.864)"/><path class="k" d="M581.295,308.932c-2.1.342-4.014-1.075-3.162-4.482-5.736.322-4.713-6.552-1.184-6.269.057,1.609,1.243,3.18,4.056,3.02-.852,3.406,1.067,4.824,3.162,4.482,1.059,3.03,2.994,4.085,4.64,3.827C588.376,313.339,583.286,314.63,581.295,308.932Z" transform="translate(-572.602 -293.237)"/><path class="l" d="M588.343,305.8c.659-1.461.52-3.575-1.183-5.906,1.4-1.983,2.287-5.994-.418-8.643-2.336-2.281-5.845-2.284-8.977,2.2a2.509,2.509,0,0,0-2.946.562,2.585,2.585,0,0,1,3.547-1.5c3.134-4.493,6.643-4.491,8.976-2.205,2.705,2.649,1.819,6.66.418,8.643C589.877,301.848,589.581,304.407,588.343,305.8Z" transform="translate(-573.076 -287.346)"/></g><g transform="translate(76.49 54.679)"><path class="j" d="M549.417,308.392c2.3.72,6.187.233,7.484-3.376,1.12-3.115-.233-6.621-5.42-8.215-.117-4.834-7.969-3.789-5.25,2.308-3.346.314-3.861,2.718-2.748,4.693C537.739,309.1,545.335,315.662,549.417,308.392Z" transform="translate(-539.942 -292.295)"/><path class="i" d="M546.066,291.275a2.892,2.892,0,0,1,2.923,3.041c5.187,1.594,6.54,5.1,5.42,8.215a5.6,5.6,0,0,1-5.537,3.659,6.6,6.6,0,0,1-1.947-.283c-1.3,2.311-2.951,3.224-4.417,3.224-3.146,0-5.434-4.2-1.516-7.814-1.113-1.975-.6-4.38,2.748-4.693-1.567-3.514.376-5.349,2.327-5.349m0-1.465a4.318,4.318,0,0,0-3.656,1.934,4.93,4.93,0,0,0-.565,3.806,4.3,4.3,0,0,0-2.4,2.007,4.362,4.362,0,0,0-.2,3.446,6.144,6.144,0,0,0-1.435,6.342,5.028,5.028,0,0,0,4.689,3.25,6.2,6.2,0,0,0,5.108-3.034,8.43,8.43,0,0,0,1.257.094,7.1,7.1,0,0,0,6.658-10.169,9.024,9.024,0,0,0-5.2-4.261,4.3,4.3,0,0,0-4.261-3.416Z" transform="translate(-537.449 -289.81)"/><path class="k" d="M543.487,303.8c-1.113-1.977-.6-4.379,2.745-4.694-2.5-5.621,3.978-6.953,5.091-3.33-1.4.608-2.335,2.331-1.105,5.086-3.344.315-3.857,2.718-2.744,4.694-2.273,2.1-2.459,4.39-1.594,5.947C542.324,312.384,539.214,307.741,543.487,303.8Z" transform="translate(-539.945 -292.292)"/><path class="l" d="M547.268,311.332c1.548.158,3.366-.7,4.771-3.2,2.3.721,6.19.233,7.488-3.377,1.117-3.115-.237-6.622-5.421-8.214a2.934,2.934,0,0,0-1.636-2.751,2.884,2.884,0,0,1,2.7,3.031c5.188,1.593,6.542,5.1,5.421,8.214-1.3,3.61-5.192,4.1-7.488,3.377C551.359,311.513,548.98,312.093,547.268,311.332Z" transform="translate(-543.626 -292.312)"/></g><g transform="translate(72.409 75.932)"><path class="j" d="M538.717,366.486c2.327,1,6.451.909,8.2-2.728,1.508-3.139.469-6.955-4.789-9.182.4-5.072-7.934-4.824-5.744,1.85-3.536-.032-4.333,2.429-3.381,4.617C526.418,365.966,533.661,373.657,538.717,366.486Z" transform="translate(-528.914 -349.596)"/><path class="i" d="M536.589,348.576a3.049,3.049,0,0,1,3.066,3.515c5.258,2.226,6.3,6.042,4.789,9.182a5.753,5.753,0,0,1-5.427,3.274,7.156,7.156,0,0,1-2.771-.546c-1.475,2.092-3.136,2.919-4.585,2.919-3.519,0-5.793-4.875-1.13-8.362-.946-2.174-.165-4.617,3.314-4.617h.068c-1.193-3.636.737-5.365,2.678-5.365m0-1.465a4.4,4.4,0,0,0-3.617,1.8,5.153,5.153,0,0,0-.847,3.752,4.395,4.395,0,0,0-2.75,1.847,4.533,4.533,0,0,0-.545,3.555,6.372,6.372,0,0,0-2.115,6.7,5.228,5.228,0,0,0,4.946,3.613,6.829,6.829,0,0,0,5.1-2.665,8.954,8.954,0,0,0,2.255.291,7.18,7.18,0,0,0,6.748-4.1,7.278,7.278,0,0,0,.324-5.766,9.438,9.438,0,0,0-4.986-5,4.474,4.474,0,0,0-1.158-2.6,4.569,4.569,0,0,0-3.356-1.437Z" transform="translate(-526.444 -347.111)"/><path class="k" d="M531.645,379.949c.137,3.537,4.779,5.859,8.343.81,2.073.889,5.575.918,7.544-1.667a6.185,6.185,0,0,1-.617,2.3c-1.743,3.641-5.871,3.732-8.2,2.731C534.082,390.695,527.6,384.773,531.645,379.949Z" transform="translate(-528.916 -367.23)"/><path class="l" d="M558,363.753a5.642,5.642,0,0,1-1.937,2.28,5.746,5.746,0,0,0,1.336-1.81c1.5-3.14.469-6.955-4.791-9.181A3.086,3.086,0,0,0,548,351.932a3.087,3.087,0,0,1,5.22,2.641C558.472,356.8,559.511,360.614,558,363.753Z" transform="translate(-540.003 -349.593)"/></g><g transform="translate(63.585 63.951)"><path class="j" d="M521.943,326c.257-2.584-1.109-6.587-5.206-7.168-3.536-.5-6.944,1.7-7.492,7.525-5.082,1.182-2.258,9.248,3.587,5.041,1.064,3.466,3.717,3.484,5.56,1.875C525.244,338.179,530.518,328.717,521.943,326Z" transform="translate(-505.139 -317.294)"/><path class="i" d="M513.289,316.274a6.851,6.851,0,0,1,.964.069c4.1.581,5.463,4.584,5.206,7.168,6.857,2.176,4.858,8.663.278,8.663a6.621,6.621,0,0,1-3.828-1.39,3.845,3.845,0,0,1-2.468,1.033c-1.256,0-2.456-.84-3.091-2.908a5.5,5.5,0,0,1-3.156,1.205,3.144,3.144,0,0,1-.431-6.246c.5-5.3,3.357-7.594,6.527-7.594m0-1.465h0c-3.282,0-6.976,2.114-7.868,7.961a4.6,4.6,0,0,0,1.772,8.809,5.948,5.948,0,0,0,2.478-.577,4.329,4.329,0,0,0,3.77,2.28,4.96,4.96,0,0,0,2.515-.729,7.665,7.665,0,0,0,3.782,1.086,5.531,5.531,0,0,0,5.578-4.606c.325-2.1-.667-4.963-4.373-6.536-.157-3.109-2.068-6.979-6.483-7.605a8.336,8.336,0,0,0-1.17-.083Z" transform="translate(-502.655 -314.809)"/><path class="k" d="M518.391,346.815c-1.844,1.609-4.5,1.593-5.56-1.872-5.39,3.874-8.216-2.68-4.633-4.65.95,1.348,2.974,1.956,5.616.054,1.065,3.465,3.716,3.48,5.56,1.872,2.712,1.942,5.177,1.637,6.632.382C527.715,346.164,523.49,350.466,518.391,346.815Z" transform="translate(-505.136 -330.841)"/><path class="l" d="M526.312,331.516c-.172-1.67-1.481-3.4-4.43-4.339.258-2.584-1.109-6.59-5.208-7.172-3.535-.5-6.943,1.7-7.49,7.526a3.165,3.165,0,0,0-2.548,2.331,3.112,3.112,0,0,1,2.612-3.511c.547-5.83,3.956-8.028,7.49-7.526,4.1.582,5.466,4.588,5.208,7.172C525.606,327.154,526.74,329.541,526.312,331.516Z" transform="translate(-505.141 -317.292)"/></g><g transform="translate(69.637 43.261)"><path class="j" d="M531.245,278.4c2.326,1,6.451.909,8.2-2.728,1.508-3.14.469-6.956-4.789-9.182.4-5.073-7.934-4.824-5.744,1.85-3.536-.032-4.334,2.43-3.381,4.617C518.946,277.881,526.189,285.572,531.245,278.4Z" transform="translate(-521.442 -261.51)"/><path class="i" d="M529.117,260.49a3.049,3.049,0,0,1,3.066,3.515c5.258,2.226,6.3,6.042,4.789,9.182a5.752,5.752,0,0,1-5.427,3.274,7.155,7.155,0,0,1-2.771-.546c-1.475,2.092-3.136,2.919-4.586,2.919-3.519,0-5.793-4.876-1.13-8.362-.946-2.173-.165-4.617,3.314-4.617h.068c-1.193-3.637.737-5.366,2.677-5.365m0-1.465h0a4.4,4.4,0,0,0-3.617,1.8,5.153,5.153,0,0,0-.847,3.753,4.393,4.393,0,0,0-2.75,1.847,4.533,4.533,0,0,0-.545,3.555,6.372,6.372,0,0,0-2.115,6.7,5.228,5.228,0,0,0,4.946,3.612,6.829,6.829,0,0,0,5.1-2.665,8.958,8.958,0,0,0,2.255.291,7.18,7.18,0,0,0,6.748-4.1,7.278,7.278,0,0,0,.324-5.766,9.437,9.437,0,0,0-4.986-5,4.474,4.474,0,0,0-1.157-2.6,4.57,4.57,0,0,0-3.356-1.438Z" transform="translate(-518.972 -259.025)"/><path class="k" d="M527.793,286.074c.136,3.537,4.779,5.859,8.343.81,2.073.889,4.1,3.6,6.068,1.019a6.185,6.185,0,0,1-.617,2.3c-1.743,3.641-5.871,3.732-8.2,2.731C528.754,299.507,523.752,290.9,527.793,286.074Z" transform="translate(-523.588 -276.042)"/><path class="l" d="M550.53,275.667a5.639,5.639,0,0,1-1.937,2.28,5.739,5.739,0,0,0,1.336-1.81c1.5-3.14.469-6.955-4.791-9.181a3.086,3.086,0,0,0-4.614-3.109,3.087,3.087,0,0,1,5.22,2.641C551,268.712,552.039,272.529,550.53,275.667Z" transform="translate(-532.53 -261.507)"/></g><g transform="translate(60.958 54.943)"><path class="j" d="M511.216,301.208c.774-1.759.733-4.89-2.016-6.239-2.373-1.165-5.275-.4-7,3.574-3.847-.336-3.713,5.989,1.366,4.371-.047,2.683,1.815,3.3,3.481,2.6C510.74,310.537,516.624,305.091,511.216,301.208Z" transform="translate(-498.051 -293.006)"/><path class="i" d="M504.666,291.986a4.663,4.663,0,0,1,2.054.5c2.749,1.35,2.791,4.48,2.016,6.239,3.854,2.767,1.975,6.327-.76,6.327a4.317,4.317,0,0,1-3.408-2.026,3.221,3.221,0,0,1-1.25.27c-1.226,0-2.267-.852-2.231-2.867a5.112,5.112,0,0,1-1.543.265,2.329,2.329,0,1,1-.115-4.649c.094,0,.192,0,.291.013,1.247-2.876,3.112-4.071,4.945-4.07m0-1.465v0c-2.386,0-4.492,1.483-5.882,4.1a3.671,3.671,0,0,0-2.7,1.811,3.915,3.915,0,0,0-.012,3.853,3.861,3.861,0,0,0,3.472,1.868q.15,0,.3-.009a3.806,3.806,0,0,0,.912,1.574,3.546,3.546,0,0,0,2.559,1.036,4.337,4.337,0,0,0,.742-.065,5.425,5.425,0,0,0,3.916,1.82,4.378,4.378,0,0,0,4.206-3.008,5.036,5.036,0,0,0-1.745-5.286,6.024,6.024,0,0,0-5.771-7.7Z" transform="translate(-495.572 -290.521)"/><path class="k" d="M507.047,312.475c-1.667.708-3.528.088-3.482-2.594-4.682,1.488-5.165-3.773-2.191-4.335.359,1.166,1.643,2.059,3.939,1.328-.047,2.682,1.815,3.3,3.482,2.594,1.462,1.989,3.266,2.34,4.578,1.792C513.756,314.159,509.8,316.215,507.047,312.475Z" transform="translate(-498.05 -299.973)"/><path class="l" d="M513.094,306.093c.263-1.214-.261-2.734-2.12-4.07.775-1.758.733-4.891-2.017-6.242-2.373-1.162-5.276-.4-7,3.575a2.342,2.342,0,0,0-2.328,1.054,2.3,2.3,0,0,1,2.644-1.87c1.724-3.976,4.627-4.74,7-3.574,2.75,1.35,2.792,4.483,2.017,6.242C513.6,302.863,513.849,304.8,513.094,306.093Z" transform="translate(-498.125 -293.004)"/></g><g transform="translate(63.709 104.194)"><path class="j" d="M522.318,432.929c-.883-2.918-4.167-6.646-8.872-5.433-4.061,1.047-6.768,4.964-4.74,11.532-4.98,3.568,1.712,11.047,6.159,3.854,2.714,3.281,5.6,2.106,6.874-.468C531.379,444.658,532.843,432.022,522.318,432.929Z" transform="translate(-505.476 -425.796)"/><path class="i" d="M512.76,424.776c3.735,0,6.305,3.139,7.071,5.668q.549-.047,1.054-.047c8.566,0,7.879,9.8.566,9.8a9.719,9.719,0,0,1-2.2-.267,3.976,3.976,0,0,1-3.4,2.472,4.644,4.644,0,0,1-3.471-2c-1.349,2.183-2.905,3.015-4.279,3.015a3.717,3.717,0,0,1-1.879-6.868c-2.028-6.569.68-10.485,4.74-11.532a7.183,7.183,0,0,1,1.8-.236m0-1.465v0a8.691,8.691,0,0,0-2.166.282,8.467,8.467,0,0,0-5.375,4.031c-.9,1.609-1.7,4.34-.663,8.417a5.031,5.031,0,0,0-1.32,5.187,5.213,5.213,0,0,0,4.863,3.65,5.928,5.928,0,0,0,4.455-2.254,5.272,5.272,0,0,0,3.3,1.243,5.1,5.1,0,0,0,4.134-2.31,10.5,10.5,0,0,0,1.468.106c4.635,0,7.137-3.293,7.137-6.392,0-3.052-2.41-6.337-7.7-6.338h-.06a9.158,9.158,0,0,0-8.065-5.622Z" transform="translate(-502.989 -423.311)"/><path class="k" d="M521.737,454.549c-1.277,2.574-4.159,3.75-6.873.471-4.1,6.628-10.117.789-7.116-2.959,1.637,1.035,4.105.784,6.115-2.469,2.714,3.279,5.6,2.1,6.873-.471,3.815.886,6.351-.554,7.365-2.569C531.557,449.649,528.911,456.216,521.737,454.549Z" transform="translate(-505.473 -437.932)"/><path class="l" d="M529.537,436.953c-.938-1.734-3.137-3.023-6.757-2.713-.882-2.919-4.169-6.649-8.875-5.436-4.058,1.051-6.766,4.969-4.739,11.533a3.716,3.716,0,0,0-1.715,3.675,3.655,3.655,0,0,1,1.253-4.984c-2.029-6.57.678-10.488,4.739-11.533,4.707-1.213,7.993,2.517,8.875,5.436C526.809,432.54,529.113,434.618,529.537,436.953Z" transform="translate(-505.475 -425.795)"/></g><g transform="translate(2.005 11.436)"><path class="n" d="M397.24,188.68l-7.968,1.783-44.5,9.958c1.658-2.753,3.808-4.647,6.223-5.269l.073-.021L392.5,183.259l8.859-2.538A23.433,23.433,0,0,0,397.24,188.68Z" transform="translate(-341.75 -177.939)"/><path class="i" d="M396.229,176a23.433,23.433,0,0,0-4.113,7.959l-7.968,1.783-44.5,9.958c1.658-2.752,3.808-4.646,6.223-5.269l.073-.021,41.428-11.871L396.229,176m4.389-2.782-4.793,1.373-8.859,2.539L345.539,189l-.059.017c-2.732.712-5.183,2.761-7.089,5.926l-1.767,2.933,3.341-.748,44.5-9.958,7.968-1.783.809-.181.261-.787a22.206,22.206,0,0,1,3.824-7.454l3.288-3.748Z" transform="translate(-336.625 -173.221)"/></g><path class="o" d="M389.272,194.769l-44.5,9.958c1.658-2.753,3.808-4.647,6.223-5.269l.073-.021L392.5,187.565A71.173,71.173,0,0,0,389.272,194.769Z" transform="translate(-339.745 -170.809)"/><g transform="translate(0.982 20.183)"><path class="p" d="M392.285,209.506l-8.36,1.333L339.8,217.886a21.407,21.407,0,0,1,1.844-3.965l44.5-9.958,7.968-1.783A54.915,54.915,0,0,0,392.285,209.506Z" transform="translate(-337.599 -200.185)"/><path class="i" d="M390.381,198.8a54.934,54.934,0,0,0-1.829,7.327l-8.36,1.333L336.068,214.5a21.451,21.451,0,0,1,1.844-3.965l44.5-9.958,7.968-1.783m2.2-1.994-2.522.564-7.968,1.783-44.5,9.958-.61.136-.323.534a22.925,22.925,0,0,0-1.972,4.237l-.819,2.322,2.432-.388,44.125-7.047,8.359-1.333,1.024-.163.187-1.02a53.554,53.554,0,0,1,1.778-7.13l.811-2.454Z" transform="translate(-333.867 -196.803)"/></g><path class="q" d="M383.925,213.863,339.8,220.91a21.407,21.407,0,0,1,1.844-3.965l44.5-9.958A69.931,69.931,0,0,0,383.925,213.863Z" transform="translate(-336.618 -183.027)"/><g transform="translate(0.226 27.73)"><path class="n" d="M389.389,228.45l-8.763,1.061-42.418,5.128-1.572.191a28.2,28.2,0,0,1,.865-3.583c.1-.319.2-.628.309-.936l44.125-7.047,8.36-1.333C389.914,223.983,389.608,226.168,389.389,228.45Z" transform="translate(-334.853 -220.159)"/><path class="i" d="M387.271,218.925c-.38,2.05-.687,4.235-.9,6.517L377.6,226.5l-42.418,5.128-1.572.191a28.185,28.185,0,0,1,.865-3.583c.1-.319.2-.628.309-.936l44.125-7.047,8.36-1.333m1.819-1.774-2.049.327-8.36,1.333-44.125,7.047-.862.138-.289.823c-.124.352-.231.676-.327.993a29.621,29.621,0,0,0-.907,3.76l-.339,1.944,1.959-.238,1.572-.191,42.418-5.128,8.763-1.062,1.17-.142.112-1.173c.211-2.2.509-4.35.887-6.39l.378-2.04Z" transform="translate(-331.83 -217.151)"/></g><path class="o" d="M382.093,231.772,339.674,236.9c-.253-1.192-.49-2.334-.707-3.392.1-.319.2-.628.309-.936l44.125-7.047A60.324,60.324,0,0,0,382.093,231.772Z" transform="translate(-336.094 -194.69)"/><g transform="translate(0 34.346)"><path class="p" d="M388.116,247.475l-8.957.544L338.441,250.5l-3.136.189a32.792,32.792,0,0,1,.494-4.8l1.572-.191,42.418-5.128,8.763-1.061C388.3,242.044,388.151,244.715,388.116,247.475Z" transform="translate(-333.79 -237.831)"/><path class="i" d="M385.982,236.665c-.254,2.54-.4,5.21-.436,7.97l-8.957.544-40.718,2.479-3.136.188a32.791,32.791,0,0,1,.494-4.8l1.572-.191,42.418-5.128,8.763-1.061m1.64-1.674-1.816.22-8.763,1.062L334.625,241.4l-1.573.191-1.072.131-.193,1.062a34.246,34.246,0,0,0-.517,5.016l-.051,1.6,1.6-.1,3.136-.189,40.719-2.479,8.957-.544,1.359-.083.017-1.361c.034-2.7.179-5.338.429-7.843l.182-1.82Z" transform="translate(-331.22 -234.991)"/></g><path class="q" d="M382.662,249.818,341.944,252.3c-.375-1.623-.736-3.25-1.07-4.8l42.418-5.128A52.823,52.823,0,0,0,382.662,249.818Z" transform="translate(-337.293 -205.284)"/><g transform="translate(0.03 42.432)"><path class="n" d="M388.278,268.838l-8.684-.092-40.115-.427-4.105-.045c-.058-.666-.093-1.345-.111-2.031s-.017-1.368.008-2.04l3.136-.189,40.718-2.479,8.957-.544q-.022,1.939.025,3.923C388.139,266.244,388.2,267.554,388.278,268.838Z" transform="translate(-333.786 -259.434)"/><path class="i" d="M385.6,258.35q-.022,1.939.025,3.923c.032,1.329.092,2.639.171,3.923l-8.684-.092-40.115-.427-4.105-.045c-.058-.666-.093-1.345-.111-2.031s-.017-1.369.008-2.04l3.136-.188,40.718-2.479,8.957-.544m1.483-1.558-1.572.1-8.957.544-40.718,2.479-3.135.188-1.327.08-.049,1.329c-.025.673-.028,1.39-.009,2.132s.058,1.451.116,2.119l.115,1.324,1.329.014,4.105.045,40.116.427,8.684.092,1.575.017-.1-1.572c-.082-1.323-.139-2.624-.169-3.869-.031-1.284-.039-2.587-.025-3.871l.018-1.574Z" transform="translate(-331.301 -256.792)"/></g><path class="o" d="M384.947,269.668l-40.115-.427c-.368-1.382-.728-2.839-1.072-4.3l40.718-2.479A46.5,46.5,0,0,0,384.947,269.668Z" transform="translate(-339.109 -217.924)"/><g transform="translate(0.029 49.79)"><path class="p" d="M389.321,289.123l-7.709-.541-40.39-2.843-4.911-.343a33.088,33.088,0,0,1-.729-4.77l4.105.045,40.115.427,8.684.092C388.664,283.946,388.948,286.6,389.321,289.123Z" transform="translate(-333.993 -279.144)"/><path class="i" d="M332.886,278.111l4.105.045,40.115.427,8.684.092c.178,2.756.461,5.407.835,7.933l-7.709-.541-40.39-2.843-4.911-.343a33.1,33.1,0,0,1-.729-4.77m-1.589-1.482.129,1.6a34.579,34.579,0,0,0,.762,4.982l.244,1.057,1.082.076,4.91.343,40.39,2.843,7.709.541,1.819.128-.267-1.8c-.375-2.534-.652-5.162-.822-7.812l-.087-1.356-1.359-.014-8.684-.092-40.115-.427-4.1-.045-1.605-.017Z" transform="translate(-331.297 -276.629)"/></g><path class="q" d="M388.575,288.658l-40.39-2.843c-.522-1.447-1.037-3.191-1.535-5.069l40.115.427A41.852,41.852,0,0,0,388.575,288.658Z" transform="translate(-340.927 -229.43)"/><g transform="translate(0.478 54.443)"><path class="n" d="M391.789,303.675l-7.357-.8-38.438-4.17-7.045-.765a28.374,28.374,0,0,1-1.4-4.456l4.911.343,40.39,2.843,7.709.541C390.894,299.483,391.306,301.647,391.789,303.675Z" transform="translate(-335.679 -291.888)"/><path class="i" d="M334.378,290.774l4.911.343,40.39,2.843,7.709.541c.336,2.269.747,4.433,1.231,6.461l-7.357-.8-38.438-4.17-7.045-.764a28.376,28.376,0,0,1-1.4-4.456m-1.869-1.6.441,1.926a29.874,29.874,0,0,0,1.474,4.686l.331.805.866.094,7.045.764,38.438,4.17,7.357.8,2.064.224-.481-2.02c-.471-1.98-.878-4.112-1.207-6.336l-.172-1.165-1.175-.082-7.709-.541-40.39-2.842-4.911-.344-1.971-.138Z" transform="translate(-332.509 -289.175)"/></g><path class="o" d="M392.761,303.46l-38.438-4.17a8.169,8.169,0,0,1-2.077-1.713,14.979,14.979,0,0,1-1.458-3.164l40.39,2.843c.142.419.293.834.451,1.252A15.439,15.439,0,0,1,392.761,303.46Z" transform="translate(-343.53 -238.027)"/><g transform="translate(1.454 58.775)"><path class="p" d="M396.361,318.461l-13.7-2.352-21.5-3.692-17.792-3.054a21.5,21.5,0,0,1-2.042-3.863l7.045.765,38.438,4.17,7.357.8A55.5,55.5,0,0,0,396.361,318.461Z" transform="translate(-339.03 -303.777)"/><path class="i" d="M337.433,302.578l7.045.764,38.438,4.17,7.357.8a55.5,55.5,0,0,0,2.2,7.228l-13.7-2.352-21.5-3.692-17.792-3.054a21.477,21.477,0,0,1-2.042-3.863m-2.294-1.723.939,2.281a22.932,22.932,0,0,0,2.184,4.127l.35.516.615.106,17.792,3.054,21.5,3.692,13.7,2.352,2.547.437-.932-2.41a54.11,54.11,0,0,1-2.138-7.037l-.238-1.008-1.03-.112-7.356-.8-38.438-4.17-7.045-.765-2.452-.266Z" transform="translate(-335.139 -300.855)"/></g><path class="q" d="M394.608,317.406c-5.039,1.453-13.816-.758-21.5-3.692a74.015,74.015,0,0,1-12.789-6.152l38.438,4.17A5.224,5.224,0,0,1,394.608,317.406Z" transform="translate(-349.526 -246.299)"/><g transform="translate(2.667 62.338)"><path class="n" d="M404.331,332.754l-50.946-11.873-.077-.015c-2.442-.5-4.683-2.28-6.477-4.952l17.792,3.054,21.5,3.692,13.7,2.352A23.4,23.4,0,0,0,404.331,332.754Z" transform="translate(-343.707 -313.891)"/><path class="i" d="M341.533,312.484l17.792,3.054,21.5,3.692,13.7,2.352a23.4,23.4,0,0,0,4.506,7.741L348.088,317.45l-.077-.015c-2.442-.5-4.683-2.28-6.477-4.952m-3.123-2.023,1.907,2.839c2.066,3.077,4.625,5,7.4,5.571l.064.012L398.7,330.75l4.853,1.131-3.469-3.578a22.153,22.153,0,0,1-4.192-7.251l-.3-.774-.818-.141-13.7-2.352-21.5-3.692-17.792-3.054-3.371-.579Z" transform="translate(-338.41 -310.461)"/></g><path class="r" d="M416.3,327.841c-5.039,1.453-13.816-.758-21.5-3.692Z" transform="translate(-371.219 -256.734)"/><g transform="translate(45.786 86.979)"><path class="j" d="M467.471,389.029c1.594-.836,3.392-3.155,2.166-5.748-1.058-2.239-3.63-3.375-7.215-1.469-2.622-2.492-6.217,2.219-1.551,4-1.6,1.938-.6,3.481,1.034,3.935C461.674,395.586,469.166,395.033,467.471,389.029Z" transform="translate(-457.148 -379.38)"/><path class="i" d="M463.335,378.36a4.079,4.079,0,0,1,3.819,2.436c1.226,2.594-.572,4.912-2.166,5.749.893,3.163-.764,4.813-2.5,4.813-1.557,0-3.177-1.332-3.068-4.1-1.635-.454-2.636-2-1.034-3.935-3.726-1.422-2.185-4.712-.077-4.712a2.351,2.351,0,0,1,1.629.712,7.306,7.306,0,0,1,3.4-.966m0-1.465v0a8.164,8.164,0,0,0-3.241.731,3.6,3.6,0,0,0-1.783-.477,3.66,3.66,0,0,0-1.948,6.749,3.512,3.512,0,0,0-.1,2.3,3.582,3.582,0,0,0,1.722,2.045,5.278,5.278,0,0,0,1.4,3.236,4.278,4.278,0,0,0,3.1,1.339,4.08,4.08,0,0,0,3.28-1.627,5.238,5.238,0,0,0,.856-3.987,5.774,5.774,0,0,0,1.853-7.039,5.509,5.509,0,0,0-5.144-3.275Z" transform="translate(-454.665 -376.895)"/><path class="k" d="M461.907,390.176c-1.635-.455-2.637-2-1.036-3.934-4.3-1.645-1.581-5.78.926-4.456-.418,1.064,0,2.468,2.111,3.273-1.6,1.938-.6,3.479,1.036,3.934-.091,2.311,1.026,3.622,2.308,3.987C465.839,395.329,461.737,394.522,461.907,390.176Z" transform="translate(-457.149 -379.81)"/><path class="l" d="M467.263,393.662c.9-.736,1.405-2.155.824-4.22,1.595-.836,3.394-3.156,2.168-5.751-1.06-2.237-3.633-3.373-7.215-1.468a2.2,2.2,0,0,0-2.322-.587,2.158,2.158,0,0,1,3.03.174c3.585-1.906,6.158-.771,7.215,1.468,1.226,2.6-.573,4.915-2.168,5.751C469.52,391.591,468.571,393.158,467.263,393.662Z" transform="translate(-458.473 -379.379)"/></g><g transform="translate(89.578 40.761)"><path class="j" d="M587.492,263.126c.98-1.51,1.411-4.412-.928-6.073-2.02-1.433-4.818-1.163-7.01,2.254-3.507-.888-4.333,4.981.607,4.247-.446,2.475,1.183,3.328,2.83,2.924C585.651,271.683,591.91,267.529,587.492,263.126Z" transform="translate(-575.223 -254.77)"/><path class="i" d="M581.624,253.75a4.229,4.229,0,0,1,2.451.819c2.339,1.661,1.908,4.562.928,6.073,2.953,2.944,1.136,5.775-1.188,5.775a3.841,3.841,0,0,1-3.313-2.422,3.236,3.236,0,0,1-.767.1c-1.34,0-2.439-.934-2.062-3.02a5.558,5.558,0,0,1-.816.064c-3.715,0-3.2-4.4-.493-4.4a2.88,2.88,0,0,1,.7.092c1.393-2.172,3.031-3.073,4.558-3.073m0-1.465a6.7,6.7,0,0,0-5.256,2.981h0a3.561,3.561,0,0,0-3.123,1.788,3.687,3.687,0,0,0-.03,3.676,3.85,3.85,0,0,0,2.975,1.829,3.565,3.565,0,0,0,.776,1.774,3.528,3.528,0,0,0,2.773,1.223,4.979,4.979,0,0,0,4.082,2.326,4.162,4.162,0,0,0,3.876-2.553,4.8,4.8,0,0,0-.932-4.914,5.775,5.775,0,0,0-1.835-7.041,5.693,5.693,0,0,0-3.3-1.089h0Z" transform="translate(-572.734 -252.285)"/><path class="k" d="M582.991,271.537c-1.648.4-3.276-.448-2.831-2.922-4.554.673-4.21-4.265-1.376-4.338.156,1.133,1.21,2.151,3.444,1.819-.446,2.474,1.183,3.327,2.831,2.922,1.054,2.059,2.669,2.655,3.965,2.345C588.943,274.1,584.972,275.409,582.991,271.537Z" transform="translate(-575.221 -259.829)"/><path class="l" d="M588.66,267.915c.425-1.084.169-2.567-1.35-4.083.981-1.51,1.412-4.413-.928-6.075-2.02-1.431-4.819-1.161-7.009,2.255a2.195,2.195,0,0,0-2.311.626,2.159,2.159,0,0,1,2.727-1.333c2.191-3.419,4.991-3.689,7.009-2.255,2.34,1.662,1.909,4.565.928,6.075C589.613,265,589.553,266.834,588.66,267.915Z" transform="translate(-575.457 -254.768)"/></g><g transform="translate(21.777 103.848)"><path class="j" d="M401.735,428.238c-1.095-1.43-3.684-2.808-6.032-1.161-2.027,1.422-2.711,4.15-.225,7.36-2.012,3.007,3.241,5.751,4.205.851,2.182,1.25,3.532,0,3.7-1.686C409.181,432.84,407.365,425.55,401.735,428.238Z" transform="translate(-392.417 -424.862)"/><path class="i" d="M395.517,423.842a4.954,4.954,0,0,1,3.735,1.91,5.431,5.431,0,0,1,2.321-.592c3.688,0,4.229,5.311-.671,5.956a2.164,2.164,0,0,1-2.057,2.194,3.352,3.352,0,0,1-1.645-.507c-.382,1.942-1.438,2.683-2.448,2.683a2.2,2.2,0,0,1-1.757-3.534c-2.486-3.21-1.8-5.937.225-7.36a3.944,3.944,0,0,1,2.3-.75m0-1.465a5.381,5.381,0,0,0-3.14,1.016A5.594,5.594,0,0,0,390,427.139a7.029,7.029,0,0,0,1.3,4.949,3.52,3.52,0,0,0,.2,2.9,3.656,3.656,0,0,0,6.614-.284,3.94,3.94,0,0,0,.741.072,3.454,3.454,0,0,0,3.269-2.41,4.722,4.722,0,0,0,3.8-4.777,4.176,4.176,0,0,0-4.341-3.893,6.252,6.252,0,0,0-1.944.329,6.294,6.294,0,0,0-4.111-1.647Z" transform="translate(-389.933 -422.377)"/></g><path class="k" d="M405.322,436.2c-.171,1.688-1.52,2.937-3.7,1.688-.892,4.516-5.429,2.538-4.549-.157,1.12.232,2.432-.419,2.868-2.635,2.181,1.249,3.53,0,3.7-1.688,2.293-.3,3.4-1.625,3.538-2.951C409.733,431.447,409.634,435.627,405.322,436.2Z" transform="translate(-372.577 -323.61)"/><g transform="translate(104.522 60.244)"><path class="j" d="M622.895,319.732c1.654.711,4.587.646,5.829-1.94,1.072-2.232.333-4.946-3.4-6.529.283-3.607-5.641-3.43-4.084,1.316-2.514-.023-3.081,1.728-2.4,3.283C614.15,319.363,619.3,324.831,622.895,319.732Z" transform="translate(-615.501 -307.3)"/><path class="i" d="M620.663,306.28a2.168,2.168,0,0,1,2.181,2.5c3.738,1.583,4.477,4.3,3.4,6.529a4.09,4.09,0,0,1-3.859,2.328,5.088,5.088,0,0,1-1.97-.388,4.144,4.144,0,0,1-3.261,2.076c-2.5,0-4.119-3.467-.8-5.946-.673-1.546-.118-3.283,2.356-3.283h.048c-.848-2.586.524-3.815,1.9-3.815m0-1.465v0a3.548,3.548,0,0,0-2.915,1.457,3.976,3.976,0,0,0-.711,2.61,3.514,3.514,0,0,0-1.858,1.387,3.59,3.59,0,0,0-.495,2.615,4.894,4.894,0,0,0-1.444,5.045,4.14,4.14,0,0,0,3.918,2.858,5.115,5.115,0,0,0,3.776-1.847,6.807,6.807,0,0,0,1.455.159,5.515,5.515,0,0,0,5.179-3.159,5.594,5.594,0,0,0,.245-4.433,7.03,7.03,0,0,0-3.556-3.683,3.61,3.61,0,0,0-.9-1.854,3.674,3.674,0,0,0-2.7-1.158Z" transform="translate(-613.026 -304.815)"/><path class="k" d="M617.866,329.3c.1,2.515,3.4,4.166,5.932.576a4.585,4.585,0,0,0,5.364-1.185,4.4,4.4,0,0,1-.439,1.635c-1.24,2.589-4.174,2.653-5.828,1.942C619.6,336.944,614.993,332.734,617.866,329.3Z" transform="translate(-615.502 -319.837)"/><path class="l" d="M636.606,317.789a4.009,4.009,0,0,1-1.378,1.62,4.073,4.073,0,0,0,.95-1.287c1.069-2.232.333-4.945-3.406-6.528a2.194,2.194,0,0,0-3.281-2.211,2.2,2.2,0,0,1,3.712,1.878C636.94,312.844,637.679,315.558,636.606,317.789Z" transform="translate(-623.385 -307.298)"/></g><g transform="translate(82.028 65.286)"><path class="j" d="M562.247,333.327c1.654.711,4.587.646,5.829-1.94,1.072-2.232.333-4.945-3.405-6.528.283-3.607-5.641-3.43-4.084,1.316-2.514-.023-3.081,1.727-2.4,3.282C553.5,332.957,558.653,338.425,562.247,333.327Z" transform="translate(-554.854 -320.894)"/><path class="i" d="M560.015,319.874a2.168,2.168,0,0,1,2.18,2.5c3.738,1.583,4.477,4.3,3.405,6.528a4.09,4.09,0,0,1-3.858,2.328,5.091,5.091,0,0,1-1.971-.388,4.143,4.143,0,0,1-3.26,2.076c-2.5,0-4.119-3.466-.8-5.945-.673-1.545-.118-3.283,2.356-3.283h.048c-.849-2.586.524-3.815,1.9-3.815m0-1.465h0a3.548,3.548,0,0,0-2.914,1.457,3.973,3.973,0,0,0-.711,2.611,3.51,3.51,0,0,0-1.858,1.387,3.589,3.589,0,0,0-.495,2.615,4.895,4.895,0,0,0-1.444,5.045,4.14,4.14,0,0,0,3.919,2.858,5.116,5.116,0,0,0,3.776-1.847,6.806,6.806,0,0,0,1.455.159,5.515,5.515,0,0,0,5.179-3.159,5.6,5.6,0,0,0,.245-4.433,7.032,7.032,0,0,0-3.556-3.683,3.6,3.6,0,0,0-.9-1.853,3.674,3.674,0,0,0-2.7-1.158Z" transform="translate(-552.378 -318.409)"/><path class="k" d="M557.219,342.9c.1,2.514,3.4,4.166,5.932.575a4.585,4.585,0,0,0,5.364-1.185,4.4,4.4,0,0,1-.439,1.634c-1.239,2.589-4.174,2.654-5.828,1.942C558.952,350.539,554.346,346.329,557.219,342.9Z" transform="translate(-554.855 -333.432)"/><path class="l" d="M575.959,331.383A4.011,4.011,0,0,1,574.582,333a4.092,4.092,0,0,0,.95-1.287c1.069-2.233.333-4.945-3.406-6.528a2.194,2.194,0,0,0-3.281-2.211,2.2,2.2,0,0,1,3.712,1.878C576.293,326.438,577.032,329.152,575.959,331.383Z" transform="translate(-562.737 -320.892)"/></g><g transform="translate(52.853 10.315)"><path class="s" d="M491.16,245.782a6.183,6.183,0,0,1-4.519-2.213c-4.864-5.013-8.554-17.988-8.938-33.286s2.651-28.445,7.257-33.7a6.183,6.183,0,0,1,4.4-2.437c1.891-.047,3.716,1.1,5.378,3.2a4.262,4.262,0,0,0-1.146-.131c-6.322.159-11.083,14.9-10.63,32.935s5.947,32.515,12.269,32.357a4.271,4.271,0,0,0,1.138-.188C494.816,244.5,493.051,245.735,491.16,245.782Z" transform="translate(-476.205 -172.684)"/><path class="i" d="M486.99,171.664c1.851,0,3.636,1.145,5.266,3.2a4.29,4.29,0,0,0-1.046-.132h-.1c-6.322.159-11.083,14.9-10.63,32.935.45,17.93,5.888,32.358,12.166,32.358h.1a4.271,4.271,0,0,0,1.138-.188c-1.556,2.176-3.32,3.415-5.211,3.462h-.113a6.253,6.253,0,0,1-4.406-2.214c-4.864-5.013-8.554-17.988-8.938-33.286s2.651-28.445,7.257-33.7a6.184,6.184,0,0,1,4.4-2.437h.113m0-1.465-.149,0a7.553,7.553,0,0,0-5.466,2.935c-5.015,5.717-8.007,19.337-7.621,34.7s4.056,28.812,9.352,34.269a7.626,7.626,0,0,0,5.457,2.659l.149,0c2.333-.059,4.475-1.43,6.367-4.075a1.465,1.465,0,0,0-1.618-2.254,2.815,2.815,0,0,1-.749.125h-.066c-4.694,0-10.244-12.7-10.7-30.929-.461-18.377,4.48-31.315,9.2-31.433h.064a2.843,2.843,0,0,1,.69.088,1.465,1.465,0,0,0,1.5-2.332c-1.976-2.49-4.134-3.752-6.413-3.752Z" transform="translate(-473.719 -170.199)"/></g><g transform="translate(62.987 76.309)"><path class="j" d="M509.128,359.491a4.153,4.153,0,0,0,5.039,3.307c2.558-.553,4.494-2.8,3.722-6.674,3.3-2.014-.259-6.485-3.492-2.344-1.426-1.958-3.275-1.313-4.238.173C504.422,352.5,502.625,359.868,509.128,359.491Z" transform="translate(-503.528 -350.614)"/><path class="i" d="M514.692,349.594c1.962,0,3.031,2.629.712,4.044.772,3.87-1.164,6.121-3.722,6.674a4.811,4.811,0,0,1-1.015.112,4.188,4.188,0,0,1-4.024-3.419c-.162.009-.319.014-.472.014-5.39,0-4.366-5.742.053-5.742a5.906,5.906,0,0,1,1.449.19,2.767,2.767,0,0,1,2.211-1.4,2.541,2.541,0,0,1,2.027,1.223,3.692,3.692,0,0,1,2.781-1.7m0-1.465h0a4.386,4.386,0,0,0-2.82,1.1,3.55,3.55,0,0,0-1.987-.625,3.958,3.958,0,0,0-2.8,1.261,6.881,6.881,0,0,0-.861-.055c-3.243,0-5.181,2.324-5.181,4.571a3.77,3.77,0,0,0,1.412,2.958,5.474,5.474,0,0,0,3.119,1.122,5.548,5.548,0,0,0,5.094,3.426,6.3,6.3,0,0,0,1.325-.145c2.913-.63,5.47-3.171,4.992-7.481a3.592,3.592,0,0,0,1.074-3.6,3.457,3.457,0,0,0-3.365-2.536Z" transform="translate(-501.043 -348.129)"/><path class="k" d="M508.817,356.627c-2.132,1.632-1.67,5.207,2.91,4.943a4.175,4.175,0,0,0,4.116,3.414,5.166,5.166,0,0,1-1.674.672,4.15,4.15,0,0,1-5.04-3.3C503.166,362.7,504.18,356.528,508.817,356.627Z" transform="translate(-503.528 -353.474)"/><path class="l" d="M526,362.819a4.32,4.32,0,0,1-2.2-.062,4.483,4.483,0,0,0,1.665-.062c2.557-.555,4.494-2.8,3.721-6.675,2.005-1.222,1.481-3.349.037-3.905,1.825.175,2.738,2.666.5,4.032C530.489,360.016,528.553,362.267,526,362.819Z" transform="translate(-515.355 -350.637)"/></g><g transform="translate(56.151 42.643)"><path class="j" d="M492.479,272.276c1.654.711,4.587.646,5.829-1.94,1.072-2.232.333-4.946-3.4-6.528.283-3.607-5.641-3.43-4.084,1.316-2.514-.023-3.081,1.727-2.4,3.282C483.734,271.907,488.884,277.375,492.479,272.276Z" transform="translate(-485.085 -259.844)"/><path class="i" d="M490.247,258.824a2.168,2.168,0,0,1,2.181,2.5c3.738,1.583,4.477,4.3,3.4,6.528a4.09,4.09,0,0,1-3.858,2.328,5.081,5.081,0,0,1-1.97-.388,4.144,4.144,0,0,1-3.261,2.076c-2.5,0-4.119-3.466-.8-5.945-.672-1.545-.117-3.283,2.356-3.283h.048c-.848-2.586.524-3.815,1.9-3.815m0-1.465h0a3.548,3.548,0,0,0-2.915,1.457,3.976,3.976,0,0,0-.711,2.611,3.508,3.508,0,0,0-1.858,1.387,3.587,3.587,0,0,0-.5,2.614,4.894,4.894,0,0,0-1.444,5.046,4.139,4.139,0,0,0,3.918,2.858,5.113,5.113,0,0,0,3.776-1.847,6.807,6.807,0,0,0,1.455.159,5.515,5.515,0,0,0,5.179-3.159,5.6,5.6,0,0,0,.245-4.433,7.031,7.031,0,0,0-3.556-3.682,3.611,3.611,0,0,0-.9-1.854,3.674,3.674,0,0,0-2.7-1.158Z" transform="translate(-482.61 -257.359)"/><path class="k" d="M487.451,281.849c.1,2.514,3.4,4.166,5.932.575a4.585,4.585,0,0,0,5.364-1.185,4.4,4.4,0,0,1-.439,1.634c-1.24,2.589-4.174,2.654-5.828,1.942C489.183,289.489,484.577,285.279,487.451,281.849Z" transform="translate(-485.086 -272.382)"/><path class="l" d="M506.19,270.333a4.012,4.012,0,0,1-1.378,1.621,4.083,4.083,0,0,0,.95-1.287c1.069-2.233.333-4.945-3.406-6.528a2.194,2.194,0,0,0-3.281-2.211,2.2,2.2,0,0,1,3.712,1.878C506.524,265.388,507.263,268.1,506.19,270.333Z" transform="translate(-492.969 -259.842)"/></g><g transform="translate(86.412 0)"><path class="j" d="M572.889,155.248a3.791,3.791,0,0,0,5.23-.035c1.456-1.524,1.572-3.916-1.037-6.181,1.179-2.845-3.663-4.262-3.652-.011-2.03-.681-2.949.587-2.811,2.024C565.907,152.645,568.636,158.429,572.889,155.248Z" transform="translate(-566.682 -144.873)"/><path class="i" d="M572.9,143.853a1.863,1.863,0,0,1,1.7,2.693c2.609,2.266,2.493,4.657,1.037,6.182a3.338,3.338,0,0,1-2.476,1.075,4.348,4.348,0,0,1-2.754-1.04,4.106,4.106,0,0,1-2.419.94c-2.65,0-3.574-3.878.149-5.143a1.806,1.806,0,0,1,1.767-2.213,3.307,3.307,0,0,1,1.044.189c0-1.918.978-2.683,1.95-2.682m0-1.465a3.194,3.194,0,0,0-2.277.942,3.725,3.725,0,0,0-.909,1.556,3.133,3.133,0,0,0-2.189,1,3.339,3.339,0,0,0-.806,1.689,4.279,4.279,0,0,0-2.467,4.45,3.715,3.715,0,0,0,3.738,3.139,5.074,5.074,0,0,0,2.385-.647,5.791,5.791,0,0,0,2.788.747,4.79,4.79,0,0,0,3.536-1.528,4.979,4.979,0,0,0,1.426-3.684,6.156,6.156,0,0,0-1.9-3.984,3.243,3.243,0,0,0-.516-2.192,3.414,3.414,0,0,0-2.811-1.491Z" transform="translate(-564.2 -142.388)"/><path class="k" d="M569.6,160.315c-.584,2.061,1.653,4.268,4.65,2.028a3.9,3.9,0,0,0,4.654.453,3.738,3.738,0,0,1-.786,1.207,3.788,3.788,0,0,1-5.229.037C568.99,166.957,566.37,162.335,569.6,160.315Z" transform="translate(-566.682 -153.666)"/><path class="l" d="M589.02,155.211a3.409,3.409,0,0,1-1.542.949,3.476,3.476,0,0,0,1.108-.791c1.454-1.526,1.572-3.915-1.038-6.182a1.868,1.868,0,0,0-2.074-2.653,1.869,1.869,0,0,1,2.51,2.5C590.593,151.3,590.477,153.687,589.02,155.211Z" transform="translate(-577.584 -144.873)"/></g></g><g transform="translate(318.735 175.758)"><circle class="j" cx="2.083" cy="2.083" r="2.083" transform="translate(1.465 1.465)"/><path class="i" d="M441.238,359.68a2.083,2.083,0,1,1-2.083,2.083,2.083,2.083,0,0,1,2.083-2.083m0-1.465a3.549,3.549,0,1,0,3.548,3.548,3.553,3.553,0,0,0-3.548-3.548Z" transform="translate(-437.69 -358.215)"/></g><g transform="translate(375.428 179.681)"><circle class="j" cx="2.083" cy="2.083" r="2.083" transform="translate(1.465 1.465)"/><path class="i" d="M594.089,370.234a2.083,2.083,0,1,1-2.083,2.083,2.083,2.083,0,0,1,2.083-2.083m0-1.465a3.548,3.548,0,1,0,3.548,3.548,3.552,3.552,0,0,0-3.548-3.548Z" transform="translate(-590.541 -368.769)"/></g><g transform="translate(331.456 175.596)"><circle class="j" cx="1.042" cy="1.042" r="1.042" transform="translate(1.465 1.465)"/><path class="i" d="M474.495,359.254a1.042,1.042,0,1,1-1.041,1.041,1.041,1.041,0,0,1,1.041-1.041m0-1.465A2.507,2.507,0,1,0,477,360.3a2.51,2.51,0,0,0-2.507-2.507Z" transform="translate(-471.988 -357.789)"/></g><g transform="translate(397.366 155.097)"><circle class="j" cx="1.042" cy="1.042" r="1.042" transform="translate(1.465 1.465)"/><path class="i" d="M652.2,304.106a1.042,1.042,0,1,1-1.042,1.041,1.041,1.041,0,0,1,1.042-1.041m0-1.465a2.507,2.507,0,1,0,2.507,2.507,2.51,2.51,0,0,0-2.507-2.507Z" transform="translate(-649.69 -302.641)"/></g><g transform="translate(361.16 134.377)"><circle class="j" cx="1.515" cy="1.515" r="1.515" transform="translate(1.465 1.465)"/><path class="i" d="M555.053,248.361a1.515,1.515,0,1,1-1.515,1.515,1.515,1.515,0,0,1,1.515-1.515m0-1.465a2.98,2.98,0,1,0,2.98,2.98,2.984,2.984,0,0,0-2.98-2.98Z" transform="translate(-552.073 -246.896)"/></g><g transform="translate(385.276 172.339)"><circle class="k" cx="1.515" cy="1.515" r="1.515" transform="translate(1.465 1.465)"/><path class="i" d="M620.074,350.489A1.515,1.515,0,1,1,618.559,352a1.515,1.515,0,0,1,1.515-1.515m0-1.465a2.98,2.98,0,1,0,2.981,2.98,2.984,2.984,0,0,0-2.981-2.98Z" transform="translate(-617.094 -349.024)"/></g></g></svg>