<svg id="poster_default_cms" xmlns="http://www.w3.org/2000/svg" width="164" height="221" viewBox="0 0 164 221">
  <rect id="Rectangle_3188" data-name="Rectangle 3188" width="164" height="221" rx="6" fill="#e5e7f8"/>
  <g id="Group_11132" data-name="Group 11132" transform="translate(39.13 80.397)" opacity="0.203">
    <path id="Path_32328" data-name="Path 32328" d="M-182.365,120.683a25.075,25.075,0,0,0-8.215-1.906,26.412,26.412,0,0,0-8.343.975,24.854,24.854,0,0,0-7.6,3.406,11.52,11.52,0,0,0-2.892,2.774,4.833,4.833,0,0,0-.932,3.481,6.737,6.737,0,0,0,1.724,3.309c.225.246.45.493.7.728l.364.353.364.321.375.3.4.268c.257.193.557.332.835.5a20.273,20.273,0,0,0,7.818,1.885,50.349,50.349,0,0,0,8.332-.171c1.392-.129,2.785-.3,4.166-.514.685-.107,1.382-.214,2.067-.343l1.071-.193.5-.1.257-.054h.214A172.557,172.557,0,0,0-130.6,114.4a2.636,2.636,0,0,1,3.631.846,2.636,2.636,0,0,1-.846,3.631h-.075a177.019,177.019,0,0,1-52.662,19.76h-.578l-.536.086-1.071.161c-.718.107-1.435.193-2.142.268-1.435.161-2.881.278-4.338.364a54.25,54.25,0,0,1-8.739-.182,29.414,29.414,0,0,1-4.4-.7,17.066,17.066,0,0,1-4.209-1.692,9.527,9.527,0,0,1-.975-.632l-.471-.353c-.15-.118-.289-.257-.439-.386l-.428-.4-.386-.407c-.257-.268-.5-.557-.75-.857a8.38,8.38,0,0,1-1.96-4.284,6.081,6.081,0,0,1,.268-2.453,7.509,7.509,0,0,1,1.071-2.142,13.022,13.022,0,0,1,3.4-2.935,25.587,25.587,0,0,1,8.075-3.213,27.031,27.031,0,0,1,8.589-.6,24.682,24.682,0,0,1,4.284.814A26.064,26.064,0,0,1-182.365,120.683Z" transform="translate(212.006 -113.998)" fill="#3e256e"/>
    <path id="Path_32329" data-name="Path 32329" d="M-193.306,161.28a41.928,41.928,0,0,1-10.389-5.13c-1.242-4.466-3.052-10.967-4.605-16.59,3.545,2.474,8.664,3.566,13.923,3.909a.622.622,0,0,1,.589.578l1.307,16.579a.642.642,0,0,1-.6.679A.639.639,0,0,1-193.306,161.28Z" transform="translate(212.269 -112.183)" fill="#3e256e"/>
    <path id="Path_32330" data-name="Path 32330" d="M-167.3,141.269l-3.781,22.406a.643.643,0,0,1-.632.536,93.588,93.588,0,0,1-17.072-1.5.621.621,0,0,1-.5-.6l-.386-17.961a.642.642,0,0,1,.621-.643,100.706,100.706,0,0,0,15.508-1.746c1.714-.353,3.534-.75,5.473-1.21a.633.633,0,0,1,.763.467A.636.636,0,0,1-167.3,141.269Z" transform="translate(213.592 -112.114)" fill="#3e256e"/>
    <path id="Path_32331" data-name="Path 32331" d="M-157.3,164.523c-3.566.236-6.844.386-9.875.461a.643.643,0,0,1-.65-.635.645.645,0,0,1,.018-.157l6.073-24.473a.589.589,0,0,1,.439-.45A231.866,231.866,0,0,0-132.38,128.88" transform="translate(215.143 -112.942)" fill="#3e256e"/>
    <path id="Path_32332" data-name="Path 32332" d="M-161.809,172.853c-1.446,0-2.9,0-4.348-.086-1.756-.054-5.259-.225-9.018-.664-18.111-2.067-27.043-8.44-27.718-10.71-.278-.953-.7-2.42-1.2-4.209l-4.627-16.622c-1.746-6.287-3.16-11.5-3.16-11.5a.707.707,0,0,1,.493-.868.717.717,0,0,1,.868.493s1.414,5.173,3.213,11.46l4.573,16.622c.5,1.789.921,3.213,1.2,4.2.482,1.671,9.393,7.776,26.518,9.746,3.845.439,7.5.6,8.911.653,2.142.075,4.284.1,6.426,0a.707.707,0,0,1,.707.707.708.708,0,0,1-.707.707Z" transform="translate(212.013 -112.992)" fill="#3e256e"/>
    <path id="Path_32333" data-name="Path 32333" d="M-192.88,134.778c-9.478,0-16.89-3.706-16.89-8.44s7.39-8.429,16.89-8.429,16.89,3.706,16.89,8.429S-183.434,134.778-192.88,134.778Zm0-15.455c-8.4,0-15.487,3.213-15.487,7.015s7.069,7.026,15.487,7.026,15.476-3.213,15.476-7.026S-184.516,119.324-192.88,119.324Z" transform="translate(212.165 -113.721)" fill="#3e256e"/>
    <ellipse id="Ellipse_1840" data-name="Ellipse 1840" cx="12.349" cy="5.623" rx="12.349" ry="5.623" transform="translate(7.075 5.282)" fill="#3e256e"/>
  </g>
</svg>
