<svg xmlns="http://www.w3.org/2000/svg" width="22.654" height="22.783" viewBox="0 0 22.654 22.783"><defs><style>.a{fill:#8b7fa0;stroke:#8b7fa0;stroke-width:0.3px;}</style></defs><g transform="translate(0.168 0.151)"><path class="a" d="M25.449,20.358a.523.523,0,0,0-.661,0l-4.466,4.466a.478.478,0,0,0,0,.661L24.2,29.358a.546.546,0,0,0,.319.114.571.571,0,0,0,.342-.114l4.466-4.466a.569.569,0,0,0,.114-.342.547.547,0,0,0-.114-.319Zm-.934,8.021L21.3,25.143l3.805-3.8,3.235,3.213Z" transform="translate(-11.526 -11.56)"/><path class="a" d="M21.691,11.666l-.037-.037L12.632,2.607a2.321,2.321,0,0,0-1.69-.687l-7.161.2a1.431,1.431,0,0,0-.687.172L.917.115a.573.573,0,0,0-.8.8L2.292,3.093a1.436,1.436,0,0,0-.172.688l-.2,7.161a2.32,2.32,0,0,0,.688,1.69l9.023,9.023a2.263,2.263,0,0,0,3.2.037l.037-.037,6.789-6.789A2.262,2.262,0,0,0,21.691,11.666Zm-.826,2.385-.012.013-6.789,6.788a1.2,1.2,0,0,1-1.633,0L3.409,11.83a1.2,1.2,0,0,1-.344-.859l.2-6.9L5.242,6.044A2.606,2.606,0,0,0,4.87,7.362,2.521,2.521,0,1,0,7.419,4.87H7.362a2.607,2.607,0,0,0-1.318.372L4.068,3.265,11,3.065h.029a1.262,1.262,0,0,1,.8.344l9.023,9.023A1.146,1.146,0,0,1,20.865,14.051ZM6.015,7.362A1.346,1.346,0,0,1,7.362,6.015,1.375,1.375,0,0,1,8.737,7.362,1.4,1.4,0,0,1,7.362,8.736,1.375,1.375,0,0,1,6.015,7.362Z" transform="translate(0 0)"/></g></svg>