<svg xmlns="http://www.w3.org/2000/svg" width="44.833" height="44.833" viewBox="0 0 44.833 44.833"><defs><style>.a{fill:#d6c6f4;opacity:0.3;}.b{fill:#e6e6e6;}</style></defs><g transform="translate(-1258.5 95)"><g transform="translate(1258.5 -95)"><path class="a" d="M22.417,0A22.417,22.417,0,1,1,0,22.417,22.417,22.417,0,0,1,22.417,0Z"/><path class="b" d="M14.431,33.771l-6.337,3.5a6.9,6.9,0,0,0-.994.75,21.124,21.124,0,0,0,13.667,5,21.633,21.633,0,0,0,13.543-4.874l-1.118-.75-6.709-3.375a2.682,2.682,0,0,1-1.367-2.375V29.022a5.291,5.291,0,0,0,.621-.875A16.948,16.948,0,0,0,27.85,23.9a2.138,2.138,0,0,0,1.491-2V19.023A2.02,2.02,0,0,0,28.6,17.4V13.274S29.465,6.9,20.767,6.9c-8.573,0-7.828,6.374-7.828,6.374V17.4a2.485,2.485,0,0,0-.745,1.625V21.9a2,2,0,0,0,.994,1.75A14.662,14.662,0,0,0,15.8,29.022v2.625a3.354,3.354,0,0,1-1.367,2.125Zm0,0" transform="translate(1.774 1.563)"/></g></g></svg>