<svg xmlns="http://www.w3.org/2000/svg" width="253.2" height="59.461" viewBox="0 0 253.2 59.461"><defs><style>.a{fill:#fff;}.b{fill:#ff4376;}.c{fill:#03f87e;}</style></defs><g transform="translate(-330 -163)"><g transform="translate(330 163)"><g transform="translate(69.677 0)"><path class="a" d="M8.487,13.586a7.667,7.667,0,0,0,8-7.879,7.644,7.644,0,0,0-8-7.85A7.668,7.668,0,0,0,.462,5.707,7.691,7.691,0,0,0,8.487,13.586Zm0-2.442a5.1,5.1,0,0,1-5.2-5.437A5.078,5.078,0,0,1,8.487.3a5.056,5.056,0,0,1,5.175,5.408A5.08,5.08,0,0,1,8.487,11.144ZM30.817-2,25.409,10.359,20.117-2H17.209l6.745,15.41H26.8L33.55-2ZM49.657,5.794c0-4.739-3.169-7.938-7.618-7.938a7.547,7.547,0,0,0-7.734,7.85c0,4.594,3.315,7.879,8.286,7.879a7.735,7.735,0,0,0,6.077-2.5l-1.541-1.8a5.754,5.754,0,0,1-4.449,1.861c-3.053,0-5.234-1.8-5.582-4.507H49.6C49.628,6.376,49.657,6.027,49.657,5.794ZM42.04.212a4.806,4.806,0,0,1,4.943,4.419H37.1A4.8,4.8,0,0,1,42.04.212ZM56.2.59V-2H53.524v15.41h2.791V5.736c0-3.373,1.861-5.2,4.856-5.2a4.929,4.929,0,0,1,.64.029v-2.7C59.107-2.143,57.188-1.213,56.2.59Zm8,6.048h7.821V4.224H64.195ZM84.4,10.5a3.515,3.515,0,0,1-2.181.727,2.271,2.271,0,0,1-2.413-2.588V.3h4.419V-2H79.808V-5.371H77.017V-2H74.4V.3h2.617V8.76c0,3.111,1.774,4.826,4.885,4.826a5.265,5.265,0,0,0,3.373-1.076ZM96.875-2.143A6.682,6.682,0,0,0,91.438.183V-8.162H88.647V13.412h2.791V5.474c0-3.344,1.919-5.117,4.885-5.117,2.646,0,4.158,1.483,4.158,4.507v8.548h2.791V4.544C103.272.008,100.626-2.143,96.875-2.143Zm25.586,7.938c0-4.739-3.169-7.938-7.618-7.938a7.547,7.547,0,0,0-7.734,7.85c0,4.594,3.315,7.879,8.286,7.879a7.735,7.735,0,0,0,6.077-2.5l-1.541-1.8a5.754,5.754,0,0,1-4.449,1.861c-3.053,0-5.234-1.8-5.582-4.507h12.5C122.433,6.376,122.462,6.027,122.462,5.794ZM114.844.212a4.806,4.806,0,0,1,4.943,4.419H109.9A4.8,4.8,0,0,1,114.844.212Zm10.787,6.426h7.821V4.224h-7.821ZM145.838,10.5a3.515,3.515,0,0,1-2.181.727,2.271,2.271,0,0,1-2.413-2.588V.3h4.419V-2h-4.419V-5.371h-2.791V-2h-2.617V.3h2.617V8.76c0,3.111,1.774,4.826,4.885,4.826a5.265,5.265,0,0,0,3.373-1.076Zm10.322,3.082a7.667,7.667,0,0,0,8-7.879,8.012,8.012,0,0,0-16.02,0A7.691,7.691,0,0,0,156.16,13.586Zm0-2.442a5.1,5.1,0,0,1-5.2-5.437,5.194,5.194,0,1,1,10.38,0A5.08,5.08,0,0,1,156.16,11.144ZM176.193-2.143A6.563,6.563,0,0,0,170.7.444V-2h-2.675v21.05h2.791V11.086a6.581,6.581,0,0,0,5.379,2.5,7.487,7.487,0,0,0,7.792-7.879A7.479,7.479,0,0,0,176.193-2.143Zm-.233,13.287a5.1,5.1,0,0,1-5.175-5.437,5.194,5.194,0,1,1,10.38,0A5.1,5.1,0,0,1,175.96,11.144Z" transform="translate(-0.462 8.162)"/><path class="a" d="M34.1,17.976l9.4-28.348H36.934L31.021,11.01,25.027-10.373H18.75L12.838,11.01,6.885-10.373H0L9.355,17.976h6.6L21.788-2.233,27.5,17.976Zm37.258-5.508,2.227,5.508h6.844L68.319-10.373h-6.6L49.407,17.976h6.6l2.227-5.508ZM69.291,7.325h-8.95l4.5-11.015ZM109.829-4.946v-5.427H86.138v5.427h8.626V17.976h6.4V-4.946Zm23.488-5.629c-8.585,0-15.106,6.156-15.106,14.336,0,8.221,6.4,14.5,14.863,14.5A16.6,16.6,0,0,0,144.535,13.2l-3.766-4.09a10.939,10.939,0,0,1-7.371,3.321,8.559,8.559,0,0,1-8.626-8.747A8.525,8.525,0,0,1,133.4-5.027a10.261,10.261,0,0,1,7.371,3.685l3.726-4.536A16.132,16.132,0,0,0,133.317-10.575Zm49.164,28.551V-10.373h-6.4V1.453H163.245V-10.373h-6.4V17.976h6.4V6.8h12.838V17.976Z" transform="translate(1.042 41.202)"/></g><g transform="translate(0 4.526)"><path class="b" d="M670.891,382.9l-11.27-6.419a1.888,1.888,0,0,1-.086,3.23l-5.7,3.245a1.865,1.865,0,0,1-1.624.116l7.066,4.025a4.83,4.83,0,0,1,0,8.395l-14.555,8.29a4.83,4.83,0,0,1-7.221-4.2v-16.58a4.831,4.831,0,0,1,7.221-4.2l7.008,3.992a1.866,1.866,0,0,1-.723-1.486v-6.491a1.889,1.889,0,0,1,2.734-1.688l-11.963-6.814a9.661,9.661,0,0,0-14.442,8.395v33.16a9.661,9.661,0,0,0,14.442,8.4l29.11-16.58A9.661,9.661,0,0,0,670.891,382.9Z" transform="translate(-627.339 -365.04)"/><path class="c" d="M627.34,429.461v13.872l10.165-5.851V423.611Z" transform="translate(-627.339 -403.478)"/><path class="a" d="M701.266,373.97l-14.555-8.29a4.83,4.83,0,0,0-7.221,4.2v16.58a4.83,4.83,0,0,0,7.221,4.2l14.555-8.29A4.83,4.83,0,0,0,701.266,373.97Zm-7.5,5.741-5.7,3.245a1.891,1.891,0,0,1-2.827-1.643v-6.491a1.891,1.891,0,0,1,2.827-1.643l5.7,3.245A1.891,1.891,0,0,1,693.761,379.711Z" transform="translate(-661.564 -365.04)"/><path class="b" d="M645.4,373.27l-1.4-.8-16.667,9.593V395.9l10.166-5.85v-2.159a4.831,4.831,0,0,1,7.221-4.2l.679.387Z" transform="translate(-627.339 -369.918)"/></g></g></g></svg>