<svg xmlns="http://www.w3.org/2000/svg" width="24.501" height="20.221" viewBox="0 0 24.501 20.221"><defs><style>.a{fill:#03f87e;stroke:#03f87e;stroke-width:0.3px;}</style></defs><g transform="translate(0.15 0.15)"><path class="a" d="M22.333,0H1.868A1.868,1.868,0,0,0,0,1.868V18.054a1.868,1.868,0,0,0,1.868,1.868H22.333A1.868,1.868,0,0,0,24.2,18.054V1.868A1.868,1.868,0,0,0,22.333,0Zm.623,18.054a.622.622,0,0,1-.623.622H1.868a.622.622,0,0,1-.622-.622V1.868a.622.622,0,0,1,.622-.622H22.333a.622.622,0,0,1,.623.622Z"/><rect class="a" width="1.285" height="1.285" transform="translate(2.569 2.569)"/><rect class="a" width="1.285" height="1.285" transform="translate(20.347 2.569)"/><rect class="a" width="1.285" height="1.285" transform="translate(20.347 16.067)"/><rect class="a" width="1.285" height="1.285" transform="translate(2.569 16.067)"/><path class="a" d="M24.122,24.32H21.553V21.751H20.268v6.423h1.285V25.605h2.569v2.569h1.285V21.751H24.122Z" transform="translate(-13.94 -15.002)"/><path class="a" d="M43.2,25.6V24.32a2.569,2.569,0,1,0-5.139,0V25.6a2.551,2.551,0,0,0,3.693,2.3,1.285,1.285,0,0,0,.8.27h1.285V26.89h-.989A2.568,2.568,0,0,0,43.2,25.6Zm-1.284,0a1.285,1.285,0,0,1-2.569,0V24.32a1.285,1.285,0,1,1,2.569,0Z" transform="translate(-26.195 -15.002)"/></g></svg>