<svg xmlns="http://www.w3.org/2000/svg" width="30" height="29" viewBox="0 0 30 29"><defs><style>.a{fill:none;}.b,.c{stroke:none;}.c{fill:#fbbf14;}</style></defs><g class="a"><path class="b" d="M14.072,2.308a1,1,0,0,1,1.856,0l2.965,7.375a1,1,0,0,0,.853.624l7.846.589a1,1,0,0,1,.577,1.755l-6.031,5.185a1,1,0,0,0-.32.993l1.876,7.78a1,1,0,0,1-1.5,1.081L15.533,23.5a1,1,0,0,0-1.066,0L7.811,27.69a1,1,0,0,1-1.5-1.081l1.876-7.78a1,1,0,0,0-.32-.993L1.831,12.652A1,1,0,0,1,2.408,10.9l7.846-.589a1,1,0,0,0,.853-.624Z"/><path class="c" d="M 14.99999904632568 5.361553192138672 L 12.96283912658691 10.42853355407715 C 12.53318023681641 11.49724388122559 11.5527400970459 12.21475410461426 10.40410995483398 12.30105400085449 L 4.966602325439453 12.70953750610352 L 9.165990829467773 16.32000350952148 C 10.02364921569824 17.05739402770996 10.3917293548584 18.19853401184082 10.1265697479248 19.29815292358398 L 8.827056884765625 24.68664360046387 L 13.40172004699707 21.80672454833984 C 13.88097953796387 21.5050048828125 14.43365955352783 21.34552383422852 15 21.34552383422852 C 15.56634044647217 21.34552383422852 16.11902046203613 21.5050048828125 16.59827995300293 21.80671310424805 L 21.17294311523438 24.68664360046387 L 19.8734302520752 19.29815292358398 C 19.60824966430664 18.19857406616211 19.97632026672363 17.05741310119629 20.83401870727539 16.31999397277832 L 25.03339385986328 12.70953750610352 L 19.59587097167969 12.30105400085449 C 18.44728088378906 12.21475410461426 17.46683883666992 11.49726295471191 17.03715896606445 10.42855262756348 L 14.99999904632568 5.361553192138672 M 14.99999618530273 1.680776596069336 C 15.3798828125 1.680776596069336 15.75977039337158 1.889768600463867 15.92782020568848 2.307754516601563 L 18.89279937744141 9.682502746582031 C 19.03495979309082 10.03608322143555 19.3657112121582 10.27812385559082 19.7457103729248 10.30667304992676 L 27.59160995483398 10.89608383178711 C 28.48015022277832 10.96283340454102 28.84428977966309 12.07065391540527 28.16863059997559 12.65155410766602 L 22.13788986206055 17.83654403686523 C 21.85335922241211 18.08117294311523 21.72972106933594 18.46449279785156 21.81768989562988 18.82926368713379 L 23.6938591003418 26.60888290405273 C 23.85647583007813 27.28318023681641 23.32193756103516 27.8465461730957 22.72021102905273 27.8465461730957 C 22.5435791015625 27.8465461730957 22.36127662658691 27.79806518554688 22.1889705657959 27.68959426879883 L 15.53275966644287 23.49925422668457 C 15.36995983123779 23.39676856994629 15.18498039245605 23.34552574157715 15 23.34552574157715 C 14.81501960754395 23.34552574157715 14.63004016876221 23.39676856994629 14.46724033355713 23.49925422668457 L 7.811029434204102 27.68959426879883 C 7.638769149780273 27.79803848266602 7.456375122070313 27.84654998779297 7.279787063598633 27.84654998779297 C 6.677999496459961 27.84654998779297 6.143510818481445 27.28323364257813 6.306140899658203 26.60888290405273 L 8.182310104370117 18.82926368713379 C 8.270269393920898 18.46449279785156 8.146640777587891 18.08117294311523 7.862110137939453 17.83654403686523 L 1.831369400024414 12.65155410766602 C 1.155710220336914 12.07065391540527 1.51984977722168 10.96283340454102 2.408390045166016 10.89608383178711 L 10.2542896270752 10.30667304992676 C 10.63429069519043 10.27812385559082 10.96504020690918 10.03608322143555 11.1071891784668 9.682502746582031 L 14.07217979431152 2.307754516601563 C 14.24022483825684 1.889768600463867 14.62010955810547 1.680776596069336 14.99999618530273 1.680776596069336 Z"/></g></svg>