<svg xmlns="http://www.w3.org/2000/svg" width="26.158" height="26.142" viewBox="0 0 26.158 26.142"><defs><style>.a{fill:#03f87e;stroke:#03f87e;stroke-width:0.2px;}</style></defs><g transform="translate(0.108 0.1)"><path class="a" d="M22.765,42.2a.507.507,0,0,0-.507.507v1.864l-.478-.886a1.791,1.791,0,0,0-3.318,1.271L19.39,48.8a6.942,6.942,0,0,0,1.149,2.48l1.817,2.487a.507.507,0,0,0,.818-.6l-1.817-2.487a5.933,5.933,0,0,1-.982-2.119l-.928-3.845a.778.778,0,0,1,1.441-.552l1.431,2.65a.507.507,0,0,0,.952-.241V42.708A.507.507,0,0,0,22.765,42.2Z" transform="translate(-12.231 -28.034)"/><path class="a" d="M38.9,29.452a1.713,1.713,0,0,0-.826.211,1.723,1.723,0,0,0-2.48-.873,1.722,1.722,0,0,0-2.279-.853V25.514a1.725,1.725,0,1,0-3.45,0v.878a.507.507,0,0,0,1.013,0v-.878a.712.712,0,1,1,1.423,0v7.15a.507.507,0,0,0,1.014,0V29.507a.712.712,0,1,1,1.423,0v3.156a.507.507,0,0,0,1.013,0V30.279a.712.712,0,1,1,1.423,0v2.385a.507.507,0,0,0,1.013,0V31.177a.712.712,0,1,1,1.423,0v4.275a11.205,11.205,0,0,1-.514,3.355l-.715,2.279a.507.507,0,1,0,.967.3l.715-2.279a12.215,12.215,0,0,0,.56-3.658V31.177A1.727,1.727,0,0,0,38.9,29.452Z" transform="translate(-19.842 -15.803)"/><path class="a" d="M62.425,2.687a.847.847,0,0,0-.689-.58l-1.552-.225L59.49.475A.847.847,0,0,0,58.725,0h0a.847.847,0,0,0-.765.476l-.694,1.407-1.552.226a.853.853,0,0,0-.472,1.455l1.123,1.094L56.1,6.2a.852.852,0,0,0,1.238.9l1.388-.73,1.388.729a.853.853,0,0,0,1.237-.9l-.266-1.546,1.123-1.095A.849.849,0,0,0,62.425,2.687Zm-2.106,1.3a.853.853,0,0,0-.245.755L60.3,6.053l-1.175-.617a.853.853,0,0,0-.794,0l-1.175.618.224-1.309a.852.852,0,0,0-.246-.755l-.951-.927L57.5,2.873a.854.854,0,0,0,.642-.467l.587-1.191.588,1.19a.854.854,0,0,0,.643.467l1.314.19Z" transform="translate(-36.525)"/><path class="a" d="M28.873,4.658,28.609,6.2a.852.852,0,0,0,1.238.9l1.388-.73,1.388.729a.853.853,0,0,0,1.237-.9l-.266-1.546,1.123-1.095a.853.853,0,0,0-.473-1.455l-1.552-.225L32,.475A.847.847,0,0,0,31.233,0h0a.847.847,0,0,0-.765.476l-.694,1.407-1.552.226a.853.853,0,0,0-.472,1.455ZM30,2.873a.854.854,0,0,0,.642-.467l.587-1.191.588,1.19a.854.854,0,0,0,.643.467l1.314.19-.95.927a.854.854,0,0,0-.245.755l.225,1.308-1.175-.617a.853.853,0,0,0-.794,0l-1.175.618.224-1.309a.852.852,0,0,0-.246-.755l-.951-.927Z" transform="translate(-18.263)"/><path class="a" d="M6.368,6.2,6.1,4.656,7.225,3.562a.853.853,0,0,0-.473-1.455L5.2,1.881,4.506.475A.847.847,0,0,0,3.741,0h0a.847.847,0,0,0-.765.476L2.282,1.882.731,2.108A.853.853,0,0,0,.258,3.563L1.381,4.658,1.117,6.2a.852.852,0,0,0,1.238.9l1.388-.73L5.131,7.1a.853.853,0,0,0,1.237-.9ZM5.335,3.99a.854.854,0,0,0-.245.755l.225,1.308L4.139,5.436a.853.853,0,0,0-.794,0L2.17,6.054l.224-1.309a.853.853,0,0,0-.246-.755L1.2,3.064l1.314-.191a.854.854,0,0,0,.642-.467l.587-1.191.588,1.19a.854.854,0,0,0,.643.467l1.314.19Z" transform="translate(0)"/><path class="a" d="M30.377,37.266a.507.507,0,1,0-.358-.148A.512.512,0,0,0,30.377,37.266Z" transform="translate(-19.842 -24.083)"/></g></svg>