<svg xmlns="http://www.w3.org/2000/svg" xmlns:xlink="http://www.w3.org/1999/xlink" width="1266" height="155" viewBox="0 0 1266 155"><defs><style>.a{fill:url(#a);}.b,.c{stroke:none;}.c{fill:#1f1d40;}</style><radialGradient id="a" cx="0.571" cy="0.5" r="0.361" gradientTransform="translate(0 -2.591) scale(1 6.181)" gradientUnits="objectBoundingBox"><stop offset="0" stop-color="#4e44be" stop-opacity="0.729"/><stop offset="1" stop-color="#1b0d3a"/></radialGradient></defs><g class="a" transform="translate(410 6)"><path class="b" d="M -403.9821472167969 148.5 C -407.02490234375 148.4990692138672 -409.5 145.9608154296875 -409.5 142.8410797119141 L -409.5 6.317846298217773 C -409.5 3.197538375854492 -407.0238342285156 0.6589230895042419 -403.9803161621094 0.6589230895042419 L 849.9827880859375 -5.5 C 853.0238647460938 -5.5 855.5 -2.961384534835815 855.5 0.1589230746030807 L 855.5 136.6821594238281 C 855.5 139.8024597167969 853.0238647460938 142.3410797119141 849.9802856445313 142.3410797119141 L -403.9827575683594 148.5 L -403.9821472167969 148.5 Z"/><path class="c" d="M 849.9840087890625 -5 L 849.9852294921875 -5 L -403.9802856445313 1.158920288085938 C -406.7481689453125 1.158920288085938 -409 3.473236083984375 -409 6.317840576171875 L -409 142.8410797119141 C -409 145.6856994628906 -406.7481689453125 148 -403.9852294921875 148 L 849.9803466796875 141.8410797119141 C 852.7481689453125 141.8410797119141 855 139.5267639160156 855 136.6821594238281 L 855 0.1589202880859375 C 855 -2.684478759765625 852.750244140625 -4.998016357421875 849.9840087890625 -5 M 849.9803466796875 -6 C 853.304931640625 -6 856 -3.24261474609375 856 0.1589202880859375 L 856 136.6821594238281 C 856 140.0835418701172 853.304931640625 142.8410797119141 849.9803466796875 142.8410797119141 L -403.9802856445313 149 C -407.304931640625 149 -410 146.2424621582031 -410 142.8410797119141 L -410 6.317840576171875 C -410 2.916458129882813 -407.304931640625 0.1589202880859375 -403.9802856445313 0.1589202880859375 L 849.9803466796875 -6 Z"/></g></svg>