<svg xmlns="http://www.w3.org/2000/svg" width="18" height="17" viewBox="0 0 18 17"><defs><style>.a{fill:none;}.b,.c{stroke:none;}.c{fill:#f92e01;}</style></defs><g class="a"><path class="b" d="M8.075,2.247a1,1,0,0,1,1.85,0l1.315,3.2a1,1,0,0,0,.852.617l3.454.254a1,1,0,0,1,.57,1.763l-2.634,2.213a1,1,0,0,0-.328,1.005l.823,3.335a1,1,0,0,1-1.495,1.091L9.524,13.9a1,1,0,0,0-1.048,0l-2.958,1.82a1,1,0,0,1-1.495-1.091l.823-3.335a1,1,0,0,0-.328-1.005L1.884,8.076a1,1,0,0,1,.57-1.763L5.909,6.06a1,1,0,0,0,.852-.617Z"/><path class="c" d="M 9.000000953674316 2.627820014953613 L 7.684950828552246 5.82351016998291 C 7.394821166992188 6.528579711914063 6.742220878601074 7.001250267028809 5.981821060180664 7.057069778442383 L 2.527581214904785 7.310589790344238 L 5.161630630493164 9.52318000793457 C 5.741070747375488 10.00992012023926 5.998311042785645 10.79916000366211 5.816961288452148 11.53388023376465 L 4.993741035461426 14.86890983581543 C 4.993741035461426 14.86891078948975 4.993740081787109 14.86891269683838 4.993740081787109 14.8689136505127 C 4.993741989135742 14.86891555786133 4.993742942810059 14.86891651153564 4.993741035461426 14.86891937255859 L 7.952160835266113 13.04928970336914 C 8.267460823059082 12.85535049438477 8.629800796508789 12.75283050537109 9.000000953674316 12.75283050537109 C 9.370181083679199 12.75283050537109 9.732510566711426 12.85534000396729 10.04780101776123 13.0492696762085 L 13.0062313079834 14.86890411376953 C 13.00623798370361 14.86889839172363 13.00624561309814 14.86889266967773 13.00626087188721 14.86891937255859 L 12.18304061889648 11.53385925292969 C 12.00169086456299 10.79916000366211 12.25893115997314 10.00992012023926 12.83838081359863 9.52316951751709 L 15.47242069244385 7.310600280761719 L 12.01816082000732 7.057069778442383 C 11.25777053833008 7.001250267028809 10.60518074035645 6.528579711914063 10.31505107879639 5.823519706726074 L 9.000000953674316 2.627820014953613 M 8.999997138977051 1.627815246582031 C 9.377408027648926 1.627815246582031 9.754820823669434 1.83430004119873 9.924760818481445 2.247269630432129 L 11.23981094360352 5.442970275878906 C 11.38395118713379 5.79325008392334 11.71362113952637 6.03201961517334 12.09137153625488 6.059749603271484 L 15.54562091827393 6.31328010559082 C 16.44063186645508 6.378970146179199 16.80277061462402 7.499090194702148 16.11561012268066 8.076299667358398 L 13.48157119750977 10.28887939453125 C 13.18962097167969 10.53412055969238 13.06253051757813 10.92404937744141 13.15390110015869 11.29422950744629 L 13.97712135314941 14.62926959991455 C 14.14370155334473 15.30413246154785 13.60921669006348 15.87211322784424 13.0051097869873 15.87211322784424 C 12.83158588409424 15.87211322784424 12.65242290496826 15.82530307769775 12.48235130310059 15.72070026397705 L 9.523900985717773 13.90104961395264 C 9.363245964050293 13.8022346496582 9.181623458862305 13.75282764434814 9.000000953674316 13.75282764434814 C 8.818378448486328 13.75282764434814 8.63675594329834 13.8022346496582 8.476100921630859 13.90104961395264 L 5.517641067504883 15.72070026397705 C 5.347618103027344 15.82527446746826 5.168365478515625 15.87211322784424 4.994887351989746 15.87211322784424 C 4.390727043151855 15.87211322784424 3.856287002563477 15.30418491363525 4.022880554199219 14.62926959991455 L 4.846100807189941 11.29422950744629 C 4.937471389770508 10.92404937744141 4.810380935668945 10.53412055969238 4.518430709838867 10.28887939453125 L 1.884391784667969 8.076299667358398 C 1.197231292724609 7.499090194702148 1.559370040893555 6.378970146179199 2.454380989074707 6.31328010559082 L 5.908620834350586 6.059749603271484 C 6.286380767822266 6.03201961517334 6.616050720214844 5.79325008392334 6.760190963745117 5.442970275878906 L 8.075241088867188 2.247269630432129 C 8.245176315307617 1.83430004119873 8.622586250305176 1.627815246582031 8.999997138977051 1.627815246582031 Z"/></g></svg>