<svg xmlns="http://www.w3.org/2000/svg" width="18.303" height="16.098" viewBox="0 0 18.303 16.098"><defs><style>.a{fill:#100721;}</style></defs><g transform="translate(0 -1)"><path class="a" d="M17.649,17.088H7.1a2.593,2.593,0,0,0-5.044,0H.654a.663.663,0,0,0,0,1.327h1.4a2.594,2.594,0,0,0,5.044,0H17.649a.663.663,0,0,0,0-1.327ZM4.576,19.078a1.327,1.327,0,1,1,1.307-1.327A1.317,1.317,0,0,1,4.576,19.078Z" transform="translate(0 -8.703)"/><path class="a" d="M.654,3.316h9.9a2.593,2.593,0,0,0,5.044,0h2.054a.663.663,0,0,0,0-1.327H15.6a2.594,2.594,0,0,0-5.044,0H.654a.663.663,0,0,0,0,1.327Zm12.42-1.99a1.327,1.327,0,1,1-1.307,1.327A1.317,1.317,0,0,1,13.074,1.326Z" transform="translate(0 1)"/><path class="a" d="M17.649,32.187H14.288a2.594,2.594,0,0,0-5.044,0H.654a.663.663,0,0,0,0,1.326H9.245a2.593,2.593,0,0,0,5.044,0h3.361a.663.663,0,0,0,0-1.326Zm-5.883,1.99a1.327,1.327,0,1,1,1.307-1.326A1.317,1.317,0,0,1,11.767,34.177Z" transform="translate(0 -18.406)"/></g></svg>