<svg xmlns="http://www.w3.org/2000/svg" width="20.834" height="20.834" viewBox="0 0 20.834 20.834"><defs><style>.a{fill:#03f87e;stroke:#03f87e;stroke-width:0.5px;}</style></defs><g transform="translate(0.25 0.25)"><path class="a" d="M43.9,14.629a.4.4,0,1,0,.283.117A.4.4,0,0,0,43.9,14.629Z" transform="translate(-25.568 -8.594)"/><path class="a" d="M18.341,42.7h-.006a.4.4,0,0,0,0,.8h.006a.4.4,0,0,0,0-.8Z" transform="translate(-10.536 -25.099)"/><path class="a" d="M19.143,1.589H17.782V1.35a1.35,1.35,0,1,0-2.7,0v.239H11.512V1.35a1.35,1.35,0,0,0-2.7,0v.239H5.242V1.35a1.35,1.35,0,0,0-2.7,0v.239H1.191A1.193,1.193,0,0,0,0,2.78V19.143a1.193,1.193,0,0,0,1.191,1.191H15.949a.4.4,0,0,0,.281-.116h0l3.987-3.987a.4.4,0,0,0,.116-.281V2.78A1.193,1.193,0,0,0,19.143,1.589ZM15.876,1.35a.556.556,0,0,1,1.112,0V3.3a.556.556,0,0,1-1.112,0Zm-6.27,0a.556.556,0,0,1,1.112,0V3.3a.556.556,0,0,1-1.112,0Zm-6.27,0a.556.556,0,0,1,1.112,0V3.3a.556.556,0,0,1-1.112,0Zm13.01,17.628V16.743a.4.4,0,0,1,.4-.4h2.235Zm3.194-3.426h-2.8a1.193,1.193,0,0,0-1.191,1.191v2.8H1.191a.4.4,0,0,1-.4-.4v-.728H6.215a.4.4,0,0,0,0-.794H.794V6.831H16.76a.4.4,0,1,0,0-.794H.794V2.78a.4.4,0,0,1,.4-.4h1.35V3.3a1.35,1.35,0,0,0,2.7,0V2.383H8.812V3.3a1.35,1.35,0,1,0,2.7,0V2.383h3.569V3.3a1.35,1.35,0,1,0,2.7,0V2.383h1.361a.4.4,0,0,1,.4.4Z" transform="translate(0 0)"/><path class="a" d="M8.936,8a.1.1,0,0,1,.029-.089l1.2-1.172a.5.5,0,0,0-.278-.854L8.229,5.649a.1.1,0,0,1-.075-.055L7.41,4.089a.5.5,0,0,0-.9,0L5.77,5.594a.1.1,0,0,1-.075.055L4.033,5.89a.5.5,0,0,0-.277.854l1.2,1.172A.1.1,0,0,1,4.987,8L4.7,9.659a.5.5,0,0,0,.726.528l1.486-.781a.1.1,0,0,1,.093,0l1.486.781a.5.5,0,0,0,.726-.528Zm-.151,1.82a.1.1,0,0,1-.105.008L7.194,9.051a.5.5,0,0,0-.466,0l-1.486.781A.1.1,0,0,1,5.1,9.726l.284-1.654a.5.5,0,0,0-.144-.443l-1.2-1.172a.1.1,0,0,1,.055-.171l1.661-.241a.5.5,0,0,0,.377-.274l.743-1.505a.1.1,0,0,1,.18,0h0l.743,1.505a.5.5,0,0,0,.377.274l1.661.241a.1.1,0,0,1,.055.171l-1.2,1.172a.5.5,0,0,0-.144.443l.284,1.654A.1.1,0,0,1,8.785,9.824Z" transform="translate(2.93 4.992)"/></g></svg>