<svg xmlns="http://www.w3.org/2000/svg" width="15.151" height="15.151" viewBox="0 0 15.151 15.151"><defs><style>.a{fill:#a89abf;}</style></defs><g transform="translate(0)"><path class="a" d="M0,482.249,7.053,475.1v4.682a8.445,8.445,0,0,1,5.592,2.527,8.67,8.67,0,0,1,2.506,6.13v1.812l-.86-1.589a7.631,7.631,0,0,0-6.7-4.018q-.266,0-.533.019V489.4Zm7.586,1.468a8.516,8.516,0,0,1,6.449,2.965A7.674,7.674,0,0,0,6.6,480.7H6.137v-3.357l-4.84,4.9,4.84,4.9v-3.32l.4-.051A8.463,8.463,0,0,1,7.586,483.717Z" transform="translate(0 -475.102)"/></g></svg>