<svg xmlns="http://www.w3.org/2000/svg" width="37.999" height="39.2" viewBox="0 0 37.999 39.2"><defs><style>.a{fill:#f92e01;}.b{fill:#049126;}</style></defs><g transform="translate(-230.732 -101.81)"><path class="a" d="M260.554,108.639a14.543,14.543,0,0,1,7.037,8.085,16.066,16.066,0,0,1-1.266,14.463,17.366,17.366,0,0,1-9.69,7.437,20.976,20.976,0,0,1-18.227-1.906,15.049,15.049,0,0,1-7.376-10.641c-.889-5.218.139-9.979,3.824-13.98.656.1,1.315.188,1.966.315a6.228,6.228,0,0,0,5.54-1.558c.213-.185.4-.58.708-.446.349.153.38.592.458.948a1.339,1.339,0,0,1,.014.248,4.3,4.3,0,0,1-.8,2.567c-.061.091-.186.181-.131.3.068.154.23.095.355.1a5.739,5.739,0,0,0,1.673-.225,4.917,4.917,0,0,0,3.073-2.045,4.666,4.666,0,0,0,.721-2.147c.029-.3.1-.464.471-.288a5.318,5.318,0,0,0,2.926.357,30.193,30.193,0,0,0,4.527-1.145,6.555,6.555,0,0,1,3.768-.246C260.337,108.9,260.48,108.856,260.554,108.639Z" transform="translate(0 1.147)"/><path class="b" d="M260.148,109.786c-.075.217-.217.265-.431.2a6.555,6.555,0,0,0-3.768.246,30.193,30.193,0,0,1-4.527,1.145,5.318,5.318,0,0,1-2.926-.357c-.37-.175-.441-.013-.471.288a4.666,4.666,0,0,1-.721,2.147,4.917,4.917,0,0,1-3.073,2.045,5.739,5.739,0,0,1-1.673.225c-.125-.006-.287.054-.355-.1-.055-.124.07-.214.131-.3a4.3,4.3,0,0,0,.8-2.567,1.339,1.339,0,0,0-.014-.248c-.078-.356-.109-.8-.458-.948-.308-.134-.5.262-.708.446a6.228,6.228,0,0,1-5.54,1.558c-.651-.127-1.309-.211-1.966-.315a5.105,5.105,0,0,0-.9-.276c-.141-.06-.369-.007-.4-.231-.029-.239.189-.284.347-.364,1.971-1.013,3.775-2.353,5.937-3.1-.352-.067-.7-.142-1.053-.2a12.427,12.427,0,0,0-3.08-.159c-.141.014-.315.079-.409-.088-.109-.194.068-.306.165-.427a6.972,6.972,0,0,1,7.658-2.142.175.175,0,0,0,.23-.025c-.473-.589-.959-1.168-1.414-1.771-.3-.391-.9-.769-.8-1.174.081-.328.754-.514,1.169-.757.359-.209.736-.39,1.08-.62.287-.192.408-.124.537.176.522,1.2,1.065,2.4,1.6,3.594.039.086.09.168.14.262.242-.139.349-.375.52-.552a4.985,4.985,0,0,1,5.167-1.664,3.135,3.135,0,0,1,1.571,1.011c.085.1.21.194.167.342-.055.182-.227.154-.374.173a2.1,2.1,0,0,0-1.79,1.577c-.074.3-.035.4.328.362a14.468,14.468,0,0,1,7.046.922A4.576,4.576,0,0,1,260.148,109.786Z" transform="translate(0.407)"/></g></svg>