<svg xmlns="http://www.w3.org/2000/svg" width="22.466" height="22.302" viewBox="0 0 22.466 22.302"><defs><style>.a,.b{fill:#03f87e;}.b{stroke:#03f87e;stroke-width:0.4px;}</style></defs><path class="a" d="M18.108,29.632c-.2.048-.395.092-.593.129a.953.953,0,0,0,.348,1.875c.236-.044.473-.1.706-.153a.953.953,0,1,0-.46-1.85Z" transform="translate(-4.615 -9.358)"/><path class="a" d="M27.6,12.475a.953.953,0,1,0,1.809-.6c-.075-.228-.159-.456-.248-.679a.953.953,0,1,0-1.77.707C27.462,12.092,27.532,12.284,27.6,12.475Z" transform="translate(-7.542 -4.144)"/><path class="a" d="M22.246,27.824c-.169.112-.342.219-.517.319a.953.953,0,1,0,.953,1.652c.208-.12.415-.248.615-.38a.953.953,0,1,0-1.051-1.591Z" transform="translate(-5.857 -8.911)"/><path class="a" d="M30.23,16.223a.953.953,0,1,0-1.9.075c.008.2.01.406.005.606a.953.953,0,1,0,1.906.042C30.241,16.706,30.24,16.463,30.23,16.223Z" transform="translate(-7.773 -5.444)"/><path class="a" d="M26.9,24.556a.952.952,0,0,0-1.335.191c-.121.161-.249.32-.379.473a.953.953,0,0,0,.108,1.344.646.646,0,0,0,.069.054.954.954,0,0,0,1.275-.162c.155-.182.308-.373.453-.566A.954.954,0,0,0,26.9,24.556Z" transform="translate(-6.997 -7.936)"/><path class="a" d="M28.861,20.122a.953.953,0,0,0-1.194.625c-.061.192-.127.385-.2.573A.953.953,0,0,0,29.249,22c.085-.225.165-.454.236-.682A.953.953,0,0,0,28.861,20.122Z" transform="translate(-7.561 -6.759)"/><path class="a" d="M9.484,22.2a9.182,9.182,0,0,1-2.3-.736l-.025-.014c-.171-.081-.343-.168-.509-.26h0A9.447,9.447,0,0,1,3.5,7.493a9.341,9.341,0,0,1,2.3-2.3l.033-.023a9.3,9.3,0,0,1,10.493-.085l-.7,1.019c-.195.284-.074.491.266.46l3.039-.275a.5.5,0,0,0,.453-.661L18.565,2.66c-.091-.332-.325-.372-.52-.088l-.7,1.021A10.989,10.989,0,0,0,9.238,1.856q-.431.075-.848.182H8.384l-.032.009A11.045,11.045,0,0,0,2.227,6.187c-.013.016-.026.031-.038.047-.051.069-.1.14-.15.211-.081.115-.161.234-.236.353-.009.014-.017.028-.025.043A11.2,11.2,0,0,0,.012,13.408c0,.008,0,.015,0,.023.01.227.028.456.052.682,0,.015.005.028.007.043q.037.341.1.683a11.176,11.176,0,0,0,3.117,6.044L3.3,20.9l0,0a11.342,11.342,0,0,0,1.427,1.2,10.985,10.985,0,0,0,4.441,1.874A.9.9,0,0,0,9.484,22.2Z" transform="translate(0 -1.688)"/><path class="b" d="M14.217,7.086a.573.573,0,0,0-.573.574v5.714l5.226,2.7a.574.574,0,1,0,.527-1.019l-4.605-2.381V7.66A.574.574,0,0,0,14.217,7.086Z" transform="translate(-2.94 -1.823)"/></svg>