<svg xmlns="http://www.w3.org/2000/svg" xmlns:xlink="http://www.w3.org/1999/xlink" width="309" height="309" viewBox="0 0 309 309"><defs><style>.a{fill:none;}.b{clip-path:url(#a);}.c{fill:#c41856;}.d{fill:url(#b);}.e,.f{fill:#6e0a0c;}.f{opacity:0.33;mix-blend-mode:multiply;isolation:isolate;}.g{fill:#cc1f2c;}.h{fill:#a80c10;}.i{fill:#c11b30;}.j{fill:#810507;}.k{fill:#5c0001;}.l{fill:#3c0000;}.m{fill:#d61e69;}.n{fill:#ff5082;}.o{fill:#fc6b9b;}.p{fill:#89023f;}.q{fill:#03b2ff;}.r{fill:#1c0477;}.s{fill:#fbfdff;}.t{fill:#c8d1f9;}.u{fill:#ccf;}.v{fill:#d0dce1;}.w{fill:#933a65;}.x{fill:#ffc6a6;}.y{fill:#fc9e70;}.z{fill:#ffe1d4;}.aa{fill:#f9d6c0;}.ab{fill:#fff;}.ac{fill:#72244d;}.ad{fill:#511236;}.ae{fill:#ef569d;}</style><clipPath id="a"><circle class="a" cx="154.5" cy="154.5" r="154.5" transform="translate(0 0)"/></clipPath><radialGradient id="b" cx="0.5" cy="0.5" r="0.578" gradientTransform="translate(0.067 -0.87) scale(0.864 1.297)" gradientUnits="objectBoundingBox"><stop offset="0" stop-color="#810507"/><stop offset="0.623" stop-color="#370000"/><stop offset="1"/></radialGradient></defs><g class="b"><path class="c" d="M959.005,294.85c.576.005,1.154.01,1.736.01v24.6h-1.736Z" transform="translate(-792.025 -113.945)"/><rect class="d" width="517.784" height="447.604" transform="translate(-1578.056 -1079.961)"/><path class="e" d="M72.512-431.053s-58.441,191.084-96.1,207.9c0,0,33.764,162.982,41.557,173.33S-10.6-36.888-5.409-30.42-13.2-18.779-23.588-16.192s-21.429,0-21.429,0l.974-414.571Z" transform="translate(-1535.038 -651.139)"/><path class="e" d="M185.447-431.053s60.344,191.084,99.231,207.9c0,0-34.865,162.982-42.909,173.33s29.5,12.935,24.136,19.4,8.046,11.641,18.773,14.228,22.126,0,22.126,0L305.8-430.762Z" transform="translate(-1364.486 -651.139)"/><path class="f" d="M42.486-377.69s-9.709,21.667-17.961,32.662C16.773-334.7-10.246-253.362-25.3-240.825c0,0,20.955,125.719,30.132,136.715,0,0-31.216-77.943-30.132-104.134s-6.109-32.58-6.109-32.58-2.659,98.554,1.639,122.808,4.47,33.089,4.47,33.089S-32.973-97-35.049-133.862-38.5-244.351-38.5-244.351s-8.337,21.451-10.278-4.85,7.12-153.066,7.12-153.066,6.092,53.68,6.605,78.9,0,82.537,0,82.537,9.916-28.855,9.746-59.9,10.832-82.765,16.657-82.765S-20.3-296.844-22.238-279.383A162.973,162.973,0,0,1-29.773-246.4S11.936-373.435,18.538-377.69c3.515-2.264-35.634,101.38-29.772,98.63C-6.813-281.132,28.409-373.486,42.486-377.69Z" transform="translate(-1538.02 -629.836)"/><path class="f" d="M206.814-371.713s5.178,16.492,13.43,27.487c7.752,10.329,34.771,91.665,49.828,104.2,0,0-20.955,125.719-30.132,136.715,0,0,31.216-77.943,30.132-104.134s6.109-32.58,6.109-32.58,2.659,98.556-1.639,122.808-4.47,33.089-4.47,33.089,7.67-12.069,9.746-48.933,3.447-110.489,3.447-110.489S291.6-222.1,293.543-248.4s-9.995-161.068-9.995-161.068-3.217,61.684-3.731,86.908,0,82.535,0,82.535-9.916-28.855-9.746-59.9-3.351-88.368-9.177-88.368,4.171,92.248,6.113,109.711a162.975,162.975,0,0,0,7.534,32.984s-36.817-121.218-43.419-125.471c-3.515-2.264,30.743,95.558,24.881,92.808C251.582-280.33,220.891-367.51,206.814-371.713Z" transform="translate(-1348.674 -635.165)"/><g transform="translate(-1612.947 -716.705)"><g transform="translate(4.208 0)"><rect class="g" width="78.614" height="113.612" rx="22.59" transform="translate(82.378)"/><rect class="g" width="78.614" height="113.612" rx="22.59"/><rect class="g" width="78.614" height="113.612" rx="22.59" transform="translate(165.722)"/><rect class="g" width="78.614" height="113.612" rx="22.59" transform="translate(249.355)"/><rect class="g" width="78.614" height="113.612" rx="22.59" transform="translate(332.307)"/><rect class="g" width="78.614" height="113.612" rx="22.59" transform="translate(415.94)"/><rect class="g" width="78.614" height="113.612" rx="22.59" transform="translate(500.535)"/></g><g transform="translate(0 2.587)"><rect class="h" width="79.757" height="113.612" rx="22.918" transform="translate(83.575)"/><rect class="h" width="79.757" height="113.612" rx="22.918"/><rect class="h" width="79.757" height="113.612" rx="22.918" transform="translate(168.13)"/><rect class="h" width="79.757" height="113.612" rx="22.918" transform="translate(252.978)"/><rect class="h" width="79.757" height="113.612" rx="22.918" transform="translate(337.136)"/><rect class="h" width="79.757" height="113.612" rx="22.918" transform="translate(421.984)"/><rect class="h" width="79.757" height="113.612" rx="22.918" transform="translate(507.808)"/></g></g><g transform="translate(-1639.135 -710.134)"><g transform="translate(3.799 0)"><rect class="i" width="85.835" height="123.74" rx="24.665" transform="translate(89.945)"/><rect class="i" width="85.835" height="123.74" rx="24.665"/><rect class="i" width="85.835" height="123.74" rx="24.665" transform="translate(180.944)"/><rect class="i" width="85.835" height="123.74" rx="24.665" transform="translate(272.258)"/><rect class="i" width="85.835" height="123.74" rx="24.665" transform="translate(362.83)"/><rect class="i" width="85.835" height="123.74" rx="24.665" transform="translate(454.144)"/><rect class="i" width="85.835" height="123.74" rx="24.665" transform="translate(546.509)"/></g><g transform="translate(0 1.94)"><rect class="j" width="86.866" height="123.74" rx="24.961" transform="translate(91.025)"/><rect class="j" width="86.866" height="123.74" rx="24.961"/><rect class="j" width="86.866" height="123.74" rx="24.961" transform="translate(183.118)"/><rect class="j" width="86.866" height="123.74" rx="24.961" transform="translate(275.529)"/><rect class="j" width="86.866" height="123.74" rx="24.961" transform="translate(367.189)"/><rect class="j" width="86.866" height="123.74" rx="24.961" transform="translate(459.6)"/><rect class="j" width="86.866" height="123.74" rx="24.961" transform="translate(553.075)"/></g></g><g transform="translate(-1661.281 -700.813)"><g transform="translate(7.391 0)"><rect class="h" width="90.928" height="166.583" rx="14.912" transform="matrix(1, -0.005, 0.005, 1, 95.713, 3.072)"/><rect class="h" width="90.928" height="166.583" rx="16.334" transform="translate(0 3.585) rotate(-0.307)"/><rect class="h" width="90.928" height="166.583" rx="26.128" transform="translate(192.11 2.555) rotate(-0.307)"/><rect class="h" width="90.928" height="166.583" rx="15.356" transform="translate(288.841 2.036) rotate(-0.307)"/><rect class="h" width="90.928" height="166.583" rx="26.128" transform="translate(384.786 1.522) rotate(-0.307)"/><rect class="h" width="90.928" height="166.583" rx="15.852" transform="translate(481.517 1.003) rotate(-0.307)"/><rect class="h" width="90.928" height="166.583" rx="16.076" transform="translate(577.631 0.488) rotate(-0.307)"/></g><g transform="translate(0 6.319)"><rect class="k" width="93.059" height="166.583" rx="26.74" transform="translate(97.957)"/><rect class="k" width="93.059" height="166.583" rx="26.74"/><rect class="k" width="93.059" height="166.583" rx="26.74" transform="translate(196.614)"/><rect class="k" width="93.059" height="166.583" rx="26.74" transform="translate(295.613)"/><rect class="k" width="93.059" height="166.583" rx="26.74" transform="translate(393.807)"/><rect class="k" width="93.059" height="166.583" rx="26.74" transform="translate(492.806)"/><rect class="k" width="93.059" height="166.583" rx="26.74" transform="translate(591.174)"/></g></g><g transform="translate(-1601.205 -668.625)"><g transform="translate(5.728 0)"><rect class="j" width="105.403" height="153.257" rx="30.287"/><rect class="j" width="105.403" height="153.257" rx="30.287" transform="translate(111.743)"/><rect class="j" width="105.403" height="153.257" rx="30.287" transform="translate(223.874)"/><rect class="j" width="105.403" height="153.257" rx="30.287" transform="translate(335.093)"/><rect class="j" width="105.403" height="153.257" rx="30.287" transform="translate(447.224)"/></g><g transform="translate(0 8.836)"><rect class="l" width="107.588" height="153.257" rx="30.915"/><rect class="l" width="107.588" height="153.257" rx="30.915" transform="translate(114.06)"/><rect class="l" width="107.588" height="153.257" rx="30.915" transform="translate(228.515)"/><rect class="l" width="107.587" height="153.257" rx="30.915" transform="translate(342.04)"/><rect class="l" width="107.588" height="153.257" rx="30.915" transform="translate(456.495)"/></g></g><rect class="a" width="517.784" height="517.405" transform="translate(-1580.054 -1083.19)"/><rect class="m" width="690.724" height="597.104" transform="translate(3.508 -366.105)"/><path class="n" d="M1162.9-274.181S1013.793,213.346,917.7,256.25c0,0,86.147,415.83,106.028,442.232s-72.894,33-59.64,49.5-19.882,29.7-46.388,36.3-54.672,0-54.672,0l2.485-1057.726Z" transform="translate(-863.048 -535.048)"/><path class="e" d="M1182.028-20.174s80.5,254.907,132.373,277.337c0,0-46.509,217.419-57.242,231.223s39.354,17.256,32.2,25.883,10.733,15.531,25.043,18.982,29.516,0,29.516,0l-1.341-553.037Z" transform="translate(-626.98 -347.074)"/><path class="f" d="M1210.531,58.986s6.908,22,17.916,36.668c10.341,13.778,46.384,122.283,66.471,139.006,0,0-27.955,167.71-40.2,182.377,0,0,41.644-103.976,40.2-138.914s8.149-43.463,8.149-43.463,3.548,131.472-2.187,163.826-5.961,44.139-5.961,44.139,10.232-16.1,13-65.277,4.6-147.392,4.6-147.392,11.12,28.617,13.712-6.469S1312.894,8.622,1312.894,8.622s-4.293,82.286-4.976,115.933,0,110.1,0,110.1-13.228-38.493-13-79.906-4.472-117.882-12.243-117.882,5.563,123.059,8.154,146.353a217.489,217.489,0,0,0,10.05,44s-49.112-161.7-57.921-167.378c-4.688-3.021,41.011,127.475,33.191,123.807C1270.251,180.891,1229.309,64.594,1210.531,58.986Z" transform="translate(-605.887 -325.764)"/><g transform="translate(-43.035 118.479)"><g transform="translate(5.613)"><rect class="o" width="104.872" height="151.559" rx="30.135" transform="translate(109.893)"/><rect class="o" width="104.872" height="151.559" rx="30.135"/><rect class="o" width="104.872" height="151.559" rx="30.135" transform="translate(221.073)"/><rect class="o" width="104.872" height="151.559" rx="30.135" transform="translate(332.639)"/><rect class="o" width="104.872" height="151.559" rx="30.135" transform="translate(443.298)"/><rect class="o" width="104.872" height="151.559" rx="30.135" transform="translate(554.864)"/><rect class="o" width="104.872" height="151.559" rx="30.135" transform="translate(667.713)"/></g><g transform="translate(0 3.451)"><rect class="m" width="106.395" height="151.559" rx="30.573" transform="translate(111.49)"/><rect class="m" width="106.395" height="151.559" rx="30.573"/><rect class="m" width="106.395" height="151.559" rx="30.573" transform="translate(224.286)"/><rect class="m" width="106.395" height="151.559" rx="30.573" transform="translate(337.473)"/><rect class="m" width="106.395" height="151.559" rx="30.573" transform="translate(449.74)"/><rect class="m" width="106.395" height="151.559" rx="30.573" transform="translate(562.927)"/><rect class="m" width="106.395" height="151.559" rx="30.573" transform="translate(677.416)"/></g></g><g transform="translate(-77.971 127.245)"><g transform="translate(5.067)"><rect class="m" width="114.504" height="165.069" rx="32.903" transform="translate(119.986)"/><rect class="m" width="114.504" height="165.069" rx="32.903"/><rect class="m" width="114.504" height="165.069" rx="32.903" transform="translate(241.379)"/><rect class="m" width="114.504" height="165.069" rx="32.903" transform="translate(363.192)"/><rect class="m" width="114.504" height="165.069" rx="32.903" transform="translate(484.015)"/><rect class="m" width="114.504" height="165.069" rx="32.903" transform="translate(605.829)"/><rect class="m" width="114.504" height="165.069" rx="32.903" transform="translate(729.043)"/></g><g transform="translate(0 2.588)"><rect class="p" width="115.88" height="165.069" rx="33.298" transform="translate(121.428)"/><rect class="p" width="115.88" height="165.069" rx="33.298"/><rect class="p" width="115.88" height="165.069" rx="33.298" transform="translate(244.279)"/><rect class="p" width="115.88" height="165.069" rx="33.298" transform="translate(367.556)"/><rect class="p" width="115.88" height="165.069" rx="33.298" transform="translate(489.831)"/><rect class="p" width="115.88" height="165.069" rx="33.298" transform="translate(613.107)"/><rect class="p" width="115.88" height="165.069" rx="33.298" transform="translate(737.802)"/></g></g><g transform="translate(-107.513 139.679)"><g transform="translate(9.859 0)"><rect class="m" width="121.298" height="222.222" rx="19.893" transform="matrix(1, -0.005, 0.005, 1, 127.682, 4.098)"/><rect class="m" width="121.298" height="222.222" rx="21.79" transform="translate(0 4.783) rotate(-0.307)"/><rect class="m" width="121.298" height="222.222" rx="19.999" transform="translate(256.275 3.409) rotate(-0.307)"/><rect class="m" width="121.298" height="222.222" rx="20.484" transform="translate(385.314 2.717) rotate(-0.307)"/><rect class="m" width="121.298" height="222.222" rx="34.855" transform="translate(513.305 2.03) rotate(-0.307)"/><rect class="m" width="121.298" height="222.222" rx="21.147" transform="translate(642.344 1.338) rotate(-0.307)"/><rect class="m" width="121.298" height="222.222" rx="21.445" transform="translate(770.56 0.651) rotate(-0.307)"/></g><g transform="translate(0 8.429)"><rect class="p" width="124.14" height="222.222" rx="35.672" transform="translate(130.675)"/><rect class="p" width="124.14" height="222.222" rx="35.672"/><rect class="p" width="124.14" height="222.222" rx="35.672" transform="translate(262.284)"/><rect class="p" width="124.14" height="222.222" rx="35.672" transform="translate(394.348)"/><rect class="p" width="124.14" height="222.222" rx="35.672" transform="translate(525.339)"/><rect class="p" width="124.14" height="222.222" rx="35.672" transform="translate(657.404)"/><rect class="p" width="124.14" height="222.222" rx="35.672" transform="translate(788.626)"/></g></g><g transform="translate(-27.373 182.619)"><g transform="translate(7.641)"><rect class="m" width="140.607" height="204.445" rx="40.403"/><rect class="m" width="140.607" height="204.445" rx="40.403" transform="translate(149.066)"/><rect class="m" width="140.607" height="204.445" rx="40.403" transform="translate(298.648)"/><rect class="m" width="140.607" height="204.445" rx="40.403" transform="translate(447.015)"/><rect class="m" width="140.607" height="204.445" rx="40.403" transform="translate(596.597)"/></g><g transform="translate(0 11.787)"><rect class="p" width="143.522" height="204.445" rx="41.241"/><rect class="p" width="143.522" height="204.445" rx="41.241" transform="translate(152.156)"/><rect class="p" width="143.522" height="204.445" rx="41.241" transform="translate(304.839)"/><rect class="p" width="143.522" height="204.445" rx="41.241" transform="translate(456.281)"/><rect class="p" width="143.522" height="204.445" rx="41.241" transform="translate(608.964)"/></g></g><rect class="a" width="690.724" height="690.724" transform="translate(0.843 -370.412)"/><g transform="translate(71.542 21.282)"><g transform="translate(78.944 179.701)"><rect class="q" width="56.805" height="131.447" rx="7.073" transform="translate(3.233 3.233)"/><path class="r" d="M997.262,309.621a12.344,12.344,0,0,1,12.3,12.307V428.76a12.339,12.339,0,0,1-12.3,12.307h-32.2a12.34,12.34,0,0,1-12.307-12.307V321.928a12.345,12.345,0,0,1,12.307-12.307h32.2m0-3.233h-32.2a15.558,15.558,0,0,0-15.54,15.54V428.76a15.56,15.56,0,0,0,15.54,15.542h32.2A15.556,15.556,0,0,0,1012.8,428.76V321.928a15.555,15.555,0,0,0-15.535-15.54Z" transform="translate(-949.526 -306.388)"/></g><g transform="translate(18.673 179.701)"><rect class="q" width="56.805" height="131.447" rx="7.073" transform="translate(3.233 3.233)"/><path class="r" d="M962.619,309.621a12.345,12.345,0,0,1,12.307,12.307V428.76a12.34,12.34,0,0,1-12.307,12.307H930.43a12.341,12.341,0,0,1-12.309-12.307V321.928a12.345,12.345,0,0,1,12.309-12.307h32.189m0-3.233H930.43a15.558,15.558,0,0,0-15.542,15.54V428.76A15.56,15.56,0,0,0,930.43,444.3h32.189a15.558,15.558,0,0,0,15.54-15.542V321.928a15.557,15.557,0,0,0-15.54-15.54Z" transform="translate(-914.888 -306.388)"/></g><path class="r" d="M938.627,326.419a96.416,96.416,0,0,1-21.569-2.182,1.616,1.616,0,0,1,.75-3.144c12.321,2.934,26.849,2.038,31.007,1.695,1.85-.157,3.765-.367,5.693-.625a10.192,10.192,0,0,0,8.62-7.647,1.617,1.617,0,0,1,3.165.666,13.45,13.45,0,0,1-11.352,10.184c-1.984.268-3.953.484-5.857.644C947.238,326.161,943.408,326.419,938.627,326.419Z" transform="translate(-895.529 -121.618)"/><g transform="translate(78.944 137.499)"><path class="s" d="M1021.518,336.841c-3.137,3.015-8.025,4.477-13.329,5.739V406.43c0,4.03-3.726,7.3-8.324,7.3H970.573a15.308,15.308,0,0,1-12.507-6.092l-5.427-7.658a6.633,6.633,0,0,1-1.255-3.849v-93.72L973.2,284.1c.388.059.783.11,1.185.162,16.059,2.245,39.628,5.316,48.23,19.979C1028.842,314.85,1027.979,330.633,1021.518,336.841Z" transform="translate(-948.151 -280.683)"/><path class="r" d="M974.574,285.549c.388.059.783.11,1.183.162,16.06,2.245,39.629,5.316,48.232,19.979,6.227,10.612,5.365,26.395-1.1,32.6-3.137,3.015-8.025,4.477-13.329,5.739v63.851c0,4.03-3.726,7.3-8.325,7.3H971.948a15.308,15.308,0,0,1-12.507-6.092l-5.427-7.658a6.633,6.633,0,0,1-1.255-3.847V303.859l21.815-18.31m-.962-3.414-1.115.938L950.68,301.382l-1.154.969v95.23a9.839,9.839,0,0,0,1.851,5.718l5.424,7.656a18.441,18.441,0,0,0,15.147,7.458h29.292c6.374,0,11.557-4.724,11.557-10.531V346.56c4.453-1.171,9.085-2.81,12.337-5.935,7.733-7.43,8.516-24.862,1.642-36.572-4.16-7.092-11.578-12.307-22.674-15.944-9.076-2.974-19.087-4.371-27.129-5.493l-.767-.106-.017,0-.016,0c-.379-.049-.753-.1-1.119-.153l-1.443-.216Z" transform="translate(-949.526 -282.135)"/></g><g transform="translate(0 137.499)"><path class="s" d="M911.355,336.841c3.137,3.015,8.025,4.477,13.329,5.739V406.43c0,4.03,3.726,7.3,8.324,7.3H962.3a15.309,15.309,0,0,0,12.507-6.092l5.427-7.658a6.634,6.634,0,0,0,1.255-3.849v-93.72L959.674,284.1c-.388.059-.783.11-1.183.162-16.06,2.245-39.629,5.316-48.23,19.979C904.031,314.85,904.894,330.633,911.355,336.841Z" transform="translate(-902.777 -280.683)"/><path class="r" d="M961.053,285.549l21.815,18.31v93.722a6.633,6.633,0,0,1-1.255,3.847l-5.427,7.658a15.308,15.308,0,0,1-12.507,6.092H934.387c-4.6,0-8.324-3.266-8.324-7.3V344.032c-5.3-1.262-10.191-2.723-13.329-5.739-6.461-6.208-7.324-21.991-1.095-32.6,8.6-14.663,32.172-17.734,48.23-19.979.4-.052.8-.1,1.183-.162m.962-3.414-1.441.216c-.367.056-.741.1-1.119.153l-.017,0-.017,0-.767.106c-8.042,1.122-18.053,2.52-27.129,5.493-11.1,3.637-18.514,8.852-22.674,15.944-6.873,11.71-6.09,29.142,1.642,36.572,3.254,3.125,7.884,4.764,12.337,5.935v61.322c0,5.807,5.184,10.531,11.557,10.531h29.292a18.438,18.438,0,0,0,15.145-7.456l5.427-7.66a9.842,9.842,0,0,0,1.849-5.716v-95.23l-1.154-.969-21.815-18.309-1.117-.938Z" transform="translate(-904.157 -282.135)"/></g><path class="t" d="M1008.189,356.677v3.666c0,4.03-3.726,7.3-8.324,7.3H970.573a15.308,15.308,0,0,1-12.507-6.092l-5.427-7.658a6.634,6.634,0,0,1-1.255-3.849v-3.666a6.638,6.638,0,0,0,1.255,3.849l5.427,7.656a15.3,15.3,0,0,0,12.507,6.094h29.292C1004.464,363.973,1008.189,360.707,1008.189,356.677Z" transform="translate(-869.207 -97.096)"/><path class="t" d="M973.551,346.374v3.666a6.634,6.634,0,0,1-1.255,3.849l-5.427,7.658a15.308,15.308,0,0,1-12.507,6.092H925.07c-4.6,0-8.324-3.266-8.324-7.3v-3.666c0,4.03,3.726,7.3,8.324,7.3h29.292a15.305,15.305,0,0,0,12.507-6.094l5.427-7.656A6.638,6.638,0,0,0,973.551,346.374Z" transform="translate(-894.84 -97.096)"/><path class="s" d="M1026.131,327.7a18.083,18.083,0,0,1-4.613,9.146c-3.135,3.014-8.025,4.475-13.329,5.735v14.392l-1.928.543a98.81,98.81,0,0,1-29.589,2.509q-2.889-.243-5.775-.633a11.869,11.869,0,0,1-9.986-8.912h-9.527V302.407L973.2,284.1c.388.059.783.11,1.185.162,16.059,2.245,39.626,5.316,48.228,19.979A34.069,34.069,0,0,1,1026.131,327.7Z" transform="translate(-869.207 -143.184)"/><path class="s" d="M981.489,302.407v48.067h-9.4a11.869,11.869,0,0,1-9.986,8.912q-2.882.386-5.775.633a96.832,96.832,0,0,1-29.278-2.509l-2.368-.44V342.576c-5.3-1.26-10.193-2.721-13.329-5.735a18.081,18.081,0,0,1-4.611-9.146,34.051,34.051,0,0,1,3.518-23.457c8.6-14.663,32.168-17.734,48.228-19.979.4-.052.8-.1,1.183-.162Z" transform="translate(-902.778 -143.184)"/><path class="u" d="M1033.823,320.654v14.061l-1.928.543a98.81,98.81,0,0,1-29.589,2.509q-2.889-.243-5.775-.633a11.869,11.869,0,0,1-9.986-8.912H964.153a11.869,11.869,0,0,1-9.986,8.912q-2.882.386-5.775.633a96.832,96.832,0,0,1-29.278-2.509l-2.368-.44V320.763l2.368.44a96.832,96.832,0,0,0,29.278,2.509q2.892-.243,5.775-.633a11.869,11.869,0,0,0,9.986-8.912h22.391a11.869,11.869,0,0,0,9.986,8.912q2.881.389,5.775.633a98.81,98.81,0,0,0,29.589-2.509Z" transform="translate(-894.84 -120.931)"/><path class="v" d="M1055.089,322.405c-3.136,3.014-6.261,4.307-11.563,5.568l-3.694,1.048a98.811,98.811,0,0,1-29.59,2.509q-2.889-.243-5.775-.633a11.869,11.869,0,0,1-9.986-8.912H972.091A11.869,11.869,0,0,1,962.1,330.9q-2.882.389-5.775.633a96.832,96.832,0,0,1-29.278-2.509l-2.368-.44c-5.3-1.262-10.193-3.162-13.329-6.175-3.959-3.8-5.815-11.2-5.227-18.8.447,5.509,2.239,10.432,5.227,13.3,3.136,3.014,8.025,4.916,13.329,6.177l2.368.44c10.536,2.509,21.077,1.349,29.278.668q2.892-.243,5.775-.633a11.867,11.867,0,0,0,9.986-8.912h22.391a11.867,11.867,0,0,0,9.986,8.912q2.881.389,5.775.633c8.2.68,19.054,1.841,29.59-.668l3.694-1.049c5.3-1.26,8.427-2.554,11.563-5.568,2.989-2.871,4.78-7.794,5.227-13.3C1060.9,311.2,1059.047,318.6,1055.089,322.405Z" transform="translate(-902.777 -128.748)"/><path class="v" d="M906.127,303.6a28.3,28.3,0,0,0,1.347,6.77c-.292.945-.531,1.909-.731,2.878A33.3,33.3,0,0,1,906.127,303.6Z" transform="translate(-902.777 -128.748)"/><path class="v" d="M909.435,314.724c3.144,2.647,7.748,4,12.721,5.187v.44C917.183,319.168,912.579,317.421,909.435,314.724Z" transform="translate(-900.25 -120.519)"/><path class="v" d="M984.03,320.144c5.3-1.26,10.193-2.721,13.329-5.735-3.136,3.014-6.261,4.307-11.563,5.568l-1.766.5Z" transform="translate(-845.047 -120.752)"/><path class="v" d="M994.652,313.252c-.2-.969-.44-1.933-.731-2.878a28.4,28.4,0,0,0,1.345-6.77A33.351,33.351,0,0,1,994.652,313.252Z" transform="translate(-837.728 -128.748)"/><g transform="translate(25.574 45.563)"><path class="w" d="M931.671,253.561a29.008,29.008,0,0,1-11.836,23.405c-.033-.783-.052-1.564-.052-2.354V241.582a50.756,50.756,0,0,1,1.112-10.607A28.993,28.993,0,0,1,931.671,253.561Z" transform="translate(-918.167 -228.059)"/><path class="r" d="M919.035,281.31l-.129-3.036c-.035-.853-.052-1.646-.052-2.422V242.823A52.568,52.568,0,0,1,920,231.878l.552-2.579,2.048,1.66a30.675,30.675,0,0,1-1.119,48.549Zm3.619-45.967a49.6,49.6,0,0,0-.567,7.479V274.8a27.438,27.438,0,0,0,.567-39.454Z" transform="translate(-918.854 -229.299)"/></g><path class="u" d="M1013.174,294.257c0,6.019-19.37,10.9-43.266,10.9s-42.245-4.966-43.264-10.9c-1.449-8.422,20.858-11.063,44.752-11.063S1013.174,288.238,1013.174,294.257Z" transform="translate(-887.565 -143.852)"/><g transform="translate(115.503 77.654)"><path class="x" d="M994.273,260.538a10.942,10.942,0,1,1-4.785-9.041A10.92,10.92,0,0,1,994.273,260.538Z" transform="translate(-969.161 -246.367)"/><path class="r" d="M984.712,250.975a10.94,10.94,0,1,1-10.943,10.938,10.874,10.874,0,0,1,10.943-10.938m0-3.233a14.175,14.175,0,1,0,7.969,2.455,14.189,14.189,0,0,0-7.969-2.455Z" transform="translate(-970.536 -247.742)"/></g><g transform="translate(14.33 77.653)"><circle class="x" cx="10.941" cy="10.941" r="10.941" transform="translate(3.233 3.233)"/><path class="r" d="M926.566,250.974a10.94,10.94,0,1,1-10.941,10.941,10.941,10.941,0,0,1,10.941-10.941m0-3.233a14.174,14.174,0,1,0,14.174,14.174,14.19,14.19,0,0,0-14.174-14.174Z" transform="translate(-912.392 -247.741)"/></g><g transform="translate(33.462 241.173)"><path class="u" d="M925.245,343.574h21.883a10.941,10.941,0,0,1-21.883,0Z" transform="translate(-922.012 -340.341)"/><path class="r" d="M948.5,344.949a10.941,10.941,0,0,1-21.883,0H948.5m3.233-3.233H923.387v3.233a14.174,14.174,0,0,0,28.349,0v-3.233Z" transform="translate(-923.387 -341.716)"/></g><g transform="translate(96.406 241.173)"><path class="u" d="M961.42,343.574H983.3a10.94,10.94,0,1,1-21.881,0Z" transform="translate(-958.185 -340.341)"/><path class="r" d="M984.677,344.949a10.941,10.941,0,1,1-21.881,0h21.881m3.235-3.233h-28.35v3.233a14.175,14.175,0,0,0,28.35,0v-3.233Z" transform="translate(-959.561 -341.716)"/></g><g transform="translate(54.673 53.861)"><rect class="y" width="41.613" height="103.041" rx="11.957" transform="translate(3.233 3.233)"/><path class="r" d="M959.616,237.3a20.868,20.868,0,0,1,20.807,20.806v61.429a20.868,20.868,0,0,1-20.807,20.807h0a20.868,20.868,0,0,1-20.806-20.807V258.107A20.868,20.868,0,0,1,959.616,237.3h0m0-3.233a24.065,24.065,0,0,0-24.039,24.039v61.429a24.039,24.039,0,1,0,48.079,0V258.107a24.066,24.066,0,0,0-24.04-24.039Z" transform="translate(-935.577 -234.068)"/></g><g transform="translate(23.956 20.774)"><path class="x" d="M1022.823,251.991v33.024a51.52,51.52,0,0,1-103.04,0V251.991a51.276,51.276,0,0,1,13.05-34.167,18.508,18.508,0,0,1,5.763-.912h65.413a18.508,18.508,0,0,1,5.763.912A51.24,51.24,0,0,1,1022.823,251.991Z" transform="translate(-916.548 -213.677)"/><path class="r" d="M1005.385,218.286a18.509,18.509,0,0,1,5.763.914,51.24,51.24,0,0,1,13.05,34.167v33.024a51.52,51.52,0,0,1-103.04,0V253.367a50.469,50.469,0,0,1,.478-6.978,51.289,51.289,0,0,1,12.572-27.19,18.509,18.509,0,0,1,5.763-.914h65.413m0-3.233H939.972a21.712,21.712,0,0,0-6.769,1.072,3.242,3.242,0,0,0-1.408.922,54.509,54.509,0,0,0-13.872,36.32v33.024a54.755,54.755,0,0,0,109.509,0V253.367a54.566,54.566,0,0,0-13.872-36.32,3.24,3.24,0,0,0-1.408-.922,21.712,21.712,0,0,0-6.769-1.072Z" transform="translate(-917.924 -215.053)"/></g><path class="y" d="M1022.824,252.366v6.416a51.521,51.521,0,0,1-103.041,0v-6.416a51.521,51.521,0,1,0,103.041,0Z" transform="translate(-892.592 -166.666)"/><path class="w" d="M920.374,232.2c.226.181.445.369.665.571-.219-.188-.438-.376-.665-.557Z" transform="translate(-892.155 -181.593)"/><path class="w" d="M920.756,232.523c.447.374.874.776,1.288,1.2C921.63,233.3,921.2,232.911,920.756,232.523Z" transform="translate(-891.872 -181.35)"/><path class="r" d="M985.162,326.5c-5.072,0-9.408-.278-11.987-.491-1.907-.16-3.877-.376-5.859-.644a13.446,13.446,0,0,1-11.352-10.184,1.616,1.616,0,0,1,3.163-.665,10.194,10.194,0,0,0,8.622,7.646c1.926.258,3.844.468,5.693.625,5.695.47,20.188,1.27,31.724-1.477a1.617,1.617,0,1,1,.748,3.146A93,93,0,0,1,985.162,326.5Z" transform="translate(-865.842 -121.619)"/><path class="r" d="M935.544,326.624a80.131,80.131,0,0,1-18.408-1.834,1.617,1.617,0,1,1,.748-3.146c7.782,1.853,17.926,2.225,31.009,1.145,1.85-.157,3.765-.367,5.693-.625a10.265,10.265,0,0,0,8.618-7.64,1.616,1.616,0,1,1,3.165.659,13.445,13.445,0,0,1-11.352,10.184c-1.98.268-3.952.484-5.857.644C944.233,326.419,939.7,326.624,935.544,326.624Z" transform="translate(-895.472 -121.62)"/><g transform="translate(59.122 154.769)"><path class="x" d="M958.077,293.919v42.257s-22.5,1.3-17.306-22.067C944.232,295.217,958.077,293.919,958.077,293.919Z" transform="translate(-936.758 -290.684)"/><path class="r" d="M959.453,295.295V337.55s-.224.014-.625.014c-3.6,0-21.354-1.051-16.682-22.079,3.463-18.892,17.306-20.19,17.306-20.19m0-3.235a2.928,2.928,0,0,0-.3.016,20.126,20.126,0,0,0-8.89,3.567c-4.049,2.793-9.288,8.391-11.284,19.2-1.752,7.935-.773,14.286,2.911,18.879,5.267,6.565,14.3,7.075,16.939,7.075.47,0,.759-.014.811-.017a3.236,3.236,0,0,0,3.049-3.229V295.295a3.238,3.238,0,0,0-3.235-3.235Z" transform="translate(-938.134 -292.06)"/></g><path class="y" d="M958.079,321.254v4.587s-19.765,1.143-17.968-17.955C941.639,322.205,958.079,321.254,958.079,321.254Z" transform="translate(-877.634 -125.58)"/><path class="z" d="M958.08,293.917v2.756s-13.847,1.293-17.306,20.184a32.231,32.231,0,0,0-.738,5.084,28.075,28.075,0,0,1,.738-7.834C944.233,295.217,958.08,293.917,958.08,293.917Z" transform="translate(-877.636 -135.917)"/><g transform="translate(79.04 154.769)"><path class="x" d="M951.44,293.919v42.257s22.5,1.3,17.306-22.067C965.285,295.217,951.44,293.919,951.44,293.919Z" transform="translate(-948.205 -290.684)"/><path class="r" d="M952.816,295.295s13.845,1.3,17.306,20.19c4.672,21.028-13.085,22.079-16.682,22.079-.4,0-.625-.014-.625-.014V295.295m0-3.235a3.238,3.238,0,0,0-3.235,3.235V337.55a3.236,3.236,0,0,0,3.048,3.229c.052,0,.341.017.811.017,2.641,0,11.672-.51,16.939-7.075,3.684-4.594,4.663-10.945,2.911-18.879-1.994-10.809-7.235-16.407-11.284-19.2a20.127,20.127,0,0,0-8.89-3.567,2.935,2.935,0,0,0-.3-.016Z" transform="translate(-949.581 -292.06)"/></g><path class="z" d="M969.484,321.942a32.238,32.238,0,0,0-.738-5.084c-3.459-18.892-17.306-20.184-17.306-20.184v-2.756s13.847,1.3,17.306,20.191A28.076,28.076,0,0,1,969.484,321.942Z" transform="translate(-869.165 -135.917)"/><path class="y" d="M951.44,325.84v-4.587s16.44.952,17.968-13.369C971.205,326.984,951.44,325.84,951.44,325.84Z" transform="translate(-869.165 -125.58)"/><g transform="translate(69.387 162.074)"><g transform="translate(0 0.001)"><path class="aa" d="M954.046,297.188s-6.44,1.817-9.083,11.724" transform="translate(-943.346 -295.57)"/><path class="r" d="M945.653,311.217a1.659,1.659,0,0,1-.419-.054,1.62,1.62,0,0,1-1.145-1.98c2.847-10.673,9.906-12.779,10.205-12.864a1.617,1.617,0,0,1,.891,3.109c-.258.078-5.633,1.818-7.971,10.588A1.618,1.618,0,0,1,945.653,311.217Z" transform="translate(-944.034 -296.258)"/></g><g transform="translate(11.633)"><path class="aa" d="M951.643,297.188s6.442,1.817,9.083,11.724" transform="translate(-950.035 -295.569)"/><path class="r" d="M961.408,311.217a1.618,1.618,0,0,1-1.561-1.2c-2.344-8.794-7.743-10.519-7.973-10.588a1.624,1.624,0,0,1-1.091-2,1.608,1.608,0,0,1,1.984-1.1c.3.085,7.359,2.191,10.205,12.864a1.616,1.616,0,0,1-1.564,2.034Z" transform="translate(-950.719 -296.258)"/></g></g><path class="r" d="M996.382,306.589a1.6,1.6,0,0,1-.952-.311c-12.121-8.857-33.8-3.92-34.016-3.87a1.617,1.617,0,0,1-.738-3.148c.947-.223,23.334-5.333,36.661,4.408a1.616,1.616,0,0,1-.955,2.921Z" transform="translate(-863.253 -133.1)"/><path class="y" d="M1022.833,255.837v19.015c-.2-.04-.395-.078-.6-.124-.324-.064-.64-.136-.959-.214l-.245-.057c-.576-.136-1.145-.278-1.7-.44-.292-.071-.576-.155-.861-.238-.452-.136-.9-.278-1.345-.421a56.915,56.915,0,0,1-12.586-5.944c-.124-.071-.238-.148-.355-.226-1.081-.691-1.94-1.293-2.561-1.752-.117-.084-.226-.169-.324-.24-.072-.05-.143-.1-.2-.148-.143-.11-.259-.207-.357-.278l-.012-.007c-.064-.05-.11-.1-.155-.129a1.231,1.231,0,0,0-.1-.084,2.187,2.187,0,0,0-3.123,3.033c1.267,1.578,1.131,4.237.783,6.118-.409-.057-.816-.129-1.209-.2-.369-.071-.738-.155-1.1-.24-.59-.141-1.171-.3-1.733-.491-.183-.059-.364-.117-.538-.181a21.789,21.789,0,0,1-2.09-.835c-.167-.071-.336-.155-.5-.231a24.177,24.177,0,0,1-2.826-1.611c-.155-.1-.3-.193-.445-.3-.176-.124-.35-.245-.518-.362-.259-.188-.51-.376-.757-.576-.465-.355-.912-.731-1.345-1.119-.122-.1-.245-.214-.362-.324-.259-.238-.512-.479-.757-.717-.212-.207-.426-.428-.633-.64-.155-.162-.3-.324-.453-.486-.233-.252-.466-.512-.685-.769s-.447-.524-.66-.79-.428-.531-.635-.8-.407-.536-.6-.807q-.243-.332-.466-.66c-.188-.273-.376-.545-.55-.823-.167-.252-.329-.5-.485-.755-.186-.3-.367-.6-.536-.887s-.331-.55-.478-.821-.3-.55-.447-.814-.291-.543-.426-.814-.271-.538-.4-.8-.259-.538-.383-.8c-.252-.531-.479-1.048-.691-1.552-.111-.252-.214-.5-.318-.75-.031-.078-.057-.15-.09-.221a48.278,48.278,0,0,1-2.476-7.87,2.177,2.177,0,0,0-1.281-1.6,2.2,2.2,0,0,0-2.044.162c-.012.005-.09.057-.245.148-.038.026-.084.052-.136.083-.233.136-.576.338-1.021.583-.11.064-.233.129-.357.193a77.656,77.656,0,0,1-7.178,3.449c-.576.245-1.185.491-1.811.743-.266.1-.538.207-.816.317-.226.09-.465.176-.7.266-.95.355-1.94.71-2.981,1.067q-1.164.4-2.407.776c-.271.083-.55.169-.828.252-1.423.419-2.9.828-4.449,1.2-.447.11-.893.214-1.345.317-.259.059-.518.117-.783.176-.517.11-1.041.219-1.578.324-.31.064-.621.122-.931.181-.343.064-.679.122-1.028.186-.44.078-.886.15-1.34.221-.484.077-.983.148-1.481.219-.265.038-.529.078-.8.11-.141.019-.291.04-.433.052-.348.045-.7.084-1.048.124-.278.031-.562.064-.847.09-.479.05-.962.1-1.448.136-.3.019-.6.045-.9.064-.355.026-.717.052-1.081.071a.851.851,0,0,1-.117.005c-.355.021-.71.04-1.067.052-.531.026-1.067.04-1.61.052s-1.074.019-1.618.019c-1.074,0-2.159-.026-3.259-.071a2.185,2.185,0,0,0-.188,4.366c1.871.078,14.712-7.694,16.511-7.74-.245.588-7.517,12.036-11.315,39.173l-8.035,1.486c-.952-3.88-.755,1.119-.755-3.045V255.837a51.236,51.236,0,0,1,6.654-25.243,1.052,1.052,0,0,1,.1-.052l.059-.038.019-.007c.148-.077.3-.155.44-.226.064-.038.129-.071.193-.1.628-.318,1.242-.609,1.838-.887.012-.005.026-.012.045-.019.148-.064.291-.136.438-.2s.311-.143.466-.207.31-.136.459-.2c.9-.395,1.759-.745,2.528-1.061,2.833-1.164,4.392-1.8,4.994-3.247a3.154,3.154,0,0,0-.271-2.962c-.059-.09-.124-.174-.195-.265a.744.744,0,0,0-.071-.078,1.775,1.775,0,0,0-.219-.226l-.007-.007a3.8,3.8,0,0,0-.291-.258,8.158,8.158,0,0,0-2.542-1.255c-.155-.052-.317-.1-.479-.15s-.35-.1-.531-.143l-.555-.136c-.021-.007-.033-.007-.052-.012-.169-.04-.343-.071-.518-.1-.193-.038-.393-.077-.588-.11a.045.045,0,0,0-.026-.007c-.388-.064-.781-.129-1.183-.181.3-.2.609-.388.912-.569.233-.136.459-.271.693-.4.193-.115.4-.226.588-.322s.376-.195.564-.292a26.224,26.224,0,0,1,3.473-1.422,27.3,27.3,0,0,1,8.6-1.34c.259,0,.512.007.769.014a1.183,1.183,0,0,1,.136.005c.09,0,.183,0,.273.007s.193.007.291.014c.071,0,.148.005.226.012l.317.019c.064.007.124.007.188.014a.57.57,0,0,1,.09.005c.057.007.11.007.169.014l.205.019.64.057c.59.064,1.164.143,1.74.233.019,0,.04.007.052.007.245.038.485.077.724.122.1.021.188.04.285.052.193.04.4.078.588.117.019.007.033.007.052.012h.012c.407.092.809.176,1.2.273a.535.535,0,0,1,.064.012c.012.007.031.007.045.014l.084.019c.3.071.6.148.886.226.1.026.2.052.3.084.129.033.264.071.4.11.245.071.491.143.731.221a1.635,1.635,0,0,1,.174.05c.331.1.654.207.976.317a.423.423,0,0,1,.09.033c.292.1.583.2.867.3.169.057.337.122.5.188.143.05.285.1.428.16.252.1.5.195.757.3.05.021.1.04.155.066.233.09.459.186.685.284a.919.919,0,0,0,.122.052c.318.136.628.278.933.414.867.4,1.688.8,2.464,1.19.252.136.5.264.743.393l.4.214c.129.071.257.143.381.214s.252.143.376.212.245.136.367.207c.214.124.414.247.616.364a46.088,46.088,0,0,1,3.919,2.586c.083.059.155.11.214.155.1.078.174.13.212.162a2.195,2.195,0,0,0,2.7-.005,9.072,9.072,0,0,0,2.25-2.9,30.486,30.486,0,0,0,2.471-6.934c.188-.731.343-1.436.485-2.109a17.084,17.084,0,0,1,1.326,2.212,20.549,20.549,0,0,1,1.992,6.831,18.064,18.064,0,0,1,.122,3.29,2.191,2.191,0,0,0,2.782,2.3,60.993,60.993,0,0,1,19.6-2.6c.257.014.5.026.757.045.7.04,1.383.1,2.05.183.207.019.414.045.614.07.143.014.278.033.407.052.272.038.538.078.8.117s.518.083.771.129l.64.117c.265.052.529.1.788.162.195.04.388.085.583.136A51.108,51.108,0,0,1,1022.833,255.837Z" transform="translate(-892.599 -196.749)"/><path class="r" d="M921.286,306.588a1.616,1.616,0,0,1-.955-2.922c13.325-9.739,35.714-4.63,36.661-4.408a1.617,1.617,0,0,1-.738,3.148c-.219-.051-21.895-4.987-34.016,3.87A1.6,1.6,0,0,1,921.286,306.588Z" transform="translate(-892.678 -133.1)"/><g transform="translate(51.583 66.762)"><ellipse class="r" cx="6.678" cy="9.304" rx="6.678" ry="9.304" transform="translate(2.874 14.34)"/><ellipse class="ab" cx="1.994" cy="2.778" rx="1.994" ry="2.778" transform="translate(8.881 18.519)"/><path class="r" d="M935.417,248.092a1.617,1.617,0,0,1-1.182-2.72,11.1,11.1,0,0,1,7.964-3.887c5.105-.129,9.047,3.673,9.212,3.835a1.617,1.617,0,0,1-2.26,2.314c-.042-.042-3.189-3.028-6.9-2.916a8.007,8.007,0,0,0-5.654,2.862A1.614,1.614,0,0,1,935.417,248.092Z" transform="translate(-933.801 -241.482)"/><ellipse class="r" cx="6.678" cy="9.304" rx="6.678" ry="9.304" transform="translate(38.03 14.34)"/><ellipse class="ab" cx="1.994" cy="2.778" rx="1.994" ry="2.778" transform="translate(41.39 18.519)"/><path class="r" d="M971.064,248.092a1.611,1.611,0,0,1-1.181-.512,7.993,7.993,0,0,0-5.674-2.862c-3.7-.082-6.845,2.883-6.877,2.913a1.617,1.617,0,0,1-2.262-2.311c.165-.162,4.091-3.95,9.212-3.835a11.092,11.092,0,0,1,7.962,3.887,1.616,1.616,0,0,1-1.18,2.72Z" transform="translate(-918.421 -241.482)"/></g><path class="ac" d="M920.685,232.206a43.682,43.682,0,0,0-.731,4.559,45.794,45.794,0,0,1,.724-4.566Z" transform="translate(-892.466 -181.59)"/><path class="r" d="M951.076,329.513a1.617,1.617,0,0,1-1.617-1.616v-7.32a1.617,1.617,0,1,1,3.233,0v7.32A1.617,1.617,0,0,1,951.076,329.513Z" transform="translate(-870.631 -117.384)"/><g transform="translate(23.163 3.726)"><path class="ad" d="M1027.692,232.921l-.024.654-1.423,33.243-1.19,27.926h-6.275a183.948,183.948,0,0,0-4.456-32.37,73.932,73.932,0,0,0-3.317-10.931c-3.558-5.671-17.456-6.208-30.689-6.344-.033-.077-.057-.148-.09-.219a48.4,48.4,0,0,1-2.478-7.872,2.18,2.18,0,0,0-1.281-1.6,2.2,2.2,0,0,0-2.043.162,82.364,82.364,0,0,1-19.067,8.053,227.345,227.345,0,0,1-29.22-6.449c-2.871-.88-5.445-1.759-7.741-2.645a37.978,37.978,0,0,1,16.389-13.109c1.255-.571,2.426-1.049,3.454-1.469,2.833-1.164,4.392-1.8,4.992-3.247a3.148,3.148,0,0,0-.271-2.961c-1.06-1.623-3.985-2.485-7.256-2.93,10.884-7.1,22.862-4.185,30.992-.492a51.314,51.314,0,0,1,9.7,5.7,2.192,2.192,0,0,0,2.7-.007c2.29-1.8,3.8-6.061,4.722-9.831.6.033,1.209.066,1.811.1a21.176,21.176,0,0,1,2.114,10.122,2.189,2.189,0,0,0,2.781,2.3c14.352-4.1,25.023-3.007,32.862.285A29.368,29.368,0,0,1,1027.692,232.921Z" transform="translate(-916.781 -204.568)"/><path class="r" d="M1025.742,297.049h-6.275a1.616,1.616,0,0,1-1.613-1.524,182.97,182.97,0,0,0-4.414-32.085,77.475,77.475,0,0,0-3.182-10.553c-3.482-5.218-19.608-5.384-29.267-5.483a1.614,1.614,0,0,1-1.477-1l-.068-.164-.03-.07a50.065,50.065,0,0,1-2.561-8.154.573.573,0,0,0-.331-.433.589.589,0,0,0-.546.042,84.433,84.433,0,0,1-19.478,8.237,1.612,1.612,0,0,1-.712.044,230.6,230.6,0,0,1-29.431-6.5c-2.9-.889-5.54-1.792-7.853-2.683a1.618,1.618,0,0,1-.752-2.424,39.554,39.554,0,0,1,17.058-13.67c1.265-.572,2.436-1.053,3.47-1.476,2.582-1.06,3.821-1.6,4.15-2.387a1.544,1.544,0,0,0-.134-1.456c-.3-.452-1.488-1.58-6.122-2.21a1.618,1.618,0,0,1-.665-2.958c11.5-7.5,24.047-4.468,32.544-.609a52.961,52.961,0,0,1,10.012,5.888.58.58,0,0,0,.717.007c1.564-1.228,3.038-4.406,4.153-8.947a1.608,1.608,0,0,1,1.657-1.228l.08,0c.581.031,1.167.063,1.748.1a1.615,1.615,0,0,1,1.34.886,22.932,22.932,0,0,1,2.278,11.021.581.581,0,0,0,.212.47.591.591,0,0,0,.524.1c13.064-3.732,24.481-3.616,33.925.352a1.624,1.624,0,0,1,.752.644A30.83,30.83,0,0,1,1030,233.609l0,.064-.026.653-2.614,61.176A1.615,1.615,0,0,1,1025.742,297.049Zm-4.75-3.233h3.2l2.57-60.23a28.113,28.113,0,0,0-3.8-12.61c-8.658-3.477-19.187-3.484-31.308-.021a3.806,3.806,0,0,1-4.836-4,19.764,19.764,0,0,0-1.272-7.721c-1.256,4.3-2.855,7.242-4.766,8.742a3.8,3.8,0,0,1-4.689.014,50.356,50.356,0,0,0-9.373-5.5c-6.84-3.108-16.511-5.65-25.744-1.625A7.4,7.4,0,0,1,945,213.55a4.755,4.755,0,0,1,.414,4.456c-.863,2.072-2.857,2.89-5.874,4.131-1.046.428-2.187.9-3.4,1.446a37.175,37.175,0,0,0-14.489,10.868c1.735.623,3.626,1.248,5.648,1.867a226.113,226.113,0,0,0,28.645,6.341,80.645,80.645,0,0,0,18.309-7.767,3.806,3.806,0,0,1,5.772,2.5,46.264,46.264,0,0,0,2.081,6.79c14.209.174,27.106.95,30.957,7.091a1.705,1.705,0,0,1,.115.216,75.127,75.127,0,0,1,3.405,11.2A184.184,184.184,0,0,1,1020.991,293.816Zm7.388-60.207h0Zm0,0h0Z" transform="translate(-917.468 -205.255)"/></g><g transform="translate(14.185)"><path class="ac" d="M1035.778,243.423c7.734,12.107,9.027,21.51,9.215,25.178a40.192,40.192,0,0,1-5.361.355c-.369,0-.738-.007-1.107-.012l-.51-.019c-.273-.007-.538-.021-.809-.04-.169-.005-.343-.019-.512-.031-.329-.026-.659-.052-.983-.085a1.079,1.079,0,0,1-.148-.012c-.4-.038-.79-.078-1.178-.129q-1.958-.243-3.809-.64c-.324-.066-.641-.136-.957-.214-.083-.019-.169-.038-.245-.057-.576-.137-1.145-.278-1.7-.44-.291-.071-.576-.155-.86-.24-.452-.136-.9-.278-1.345-.419a56.886,56.886,0,0,1-12.586-5.944c-.124-.071-.24-.15-.357-.226-1.081-.693-1.94-1.295-2.561-1.754-.117-.084-.226-.167-.324-.238-.07-.052-.141-.1-.2-.15-.143-.11-.258-.205-.355-.277l-.014-.007c-.064-.052-.11-.1-.155-.129-.058-.052-.1-.078-.1-.085a2.188,2.188,0,0,0-3.125,3.033c1.268,1.578,1.133,4.237.783,6.12-.407-.059-.814-.13-1.209-.2-.369-.07-.738-.155-1.1-.238-.588-.143-1.171-.3-1.733-.492-.181-.057-.362-.117-.536-.181a22.044,22.044,0,0,1-2.09-.833c-.169-.071-.336-.155-.5-.233a23.888,23.888,0,0,1-2.826-1.61c-.157-.1-.3-.195-.447-.3-.174-.124-.35-.247-.517-.364-.259-.186-.512-.374-.757-.574-.466-.357-.912-.731-1.345-1.119-.124-.1-.247-.214-.362-.324-.259-.24-.512-.478-.757-.719-.214-.207-.428-.426-.633-.64-.157-.162-.3-.324-.454-.486-.233-.252-.465-.51-.686-.769s-.445-.524-.659-.788-.426-.531-.633-.8-.407-.538-.6-.809c-.162-.219-.317-.44-.465-.659-.188-.271-.376-.543-.55-.821q-.253-.378-.485-.757c-.188-.3-.369-.6-.538-.886s-.329-.55-.479-.821-.3-.55-.445-.816-.291-.543-.426-.814-.273-.536-.4-.8-.259-.536-.381-.8c-.252-.529-.478-1.047-.693-1.552-.11-.252-.214-.5-.317-.75-.033-.077-.057-.148-.09-.219a48.4,48.4,0,0,1-2.478-7.872,2.181,2.181,0,0,0-1.281-1.6,2.2,2.2,0,0,0-2.043.162c-.014.007-.09.059-.245.15-.04.024-.085.05-.136.083-.233.136-.576.336-1.023.581-.11.066-.231.13-.355.195a78.036,78.036,0,0,1-7.179,3.447c-.576.245-1.183.492-1.812.745-.264.1-.536.205-.814.317-.226.09-.466.174-.7.265-.952.355-1.94.712-2.982,1.067q-1.164.4-2.406.776c-.271.085-.548.169-.826.252-1.423.421-2.9.828-4.451,1.2-.445.11-.893.212-1.345.317-.257.057-.517.117-.781.174-.518.11-1.042.221-1.578.324-.312.064-.621.124-.933.181-.343.064-.679.124-1.028.188-.439.077-.886.148-1.338.219-.485.078-.983.15-1.481.221-.266.038-.531.077-.8.11-.143.019-.291.038-.433.052-.35.045-.7.083-1.047.122-.279.033-.564.064-.847.09-.479.052-.964.1-1.449.136-.3.019-.6.045-.9.064-.357.026-.719.052-1.081.071a.657.657,0,0,1-.117.007c-.355.019-.712.038-1.067.052-.531.026-1.068.038-1.611.052s-1.073.019-1.616.019c-1.074,0-2.159-.026-3.259-.071a2.185,2.185,0,0,0-.188,4.366c1.869.077,3.711.1,5.511.05-.247.59-5.951,14.281-7.515,41.923h-6.08l-2.361-19.946-.193-1.817a40.715,40.715,0,0,1-1.095-11.636,2.191,2.191,0,0,0-1.971-2.321,13.182,13.182,0,0,0-3.856.433c.68-10.155,3.4-17.527,6.986-22.953.167-.259.343-.512.517-.757.045-.064.09-.136.143-.2.057-.085.117-.169.181-.252.1-.15.214-.3.324-.44a.5.5,0,0,1,.057-.084c.052-.071.11-.15.169-.221s.116-.155.181-.233c.233-.3.471-.607.717-.893.117-.141.233-.284.35-.419s.207-.24.317-.362c.292-.331.59-.654.887-.964.122-.13.245-.259.362-.381.278-.278.55-.545.821-.809.11-.1.219-.2.323-.3s.232-.214.343-.317c.148-.136.291-.266.438-.388.181-.162.362-.317.545-.466.083-.077.174-.148.258-.212s.136-.117.207-.176c.11-.09.221-.174.324-.258.084-.071.174-.137.259-.207.071-.052.136-.1.193-.15.317-.238.633-.472.945-.7.072-.052.143-.1.207-.15.083-.057.162-.117.245-.174.452-.311.9-.614,1.352-.9l.466-.291a1.059,1.059,0,0,1,.148-.09c.064-.038.124-.078.188-.117.091-.052.174-.1.258-.155.138-.085.273-.162.409-.24.11-.064.226-.129.336-.193.064-.04.129-.071.2-.111.124-.07.245-.141.369-.205s.245-.137.362-.2.221-.117.331-.167l.058-.04.019-.005c.15-.078.3-.157.44-.226.064-.04.129-.071.195-.1.627-.317,1.241-.607,1.836-.886a.406.406,0,0,1,.045-.019c.15-.064.291-.136.44-.2s.31-.143.466-.207.31-.136.458-.2c.906-.393,1.759-.743,2.53-1.06,2.833-1.164,4.392-1.8,4.992-3.247a3.148,3.148,0,0,0-.271-2.962c-.057-.09-.124-.176-.193-.266a.729.729,0,0,0-.071-.077,1.683,1.683,0,0,0-.221-.228,3.636,3.636,0,0,0-.3-.264,8.168,8.168,0,0,0-2.54-1.255c-.157-.052-.318-.1-.479-.15-.176-.05-.35-.1-.531-.141l-.557-.136c-.019-.007-.031-.007-.052-.014-.167-.038-.343-.071-.517-.1-.193-.04-.4-.078-.588-.11a.047.047,0,0,0-.026-.007c-.388-.064-.783-.129-1.183-.181.3-.2.607-.388.912-.569.233-.136.459-.271.693-.395.193-.117.393-.226.588-.324s.374-.193.562-.291a26.328,26.328,0,0,1,3.473-1.423,27.365,27.365,0,0,1,8.6-1.338c.258,0,.51.005.769.012a.878.878,0,0,1,.136.007c.091,0,.181,0,.271.007s.2.005.291.012c.071,0,.15.007.226.012l.318.021c.064.005.122.005.186.012a.418.418,0,0,1,.09.007c.059.007.111.007.169.012l.207.019.64.059c.588.064,1.164.143,1.74.233.019,0,.038.005.052.005.245.04.484.078.724.124.1.019.188.038.284.052.195.038.395.077.59.117.019.005.031.005.05.012h.014c.407.09.807.174,1.2.271.026.007.045.007.064.014a.337.337,0,0,1,.045.012l.085.019c.3.071.6.15.886.226.1.026.2.052.3.085.129.031.265.07.393.11.247.071.492.143.731.219.059.014.117.033.176.052.329.1.653.207.976.317a.375.375,0,0,1,.09.033c.291.1.583.2.867.3.169.059.336.124.5.188.143.052.284.1.426.162.252.1.5.193.757.3a1.33,1.33,0,0,1,.155.064c.233.09.459.188.686.285a1.035,1.035,0,0,0,.123.05c.317.136.626.278.931.414.866.4,1.688.8,2.464,1.19.252.136.5.266.745.4.136.071.265.143.4.214s.259.141.383.212.251.143.374.214.245.136.369.207A48.955,48.955,0,0,1,979.1,216.6c.084.057.155.11.212.155.1.078.176.129.214.162a2.192,2.192,0,0,0,2.7-.007c2.29-1.8,3.8-6.061,4.722-9.831.188-.729.343-1.436.485-2.107a16.955,16.955,0,0,1,1.326,2.212,21.174,21.174,0,0,1,2.114,10.122,2.189,2.189,0,0,0,2.781,2.3,61.051,61.051,0,0,1,19.6-2.6c.259.012.5.026.757.045.7.038,1.385.1,2.05.181.207.019.414.045.614.071.143.012.278.033.409.052.271.038.536.077.8.117s.517.083.769.129l.64.117c.265.052.531.1.79.162.343.071.679.148,1.007.233.226.05.447.11.667.167.169.04.331.085.5.136.3.078.6.169.893.259s.59.181.874.278c.576.188,1.138.393,1.688.607.272.1.545.214.809.331.31.129.614.264.919.4a.556.556,0,0,1,.1.045q.738.339,1.435.7c.176.084.343.174.512.264.188.1.369.2.55.3.271.148.543.3.814.472.259.15.519.31.771.466.529.336,1.041.679,1.531,1.034.233.162.459.331.686.5.021.019.045.031.066.05.226.169.445.338.659.512.453.362.893.724,1.319,1.1.214.188.421.374.628.562.614.564,1.188,1.138,1.738,1.714a38.723,38.723,0,0,1,6.889,10.122,12.759,12.759,0,0,0-8.919,2.433A2.189,2.189,0,0,0,1035.778,243.423Z" transform="translate(-910.934 -201.738)"/><path class="r" d="M988.808,206.349a16.839,16.839,0,0,1,1.326,2.212,21.175,21.175,0,0,1,2.114,10.122,2.187,2.187,0,0,0,2.187,2.384,2.16,2.16,0,0,0,.593-.082,63.379,63.379,0,0,1,17.366-2.652q1.141,0,2.238.052c.259.012.5.026.757.045.7.038,1.385.1,2.05.181.207.019.414.045.614.071.143.012.279.031.409.052.272.038.536.077.8.117s.517.084.769.129l.64.117c.266.05.531.1.79.162.343.071.679.148,1.007.233.226.05.447.11.666.167.169.038.331.085.5.136.3.078.6.169.893.259s.59.181.874.278c.576.188,1.138.393,1.688.607.271.1.545.214.809.331.31.129.614.264.919.4a.555.555,0,0,1,.1.045q.739.339,1.436.7c.176.084.343.174.512.265.188.1.369.2.55.3.271.148.543.3.814.472.259.148.519.31.771.466.529.336,1.041.679,1.531,1.034.233.162.459.331.685.5.021.021.046.033.066.052.226.169.445.338.659.512.452.362.893.724,1.319,1.1.214.188.421.374.628.562.614.562,1.188,1.138,1.738,1.714a38.719,38.719,0,0,1,6.889,10.122c-.422-.037-.833-.054-1.23-.054a12.57,12.57,0,0,0-7.689,2.487,2.189,2.189,0,0,0-.438,2.852c7.734,12.107,9.027,21.51,9.215,25.178a40.207,40.207,0,0,1-5.361.355c-.369,0-.738-.005-1.107-.012l-.51-.019c-.273-.007-.538-.021-.809-.04-.169-.005-.343-.019-.512-.031-.329-.026-.66-.052-.983-.085a1.082,1.082,0,0,1-.148-.012c-.395-.038-.79-.078-1.178-.129q-1.958-.243-3.809-.64c-.324-.066-.64-.136-.957-.214-.083-.019-.169-.038-.245-.057-.576-.136-1.145-.278-1.7-.44-.291-.071-.576-.155-.86-.24-.452-.136-.9-.278-1.345-.419a56.883,56.883,0,0,1-12.586-5.944c-.124-.071-.24-.15-.357-.226-1.081-.693-1.94-1.295-2.561-1.754-.117-.083-.226-.167-.324-.238l-.2-.148c-.143-.111-.258-.209-.355-.278l-.014-.007c-.064-.052-.11-.1-.155-.129-.057-.052-.1-.078-.1-.085a2.188,2.188,0,0,0-3.125,3.035c1.268,1.576,1.133,4.235.783,6.118-.407-.059-.814-.131-1.209-.2-.369-.07-.738-.155-1.1-.238-.588-.143-1.171-.3-1.733-.492-.181-.057-.362-.115-.536-.181a22.05,22.05,0,0,1-2.09-.833c-.169-.071-.336-.155-.5-.233a23.663,23.663,0,0,1-2.826-1.611c-.157-.1-.3-.193-.447-.3-.174-.122-.35-.245-.517-.36-.259-.188-.512-.376-.757-.576-.466-.357-.912-.731-1.345-1.119-.124-.1-.247-.214-.362-.324-.259-.24-.512-.478-.757-.719-.214-.207-.428-.426-.633-.64-.156-.162-.3-.324-.454-.485-.233-.252-.465-.51-.686-.769s-.445-.524-.659-.788-.426-.531-.633-.8-.407-.538-.6-.809c-.162-.219-.317-.44-.465-.659-.188-.271-.376-.543-.55-.821q-.253-.378-.485-.757c-.188-.3-.369-.6-.538-.886s-.329-.55-.479-.821-.3-.55-.445-.816-.291-.543-.426-.814-.273-.536-.4-.8-.259-.536-.381-.8c-.252-.529-.478-1.048-.692-1.552-.11-.252-.214-.5-.317-.75-.033-.078-.057-.148-.09-.219a48.414,48.414,0,0,1-2.478-7.872,2.18,2.18,0,0,0-1.281-1.6,2.221,2.221,0,0,0-.868-.177,2.189,2.189,0,0,0-1.175.339c-.014.007-.09.059-.245.15-.04.024-.085.05-.136.083-.233.136-.576.336-1.023.583-.11.064-.232.129-.355.193a78.068,78.068,0,0,1-7.179,3.447c-.576.245-1.183.492-1.812.745-.265.1-.536.205-.814.317-.226.09-.466.174-.7.265-.952.357-1.94.712-2.982,1.067q-1.164.4-2.406.776c-.272.085-.55.169-.827.252-1.423.421-2.9.828-4.451,1.2-.445.11-.893.212-1.345.317-.257.057-.517.117-.781.174-.519.11-1.042.221-1.578.324-.312.064-.621.124-.933.181-.343.064-.679.124-1.028.188-.439.078-.886.148-1.338.219-.485.078-.983.15-1.481.221-.266.038-.531.077-.8.11-.143.019-.29.038-.433.05-.35.047-.7.085-1.048.124-.278.033-.564.064-.847.09-.479.052-.964.1-1.449.136-.3.019-.6.045-.9.064-.357.026-.719.052-1.081.071a.657.657,0,0,1-.117.007c-.355.019-.712.038-1.067.052-.531.026-1.068.038-1.611.052s-1.074.019-1.617.019c-1.073,0-2.161-.026-3.259-.071l-.1,0a2.185,2.185,0,0,0-.092,4.367q1.8.073,3.57.075c.653,0,1.3-.007,1.94-.024-.247.59-5.951,14.281-7.515,41.923h-6.08l-2.361-19.946-.193-1.817a40.718,40.718,0,0,1-1.095-11.636,2.19,2.19,0,0,0-1.971-2.321c-.179-.017-.369-.024-.565-.024a15.448,15.448,0,0,0-3.29.458c.68-10.155,3.4-17.527,6.986-22.953.167-.259.343-.512.517-.757.045-.064.091-.136.143-.2.058-.085.117-.169.181-.252.1-.15.214-.3.324-.44a.508.508,0,0,1,.057-.084c.052-.071.11-.15.169-.221s.117-.155.181-.233c.233-.3.471-.607.717-.893.117-.141.233-.284.35-.419s.207-.24.317-.362c.292-.331.59-.654.887-.964.122-.129.245-.259.362-.381.278-.278.55-.545.821-.809.11-.1.219-.2.324-.3s.231-.214.343-.317c.148-.136.291-.266.438-.388.181-.162.362-.317.545-.466.083-.078.174-.148.257-.214s.136-.115.207-.174c.11-.09.221-.174.324-.259.084-.07.174-.136.259-.205.071-.052.136-.1.193-.15.317-.238.633-.472.945-.7.071-.052.143-.1.207-.15.083-.057.162-.117.245-.174.452-.311.9-.614,1.352-.9l.466-.291a1.053,1.053,0,0,1,.148-.09c.064-.038.124-.078.188-.117.091-.052.174-.1.258-.155.136-.085.273-.162.409-.24.11-.064.226-.129.336-.193.064-.04.129-.071.2-.111.124-.07.245-.141.369-.205s.245-.136.362-.2.219-.115.331-.167l.057-.04.019-.005c.15-.078.3-.155.44-.226.064-.04.129-.071.195-.1.626-.317,1.241-.607,1.836-.886a.225.225,0,0,1,.045-.019c.149-.064.29-.136.44-.2s.31-.143.466-.207.31-.137.458-.2c.906-.393,1.759-.743,2.53-1.06,2.833-1.164,4.392-1.8,4.992-3.247a3.148,3.148,0,0,0-.271-2.962c-.057-.092-.124-.176-.193-.266a.994.994,0,0,0-.072-.077,1.577,1.577,0,0,0-.221-.226,3.364,3.364,0,0,0-.3-.266,8.13,8.13,0,0,0-2.541-1.255c-.157-.052-.317-.1-.479-.148s-.35-.1-.531-.143l-.557-.136c-.019-.007-.031-.007-.052-.014-.167-.038-.343-.071-.517-.1-.193-.038-.395-.078-.588-.11a.048.048,0,0,0-.026-.007c-.388-.064-.783-.13-1.183-.181.3-.2.607-.388.912-.569.233-.136.459-.271.693-.395.193-.117.393-.226.588-.324s.374-.193.562-.291a26.342,26.342,0,0,1,3.473-1.423,27.366,27.366,0,0,1,8.6-1.338c.257,0,.51.005.769.012a.882.882,0,0,1,.136.007c.091,0,.181,0,.272.007s.195.005.291.012c.071,0,.15.007.226.012l.318.021c.064.005.122.005.186.012a.418.418,0,0,1,.09.007c.059.007.111.007.169.012l.207.019c.214.021.426.04.64.059.588.064,1.164.143,1.74.233.019,0,.038.005.052.005.245.04.484.078.724.124.1.019.188.038.284.052.195.038.395.077.59.117.019.005.031.005.05.012h.014c.407.09.807.174,1.2.271.026.007.045.007.064.014a.339.339,0,0,1,.045.012l.085.019c.3.071.6.15.886.226.1.026.2.052.3.085.129.031.265.07.393.11.247.071.492.143.731.219.059.014.117.033.176.052.329.1.652.207.976.317a.372.372,0,0,1,.091.033c.291.1.583.2.867.3.169.059.336.124.5.188.143.052.284.1.426.162.252.1.5.195.757.3a1.332,1.332,0,0,1,.155.064c.233.09.459.188.686.285a1.03,1.03,0,0,0,.124.05c.317.136.626.278.931.414.866.4,1.688.8,2.464,1.19.252.136.5.266.745.4.136.071.264.143.4.214s.259.141.383.212.251.143.374.214.245.136.369.207a48.609,48.609,0,0,1,4.533,2.949c.085.057.157.11.214.155.1.078.176.129.214.162a2.216,2.216,0,0,0,1.352.463,2.184,2.184,0,0,0,1.352-.47c2.288-1.8,3.795-6.061,4.721-9.829.188-.731.343-1.437.485-2.109m-50.195,47.322h0m50.193-50.557a3.283,3.283,0,0,0-.661.068,3.237,3.237,0,0,0-2.5,2.5c-.122.581-.271,1.27-.453,1.973l-.008.035c-1.115,4.543-2.316,6.607-3.04,7.5a52.9,52.9,0,0,0-4.585-2.962c-.141-.084-.287-.167-.432-.244l-.146-.084-.162-.092c-.145-.084-.291-.164-.437-.245l-.064-.033-.167-.09-.2-.106c-.13-.071-.266-.143-.4-.214l-.343-.181-.071-.038c-.908-.461-1.756-.87-2.589-1.249l-.273-.124c-.238-.106-.479-.216-.724-.32l-.087-.035-.033-.016c-.23-.1-.459-.2-.7-.291-.1-.042-.181-.075-.242-.1-.249-.1-.5-.2-.747-.294-.162-.066-.322-.125-.484-.184-.186-.071-.371-.141-.555-.205-.266-.1-.538-.193-.809-.285-.094-.037-.188-.068-.284-.1-.308-.1-.616-.2-.931-.3-.066-.023-.16-.052-.271-.082-.235-.075-.473-.144-.713-.214-.143-.044-.291-.085-.435-.122-.122-.037-.242-.07-.366-.1-.313-.084-.623-.165-.947-.242l-.042-.009c-.066-.017-.138-.035-.205-.049q-.436-.1-.882-.2l-.317-.07-.1-.021-.033-.007-.306-.061-.282-.056c-.059-.01-.116-.021-.176-.03l-.056-.01-.057-.012c-.3-.057-.571-.1-.849-.144l-.044-.007-.087-.012c-.616-.1-1.209-.174-1.813-.242l-.063-.005-.329-.03-.311-.028-.089-.009-.092-.009c-.052-.005-.1-.01-.157-.014-.094-.01-.181-.016-.257-.019l-.084,0-.057-.005-.171-.01-.125-.007c-.11-.009-.214-.016-.313-.019s-.217-.012-.322-.014c-.08,0-.158-.005-.238-.007s-.164-.007-.235-.007c-.285-.007-.548-.014-.814-.014a30.685,30.685,0,0,0-9.616,1.5,29.719,29.719,0,0,0-3.893,1.6l-.057.028-.164.084q-.206.1-.412.214c-.228.115-.454.24-.675.371-.205.11-.407.228-.611.348l-.122.07c-.418.251-.747.456-1.063.665a3.233,3.233,0,0,0,1.37,5.906c.311.04.637.092.971.148.04.009.08.016.12.023.16.026.325.059.484.09l.049.009c.12.023.237.044.351.07l.01,0,.031.009.231.056.331.082c.1.024.219.054.341.09l.221.068c.061.017.12.037.179.056a5.157,5.157,0,0,1,1.547.713l.033.03.009.009a19.992,19.992,0,0,1-3.186,1.486l-.179.073c-.725.3-1.549.637-2.417,1.016l-.108.045q-.177.076-.355.157c-.164.07-.329.143-.492.219-.089.038-.178.078-.265.12l-.1.047c-.063.024-.124.052-.186.082-.6.28-1.242.586-1.907.922-.084.04-.174.087-.266.139s-.195.1-.294.151a3.013,3.013,0,0,0-.277.146c-.087.044-.172.089-.258.132l-.057.033-.124.068q-.086.05-.177.1c-.144.075-.291.158-.435.242l-.012.007c-.087.045-.169.09-.252.139l-.122.071q-.1.057-.2.115c-.162.092-.323.186-.485.285-.05.031-.106.066-.165.1l-.056.033-.15.092q-.151.086-.3.183l-.4.254c-.451.287-.91.592-1.469.974l-.184.131-.071.052c-.092.063-.183.129-.273.195-.325.237-.656.48-.988.731l-.033.024-.052.042-.064.05c-.059.044-.124.094-.181.141l-.028.023c-.066.05-.131.1-.193.153l-.1.082-.224.179-.031.026c-.063.052-.124.1-.186.157-.094.073-.2.158-.308.256q-.271.225-.543.465c-.171.144-.338.294-.51.452l-.033.03-.129.118c-.071.068-.146.136-.219.205l-.1.094c-.071.066-.144.132-.217.2l-.04.038c-.282.273-.562.548-.849.835l-.061.063-.358.378c-.322.336-.649.692-.968,1.053-.117.13-.24.27-.365.418-.106.124-.228.273-.352.423l0,0c-.3.345-.565.689-.774.962-.07.085-.136.17-.2.256s-.144.188-.21.278c-.031.04-.066.087-.106.144-.1.132-.2.268-.3.4q-.094.128-.183.256c-.054.073-.106.146-.157.221-.207.291-.405.579-.6.875-4.32,6.534-6.849,14.783-7.5,24.5a3.233,3.233,0,0,0,3.228,3.449,3.16,3.16,0,0,0,.731-.084,15.977,15.977,0,0,1,1.824-.327,43.018,43.018,0,0,0,1.176,11.3l.167,1.564.005.037,2.36,19.946a3.235,3.235,0,0,0,3.212,2.854h6.08a3.234,3.234,0,0,0,3.228-3.05c1.472-25.987,6.7-39.45,7.233-40.771a3.234,3.234,0,0,0,.028-2.608l.689-.049.468-.033c.136-.01.273-.021.407-.03l.047,0c.5-.042,1.011-.089,1.509-.141.3-.028.606-.063.9-.1.336-.037.686-.077,1.037-.122.158-.016.322-.035.48-.057.292-.035.578-.077.861-.118.5-.071,1.022-.144,1.524-.226.463-.071.929-.146,1.39-.228l.465-.085c.2-.035.4-.071.6-.11.318-.059.642-.12.967-.188.548-.106,1.086-.218,1.617-.331.291-.064.555-.124.821-.184.477-.108.941-.216,1.406-.331,1.467-.355,2.972-.762,4.592-1.241l.15-.045.719-.219c.847-.259,1.693-.531,2.5-.806,1.034-.353,2.037-.713,3.069-1.1l.04-.016c.087-.035.176-.068.264-.1.157-.057.313-.117.463-.176l.449-.176.341-.13c.679-.273,1.307-.529,1.9-.783a80.808,80.808,0,0,0,7.444-3.574c.143-.075.283-.151.412-.226l.29-.16a55.486,55.486,0,0,0,2.325,7.049l.042.1.009.023.05.125.1.24c.077.181.153.365.233.548.268.633.5,1.159.736,1.651.085.186.176.371.265.559l.124.258c.151.31.291.6.442.884s.306.6.47.9c.137.256.294.543.458.837s.346.606.52.893.366.618.576.952q.248.4.515.8c.207.327.418.632.6.9.151.223.325.472.508.719.231.324.447.614.659.886.221.291.449.574.677.858s.471.569.718.86c.219.258.465.534.767.863.162.174.326.353.5.531.24.249.479.492.717.724.254.249.524.5.8.759.144.136.3.271.447.4.5.447.981.847,1.465,1.218.311.252.609.471.861.654l.059.042.477.334c.219.158.428.292.578.386a26.942,26.942,0,0,0,3.174,1.8l.087.042c.164.08.331.16.5.233.741.339,1.521.651,2.319.926.2.071.4.139.606.2.611.205,1.263.39,1.987.564.412.1.823.191,1.246.271l.04.007c.412.075.86.153,1.322.219a3.231,3.231,0,0,0,3.638-2.61,14.755,14.755,0,0,0,.141-5.029q.444.3.964.632c.144.1.291.191.442.282a60.42,60.42,0,0,0,13.266,6.255c.468.153.943.3,1.418.444.3.087.612.181.954.266.518.15,1.072.292,1.78.459l.259.063c.357.085.7.162,1.046.231,1.317.284,2.687.513,4.068.684.4.052.813.094,1.213.134.07.009.167.019.285.026.3.03.607.054.913.077l.042,0c.193.016.392.03.583.038.3.021.593.035.889.042l.233.009.255.01.064,0c.388.007.776.014,1.164.014a43.713,43.713,0,0,0,5.793-.385,3.234,3.234,0,0,0,2.8-3.37c-.188-3.685-1.465-13.466-9.17-25.88a9.922,9.922,0,0,1,4.853-1.239c.312,0,.632.016.947.042.1.009.19.014.283.014a3.234,3.234,0,0,0,2.929-4.6,42.032,42.032,0,0,0-7.47-10.978c-.675-.706-1.295-1.317-1.9-1.872l-.061-.056c-.2-.184-.407-.367-.616-.552-.414-.364-.867-.741-1.42-1.185-.205-.167-.43-.341-.7-.543l-.047-.035c-.03-.024-.057-.045-.087-.068-.261-.193-.5-.369-.741-.539-.519-.374-1.066-.743-1.672-1.128l-.037-.023-.111-.068c-.23-.143-.463-.285-.7-.421-.275-.169-.568-.339-.893-.517-.2-.117-.407-.231-.616-.341s-.386-.207-.579-.3c-.466-.238-.952-.475-1.444-.7-.1-.05-.2-.1-.31-.139-.29-.129-.581-.257-.875-.381s-.6-.251-.927-.378c-.654-.254-1.255-.472-1.818-.654-.311-.106-.632-.205-.957-.3-.264-.084-.6-.184-.957-.28-.212-.063-.4-.115-.59-.158-.228-.061-.454-.12-.687-.174-.357-.09-.722-.174-1.086-.251-.282-.063-.569-.118-.858-.174l-.036-.007-.207-.038-.433-.078c-.291-.052-.579-.1-.868-.146l-.818-.12c-.146-.023-.32-.047-.5-.064-.209-.026-.423-.052-.637-.073-.781-.09-1.493-.153-2.177-.193-.268-.019-.531-.033-.807-.047-.793-.038-1.6-.057-2.4-.057a65.812,65.812,0,0,0-16.887,2.4,24.426,24.426,0,0,0-2.485-10.39,20.1,20.1,0,0,0-1.583-2.64,3.236,3.236,0,0,0-2.631-1.354Z" transform="translate(-912.309 -203.114)"/></g><g transform="translate(64.535 113.346)"><path class="ae" d="M943.1,270.112h21.881a10.94,10.94,0,1,1-21.881,0Z" transform="translate(-939.869 -266.879)"/><path class="r" d="M966.361,271.487a10.94,10.94,0,1,1-21.881,0h21.881m0-3.233H944.48a3.234,3.234,0,0,0-3.235,3.233,14.175,14.175,0,0,0,28.35,0,3.234,3.234,0,0,0-3.235-3.233Z" transform="translate(-941.245 -268.254)"/></g><g transform="translate(52.837 108.458)"><path class="r" d="M961.527,267.558a6.1,6.1,0,0,1,.454.545,16.014,16.014,0,0,0,3.489,3.809,10.659,10.659,0,0,0,1.451.778,9.732,9.732,0,0,0,1.643.479,11.1,11.1,0,0,0,3.807.061l.452-.05a2.663,2.663,0,0,1,1.95,4.733,18,18,0,0,1-4.931,2.953,18.425,18.425,0,0,1-2.955.9,20.889,20.889,0,0,1-3.144.346,22.052,22.052,0,0,1-6.363-.748c-2.33-.621-4.945-1.362-6.677-3.141a7.709,7.709,0,0,1,.153-10.559,7.436,7.436,0,0,1,6.208-2.166A7.018,7.018,0,0,1,961.527,267.558Z" transform="translate(-924.034 -265.445)"/><path class="r" d="M948.777,267.558a6.085,6.085,0,0,0-.454.545,16.015,16.015,0,0,1-3.489,3.809,10.653,10.653,0,0,1-1.451.778,9.73,9.73,0,0,1-1.643.479,11.093,11.093,0,0,1-3.807.061l-.453-.05a2.663,2.663,0,0,0-1.951,4.733,18.008,18.008,0,0,0,4.931,2.953,18.42,18.42,0,0,0,2.955.9,20.889,20.889,0,0,0,3.144.346,22.051,22.051,0,0,0,6.363-.748c2.33-.621,4.945-1.362,6.677-3.141a7.71,7.71,0,0,0-.153-10.559,7.437,7.437,0,0,0-6.209-2.166A7.018,7.018,0,0,0,948.777,267.558Z" transform="translate(-934.522 -265.445)"/></g></g></g></svg>