<svg xmlns="http://www.w3.org/2000/svg" width="27.473" height="26.875" viewBox="0 0 27.473 26.875"><defs><style>.a{fill:#a89abf;}</style></defs><g transform="matrix(0.588, 0.809, -0.809, 0.588, 16.833, 0)"><path class="a" d="M41.863,20.749a9.1,9.1,0,0,0-.94-18.14V.16a.175.175,0,0,0-.284-.123L35.6,3.739a.155.155,0,0,0,0,.251l5.041,3.7a.177.177,0,0,0,.284-.123V5.125a6.591,6.591,0,1,1-6.613,7.642,1.253,1.253,0,0,0-2.478.378A9.114,9.114,0,0,0,41.863,20.749Z" transform="translate(-31.817 -0.001)"/></g></svg>