<svg xmlns="http://www.w3.org/2000/svg" xmlns:xlink="http://www.w3.org/1999/xlink" width="309" height="309" viewBox="0 0 309 309"><defs><style>.a{fill:none;}.b{fill:#6904b2;}.c{opacity:0.63;}.d{clip-path:url(#a);}.e{fill:#440284;}.f{fill:#77f5f7;}.g{fill:#1c0477;}.h{fill:#ff5082;}.i{fill:#d10554;}.j{opacity:0.52;}.k{clip-path:url(#b);}.l{opacity:0.35;}.m{fill:#bc84f7;}.n{opacity:0.51;}.o{fill:#3b0377;}.p{fill:#7a7af9;}.q{fill:#83fcbd;}.r{fill:#fff;}.s{fill:#ff92bf;}.t{fill:#f8dc03;}.u{fill:#03f87e;}.v{fill:#acd5f9;}.w{opacity:0.53;}.x{clip-path:url(#c);}.y{fill:#ffc927;}.z{fill:#fafafc;}</style><clipPath id="a"><rect class="a" width="149.12" height="65.256"/></clipPath><clipPath id="b"><path class="a" d="M1337.135,489.289a154.4,154.4,0,1,1-154.4-154.358,154.377,154.377,0,0,1,154.4,154.358" transform="translate(-1028.344 -334.931)"/></clipPath><clipPath id="c"><rect class="a" width="29.272" height="29.269"/></clipPath></defs><g transform="translate(-1028.344 -334.395)"><g transform="translate(1028.552 334.395)"><path class="b" d="M1337.53,488.754a154.4,154.4,0,1,1-154.4-154.359,154.377,154.377,0,0,1,154.4,154.359" transform="translate(-1028.738 -334.395)"/></g><g transform="translate(1095.838 505.65)"><g class="c" transform="translate(0 14.132)"><g class="d"><g transform="translate(0 0)"><path class="e" d="M1232.992,704.292l-101.537-33.544a2.812,2.812,0,0,1-.733-4.973l34.122-23.935a12.417,12.417,0,0,1,11.027-1.625l100.845,33.314a2.813,2.813,0,0,1,.732,4.973l-34.719,24.354a10.966,10.966,0,0,1-9.736,1.435" transform="translate(-1129.524 -639.588)"/></g></g></g><g transform="translate(1.915)"><g transform="translate(1.412 7.136)"><path class="f" d="M1241.305,700.212a12.3,12.3,0,0,1-4.951-1.033l-98-42.783a4.224,4.224,0,0,1-.406-7.538l36.188-20.681a13.831,13.831,0,0,1,12.394-.667L1283.86,670a4.224,4.224,0,0,1,.406,7.539l-36.82,21.042a12.4,12.4,0,0,1-6.141,1.63" transform="translate(-1135.816 -626.355)"/></g><g transform="translate(0 5.724)"><path class="g" d="M1179.735,626.507a12.4,12.4,0,0,1,4.968,1.037l97.334,42.491a2.813,2.813,0,0,1,.271,5.02L1245.487,696.1a10.971,10.971,0,0,1-9.828.529l-98-42.784a2.812,2.812,0,0,1-.27-5.019l36.187-20.679a12.423,12.423,0,0,1,6.162-1.636m0-2.823h0a15.263,15.263,0,0,0-7.563,2.009l-36.187,20.679a5.636,5.636,0,0,0,.541,10.058l98,42.783a13.791,13.791,0,0,0,12.358-.665l36.82-21.041a5.636,5.636,0,0,0-.541-10.059l-97.334-42.492a15.153,15.153,0,0,0-6.1-1.273" transform="translate(-1133.146 -623.684)"/></g><g transform="translate(3.642 1.412)"><path class="h" d="M1242.9,687.593a12.035,12.035,0,0,1-4.841-1.011l-95.53-41.7a4.153,4.153,0,0,1-.4-7.413l35.273-20.157a13.514,13.514,0,0,1,12.114-.652l94.878,41.418a4.153,4.153,0,0,1,.4,7.413L1248.9,686a12.125,12.125,0,0,1-6,1.594" transform="translate(-1140.036 -615.528)"/></g><g transform="translate(2.231)"><path class="g" d="M1182.852,615.68a12.107,12.107,0,0,1,4.842,1.011l94.879,41.419a2.742,2.742,0,0,1,.263,4.893l-35.891,20.51a10.685,10.685,0,0,1-9.579.516l-95.53-41.7a2.741,2.741,0,0,1-.263-4.892l35.274-20.158a12.1,12.1,0,0,1,6.007-1.595m0-2.823h0a14.952,14.952,0,0,0-7.407,1.967l-35.274,20.158a5.566,5.566,0,0,0,.535,9.932l95.53,41.7a13.511,13.511,0,0,0,12.111-.651l35.891-20.51a5.565,5.565,0,0,0-.535-9.932L1188.824,614.1a14.84,14.84,0,0,0-5.972-1.247" transform="translate(-1137.367 -612.857)"/></g><g transform="translate(17.101 7.457)"><path class="i" d="M1239.04,685.581l-71.9-31.047a2.741,2.741,0,0,1-.263-4.892l34.346-21.084a12.1,12.1,0,0,1,10.849-.584l72.175,31.689a2.742,2.742,0,0,1,.263,4.893l-35.891,20.511a10.689,10.689,0,0,1-9.579.516" transform="translate(-1165.495 -626.962)"/></g><g transform="translate(25.401 12.59)"><line class="h" y1="6.176" x2="10.162"/></g><g transform="translate(118.544 52.466)"><path class="i" d="M1363.554,719.4c-3.575,0-6.17-1.535-6.17-3.649s2.6-3.649,6.17-3.649,6.169,1.535,6.169,3.649-2.6,3.649-6.169,3.649" transform="translate(-1357.384 -712.101)"/></g><g transform="translate(117.132 51.054)"><path class="g" d="M1362.3,712.254c2.627,0,4.757,1,4.757,2.238s-2.131,2.237-4.757,2.237-4.758-1-4.758-2.237,2.13-2.238,4.758-2.238m0-2.823c-4.464,0-7.582,2.082-7.582,5.061s3.117,5.061,7.582,5.061,7.581-2.081,7.581-5.061-3.117-5.061-7.581-5.061" transform="translate(-1354.714 -709.43)"/></g><g transform="translate(24.08 11.269)"><path class="g" d="M1180.018,642.992a1.322,1.322,0,0,1-.688-2.451l10.162-6.176a1.322,1.322,0,1,1,1.374,2.259L1180.7,642.8A1.319,1.319,0,0,1,1180.018,642.992Z" transform="translate(-1178.695 -634.173)"/></g></g></g><g class="j" transform="translate(1174.48 460.384)"><path class="e" d="M1328.974,559.3l0,0c-.2-.42-.409-.836-.633-1.247-.048-.091-.1-.186-.153-.277-.074-.134-.151-.267-.231-.4-.093-.158-.185-.313-.281-.468-.2-.328-.416-.651-.633-.97-.051-.076-.105-.152-.156-.228q-.332-.465-.681-.922c-.128-.167-.259-.331-.393-.5-.265-.329-.541-.654-.825-.97-.137-.156-.275-.307-.419-.459a.309.309,0,0,0-.029-.033c-.141-.149-.285-.3-.428-.447s-.265-.268-.4-.4l-.058-.055q-.23-.228-.47-.447c-.16-.149-.32-.295-.483-.441-.2-.182-.413-.362-.624-.541-.125-.1-.249-.207-.377-.31-.169-.14-.342-.277-.518-.413s-.329-.255-.5-.38l-.028-.022c-.167-.124-.336-.246-.505-.371-.585-.417-1.193-.818-1.816-1.2-.144-.088-.288-.177-.435-.262-.106-.064-.214-.127-.323-.188s-.22-.128-.332-.192q-1.133-.638-2.337-1.195c-.119-.058-.24-.113-.359-.164q-.791-.36-1.608-.675-.177-.073-.355-.136c-.841-.319-1.7-.609-2.584-.867-.144-.042-.291-.085-.435-.124q-.662-.187-1.336-.347c-.179-.045-.362-.088-.544-.128l-.55-.118c-.368-.079-.739-.149-1.11-.213-.147-.027-.294-.051-.441-.076-.1-.019-.2-.034-.3-.049-.125-.022-.25-.04-.374-.058-.486-.07-.978-.134-1.471-.186-.173-.018-.345-.036-.518-.051-.3-.027-.594-.052-.895-.073-16.976-1.186-31.614,9.009-32.845,22.8-.01.085-.016.167-.023.252a20.037,20.037,0,0,0-.054,2.1c0,.088,0,.179.01.267s0,.173.01.262q0,.164.019.328c.022.386.058.772.109,1.158.019.186.044.371.073.557.022.167.051.337.08.5.022.116.042.234.067.353a.721.721,0,0,0,.022.115c.023.131.051.262.08.392.08.374.169.748.275,1.119.038.155.083.31.131.462.054.186.112.371.172.553.032.1.064.2.1.3.022.067.045.134.07.2.029.088.061.173.093.259.176.481.368.955.579,1.423.045.1.089.2.138.3.106.231.217.459.333.687.106.207.211.413.323.621.055.094.106.191.16.286.073.131.147.262.224.389.051.092.106.18.156.268l.119.195c.057.094.118.188.179.283.089.143.182.282.275.426.15.222.3.447.457.666.038.055.077.107.115.158.067.092.131.183.2.274.178.246.367.49.559.727.1.122.192.24.291.359.195.237.4.471.6.7.1.116.208.231.31.344.125.134.246.268.371.4.169.177.342.353.518.526q.422.42.864.821c.2.186.406.368.617.55.24.207.486.411.732.612.125.1.25.2.378.3s.253.2.384.3.256.191.387.289c.262.192.524.38.793.563.134.094.272.185.406.274s.275.179.412.271c.275.176.556.349.838.52l.428.253c.288.164.579.328.873.486.147.079.295.158.441.234s.3.155.451.231c.3.149.6.3.912.441.153.073.307.143.464.21l-.01-.009c.3.134.6.264.9.389s.614.252.924.368a10.1,10.1,0,0,1-1.333,4.472c-1.144,1.837-3.067,2.965-6.021,2.56,9.8,5.266,17.062-1.231,19.971-4.628,16.218.289,29.842-9.766,30.875-23.145A21.249,21.249,0,0,0,1328.974,559.3Z" transform="translate(-1269.09 -542.602)"/></g><g class="j" transform="translate(1243.986 434.138)"><path class="e" d="M1429.474,514.715l0,0c-.175-.375-.366-.748-.566-1.114-.043-.082-.092-.166-.137-.247-.065-.12-.134-.24-.206-.356-.083-.141-.166-.28-.251-.419-.183-.293-.372-.581-.567-.867-.046-.068-.094-.136-.14-.2q-.3-.416-.609-.824c-.114-.15-.232-.3-.352-.443-.237-.294-.483-.585-.738-.868-.123-.138-.246-.274-.375-.41a.293.293,0,0,0-.025-.03c-.126-.133-.255-.266-.383-.4s-.238-.239-.357-.359l-.051-.049q-.206-.2-.42-.4c-.143-.133-.286-.264-.432-.394q-.275-.244-.557-.484c-.112-.093-.223-.185-.338-.278-.151-.125-.305-.247-.463-.37s-.294-.228-.446-.34c-.009-.005-.017-.014-.026-.019-.148-.112-.3-.22-.451-.331q-.786-.559-1.624-1.074c-.129-.079-.258-.158-.389-.234-.094-.057-.192-.114-.289-.169s-.2-.114-.3-.171q-1.011-.571-2.09-1.068c-.106-.051-.215-.1-.32-.146-.472-.215-.952-.416-1.438-.6q-.159-.065-.318-.122c-.752-.285-1.524-.544-2.31-.775-.128-.038-.26-.076-.388-.112-.395-.112-.792-.215-1.2-.31-.16-.041-.323-.079-.486-.114l-.491-.106c-.329-.07-.661-.133-.993-.19-.132-.024-.263-.046-.395-.068-.089-.016-.18-.03-.271-.044-.112-.019-.223-.035-.335-.051-.435-.062-.875-.12-1.315-.166-.154-.016-.308-.033-.463-.046-.266-.025-.532-.047-.8-.066-15.178-1.06-28.266,8.055-29.366,20.39-.009.076-.014.15-.021.226a18.012,18.012,0,0,0-.048,1.876c0,.079,0,.161.009.24s0,.155.008.234c0,.1.009.2.017.293.02.345.052.691.1,1.036.017.165.04.331.066.5.02.15.045.3.072.451.02.1.037.209.06.316a.658.658,0,0,0,.02.1c.02.117.046.234.071.351.072.334.152.669.246,1,.034.139.074.278.118.413.049.166.1.332.154.495.029.09.057.177.089.264.02.06.04.12.063.179.025.079.054.155.083.231q.235.645.517,1.272c.04.09.08.179.123.269.094.207.195.41.3.614.094.185.188.37.289.555.049.085.094.171.143.256.066.117.132.234.2.348.046.081.094.16.14.239.034.057.071.117.106.174.051.084.106.168.16.253.08.127.163.253.246.381.135.2.269.4.409.6.034.049.068.1.1.141.06.082.117.163.18.245.16.22.329.438.5.65.086.109.171.214.26.321q.261.318.537.628c.091.1.186.207.277.307.112.12.22.24.332.356.152.158.306.315.463.47q.378.375.771.734c.181.166.364.329.552.492.215.184.435.367.655.546.111.093.223.18.337.269s.226.177.343.264.228.171.346.259c.234.171.469.34.709.5.12.084.243.166.363.245s.246.16.369.242c.246.158.5.313.749.465l.383.226c.257.147.518.293.78.435.131.07.263.141.395.209s.269.139.4.206c.268.133.54.266.815.394.137.066.275.128.415.188l-.009-.008c.266.119.535.236.8.348s.549.226.826.329a9.042,9.042,0,0,1-1.192,4,5.039,5.039,0,0,1-5.383,2.289c8.759,4.708,15.255-1.1,17.856-4.138,14.5.258,26.682-8.732,27.605-20.694A19,19,0,0,0,1429.474,514.715Z" transform="translate(-1375.932 -499.787)"/></g><g class="j" transform="translate(1093.256 417.508)"><path class="e" d="M1137.158,489.719l0,0c.216-.464.453-.925.7-1.379.053-.1.113-.205.17-.306.081-.148.166-.3.254-.44.1-.175.2-.347.311-.518.226-.363.459-.719.7-1.073.056-.084.116-.168.173-.252q.367-.515.753-1.019c.141-.185.287-.366.435-.548.293-.363.6-.723.913-1.073.152-.171.3-.339.463-.508a.361.361,0,0,1,.032-.037c.156-.165.315-.33.474-.494.145-.148.294-.3.442-.444l.063-.06q.255-.252.52-.494c.177-.165.354-.326.534-.488q.339-.3.69-.6c.138-.114.276-.229.417-.343.188-.154.379-.306.573-.457s.364-.282.551-.42l.032-.024c.184-.137.372-.272.559-.41.647-.46,1.319-.9,2.009-1.328.159-.1.318-.2.481-.289.116-.071.237-.141.357-.209s.244-.141.368-.211q1.252-.707,2.585-1.322c.131-.064.265-.125.4-.182q.875-.4,1.778-.746.2-.081.393-.151c.93-.353,1.885-.672,2.857-.958.159-.047.322-.094.481-.138q.732-.207,1.478-.383c.2-.05.4-.1.6-.141l.608-.131c.407-.088.817-.165,1.228-.236.162-.03.325-.057.488-.084.11-.02.223-.037.336-.053.138-.024.276-.044.414-.064.538-.078,1.082-.148,1.627-.205.191-.02.382-.041.573-.057.329-.031.658-.058.99-.081,18.774-1.312,34.963,9.964,36.324,25.221.01.094.018.185.025.279a22.111,22.111,0,0,1,.06,2.32c0,.1,0,.2-.01.3s0,.192-.01.289c0,.121-.011.242-.021.363-.025.427-.064.854-.121,1.281-.021.205-.05.41-.081.615-.025.185-.057.373-.088.558-.025.128-.046.259-.074.39a.877.877,0,0,1-.025.128c-.025.144-.057.289-.089.433-.088.414-.187.827-.3,1.238-.042.171-.092.343-.145.511-.06.205-.124.41-.191.612-.035.111-.071.218-.11.326-.024.074-.049.148-.078.221-.032.1-.067.192-.1.286-.195.531-.407,1.056-.64,1.574-.049.111-.1.222-.152.333-.117.255-.241.508-.368.76-.117.229-.233.458-.357.686-.06.1-.117.212-.177.316-.082.145-.163.289-.248.43-.057.1-.117.2-.173.3l-.131.215c-.064.1-.131.208-.2.313-.1.158-.2.312-.3.471-.167.246-.333.494-.506.736-.042.061-.084.118-.127.175-.074.1-.145.2-.222.3-.2.272-.407.541-.619.8-.106.134-.212.265-.322.4-.216.263-.439.521-.665.777-.113.128-.23.255-.343.38-.138.148-.272.3-.41.44-.187.2-.378.39-.573.582q-.467.465-.955.908c-.222.205-.449.407-.682.609-.265.229-.537.454-.809.676-.138.114-.276.222-.418.333s-.279.219-.424.326-.283.212-.428.32c-.29.212-.58.42-.877.622-.149.1-.3.205-.449.3s-.3.2-.456.3c-.3.2-.615.387-.927.575l-.474.279c-.318.181-.64.363-.965.538-.163.087-.325.174-.488.259s-.333.172-.5.256c-.332.165-.668.329-1.008.488-.169.081-.339.158-.513.232l.01-.01c-.329.148-.661.293-.994.43s-.679.279-1.022.407a11.177,11.177,0,0,0,1.475,4.947c1.265,2.031,3.391,3.279,6.658,2.831-10.835,5.824-18.869-1.362-22.087-5.118-17.936.319-33-10.8-34.146-25.6A23.513,23.513,0,0,1,1137.158,489.719Z" transform="translate(-1134.848 -471.255)"/></g><g transform="translate(1028.344 334.678)"><g class="k"><g class="l" transform="translate(-1.241 246.66)"><path class="m" d="M1202.341,802.513l-.01-.009c-.573-1.234-1.2-2.458-1.861-3.666-.141-.268-.3-.545-.451-.813-.216-.393-.442-.787-.677-1.171-.272-.464-.545-.921-.827-1.376-.6-.966-1.222-1.913-1.862-2.852-.151-.224-.31-.447-.461-.67q-.973-1.368-2-2.709c-.376-.492-.762-.974-1.157-1.457-.781-.966-1.589-1.922-2.426-2.852-.4-.456-.809-.9-1.232-1.35a.962.962,0,0,0-.084-.1c-.414-.438-.837-.876-1.261-1.314-.385-.394-.78-.787-1.175-1.18l-.169-.161q-.678-.671-1.383-1.314c-.47-.438-.94-.867-1.42-1.3-.6-.536-1.213-1.064-1.833-1.591-.367-.3-.733-.608-1.11-.912-.5-.411-1.005-.813-1.523-1.216-.479-.375-.968-.751-1.467-1.117-.029-.018-.057-.045-.084-.062-.489-.367-.988-.724-1.485-1.09-1.721-1.225-3.508-2.4-5.341-3.532-.423-.259-.847-.518-1.279-.768-.311-.188-.63-.375-.95-.554-.32-.2-.649-.375-.978-.563q-3.329-1.877-6.873-3.513c-.348-.17-.706-.331-1.054-.483q-2.327-1.059-4.729-1.984-.523-.214-1.044-.4c-2.473-.939-5.011-1.788-7.6-2.548-.423-.125-.856-.251-1.279-.367-1.3-.366-2.6-.706-3.931-1.019-.526-.134-1.062-.259-1.6-.375s-1.081-.232-1.618-.349c-1.081-.232-2.172-.438-3.262-.625-.433-.081-.866-.152-1.3-.224-.292-.054-.592-.1-.893-.143-.367-.062-.734-.116-1.1-.17-1.429-.206-2.877-.394-4.326-.545-.507-.054-1.015-.107-1.523-.152-.875-.081-1.749-.152-2.633-.215-49.921-3.487-92.968,26.487-96.588,67.047-.028.25-.047.492-.065.742a58.9,58.9,0,0,0-.16,6.169c0,.259.009.528.028.787,0,.25.009.509.028.769q.014.483.057.965c.066,1.135.169,2.271.319,3.406.057.545.132,1.09.216,1.635.066.492.15.993.235,1.484.065.34.122.688.2,1.037a2.214,2.214,0,0,0,.066.339c.066.384.151.769.235,1.153.235,1.1.5,2.2.809,3.29.113.456.245.912.385,1.359.16.545.329,1.09.508,1.627.095.3.188.581.292.867.065.2.131.394.206.59.085.259.179.51.273.76q.776,2.119,1.7,4.184c.132.295.263.59.4.885.31.679.639,1.35.978,2.02.311.608.621,1.216.95,1.824.16.277.311.563.47.84.216.384.432.768.658,1.144.151.268.311.528.461.787.113.188.235.384.348.572.169.277.348.554.526.831.263.42.536.832.809,1.252.442.652.884,1.314,1.345,1.958.112.161.226.312.338.464.2.268.386.536.593.8.526.724,1.081,1.439,1.645,2.136.282.358.564.706.856,1.055.573.7,1.166,1.385,1.768,2.065.3.339.611.679.912,1.01.367.393.724.786,1.091,1.171.5.519,1.006,1.037,1.523,1.546q1.242,1.234,2.539,2.414c.592.545,1.194,1.082,1.815,1.618.705.608,1.43,1.207,2.153,1.8.367.3.733.59,1.11.885s.743.581,1.128.867.752.564,1.138.849c.771.563,1.542,1.117,2.331,1.654.4.277.8.545,1.194.8s.809.527,1.213.8c.809.519,1.637,1.028,2.464,1.529.423.25.837.492,1.26.742.846.483,1.7.966,2.567,1.43.433.233.865.465,1.3.688s.883.456,1.326.68c.884.438,1.777.876,2.68,1.3.451.215.9.42,1.363.617l-.028-.027c.875.394,1.758.778,2.642,1.144.894.384,1.806.742,2.718,1.082a29.713,29.713,0,0,1-3.921,13.15c-3.366,5.4-9.018,8.716-17.706,7.527,28.811,15.483,50.175-3.621,58.731-13.606,47.692.849,87.758-28.713,90.8-68.047A62.463,62.463,0,0,0,1202.341,802.513Z" transform="translate(-1026.239 -753.428)"/></g><g class="l" transform="translate(-21.326 55.336)"><path class="m" d="M995.464,455.834l.005,0c.307-.679.646-1.353,1-2.017.076-.147.161-.3.242-.448.116-.216.237-.433.363-.644.146-.256.293-.507.444-.758.323-.531.656-1.053,1-1.57.081-.123.166-.246.247-.369q.522-.753,1.074-1.491c.2-.271.408-.536.62-.8.419-.532.853-1.058,1.3-1.57.217-.251.433-.5.66-.743a.635.635,0,0,1,.045-.054c.222-.241.449-.482.676-.723.207-.216.419-.433.631-.65l.091-.088q.363-.369.741-.723c.252-.241.5-.477.761-.714.323-.3.651-.585.983-.876.2-.167.394-.334.6-.5.267-.226.54-.448.817-.669.258-.206.519-.413.787-.615.015-.01.03-.025.045-.034.262-.2.53-.4.8-.6.923-.674,1.881-1.324,2.864-1.943.227-.143.454-.286.686-.423.166-.1.338-.207.509-.305s.348-.207.524-.31q1.786-1.033,3.687-1.934c.186-.093.378-.182.565-.266q1.248-.583,2.536-1.092c.186-.078.373-.153.56-.221,1.326-.517,2.688-.984,4.075-1.4.227-.069.459-.137.686-.2q1.044-.3,2.108-.561c.282-.074.57-.143.857-.206l.867-.192c.58-.128,1.165-.241,1.75-.344.232-.044.464-.084.7-.123.156-.029.318-.054.479-.079.2-.034.394-.064.59-.093.766-.113,1.544-.216,2.32-.3.272-.029.545-.059.817-.084.469-.044.938-.084,1.412-.118,26.771-1.918,49.856,14.579,51.8,36.9.016.138.026.271.035.409a33.255,33.255,0,0,1,.085,3.395c0,.143,0,.291-.015.433s-.005.281-.015.423c-.005.177-.015.354-.03.532-.035.625-.091,1.25-.172,1.874-.03.3-.071.6-.116.9-.035.271-.081.546-.126.817-.035.187-.065.379-.105.57a1.306,1.306,0,0,1-.035.187c-.035.212-.081.423-.126.635-.126.605-.267,1.211-.434,1.811-.06.251-.131.5-.206.748-.086.3-.177.6-.273.9-.051.162-.1.32-.156.477-.035.108-.071.217-.111.325-.045.143-.1.281-.146.418q-.415,1.166-.912,2.3c-.07.162-.141.325-.217.487-.166.374-.343.743-.524,1.112-.166.335-.333.669-.51,1-.085.153-.166.31-.252.463-.115.212-.232.423-.352.629-.081.148-.167.291-.248.433-.06.1-.126.212-.186.315-.091.153-.186.305-.282.458-.141.231-.287.457-.434.688-.237.36-.474.724-.721,1.078-.06.088-.121.172-.182.256-.105.147-.206.3-.318.443-.282.4-.579.792-.882,1.176-.152.2-.3.389-.459.581-.307.384-.625.763-.948,1.137-.161.187-.328.374-.489.556-.2.216-.388.433-.585.645-.267.285-.539.57-.816.851q-.666.679-1.362,1.328c-.318.3-.64.6-.974.891-.378.335-.766.664-1.154.989-.2.167-.393.325-.6.487s-.4.32-.6.477-.4.31-.61.467c-.413.31-.827.615-1.25.911-.212.152-.429.3-.64.443s-.434.291-.651.438c-.433.285-.877.566-1.321.842l-.676.408c-.454.266-.912.532-1.376.788-.232.128-.464.256-.7.379s-.474.251-.711.374c-.474.241-.953.482-1.437.714-.243.118-.484.231-.731.339l.015-.015c-.469.216-.943.428-1.417.63s-.968.408-1.457.6a16.666,16.666,0,0,0,2.1,7.238c1.805,2.972,4.836,4.8,9.5,4.143-15.451,8.522-26.907-1.993-31.5-7.489-25.576.467-47.062-15.8-48.691-37.454A35.171,35.171,0,0,1,995.464,455.834Z" transform="translate(-992.169 -428.818)"/></g><g class="n" transform="translate(238.653 86.621)"><path class="o" d="M1563.238,537.951l-.005-.008c-.141-.984-.324-1.973-.531-2.955-.042-.218-.1-.445-.144-.664-.068-.32-.143-.643-.227-.962-.093-.383-.188-.759-.289-1.137-.218-.8-.452-1.6-.7-2.386-.058-.188-.123-.378-.181-.566q-.392-1.162-.831-2.316c-.159-.423-.327-.842-.5-1.263-.343-.84-.707-1.679-1.1-2.505-.187-.4-.375-.8-.577-1.2a.926.926,0,0,0-.039-.087c-.2-.393-.4-.789-.6-1.184-.187-.357-.38-.714-.574-1.073l-.085-.148q-.333-.611-.69-1.21c-.237-.406-.475-.8-.72-1.205-.308-.5-.625-1-.948-1.5-.192-.29-.385-.58-.584-.872-.262-.392-.533-.78-.81-1.171-.257-.364-.519-.729-.791-1.09-.016-.019-.03-.044-.046-.062-.265-.359-.538-.714-.809-1.076q-1.42-1.828-2.992-3.594c-.242-.271-.483-.541-.733-.807-.178-.2-.362-.4-.548-.588s-.375-.4-.565-.6q-1.933-2.013-4.068-3.9c-.208-.191-.424-.38-.635-.559q-1.4-1.231-2.891-2.384-.319-.26-.645-.5-2.3-1.766-4.778-3.381c-.269-.177-.546-.355-.818-.526q-1.245-.794-2.534-1.54c-.34-.2-.688-.4-1.04-.6l-1.057-.584c-.707-.39-1.427-.764-2.151-1.124-.286-.147-.573-.288-.86-.429-.193-.1-.394-.194-.6-.288-.243-.121-.489-.236-.734-.35-.956-.445-1.93-.881-2.911-1.292-.344-.144-.688-.289-1.034-.427-.594-.24-1.191-.474-1.8-.7-34.185-12.944-70.607-1.036-81.679,26.572-.072.169-.136.334-.2.505a42.878,42.878,0,0,0-1.41,4.281c-.055.182-.1.371-.146.556s-.1.358-.142.543q-.092.34-.164.687c-.193.808-.359,1.624-.493,2.449-.075.394-.137.791-.193,1.19-.058.358-.1.726-.148,1.087-.025.252-.06.508-.08.767a1.516,1.516,0,0,0-.026.251c-.034.283-.057.569-.078.856-.067.819-.115,1.643-.127,2.471-.017.343-.021.689-.016,1.031,0,.415,0,.832.013,1.245,0,.227.009.446.021.668,0,.152.008.3.02.457,0,.2.018.394.031.589.064,1.1.165,2.191.31,3.285.03.234.06.468.1.7.074.541.163,1.079.258,1.619.089.49.178.981.281,1.476.054.228.1.459.152.687.07.314.14.629.219.939.049.22.106.435.157.647.039.155.083.318.122.473.06.23.127.461.194.692.1.35.2.694.3,1.046.172.549.341,1.1.528,1.653.045.136.092.266.138.4.082.229.157.456.245.687.216.618.453,1.235.7,1.841.122.309.246.612.376.918.254.608.524,1.215.8,1.817.139.3.285.6.425.9.174.352.341.7.517,1.049.239.467.485.937.74,1.4q.609,1.125,1.268,2.223c.3.506.607,1.008.929,1.514.365.573.746,1.145,1.128,1.71.193.29.389.567.59.852s.4.563.607.844.408.552.618.834c.42.556.843,1.106,1.283,1.647.218.277.445.549.666.814s.454.539.681.812c.456.533.928,1.064,1.4,1.588.243.264.482.521.725.785.491.516.987,1.033,1.495,1.541.253.253.507.507.763.754s.522.505.784.754c.526.492,1.058.987,1.6,1.471.27.245.543.484.824.719l-.015-.025c.53.459,1.067.914,1.608,1.356.544.457,1.106.9,1.673,1.328a21.711,21.711,0,0,1-5.512,8.374c-3.491,3.068-8.143,4.2-13.97,1.539,16.893,16.894,35.859,8.026,43.947,2.843,33.181,10.63,67.432-1.617,77.838-28.492A45.633,45.633,0,0,0,1563.238,537.951Z" transform="translate(-1433.16 -481.897)"/></g></g></g><g transform="translate(1236.068 434.548)"><g transform="translate(0)"><path class="g" d="M1398.841,502.7q1.06,0,2.139.075c.24.017.477.036.714.058.138.012.275.027.413.042.393.041.786.092,1.174.147.1.015.2.029.3.047.082.012.163.024.242.039.117.02.234.039.352.061.3.051.592.107.885.17l.439.095c.145.032.291.065.433.1q.539.127,1.066.277c.115.032.232.066.347.1q1.054.309,2.062.691c.094.034.189.07.283.109q.651.251,1.284.539c.094.041.191.085.285.131q.96.444,1.865.953c.089.051.179.1.265.153s.174.1.258.15c.117.068.232.138.347.209.5.306.982.626,1.449.958.135.1.271.2.4.3l.023.017q.2.15.4.3c.141.109.278.218.414.33.1.082.2.165.3.247.169.143.334.287.5.432.131.116.258.233.385.352s.253.236.375.357l.046.044c.107.107.215.213.319.32s.229.238.341.357a.286.286,0,0,1,.023.026c.115.122.224.243.334.366.227.253.446.512.658.774.107.131.212.262.314.4q.279.364.543.735c.042.06.085.121.125.182.173.255.342.512.505.774.076.124.151.247.224.373.064.1.125.212.184.318.04.073.084.148.122.22.178.328.349.66.505.995l0,0a16.956,16.956,0,0,1,1.618,8.591c-.812,10.525-11.39,18.472-24.091,18.472-.18,0-.363,0-.543,0-1.7,1.979-5.242,5.276-10.077,5.276a12.276,12.276,0,0,1-5.858-1.584,6.775,6.775,0,0,0,.923.066,4.319,4.319,0,0,0,3.881-2.108,8.066,8.066,0,0,0,1.064-3.568c-.248-.093-.5-.189-.738-.294s-.479-.2-.717-.31l.008.007c-.125-.053-.248-.109-.37-.168-.245-.114-.488-.233-.728-.351-.119-.061-.239-.122-.359-.185s-.235-.124-.352-.187c-.235-.126-.467-.258-.7-.389l-.342-.2c-.225-.136-.449-.274-.668-.415l-.329-.216c-.107-.07-.217-.143-.324-.218-.214-.145-.423-.3-.633-.449-.1-.077-.207-.153-.309-.23s-.2-.158-.306-.235-.2-.158-.3-.24c-.2-.16-.393-.323-.584-.487-.168-.146-.332-.291-.493-.439q-.352-.32-.689-.655c-.14-.139-.278-.279-.413-.42-.1-.1-.2-.211-.3-.318-.082-.09-.166-.182-.247-.275-.163-.184-.324-.371-.479-.56-.079-.094-.156-.189-.233-.286-.153-.189-.3-.384-.446-.58-.056-.073-.107-.145-.161-.218-.031-.041-.061-.083-.092-.126-.125-.174-.245-.354-.365-.531-.074-.114-.148-.225-.219-.339-.049-.075-.1-.151-.143-.226l-.094-.155c-.041-.07-.084-.141-.125-.213-.062-.1-.12-.207-.179-.311-.043-.075-.084-.153-.127-.228-.089-.165-.174-.33-.258-.495-.091-.182-.181-.364-.265-.548-.038-.08-.074-.16-.109-.241-.168-.374-.321-.752-.462-1.135-.025-.068-.051-.136-.074-.206-.02-.054-.038-.107-.056-.16-.028-.078-.053-.155-.079-.236-.049-.146-.095-.294-.138-.442-.038-.121-.074-.245-.1-.368-.084-.3-.156-.595-.219-.893-.023-.1-.046-.209-.063-.313a.543.543,0,0,1-.018-.092c-.021-.094-.036-.189-.054-.282-.022-.133-.045-.269-.063-.4s-.043-.3-.059-.444c-.041-.308-.069-.616-.087-.925-.008-.087-.013-.174-.015-.262-.005-.07-.008-.141-.008-.209s-.007-.143-.007-.214a16.015,16.015,0,0,1,.043-1.674c.005-.068.01-.134.018-.2.93-10.423,11.451-18.27,24.066-18.27m0-2.115a29.437,29.437,0,0,0-17.689,5.653,20.563,20.563,0,0,0-8.482,14.521c-.009.085-.016.168-.022.253a18.064,18.064,0,0,0-.049,1.865c0,.085,0,.172.008.258s0,.158.009.237q.006.155.019.308c.021.349.053.693.1,1.021.018.167.041.333.066.5s.046.307.073.458l.008.043.015.079q.014.08.03.16c.01.065.022.121.032.164.021.112.045.224.07.336.075.349.155.676.241.983.037.147.079.294.125.438.047.162.1.323.151.482.03.093.059.183.091.274.02.058.039.115.06.171.029.083.058.164.089.246.154.422.329.852.513,1.26.038.083.078.174.122.266.094.2.192.4.293.606s.188.368.286.549l.028.05.043.078c.027.05.055.1.084.15.053.1.116.207.183.318.028.05.057.1.086.148l.037.063.017.028.054.09.04.065c.063.1.12.192.177.281.045.072.1.164.166.257l.058.089.023.035.058.087c.11.164.222.328.337.49.031.043.072.1.114.156l.038.052c.041.057.082.114.126.171.15.205.31.413.489.635.086.109.173.216.262.323.161.2.338.4.519.606.079.089.159.177.238.264l.029.031.114.123c.072.078.143.155.216.232.154.16.3.314.459.466.24.238.494.48.75.713.167.154.347.315.532.475.208.179.419.354.631.527.093.077.2.161.307.245l.025.02.025.02.106.081c.073.057.145.113.22.169s.162.122.255.191l.054.04c.238.173.463.335.693.492.12.085.244.167.364.245l.169.111.151.1.028.018c.235.151.475.3.715.444l.194.115.166.1.029.017c.245.14.493.279.743.414.127.068.255.137.382.2s.241.125.37.19c.277.137.535.264.8.385.1.05.221.1.34.155a4.515,4.515,0,0,1-.49,1.142,2.224,2.224,0,0,1-2.086,1.112,4.674,4.674,0,0,1-.636-.046,2.154,2.154,0,0,0-.288-.02,2.114,2.114,0,0,0-1,3.977,14.429,14.429,0,0,0,6.859,1.837c5.093,0,8.9-3.029,11.016-5.274a29.341,29.341,0,0,0,17.389-5.719,20.493,20.493,0,0,0,8.414-14.7,18.951,18.951,0,0,0-1.813-9.655c-.009-.02-.019-.04-.03-.06-.154-.328-.327-.667-.527-1.035-.037-.069-.076-.139-.115-.208l-.027-.047c-.062-.113-.136-.242-.213-.368s-.158-.268-.24-.4c-.179-.286-.359-.562-.556-.852l-.072-.1-.046-.067-.031-.046c-.191-.267-.388-.535-.589-.8q-.171-.224-.355-.447c-.239-.3-.485-.585-.723-.85-.1-.115-.211-.236-.325-.358-.024-.027-.05-.057-.08-.088-.111-.117-.224-.234-.337-.352s-.239-.241-.351-.353l-.038-.037-.031-.03q-.206-.2-.421-.4c-.122-.114-.26-.239-.4-.366-.179-.159-.357-.313-.538-.467l-.021-.017c-.106-.088-.212-.176-.321-.264-.134-.111-.288-.233-.444-.354-.139-.109-.288-.224-.439-.335l-.028-.021-.261-.192-.141-.1-.027-.02c-.5-.357-1.029-.706-1.568-1.037-.125-.077-.25-.153-.376-.226-.088-.053-.177-.106-.268-.157-.073-.044-.147-.086-.222-.128l-.063-.035c-.647-.365-1.318-.709-2.006-1.027-.11-.053-.222-.1-.331-.152-.441-.2-.9-.393-1.363-.572q-.165-.067-.33-.127c-.708-.268-1.448-.517-2.2-.737-.124-.036-.255-.075-.383-.109-.363-.1-.745-.2-1.123-.291-.161-.041-.325-.079-.489-.115l-.226-.049-.212-.045c-.3-.065-.616-.125-.962-.185-.121-.022-.241-.042-.362-.062-.089-.016-.181-.03-.273-.044-.108-.018-.216-.034-.323-.05-.462-.067-.872-.118-1.26-.159-.149-.015-.3-.031-.448-.044-.244-.023-.5-.043-.751-.061-.762-.053-1.531-.08-2.289-.08Z" transform="translate(-1372.593 -500.583)"/></g><g transform="translate(2.074 2.114)"><g transform="translate(0)"><path class="p" d="M1424.3,517.9l0,0c-.156-.335-.327-.667-.505-.995-.038-.072-.081-.148-.122-.22-.059-.107-.12-.214-.184-.318-.074-.126-.148-.25-.224-.374-.163-.262-.332-.519-.505-.774-.041-.061-.084-.122-.125-.182q-.264-.371-.544-.735c-.1-.133-.206-.264-.314-.4-.212-.262-.431-.521-.658-.774-.109-.124-.219-.245-.334-.366a.25.25,0,0,0-.023-.026c-.112-.119-.227-.238-.342-.357s-.212-.213-.319-.32l-.046-.044q-.184-.182-.375-.357c-.127-.119-.255-.235-.385-.352-.163-.145-.329-.289-.5-.432-.1-.082-.2-.165-.3-.247-.135-.112-.273-.221-.413-.33s-.263-.2-.4-.3l-.023-.017c-.133-.1-.268-.2-.4-.3-.467-.332-.951-.652-1.449-.958-.115-.07-.23-.141-.348-.209-.084-.051-.17-.1-.257-.15s-.176-.1-.265-.153q-.9-.509-1.865-.953c-.094-.046-.191-.09-.286-.131-.421-.191-.849-.371-1.283-.539-.094-.039-.189-.075-.283-.109-.671-.255-1.36-.485-2.061-.692-.115-.034-.232-.068-.347-.1-.352-.1-.706-.192-1.066-.276-.143-.037-.288-.07-.434-.1l-.439-.095c-.293-.063-.59-.119-.885-.17-.117-.022-.235-.041-.352-.061-.079-.014-.161-.026-.242-.039-.1-.017-.2-.032-.3-.046-.387-.056-.78-.106-1.174-.147-.137-.015-.275-.03-.413-.042-.237-.022-.475-.041-.715-.058-13.544-.946-25.223,7.189-26.205,18.2-.008.068-.013.133-.018.2a15.949,15.949,0,0,0-.043,1.674c0,.07,0,.143.008.214s0,.139.008.209q0,.131.015.262c.018.308.046.616.086.925.015.148.036.3.059.444s.041.269.064.4c.018.093.033.187.053.282a.622.622,0,0,0,.018.092c.018.1.041.209.064.313.064.3.135.6.219.893.03.124.066.247.1.368.043.148.09.3.138.442.025.08.051.158.079.236.018.053.035.107.056.16.023.071.048.139.074.207q.21.575.461,1.135c.036.08.071.16.11.24.084.184.174.366.265.548.084.165.168.33.258.495.043.075.084.153.127.228.059.1.118.209.179.311.041.072.084.143.125.213.03.051.063.1.094.156.046.075.094.151.142.226.072.114.146.226.22.339.12.177.24.357.365.531.031.044.061.085.092.126.053.073.1.145.161.218.143.2.293.391.447.58.076.1.153.191.232.286.155.189.316.376.479.56.082.093.166.184.248.274.1.107.2.214.3.318.135.141.273.281.413.42q.336.335.689.655c.161.148.324.293.492.439.191.165.388.327.584.488.1.082.2.16.3.24s.2.158.306.235.2.153.309.231c.209.153.418.3.632.449.107.076.217.148.324.219l.329.216c.219.141.444.279.668.415l.342.2c.229.131.462.262.7.389.118.063.235.126.352.187s.24.124.36.185c.24.119.482.237.727.352.123.058.245.114.37.168l-.008-.007c.237.107.477.211.717.31s.49.2.737.294a8.07,8.07,0,0,1-1.063,3.568,4.5,4.5,0,0,1-4.8,2.043c7.817,4.2,13.613-.983,15.935-3.692,12.939.231,23.81-7.792,24.634-18.467A16.957,16.957,0,0,0,1424.3,517.9Z" transform="translate(-1376.517 -504.583)"/></g><g transform="translate(8.828 39.177)"><path class="q" d="M1400.044,579.136c.243.1.49.2.737.294a8.067,8.067,0,0,1-1.065,3.569,4.235,4.235,0,0,1-3.006,2.038,13.451,13.451,0,0,1-3.5-1.322,4.494,4.494,0,0,0,4.8-2.043,7.575,7.575,0,0,0,1-2.982c.1.049.212.1.318.143l-.007-.007C1399.564,578.933,1399.8,579.037,1400.044,579.136Z" transform="translate(-1393.215 -578.69)"/></g><g transform="translate(0 0.131)"><path class="q" d="M1418.925,511.244c-.458-.327-.937-.64-1.424-.941-.114-.07-.231-.141-.347-.209-.084-.051-.172-.1-.257-.15s-.177-.1-.267-.153q-.9-.509-1.863-.953c-.094-.046-.192-.09-.286-.131q-.633-.287-1.284-.539-.141-.058-.283-.109-1.005-.382-2.062-.691c-.114-.034-.23-.068-.347-.1-.352-.1-.706-.192-1.065-.276-.143-.036-.289-.07-.434-.1l-.439-.095c-.293-.063-.589-.119-.885-.17-.116-.022-.232-.041-.352-.061-.078-.014-.16-.026-.243-.039-.1-.017-.2-.032-.3-.046-.388-.056-.781-.106-1.172-.148-.138-.015-.276-.03-.415-.042-.238-.022-.473-.041-.713-.058-13.544-.946-25.223,7.189-26.205,18.2-.007.068-.015.133-.02.2a16.22,16.22,0,0,0-.044,1.674c0,.07,0,.143.01.214s0,.138.007.209q0,.131.015.262.026.462.087.924c.015.148.036.3.058.444s.041.269.063.4c.019.092.034.187.053.282a.631.631,0,0,0,.019.092c.017.1.041.209.063.313.063.3.136.6.22.893.029.124.065.247.1.369.044.148.088.3.136.441.027.08.052.158.08.236.017.053.037.107.055.16.024.071.049.139.076.207.138.383.293.761.461,1.135.036.08.07.16.109.241.085.184.175.366.267.548.083.165.168.33.257.495.044.075.083.153.126.228.061.1.119.209.18.311.041.073.084.143.123.213.031.051.066.1.095.155.046.075.094.151.143.226.073.114.146.226.221.339.119.177.24.357.364.531.032.044.061.085.093.126.053.073.1.145.159.218.144.2.294.391.447.58.078.1.153.191.233.286q.233.284.48.56c.08.093.165.185.248.274.1.107.2.214.3.318.133.141.272.281.412.42.226.223.454.441.689.655.16.148.323.293.493.439l.087.072c-.095-.068-.192-.136-.286-.206s-.206-.153-.308-.231-.2-.157-.306-.235-.2-.158-.3-.24c-.2-.16-.393-.323-.584-.488-.168-.145-.333-.291-.493-.439-.235-.214-.463-.432-.689-.655-.141-.138-.279-.279-.413-.42-.1-.1-.2-.211-.3-.318-.083-.09-.168-.182-.248-.274q-.247-.277-.48-.56c-.08-.095-.155-.189-.232-.286-.153-.189-.3-.384-.447-.58-.055-.073-.106-.146-.16-.218-.031-.041-.061-.082-.092-.126-.123-.174-.245-.354-.364-.531-.075-.114-.148-.226-.221-.339-.049-.076-.1-.151-.143-.226-.029-.051-.063-.1-.092-.156-.041-.07-.085-.141-.126-.214-.061-.1-.119-.206-.179-.31-.041-.075-.082-.153-.126-.228-.09-.165-.175-.33-.257-.5-.093-.182-.182-.364-.267-.548-.039-.08-.073-.16-.109-.24-.167-.374-.32-.752-.461-1.136-.026-.068-.051-.136-.075-.206-.02-.053-.039-.107-.056-.16-.027-.077-.053-.155-.08-.235-.046-.145-.093-.293-.136-.441-.039-.121-.075-.245-.1-.368-.085-.3-.158-.595-.221-.893-.021-.1-.046-.209-.063-.313-.007-.032-.015-.061-.019-.093-.019-.095-.034-.189-.053-.281-.021-.133-.046-.269-.063-.4s-.043-.3-.058-.444c-.041-.308-.068-.616-.087-.925-.008-.087-.012-.174-.015-.262,0-.071-.008-.141-.008-.209s-.007-.143-.007-.214a16.215,16.215,0,0,1,.041-1.674c.008-.068.013-.134.02-.2.983-11.007,12.661-19.141,26.206-18.2.24.017.475.036.713.058.138.012.276.027.415.041.393.041.783.092,1.171.148.1.015.2.029.3.046.082.012.165.024.242.039.119.02.236.039.352.061.3.051.592.107.885.17l.439.095c.146.031.291.066.434.1.359.085.713.177,1.068.276.114.031.23.065.347.1.7.206,1.39.437,2.06.691q.142.051.284.109c.435.168.861.347,1.284.539.095.041.191.085.286.131q.961.444,1.864.953c.089.051.179.1.267.153s.172.1.257.151c.116.068.233.138.347.209.5.306.983.625,1.448.958.136.1.272.2.4.3a.222.222,0,0,1,.024.017c.136.1.267.2.4.3s.279.218.412.33c.1.083.2.165.3.247C1418.835,511.167,1418.882,511.206,1418.925,511.244Z" transform="translate(-1376.517 -504.83)"/></g></g><g transform="translate(19.019 8.487)"><g transform="translate(1.057 1.295)"><path class="r" d="M1416.861,519.086a6.3,6.3,0,0,1,4.692,1.844,5.92,5.92,0,0,1,1.817,4.285,5.458,5.458,0,0,1-.42,2.156,4.626,4.626,0,0,1-1.017,1.56,8.157,8.157,0,0,1-1.207.963,6.336,6.336,0,0,1-1.017.556l-.434.135c0,.308-.014,3.9-.041,4.062a1.294,1.294,0,0,1-.244.529,1.145,1.145,0,0,1-.678.407,5.276,5.276,0,0,1-1.261.122,4.711,4.711,0,0,1-1.261-.136,1.057,1.057,0,0,1-.665-.46,1.723,1.723,0,0,1-.23-.584c-.028-.171-.041-3.8-.041-4.157a.587.587,0,0,1,.013-.1.606.606,0,0,0,.014-.122,2.521,2.521,0,0,1,.665-1.844,3.23,3.23,0,0,1,1.451-.9,4.146,4.146,0,0,0,1.45-.732,1.633,1.633,0,0,0,.665-1.356,1.88,1.88,0,0,0-.5-1.41,2.482,2.482,0,0,0-1.749-.488,2.209,2.209,0,0,0-1.234.312,1.345,1.345,0,0,0-.583.638l-.082.326a3.181,3.181,0,0,1-.569,1.071,1.17,1.17,0,0,1-.922.366,3.222,3.222,0,0,1-1.085-.244,4.53,4.53,0,0,1-1.424-.787,1.147,1.147,0,0,1-.393-.84,4.071,4.071,0,0,1,.217-.95l.054-.135q.054-.163.163-.448a6.053,6.053,0,0,1,.583-.99,5.448,5.448,0,0,1,2.807-2.211A6.554,6.554,0,0,1,1416.861,519.086Z" transform="translate(-1410.569 -519.086)"/></g><path class="g" d="M1416.108,535.371a5.682,5.682,0,0,1-1.553-.177,2.087,2.087,0,0,1-1.286-.945,2.743,2.743,0,0,1-.362-.953c-.05-.315-.053-4.281-.053-4.32a1.368,1.368,0,0,1,.028-.27,3.524,3.524,0,0,1,.965-2.531,4.293,4.293,0,0,1,1.925-1.175,3.066,3.066,0,0,0,1.084-.549.585.585,0,0,0,.256-.521.912.912,0,0,0-.182-.653c-.007-.006-.2-.188-1.012-.188a1.24,1.24,0,0,0-.653.138,1.183,1.183,0,0,0-.168.129l-.052.207c-.007.03-.016.059-.026.089a4.149,4.149,0,0,1-.779,1.427,2.2,2.2,0,0,1-1.712.721,4.193,4.193,0,0,1-1.456-.311,5.4,5.4,0,0,1-1.788-1.016,2.188,2.188,0,0,1-.715-1.6,4.3,4.3,0,0,1,.264-1.261c.008-.028.018-.055.028-.081l.043-.108q.059-.174.168-.459a6.113,6.113,0,0,1,.694-1.2,7.3,7.3,0,0,1,1.269-1.442,7.081,7.081,0,0,1,2.021-1.158,7.628,7.628,0,0,1,2.862-.524,7.347,7.347,0,0,1,5.445,2.16,6.969,6.969,0,0,1,2.121,5.027,6.535,6.535,0,0,1-.5,2.57,5.67,5.67,0,0,1-1.26,1.911,9.211,9.211,0,0,1-1.365,1.088,8.33,8.33,0,0,1-.967.548c0,1.154-.015,3.262-.053,3.491a2.336,2.336,0,0,1-.427.969,2.171,2.171,0,0,1-1.275.816A6.209,6.209,0,0,1,1416.108,535.371Zm-1.039-2.233a.537.537,0,0,0,.067.023,3.647,3.647,0,0,0,.972.1,4.189,4.189,0,0,0,1-.088.7.7,0,0,0,.107-.036c.013-.021.023-.038.029-.05.019-.562.032-3.368.032-3.888a1.057,1.057,0,0,1,.741-1.009l.391-.123a5.413,5.413,0,0,0,.8-.448,7.127,7.127,0,0,0,1.051-.839,3.614,3.614,0,0,0,.774-1.209,4.43,4.43,0,0,0,.336-1.743,4.86,4.86,0,0,0-1.512-3.543,5.241,5.241,0,0,0-3.939-1.529,5.532,5.532,0,0,0-2.073.371,4.405,4.405,0,0,0-2.325,1.82,5.225,5.225,0,0,0-.471.774c-.066.173-.115.308-.149.407-.006.02-.013.04-.021.059l-.038.095a3.976,3.976,0,0,0-.159.623c0-.023.02,0,.071.054a3.535,3.535,0,0,0,1.078.564,2.147,2.147,0,0,0,.7.17.4.4,0,0,0,.14-.017,2.163,2.163,0,0,0,.337-.666l.07-.279a.781.781,0,0,1,.022-.075,2.318,2.318,0,0,1,1.005-1.189,3.25,3.25,0,0,1,1.815-.485,3.418,3.418,0,0,1,2.486.787,2.9,2.9,0,0,1,.822,2.169,2.682,2.682,0,0,1-1.075,2.192,5.208,5.208,0,0,1-1.817.916,2.188,2.188,0,0,0-.977.616,1.506,1.506,0,0,0-.361,1.1,1.618,1.618,0,0,1-.028.292c0,.712.014,3.458.033,3.937A.972.972,0,0,0,1415.069,533.138Zm3.7-4.08h0Zm-3.8-.081v0Zm-5.071-7.187h0Z" transform="translate(-1408.569 -516.637)"/><g transform="translate(4.936 21.323)"><path class="r" d="M1420.455,556.972a2.848,2.848,0,0,1,2.034.569,2.932,2.932,0,0,1,.488,2.007,6.6,6.6,0,0,1-.054.963,2.6,2.6,0,0,1-.272.76,1.233,1.233,0,0,1-.773.6,4.888,4.888,0,0,1-1.451.177,3.018,3.018,0,0,1-2.061-.57,2.177,2.177,0,0,1-.461-1.573v-.433a8.258,8.258,0,0,1,.041-.949,2.276,2.276,0,0,1,.258-.746,1.285,1.285,0,0,1,.773-.61A4.712,4.712,0,0,1,1420.455,556.972Z" transform="translate(-1417.905 -556.972)"/></g><g transform="translate(3.878 20.029)"><path class="g" d="M1419.484,561.71a3.953,3.953,0,0,1-2.774-.847,3.129,3.129,0,0,1-.805-2.354v-.433a9.141,9.141,0,0,1,.049-1.082,3.291,3.291,0,0,1,.367-1.1,2.325,2.325,0,0,1,1.37-1.126,5.671,5.671,0,0,1,1.821-.246,3.065,3.065,0,0,1,3.58,3.633,7.415,7.415,0,0,1-.068,1.13,3.6,3.6,0,0,1-.375,1.076,2.275,2.275,0,0,1-1.395,1.121A5.859,5.859,0,0,1,1419.484,561.71Zm.027-5.072a3.651,3.651,0,0,0-1.138.133.388.388,0,0,0-.174.094,1.272,1.272,0,0,0-.148.391,6.889,6.889,0,0,0-.033.82v.433a1.456,1.456,0,0,0,.151.825,2.159,2.159,0,0,0,1.314.261,3.82,3.82,0,0,0,1.129-.127.385.385,0,0,0,.156-.074,1.566,1.566,0,0,0,.167-.443,5.409,5.409,0,0,0,.041-.794,2.485,2.485,0,0,0-.187-1.268C1420.754,556.854,1420.489,556.638,1419.512,556.638Z" transform="translate(-1415.905 -554.523)"/></g></g></g><g class="j" transform="translate(1176.654 358.388)"><path class="e" d="M1348.278,401.724l0,0c-.256-.551-.538-1.1-.832-1.638-.063-.12-.134-.244-.2-.364-.1-.176-.2-.352-.3-.524-.121-.208-.244-.411-.37-.615-.269-.431-.547-.855-.832-1.275-.067-.1-.139-.2-.206-.3q-.435-.611-.9-1.211c-.168-.219-.34-.436-.517-.651-.349-.431-.71-.859-1.084-1.275-.181-.2-.361-.4-.55-.6a.462.462,0,0,0-.038-.044c-.184-.2-.374-.392-.563-.587-.172-.176-.349-.352-.525-.528l-.076-.072q-.3-.3-.618-.587c-.21-.2-.42-.388-.635-.58-.269-.239-.542-.475-.819-.711-.164-.136-.328-.272-.5-.408-.223-.184-.449-.364-.681-.543-.214-.168-.432-.336-.656-.5-.013-.008-.025-.02-.037-.028-.219-.164-.441-.324-.664-.487-.769-.548-1.568-1.075-2.387-1.579-.189-.116-.378-.232-.572-.344-.138-.083-.281-.168-.425-.247s-.29-.168-.437-.252q-1.488-.84-3.072-1.571c-.155-.076-.315-.148-.471-.216q-1.04-.473-2.114-.887-.233-.1-.466-.18c-1.105-.42-2.24-.8-3.4-1.139-.189-.056-.383-.112-.571-.164-.58-.164-1.164-.316-1.757-.456-.235-.06-.475-.116-.715-.168l-.723-.155c-.483-.1-.971-.2-1.458-.28-.194-.036-.387-.068-.581-.1-.13-.024-.264-.044-.4-.064-.164-.028-.328-.052-.492-.076-.639-.092-1.286-.176-1.933-.244-.227-.024-.453-.048-.68-.068-.391-.036-.782-.068-1.177-.1-22.312-1.558-41.551,11.841-43.169,29.972-.013.112-.021.22-.03.331a26.349,26.349,0,0,0-.071,2.758c0,.116,0,.236.013.352s0,.228.013.344q.006.216.025.431c.029.508.076,1.015.143,1.523.025.244.059.488.1.732.029.22.067.444.1.663.03.152.055.308.088.464a.964.964,0,0,0,.03.152c.03.172.067.344.105.515.1.492.223.983.361,1.471.051.2.109.408.172.607.071.244.147.487.227.727.042.132.084.26.13.387.03.088.059.176.093.264.038.116.08.228.122.34.232.631.484,1.255.761,1.87.059.132.118.264.181.4.139.3.286.6.437.9.138.272.277.543.425.815.071.124.138.252.21.376.1.172.193.344.294.512.067.119.138.236.206.352.051.084.105.172.155.256.076.124.156.247.236.372.117.188.24.372.361.559.2.292.395.587.6.875.05.072.1.14.151.208.088.119.172.24.265.36.235.323.483.643.735.955.126.16.252.315.383.472.256.311.521.619.79.923.135.152.273.3.407.452.164.176.324.352.487.523.223.232.45.464.681.691q.555.552,1.135,1.079c.264.244.534.484.811.724.315.272.638.539.962.8.164.136.328.264.5.4s.332.26.5.388.336.252.509.38c.345.252.689.5,1.042.739.177.124.357.244.533.36s.362.236.542.356c.361.232.731.459,1.1.683l.563.332c.378.216.76.431,1.147.639.194.1.386.208.58.308s.395.2.592.3c.4.2.794.392,1.2.579.2.1.4.188.609.275l-.013-.012c.391.176.786.348,1.181.511s.807.332,1.215.484a13.293,13.293,0,0,1-1.752,5.879c-1.5,2.414-4.031,3.9-7.913,3.365,12.876,6.922,22.424-1.618,26.249-6.082,21.315.38,39.222-12.836,40.579-30.42A27.925,27.925,0,0,0,1348.278,401.724Z" transform="translate(-1269.572 -379.781)"/></g><g transform="translate(1164.958 354.459)"><path class="g" d="M1291.731,374.463q1.746,0,3.524.123c.395.028.785.06,1.177.1.227.02.454.044.68.068.647.068,1.295.152,1.933.244.164.024.328.048.492.076.135.02.269.04.4.064.193.032.386.064.58.1.487.084.975.176,1.458.28l.723.155c.24.052.479.108.715.168q.888.21,1.757.456c.189.052.382.108.572.164,1.156.339,2.29.719,3.4,1.139q.233.084.467.18,1.071.414,2.114.887c.156.068.315.14.47.216q1.583.731,3.073,1.571c.147.084.294.163.437.252s.286.164.425.248c.194.112.383.227.571.344.82.5,1.618,1.031,2.387,1.579.223.164.445.324.664.487.012.008.025.02.037.028.223.164.441.331.656.5.231.18.458.359.681.543.168.136.332.272.5.408.278.236.551.471.819.711.215.192.425.384.635.58s.416.388.617.587l.076.072c.176.176.352.352.525.528.189.2.378.392.563.587a.491.491,0,0,1,.038.044c.189.2.37.4.55.6.374.416.736.843,1.084,1.275.176.216.349.432.517.651q.461.6.9,1.211c.068.1.139.2.206.3.286.42.563.843.832,1.275.126.2.248.408.37.615.1.172.206.348.3.524.067.12.138.244.2.364.294.539.576,1.087.832,1.638l0,0a27.922,27.922,0,0,1,2.665,14.151c-1.338,17.338-18.764,30.428-39.685,30.428-.3,0-.6,0-.9-.008-2.793,3.26-8.635,8.692-16.6,8.692a20.223,20.223,0,0,1-9.649-2.61,11.18,11.18,0,0,0,1.521.108,7.116,7.116,0,0,0,6.393-3.473,13.286,13.286,0,0,0,1.752-5.879c-.408-.152-.816-.312-1.215-.484s-.79-.336-1.181-.511l.013.012c-.206-.088-.408-.18-.609-.276-.4-.188-.8-.384-1.2-.579-.2-.1-.4-.2-.593-.3s-.386-.2-.58-.308c-.386-.208-.77-.423-1.147-.639l-.563-.332c-.37-.224-.74-.451-1.1-.683-.181-.12-.362-.236-.542-.356s-.357-.236-.534-.36c-.353-.24-.7-.487-1.042-.739-.172-.128-.341-.252-.509-.38s-.336-.26-.5-.388-.332-.26-.5-.4c-.323-.264-.647-.531-.962-.8-.277-.24-.546-.48-.811-.724q-.58-.527-1.135-1.079c-.231-.228-.458-.459-.68-.691-.165-.172-.324-.347-.488-.523-.134-.148-.273-.3-.408-.451-.269-.3-.533-.612-.79-.923-.13-.156-.256-.312-.383-.472-.252-.312-.5-.632-.735-.955-.093-.12-.177-.24-.265-.359-.05-.068-.1-.136-.151-.208-.206-.288-.4-.584-.6-.875-.122-.188-.244-.372-.361-.559-.08-.124-.16-.248-.235-.372l-.156-.256c-.067-.116-.138-.232-.206-.352-.1-.168-.2-.34-.294-.512-.071-.124-.139-.252-.21-.376-.147-.272-.286-.543-.425-.815-.151-.3-.3-.6-.437-.9-.062-.132-.121-.264-.18-.4q-.416-.923-.76-1.87c-.042-.112-.084-.224-.122-.34-.034-.088-.063-.176-.093-.264-.046-.128-.088-.256-.13-.387-.08-.24-.156-.484-.227-.727-.063-.2-.122-.4-.172-.607-.139-.487-.257-.979-.362-1.471-.038-.172-.075-.344-.105-.515a.952.952,0,0,1-.03-.152c-.033-.156-.059-.312-.088-.464-.038-.22-.076-.444-.1-.664-.038-.244-.072-.487-.1-.732q-.1-.761-.143-1.523-.019-.216-.025-.431c-.008-.116-.013-.232-.013-.344s-.012-.236-.012-.352a26.557,26.557,0,0,1,.071-2.758c.009-.112.017-.219.03-.331,1.532-17.17,18.865-30.1,39.645-30.1m0-2.115a47.116,47.116,0,0,0-28.315,9.036c-7.865,5.939-12.636,14.094-13.434,22.964-.014.129-.024.254-.034.384a28.487,28.487,0,0,0-.078,2.947c0,.132.005.265.013.4s.006.248.014.373c.006.159.015.318.028.477.033.555.084,1.1.152,1.619.025.24.06.5.1.786.032.238.073.481.114.718,0,.015.005.03.009.044l.027.146c.016.088.032.177.05.266s.031.174.045.234c.032.179.072.358.111.537.12.562.246,1.077.383,1.56.054.216.118.439.193.678.076.257.156.515.24.768.046.144.093.285.143.426.031.091.062.183.1.275.043.128.089.253.136.378.247.677.523,1.354.813,2,.061.136.125.279.192.422.132.287.28.593.465.96.152.3.3.583.453.869.009.017.018.033.028.05.029.05.057.1.085.152.041.075.083.15.125.224.091.162.192.342.3.518.045.079.092.157.137.234l.069.116.017.027.087.143.069.113c.092.15.18.287.268.424s.173.271.267.415l.1.153.023.035.1.142c.176.261.353.522.536.778.05.072.112.155.173.238l.072.1c.064.089.129.178.2.267.239.328.5.661.785,1.019.122.155.261.327.4.5.246.3.521.621.829.969.124.14.251.28.376.417l.051.055.181.2q.169.185.341.366c.241.251.482.5.726.737.384.382.789.767,1.2,1.137.273.251.554.5.851.759s.609.517,1.009.843c.153.126.319.257.489.391l.038.03.025.019.187.144c.111.086.223.173.337.258s.268.2.414.309l.094.07c.327.238.7.509,1.1.782.19.133.385.262.574.386l.276.182.258.169.027.018c.339.217.7.444,1.148.713l.306.18.276.162.028.016c.394.225.792.449,1.194.666.2.109.407.218.611.323s.4.2.6.308c.434.215.848.419,1.268.614.212.1.44.2.672.3.037.016.074.031.111.044.271.121.536.236.792.345a9.888,9.888,0,0,1-1.237,3.41,5.029,5.029,0,0,1-4.6,2.477,9.132,9.132,0,0,1-1.234-.088,2.115,2.115,0,0,0-1.288,3.958,22.427,22.427,0,0,0,10.651,2.862c8.213,0,14.312-5.135,17.546-8.684a47.066,47.066,0,0,0,28.417-9.145c7.9-6.021,12.634-14.273,13.326-23.235a29.884,29.884,0,0,0-2.861-15.216c-.012-.026-.025-.052-.039-.078-.246-.524-.523-1.069-.846-1.661-.055-.1-.115-.212-.175-.317l-.046-.083c-.1-.183-.214-.381-.332-.575-.128-.217-.255-.429-.387-.642-.281-.45-.568-.891-.883-1.353l-.113-.164-.086-.125-.031-.045c-.3-.427-.62-.855-.941-1.272-.179-.235-.366-.469-.557-.7-.384-.475-.773-.933-1.149-1.351-.171-.192-.35-.391-.537-.589-.03-.035-.064-.073-.1-.114-.185-.2-.374-.391-.562-.586s-.372-.375-.555-.557l-.035-.034-.06-.057c-.217-.214-.44-.427-.665-.632-.2-.19-.425-.392-.65-.593-.285-.254-.571-.5-.861-.747-.19-.158-.361-.3-.536-.441-.222-.183-.464-.375-.712-.568-.225-.177-.46-.357-.7-.533l-.043-.032c-.14-.105-.283-.209-.425-.313l-.234-.171-.027-.02c-.8-.569-1.644-1.127-2.506-1.657-.2-.123-.4-.244-.6-.362-.142-.086-.288-.171-.434-.254-.113-.069-.229-.134-.345-.2l-.112-.064c-1.033-.583-2.111-1.134-3.213-1.644-.171-.083-.345-.162-.516-.237-.709-.322-1.446-.632-2.193-.92-.172-.07-.343-.136-.515-.2-1.136-.43-2.324-.829-3.533-1.184-.2-.059-.406-.118-.608-.174-.592-.168-1.207-.327-1.813-.471-.254-.064-.512-.125-.769-.181l-.365-.078-.359-.078c-.479-.1-.98-.2-1.534-.294-.2-.037-.393-.069-.59-.1-.141-.026-.285-.048-.43-.069-.172-.029-.345-.055-.517-.08-.74-.106-1.4-.189-2.019-.254-.238-.025-.477-.051-.716-.071-.4-.037-.8-.07-1.213-.1-1.222-.086-2.457-.128-3.673-.128Z" transform="translate(-1249.861 -372.348)"/></g><g transform="translate(1166.918 356.045)"><g transform="translate(0)"><path class="s" d="M1332.443,397.291l0,0c-.256-.551-.538-1.1-.832-1.638-.063-.12-.135-.244-.2-.364-.1-.176-.2-.352-.3-.524-.122-.208-.244-.411-.37-.615-.269-.431-.546-.855-.832-1.275-.067-.1-.138-.2-.205-.3q-.436-.611-.9-1.211c-.168-.219-.34-.436-.516-.651-.349-.431-.711-.859-1.084-1.275-.181-.2-.362-.4-.551-.6a.426.426,0,0,0-.038-.044c-.185-.2-.374-.392-.563-.587-.172-.176-.349-.352-.525-.528l-.076-.072q-.3-.3-.618-.587c-.21-.2-.42-.388-.635-.58-.269-.24-.542-.475-.819-.711-.164-.136-.328-.272-.5-.408-.223-.184-.45-.364-.681-.544-.215-.168-.433-.336-.656-.5-.013-.008-.025-.02-.038-.028-.219-.164-.441-.323-.664-.487-.769-.548-1.567-1.075-2.387-1.579-.189-.116-.379-.232-.572-.344-.139-.084-.281-.168-.425-.248s-.29-.168-.437-.252q-1.488-.84-3.072-1.571c-.155-.076-.315-.148-.471-.216-.693-.316-1.4-.611-2.114-.887-.156-.064-.312-.124-.467-.18-1.1-.42-2.24-.8-3.4-1.139-.189-.056-.382-.112-.572-.164-.58-.164-1.164-.316-1.757-.456-.235-.06-.475-.116-.714-.168l-.723-.155c-.483-.1-.97-.2-1.458-.28-.193-.036-.386-.068-.58-.1-.131-.024-.265-.044-.4-.064-.164-.027-.328-.052-.492-.076-.639-.092-1.286-.176-1.933-.244-.227-.024-.454-.048-.681-.068-.391-.036-.782-.068-1.177-.1-22.311-1.558-41.551,11.841-43.169,29.973-.013.112-.021.22-.029.331a26.355,26.355,0,0,0-.071,2.758c0,.116,0,.236.012.352s0,.228.013.344q.006.216.025.431c.03.508.075,1.015.143,1.523.025.244.059.488.1.732.03.22.067.444.1.663.029.152.054.308.088.464a1.037,1.037,0,0,0,.029.152c.03.172.068.344.105.516.105.492.222.983.361,1.471.051.2.109.408.173.607.071.244.147.487.227.727.042.132.084.26.13.388.03.088.059.176.092.264.038.116.08.228.122.34.231.631.483,1.254.761,1.87.059.132.117.264.181.4.138.3.285.6.437.9.139.272.278.543.425.815.071.124.139.252.21.376.1.172.193.344.294.512.067.119.139.236.206.352.05.084.1.172.156.256.075.124.155.247.235.372.118.188.24.372.362.559.2.292.395.587.6.875.051.072.1.14.152.208.088.12.172.24.264.36.236.323.484.643.736.955.126.16.252.316.383.472.256.311.521.619.79.923.134.152.273.3.407.451.164.176.324.352.488.524.223.232.449.463.681.691q.554.552,1.134,1.079c.265.244.534.484.811.724.315.272.639.539.963.8.164.136.328.264.5.4s.332.26.5.388.336.252.509.38c.344.252.689.5,1.042.739.177.124.357.244.534.36s.361.236.542.356c.362.232.731.459,1.1.683l.563.332c.378.216.76.431,1.147.639.194.1.387.208.58.308s.4.2.593.3c.4.2.795.392,1.2.579.2.1.4.188.609.276l-.013-.012c.391.175.786.348,1.181.511s.807.332,1.214.484a13.283,13.283,0,0,1-1.753,5.879c-1.5,2.414-4.03,3.9-7.913,3.365,12.876,6.922,22.425-1.618,26.249-6.082,21.316.38,39.223-12.836,40.58-30.42A27.936,27.936,0,0,0,1332.443,397.291Z" transform="translate(-1253.737 -375.348)"/></g><g transform="translate(14.541 64.536)"><path class="q" d="M1292.492,498.16c.4.172.807.331,1.215.483a13.3,13.3,0,0,1-1.754,5.879,6.977,6.977,0,0,1-4.952,3.357,22.153,22.153,0,0,1-5.759-2.178c3.885.531,6.41-.952,7.913-3.365a12.488,12.488,0,0,0,1.643-4.911c.172.08.348.16.523.236l-.011-.012C1291.7,497.825,1292.1,498,1292.492,498.16Z" transform="translate(-1281.243 -497.425)"/></g><g transform="translate(0 0.216)"><path class="q" d="M1323.6,386.322c-.755-.54-1.543-1.055-2.346-1.551-.188-.116-.38-.232-.571-.344-.14-.084-.283-.168-.424-.248s-.292-.168-.439-.252q-1.487-.84-3.069-1.571c-.156-.076-.315-.148-.472-.216q-1.042-.473-2.114-.887-.234-.1-.468-.18c-1.1-.419-2.238-.8-3.4-1.139-.188-.056-.38-.112-.572-.164q-.869-.246-1.754-.456c-.236-.06-.475-.116-.715-.168l-.723-.156c-.484-.1-.971-.2-1.458-.28-.192-.036-.384-.068-.58-.1-.128-.024-.264-.044-.4-.064-.164-.028-.327-.052-.491-.076-.639-.092-1.287-.176-1.93-.244-.228-.024-.455-.048-.683-.068-.392-.036-.779-.068-1.175-.1-22.312-1.558-41.55,11.841-43.169,29.973-.012.112-.024.22-.032.332a26.614,26.614,0,0,0-.072,2.758c0,.116.008.236.016.352s0,.228.012.344c0,.144.012.288.024.432q.042.761.144,1.523c.024.244.06.487.1.731.028.22.068.444.1.663.032.152.056.308.088.464a.96.96,0,0,0,.032.152c.028.172.068.344.1.516.1.492.224.983.364,1.471.048.2.108.408.172.607.072.244.144.488.224.727.044.132.084.26.131.388.028.088.061.176.092.264.04.116.08.228.125.34.228.631.483,1.255.759,1.87.06.132.116.264.18.4.14.3.288.6.44.9.136.272.275.543.423.815.072.124.136.252.208.375.1.172.2.344.3.512.068.12.14.236.2.352.052.084.108.172.156.256.075.124.156.248.236.372.12.188.24.372.364.559.2.292.4.588.6.875.052.072.1.14.152.208.088.12.172.24.264.36.236.324.484.643.735.955.128.16.252.316.384.472q.383.468.791.923c.132.152.272.3.408.451.164.176.324.352.488.524.219.232.447.464.679.691.372.367.747.727,1.135,1.079.264.244.531.483.811.723l.144.12c-.155-.112-.316-.224-.471-.34-.172-.128-.34-.252-.508-.38s-.336-.26-.5-.388-.332-.26-.5-.4c-.323-.264-.647-.531-.963-.8-.276-.24-.548-.479-.811-.723-.387-.352-.763-.712-1.135-1.079-.232-.228-.459-.46-.679-.691-.164-.172-.323-.348-.488-.524-.136-.148-.276-.3-.408-.451q-.408-.455-.791-.923c-.132-.156-.256-.312-.384-.471-.252-.312-.5-.631-.735-.955-.092-.12-.176-.239-.264-.359-.052-.068-.1-.136-.152-.208-.2-.288-.4-.584-.6-.875-.124-.188-.244-.372-.364-.559-.08-.124-.16-.248-.236-.372-.048-.084-.1-.172-.152-.256-.068-.116-.14-.232-.208-.352-.1-.168-.2-.34-.3-.512-.068-.124-.136-.252-.208-.375-.147-.272-.288-.543-.424-.816-.152-.3-.3-.6-.439-.9-.064-.132-.12-.264-.18-.4q-.413-.924-.759-1.87c-.044-.112-.084-.224-.124-.34-.032-.088-.064-.175-.092-.264-.044-.128-.088-.256-.132-.388-.076-.24-.152-.484-.223-.727-.064-.2-.124-.4-.172-.607-.14-.487-.26-.979-.364-1.471-.036-.172-.076-.344-.1-.515-.012-.052-.024-.1-.032-.152-.032-.156-.056-.312-.088-.464-.036-.22-.076-.444-.1-.663-.036-.244-.072-.487-.1-.731-.068-.508-.112-1.015-.144-1.523q-.018-.216-.024-.431c-.008-.116-.011-.232-.011-.344s-.012-.236-.012-.352a26.6,26.6,0,0,1,.068-2.757c.012-.112.02-.22.032-.332,1.618-18.131,20.857-31.531,43.169-29.973.4.028.783.06,1.175.1.228.02.456.044.684.068.647.068,1.291.152,1.93.244.164.024.328.048.491.076.136.02.272.04.4.064.2.032.387.064.579.1.487.083.975.175,1.458.28l.723.156c.24.052.48.108.716.168.591.14,1.175.292,1.758.456.188.052.38.108.572.164,1.155.339,2.29.719,3.393,1.139.156.056.311.116.468.18q1.073.414,2.114.888c.156.068.316.14.472.216q1.583.731,3.069,1.571c.147.084.3.164.439.252s.284.164.424.248c.192.112.383.228.572.344.819.5,1.618,1.031,2.386,1.579.223.164.447.324.664.487a.316.316,0,0,1,.039.028c.224.164.44.331.656.5.231.18.459.359.679.543.168.136.332.272.5.408C1323.448,386.194,1323.524,386.258,1323.6,386.322Z" transform="translate(-1253.736 -375.756)"/></g></g><g transform="translate(1194.066 366.011)"><g transform="translate(1.058 1.496)"><path class="r" d="M1320.156,397.028a11.641,11.641,0,0,1,8.668,3.407,10.938,10.938,0,0,1,3.357,7.917,10.086,10.086,0,0,1-.776,3.983,8.539,8.539,0,0,1-1.879,2.881A15.017,15.017,0,0,1,1327.3,417a11.64,11.64,0,0,1-1.879,1.027l-.8.251c0,.568-.025,7.2-.076,7.5a2.4,2.4,0,0,1-.451.977,2.12,2.12,0,0,1-1.252.752,9.7,9.7,0,0,1-2.33.225,8.711,8.711,0,0,1-2.33-.251,1.957,1.957,0,0,1-1.228-.851,3.188,3.188,0,0,1-.426-1.077c-.051-.317-.075-7.012-.075-7.68a1.023,1.023,0,0,1,.024-.176,1.126,1.126,0,0,0,.026-.225,4.658,4.658,0,0,1,1.228-3.408,5.977,5.977,0,0,1,2.681-1.653,7.673,7.673,0,0,0,2.68-1.353,3.016,3.016,0,0,0,1.228-2.505,3.474,3.474,0,0,0-.927-2.606,4.589,4.589,0,0,0-3.232-.9,4.09,4.09,0,0,0-2.28.576,2.493,2.493,0,0,0-1.077,1.178l-.15.6a5.866,5.866,0,0,1-1.052,1.979,2.162,2.162,0,0,1-1.7.677,5.961,5.961,0,0,1-2-.451,8.394,8.394,0,0,1-2.63-1.453,2.119,2.119,0,0,1-.726-1.553,7.527,7.527,0,0,1,.4-1.754l.1-.25q.1-.3.3-.827a11.218,11.218,0,0,1,1.077-1.829,11.458,11.458,0,0,1,2-2.28,11.324,11.324,0,0,1,3.182-1.8A12.1,12.1,0,0,1,1320.156,397.028Z" transform="translate(-1308.531 -397.028)"/></g><g transform="translate(0 0)"><path class="g" d="M1319.563,427.018a9.615,9.615,0,0,1-2.622-.292,2.971,2.971,0,0,1-1.85-1.336,4.155,4.155,0,0,1-.556-1.444c-.075-.467-.088-7.772-.088-7.845a1.907,1.907,0,0,1,.046-.386,5.729,5.729,0,0,1,1.534-4.162,7.048,7.048,0,0,1,3.155-1.932,6.658,6.658,0,0,0,2.314-1.17,1.968,1.968,0,0,0,.818-1.67,2.458,2.458,0,0,0-.607-1.848,3.821,3.821,0,0,0-2.494-.6,3.087,3.087,0,0,0-1.7.4,1.687,1.687,0,0,0-.646.606l-.137.546c-.007.03-.016.059-.026.088a6.815,6.815,0,0,1-1.26,2.336,3.2,3.2,0,0,1-2.495,1.031,6.9,6.9,0,0,1-2.376-.518,9.273,9.273,0,0,1-2.994-1.683,3.189,3.189,0,0,1-1.049-2.313,7.323,7.323,0,0,1,.448-2.065.773.773,0,0,1,.03-.083l.089-.221q.1-.312.306-.84a10.723,10.723,0,0,1,1.188-2.041,12.556,12.556,0,0,1,2.189-2.489,12.24,12.24,0,0,1,3.48-1.986,13.2,13.2,0,0,1,4.954-.9,12.712,12.712,0,0,1,9.421,3.722,12.011,12.011,0,0,1,3.662,8.659,11.184,11.184,0,0,1-.861,4.4,9.624,9.624,0,0,1-2.123,3.232,16.133,16.133,0,0,1-2.388,1.9,12.549,12.549,0,0,1-2.058,1.12c-.025.01-.051.02-.078.027l-.061.019c-.006,1.879-.027,6.536-.088,6.9a3.442,3.442,0,0,1-.634,1.42,3.142,3.142,0,0,1-1.848,1.159A10.616,10.616,0,0,1,1319.563,427.018Zm-3-10.917c0,1.118.028,7.072.068,7.562a2.287,2.287,0,0,0,.289.662.976.976,0,0,0,.6.368,7.774,7.774,0,0,0,2.041.21,8.75,8.75,0,0,0,2.067-.192,1.187,1.187,0,0,0,.655-.343,1.482,1.482,0,0,0,.263-.509c.041-.67.066-6.526.066-7.358a1.058,1.058,0,0,1,.742-1.01l.76-.237a11.008,11.008,0,0,0,1.663-.92,14.006,14.006,0,0,0,2.072-1.655,7.528,7.528,0,0,0,1.637-2.53,9.079,9.079,0,0,0,.693-3.57,9.839,9.839,0,0,0-3.054-7.175,10.534,10.534,0,0,0-7.914-3.092,11.106,11.106,0,0,0-4.165.75,9.022,9.022,0,0,0-4.7,3.693,9.962,9.962,0,0,0-.966,1.613c-.128.335-.223.6-.285.786-.007.021-.015.041-.023.061l-.083.209a6.481,6.481,0,0,0-.341,1.4,1.06,1.06,0,0,0,.4.793,7.249,7.249,0,0,0,2.285,1.23,4.827,4.827,0,0,0,1.616.377,1.1,1.1,0,0,0,.915-.322,4.833,4.833,0,0,0,.827-1.58l.139-.555c.007-.026.014-.051.022-.076a3.448,3.448,0,0,1,1.5-1.728,5.126,5.126,0,0,1,2.861-.75,5.489,5.489,0,0,1,3.968,1.2,4.493,4.493,0,0,1,1.248,3.363,4.091,4.091,0,0,1-1.638,3.342,8.741,8.741,0,0,1-3.047,1.536,4.969,4.969,0,0,0-2.207,1.375,3.617,3.617,0,0,0-.925,2.667,2.178,2.178,0,0,1-.048.438v0A.133.133,0,0,1,1316.562,416.1Zm7.912.151h0Zm-16.385-13.429h0Z" transform="translate(-1306.53 -394.199)"/></g><g transform="translate(8.223 38.499)"><path class="r" d="M1326.795,467.023q2.706,0,3.758,1.052.9.9.9,3.708a12.128,12.128,0,0,1-.1,1.779,4.814,4.814,0,0,1-.5,1.4,2.287,2.287,0,0,1-1.428,1.1,9.045,9.045,0,0,1-2.681.326,5.576,5.576,0,0,1-3.809-1.053,4.026,4.026,0,0,1-.851-2.906v-.8a15.205,15.205,0,0,1,.075-1.754,4.231,4.231,0,0,1,.476-1.378,2.379,2.379,0,0,1,1.428-1.128A8.712,8.712,0,0,1,1326.795,467.023Z" transform="translate(-1322.085 -467.023)"/></g><g transform="translate(7.166 37.003)"><path class="g" d="M1325.8,475.678a6.482,6.482,0,0,1-4.522-1.33,4.943,4.943,0,0,1-1.2-3.686v-.8a16.111,16.111,0,0,1,.083-1.885,5.2,5.2,0,0,1,.586-1.732,3.406,3.406,0,0,1,2.026-1.643,9.606,9.606,0,0,1,3.073-.408c2.116,0,3.589.446,4.506,1.362.826.826,1.212,2.242,1.212,4.455a12.974,12.974,0,0,1-.113,1.945,5.785,5.785,0,0,1-.606,1.722,3.313,3.313,0,0,1-2.05,1.626A9.947,9.947,0,0,1,1325.8,475.678Zm.05-9.37a7.731,7.731,0,0,0-2.39.294,1.365,1.365,0,0,0-.83.612,3.174,3.174,0,0,0-.366,1.024,14.3,14.3,0,0,0-.067,1.622v.8a3.018,3.018,0,0,0,.541,2.157,4.782,4.782,0,0,0,3.061.744,8.08,8.08,0,0,0,2.36-.277,1.2,1.2,0,0,0,.811-.581,3.784,3.784,0,0,0,.4-1.086,11.152,11.152,0,0,0,.086-1.61c0-2.137-.415-2.782-.593-2.96C1328.524,466.711,1327.726,466.308,1325.852,466.308Z" transform="translate(-1320.085 -464.193)"/></g></g><g transform="translate(1099.778 409.061)"><g transform="translate(0 0)"><path class="g" d="M1179.422,459.618c15.729,0,28.849,9.784,30.009,22.781.01.085.016.166.022.251a20.051,20.051,0,0,1,.054,2.087c0,.088,0,.178-.01.266s0,.173-.01.261q-.005.163-.019.326c-.022.384-.057.769-.108,1.153-.02.184-.045.369-.073.553-.022.166-.051.336-.079.5-.022.115-.041.233-.067.351a.737.737,0,0,1-.022.115c-.022.13-.051.26-.079.39-.08.372-.168.744-.274,1.113-.038.154-.083.308-.13.459-.055.185-.112.369-.172.551-.032.1-.064.2-.1.293-.022.067-.044.133-.07.2-.029.088-.061.173-.092.257-.175.478-.366.949-.576,1.416-.044.1-.089.2-.137.3-.1.23-.216.457-.33.684-.105.206-.21.412-.322.617-.054.094-.1.19-.159.284-.073.13-.146.26-.223.387-.051.091-.105.179-.156.266-.038.064-.079.13-.118.194-.057.094-.117.187-.178.281-.089.142-.181.281-.273.423-.149.221-.3.445-.455.662-.038.054-.077.106-.115.157-.067.09-.131.181-.2.272-.178.245-.366.487-.557.723-.1.121-.191.239-.29.357-.194.236-.395.469-.6.7-.1.115-.207.23-.308.342-.124.133-.245.266-.369.4-.169.176-.341.351-.516.523q-.419.418-.859.817c-.2.185-.4.366-.614.548-.238.206-.483.408-.728.608-.125.1-.249.2-.376.3s-.251.2-.382.293-.254.191-.385.288c-.261.19-.522.378-.789.56-.134.094-.27.185-.4.272s-.274.178-.41.269c-.274.175-.554.348-.834.517l-.426.251c-.287.163-.576.327-.869.484-.146.078-.292.157-.439.233s-.3.154-.449.23c-.3.149-.6.3-.907.439-.152.072-.3.142-.461.209l.009-.009c-.3.133-.595.263-.894.387s-.611.251-.919.366a10.059,10.059,0,0,0,1.326,4.45,5.386,5.386,0,0,0,4.839,2.629,8.434,8.434,0,0,0,1.151-.082,15.307,15.307,0,0,1-7.3,1.976c-6.029,0-10.451-4.112-12.565-6.58-.226,0-.453.006-.678.006-15.835,0-29.025-9.909-30.038-23.032a21.14,21.14,0,0,1,2.017-10.711l0,0c.194-.417.407-.832.63-1.24.048-.09.1-.185.153-.275.073-.133.15-.266.229-.4.093-.158.185-.311.281-.466.2-.327.413-.648.629-.965.051-.076.105-.151.156-.227q.329-.462.677-.917c.127-.166.258-.329.391-.493.264-.327.537-.65.821-.965.137-.154.274-.305.416-.457a.377.377,0,0,1,.029-.033c.14-.148.283-.3.426-.445.131-.133.264-.266.4-.4l.057-.054q.229-.227.468-.445c.159-.148.318-.293.48-.439.2-.181.411-.36.621-.538.124-.1.248-.206.375-.309.168-.139.34-.275.515-.411s.327-.254.5-.378c.01-.006.019-.015.029-.021.166-.124.334-.245.5-.369.582-.414,1.187-.814,1.807-1.2.143-.088.287-.175.432-.26.105-.063.213-.127.321-.188s.219-.127.331-.19q1.126-.635,2.325-1.189c.118-.058.239-.112.356-.163q.787-.358,1.6-.671c.118-.049.235-.094.353-.136q1.255-.476,2.57-.862c.143-.042.289-.085.432-.124.439-.124.881-.239,1.33-.345.178-.045.36-.088.541-.127l.547-.118c.366-.078.735-.148,1.1-.211.146-.028.293-.052.44-.076.1-.018.2-.033.3-.049.124-.021.248-.039.372-.058.484-.069.974-.133,1.463-.184.172-.018.344-.036.515-.051.3-.027.592-.051.891-.072q1.343-.094,2.667-.094m19.085,54.951h0M1179.423,457.5h0c-.932,0-1.879.033-2.815.1-.316.023-.626.048-.937.077-.175.015-.358.034-.54.054-.479.05-.984.114-1.546.195-.137.02-.271.04-.4.062-.113.016-.224.034-.332.053-.151.025-.3.05-.449.077-.424.073-.809.147-1.176.226l-.28.06-.271.058c-.2.043-.4.09-.6.14-.465.11-.936.232-1.4.364-.142.039-.3.085-.457.131-.923.271-1.834.576-2.7.907-.134.048-.267.1-.4.154-.572.221-1.136.458-1.68.705-.133.058-.268.119-.4.184-.845.391-1.672.815-2.458,1.258l-.091.051c-.09.051-.18.1-.269.156-.111.062-.222.128-.331.193-.155.09-.308.183-.46.277-.665.409-1.313.837-1.928,1.275l-.026.019-.175.128c-.114.083-.227.165-.34.25l-.012.009-.005,0c-.186.136-.368.277-.547.416s-.374.294-.558.446c-.116.094-.245.2-.375.308l-.024.02c-.223.189-.442.378-.658.571-.176.158-.346.313-.515.471s-.33.308-.5.474l-.042.04-.035.034c-.141.14-.28.279-.415.418-.157.162-.3.31-.438.457-.033.034-.063.067-.089.1-.142.152-.279.3-.417.458-.28.311-.581.664-.883,1.039-.141.171-.285.353-.427.537-.244.319-.488.648-.721.976l-.031.045-.061.088-.1.138c-.235.345-.457.684-.67,1.027-.1.169-.2.332-.3.5s-.182.308-.267.463l-.027.047c-.046.083-.094.167-.137.249-.247.454-.46.872-.649,1.275l-.032.066a23.129,23.129,0,0,0-2.213,11.776c.536,6.932,4.189,13.309,10.288,17.957a36.1,36.1,0,0,0,21.594,7.026c2.546,2.746,7.225,6.574,13.507,6.574a17.454,17.454,0,0,0,8.259-2.2,2.115,2.115,0,0,0-.826-4c-.042,0-.085,0-.128,0s-.084,0-.126,0c-.065,0-.129.01-.192.02a6.365,6.365,0,0,1-.834.058,3.288,3.288,0,0,1-3.044-1.633,6.6,6.6,0,0,1-.785-2l.205-.091.092-.037c.183-.078.361-.159.54-.244.305-.142.623-.3.938-.454.174-.088.334-.169.494-.253.143-.073.3-.158.456-.242.308-.166.614-.338.915-.51l.029-.016.208-.123.219-.128c.314-.19.609-.372.9-.557l.028-.018.192-.126.218-.143c.139-.091.289-.191.437-.294.311-.211.609-.427.835-.592l.081-.06c.113-.084.225-.167.336-.252.07-.052.159-.12.246-.188l.136-.105.024-.02.031-.024c.131-.1.26-.2.389-.311.247-.2.506-.416.759-.634.229-.2.449-.394.666-.593.3-.278.617-.574.918-.873.182-.179.367-.369.549-.558.094-.1.181-.193.269-.288l.122-.132.057-.062c.1-.105.193-.212.288-.319.237-.268.449-.516.648-.758.1-.12.208-.254.316-.391.207-.255.406-.513.591-.767.052-.069.1-.138.153-.207l.056-.077c.046-.062.094-.127.143-.2.131-.182.268-.384.4-.586l.071-.106.023-.034.073-.114c.071-.108.142-.217.21-.326s.135-.209.2-.314l.058-.1.068-.112.016-.028.049-.083c.035-.059.071-.12.106-.181.081-.136.16-.275.237-.413l.089-.159.059-.106.028-.049c.12-.221.232-.442.345-.663.128-.254.249-.5.363-.75.052-.111.1-.222.152-.333.221-.49.434-1.014.631-1.55.031-.083.067-.18.1-.28.026-.07.05-.14.073-.21.039-.11.076-.22.112-.333.065-.2.126-.393.185-.591s.108-.36.151-.53c.106-.375.2-.773.3-1.216.028-.127.057-.263.083-.4.011-.051.025-.115.037-.19s.025-.134.038-.2l.02-.1.008-.043c.031-.185.063-.373.088-.557.031-.2.059-.406.081-.608.052-.4.092-.821.117-1.25.011-.124.018-.248.022-.372.006-.1.01-.195.011-.289s.01-.208.01-.311a22.053,22.053,0,0,0-.06-2.283c-.008-.1-.015-.2-.026-.3-.619-6.858-4.3-13.158-10.37-17.741a36.181,36.181,0,0,0-21.742-6.944Z" transform="translate(-1145.745 -457.503)"/></g><g transform="translate(2.166 2.115)"><path class="t" d="M1151.92,478.113l0,0c.194-.417.407-.832.63-1.24.048-.091.1-.184.152-.275.073-.133.15-.266.229-.4.092-.158.184-.312.28-.466q.305-.49.629-.965c.052-.076.105-.151.156-.227q.33-.462.678-.917c.127-.166.258-.329.391-.493.264-.327.538-.65.82-.965.137-.154.274-.305.417-.457a.408.408,0,0,1,.029-.033c.14-.148.283-.3.426-.445.131-.133.265-.266.4-.4l.058-.054q.229-.227.467-.445c.159-.148.318-.293.481-.439.2-.181.41-.36.62-.538.124-.1.248-.206.375-.309.169-.139.341-.275.516-.411s.328-.254.5-.378c.01-.006.019-.015.029-.021.165-.124.334-.245.5-.37.582-.414,1.187-.814,1.806-1.195.143-.088.287-.176.433-.26.1-.063.213-.127.321-.188s.22-.127.331-.19q1.126-.635,2.326-1.189c.118-.058.239-.112.356-.163q.787-.358,1.6-.671c.118-.049.236-.094.353-.136.837-.317,1.7-.6,2.571-.862.143-.042.29-.085.433-.124.439-.124.881-.239,1.329-.345.178-.045.36-.088.541-.127l.547-.118c.366-.079.735-.148,1.1-.211.146-.027.292-.052.439-.076.1-.018.2-.033.3-.049.124-.021.248-.039.372-.058.483-.069.973-.133,1.464-.185.172-.018.344-.036.515-.051.3-.027.592-.051.891-.072,16.888-1.18,31.451,8.963,32.675,22.687.01.085.016.166.022.251a19.853,19.853,0,0,1,.054,2.087c0,.088,0,.178-.01.266s0,.173-.009.261c0,.109-.01.217-.019.326-.023.384-.058.769-.108,1.153-.019.185-.044.369-.073.554-.023.166-.051.336-.08.5-.022.115-.042.233-.067.351a.767.767,0,0,1-.022.115c-.022.13-.052.26-.08.39-.079.372-.169.744-.273,1.113-.038.154-.083.308-.131.459-.054.185-.111.369-.172.551-.032.1-.063.2-.1.293-.023.067-.045.133-.07.2-.029.088-.06.173-.092.258-.175.478-.366.949-.576,1.416-.045.1-.089.2-.137.3-.105.23-.216.457-.331.684-.105.206-.21.412-.322.617-.054.094-.1.19-.159.284-.073.131-.146.261-.222.388-.051.091-.1.179-.156.266-.038.064-.079.13-.117.194-.057.094-.118.187-.178.281-.089.142-.181.281-.274.423-.15.221-.3.445-.455.662-.038.054-.077.106-.115.158-.067.09-.13.181-.2.272-.178.245-.366.487-.557.723-.1.121-.191.239-.289.357-.194.236-.4.469-.6.7-.1.115-.207.23-.308.342-.124.133-.245.266-.369.4-.168.175-.34.351-.515.523q-.42.418-.859.817c-.2.184-.4.366-.614.548-.238.206-.484.408-.729.608-.124.1-.248.2-.375.3s-.251.2-.382.293-.255.191-.385.288c-.261.19-.522.378-.789.56-.133.094-.27.185-.4.272s-.273.178-.41.269c-.273.176-.553.348-.833.517l-.427.251c-.286.163-.575.327-.868.484-.146.078-.293.157-.439.233s-.3.154-.448.23c-.3.148-.6.3-.907.439-.153.072-.306.142-.462.209l.01-.009c-.3.133-.594.263-.893.387s-.611.251-.919.366a10.047,10.047,0,0,0,1.326,4.45,5.606,5.606,0,0,0,5.99,2.547c-9.747,5.24-16.974-1.225-19.869-4.6-16.134.288-29.688-9.716-30.716-23.026A21.138,21.138,0,0,1,1151.92,478.113Z" transform="translate(-1149.841 -461.503)"/><g transform="translate(41.212 48.849)"><path class="q" d="M1228.717,554.464c-.3.13-.611.251-.919.366a10.062,10.062,0,0,0,1.328,4.45,5.282,5.282,0,0,0,3.748,2.541,16.75,16.75,0,0,0,4.359-1.649c-2.94.4-4.852-.72-5.99-2.547a9.451,9.451,0,0,1-1.243-3.718c-.131.06-.263.121-.4.179l.009-.01C1229.316,554.209,1229.017,554.339,1228.717,554.464Z" transform="translate(-1227.798 -553.907)"/></g><g transform="translate(8.776 0.163)"><path class="q" d="M1166.441,469.81c.571-.408,1.168-.8,1.776-1.174.142-.088.287-.176.432-.26.106-.063.215-.127.321-.188s.221-.127.333-.19q1.125-.635,2.323-1.189c.119-.058.239-.112.357-.163q.789-.358,1.6-.671.177-.073.354-.136c.835-.317,1.694-.6,2.571-.862.142-.043.287-.085.432-.124.439-.124.88-.239,1.328-.345.178-.045.36-.088.541-.127l.548-.118c.366-.079.735-.148,1.1-.212.145-.027.291-.052.439-.076.1-.019.2-.033.3-.049.124-.021.248-.039.372-.058.484-.069.974-.133,1.461-.185.172-.018.344-.036.517-.051.3-.027.59-.051.89-.072,16.889-1.18,31.45,8.963,32.676,22.687.009.085.018.166.024.251a20.018,20.018,0,0,1,.054,2.087c0,.088-.006.178-.012.266s0,.172-.009.26c0,.109-.009.218-.018.327q-.031.576-.109,1.152c-.018.185-.046.369-.073.554-.021.166-.052.336-.079.5-.024.115-.042.233-.067.351a.808.808,0,0,1-.024.115c-.021.13-.052.26-.079.39-.078.372-.169.744-.275,1.113-.036.154-.082.309-.13.46-.055.185-.109.369-.17.551-.033.1-.063.2-.1.293-.021.067-.045.133-.069.2-.03.088-.061.172-.094.257-.172.478-.366.949-.574,1.416-.046.1-.088.2-.136.3-.106.23-.218.457-.333.684q-.154.308-.32.617c-.054.094-.1.19-.157.284-.076.13-.148.261-.224.388-.051.091-.106.178-.154.266-.039.064-.082.13-.118.194-.057.094-.118.187-.179.281-.09.142-.181.281-.275.423-.149.221-.3.445-.454.662-.039.054-.075.106-.115.157-.067.091-.13.182-.2.272-.178.245-.366.487-.557.723-.1.121-.19.239-.29.357q-.29.354-.6.7c-.1.115-.206.23-.309.342-.124.133-.245.266-.369.4-.166.176-.339.351-.514.523-.281.278-.566.55-.859.817-.2.184-.4.366-.614.548l-.109.09c.118-.085.239-.169.357-.257s.257-.191.385-.288.254-.2.381-.293.251-.2.375-.3c.245-.2.49-.4.729-.608.209-.182.414-.363.614-.548.294-.266.578-.538.859-.817.176-.172.348-.348.514-.523.124-.13.245-.263.369-.4.1-.112.209-.227.308-.342q.309-.345.6-.7c.1-.118.194-.236.291-.357.19-.236.378-.478.557-.723.069-.09.133-.181.2-.272.04-.052.076-.1.115-.158.154-.218.3-.441.453-.662.094-.142.184-.281.276-.423.06-.094.121-.188.178-.281.036-.064.079-.13.115-.194.051-.088.106-.175.157-.266.076-.127.148-.257.224-.388.051-.094.1-.19.157-.284.112-.206.218-.412.321-.617.115-.227.227-.454.332-.684.049-.1.091-.2.137-.3q.312-.7.575-1.416c.033-.085.063-.17.094-.258.024-.066.048-.133.07-.2.033-.1.067-.193.1-.293.057-.182.115-.366.169-.551.049-.151.094-.306.13-.459.106-.369.2-.741.276-1.113.027-.13.058-.26.079-.39.009-.04.018-.076.024-.115.024-.118.042-.236.067-.351.028-.167.057-.336.079-.5.027-.185.054-.369.073-.554.052-.384.085-.769.109-1.153.009-.108.015-.218.019-.327.006-.087.009-.175.009-.26s.009-.178.009-.266a20.182,20.182,0,0,0-.051-2.087c-.009-.085-.015-.167-.024-.251-1.225-13.724-15.787-23.867-32.676-22.687-.3.021-.593.045-.889.072-.173.015-.345.033-.518.051-.49.052-.977.115-1.461.184-.124.019-.248.036-.372.058-.1.015-.206.03-.3.049-.148.024-.294.048-.438.076-.369.063-.738.133-1.1.211l-.548.118c-.182.04-.363.082-.541.127-.448.106-.89.22-1.331.345-.142.039-.288.082-.433.124-.874.257-1.733.545-2.568.862-.118.043-.236.088-.354.136q-.812.313-1.6.671c-.118.051-.239.106-.357.163q-1.2.554-2.324,1.189c-.112.063-.224.124-.333.19s-.214.124-.321.188c-.145.085-.29.172-.432.26-.62.381-1.225.781-1.806,1.195-.169.124-.339.245-.5.37a.193.193,0,0,0-.03.021c-.17.124-.333.251-.5.378s-.349.272-.515.411c-.127.1-.251.206-.375.309C1166.553,469.713,1166.5,469.762,1166.441,469.81Z" transform="translate(-1166.441 -461.812)"/></g></g><g transform="translate(21.645 9.588)"><g transform="translate(1.057 1.404)"><path class="r" d="M1197.863,478.294a9.185,9.185,0,0,1,6.841,2.689,8.63,8.63,0,0,1,2.65,6.248,7.962,7.962,0,0,1-.613,3.144,6.733,6.733,0,0,1-1.483,2.274,11.833,11.833,0,0,1-1.76,1.4,9.228,9.228,0,0,1-1.483.811l-.632.2c0,.448-.02,5.686-.06,5.923a1.9,1.9,0,0,1-.356.771,1.671,1.671,0,0,1-.989.593,7.657,7.657,0,0,1-1.839.178,6.868,6.868,0,0,1-1.839-.2,1.544,1.544,0,0,1-.969-.672,2.507,2.507,0,0,1-.336-.851c-.039-.25-.06-5.534-.06-6.062a.771.771,0,0,1,.02-.138.959.959,0,0,0,.02-.178,3.676,3.676,0,0,1,.968-2.689,4.716,4.716,0,0,1,2.116-1.3,6.05,6.05,0,0,0,2.115-1.068,2.381,2.381,0,0,0,.969-1.977,2.742,2.742,0,0,0-.732-2.056,3.621,3.621,0,0,0-2.551-.712,3.224,3.224,0,0,0-1.8.455,1.961,1.961,0,0,0-.85.929l-.119.475a4.642,4.642,0,0,1-.831,1.562,1.707,1.707,0,0,1-1.345.533,4.7,4.7,0,0,1-1.582-.356,6.61,6.61,0,0,1-2.076-1.147,1.676,1.676,0,0,1-.574-1.226,5.958,5.958,0,0,1,.316-1.384l.08-.2q.079-.238.237-.653a8.826,8.826,0,0,1,.85-1.443,9.053,9.053,0,0,1,1.582-1.8,8.957,8.957,0,0,1,2.511-1.424A9.552,9.552,0,0,1,1197.863,478.294Z" transform="translate(-1188.688 -478.294)"/></g><path class="g" d="M1197.2,501.987a7.814,7.814,0,0,1-2.132-.239,2.559,2.559,0,0,1-1.59-1.156,3.5,3.5,0,0,1-.466-1.217c-.064-.4-.073-6.169-.073-6.226a1.778,1.778,0,0,1,.041-.349,4.681,4.681,0,0,1,1.269-3.4,5.778,5.778,0,0,1,2.59-1.584,5.014,5.014,0,0,0,1.748-.884,1.33,1.33,0,0,0,.561-1.142,1.739,1.739,0,0,0-.412-1.3c-.127-.123-.559-.412-1.813-.412a2.22,2.22,0,0,0-1.218.281,1.343,1.343,0,0,0-.423.371l-.1.406c-.008.03-.016.06-.026.089a5.6,5.6,0,0,1-1.039,1.919,2.743,2.743,0,0,1-2.136.889,5.651,5.651,0,0,1-1.953-.423,7.531,7.531,0,0,1-2.439-1.376,2.734,2.734,0,0,1-.9-1.987,5.9,5.9,0,0,1,.363-1.695c.009-.029.018-.056.03-.084l.067-.169c.056-.166.136-.388.242-.665a9.285,9.285,0,0,1,.96-1.656,10.158,10.158,0,0,1,1.767-2.008,9.869,9.869,0,0,1,2.809-1.605,10.644,10.644,0,0,1,3.993-.729,10.248,10.248,0,0,1,7.594,3,9.694,9.694,0,0,1,2.954,6.99,9.051,9.051,0,0,1-.7,3.557,7.817,7.817,0,0,1-1.727,2.626,13.009,13.009,0,0,1-1.917,1.528,10.268,10.268,0,0,1-1.633.891c0,1.573-.022,5.026-.072,5.326a2.937,2.937,0,0,1-.54,1.212,2.689,2.689,0,0,1-1.585,1A8.567,8.567,0,0,1,1197.2,501.987Zm-2.095-2.916a1.65,1.65,0,0,0,.2.456.633.633,0,0,0,.345.188,5.919,5.919,0,0,0,1.55.157,6.677,6.677,0,0,0,1.576-.144c.309-.079.384-.173.391-.184a1.094,1.094,0,0,0,.167-.306c.03-.6.051-4.946.051-5.773a1.057,1.057,0,0,1,.742-1.009l.591-.185a8.548,8.548,0,0,0,1.267-.7,10.88,10.88,0,0,0,1.6-1.28,5.733,5.733,0,0,0,1.241-1.923,6.945,6.945,0,0,0,.528-2.731,7.55,7.55,0,0,0-2.345-5.506,8.1,8.1,0,0,0-6.088-2.374,8.559,8.559,0,0,0-3.2.576,6.91,6.91,0,0,0-3.611,2.832,7.75,7.75,0,0,0-.739,1.228c-.1.261-.174.464-.223.612-.007.021-.014.041-.022.061l-.062.156a5.355,5.355,0,0,0-.257,1.037c0,.062,0,.219.251.46a5.492,5.492,0,0,0,1.73.924,3.584,3.584,0,0,0,1.193.282c.4,0,.512-.131.556-.18a3.522,3.522,0,0,0,.606-1.162l.107-.428c.007-.026.014-.052.023-.077a2.925,2.925,0,0,1,1.273-1.479,4.26,4.26,0,0,1,2.379-.629,4.539,4.539,0,0,1,3.288,1.011,3.764,3.764,0,0,1,1.052,2.815,3.442,3.442,0,0,1-1.379,2.813,7.111,7.111,0,0,1-2.482,1.251,3.648,3.648,0,0,0-1.641,1.026,2.647,2.647,0,0,0-.667,1.95,1.952,1.952,0,0,1-.04.38C1195.052,494.207,1195.073,498.522,1195.1,499.071Zm5.969-5.8h0Zm-6.021-.118v.06C1195.052,493.193,1195.051,493.166,1195.051,493.148Zm-6.91-10.48h0Z" transform="translate(-1186.688 -475.639)"/><g transform="translate(6.713 30.607)"><path class="r" d="M1203.1,533.536a4.156,4.156,0,0,1,2.966.83,4.277,4.277,0,0,1,.711,2.926,9.5,9.5,0,0,1-.079,1.4,3.785,3.785,0,0,1-.4,1.108,1.8,1.8,0,0,1-1.128.87,7.134,7.134,0,0,1-2.116.258,4.4,4.4,0,0,1-3.005-.831,3.177,3.177,0,0,1-.672-2.293v-.632a11.98,11.98,0,0,1,.059-1.385,3.336,3.336,0,0,1,.375-1.088,1.878,1.878,0,0,1,1.127-.89A6.873,6.873,0,0,1,1203.1,533.536Z" transform="translate(-1199.386 -533.536)"/></g><g transform="translate(5.656 29.204)"><path class="g" d="M1202.121,540.392a5.321,5.321,0,0,1-3.719-1.108,4.106,4.106,0,0,1-1.016-3.074v-.632a12.838,12.838,0,0,1,.068-1.516,4.318,4.318,0,0,1,.485-1.441,2.9,2.9,0,0,1,1.725-1.405,7.8,7.8,0,0,1,2.5-.334,5.055,5.055,0,0,1,3.713,1.14c.7.7,1.022,1.864,1.022,3.674a10.511,10.511,0,0,1-.091,1.569,4.772,4.772,0,0,1-.5,1.427,2.841,2.841,0,0,1-1.748,1.393A8.055,8.055,0,0,1,1202.121,540.392Zm.039-7.4a5.9,5.9,0,0,0-1.814.22c-.407.14-.5.316-.529.374a2.336,2.336,0,0,0-.265.732,10.874,10.874,0,0,0-.051,1.255v.632c0,1.069.253,1.437.362,1.545a3.438,3.438,0,0,0,2.259.522,6.16,6.16,0,0,0,1.794-.208c.393-.124.478-.287.509-.348a2.787,2.787,0,0,0,.292-.791,8.45,8.45,0,0,0,.064-1.235c0-1.691-.335-2.111-.4-2.178C1204.184,533.322,1203.638,533,1202.16,533Z" transform="translate(-1197.386 -530.882)"/></g></g></g><g transform="translate(1167.993 450.196)"><g transform="translate(0)"><path class="g" d="M1288.685,527.849q1.237,0,2.5.087c.28.02.557.042.834.068.161.014.321.031.482.049.459.048.917.107,1.37.172.116.017.232.034.348.054.1.014.191.028.283.045.137.022.274.045.411.07.345.06.691.125,1.033.2l.512.11c.17.037.339.077.506.119q.63.149,1.244.323c.134.037.271.077.405.116q1.228.361,2.405.807c.11.04.22.082.33.127.506.2,1.007.405,1.5.629.11.048.223.1.333.153q1.122.518,2.177,1.113c.1.059.208.116.31.178s.2.116.3.176c.137.079.271.161.4.244.581.356,1.146.73,1.691,1.118.158.116.316.229.47.345.009.006.018.014.027.02.158.116.313.235.464.354s.324.255.483.385c.119.1.235.193.351.289.2.167.39.334.58.5.152.136.3.272.45.411s.294.274.437.416l.054.051c.125.124.25.249.372.373s.268.278.4.417a.33.33,0,0,1,.027.031c.134.142.262.283.39.428.265.294.521.6.768.9.125.153.247.306.366.462q.326.425.634.858c.048.071.1.141.145.212q.3.446.589.9c.089.145.176.289.262.436.075.122.146.246.214.371.048.085.1.172.143.257.208.382.407.77.589,1.16l0,0a19.793,19.793,0,0,1,1.888,10.024c-.948,12.282-13.292,21.554-28.112,21.554-.21,0-.423,0-.634-.006-1.978,2.309-6.117,6.157-11.759,6.157a14.323,14.323,0,0,1-6.835-1.849,7.893,7.893,0,0,0,1.077.077,5.04,5.04,0,0,0,4.529-2.46,9.409,9.409,0,0,0,1.241-4.164c-.289-.107-.578-.22-.861-.343s-.559-.237-.836-.362l.009.009c-.146-.062-.289-.128-.432-.2-.285-.133-.568-.272-.848-.411-.14-.071-.28-.142-.42-.215s-.274-.144-.411-.218c-.274-.147-.545-.3-.812-.453l-.4-.235c-.262-.159-.524-.32-.78-.484-.128-.085-.256-.167-.384-.252s-.253-.167-.378-.255c-.25-.17-.494-.345-.739-.523-.122-.091-.241-.179-.36-.269s-.238-.184-.358-.274-.235-.184-.351-.281c-.229-.187-.458-.376-.681-.569-.2-.17-.387-.34-.575-.512q-.411-.373-.8-.764c-.164-.161-.325-.326-.483-.49-.116-.122-.229-.246-.345-.371-.095-.1-.193-.212-.289-.32-.19-.215-.378-.433-.56-.654-.092-.11-.182-.221-.271-.334-.179-.221-.354-.447-.521-.677-.065-.085-.125-.17-.187-.255-.036-.048-.072-.1-.107-.147-.146-.2-.286-.413-.426-.62-.087-.133-.173-.263-.256-.4-.057-.088-.113-.176-.167-.264-.036-.059-.075-.122-.11-.181-.047-.082-.1-.164-.146-.249-.071-.119-.14-.241-.208-.363-.051-.088-.1-.178-.149-.266-.1-.192-.2-.385-.3-.578-.107-.212-.211-.425-.309-.64-.045-.094-.087-.187-.129-.28q-.294-.654-.539-1.325c-.03-.079-.059-.159-.086-.24-.024-.062-.045-.125-.066-.187-.033-.09-.062-.181-.092-.274-.057-.17-.11-.343-.161-.515-.044-.141-.086-.286-.122-.43-.1-.345-.181-.693-.256-1.041-.026-.122-.054-.244-.075-.365a.8.8,0,0,1-.021-.108c-.024-.11-.042-.22-.062-.328-.027-.155-.054-.314-.074-.47-.027-.172-.051-.345-.069-.518-.048-.359-.08-.719-.1-1.078-.009-.1-.015-.2-.018-.306-.006-.082-.009-.164-.009-.244s-.009-.167-.009-.249a18.767,18.767,0,0,1,.051-1.953c.006-.079.012-.155.021-.235,1.085-12.163,13.363-21.319,28.083-21.319m0-2.115a34,34,0,0,0-20.429,6.526,23.647,23.647,0,0,0-9.758,16.7c-.01.1-.018.19-.026.287a20.878,20.878,0,0,0-.056,2.144c0,.1,0,.2.009.294s.005.18.011.272c0,.117.011.235.021.353.024.4.061.8.111,1.175.02.191.046.382.075.573.024.174.053.351.084.525,0,.015,0,.03.008.044l.017.1c.012.062.023.124.036.186s.024.136.035.184c.024.129.052.258.08.387.086.4.178.779.277,1.132.041.16.087.325.142.5s.112.372.173.556c.034.106.068.209.105.313.022.066.045.132.069.2.032.095.066.187.1.28.178.488.379.981.591,1.45.044.1.09.2.14.306.107.235.221.467.338.7.11.216.216.423.328.631l.028.05.054.1c.031.057.062.113.095.169.064.114.137.243.213.37.033.057.066.114.1.17l.045.077.016.027.064.106.047.076c.067.111.131.21.194.309s.131.2.2.306l.07.107.023.035.069.1c.127.188.255.377.388.562.035.051.082.115.129.178l.046.063c.048.066.1.131.145.2.175.239.362.482.572.741.085.108.187.234.292.36.187.228.392.465.6.7.089.1.181.2.27.3l.037.041.019.02.114.124c.083.089.164.178.247.264.177.184.351.362.528.537.276.275.57.553.865.823.195.179.4.363.615.548.24.207.484.409.729.608.108.09.23.186.355.283l.027.022.025.019.126.1c.083.065.166.129.252.193s.19.143.3.222l.064.047c.272.2.531.385.8.566.139.1.281.191.419.282l.2.13.178.117.027.018c.271.174.549.345.826.513l.224.132.194.114.028.016c.284.162.57.324.86.479.15.081.3.159.441.234s.287.148.437.224c.31.154.609.3.91.44.153.073.322.15.494.223.029.013.059.024.088.035l.085.038a5.939,5.939,0,0,1-.692,1.724,2.951,2.951,0,0,1-2.734,1.464,5.823,5.823,0,0,1-.79-.057,2.115,2.115,0,0,0-1.288,3.958,16.5,16.5,0,0,0,7.837,2.1c5.9,0,10.291-3.569,12.7-6.153a33.909,33.909,0,0,0,20.232-6.6c5.739-4.373,9.177-10.375,9.681-16.9a21.777,21.777,0,0,0-2.083-11.089c-.01-.022-.021-.043-.032-.064-.178-.379-.379-.771-.61-1.2-.042-.078-.086-.157-.13-.235l-.032-.057c-.073-.132-.156-.278-.244-.422s-.184-.31-.279-.463c-.2-.328-.412-.646-.64-.981l-.083-.121-.056-.081-.032-.046c-.22-.309-.448-.618-.68-.92q-.2-.256-.407-.512c-.275-.342-.559-.675-.833-.979-.119-.134-.247-.275-.38-.418-.025-.029-.053-.06-.085-.094-.132-.139-.266-.278-.4-.418s-.269-.271-.4-.4l-.037-.036-.038-.036q-.237-.234-.484-.459c-.143-.134-.3-.279-.465-.425-.206-.183-.412-.362-.621-.539-.143-.118-.265-.22-.392-.323-.157-.13-.333-.27-.513-.409-.161-.127-.331-.257-.505-.385l-.032-.024-.306-.225-.163-.119-.027-.019c-.578-.411-1.187-.814-1.81-1.2-.145-.089-.289-.177-.435-.262-.1-.061-.205-.122-.309-.181-.084-.051-.169-.1-.254-.147l-.076-.043c-.747-.421-1.523-.818-2.317-1.186-.125-.06-.253-.118-.378-.173-.51-.232-1.04-.454-1.578-.662q-.189-.078-.378-.146c-.818-.31-1.674-.6-2.543-.853-.144-.042-.294-.086-.441-.126-.422-.119-.865-.234-1.3-.337-.186-.047-.374-.091-.562-.132l-.259-.056-.252-.054c-.349-.075-.71-.144-1.109-.213-.141-.026-.281-.05-.422-.073-.1-.018-.208-.034-.313-.05-.124-.021-.249-.039-.373-.057-.534-.077-1.008-.137-1.456-.184-.174-.018-.346-.036-.517-.051-.284-.026-.575-.05-.87-.071-.881-.061-1.77-.093-2.646-.093Z" transform="translate(-1258.409 -525.734)"/></g><g transform="translate(2.068 2.115)"><path class="u" d="M1318.073,545.278l0,0c-.181-.391-.381-.778-.59-1.16-.044-.085-.095-.173-.143-.258-.068-.125-.14-.25-.214-.371-.087-.147-.173-.291-.262-.436-.19-.306-.387-.605-.59-.9-.047-.071-.1-.141-.146-.212q-.308-.434-.634-.858c-.119-.155-.241-.309-.366-.461-.247-.306-.5-.609-.768-.9-.128-.144-.256-.286-.39-.428a.312.312,0,0,0-.027-.031c-.131-.139-.265-.278-.4-.417s-.247-.249-.372-.373l-.054-.051q-.214-.212-.437-.416c-.149-.139-.3-.274-.45-.411-.19-.17-.384-.337-.58-.5-.116-.1-.232-.192-.352-.289-.157-.13-.318-.257-.482-.385s-.307-.238-.464-.354l-.027-.02c-.155-.116-.312-.229-.47-.345-.545-.388-1.11-.762-1.691-1.118-.134-.083-.268-.165-.4-.244-.1-.059-.2-.119-.3-.176s-.205-.119-.31-.178q-1.053-.595-2.176-1.113c-.11-.054-.223-.1-.334-.153q-.737-.335-1.5-.629c-.11-.045-.22-.088-.331-.127-.783-.3-1.587-.566-2.405-.807-.134-.04-.271-.079-.4-.116-.411-.116-.825-.224-1.245-.323-.167-.042-.336-.082-.506-.119l-.512-.111c-.342-.073-.688-.138-1.033-.2-.137-.025-.274-.048-.411-.07-.092-.018-.188-.031-.283-.046-.116-.02-.232-.037-.349-.054-.452-.065-.911-.124-1.369-.172-.161-.017-.321-.034-.482-.049-.277-.025-.554-.048-.833-.068-15.8-1.1-29.433,8.388-30.579,21.232-.009.079-.015.155-.021.235a18.561,18.561,0,0,0-.051,1.953c0,.082,0,.167.009.249s0,.162.009.244c0,.1.009.2.018.306q.03.539.1,1.078c.018.173.042.346.069.518.021.156.048.314.074.47.021.108.039.218.063.328a.64.64,0,0,0,.02.108c.021.122.048.243.075.365.074.348.158.7.256,1.041.036.144.078.289.122.43.051.173.1.346.161.515.03.094.06.184.092.274.021.062.042.125.066.187.027.082.056.161.086.241.164.447.342.889.539,1.325.042.094.083.187.128.28.1.215.2.428.31.64.1.193.2.385.3.578.05.088.1.178.148.266.069.122.137.244.208.363.048.085.1.167.146.249l.111.181c.053.088.11.176.167.263.083.133.169.263.256.4.14.207.28.416.426.62.035.051.071.1.107.147.063.085.122.17.188.255.167.229.343.456.521.677.089.113.178.224.271.334.181.221.369.439.56.654.1.107.193.215.289.32.116.125.229.249.345.371.157.164.319.328.482.49q.393.391.8.764c.188.172.378.343.575.512.223.192.452.382.681.569.116.1.232.187.352.281s.235.184.357.274.238.178.361.269c.243.178.488.354.738.523.125.088.253.173.378.255s.256.167.384.252c.256.164.518.326.78.484l.4.235c.268.153.539.306.813.453.137.073.274.147.411.218s.28.144.42.215c.28.138.563.278.848.411.143.068.286.133.432.195l-.009-.008c.277.125.557.246.836.362s.572.235.861.343a9.41,9.41,0,0,1-1.242,4.164,5.246,5.246,0,0,1-5.605,2.384c9.122,4.9,15.885-1.146,18.594-4.309,15.1.269,27.784-9.093,28.746-21.548A19.783,19.783,0,0,0,1318.073,545.278Z" transform="translate(-1262.32 -529.734)"/><g transform="translate(10.301 45.715)"><path class="q" d="M1289.774,616.73c.283.122.572.235.861.343a9.418,9.418,0,0,1-1.243,4.164,4.942,4.942,0,0,1-3.507,2.378,15.683,15.683,0,0,1-4.08-1.543,5.244,5.244,0,0,0,5.605-2.383,8.857,8.857,0,0,0,1.164-3.48c.121.057.246.114.371.167l-.009-.008C1289.214,616.492,1289.494,616.614,1289.774,616.73Z" transform="translate(-1281.805 -616.209)"/></g><g transform="translate(0 0.153)"><path class="q" d="M1311.806,537.508c-.535-.382-1.093-.748-1.661-1.1-.133-.082-.269-.164-.405-.244-.1-.059-.2-.119-.3-.176s-.207-.119-.311-.178q-1.053-.595-2.174-1.113c-.11-.053-.224-.1-.334-.153q-.739-.335-1.5-.628c-.11-.046-.221-.088-.332-.127q-1.172-.447-2.406-.807c-.133-.04-.269-.079-.405-.116-.411-.116-.824-.224-1.243-.323-.167-.042-.336-.082-.506-.119l-.513-.11c-.343-.074-.688-.139-1.033-.2-.136-.025-.272-.048-.411-.071-.09-.017-.187-.031-.283-.046-.116-.02-.232-.036-.348-.054-.453-.065-.911-.124-1.367-.172-.161-.017-.323-.034-.484-.048-.278-.025-.552-.048-.832-.068-15.805-1.1-29.433,8.388-30.58,21.232-.009.079-.017.156-.023.235a18.9,18.9,0,0,0-.051,1.953c0,.083.005.167.011.25s0,.161.008.243c0,.1.009.2.017.306q.03.539.1,1.078c.017.172.043.345.068.518.02.156.048.314.073.47.023.107.04.218.063.328a.675.675,0,0,0,.023.107c.02.122.048.244.073.365q.11.523.257,1.042c.034.144.077.289.122.43.051.172.1.345.158.515.031.094.06.184.094.275.02.062.042.124.065.187.029.082.057.161.088.241.161.447.343.889.538,1.325.043.094.083.187.128.28.1.215.2.428.311.64.1.192.2.385.3.577.051.088.1.178.148.266.07.122.138.244.209.363.048.085.1.167.144.249.037.06.077.122.111.181.053.088.111.175.167.263.084.133.169.263.257.4.139.206.28.416.424.62.037.051.071.1.108.147.062.085.121.17.187.255.167.229.343.456.521.676.09.114.178.224.272.334q.271.331.56.654c.094.108.193.215.289.32.116.125.229.249.345.371.156.164.317.328.481.489.263.261.529.516.8.764.187.173.377.343.575.512l.1.085c-.11-.079-.224-.159-.334-.24s-.24-.179-.359-.269-.237-.184-.356-.274-.235-.184-.351-.28c-.229-.187-.458-.377-.682-.569-.195-.17-.388-.339-.574-.512-.275-.249-.541-.5-.8-.764-.164-.161-.325-.326-.481-.49-.116-.122-.229-.246-.345-.371-.1-.1-.2-.212-.289-.32q-.289-.323-.56-.654c-.094-.11-.181-.22-.272-.334-.178-.22-.354-.447-.521-.677-.065-.085-.125-.17-.187-.254-.037-.048-.071-.1-.107-.147-.144-.2-.286-.413-.425-.62-.088-.133-.173-.263-.258-.4-.057-.088-.113-.176-.167-.263-.034-.06-.073-.122-.107-.181-.048-.082-.1-.164-.147-.249-.07-.119-.138-.241-.209-.363-.048-.088-.1-.178-.147-.266-.1-.192-.2-.385-.3-.577-.107-.212-.213-.425-.312-.64-.045-.093-.085-.187-.127-.28q-.293-.654-.538-1.325c-.031-.079-.06-.159-.087-.24-.023-.062-.046-.125-.066-.187l-.093-.274c-.054-.17-.108-.343-.159-.515-.045-.141-.088-.285-.121-.43-.1-.346-.184-.694-.258-1.042-.025-.122-.053-.244-.073-.365-.009-.036-.017-.071-.022-.107-.023-.11-.04-.221-.063-.329-.025-.155-.053-.314-.073-.469-.025-.173-.051-.346-.068-.518-.048-.36-.079-.72-.1-1.079q-.013-.152-.017-.306c-.006-.082-.009-.164-.009-.243s-.009-.167-.009-.25a18.691,18.691,0,0,1,.048-1.953c.008-.079.014-.156.023-.235,1.146-12.844,14.774-22.336,30.579-21.232.28.02.555.042.832.068.161.014.323.031.484.048.459.048.915.107,1.367.172.116.017.232.034.348.054.1.014.193.029.284.046.138.023.274.045.41.071.345.059.691.124,1.033.2l.512.111c.17.037.34.077.507.119.419.1.832.207,1.246.323.133.036.269.076.4.116.818.241,1.622.51,2.4.807.11.04.221.083.331.127q.761.293,1.5.629c.11.048.224.1.334.153q1.121.518,2.174,1.113c.1.059.209.116.312.178s.2.116.3.176c.135.079.272.161.4.244.581.356,1.146.73,1.69,1.118.159.116.317.229.47.345a.25.25,0,0,1,.028.02c.159.116.312.235.465.354s.325.255.481.385c.119.1.235.192.351.289C1311.7,537.417,1311.755,537.462,1311.806,537.508Z" transform="translate(-1262.32 -530.023)"/></g></g><g transform="translate(21.607 7.859)"><g transform="translate(1.057 1.365)"><path class="r" d="M1309.439,543.183a8.171,8.171,0,0,1,6.084,2.392,7.677,7.677,0,0,1,2.356,5.556,7.082,7.082,0,0,1-.545,2.8,5.98,5.98,0,0,1-1.319,2.022,10.51,10.51,0,0,1-1.565,1.249,8.257,8.257,0,0,1-1.318.721l-.562.175c0,.4-.018,5.057-.053,5.268a1.688,1.688,0,0,1-.317.686,1.489,1.489,0,0,1-.879.528,6.8,6.8,0,0,1-1.636.158,6.112,6.112,0,0,1-1.635-.176,1.374,1.374,0,0,1-.862-.6,2.234,2.234,0,0,1-.3-.757c-.035-.222-.053-4.921-.053-5.39a.707.707,0,0,1,.018-.123.806.806,0,0,0,.018-.158,3.27,3.27,0,0,1,.861-2.392,4.2,4.2,0,0,1,1.882-1.16,5.373,5.373,0,0,0,1.881-.95,2.116,2.116,0,0,0,.862-1.758,2.44,2.44,0,0,0-.651-1.829,3.22,3.22,0,0,0-2.268-.633,2.87,2.87,0,0,0-1.6.4,1.746,1.746,0,0,0-.756.827l-.106.422a4.11,4.11,0,0,1-.739,1.389,1.517,1.517,0,0,1-1.2.475,4.172,4.172,0,0,1-1.406-.316,5.885,5.885,0,0,1-1.847-1.02,1.49,1.49,0,0,1-.51-1.091,5.3,5.3,0,0,1,.281-1.231l.071-.176q.07-.212.211-.58a7.831,7.831,0,0,1,.756-1.284,8.044,8.044,0,0,1,1.406-1.6,7.957,7.957,0,0,1,2.233-1.266A8.5,8.5,0,0,1,1309.439,543.183Z" transform="translate(-1301.28 -543.183)"/></g><path class="g" d="M1308.743,564.266a7.072,7.072,0,0,1-1.928-.217,2.4,2.4,0,0,1-1.483-1.082,3.225,3.225,0,0,1-.429-1.121c-.059-.374-.066-5.506-.066-5.557a1.745,1.745,0,0,1,.039-.333,4.243,4.243,0,0,1,1.16-3.08,5.26,5.26,0,0,1,2.356-1.44,4.341,4.341,0,0,0,1.513-.765,1.063,1.063,0,0,0,.453-.923,1.334,1.334,0,0,0-.331-1.072c-.08-.078-.428-.333-1.53-.333a1.869,1.869,0,0,0-1.02.231,1.27,1.27,0,0,0-.331.279l-.086.343c-.007.03-.016.059-.026.088a5.083,5.083,0,0,1-.948,1.747,2.55,2.55,0,0,1-1.986.829,5.137,5.137,0,0,1-1.778-.384,6.7,6.7,0,0,1-2.21-1.25,2.53,2.53,0,0,1-.832-1.85,5.348,5.348,0,0,1,.328-1.542c.009-.028.019-.056.03-.083l.059-.146q.075-.223.217-.593a7.687,7.687,0,0,1,.867-1.5,9.115,9.115,0,0,1,1.591-1.808,8.859,8.859,0,0,1,2.531-1.448,9.58,9.58,0,0,1,3.595-.657,9.225,9.225,0,0,1,6.836,2.707,8.733,8.733,0,0,1,2.661,6.3,8.162,8.162,0,0,1-.629,3.209,7.073,7.073,0,0,1-1.562,2.374,11.635,11.635,0,0,1-1.723,1.372,9.6,9.6,0,0,1-1.4.772c0,1.432-.02,4.4-.066,4.676a2.729,2.729,0,0,1-.5,1.127,2.512,2.512,0,0,1-1.476.937A7.753,7.753,0,0,1,1308.743,564.266ZM1307,561.54a1.41,1.41,0,0,0,.163.362.5.5,0,0,0,.238.113,5.015,5.015,0,0,0,1.346.136,5.686,5.686,0,0,0,1.372-.125.645.645,0,0,0,.285-.122.945.945,0,0,0,.125-.222c.026-.582.045-4.413.045-5.114a1.057,1.057,0,0,1,.742-1.009l.52-.162a7.459,7.459,0,0,0,1.1-.614,9.575,9.575,0,0,0,1.408-1.124,5.007,5.007,0,0,0,1.076-1.672,6.057,6.057,0,0,0,.46-2.382,6.6,6.6,0,0,0-2.052-4.814,7.092,7.092,0,0,0-5.33-2.077,7.482,7.482,0,0,0-2.806.5,6.016,6.016,0,0,0-3.157,2.475,6.694,6.694,0,0,0-.645,1.069c-.088.228-.152.406-.2.536-.007.021-.015.042-.023.063l-.054.134a4.878,4.878,0,0,0-.222.889c0,.034,0,.139.187.319a4.781,4.781,0,0,0,1.5.8,3.079,3.079,0,0,0,1.018.243c.3,0,.377-.088.406-.12a3,3,0,0,0,.514-.99l.094-.375c.006-.026.014-.051.021-.076a2.72,2.72,0,0,1,1.179-1.377,3.905,3.905,0,0,1,2.181-.578,4.139,4.139,0,0,1,3,.932,3.456,3.456,0,0,1,.971,2.587,3.174,3.174,0,0,1-1.272,2.594,6.449,6.449,0,0,1-2.246,1.133,3.136,3.136,0,0,0-1.408.881,2.245,2.245,0,0,0-.56,1.651,1.854,1.854,0,0,1-.035.35C1306.952,557.255,1306.97,561.015,1307,561.54Zm5.193-5.146h0Zm-5.237-.105v0Zm-6.262-9.32h0Z" transform="translate(-1299.28 -540.601)"/><g transform="translate(6.086 27.336)"><path class="r" d="M1314.1,592.309a3.7,3.7,0,0,1,2.638.738,3.8,3.8,0,0,1,.633,2.6,8.508,8.508,0,0,1-.07,1.249,3.372,3.372,0,0,1-.352.985,1.6,1.6,0,0,1-1,.773,6.342,6.342,0,0,1-1.882.229,3.915,3.915,0,0,1-2.673-.739,2.826,2.826,0,0,1-.6-2.04v-.562a10.646,10.646,0,0,1,.053-1.231,2.97,2.97,0,0,1,.334-.967,1.669,1.669,0,0,1,1-.791A6.107,6.107,0,0,1,1314.1,592.309Z" transform="translate(-1310.793 -592.309)"/></g><g transform="translate(5.029 25.97)"><path class="g" d="M1313.121,598.418a4.838,4.838,0,0,1-3.386-1.016,3.76,3.76,0,0,1-.941-2.819v-.563a11.474,11.474,0,0,1,.061-1.364,3.951,3.951,0,0,1,.444-1.32,2.69,2.69,0,0,1,1.6-1.306,7.04,7.04,0,0,1,2.258-.3,3.676,3.676,0,0,1,4.327,4.4,9.307,9.307,0,0,1-.083,1.415,4.358,4.358,0,0,1-.457,1.3,2.642,2.642,0,0,1-1.622,1.3A7.313,7.313,0,0,1,1313.121,598.418Zm.036-6.577a5.023,5.023,0,0,0-1.576.19c-.317.109-.382.234-.4.276a1.892,1.892,0,0,0-.224.612,9.246,9.246,0,0,0-.045,1.1v.563c0,.932.22,1.223.288,1.291a3.172,3.172,0,0,0,1.925.43,5.388,5.388,0,0,0,1.562-.179c.3-.1.363-.213.383-.252a2.285,2.285,0,0,0,.248-.668,7.353,7.353,0,0,0,.056-1.08c0-1.514-.31-1.841-.323-1.854C1314.917,592.141,1314.475,591.841,1313.156,591.841Z" transform="translate(-1308.793 -589.726)"/></g></g></g><g transform="translate(1124.418 535.953)"><g transform="translate(14.259 31.758)"><path class="v" d="M1217.873,745.032a1.242,1.242,0,0,0,.933-.42l20.715-23.428a1.246,1.246,0,0,0-.108-1.757l-4.028-3.561a1.245,1.245,0,0,0-1.757.108L1212.913,739.4a1.245,1.245,0,0,0,.108,1.757l4.028,3.562a1.242,1.242,0,0,0,.824.312" transform="translate(-1212.6 -715.553)"/></g><g transform="translate(13.015 30.513)"><path class="g" d="M1233.45,715.688l-20.714,23.429,4.028,3.561,20.715-23.429-4.028-3.561m0-2.489a2.481,2.481,0,0,1,1.648.625l4.028,3.561a2.49,2.49,0,0,1,.216,3.514l-20.714,23.428a2.49,2.49,0,0,1-1.712.836c-.051,0-.1.005-.153.005a2.493,2.493,0,0,1-1.649-.625l-4.028-3.562a2.488,2.488,0,0,1-.216-3.513l20.714-23.428a2.484,2.484,0,0,1,1.866-.84" transform="translate(-1210.246 -713.199)"/></g><g transform="translate(1.247 47.777)"><path class="h" d="M1193.587,773.96a5.609,5.609,0,0,0,4.2-1.893l14.938-16.895a5.605,5.605,0,1,0-8.4-7.426l-14.938,16.895a5.605,5.605,0,0,0,4.2,9.318" transform="translate(-1187.987 -745.855)"/></g><g transform="translate(0 46.533)"><path class="g" d="M1207.416,745.99a4.348,4.348,0,0,0-3.268,1.472l-14.938,16.9a4.361,4.361,0,0,0,6.534,5.777l14.938-16.895a4.361,4.361,0,0,0-3.266-7.249m0-2.489h0a6.85,6.85,0,0,1,5.13,11.387l-14.938,16.9a6.85,6.85,0,0,1-10.263-9.074l14.938-16.895a6.853,6.853,0,0,1,5.133-2.313" transform="translate(-1185.628 -743.501)"/></g><g class="w" transform="translate(33.345 9.373)"><g class="x"><g transform="translate(1.238 1.245)"><path class="v" d="M1264.447,702.345a13.386,13.386,0,1,0-11.213-6.058,13.348,13.348,0,0,0,11.213,6.058" transform="translate(-1251.045 -675.565)"/></g><g transform="translate(0.002 0.001)"><path class="g" d="M1263.328,675.7a12.144,12.144,0,1,0,10.172,5.5,12.083,12.083,0,0,0-10.172-5.5m0-2.489h0a14.639,14.639,0,1,1-8,2.389,14.6,14.6,0,0,1,8-2.389" transform="translate(-1248.707 -673.211)"/></g></g></g><g transform="translate(25.209 1.246)"><path class="y" d="M1256.1,703.363a22.765,22.765,0,1,0-19.067-10.3,22.68,22.68,0,0,0,19.067,10.3Zm-.032-36.5a13.738,13.738,0,1,1-7.5,2.243,13.7,13.7,0,0,1,7.5-2.243" transform="translate(-1233.313 -657.836)"/></g><g transform="translate(23.964 0)"><path class="g" d="M1254.947,657.969a21.52,21.52,0,1,0,18.028,9.74,21.408,21.408,0,0,0-18.028-9.74m.034,36.5a14.98,14.98,0,1,1,8.191-2.447,14.96,14.96,0,0,1-8.191,2.447m-.034-38.985a24.008,24.008,0,1,1-13.118,3.918,23.954,23.954,0,0,1,13.118-3.918m.034,36.5a12.486,12.486,0,1,0-10.461-5.65,12.444,12.444,0,0,0,10.461,5.65" transform="translate(-1230.958 -655.48)"/></g><g transform="translate(50.207 15.949)"><path class="z" d="M1286.548,695.36a1.243,1.243,0,0,1-.165-.01,1.321,1.321,0,0,1-1.148-1.47c.053-.464.391-4.5-3.668-5.637a1.321,1.321,0,1,1,.711-2.545,7.72,7.72,0,0,1,5.58,8.5A1.321,1.321,0,0,1,1286.548,695.36Z" transform="translate(-1280.6 -685.649)"/></g><g transform="translate(45.337 14.813)"><path class="z" d="M1272.13,683.769a1.642,1.642,0,1,0,2.273.475,1.642,1.642,0,0,0-2.273-.475" transform="translate(-1271.387 -683.501)"/></g></g></g></svg>