<svg xmlns="http://www.w3.org/2000/svg" width="31.202" height="31.161" viewBox="0 0 31.202 31.161"><defs><style>.a{fill:#d6c6f4;opacity:0.8;}</style></defs><path class="a" d="M142.306,56.705a13.942,13.942,0,1,0-5.125,12.409l.557-.447,6.534,6.539a.831.831,0,0,0,.592.256.793.793,0,0,0,.591-.237.834.834,0,0,0,.013-1.178l0,0-6.578-6.532.446-.559A13.844,13.844,0,0,0,142.306,56.705Zm-5.144,10.228a12.183,12.183,0,0,1-8.672,3.6h-.011a12.273,12.273,0,0,1-.011-24.546h.011a12.274,12.274,0,0,1,8.683,20.948Z" transform="translate(-114.502 -44.301)"/></svg>