<svg xmlns="http://www.w3.org/2000/svg" width="38.015" height="38.015" viewBox="0 0 38.015 38.015"><defs><style>.a{fill:#fff;}</style></defs><path class="a" d="M35.535,14.875H32.442a14,14,0,0,0-1.012-2.444l2.186-2.185a2.485,2.485,0,0,0,0-3.508L31.277,4.4a2.543,2.543,0,0,0-3.507,0L25.584,6.584A14,14,0,0,0,23.14,5.573V2.479A2.483,2.483,0,0,0,20.66,0H17.354a2.483,2.483,0,0,0-2.479,2.479V5.573a14.075,14.075,0,0,0-2.444,1.012L10.244,4.4a2.484,2.484,0,0,0-3.507,0L4.4,6.738a2.484,2.484,0,0,0,0,3.507l2.185,2.186a13.971,13.971,0,0,0-1.011,2.444H2.479A2.483,2.483,0,0,0,0,17.355v3.306A2.482,2.482,0,0,0,2.479,23.14H5.573a14.075,14.075,0,0,0,1.012,2.444L4.4,27.77a2.484,2.484,0,0,0,0,3.507l2.339,2.339a2.484,2.484,0,0,0,3.507,0l2.186-2.185a13.97,13.97,0,0,0,2.444,1.011v3.093a2.483,2.483,0,0,0,2.479,2.479h3.306a2.482,2.482,0,0,0,2.478-2.479V32.442a14.054,14.054,0,0,0,2.445-1.012l2.185,2.187a2.544,2.544,0,0,0,3.507,0l2.339-2.339a2.484,2.484,0,0,0,0-3.507L31.43,25.584a14,14,0,0,0,1.011-2.444h3.094a2.483,2.483,0,0,0,2.479-2.479V17.354A2.483,2.483,0,0,0,35.535,14.875Zm.826,5.786a.827.827,0,0,1-.826.826H31.816a.826.826,0,0,0-.8.62,12.425,12.425,0,0,1-1.326,3.2.827.827,0,0,0,.128,1l2.628,2.629a.829.829,0,0,1,0,1.17l-2.338,2.339a.852.852,0,0,1-1.171,0L26.31,29.82a.829.829,0,0,0-1.006-.127,12.377,12.377,0,0,1-3.2,1.325.824.824,0,0,0-.619.8v3.719a.827.827,0,0,1-.826.826H17.354a.828.828,0,0,1-.826-.826V31.816a.826.826,0,0,0-.62-.8,12.39,12.39,0,0,1-3.2-1.325.829.829,0,0,0-1,.127L9.075,32.447a.828.828,0,0,1-1.17,0L5.566,30.108a.827.827,0,0,1,0-1.17L8.195,26.31a.826.826,0,0,0,.127-1A12.409,12.409,0,0,1,7,22.106a.824.824,0,0,0-.8-.62H2.479a.827.827,0,0,1-.826-.826V17.354a.827.827,0,0,1,.826-.826H6.2a.826.826,0,0,0,.8-.62,12.39,12.39,0,0,1,1.325-3.2.826.826,0,0,0-.127-1L5.567,9.076a.828.828,0,0,1,0-1.17L7.907,5.567a.827.827,0,0,1,1.17,0L11.7,8.2a.825.825,0,0,0,1,.127A12.409,12.409,0,0,1,15.908,7a.826.826,0,0,0,.62-.8V2.479a.827.827,0,0,1,.826-.826H20.66a.827.827,0,0,1,.826.826V6.2a.826.826,0,0,0,.62.8,12.376,12.376,0,0,1,3.2,1.325.826.826,0,0,0,1-.127l2.628-2.628a.848.848,0,0,1,1.17,0l2.339,2.339a.829.829,0,0,1,0,1.17L29.819,11.7a.828.828,0,0,0-.127,1,12.412,12.412,0,0,1,1.326,3.2.824.824,0,0,0,.8.62h3.719a.827.827,0,0,1,.826.826Z"/><path class="a" d="M20.2,12.562A7.642,7.642,0,1,0,27.846,20.2,7.652,7.652,0,0,0,20.2,12.562Zm0,13.586A5.944,5.944,0,1,1,26.148,20.2,5.95,5.95,0,0,1,20.2,26.148Z" transform="translate(-1.197 -1.197)"/></svg>