<svg xmlns="http://www.w3.org/2000/svg" width="58" height="58" viewBox="0 0 58 58"><defs><style>.a,.d{fill:none;}.a{stroke:#fff;opacity:0.5;}.b{fill:#fff;}.c{stroke:none;}</style></defs><g transform="translate(-233 -562)"><g class="a" transform="translate(233 562)"><circle class="c" cx="29" cy="29" r="29"/><circle class="d" cx="29" cy="29" r="28.5"/></g><path class="b" d="M21.979,485.469,11.747,475.1v6.792a12.25,12.25,0,0,0-8.111,3.666A12.576,12.576,0,0,0,0,494.452v2.629l1.248-2.3a11.069,11.069,0,0,1,9.726-5.829q.386,0,.773.028v6.863Zm-11,2.13a12.354,12.354,0,0,0-9.355,4.3,11.132,11.132,0,0,1,10.793-8.677h.665v-4.869l7.022,7.115-7.022,7.114v-4.816l-.583-.073A12.275,12.275,0,0,0,10.974,487.6Z" transform="translate(251 104.898)"/></g></svg>