<svg xmlns="http://www.w3.org/2000/svg" width="39" height="40" viewBox="0 0 39 40"><defs><style>.a{fill:#0c0022;opacity:0.998;}.b{fill:#a89abf;}.c,.d{stroke:none;}.d{fill:rgba(168,154,191,0.4);}</style></defs><g transform="translate(-0.326)"><g class="a" transform="translate(0.326 0)"><path class="c" d="M19.5,0A19.755,19.755,0,0,1,39,20,19.755,19.755,0,0,1,19.5,40,19.755,19.755,0,0,1,0,20,19.755,19.755,0,0,1,19.5,0Z"/><path class="d" d="M 19.5 1 C 14.56327056884766 1 9.920669555664063 2.973148345947266 6.427421569824219 6.555961608886719 C 4.726039886474609 8.300960540771484 3.390159606933594 10.3332405090332 2.456878662109375 12.59634017944336 C 1.490169525146484 14.94051933288574 1 17.43147087097168 1 20 C 1 22.56852912902832 1.490169525146484 25.05947875976563 2.456878662109375 27.40365982055664 C 3.390159606933594 29.6667594909668 4.726039886474609 31.69903945922852 6.427421569824219 33.44403839111328 C 9.920669555664063 37.02685165405273 14.56327056884766 39 19.5 39 C 24.43672943115234 39 29.07933044433594 37.02685165405273 32.57257843017578 33.44403839111328 C 34.27396011352539 31.69903945922852 35.60984039306641 29.6667594909668 36.54312133789063 27.40365982055664 C 37.50983047485352 25.05947875976563 38 22.56852912902832 38 20 C 38 17.43147087097168 37.50983047485352 14.94051933288574 36.54312133789063 12.59634017944336 C 35.60984039306641 10.3332405090332 34.27396011352539 8.300960540771484 32.57257843017578 6.555961608886719 C 29.07933044433594 2.973148345947266 24.43672943115234 1 19.5 1 M 19.5 0 C 30.26955032348633 0 39 8.954299926757813 39 20 C 39 31.04570007324219 30.26955032348633 40 19.5 40 C 8.730449676513672 40 0 31.04570007324219 0 20 C 0 8.954299926757813 8.730449676513672 0 19.5 0 Z"/></g><path class="b" d="M9.209,0A9.245,9.245,0,0,0,0,9.209a9.148,9.148,0,0,0,1.3,4.716L0,18.419l4.493-1.3a9.148,9.148,0,0,0,4.716,1.3A9.209,9.209,0,1,0,9.209,0Zm5.758,13.1-.428.428c-.606.606-2,.558-2.9.385A10.526,10.526,0,0,1,4.521,7.058a3.783,3.783,0,0,1,.33-3.179l.428-.428a.607.607,0,0,1,.857,0L7.851,5.165a.606.606,0,0,1,0,.856l-.428.429a1.214,1.214,0,0,0,0,1.714l2.831,2.793a1.211,1.211,0,0,0,1.714,0l.428-.428a.633.633,0,0,1,.857,0l1.714,1.714a.606.606,0,0,1,0,.857Zm0,0" transform="translate(10.326 11)"/></g></svg>