<svg xmlns="http://www.w3.org/2000/svg" width="39" height="40" viewBox="0 0 39 40"><defs><style>.a{fill:#0c0022;opacity:0.998;}.b{fill:#a89abf;}.c,.d{stroke:none;}.d{fill:rgba(168,154,191,0.4);}</style></defs><g transform="translate(-0.326)"><g class="a" transform="translate(0.326 0)"><path class="c" d="M19.5,0A19.755,19.755,0,0,1,39,20,19.755,19.755,0,0,1,19.5,40,19.755,19.755,0,0,1,0,20,19.755,19.755,0,0,1,19.5,0Z"/><path class="d" d="M 19.5 1 C 14.56327056884766 1 9.920669555664063 2.973148345947266 6.427421569824219 6.555961608886719 C 4.726039886474609 8.300960540771484 3.390159606933594 10.3332405090332 2.456878662109375 12.59634017944336 C 1.490169525146484 14.94051933288574 1 17.43147087097168 1 20 C 1 22.56852912902832 1.490169525146484 25.05947875976563 2.456878662109375 27.40365982055664 C 3.390159606933594 29.6667594909668 4.726039886474609 31.69903945922852 6.427421569824219 33.44403839111328 C 9.920669555664063 37.02685165405273 14.56327056884766 39 19.5 39 C 24.43672943115234 39 29.07933044433594 37.02685165405273 32.57257843017578 33.44403839111328 C 34.27396011352539 31.69903945922852 35.60984039306641 29.6667594909668 36.54312133789063 27.40365982055664 C 37.50983047485352 25.05947875976563 38 22.56852912902832 38 20 C 38 17.43147087097168 37.50983047485352 14.94051933288574 36.54312133789063 12.59634017944336 C 35.60984039306641 10.3332405090332 34.27396011352539 8.300960540771484 32.57257843017578 6.555961608886719 C 29.07933044433594 2.973148345947266 24.43672943115234 1 19.5 1 M 19.5 0 C 30.26955032348633 0 39 8.954299926757813 39 20 C 39 31.04570007324219 30.26955032348633 40 19.5 40 C 8.730449676513672 40 0 31.04570007324219 0 20 C 0 8.954299926757813 8.730449676513672 0 19.5 0 Z"/></g><g transform="translate(12.469 11.142)"><path class="b" d="M2471.135,227.59a.348.348,0,0,0-.3.123.674.674,0,0,0-.091.4v.451h.779v-.451a.658.658,0,0,0-.094-.4A.334.334,0,0,0,2471.135,227.59Z" transform="translate(-2458.623 -214.832)"/><path class="b" d="M2467.982,227.573a.419.419,0,0,0-.187.043.651.651,0,0,0-.183.136v2.785a.775.775,0,0,0,.211.158.486.486,0,0,0,.213.048.278.278,0,0,0,.236-.1.492.492,0,0,0,.077-.308v-2.308a.541.541,0,0,0-.093-.343A.328.328,0,0,0,2467.982,227.573Z" transform="translate(-2458.508 -214.831)"/><path class="b" d="M2472.53,223.937c-.725-.721-6.821-.73-6.821-.73s-6.1.009-6.822.729-.728,4.287-.728,4.307,0,3.585.728,4.308,6.822.736,6.822.736,6.1-.015,6.821-.736.736-4.308.736-4.308C2473.265,228.224,2473.256,224.66,2472.53,223.937Zm-9.72,2.1h-1.027v5.178h-.992v-5.178h-1.028v-.88h3.046v.88Zm2.9,5.177h-.88v-.491a1.877,1.877,0,0,1-.509.414,1.062,1.062,0,0,1-.511.142.544.544,0,0,1-.46-.2.98.98,0,0,1-.154-.6v-3.737h.88v3.428a.389.389,0,0,0,.054.231.217.217,0,0,0,.181.071.483.483,0,0,0,.246-.1,1.213,1.213,0,0,0,.273-.239v-3.4h.88Zm3.2-.923a1.125,1.125,0,0,1-.206.728.729.729,0,0,1-.6.252,1.022,1.022,0,0,1-.461-.1,1.149,1.149,0,0,1-.376-.3v.343h-.89v-6.058h.89v1.951a1.329,1.329,0,0,1,.377-.31.866.866,0,0,1,.407-.107.759.759,0,0,1,.638.285,1.346,1.346,0,0,1,.22.836Zm3.056-1.2h-1.685v.84a.988.988,0,0,0,.086.49.326.326,0,0,0,.3.135.361.361,0,0,0,.306-.115.956.956,0,0,0,.089-.51v-.2h.906v.23a1.453,1.453,0,0,1-.332,1.037,1.3,1.3,0,0,1-.988.346,1.2,1.2,0,0,1-.932-.368,1.433,1.433,0,0,1-.342-1.014V227.95a1.27,1.27,0,0,1,.374-.947,1.318,1.318,0,0,1,.965-.366,1.229,1.229,0,0,1,.93.339,1.355,1.355,0,0,1,.324.974v1.14Z" transform="translate(-2458.159 -214.66)"/><path class="b" d="M2471.038,221.055h-.992v-.544a2.083,2.083,0,0,1-.571.457,1.221,1.221,0,0,1-.574.157.616.616,0,0,1-.518-.22,1.044,1.044,0,0,1-.176-.66v-4.115h.99v3.775a.409.409,0,0,0,.064.253.24.24,0,0,0,.2.079.568.568,0,0,0,.277-.1,1.34,1.34,0,0,0,.305-.265v-3.738h.992v4.924Z" transform="translate(-2458.53 -214.382)"/><path class="b" d="M2466.87,216.36a1.445,1.445,0,0,0-1.01-.359,1.608,1.608,0,0,0-1.076.339,1.128,1.128,0,0,0-.4.912V219.8a1.317,1.317,0,0,0,.391,1,1.453,1.453,0,0,0,1.042.371,1.5,1.5,0,0,0,1.064-.359,1.292,1.292,0,0,0,.384-.991V217.28A1.192,1.192,0,0,0,2466.87,216.36Zm-.618,3.538a.413.413,0,0,1-.119.311.444.444,0,0,1-.32.113.4.4,0,0,1-.3-.111.439.439,0,0,1-.107-.313v-2.682a.333.333,0,0,1,.114-.262.434.434,0,0,1,.3-.1.488.488,0,0,1,.317.1.323.323,0,0,1,.121.262Z" transform="translate(-2458.39 -214.377)"/><path class="b" d="M2461.536,214.31h-1.125l1.328,4.029v2.644h1.118v-2.769l1.3-3.9h-1.135l-.689,2.667h-.071Z" transform="translate(-2458.243 -214.31)"/></g></g></svg>