<svg xmlns="http://www.w3.org/2000/svg" width="12.457" height="12.458" viewBox="0 0 12.457 12.458">
  <g id="Group_12810" data-name="Group 12810" transform="translate(-8506.543 -1974.678)">
    <path id="Path_28422" data-name="Path 28422" d="M0,480.978,5.8,475.1v3.849a6.943,6.943,0,0,1,4.6,2.078,7.128,7.128,0,0,1,2.061,5.04v1.49l-.707-1.306a6.273,6.273,0,0,0-5.513-3.3q-.219,0-.438.016v3.89Zm6.237,1.207a7,7,0,0,1,5.3,2.438,6.309,6.309,0,0,0-6.117-4.918H5.045v-2.76l-3.98,4.033,3.98,4.033v-2.73l.33-.042A6.966,6.966,0,0,1,6.237,482.185Z" transform="translate(8506.543 1499.576)" fill="#a89abf"/>
  </g>
</svg>
