<svg xmlns="http://www.w3.org/2000/svg" width="11.143" height="14.977" viewBox="0 0 11.143 14.977"><defs><style>.a{fill:#a89abf;}</style></defs><g transform="translate(-17.403 -14.924)"><g transform="translate(17.403 14.924)"><path class="a" d="M279.13,72.165a.519.519,0,0,0-.519.519v5.98l-9.291-6.408a.519.519,0,0,0-.814.427V86.622a.518.518,0,0,0,.278.46.528.528,0,0,0,.535-.033l9.291-6.408v5.98a.519.519,0,0,0,1.038,0V72.684A.52.52,0,0,0,279.13,72.165Zm-.913,7.488-8.673,5.98V73.672Z" transform="translate(-268.506 -72.164)"/></g></g></svg>