<svg xmlns="http://www.w3.org/2000/svg" width="70" height="70" viewBox="0 0 70 70"><defs><style>.a{fill:#160731;stroke:#2d1b4b;}.b{fill:#d6c6f4;}.c{stroke:none;}.d{fill:none;}</style></defs><g transform="translate(-165 -644)"><g transform="translate(165 644)"><g class="a"><circle class="c" cx="35" cy="35" r="35"/><circle class="d" cx="35" cy="35" r="34.5"/></g></g><path class="b" d="M283.8,72.165a.748.748,0,0,0-.747.747v8.612L269.678,72.3a.747.747,0,0,0-1.172.615V92.984a.746.746,0,0,0,.4.663.76.76,0,0,0,.771-.048l13.38-9.227v8.612a.747.747,0,0,0,1.495,0V72.912A.749.749,0,0,0,283.8,72.165Zm-1.315,10.784L270,91.56V74.336Z" transform="translate(-76.501 595.779)"/></g></svg>