<svg xmlns="http://www.w3.org/2000/svg" width="21.003" height="28.002" viewBox="0 0 21.003 28.002"><defs><style>.a{fill:#a89abf;}</style></defs><g transform="translate(-48.114 0)"><g transform="translate(48.114 0)"><path class="a" d="M157.9,6.292,151.78.254a.9.9,0,0,0-1.25,0L144.4,6.292a.869.869,0,0,0,0,1.237.889.889,0,0,0,1.25,0l4.616-4.55V16.624a.884.884,0,0,0,1.768,0V2.979l4.616,4.55a.889.889,0,0,0,1.25,0A.868.868,0,0,0,157.9,6.292Z" transform="translate(-137.16 0)"/><path class="a" d="M60.623,154.373l-4.616,4.55V145.278a.884.884,0,0,0-1.768,0v13.645l-4.616-4.55a.889.889,0,0,0-1.25,0,.868.868,0,0,0,0,1.237l6.125,6.037a.9.9,0,0,0,1.25,0l6.125-6.038a.869.869,0,0,0,0-1.237A.891.891,0,0,0,60.623,154.373Z" transform="translate(-48.114 -133.899)"/></g></g></svg>