<svg xmlns="http://www.w3.org/2000/svg" width="26.424" height="22.103" viewBox="0 0 26.424 22.103"><defs><style>.a{fill:#03f87e;stroke:#03f87e;stroke-width:0.5px;}</style></defs><g transform="translate(0.25 0.25)"><path class="a" d="M24.6,47.969H1.324A1.356,1.356,0,0,0,0,49.353V62.439a1.357,1.357,0,0,0,1.324,1.384H24.6a1.357,1.357,0,0,0,1.324-1.384V49.353A1.356,1.356,0,0,0,24.6,47.969Zm.255,14.47a.261.261,0,0,1-.255.266H1.324a.261.261,0,0,1-.255-.266V49.353a.261.261,0,0,1,.255-.266H24.6a.261.261,0,0,1,.255.266Z" transform="translate(0 -47.969)"/><path class="a" d="M30.331,60.211l-5.1-3.628a.541.541,0,0,0-.854.441V64.28a.551.551,0,0,0,.293.48.5.5,0,0,0,.561-.04l5.1-3.628a.541.541,0,0,0,0-.881Zm-4.875,3.021V58.071l3.629,2.58Z" transform="translate(-14.505 -52.841)"/><path class="a" d="M25.389,90.459H15.172a2.11,2.11,0,0,0-4.095,0H.535a.541.541,0,0,0,0,1.082H11.077a2.11,2.11,0,0,0,4.095,0H25.389a.541.541,0,0,0,0-1.082Zm-12.265,1.6A1.059,1.059,0,1,1,14.171,91,1.054,1.054,0,0,1,13.124,92.059Z" transform="translate(0 -71.537)"/></g></svg>