<svg xmlns="http://www.w3.org/2000/svg" width="18.828" height="18.828" viewBox="0 0 18.828 18.828"><defs><style>.a{opacity:0.6;}.b{fill:#d6c6f4;}</style></defs><g class="a" transform="translate(-43.361 -167.592)"><g transform="translate(43.361 167.592)"><path class="b" d="M62.189,175.346v10.84a.6.6,0,0,1-.546.234q-3.976-.006-7.953,0H43.9c-.393,0-.538-.129-.538-.483q0-5.179,0-10.358a.483.483,0,0,1,.269-.46c.96-.555,1.914-1.121,2.875-1.673a.367.367,0,0,0,.206-.367q-.006-2.442,0-4.884c0-.476.124-.6.6-.6H58.258c.475,0,.6.123.6.6,0,1.616,0,3.232,0,4.847a.429.429,0,0,0,.252.432c.942.537,1.876,1.089,2.814,1.632A.763.763,0,0,1,62.189,175.346Zm-9.4,10.276v0h5.088q1.671,0,3.342,0c.119,0,.228,0,.213-.169-.044-.516,0-1.032.007-1.547.011-1.026-.022-2.051-.008-3.077.02-1.437.006-2.874,0-4.312,0-.093.052-.222-.043-.274s-.165.057-.242.1q-3.98,2.315-7.956,4.637a.72.72,0,0,1-.828,0q-3.995-2.344-8-4.667c-.224-.131-.236-.124-.236.134q0,1.75,0,3.5c0,.9.012,1.793.012,2.69s-.01,1.794-.007,2.69c0,.275.028.29.3.29Zm-.014-17.234v0q-2.516,0-5.032,0c-.164,0-.244.035-.243.224q.006,4.211,0,8.423a.307.307,0,0,0,.175.309c.323.176.638.364.956.55q1.953,1.138,3.9,2.278a.4.4,0,0,0,.456.022q2.433-1.427,4.878-2.835a.34.34,0,0,0,.2-.334q-.008-4.175-.006-8.349c0-.279,0-.283-.29-.283ZM46.709,175.5h0c0-.35,0-.7,0-1.049,0-.2-.021-.212-.192-.112-.608.354-1.214.713-1.825,1.062-.142.081-.131.123,0,.2q.932.534,1.858,1.078c.122.071.159.048.157-.09C46.706,176.229,46.709,175.867,46.709,175.5Zm12.148.012h0c0,.362,0,.724,0,1.086,0,.122.032.159.148.091q.949-.559,1.9-1.113c.109-.063.1-.1,0-.156q-.938-.542-1.872-1.09c-.125-.073-.174-.056-.173.1C58.86,174.792,58.857,175.153,58.857,175.516Z" transform="translate(-43.361 -167.592)"/><path class="b" d="M64.658,195.079c.48,0,.96,0,1.44,0a.367.367,0,0,1,.359.523.328.328,0,0,1-.262.213,3.248,3.248,0,0,1-.55.025q-1.137,0-2.275,0a1.579,1.579,0,0,1-.247-.019.352.352,0,0,1-.32-.38.346.346,0,0,1,.363-.357c.5-.006.995,0,1.493,0Z" transform="translate(-50.884 -178.233)"/><path class="b" d="M70.48,194.963a.34.34,0,0,1,.351.361.354.354,0,1,1-.351-.361Z" transform="translate(-53.767 -178.186)"/><path class="b" d="M56.129,176.711H52.755a1.066,1.066,0,0,1-.194-.011.377.377,0,0,1-.3-.367.368.368,0,0,1,.295-.354,1.8,1.8,0,0,1,.318-.025q3.268,0,6.535,0a1.8,1.8,0,0,1,.318.025.362.362,0,0,1,.3.364.378.378,0,0,1-.328.364,1.368,1.368,0,0,1-.177.006H56.129Z" transform="translate(-46.718 -170.843)"/><path class="b" d="M56.135,172.788h3.356a.767.767,0,0,1,.281.034.352.352,0,0,1,.248.353.348.348,0,0,1-.259.344.884.884,0,0,1-.281.034H52.8a.883.883,0,0,1-.281-.034.359.359,0,0,1-.265-.341.369.369,0,0,1,.259-.364.679.679,0,0,1,.228-.029h3.392Z" transform="translate(-46.717 -169.612)"/><path class="b" d="M56.149,179.132H59.49a.817.817,0,0,1,.264.025.384.384,0,0,1,.269.358.375.375,0,0,1-.278.35.985.985,0,0,1-.281.031H52.818a1.01,1.01,0,0,1-.282-.03.375.375,0,0,1-.278-.35.382.382,0,0,1,.268-.359.8.8,0,0,1,.264-.025Z" transform="translate(-46.718 -172.08)"/><path class="b" d="M54.378,183.054c-.562,0-1.124,0-1.686,0a.39.39,0,0,1-.4-.234.359.359,0,0,1,.251-.5,1.337,1.337,0,0,1,.3-.028q1.553,0,3.105,0a1.448,1.448,0,0,1,.247.021.349.349,0,0,1,.315.365.363.363,0,0,1-.322.365,2.733,2.733,0,0,1-.354.01Z" transform="translate(-46.796 -173.309)"/></g></g></svg>