<svg xmlns="http://www.w3.org/2000/svg" width="40" height="40" viewBox="0 0 40 40">
  <g id="Group_13541" data-name="Group 13541" transform="translate(-777 -802)">
    <g id="Group_8198" data-name="Group 8198" transform="translate(780 810)">
      <g id="Ellipse_154" data-name="Ellipse 154" transform="translate(-3 -8)" fill="rgba(16,7,33,0.5)" stroke="#63597d" stroke-width="1">
        <circle cx="20" cy="20" r="20" stroke="none"/>
        <circle cx="20" cy="20" r="19.5" fill="none"/>
      </g>
      <g id="Path_28639" data-name="Path 28639" transform="translate(25.061 3.557) rotate(90)" fill="none">
        <path d="M6.722,3.232a2.556,2.556,0,0,1,4.334,0L16,11.5a2.385,2.385,0,0,1-2.167,3.565H3.943A2.385,2.385,0,0,1,1.776,11.5Z" stroke="none"/>
        <path d="M 8.888932228088379 3.031126022338867 C 8.336922645568848 3.031126022338867 7.847552299499512 3.29814624786377 7.579862594604492 3.745416641235352 L 2.634012222290039 12.00899600982666 C 2.386382102966309 12.42272567749023 2.380251884460449 12.89972591400146 2.617181777954102 13.31766605377197 C 2.88099193572998 13.78299617767334 3.376651763916016 14.06080627441406 3.943081855773926 14.06080627441406 L 13.83478164672852 14.06080627441406 C 14.40121269226074 14.06080627441406 14.89687252044678 13.78299617767334 15.16067218780518 13.31766605377197 C 15.39761257171631 12.89972591400146 15.39148235321045 12.42272567749023 15.14385223388672 12.00899600982666 L 10.19800186157227 3.745406150817871 C 9.930312156677246 3.29814624786377 9.44094181060791 3.031126022338867 8.888932228088379 3.031126022338867 M 8.888932228088379 2.031128883361816 C 9.73294734954834 2.031128883361816 10.57696151733398 2.431370735168457 11.05606269836426 3.231856346130371 L 16.00191307067871 11.49543571472168 C 16.9527416229248 13.0841064453125 15.75126266479492 15.06080627441406 13.83478164672852 15.06080627441406 L 3.943081855773926 15.06080627441406 C 2.026601791381836 15.06080627441406 0.8251113891601563 13.08411598205566 1.775951385498047 11.49543571472168 L 6.7218017578125 3.231856346130371 C 7.200901985168457 2.431370735168457 8.044917106628418 2.031128883361816 8.888932228088379 2.031128883361816 Z" stroke="none" fill="#a89abf"/>
      </g>
    </g>
  </g>
</svg>
