<svg xmlns="http://www.w3.org/2000/svg" width="18.141" height="13.605" viewBox="0 0 18.141 13.605"><defs><style>.a{fill:#fff;}</style></defs><path class="a" d="M22.845,77.1a2.361,2.361,0,0,1,.414.042.4.4,0,1,0,.138-.78,3.138,3.138,0,0,0-3.722,3.115,3.125,3.125,0,0,0,.055.552.4.4,0,0,0,.389.327.343.343,0,0,0,.07-.006.4.4,0,0,0,.321-.459,2.3,2.3,0,0,1-.043-.414A2.38,2.38,0,0,1,22.845,77.1Z" transform="translate(-13.707 -72.597)"/><path class="a" d="M23.052,70.566a18.535,18.535,0,0,0-4.467-3.7l2.194-2.21a.38.38,0,0,0,0-.534.374.374,0,0,0-.531,0L17.7,66.685l-.006.006L7.487,76.969a.38.38,0,0,0,0,.534.377.377,0,0,0,.266.11.372.372,0,0,0,.265-.11l2.258-2.274a9.252,9.252,0,0,0,3.858.872c4.625,0,8.746-4.841,8.919-5.047A.38.38,0,0,0,23.052,70.566Zm-6.666.244a2.262,2.262,0,0,1-2.252,2.268,2.222,2.222,0,0,1-1.3-.42l3.14-3.162A2.261,2.261,0,0,1,16.386,70.81Zm-2.252,4.535a8.434,8.434,0,0,1-3.287-.691L12.293,73.2a2.963,2.963,0,0,0,1.841.636,3.027,3.027,0,0,0,2.372-4.877l1.527-1.538a17.934,17.934,0,0,1,4.23,3.392C21.367,71.786,17.846,75.346,14.134,75.346Z" transform="translate(-5 -64.008)"/><path class="a" d="M3.925,78.212a.4.4,0,0,0,.219-.727A14.5,14.5,0,0,1,.908,74.494c.912-.991,4.655-4.776,8.6-4.776a7.411,7.411,0,0,1,2.347.414.391.391,0,0,0,.5-.249.4.4,0,0,0-.249-.5,8.182,8.182,0,0,0-2.6-.457C4.627,68.925.276,74,.093,74.217a.4.4,0,0,0-.022.482,14.712,14.712,0,0,0,3.635,3.447A.391.391,0,0,0,3.925,78.212Z" transform="translate(0 -67.341)"/></svg>