<svg xmlns="http://www.w3.org/2000/svg" width="40" height="40" viewBox="0 0 40 40">
  <g id="Group_8198" data-name="Group 8198" transform="translate(3 8)">
    <g id="Ellipse_154" data-name="Ellipse 154" transform="translate(-3 -8)" fill="#d6c6f4" stroke="#d6c6f4" stroke-width="1">
      <circle cx="20" cy="20" r="20" stroke="none"/>
      <circle cx="20" cy="20" r="19.5" fill="none"/>
    </g>
    <g id="eye" transform="translate(-16.079 -113.938)">
      <path id="Path_28631" data-name="Path 28631" d="M42.042,126.58a.482.482,0,0,0,0-.619,11.552,11.552,0,0,0-2.377-2.516,11.08,11.08,0,0,0-14.039,0,11.671,11.671,0,0,0-2.395,2.515.4.4,0,0,0,0,.624,11.671,11.671,0,0,0,2.395,2.515,11.08,11.08,0,0,0,14.039,0A11.548,11.548,0,0,0,42.042,126.58ZM39.1,128.551a10.5,10.5,0,0,1-6.45,2.209,9.85,9.85,0,0,1-6.206-2.209,15.339,15.339,0,0,1-2.247-2.281,12.694,12.694,0,0,1,2.077-2.252,10.363,10.363,0,0,1,6.377-2.252,10.549,10.549,0,0,1,6.45,2.252,11.914,11.914,0,0,1,2.016,2.252A11.89,11.89,0,0,1,39.1,128.551Z" transform="translate(0 0)" fill="#1d0640"/>
      <path id="Path_28632" data-name="Path 28632" d="M168.521,165.867a2.717,2.717,0,1,0,2.653,2.716A2.688,2.688,0,0,0,168.521,165.867Zm0,4.528a1.812,1.812,0,1,1,1.77-1.812A1.794,1.794,0,0,1,168.521,170.395Zm0,0" transform="translate(-135.884 -42.312)" fill="#1d0640"/>
    </g>
  </g>
</svg>
