<svg xmlns="http://www.w3.org/2000/svg" width="58" height="58" viewBox="0 0 58 58"><defs><style>.a{fill:#0ad561;}.b{fill:#fff;}</style></defs><g transform="translate(-0.011)"><circle class="a" cx="29" cy="29" r="29" transform="translate(0.011 0)"/><g transform="translate(14.737 14.564)"><path class="b" d="M26,22.133l-.012.1c-2.807-1.4-3.1-1.585-3.464-1.041-.252.376-.984,1.231-1.205,1.483s-.446.268-.825.1a10.371,10.371,0,0,1-3.068-1.9,11.57,11.57,0,0,1-2.119-2.643c-.374-.646.409-.738,1.12-2.086a.7.7,0,0,0-.032-.669c-.1-.191-.858-2.068-1.177-2.816S14.6,12,14.36,12a1.9,1.9,0,0,0-1.747.439c-2.06,2.265-1.541,4.6.223,7.085,3.465,4.535,5.311,5.37,8.686,6.529a5.28,5.28,0,0,0,2.4.154A3.929,3.929,0,0,0,26.5,24.392a3.164,3.164,0,0,0,.23-1.819C26.631,22.4,26.38,22.3,26,22.133Z" transform="translate(-3.647 -3.867)"/><path class="b" d="M26.178,4.444l.019-.05C16.381-5.1.135,1.787.129,15.175a15.107,15.107,0,0,0,2.036,7.59L0,30.631l8.088-2.109A15.282,15.282,0,0,0,30.64,15.182,15.057,15.057,0,0,0,26.178,4.444ZM8.924,26l-.459-.273L3.677,26.969,4.96,22.315l-.305-.479A12.662,12.662,0,0,1,24.376,6.216a12.5,12.5,0,0,1,3.713,8.924A12.711,12.711,0,0,1,8.924,26Z" transform="translate(0 0.01)"/></g></g></svg>