<svg xmlns="http://www.w3.org/2000/svg" width="300.431" height="6.302" viewBox="0 0 300.431 6.302"><defs><style>.a{fill:none;stroke:#2c2e65;stroke-miterlimit:10;}</style></defs><g transform="translate(0.32 0.651)"><path class="a" d="M104.374,371.133l5.993-5,5.994,5,6-5,5.994,5,5.993-5,5.994,5,6-5,5.994,5,5.994-5,5.995,5,6-5,5.994,5,5.995-5,6,5,5.994-5,6,5,6-5,5.995,5,6-5,5.995,5,6-5,5.992,5,5.991-5,5.993,5,6-5,5.992,5,5.994-5,6,5,5.993-5,6,5,5.995-5,6,5,6-5,6,5,6-5,6,5,6-5,6,5,6-5,6,5,6-5,5.995,5,6-5,6,5,6-5,6,5,6-5,6,5,6.005-5,6.005,5" transform="translate(-104.374 -366.133)"/></g></svg>