<svg xmlns="http://www.w3.org/2000/svg" xmlns:xlink="http://www.w3.org/1999/xlink" width="309" height="309" viewBox="0 0 309 309"><defs><style>.a{fill:none;}.b{fill:#99f;}.c{clip-path:url(#a);}.d,.m{fill:#33c;}.e{fill:#6060f4;}.f{fill:#a7a7fc;opacity:0.62;}.g{fill:#7a7af9;}.h{fill:url(#b);}.i{fill:#1c0477;}.j{fill:#ffeb95;}.k{fill:#a47d78;}.l{fill:#fdddce;}.m{opacity:0.45;}.n{fill:#c41856;}.o{fill:#ff5082;}.p{fill:#05e8ad;}.q{fill:#6fc;}.r{fill:#ed3833;}.s{fill:url(#c);}</style><clipPath id="a"><ellipse class="a" cx="154.206" cy="154.5" rx="154.206" ry="154.5" transform="translate(0)"/></clipPath><linearGradient id="b" x1="-1.097" y1="0.601" x2="0.937" y2="0.472" gradientUnits="objectBoundingBox"><stop offset="0" stop-color="#33c"/><stop offset="1" stop-color="#d9d6d7"/></linearGradient><linearGradient id="c" x1="-135.825" y1="11.496" x2="-130.488" y2="11.496" gradientUnits="objectBoundingBox"><stop offset="0" stop-color="#fff"/><stop offset="0.259" stop-color="#fffcfd"/><stop offset="0.406" stop-color="#fff4f7"/><stop offset="0.525" stop-color="#ffe6ed"/><stop offset="0.628" stop-color="#ffd2de"/><stop offset="0.722" stop-color="#ffb9cc"/><stop offset="0.809" stop-color="#ff99b5"/><stop offset="0.89" stop-color="#ff7499"/><stop offset="0.965" stop-color="#ff4a7b"/><stop offset="0.977" stop-color="#ff4376"/></linearGradient></defs><g transform="translate(-1840.001 -9820.271)"><g transform="translate(1840.001 9820.271)"><ellipse class="b" cx="154.206" cy="154.5" rx="154.206" ry="154.5"/><g transform="translate(0.587)"><g class="c" transform="translate(0)"><rect class="d" width="455.443" height="228.495" transform="translate(-71.715 -22.986)"/><rect class="e" width="344.372" height="238.112" rx="7.69" transform="translate(2.084 -116.885)"/><path class="f" d="M488.941-113.344,385.212,124.769H362.651L466.38-113.344Z" transform="translate(-289.86 -3.541)"/><path class="f" d="M644.724-113.344,541,124.769H440.08L543.808-113.344Z" transform="translate(-317.424 -3.541)"/></g></g><g transform="translate(170.475 263.65)"><path class="g" d="M544.526,472.749c3.739-1.42,6.035-3.836-1.354-4.665a55.559,55.559,0,0,0-24.247,3.308c-11.544.04-16.032,4.918.807,3.272-2.224,2.077,3.01,2.413,8.671,1.735C535.839,480,558.114,475.329,544.526,472.749Z" transform="translate(-508.639 -467.842)"/><path class="g" d="M528.4,479.088c-5.664.677-10.9.343-8.676-1.733-15.521,1.515-12.927-2.514-3.366-3.18.2.874,3.447,1.464,11.059.719-2.22,2.077,3.012,2.41,8.676,1.733,2.946,1.423,8.21,1.554,12.662,1.028C547.689,479.866,533.943,481.764,528.4,479.088Z" transform="translate(-508.637 -470.532)"/><path class="g" d="M546.808,476.385c1.747-.959,1.318-2.092-3.353-2.98,3.741-1.42,6.038-3.838-1.354-4.668a55.6,55.6,0,0,0-24.246,3.309,28.638,28.638,0,0,0-7.961,1c1.436-.842,4.931-1.636,9.563-1.652a55.527,55.527,0,0,1,24.246-3.309c7.392.83,5.095,3.248,1.354,4.667C550.86,473.849,550.125,475.328,546.808,476.385Z" transform="translate(-509.171 -467.841)"/></g><g transform="translate(96.624 247.388)"><path class="g" d="M419.6,454.6c2.346-1.431,3.788-3.866-.851-4.7a22.977,22.977,0,0,0-15.218,3.334c-7.245.041-10.062,4.956.507,3.3-1.4,2.094,1.889,2.431,5.442,1.749C414.149,461.905,428.13,457.2,419.6,454.6Z" transform="translate(-397.078 -449.656)"/><path class="g" d="M409.483,460.989c-3.555.683-6.839.346-5.445-1.747-9.742,1.527-8.113-2.533-2.113-3.205.124.88,2.163,1.475,6.941.725-1.393,2.093,1.89,2.43,5.445,1.747,1.849,1.435,5.153,1.567,7.947,1.036C421.586,461.774,412.959,463.687,409.483,460.989Z" transform="translate(-397.077 -452.367)"/><path class="g" d="M421.033,458.265c1.1-.967.827-2.109-2.1-3,2.348-1.431,3.79-3.868-.85-4.7a22.993,22.993,0,0,0-15.217,3.334,11.727,11.727,0,0,0-5,1c.9-.849,3.095-1.649,6-1.665a22.964,22.964,0,0,1,15.217-3.334c4.64.836,3.2,3.273.85,4.7C423.577,455.71,423.115,457.2,421.033,458.265Z" transform="translate(-397.412 -449.655)"/></g><g transform="translate(221.525 227.46)"><path class="g" d="M612.708,424.425c3.8-.937,7.637-2.945,3.687-4.463-3.409-1.311-10.325-1.519-18.85.605-7.475-1.135-15.133,2.932-2.677,3.115-3.463,1.7-.419,2.543,3.889,2.489C600.029,430.263,618.938,428.2,612.708,424.425Z" transform="translate(-588.267 -418.972)"/><path class="g" d="M598.759,427.2c-4.31.052-7.354-.788-3.894-2.488-11.478-.171-5.87-3.643.939-3.29-.726.83.79,1.707,6.42,1.79-3.459,1.7-.416,2.541,3.895,2.488.506,1.619,3.769,2.275,7.15,2.239C610.419,429.883,599.71,430.247,598.759,427.2Z" transform="translate(-588.267 -420.003)"/><path class="g" d="M611.39,427.974c2.063-.711,2.894-1.806.753-3.1,3.8-.936,7.64-2.945,3.689-4.464-3.414-1.31-10.331-1.517-18.85.606a18.438,18.438,0,0,0-6.1.116,17.2,17.2,0,0,1,7.774-.56c8.526-2.124,15.444-1.917,18.85-.606,3.95,1.52.107,3.529-3.689,4.465C616.479,426.034,614.56,427.332,611.39,427.974Z" transform="translate(-589.378 -418.971)"/></g><g transform="translate(266.184 208.083)"><path class="g" d="M678.428,394.5c3.783-.934,7.612-2.935,3.675-4.448-3.4-1.307-10.292-1.514-18.789.6-7.452-1.131-15.084,2.923-2.669,3.106-3.452,1.7-.418,2.534,3.876,2.482C665.79,400.315,684.639,398.255,678.428,394.5Z" transform="translate(-654.066 -389.06)"/><path class="g" d="M664.525,397.264c-4.3.053-7.33-.786-3.881-2.48-11.442-.171-5.851-3.632.936-3.28-.725.828.787,1.7,6.4,1.784-3.449,1.694-.415,2.533,3.881,2.48.5,1.614,3.757,2.268,7.128,2.232C676.147,399.935,665.472,400.3,664.525,397.264Z" transform="translate(-654.066 -390.088)"/><path class="g" d="M677.116,398.034c2.056-.71,2.884-1.8.75-3.094,3.785-.933,7.615-2.936,3.677-4.451-3.4-1.3-10.3-1.511-18.79.6a18.378,18.378,0,0,0-6.082.116,17.148,17.148,0,0,1,7.749-.559c8.5-2.117,15.394-1.911,18.79-.6,3.938,1.515.108,3.517-3.678,4.451C682.188,396.1,680.275,397.393,677.116,398.034Z" transform="translate(-655.173 -389.059)"/></g><ellipse class="g" cx="54.818" cy="9.256" rx="54.818" ry="9.256" transform="translate(68.754 213.914)"/><g transform="translate(80.515 76.482)"><g transform="translate(82.52 16.721)"><ellipse class="h" cx="18.061" cy="53.154" rx="18.061" ry="53.154" transform="translate(2.876 2.876)"/><path class="i" d="M495.646,174.339c9.974,0,18.06,23.8,18.06,53.154s-8.086,53.154-18.06,53.154-18.061-23.8-18.061-53.154,8.086-53.154,18.061-53.154m0-2.875c-6.242,0-11.6,6.058-15.494,17.519-3.51,10.329-5.443,24.006-5.443,38.51s1.933,28.181,5.443,38.51c3.895,11.461,9.252,17.519,15.494,17.519s11.6-6.058,15.493-17.519c3.51-10.329,5.443-24.006,5.443-38.51s-1.933-28.181-5.443-38.51c-3.894-11.461-9.252-17.519-15.493-17.519Z" transform="translate(-474.709 -171.463)"/></g><g transform="translate(168.628 64.097)"><path class="j" d="M637.916,275.372c1.694,3.1,6.3,6.56,11.357,4.069,4.362-2.149,6.51-7.236,2.653-14.214,4.809-5.229-4.557-12.137-7.9-2.918-3.857-3.083-6.854-1.066-7.693,2.157C624.855,264.2,626.183,278.892,637.916,275.372Z" transform="translate(-626.114 -255.52)"/><path class="i" d="M647.292,256.114a4.317,4.317,0,0,1,2.957,7.435c3.857,6.978,1.709,12.065-2.654,14.214a7.912,7.912,0,0,1-3.526.852,9.455,9.455,0,0,1-7.831-4.922,11.887,11.887,0,0,1-3.408.545c-8.377,0-8.425-11.454,1.515-11.454.1,0,.2,0,.306,0,.546-2.1,2.008-3.688,4.027-3.687a5.988,5.988,0,0,1,3.666,1.53c1.191-3.279,3.142-4.517,4.947-4.517m0-2.272h0a6.938,6.938,0,0,0-5.9,3.565,6.9,6.9,0,0,0-2.712-.577h0a6.262,6.262,0,0,0-5.618,3.74,10.043,10.043,0,0,0-6,2.453,7.913,7.913,0,0,0-2.625,5.833c0,3.8,2.884,7.655,8.394,7.655a12.987,12.987,0,0,0,2.4-.233,11.464,11.464,0,0,0,8.843,4.61,10.185,10.185,0,0,0,4.53-1.086,10.384,10.384,0,0,0,5.442-6.19c.657-2.094.942-5.438-1.131-9.846a6.37,6.37,0,0,0,.419-5.918,6.712,6.712,0,0,0-6.037-4Z" transform="translate(-624.436 -253.842)"/><path class="k" d="M633.743,269.792c-2.9,4,.2,10.556,8.467,8.081,1.511,2.763,5.332,5.814,9.724,4.671a8.62,8.62,0,0,1-2.659,1.993c-5.053,2.5-9.666-.96-11.358-4.065C627.158,283.7,625.144,271.608,633.743,269.792Z" transform="translate(-626.114 -260.619)"/><path class="l" d="M661.683,279.441a7.874,7.874,0,0,1-4.093.834,8.019,8.019,0,0,0,3.027-.836c4.359-2.153,6.51-7.235,2.652-14.214a4.309,4.309,0,0,0-2.388-7.392,4.311,4.311,0,0,1,3.457,7.4C668.193,272.205,666.045,277.294,661.683,279.441Z" transform="translate(-638.523 -255.523)"/></g><g transform="translate(179.308 120.708)"><path class="j" d="M667.117,368.288c1.518-2.955,1.77-8.363-2.835-10.977-3.974-2.255-9.063-1.238-12.45,5.444-6.6-.977-7.028,9.952,1.906,7.685-.359,4.627,2.791,5.891,5.74,4.841C665.331,384.342,676.05,375.55,667.117,368.288Z" transform="translate(-644.679 -353.957)"/><path class="i" d="M658.68,354.55a7.952,7.952,0,0,1,3.928,1.083c4.6,2.614,4.354,8.021,2.835,10.977,6.218,5.056,2.914,10.852-1.643,10.852-1.989,0-4.218-1.1-6-3.858a5.709,5.709,0,0,1-1.9.346c-2.244,0-4.118-1.561-3.836-5.187a9.312,9.312,0,0,1-2.282.31c-6.207,0-5.676-8.057-.442-8.057a5.579,5.579,0,0,1,.817.062c2.338-4.614,5.488-6.527,8.522-6.527m0-2.272h0c-2.3,0-6.5.878-9.841,6.482a6.094,6.094,0,0,0-4.976,3.059,6.492,6.492,0,0,0-.036,6.388,6.6,6.6,0,0,0,5.954,3.137l.172,0a6.33,6.33,0,0,0,1.514,3.029,5.942,5.942,0,0,0,4.432,1.85,7.41,7.41,0,0,0,.96-.063,8.922,8.922,0,0,0,6.94,3.575,7.32,7.32,0,0,0,6.925-4.8c1.049-2.953.082-6.206-2.59-8.938,1.222-3.911.657-9.462-4.406-12.335a10.278,10.278,0,0,0-5.049-1.379Z" transform="translate(-643.006 -352.278)"/><path class="k" d="M671.42,377.224c4.642.14,8.1-5.73,1.809-10.849,1.35-2.634,1.7-7.216-1.5-10.026a8.116,8.116,0,0,1,2.954,1.015c4.609,2.609,4.358,8.02,2.838,10.976C685.707,375,677.373,382.948,671.42,377.224Z" transform="translate(-655.079 -354.008)"/><path class="l" d="M664.277,357.313a7.4,7.4,0,0,1,2.81,2.741,7.526,7.526,0,0,0-2.249-1.912c-3.975-2.251-9.062-1.239-12.449,5.446a4.049,4.049,0,0,0-4.485,5.761,4.051,4.051,0,0,1,3.926-6.6C655.215,356.074,660.3,355.056,664.277,357.313Z" transform="translate(-644.678 -353.957)"/></g><g transform="translate(138.331 110.09)"><path class="j" d="M586.8,357.378c3.307.315,8.424-1.455,9.145-6.7.622-4.527-2.208-8.877-9.67-9.547-1.539-6.5-11.848-2.84-6.432,4.618-4.43,1.38-4.437,4.775-2.369,7.125C571.226,361.667,583.363,368.366,586.8,357.378Z" transform="translate(-573.436 -335.494)"/><path class="i" d="M580.654,336.088a4,4,0,0,1,3.938,3.365c7.462.669,10.293,5.019,9.67,9.547-.668,4.858-5.107,6.736-8.387,6.736-.261,0-.515-.011-.759-.035-1.276,4.082-3.753,5.723-6.042,5.723-3.874,0-7.211-4.7-3.284-10.226-2.068-2.35-2.061-5.745,2.369-7.125-3.463-4.769-.5-7.983,2.494-7.983m0-2.272a6.37,6.37,0,0,0-5.663,3.385,6.764,6.764,0,0,0-.013,5.869,6.132,6.132,0,0,0-2.586,3.42,6.238,6.238,0,0,0,.675,4.781,8.845,8.845,0,0,0-.443,8.434,7.263,7.263,0,0,0,6.45,3.988c3.253,0,6.015-2.105,7.611-5.716,4.342-.3,9.053-3.046,9.827-8.67a9.9,9.9,0,0,0-1.984-7.6c-1.293-1.625-3.756-3.617-8.277-4.339a6.113,6.113,0,0,0-5.6-3.555Z" transform="translate(-571.753 -333.816)"/><path class="k" d="M576.29,362.241c1.59,4.363,8.323,5.4,10.747-2.339,2.947.278,7.333-1.092,8.755-5.113a8.11,8.11,0,0,1,.152,3.119c-.715,5.248-5.835,7.02-9.143,6.7C583.65,374.686,573.178,369.891,576.29,362.241Z" transform="translate(-573.438 -342.727)"/><path class="l" d="M598.145,350.673a7.4,7.4,0,0,1-1.5,3.625,7.525,7.525,0,0,0,.942-2.8c.618-4.526-2.207-8.876-9.671-9.545a4.049,4.049,0,0,0-7.012-2.031,4.051,4.051,0,0,1,7.581,1.2C595.937,341.8,598.769,346.147,598.145,350.673Z" transform="translate(-575.639 -335.492)"/></g><g transform="translate(144.8 132.961)"><path class="j" d="M599.5,400.817c3.474,1.6,9.706,1.628,12.487-3.8,2.4-4.681.983-10.485-6.868-14.054.8-7.644-11.79-7.6-8.747,2.567-5.339-.188-6.64,3.5-5.288,6.838C580.95,399.546,591.584,411.445,599.5,400.817Z" transform="translate(-584.674 -375.264)"/><path class="i" d="M598.829,375.857a4.609,4.609,0,0,1,4.621,5.431c7.851,3.57,9.27,9.373,6.868,14.054a8.641,8.641,0,0,1-8.035,4.733,10.871,10.871,0,0,1-4.452-.937c-2.257,3.03-4.734,4.229-6.888,4.229-5.4,0-8.774-7.546-1.527-12.674-1.319-3.258-.114-6.845,4.9-6.845.127,0,.256,0,.386.007-1.634-5.458,1.239-8,4.126-8m0-2.272h0a6.7,6.7,0,0,0-5.444,2.675,7.866,7.866,0,0,0-1.39,5.564,6.769,6.769,0,0,0-4.257,2.75,6.923,6.923,0,0,0-.935,5.291c-3.806,3.354-4.313,7.371-3.418,10.183a7.936,7.936,0,0,0,7.558,5.592,10.466,10.466,0,0,0,7.617-3.816,13.567,13.567,0,0,0,3.724.524,10.893,10.893,0,0,0,10.056-5.968,11.053,11.053,0,0,0,.721-8.741c-.775-2.224-2.681-5.294-7.337-7.763a6.886,6.886,0,0,0-1.709-4.028,6.966,6.966,0,0,0-5.185-2.262Z" transform="translate(-583.003 -373.585)"/><path class="k" d="M591.089,392.371c-1.352-3.343-.053-7.026,5.283-6.84-2.8-9.371,7.689-10.148,8.7-4.211-2.334.673-4.156,3.2-2.779,7.794-5.337-.186-6.635,3.5-5.284,6.84-4.01,2.84-4.772,6.419-3.726,9.05C587.5,405.666,583.548,397.712,591.089,392.371Z" transform="translate(-584.675 -375.262)"/><path class="l" d="M591.762,404.313c2.408.565,5.449-.424,8.174-4.078,3.473,1.6,9.71,1.629,12.493-3.8,2.4-4.682.976-10.486-6.871-14.053a4.663,4.663,0,0,0-2.018-4.67,4.586,4.586,0,0,1,3.63,5.328c7.854,3.57,9.274,9.374,6.871,14.053-2.784,5.426-9.021,5.4-12.493,3.8C598.174,405.43,594.305,405.861,591.762,404.313Z" transform="translate(-586.725 -375.339)"/></g><path class="m" d="M515.63,221.659c-13.653-22.952-27.864-2.065-35.794,14.32-.081-2.082-.127-4.21-.127-6.361,0-29.359,8.086-53.157,18.058-53.157C506.825,176.461,514.324,196.078,515.63,221.659Z" transform="translate(-394.313 -156.866)"/><g transform="translate(137.39 81.938)"><path class="j" d="M594.567,304.546c2.17-3.076,3.544-9.29-.649-13.395-3.619-3.543-9.059-3.547-13.919,3.417-6.586-2.672-9.276,9.908.374,9.359-1.324,5.284,1.653,7.484,4.9,6.953C589.419,322.753,602.249,315.051,594.567,304.546Z" transform="translate(-571.796 -286.542)"/><path class="i" d="M586.943,287.135a7.565,7.565,0,0,1,5.3,2.338c4.194,4.1,2.82,10.319.649,13.395,4.93,6.742,1.413,12.329-2.836,12.329-2.372,0-4.972-1.741-6.458-5.995a5.775,5.775,0,0,1-.93.077c-2.853,0-5.166-2.257-3.97-7.03-.207.011-.408.017-.6.017-8.052,0-6.637-9.751-1.555-9.75a4.751,4.751,0,0,1,1.785.373c2.836-4.063,5.868-5.754,8.622-5.754m0-2.271c-2.425,0-5.963.983-9.527,5.442a6.484,6.484,0,0,0-.879-.061,6.152,6.152,0,0,0-5.393,3.238,7.6,7.6,0,0,0-.086,7.471,7.12,7.12,0,0,0,5.045,3.408,7.241,7.241,0,0,0,1.421,4.8,6.254,6.254,0,0,0,4.568,2.367c1.764,3.75,4.657,5.939,7.959,5.939a7.41,7.41,0,0,0,6.579-4.163c1.563-3.08,1.168-6.844-1.055-10.5,2.013-3.869,2.993-10.313-1.748-14.953a9.77,9.77,0,0,0-6.886-2.985h0Z" transform="translate(-570.118 -284.864)"/><path class="k" d="M585.274,314.856c-3.249.53-6.224-1.667-4.9-6.949-8.894.5-7.307-10.16-1.836-9.72.089,2.495,1.927,4.931,6.289,4.682-1.322,5.282,1.654,7.479,4.9,6.949,1.643,4.7,4.642,6.335,7.195,5.934C596.254,321.688,588.363,323.69,585.274,314.856Z" transform="translate(-571.796 -290.519)"/><path class="l" d="M595.788,315.154c1.022-2.265.807-5.543-1.834-9.158,2.172-3.075,3.547-9.294-.648-13.4-3.621-3.537-9.062-3.541-13.919,3.419a3.89,3.89,0,0,0-4.567.871,4.008,4.008,0,0,1,5.5-2.32c4.86-6.967,10.3-6.963,13.918-3.419,4.195,4.107,2.82,10.326.649,13.4C598.167,309.027,597.708,312.995,595.788,315.154Z" transform="translate(-572.116 -286.54)"/></g><g transform="translate(118.602 84.782)"><path class="j" d="M553.824,316.447c3.56,1.116,9.593.361,11.605-5.235,1.737-4.83-.361-10.266-8.4-12.737-.181-7.5-12.356-5.875-8.14,3.578-5.189.487-5.986,4.214-4.261,7.277C535.717,317.539,547.494,327.72,553.824,316.447Z" transform="translate(-539.133 -291.488)"/><path class="i" d="M550.81,292.082a4.484,4.484,0,0,1,4.532,4.715c8.042,2.471,10.14,7.908,8.4,12.737-1.511,4.2-5.29,5.674-8.586,5.674a10.228,10.228,0,0,1-3.019-.439c-2.013,3.584-4.575,5-6.849,5-4.878,0-8.426-6.518-2.35-12.116-1.725-3.062-.927-6.791,4.26-7.277-2.429-5.448.584-8.294,3.609-8.294m0-2.272a6.7,6.7,0,0,0-5.668,3,7.645,7.645,0,0,0-.876,5.9,6.664,6.664,0,0,0-3.716,3.112,6.764,6.764,0,0,0-.3,5.344c-2.644,3.039-3.479,6.623-2.226,9.834a7.8,7.8,0,0,0,7.27,5.04c1.809,0,5.087-.65,7.92-4.7a13.072,13.072,0,0,0,1.948.145c5.1,0,9.107-2.683,10.723-7.177a10.836,10.836,0,0,0-.4-8.59c-1.031-2.059-3.259-4.794-8.067-6.607a6.675,6.675,0,0,0-6.607-5.3Z" transform="translate(-537.449 -289.81)"/><path class="k" d="M544.628,309.33c-1.725-3.065-.931-6.79,4.256-7.278-3.88-8.716,6.169-10.78,7.894-5.163-2.174.943-3.62,3.614-1.714,7.887-5.186.488-5.981,4.214-4.255,7.279-3.524,3.25-3.813,6.807-2.472,9.221C542.823,322.64,538,315.44,544.628,309.33Z" transform="translate(-539.135 -291.487)"/><path class="l" d="M547.268,320.992c2.4.246,5.219-1.091,7.4-4.968,3.56,1.117,9.6.361,11.611-5.236,1.732-4.83-.368-10.267-8.405-12.736a4.549,4.549,0,0,0-2.537-4.265,4.472,4.472,0,0,1,4.179,4.7c8.045,2.471,10.144,7.908,8.406,12.736-2.014,5.6-8.05,6.354-11.611,5.237C553.611,321.272,549.922,322.172,547.268,320.992Z" transform="translate(-541.621 -291.5)"/></g><g transform="translate(112.273 117.736)"><path class="j" d="M543.312,374.979c3.608,1.551,10,1.41,12.711-4.23,2.338-4.868.727-10.785-7.426-14.237.618-7.865-12.3-7.48-8.906,2.869-5.483-.049-6.719,3.767-5.242,7.159C524.242,374.172,535.473,386.1,543.312,374.979Z" transform="translate(-528.113 -348.789)"/><path class="i" d="M542.175,349.383a4.727,4.727,0,0,1,4.754,5.451c8.153,3.452,9.763,9.369,7.426,14.237a8.92,8.92,0,0,1-8.415,5.076,11.094,11.094,0,0,1-4.3-.846c-2.287,3.244-4.862,4.526-7.11,4.526-5.457,0-8.982-7.56-1.753-12.966-1.467-3.37-.256-7.159,5.138-7.159h.1c-1.85-5.638,1.143-8.319,4.152-8.319m0-2.272a6.822,6.822,0,0,0-5.609,2.8,7.991,7.991,0,0,0-1.314,5.818,6.814,6.814,0,0,0-4.264,2.864,7.029,7.029,0,0,0-.845,5.512c-3.77,3.49-4.218,7.571-3.279,10.4a8.105,8.105,0,0,0,7.669,5.6c2.839,0,5.6-1.454,7.909-4.132a13.882,13.882,0,0,0,3.5.451,11.133,11.133,0,0,0,10.463-6.365,11.285,11.285,0,0,0,.5-8.941c-.852-2.255-2.887-5.346-7.731-7.748a6.938,6.938,0,0,0-1.8-4.026,7.085,7.085,0,0,0-5.2-2.228Z" transform="translate(-526.444 -347.111)"/><path class="k" d="M532.345,380.421c.212,5.484,7.411,9.085,12.937,1.255,3.214,1.378,8.644,1.423,11.7-2.585a9.591,9.591,0,0,1-.957,3.564c-2.7,5.645-9.1,5.787-12.71,4.234C536.124,397.083,526.078,387.9,532.345,380.421Z" transform="translate(-528.114 -360.699)"/><path class="l" d="M563.511,370.743a8.749,8.749,0,0,1-3,3.535,8.909,8.909,0,0,0,2.072-2.806c2.332-4.869.727-10.784-7.428-14.236A4.785,4.785,0,0,0,548,352.414a4.787,4.787,0,0,1,8.094,4.1C564.238,359.959,565.85,365.877,563.511,370.743Z" transform="translate(-535.602 -348.787)"/></g><g transform="translate(98.592 99.159)"><path class="j" d="M530.389,329.98c.4-4.006-1.72-10.214-8.072-11.114-5.482-.777-10.766,2.63-11.616,11.668-7.879,1.832-3.5,14.34,5.562,7.816,1.65,5.375,5.763,5.4,8.621,2.908C535.506,348.871,543.684,334.2,530.389,329.98Z" transform="translate(-504.333 -316.487)"/><path class="i" d="M519.144,317.081a10.629,10.629,0,0,1,1.5.107c6.351.9,8.47,7.108,8.072,11.114,10.633,3.374,7.532,13.433.431,13.433a10.265,10.265,0,0,1-5.936-2.155,5.962,5.962,0,0,1-3.827,1.6c-1.948,0-3.809-1.3-4.793-4.509a8.532,8.532,0,0,1-4.894,1.869c-5.444,0-6.941-8.227-.668-9.685.772-8.212,5.2-11.775,10.121-11.775m0-2.272h0c-5.089,0-10.816,3.277-12.2,12.345a7.125,7.125,0,0,0,2.747,13.659,9.222,9.222,0,0,0,3.842-.9,6.713,6.713,0,0,0,5.845,3.536,7.691,7.691,0,0,0,3.9-1.13,11.886,11.886,0,0,0,5.864,1.684,8.577,8.577,0,0,0,8.649-7.142c.5-3.26-1.034-7.7-6.78-10.134-.244-4.821-3.206-10.822-10.052-11.792a12.927,12.927,0,0,0-1.814-.129Z" transform="translate(-502.655 -314.809)"/><path class="k" d="M524.883,350.405c-2.86,2.494-6.97,2.47-8.621-2.9-8.358,6.008-12.739-4.156-7.183-7.209,1.473,2.09,4.611,3.033,8.708.083,1.652,5.372,5.761,5.4,8.621,2.9,4.205,3.011,8.027,2.538,10.283.593C539.34,349.4,532.79,356.067,524.883,350.405Z" transform="translate(-504.331 -325.637)"/><path class="l" d="M537.16,338.541c-.266-2.59-2.3-5.275-6.868-6.727.4-4.006-1.72-10.218-8.075-11.12-5.481-.772-10.766,2.637-11.614,11.669a4.907,4.907,0,0,0-3.951,3.614,4.826,4.826,0,0,1,4.05-5.445c.848-9.04,6.133-12.449,11.614-11.669,6.355.9,8.476,7.113,8.075,11.12C536.066,331.778,537.825,335.479,537.16,338.541Z" transform="translate(-504.334 -316.486)"/></g><g transform="translate(107.976 67.078)"><path class="j" d="M535.84,286.893c3.607,1.551,10,1.41,12.711-4.23,2.338-4.868.727-10.785-7.426-14.237.618-7.866-12.3-7.48-8.906,2.869-5.483-.049-6.719,3.767-5.243,7.159C516.77,286.087,528,298.012,535.84,286.893Z" transform="translate(-520.641 -260.704)"/><path class="i" d="M534.7,261.3a4.727,4.727,0,0,1,4.754,5.451c8.153,3.452,9.763,9.369,7.426,14.237a8.92,8.92,0,0,1-8.415,5.076,11.093,11.093,0,0,1-4.3-.846c-2.287,3.244-4.863,4.527-7.111,4.527-5.457,0-8.982-7.56-1.752-12.966-1.467-3.37-.257-7.159,5.138-7.159h.1c-1.85-5.639,1.143-8.32,4.152-8.319m0-2.272h0a6.821,6.821,0,0,0-5.608,2.8,7.989,7.989,0,0,0-1.313,5.82,6.812,6.812,0,0,0-4.264,2.863,7.029,7.029,0,0,0-.845,5.512c-3.771,3.49-4.219,7.571-3.279,10.4a8.106,8.106,0,0,0,7.668,5.6c2.839,0,5.6-1.454,7.91-4.132a13.887,13.887,0,0,0,3.5.451,11.133,11.133,0,0,0,10.463-6.365,11.284,11.284,0,0,0,.5-8.94c-.852-2.256-2.887-5.346-7.732-7.748a6.937,6.937,0,0,0-1.795-4.025,7.086,7.086,0,0,0-5.2-2.229Z" transform="translate(-518.972 -259.025)"/><path class="k" d="M528.61,286.074c.211,5.484,7.411,9.085,12.936,1.255,3.215,1.379,6.356,5.589,9.409,1.58a9.588,9.588,0,0,1-.957,3.564c-2.7,5.645-9.1,5.787-12.71,4.234C530.1,306.9,522.343,293.556,528.61,286.074Z" transform="translate(-522.09 -270.518)"/><path class="l" d="M556.038,282.657a8.743,8.743,0,0,1-3,3.535,8.9,8.9,0,0,0,2.072-2.806c2.332-4.869.727-10.784-7.428-14.236a4.785,4.785,0,0,0-7.154-4.82,4.787,4.787,0,0,1,8.094,4.095C556.766,271.873,558.378,277.791,556.038,282.657Z" transform="translate(-528.129 -260.701)"/></g><g transform="translate(94.519 85.191)"><path class="j" d="M517.66,304.916c1.2-2.728,1.136-7.582-3.126-9.674-3.679-1.806-8.18-.623-10.853,5.541-5.964-.52-5.757,9.286,2.119,6.777-.074,4.161,2.815,5.124,5.4,4.026C516.922,319.382,526.045,310.938,517.66,304.916Z" transform="translate(-497.246 -292.2)"/><path class="i" d="M509.673,292.793a7.229,7.229,0,0,1,3.185.77c4.262,2.093,4.327,6.947,3.126,9.674,5.975,4.291,3.062,9.811-1.179,9.811-1.711,0-3.639-.9-5.284-3.141a4.993,4.993,0,0,1-1.938.419c-1.9,0-3.515-1.321-3.46-4.445a7.927,7.927,0,0,1-2.392.411,3.611,3.611,0,1,1-.178-7.208c.146,0,.3.006.451.02,1.934-4.459,4.825-6.312,7.668-6.311m0-2.272v0c-3.7,0-6.966,2.3-9.121,6.364a5.692,5.692,0,0,0-4.186,2.808,6.071,6.071,0,0,0-.019,5.975,5.987,5.987,0,0,0,5.384,2.9q.232,0,.469-.013a5.9,5.9,0,0,0,1.414,2.441,5.5,5.5,0,0,0,3.968,1.607,6.724,6.724,0,0,0,1.151-.1,8.412,8.412,0,0,0,6.071,2.822,6.788,6.788,0,0,0,6.522-4.663c.9-2.812-.1-5.789-2.706-8.2.85-3.642-.016-8.605-4.762-10.936a9.451,9.451,0,0,0-4.186-1Z" transform="translate(-495.572 -290.521)"/><path class="k" d="M511.2,316.29c-2.584,1.1-5.471.137-5.4-4.022-7.26,2.307-8.008-5.85-3.4-6.722.556,1.809,2.548,3.193,6.108,2.059-.072,4.159,2.814,5.12,5.4,4.022,2.267,3.084,5.064,3.629,7.1,2.779C521.6,318.9,515.459,322.089,511.2,316.29Z" transform="translate(-497.245 -296.905)"/><path class="l" d="M520.506,312.493c.408-1.883-.4-4.238-3.287-6.311,1.2-2.727,1.137-7.584-3.127-9.678-3.679-1.8-8.181-.618-10.852,5.543a3.632,3.632,0,0,0-3.609,1.635,3.572,3.572,0,0,1,4.1-2.9c2.674-6.166,7.175-7.35,10.852-5.542,4.264,2.094,4.329,6.952,3.127,9.678C521.289,307.484,521.677,310.492,520.506,312.493Z" transform="translate(-497.296 -292.198)"/></g><g transform="translate(98.784 161.559)"><path class="j" d="M530.783,436.05c-1.37-4.525-6.461-10.3-13.756-8.423-6.3,1.624-10.495,7.7-7.35,17.882-7.722,5.532,2.654,17.129,9.55,5.975,4.208,5.087,8.68,3.265,10.658-.725C544.832,454.236,547.1,434.644,530.783,436.05Z" transform="translate(-504.669 -424.99)"/><path class="i" d="M518.139,425.583c5.792,0,9.777,4.867,10.964,8.789q.852-.073,1.635-.072c13.281,0,12.217,15.2.878,15.2a15.073,15.073,0,0,1-3.409-.415c-1.123,2.266-3.05,3.832-5.276,3.832-1.695,0-3.563-.909-5.382-3.107-2.092,3.385-4.5,4.674-6.635,4.674A5.763,5.763,0,0,1,508,443.829c-3.145-10.185,1.054-16.258,7.35-17.882a11.138,11.138,0,0,1,2.792-.365m0-2.272v0a13.473,13.473,0,0,0-3.359.437,13.128,13.128,0,0,0-8.334,6.25c-1.393,2.494-2.636,6.73-1.028,13.05a7.8,7.8,0,0,0-2.046,8.043,8.083,8.083,0,0,0,7.54,5.66,9.191,9.191,0,0,0,6.908-3.495,8.174,8.174,0,0,0,5.11,1.927,7.91,7.91,0,0,0,6.41-3.582,16.281,16.281,0,0,0,2.276.165c7.188,0,11.066-5.106,11.066-9.911,0-4.732-3.737-9.826-11.944-9.827h-.093c-2.044-4.562-6.663-8.716-12.505-8.717Z" transform="translate(-502.989 -423.311)"/><path class="k" d="M529.884,458.952c-1.979,3.992-6.449,5.815-10.657.731-6.363,10.276-15.687,1.224-11.034-4.588,2.538,1.6,6.366,1.215,9.482-3.828,4.209,5.084,8.677,3.261,10.657-.731,5.916,1.375,9.848-.859,11.42-3.984C545.111,451.354,541.008,461.536,529.884,458.952Z" transform="translate(-504.667 -433.186)"/><path class="l" d="M541.977,442.29c-1.454-2.689-4.864-4.688-10.476-4.206-1.368-4.526-6.464-10.309-13.762-8.429-6.293,1.629-10.492,7.7-7.348,17.883a5.763,5.763,0,0,0-2.659,5.7c-1.342-2.315-1.157-5.509,1.943-7.728-3.146-10.187,1.052-16.262,7.348-17.883,7.3-1.881,12.393,3.9,13.761,8.429C537.748,435.448,541.321,438.669,541.977,442.29Z" transform="translate(-504.668 -424.989)"/></g><g transform="translate(3.108 17.732)"><path class="n" d="M426.128,193.061l-12.355,2.765-69,15.441c2.571-4.269,5.9-7.2,9.649-8.17l.114-.033,64.236-18.407,13.736-3.936C430.054,183.515,427.893,187.745,426.128,193.061Z" transform="translate(-340.086 -176.408)"/><path class="i" d="M429.044,177.534c-2.452,2.794-4.612,7.024-6.378,12.34l-12.355,2.765-69,15.44c2.571-4.268,5.9-7.2,9.649-8.17l.114-.033,64.236-18.407,13.736-3.936m6.806-4.313-7.431,2.129-13.736,3.937-64.235,18.407-.091.026c-4.237,1.1-8.037,4.281-10.992,9.189l-2.739,4.548,5.181-1.159,69-15.441,12.355-2.764,1.254-.281.4-1.22c1.678-5.052,3.729-9.05,5.93-11.558l5.1-5.811Z" transform="translate(-336.625 -173.221)"/></g><path class="o" d="M413.772,198.735l-69,15.441c2.571-4.269,5.9-7.2,9.649-8.17l.114-.033,64.236-18.407A110.343,110.343,0,0,0,413.772,198.735Z" transform="translate(-336.978 -161.584)"/><g transform="translate(1.522 31.294)"><path class="p" d="M421.18,213.54l-12.962,2.066L339.8,226.533a33.192,33.192,0,0,1,2.859-6.148l69-15.441,12.355-2.765A85.156,85.156,0,0,0,421.18,213.54Z" transform="translate(-336.388 -199.087)"/><path class="i" d="M421.494,199.895a85.186,85.186,0,0,0-2.835,11.361L405.7,213.322l-68.418,10.927a33.261,33.261,0,0,1,2.859-6.148l69-15.44,12.355-2.765m3.414-3.092-3.91.875-12.355,2.765-69,15.441-.946.212-.5.829a35.542,35.542,0,0,0-3.058,6.569l-1.269,3.6,3.77-.6,68.418-10.926,12.962-2.067,1.588-.253.289-1.582a83.036,83.036,0,0,1,2.757-11.056l1.257-3.8Z" transform="translate(-333.867 -196.803)"/></g><path class="q" d="M408.218,217.649,339.8,228.576a33.193,33.193,0,0,1,2.859-6.148l69-15.441A108.417,108.417,0,0,0,408.218,217.649Z" transform="translate(-334.866 -169.836)"/><g transform="translate(0.351 42.996)"><path class="n" d="M418.432,232.039l-13.587,1.645-65.772,7.952-2.437.3a43.729,43.729,0,0,1,1.341-5.555c.151-.495.311-.974.479-1.451L406.873,224l12.962-2.066C419.247,225.112,418.771,228.5,418.432,232.039Z" transform="translate(-333.872 -219.183)"/><path class="i" d="M417.794,219.9c-.589,3.179-1.065,6.566-1.4,10.106L402.8,231.652,337.031,239.6l-2.437.3a43.7,43.7,0,0,1,1.341-5.555c.151-.495.311-.974.479-1.451l68.418-10.927,12.962-2.066m2.82-2.75-3.177.507-12.962,2.066-68.418,10.927-1.336.214-.449,1.276c-.192.545-.358,1.048-.508,1.54a45.929,45.929,0,0,0-1.406,5.83l-.526,3.015,3.038-.369,2.437-.3,65.771-7.952,13.588-1.646,1.814-.22.174-1.819c.327-3.41.79-6.744,1.376-9.908l.586-3.164Z" transform="translate(-331.83 -217.151)"/></g><path class="o" d="M405.836,235.211l-65.772,7.952c-.392-1.848-.759-3.619-1.1-5.259.151-.495.311-.974.479-1.451l68.418-10.927A93.523,93.523,0,0,0,405.836,235.211Z" transform="translate(-334.512 -177.713)"/><g transform="translate(0 53.256)"><path class="p" d="M417.191,251.862l-13.889.843-63.135,3.844-4.862.293a50.842,50.842,0,0,1,.765-7.444l2.437-.3,65.772-7.952,13.587-1.645C417.473,243.442,417.245,247.583,417.191,251.862Z" transform="translate(-332.956 -236.909)"/><path class="i" d="M416.131,237.587c-.393,3.938-.622,8.078-.676,12.357l-13.889.843-63.135,3.845-4.862.292a50.85,50.85,0,0,1,.765-7.444l2.437-.3,65.772-7.952,13.587-1.645m2.542-2.6-2.816.34-13.587,1.646L336.5,244.929l-2.438.3-1.662.2-.3,1.647a53.1,53.1,0,0,0-.8,7.777l-.079,2.488,2.486-.149,4.862-.293,63.137-3.844,13.888-.843,2.107-.128.026-2.111c.053-4.186.277-8.277.665-12.16l.282-2.821Z" transform="translate(-331.22 -234.991)"/></g><path class="q" d="M405.669,253.921l-63.135,3.844c-.582-2.516-1.142-5.04-1.66-7.447l65.772-7.952A81.9,81.9,0,0,0,405.669,253.921Z" transform="translate(-335.322 -184.869)"/><g transform="translate(0.047 65.794)"><path class="n" d="M417.472,273.158l-13.465-.143-62.2-.662-6.365-.07c-.09-1.033-.145-2.086-.172-3.149s-.026-2.122.013-3.163l4.862-.293,63.135-3.844,13.889-.843q-.034,3.006.039,6.083C417.257,269.136,417.349,271.166,417.472,273.158Z" transform="translate(-332.979 -258.577)"/><path class="i" d="M415.49,259.207q-.035,3.006.039,6.083c.05,2.061.142,4.091.265,6.083l-13.465-.143-62.2-.661-6.365-.07c-.09-1.032-.145-2.086-.172-3.149s-.026-2.122.013-3.163l4.862-.292,63.135-3.845,13.889-.843m2.3-2.415-2.437.148-13.889.843-63.135,3.845-4.861.292-2.058.124-.076,2.06c-.039,1.043-.043,2.155-.014,3.306s.09,2.25.179,3.286l.178,2.053,2.06.023,6.365.07,62.2.661,13.465.143,2.442.026-.151-2.438c-.126-2.051-.215-4.069-.262-6-.048-1.992-.061-4.011-.039-6l.028-2.441Z" transform="translate(-331.301 -256.792)"/></g><path class="o" d="M407.623,273.638l-62.2-.662c-.571-2.143-1.129-4.4-1.662-6.674l63.135-3.844A72.1,72.1,0,0,0,407.623,273.638Z" transform="translate(-336.548 -193.406)"/><g transform="translate(0.044 77.202)"><path class="p" d="M418.908,293.8l-11.953-.839-62.627-4.408-7.614-.533a51.311,51.311,0,0,1-1.131-7.4l6.365.07,62.2.662,13.465.143C417.888,285.774,418.328,289.885,418.908,293.8Z" transform="translate(-333.118 -278.327)"/><path class="i" d="M333.761,278.928l6.365.07,62.2.661,13.465.143c.276,4.274.715,8.384,1.3,12.3l-11.953-.839-62.627-4.408-7.614-.533a51.323,51.323,0,0,1-1.131-7.4m-2.464-2.3.2,2.481a53.617,53.617,0,0,0,1.182,7.724l.378,1.639,1.678.117,7.614.533,62.627,4.408,11.953.838,2.82.2-.414-2.8c-.581-3.929-1.01-8-1.275-12.113l-.135-2.1-2.108-.022-13.465-.143-62.2-.662-6.365-.07-2.489-.027Z" transform="translate(-331.297 -276.629)"/></g><path class="q" d="M411.657,293.014l-62.627-4.408c-.81-2.244-1.607-4.948-2.38-7.859l62.2.662A64.9,64.9,0,0,0,411.657,293.014Z" transform="translate(-337.776 -201.177)"/><g transform="translate(0.741 84.417)"><path class="n" d="M421.651,309.284l-11.407-1.237-59.6-6.465L339.72,300.4a44,44,0,0,1-2.172-6.909l7.614.533,62.627,4.408,11.953.839C420.263,302.784,420.9,306.139,421.651,309.284Z" transform="translate(-334.65 -291.007)"/><path class="i" d="M335.407,291.655l7.614.533,62.627,4.408,11.953.839c.52,3.518,1.159,6.874,1.908,10.018L408.1,306.215l-59.6-6.466-10.924-1.185a44,44,0,0,1-2.172-6.909m-2.9-2.48.684,2.987a46.321,46.321,0,0,0,2.285,7.266l.514,1.248,1.342.146,10.924,1.185,59.6,6.466,11.407,1.237,3.2.347-.746-3.131c-.731-3.07-1.361-6.376-1.871-9.825l-.267-1.806-1.821-.128-11.953-.838-62.627-4.407-7.615-.533-3.057-.213Z" transform="translate(-332.509 -289.175)"/></g><path class="o" d="M415.87,308.44l-59.6-6.465a12.666,12.666,0,0,1-3.22-2.656,23.223,23.223,0,0,1-2.261-4.906l62.627,4.408c.22.65.454,1.293.7,1.942A23.938,23.938,0,0,1,415.87,308.44Z" transform="translate(-339.534 -206.984)"/><g transform="translate(2.254 91.134)"><path class="p" d="M426.662,325.6l-21.247-3.647-33.337-5.725-27.588-4.736a33.338,33.338,0,0,1-3.167-5.989l10.924,1.186,59.6,6.465,11.407,1.237A86.061,86.061,0,0,0,426.662,325.6Z" transform="translate(-337.767 -302.829)"/><path class="i" d="M338.7,303.526l10.924,1.185,59.6,6.466,11.407,1.237a86.047,86.047,0,0,0,3.407,11.208l-21.247-3.647-33.337-5.724-27.588-4.736a33.3,33.3,0,0,1-3.166-5.989m-3.557-2.671,1.457,3.536a35.56,35.56,0,0,0,3.387,6.4l.543.8.953.164,27.588,4.736,33.337,5.725,21.248,3.647,3.949.678-1.446-3.736a83.909,83.909,0,0,1-3.315-10.911l-.369-1.563-1.6-.173-11.407-1.237-59.6-6.465-10.923-1.186-3.8-.413Z" transform="translate(-335.139 -300.855)"/></g><path class="q" d="M413.486,322.826c-7.813,2.253-21.423-1.175-33.337-5.725a114.761,114.761,0,0,1-19.831-9.539l59.6,6.465C420.066,318.935,417.563,321.653,413.486,322.826Z" transform="translate(-343.584 -212.571)"/><g transform="translate(4.135 96.659)"><path class="n" d="M435.989,342.025l-79-18.41-.12-.023c-3.787-.775-7.261-3.535-10.044-7.678l27.588,4.736,33.337,5.725L429,330.021C431.026,335.238,433.4,339.354,435.989,342.025Z" transform="translate(-341.988 -312.778)"/><path class="i" d="M343.252,313.6l27.588,4.736,33.337,5.724,21.247,3.647c2.024,5.217,4.4,9.333,6.987,12l-79-18.41-.12-.023c-3.787-.775-7.261-3.535-10.044-7.678m-4.842-3.136,2.957,4.4c3.2,4.771,7.171,7.758,11.474,8.637l.1.019,78.955,18.4,7.525,1.753-5.378-5.547c-2.331-2.4-4.579-6.293-6.5-11.243l-.465-1.2-1.268-.218-21.248-3.647-33.337-5.724-27.588-4.736-5.227-.9Z" transform="translate(-338.41 -310.461)"/></g><path class="r" d="M428.138,329.874c-7.813,2.253-21.423-1.175-33.337-5.725Z" transform="translate(-358.236 -219.618)"/><g transform="translate(70.993 134.865)"><path class="j" d="M472.349,393.535c2.472-1.3,5.26-4.891,3.359-8.913-1.64-3.472-5.629-5.233-11.187-2.279-4.065-3.865-9.64,3.441-2.406,6.2-2.483,3-.93,5.4,1.6,6.1C463.36,403.7,474.976,402.844,472.349,393.535Z" transform="translate(-456.342 -378.573)"/><path class="i" d="M468.109,379.167a6.324,6.324,0,0,1,5.922,3.777c1.9,4.022-.887,7.616-3.359,8.913,1.384,4.9-1.184,7.463-3.873,7.463-2.415,0-4.927-2.066-4.757-6.35-2.535-.7-4.087-3.1-1.6-6.1-5.777-2.2-3.387-7.307-.12-7.307a3.645,3.645,0,0,1,2.525,1.1,11.329,11.329,0,0,1,5.265-1.5m0-2.272v0a12.659,12.659,0,0,0-5.026,1.134,5.58,5.58,0,0,0-2.765-.74,5.675,5.675,0,0,0-3.02,10.465,5.445,5.445,0,0,0-.153,3.573,5.555,5.555,0,0,0,2.67,3.171,8.183,8.183,0,0,0,2.172,5.017,6.633,6.633,0,0,0,4.813,2.076,6.326,6.326,0,0,0,5.086-2.522,8.122,8.122,0,0,0,1.327-6.182c2.762-2.22,5.007-6.4,2.873-10.914a8.542,8.542,0,0,0-7.976-5.078Z" transform="translate(-454.665 -376.895)"/><path class="k" d="M463.721,394.937c-2.535-.705-4.088-3.095-1.606-6.1-6.667-2.55-2.451-8.963,1.436-6.909-.649,1.65,0,3.827,3.273,5.075-2.482,3-.928,5.394,1.607,6.1-.14,3.583,1.591,5.616,3.578,6.182C469.818,402.926,463.457,401.676,463.721,394.937Z" transform="translate(-456.343 -378.864)"/><path class="l" d="M470.867,400.72c1.4-1.142,2.179-3.341,1.277-6.544,2.473-1.3,5.262-4.893,3.361-8.917-1.643-3.469-5.633-5.23-11.187-2.277a3.4,3.4,0,0,0-3.6-.91,3.346,3.346,0,0,1,4.7.27c5.559-2.956,9.549-1.2,11.187,2.277,1.9,4.025-.888,7.621-3.361,8.917C474.366,397.508,472.894,399.937,470.867,400.72Z" transform="translate(-457.237 -378.572)"/></g><g transform="translate(138.895 63.202)"><path class="j" d="M593.439,266.92c1.52-2.342,2.188-6.841-1.439-9.416-3.131-2.222-7.471-1.8-10.869,3.5-5.438-1.377-6.718,7.723.941,6.586-.692,3.837,1.834,5.161,4.388,4.533C590.585,280.188,600.29,273.748,593.439,266.92Z" transform="translate(-574.415 -253.963)"/><path class="i" d="M586.519,254.556a6.558,6.558,0,0,1,3.8,1.269c3.627,2.575,2.959,7.074,1.439,9.416,4.579,4.565,1.762,8.954-1.842,8.954-1.787,0-3.769-1.081-5.137-3.756a5.019,5.019,0,0,1-1.19.149c-2.078,0-3.781-1.449-3.2-4.682a8.615,8.615,0,0,1-1.265.1c-5.76,0-4.965-6.827-.765-6.827a4.463,4.463,0,0,1,1.089.143c2.16-3.368,4.7-4.765,7.068-4.765m0-2.271c-3.011,0-5.865,1.629-8.149,4.622h-.007a5.522,5.522,0,0,0-4.843,2.772,5.717,5.717,0,0,0-.047,5.7,5.97,5.97,0,0,0,4.613,2.836,5.527,5.527,0,0,0,1.2,2.75,5.47,5.47,0,0,0,4.3,1.9,7.719,7.719,0,0,0,6.329,3.607,6.453,6.453,0,0,0,6.009-3.958c.5-1.2,1.239-4.171-1.446-7.62,1.317-3.288,1.226-8.027-2.846-10.917a8.826,8.826,0,0,0-5.115-1.688h0Z" transform="translate(-572.734 -252.285)"/><path class="k" d="M586.461,275.534c-2.556.627-5.08-.695-4.39-4.53-7.061,1.043-6.528-6.613-2.133-6.727.243,1.756,1.877,3.335,5.34,2.82-.691,3.836,1.834,5.158,4.389,4.531,1.634,3.193,4.139,4.117,6.148,3.636C595.69,279.511,589.532,281.538,586.461,275.534Z" transform="translate(-574.414 -257.38)"/><path class="l" d="M595.046,274.347c.66-1.68.263-3.98-2.093-6.33,1.521-2.341,2.19-6.843-1.439-9.42-3.132-2.219-7.473-1.8-10.868,3.5a3.4,3.4,0,0,0-3.584.971A3.347,3.347,0,0,1,581.29,261c3.4-5.3,7.739-5.72,10.868-3.5,3.629,2.577,2.96,7.079,1.439,9.42C596.522,269.832,596.43,272.672,595.046,274.347Z" transform="translate(-574.573 -253.962)"/></g><g transform="translate(33.766 161.022)"><path class="j" d="M406.059,429.29c-1.7-2.217-5.712-4.355-9.353-1.8-3.143,2.206-4.2,6.435-.349,11.412-3.119,4.662,5.025,8.917,6.52,1.319,3.383,1.938,5.477,0,5.742-2.614C417.6,436.425,414.789,425.122,406.059,429.29Z" transform="translate(-391.611 -424.056)"/><path class="i" d="M398.591,424.649a7.682,7.682,0,0,1,5.791,2.962,8.42,8.42,0,0,1,3.6-.918c5.718,0,6.557,8.235-1.04,9.234-.189,1.876-1.319,3.4-3.19,3.4a5.2,5.2,0,0,1-2.551-.787c-.592,3.012-2.23,4.161-3.8,4.161a3.405,3.405,0,0,1-2.724-5.48c-3.854-4.977-2.794-9.206.349-11.412a6.115,6.115,0,0,1,3.563-1.162m0-2.272a8.344,8.344,0,0,0-4.868,1.575,8.674,8.674,0,0,0-3.694,5.808,10.9,10.9,0,0,0,2.012,7.674,5.458,5.458,0,0,0,.305,4.5,5.668,5.668,0,0,0,10.256-.441,6.107,6.107,0,0,0,1.148.112,5.356,5.356,0,0,0,5.069-3.737c4.293-1.176,6.082-4.521,5.892-7.407a6.476,6.476,0,0,0-6.731-6.036,9.7,9.7,0,0,0-3.015.509,9.76,9.76,0,0,0-6.375-2.554Z" transform="translate(-389.933 -422.377)"/></g><path class="k" d="M409.926,439.358c-.266,2.618-2.357,4.554-5.74,2.617-1.383,7-8.418,3.935-7.053-.244,1.736.359,3.771-.65,4.447-4.086,3.382,1.936,5.474,0,5.739-2.617,3.556-.469,5.266-2.52,5.486-4.575C416.766,431.995,416.612,438.476,409.926,439.358Z" transform="translate(-359.153 -264.787)"/><g transform="translate(162.066 93.412)"><path class="j" d="M626.162,325.771c2.565,1.1,7.112,1,9.038-3.008,1.662-3.461.517-7.668-5.279-10.123.439-5.592-8.747-5.318-6.332,2.04-3.9-.035-4.777,2.679-3.728,5.09C612.6,325.2,620.588,333.677,626.162,325.771Z" transform="translate(-614.698 -306.493)"/><path class="i" d="M624.867,307.087a3.361,3.361,0,0,1,3.381,3.875c5.8,2.455,6.942,6.661,5.279,10.123a6.342,6.342,0,0,1-5.983,3.609,7.888,7.888,0,0,1-3.055-.6c-1.626,2.307-3.458,3.218-5.056,3.218-3.88,0-6.386-5.375-1.246-9.219-1.043-2.4-.182-5.09,3.654-5.09h.074c-1.315-4.009.813-5.915,2.951-5.915m0-2.272v0a5.5,5.5,0,0,0-4.519,2.26,6.164,6.164,0,0,0-1.1,4.048,5.448,5.448,0,0,0-2.881,2.151,5.567,5.567,0,0,0-.767,4.055,7.589,7.589,0,0,0-2.239,7.823,6.419,6.419,0,0,0,6.075,4.432,7.93,7.93,0,0,0,5.854-2.863,10.558,10.558,0,0,0,2.256.247,8.551,8.551,0,0,0,8.031-4.9,8.674,8.674,0,0,0,.38-6.873,10.9,10.9,0,0,0-5.513-5.71,5.6,5.6,0,0,0-1.392-2.875,5.7,5.7,0,0,0-4.182-1.795Z" transform="translate(-613.026 -304.815)"/><path class="k" d="M618.364,329.639c.15,3.9,5.269,6.46,9.2.893,2.286.98,6.146,1.012,8.317-1.838a6.817,6.817,0,0,1-.68,2.534c-1.922,4.014-6.473,4.114-9.037,3.011C621.051,341.487,613.908,334.959,618.364,329.639Z" transform="translate(-614.699 -314.961)"/><path class="l" d="M640.523,322.759a6.215,6.215,0,0,1-2.136,2.513,6.316,6.316,0,0,0,1.473-1.995c1.658-3.462.517-7.667-5.281-10.122a3.4,3.4,0,0,0-5.087-3.428,3.4,3.4,0,0,1,5.755,2.912C641.04,315.091,642.186,319.3,640.523,322.759Z" transform="translate(-620.023 -306.492)"/></g><g transform="translate(127.188 101.23)"><path class="j" d="M565.514,339.365c2.565,1.1,7.112,1,9.038-3.008,1.662-3.461.516-7.668-5.28-10.122.439-5.592-8.746-5.319-6.332,2.04-3.9-.035-4.778,2.678-3.728,5.09C551.955,338.791,559.941,347.271,565.514,339.365Z" transform="translate(-554.05 -320.088)"/><path class="i" d="M564.22,320.681a3.361,3.361,0,0,1,3.38,3.876c5.8,2.454,6.942,6.661,5.28,10.122a6.342,6.342,0,0,1-5.983,3.609,7.893,7.893,0,0,1-3.056-.6c-1.626,2.307-3.457,3.218-5.055,3.218-3.88,0-6.387-5.375-1.246-9.219-1.043-2.4-.182-5.09,3.654-5.09h.074c-1.316-4.009.813-5.915,2.951-5.915m0-2.272h0a5.5,5.5,0,0,0-4.519,2.26,6.161,6.161,0,0,0-1.1,4.048,5.442,5.442,0,0,0-2.881,2.151,5.565,5.565,0,0,0-.767,4.054,7.589,7.589,0,0,0-2.24,7.823,6.42,6.42,0,0,0,6.076,4.432,7.933,7.933,0,0,0,5.855-2.863,10.552,10.552,0,0,0,2.256.247,8.551,8.551,0,0,0,8.031-4.9,8.676,8.676,0,0,0,.38-6.873,10.9,10.9,0,0,0-5.514-5.71,5.589,5.589,0,0,0-1.392-2.874,5.7,5.7,0,0,0-4.182-1.8Z" transform="translate(-552.378 -318.409)"/><path class="k" d="M557.717,343.234c.15,3.9,5.269,6.46,9.2.892,2.286.981,6.147,1.013,8.318-1.837a6.817,6.817,0,0,1-.681,2.534c-1.922,4.014-6.472,4.115-9.037,3.011C560.4,355.082,553.261,348.554,557.717,343.234Z" transform="translate(-554.051 -328.556)"/><path class="l" d="M579.875,336.353a6.219,6.219,0,0,1-2.135,2.513,6.346,6.346,0,0,0,1.473-1.995c1.658-3.462.517-7.668-5.281-10.122a3.4,3.4,0,0,0-5.087-3.428,3.4,3.4,0,0,1,5.755,2.912C580.393,328.685,581.539,332.893,579.875,336.353Z" transform="translate(-559.375 -320.086)"/></g><g transform="translate(81.951 15.994)"><path class="s" d="M498.587,285.22c-2.438.062-4.8-1.157-7.007-3.431-7.541-7.772-13.264-27.891-13.859-51.612s4.111-44.106,11.253-52.247c2.092-2.383,4.388-3.717,6.826-3.778,2.933-.074,5.761,1.708,8.339,4.957a6.609,6.609,0,0,0-1.777-.2c-9.8.246-17.185,23.109-16.483,51.067s9.221,50.417,19.023,50.171a6.623,6.623,0,0,0,1.765-.292C504.255,283.225,501.519,285.146,498.587,285.22Z" transform="translate(-475.398 -171.877)"/><path class="i" d="M494.3,172.471c2.87,0,5.638,1.775,8.165,4.959a6.652,6.652,0,0,0-1.621-.2l-.156,0c-9.8.246-17.185,23.109-16.483,51.067.7,27.8,9.129,50.172,18.864,50.172l.159,0a6.624,6.624,0,0,0,1.765-.292c-2.412,3.374-5.148,5.295-8.08,5.369l-.175,0c-2.376,0-4.676-1.214-6.832-3.433-7.541-7.772-13.264-27.891-13.859-51.612s4.111-44.106,11.253-52.247c2.092-2.382,4.388-3.717,6.826-3.778l.175,0m0-2.272-.232,0c-3.04.077-5.891,1.607-8.476,4.55-7.776,8.865-12.415,29.983-11.817,53.8s6.289,44.674,14.5,53.136c2.657,2.736,5.5,4.123,8.462,4.123l.232,0c3.618-.091,6.939-2.217,9.872-6.319A2.272,2.272,0,0,0,504.327,276a4.364,4.364,0,0,1-1.161.194h-.1c-7.279,0-15.884-19.7-16.593-47.958-.715-28.494,6.947-48.556,14.269-48.739h.1a4.408,4.408,0,0,1,1.07.137,2.272,2.272,0,0,0,2.331-3.616c-3.064-3.861-6.41-5.818-9.944-5.818Z" transform="translate(-473.719 -170.199)"/></g><g transform="translate(97.665 118.322)"><path class="j" d="M511.4,363.572a6.44,6.44,0,0,0,7.813,5.127c3.967-.857,6.968-4.348,5.771-10.349,5.118-3.123-.4-10.056-5.415-3.634-2.211-3.036-5.078-2.036-6.572.269C504.107,352.732,501.322,364.157,511.4,363.572Z" transform="translate(-502.721 -349.807)"/><path class="i" d="M522.207,350.4c3.043,0,4.7,4.076,1.1,6.271,1.2,6-1.8,9.491-5.771,10.349a7.462,7.462,0,0,1-1.574.174,6.494,6.494,0,0,1-6.239-5.3c-.252.014-.5.022-.732.022-8.358,0-6.77-8.9.082-8.9a9.155,9.155,0,0,1,2.247.294,4.291,4.291,0,0,1,3.428-2.165,3.939,3.939,0,0,1,3.143,1.9c1.49-1.909,3.024-2.637,4.312-2.637m0-2.272h0a6.8,6.8,0,0,0-4.372,1.71,5.5,5.5,0,0,0-3.081-.968,6.138,6.138,0,0,0-4.34,1.955,10.674,10.674,0,0,0-1.335-.085c-5.029,0-8.034,3.6-8.034,7.087a5.846,5.846,0,0,0,2.189,4.587,8.488,8.488,0,0,0,4.835,1.74,8.6,8.6,0,0,0,7.9,5.312,9.767,9.767,0,0,0,2.054-.225c4.517-.976,8.482-4.917,7.74-11.6a5.57,5.57,0,0,0,1.665-5.581,5.36,5.36,0,0,0-5.218-3.932Z" transform="translate(-501.043 -348.129)"/><path class="k" d="M510.922,356.628c-3.306,2.53-2.59,8.073,4.512,7.665a6.473,6.473,0,0,0,6.381,5.294,8.008,8.008,0,0,1-2.6,1.042A6.434,6.434,0,0,1,511.4,365.5C502.16,366.039,503.733,356.475,510.922,356.628Z" transform="translate(-502.722 -351.739)"/><path class="l" d="M527.207,368.712a6.7,6.7,0,0,1-3.414-.1,6.951,6.951,0,0,0,2.582-.1c3.965-.861,6.968-4.347,5.77-10.35,3.109-1.9,2.3-5.193.057-6.055,2.829.272,4.245,4.133.776,6.252C534.175,364.365,531.174,367.857,527.207,368.712Z" transform="translate(-510.71 -349.823)"/></g><g transform="translate(87.064 66.12)"><path class="j" d="M495.746,278.315c2.564,1.1,7.112,1,9.038-3.008,1.662-3.461.517-7.668-5.279-10.122.439-5.593-8.747-5.319-6.332,2.04-3.9-.035-4.777,2.678-3.728,5.09C482.187,277.741,490.172,286.221,495.746,278.315Z" transform="translate(-484.282 -259.037)"/><path class="i" d="M494.451,259.631a3.361,3.361,0,0,1,3.381,3.876c5.8,2.454,6.941,6.661,5.279,10.122a6.342,6.342,0,0,1-5.983,3.609,7.878,7.878,0,0,1-3.055-.6c-1.626,2.307-3.457,3.218-5.056,3.218-3.88,0-6.386-5.375-1.246-9.219-1.043-2.4-.182-5.09,3.653-5.09h.075c-1.315-4.01.813-5.915,2.951-5.915m0-2.272h0a5.5,5.5,0,0,0-4.519,2.26,6.165,6.165,0,0,0-1.1,4.048,5.44,5.44,0,0,0-2.88,2.151,5.563,5.563,0,0,0-.768,4.054,7.588,7.588,0,0,0-2.239,7.824,6.418,6.418,0,0,0,6.075,4.431,7.928,7.928,0,0,0,5.855-2.863,10.555,10.555,0,0,0,2.256.247,8.551,8.551,0,0,0,8.031-4.9,8.675,8.675,0,0,0,.38-6.874,10.9,10.9,0,0,0-5.514-5.71,5.6,5.6,0,0,0-1.392-2.875,5.7,5.7,0,0,0-4.182-1.795Z" transform="translate(-482.61 -257.359)"/><path class="k" d="M487.948,282.185c.15,3.9,5.269,6.459,9.2.892,2.285.981,6.146,1.012,8.317-1.837a6.816,6.816,0,0,1-.68,2.534c-1.922,4.014-6.473,4.115-9.037,3.011C490.635,294.031,483.492,287.5,487.948,282.185Z" transform="translate(-484.283 -267.506)"/><path class="l" d="M510.107,275.3a6.222,6.222,0,0,1-2.136,2.513,6.332,6.332,0,0,0,1.473-2c1.658-3.462.517-7.668-5.281-10.122a3.4,3.4,0,0,0-5.087-3.428,3.4,3.4,0,0,1,5.755,2.912C510.624,267.635,511.77,271.843,510.107,275.3Z" transform="translate(-489.606 -259.036)"/></g><g transform="translate(133.987 0)"><path class="j" d="M575.5,160.153c1.786,1.568,5.494,2.685,8.109-.055,2.257-2.364,2.438-6.071-1.608-9.585,1.828-4.412-5.68-6.609-5.663-.017-3.147-1.055-4.573.91-4.359,3.138C564.675,156.118,568.906,165.085,575.5,160.153Z" transform="translate(-565.876 -144.066)"/><path class="i" d="M577.686,144.66a2.888,2.888,0,0,1,2.639,4.176c4.046,3.513,3.865,7.221,1.608,9.585a5.176,5.176,0,0,1-3.839,1.666,6.742,6.742,0,0,1-4.269-1.612,6.366,6.366,0,0,1-3.751,1.457c-4.11,0-5.542-6.013.231-7.975-.173-1.8.726-3.432,2.74-3.432a5.128,5.128,0,0,1,1.618.293c-.007-2.974,1.516-4.16,3.024-4.159m0-2.272a4.952,4.952,0,0,0-3.531,1.461,5.776,5.776,0,0,0-1.41,2.412,4.857,4.857,0,0,0-3.394,1.555,5.178,5.178,0,0,0-1.25,2.618,6.635,6.635,0,0,0-3.825,6.9,5.76,5.76,0,0,0,5.8,4.868,7.868,7.868,0,0,0,3.7-1,8.979,8.979,0,0,0,4.324,1.159,7.427,7.427,0,0,0,5.482-2.369,7.719,7.719,0,0,0,2.211-5.712,9.545,9.545,0,0,0-2.942-6.178,5.029,5.029,0,0,0-.8-3.4,5.293,5.293,0,0,0-4.359-2.312Z" transform="translate(-564.2 -142.388)"/><path class="k" d="M570.4,160.315c-.905,3.2,2.564,6.617,7.211,3.145,1.592,1.4,4.709,2.438,7.217.7a5.8,5.8,0,0,1-1.218,1.872c-2.613,2.743-6.323,1.626-8.108.057C569.454,170.613,565.392,163.448,570.4,160.315Z" transform="translate(-565.877 -150.005)"/><path class="l" d="M590.972,160.1a5.285,5.285,0,0,1-2.391,1.472,5.39,5.39,0,0,0,1.718-1.227c2.254-2.366,2.438-6.071-1.609-9.585a2.9,2.9,0,0,0-3.215-4.114,2.9,2.9,0,0,1,3.892,3.873C593.411,154.025,593.23,157.734,590.972,160.1Z" transform="translate(-573.24 -144.066)"/></g></g><g transform="translate(122.287 188.231)"><circle class="j" cx="3.23" cy="3.23" r="3.23" transform="translate(2.272 2.272)"/><path class="i" d="M443.192,360.487a3.23,3.23,0,1,1-3.23,3.23,3.231,3.231,0,0,1,3.23-3.23m0-2.272a5.5,5.5,0,1,0,5.5,5.5,5.508,5.508,0,0,0-5.5-5.5Z" transform="translate(-437.69 -358.215)"/></g><g transform="translate(221.139 195.072)"><circle class="j" cx="3.23" cy="3.23" r="3.23" transform="translate(2.272 2.271)"/><path class="i" d="M596.043,371.041a3.23,3.23,0,1,1-3.23,3.23,3.23,3.23,0,0,1,3.23-3.23m0-2.272a5.5,5.5,0,1,0,5.5,5.5,5.508,5.508,0,0,0-5.5-5.5Z" transform="translate(-590.541 -368.769)"/></g><g transform="translate(144.275 187.7)"><circle class="j" cx="1.615" cy="1.615" r="1.615" transform="translate(2.272 2.272)"/><path class="i" d="M475.875,360.061a1.615,1.615,0,1,1-1.615,1.615,1.615,1.615,0,0,1,1.615-1.615m0-2.272a3.887,3.887,0,1,0,3.887,3.887,3.892,3.892,0,0,0-3.887-3.887Z" transform="translate(-471.988 -357.789)"/></g><g transform="translate(263.667 152.004)"><circle class="j" cx="1.615" cy="1.615" r="1.615" transform="translate(2.272 2.272)"/><path class="i" d="M653.577,304.913a1.615,1.615,0,1,1-1.615,1.615,1.615,1.615,0,0,1,1.615-1.615m0-2.272a3.887,3.887,0,1,0,3.886,3.887,3.891,3.891,0,0,0-3.886-3.887Z" transform="translate(-649.69 -302.641)"/></g><g transform="translate(196.117 115.993)"><circle class="j" cx="2.349" cy="2.349" r="2.349" transform="translate(2.272 2.272)"/><path class="i" d="M556.694,249.168a2.35,2.35,0,1,1-2.349,2.349,2.349,2.349,0,0,1,2.349-2.349m0-2.272a4.621,4.621,0,1,0,4.621,4.621,4.626,4.626,0,0,0-4.621-4.621Z" transform="translate(-552.073 -246.896)"/></g><g transform="translate(238.137 182.138)"><circle class="k" cx="2.349" cy="2.349" r="2.349" transform="translate(2.272 2.272)"/><path class="i" d="M621.715,351.3a2.349,2.349,0,1,1-2.349,2.349,2.35,2.35,0,0,1,2.349-2.349m0-2.272a4.621,4.621,0,1,0,4.622,4.621,4.626,4.626,0,0,0-4.622-4.621Z" transform="translate(-617.094 -349.024)"/></g></g></g></svg>