<svg xmlns="http://www.w3.org/2000/svg" xmlns:xlink="http://www.w3.org/1999/xlink" width="76.134" height="29.61" viewBox="0 0 76.134 29.61"><defs><style>.a{fill:#ec2027;}.b{fill:url(#a);}.c{fill:#fff;}</style><linearGradient id="a" x1="-45.942" y1="78.256" x2="-46.149" y2="77.713" gradientUnits="objectBoundingBox"><stop offset="0" stop-color="#fff"/><stop offset="0.093" stop-color="#fef5f5"/><stop offset="0.252" stop-color="#fcdadb"/><stop offset="0.457" stop-color="#f9aeb1"/><stop offset="0.7" stop-color="#f47176"/><stop offset="0.973" stop-color="#ee242c"/><stop offset="1" stop-color="#ed1c24"/></linearGradient></defs><path class="a" d="M94.692,22.08a7.531,7.531,0,0,1-7.531,7.531h-29.8a7.531,7.531,0,0,1-7.531-7.531V7.531A7.531,7.531,0,0,1,57.359,0h29.8a7.531,7.531,0,0,1,7.531,7.531V22.08Z" transform="translate(-18.558)"/><g transform="translate(60.506 1.307)"><path class="b" d="M96.414,2.362s13.7-1.885,14.075,4.146v4.9Z" transform="translate(-96.414 -2.083)"/></g><g transform="translate(35.644 4.786)"><path class="c" d="M59.907,26.457V10.736H56.8V7.626H65.71v3.11H62.6V26.457ZM74.139,12.315V26.457h-2.47V25.052a2.486,2.486,0,0,1-2.287,1.782q-2.427,0-2.427-3.41V12.315h2.432v9.24a7.048,7.048,0,0,0,.131,1.626q.234.843.936.844.759,0,1.012-.917a7.751,7.751,0,0,0,.14-1.76V12.315Zm2.173,14.142V7.626h2.52v5.886a2.194,2.194,0,0,1,2.137-1.573q1.92,0,2.513,2.737a25.572,25.572,0,0,1,.3,4.778,23.5,23.5,0,0,1-.329,4.716q-.62,2.663-2.539,2.663a2.272,2.272,0,0,1-2.21-1.856v1.479H76.311Zm3.762-11.771q-1.033,0-1.269,2.176-.048.441-.047,3.118a22.138,22.138,0,0,0,.085,2.579q.246,1.576,1.232,1.577.92,0,1.117-1.932.048-.4.048-2.774,0-2.456-.038-2.8Q81,14.685,80.073,14.685Zm10.4,6.919h2.368q0,.1.009.275c.008.118.01.21.01.275a5.662,5.662,0,0,1-.9,3.562,3.389,3.389,0,0,1-2.8,1.117,3.1,3.1,0,0,1-2.83-1.356,7.126,7.126,0,0,1-.876-3.14q-.085-.9-.085-3.41,0-2.016.085-2.87a6.09,6.09,0,0,1,.744-2.639,3.32,3.32,0,0,1,3.028-1.479,3.157,3.157,0,0,1,2.942,1.6q.753,1.294.752,5.225v1.074H87.966c-.018.156-.028.457-.028.9a13.19,13.19,0,0,0,.132,2.251q.273,1.383,1.128,1.383,1.272,0,1.271-2.771Zm-2.524-4.011h2.439V17a6.128,6.128,0,0,0-.17-1.732,1.043,1.043,0,0,0-1.062-.817.981.981,0,0,0-.95.561A4.229,4.229,0,0,0,87.92,17l.013.2Q87.945,17.4,87.945,17.593Z" transform="translate(-56.797 -7.626)"/></g><g transform="translate(0 4.786)"><path d="M3.82,26.563V18.534L0,7.626H3.007l2.2,7.124L7.385,7.626h2.922L6.556,18.534v8.03H3.82Zm7.423-7.1a16.979,16.979,0,0,1,.558-5.211,3.211,3.211,0,0,1,3.289-2.286,3.227,3.227,0,0,1,3.3,2.286,16.9,16.9,0,0,1,.558,5.211,16.888,16.888,0,0,1-.558,5.209,3.226,3.226,0,0,1-3.3,2.274A3.21,3.21,0,0,1,11.8,24.657a16.834,16.834,0,0,1-.558-5.2Zm2.6.184q0,2.641.028,2.874.2,1.9,1.2,1.9T16.3,22.787q.047-.357.047-2.665V18.735q0-2.162-.056-2.6-.236-1.621-1.2-1.621-.94,0-1.175,1.425a21.512,21.512,0,0,0-.075,2.394v1.314Zm14.187-7.3V26.563H25.544V25.15a2.5,2.5,0,0,1-2.3,1.792q-2.442,0-2.442-3.428V12.342h2.446v9.292a7.1,7.1,0,0,0,.131,1.634q.235.849.941.85.762,0,1.017-.922a7.78,7.78,0,0,0,.141-1.77V12.342h2.548Z" transform="translate(0 -7.626)"/></g></svg>