<svg xmlns="http://www.w3.org/2000/svg" xmlns:xlink="http://www.w3.org/1999/xlink" width="149" height="108" viewBox="0 0 149 108"><defs><style>.a{fill:none;}.b{clip-path:url(#a);}.c{fill:#f68c35;}.d{opacity:0.8;}.e{clip-path:url(#b);}.f{fill:#de2f44;}.g{opacity:0.5;}.h{clip-path:url(#c);}.i{fill:#ed212c;}.j{opacity:0.6;}.k{clip-path:url(#d);}.l{fill:#cfd0e9;}.m{fill:#29266f;}.n{fill:#8086c1;}.o{fill:#fac3b5;}.p{fill:#ea897f;}</style><clipPath id="a"><rect class="a" width="149" height="108" rx="8" transform="translate(-0.438)"/></clipPath><clipPath id="b"><rect class="a" width="116.208" height="104.618"/></clipPath><clipPath id="c"><rect class="a" width="52.745" height="47.485"/></clipPath><clipPath id="d"><rect class="a" width="84.582" height="76.146"/></clipPath></defs><g transform="translate(0.438 0)"><g transform="translate(0 0)"><g class="b" transform="translate(0 0)"><path class="c" d="M196.3,168.347H51.25a9.47,9.47,0,0,1-9.442-9.442V62.272A9.47,9.47,0,0,1,51.25,52.83H196.3a9.47,9.47,0,0,1,9.442,9.442v96.633a9.47,9.47,0,0,1-9.442,9.442" transform="translate(-49.266 -58.006)"/><g class="d" transform="translate(-11.959 -15.034)"><g class="e"><path class="f" d="M57.415,32.447,75.329,0l2.756,36.745,31.234-18.373L86.353,49.148l20.21,4.83L86.353,66.6l29.856,24.8L79.922,79.463l2.3,20.669L61.549,83.6,52.363,94.111,50.066,83.6,15.158,104.618,41.8,67.521,25.263,61.55l13.32-4.134L0,26.182,49.148,42.955V26.641Z" transform="translate(0 -0.001)"/></g></g><g class="g" transform="translate(77.876 10.727)"><g class="h"><path class="i" d="M340.072,104.771,348.2,90.043l1.251,16.678,14.177-8.339-10.424,13.968,9.173,2.192-9.173,5.73,13.551,11.258-16.47-5.421,1.042,9.382-9.382-7.5-4.17,4.769-1.042-4.769-15.844,9.538,12.092-16.838-7.505-2.71,6.046-1.876-17.512-14.176,22.308,7.613v-7.4Z" transform="translate(-314.012 -90.043)"/></g></g><g class="j" transform="translate(87.036 58.601)"><g class="k"><path class="i" d="M387.818,281l13.038-23.617,2.006,26.746L425.6,270.754l-16.716,22.4,14.71,3.515-14.71,9.189,21.731,18.053L404.2,315.219l1.672,15.044-15.044-12.03-6.686,7.647-1.672-7.647L357.06,333.528l19.391-27-12.036-4.346,9.7-3.009-28.083-22.733L381.8,288.645V276.772Z" transform="translate(-346.028 -257.382)"/></g></g><path class="l" d="M264.735,356.053l18.131-7.986s15.109,15.864,15.54,16.188,1.079,4.641,1.079,5.072-18.886,0-18.886,0-3.346-6.8-15.865-13.274" transform="translate(-200.956 -263.522)"/><path class="m" d="M292.8,368.337c-1.28,0-2.885-.011-4.908-.035-4.619-.054-9.246-.159-9.292-.16a.792.792,0,0,1-.693-.443c-.032-.064-3.43-6.668-15.518-12.92a.792.792,0,0,1,.045-1.429l18.131-7.986a.792.792,0,0,1,.893.179c5.93,6.226,14.944,15.659,15.471,16.124.877.756,1.367,5.637,1.367,5.683a.833.833,0,0,1-.246.581c-.253.247-.417.406-5.251.406m-13.709-1.769c6,.133,15.045.261,17.547.12a24.655,24.655,0,0,0-.8-3.877c-1.192-1.138-10.61-11.012-15.144-15.772l-16.129,7.1c9.871,5.422,13.6,10.866,14.525,12.425m16.785-3.722a.588.588,0,0,0,.074.066.931.931,0,0,1-.074-.066m-.054-.068h0Z" transform="translate(-198.979 -261.544)"/><path class="l" d="M155.033,357.875s-12.519,14.353-12.843,15.864a24.879,24.879,0,0,0-.432,2.782h21.153l6.583-10.726Z" transform="translate(-113.163 -270.524)"/><path class="m" d="M160.933,375.337H139.781a.793.793,0,0,1-.79-.86,25.5,25.5,0,0,1,.446-2.881c.331-1.545,9.216-11.857,13.02-16.22a.794.794,0,0,1,.978-.174l14.461,7.92a.793.793,0,0,1,.295,1.11l-6.583,10.726a.793.793,0,0,1-.676.378m-20.263-1.585H160.49l5.916-9.638L153.234,356.9c-5.748,6.606-11.889,14-12.254,15.057-.145.679-.245,1.315-.31,1.8" transform="translate(-111.184 -268.547)"/><path class="l" d="M207.013,316.38h11.332s5.288,4.641,6.259,6.8-1.4,2.6-1.4,2.6l-17.375,7.653-4.212-11.312-4.7,13.248-12.993-7.116s-2.7-2.266-1.295-3.993,5.518-6.8,5.518-6.8Z" transform="translate(-142.047 -240.901)"/><path class="m" d="M194.91,334.182a.791.791,0,0,1-.381-.1l-12.993-7.116a.794.794,0,0,1-.129-.088c-1.224-1.028-2.9-3.259-1.4-5.1,1.4-1.726,5.518-6.8,5.518-6.8a.791.791,0,0,1,.57-.292l18.872-1.078h11.377a.792.792,0,0,1,.523.2c.555.487,5.447,4.819,6.459,7.07a2.548,2.548,0,0,1,.056,2.31,2.989,2.989,0,0,1-1.935,1.372l-17.3,7.621a.794.794,0,0,1-1.063-.449l-3.451-9.27-3.974,11.194a.793.793,0,0,1-.747.528m-12.534-8.561,12.1,6.626,4.392-12.37a.793.793,0,0,1,.741-.528.8.8,0,0,1,.749.516l3.918,10.524,16.607-7.314a.793.793,0,0,1,.175-.054,1.5,1.5,0,0,0,.923-.573,1.087,1.087,0,0,0-.1-.921c-.7-1.563-4.259-4.926-5.837-6.332H205.035l-18.5,1.057c-.872,1.075-4.09,5.042-5.3,6.528-.8.986.824,2.553,1.139,2.841" transform="translate(-140.047 -238.923)"/><path class="n" d="M270.959,358.7l16.188-7.078,2.159,2.113s-7.015,3.885-7.285,4.317-1.025,1.659-.594,2.476,4.587,4.324,5.126,5.079,3.993,4.317,4.047,5.612h-5.018s-4.047-7.231-14.623-12.519" transform="translate(-205.4 -266.058)"/><path class="n" d="M182.218,363.293s5.8,3.116,6.556,4.256a7.759,7.759,0,0,1,.54,6.266c-.809,2.914-1.349,4.425-1.349,4.425h3.346l5.99-9.5-13.328-7.284Z" transform="translate(-142.047 -273.083)"/><path class="n" d="M199.4,323.735l-1.619,2.051s7.609,3.939,12.9,4.91l.917-2.752s-7.5-1.133-12.2-4.209" transform="translate(-153.154 -246.151)"/><path class="n" d="M254.361,325.01s3.669.054,4.047,0,.432-.864.432-1.511V319.02h10.684l3.076,3.007H260.944s.971,4.98-.7,5.3a43.343,43.343,0,0,1-4.964.428Z" transform="translate(-193.55 -242.785)"/><path class="m" d="M222.486,331.846,217.5,357.1s5.96-1.079,6.068-2.374,3.157-11.332,3.157-11.332l3.42,11.116s5.4,3.562,6.266,2.59-6.266-23.709-6.266-23.709-6.361.183-7.656-1.544" transform="translate(-167.233 -251.942)"/><path class="l" d="M196.267,177.56l-13.706,2.374s-3.022,2.374-3.238,4.1-2.482,26.225-2.482,26.225a7.3,7.3,0,0,0,1.187,3.669c1.079,1.3,12.195,9.929,24.606,9.281,0,0-.54-10.037,1.943-15.648,0,0-12.519-1.079-15.109-3.885l-1.619-16.3,2.374,16.08s12.2,3.993,14.893,3.346,5.4-1.079,5.4-1.079l2.158-12.627v5.72s9.713,5.72,11.116,5.72,11.763.539,14.138-2.266l-1.187-21.369-12.95,9.173-18.67-10.037Z" transform="translate(-138.208 -141.795)"/><path class="m" d="M199.354,222.06c-11.735,0-22.435-7.827-23.913-9.6a8.04,8.04,0,0,1-1.37-4.141.816.816,0,0,1,0-.109c.093-1,2.27-24.53,2.485-26.25.249-1.993,3.2-4.362,3.534-4.626a.792.792,0,0,1,.354-.158l13.706-2.374a.8.8,0,0,1,.349.018l8.849,2.482a.8.8,0,0,1,.161.065l18.238,9.8,12.55-8.889a.793.793,0,0,1,1.25.6l1.187,21.369a.79.79,0,0,1-.186.556c-2.144,2.534-9.09,2.673-14.127,2.558-.276-.007-.486-.011-.617-.011-1.445,0-8.383-3.986-11.416-5.77l-1.077,6.3a.792.792,0,0,1-.656.649c-.026,0-2.655.427-5.268,1.051a.8.8,0,0,1-.068.322c-2.376,5.371-1.881,15.186-1.876,15.285a.793.793,0,0,1-.75.834c-.449.024-.9.035-1.343.035m-23.7-13.761a6.333,6.333,0,0,0,1,3.147c.817.98,11.167,9.284,23.175,9.026-.068-2.364-.1-9.339,1.639-14.2-3.243-.339-12.215-1.489-14.565-4.035a.791.791,0,0,1-.206-.459l-1.619-16.3a.793.793,0,0,1,1.573-.194l2.3,15.594c4.686,1.51,12.249,3.594,14,3.177,1.967-.473,3.953-.834,4.894-1l2.063-12.072a.793.793,0,0,1,1.574.134v5.266c4.488,2.629,9.485,5.309,10.336,5.382.126,0,.348,0,.64.011,8.463.192,11.587-.819,12.675-1.788L234.047,180.4l-11.781,8.345a.793.793,0,0,1-.833.051l-18.594-10-8.593-2.41L180.919,178.7c-1.075.877-2.666,2.482-2.788,3.453-.207,1.654-2.351,24.81-2.474,26.142" transform="translate(-136.23 -139.818)"/><path class="n" d="M190.17,183.032s12.384-2.1,13.112-2.266l.445,3.481-16.8,6.273.364-3.885s.162-1.619,2.873-3.6" transform="translate(-145.412 -144.084)"/><path class="n" d="M247.068,189.962l3.278,1.646s-4.613,15.907-11.008,22.1L235.17,212.5s10.441-12.222,11.9-22.542" transform="translate(-179.85 -150.649)"/><path class="n" d="M229.752,181.491s1.473,11.937,5.561,16.551l2.4-4.594s-2.563-3.858-3.858-12.681Z" transform="translate(-175.982 -144.085)"/><path class="n" d="M304.829,231.47s.513,3.463,1.97,4.677,8.337,4.371,9.065,4.775,10.01-.324,12.168-2.347l.324-.243v2.05s-.566,1.322-6.368,1.781l-6.988.108-10.279-5.4Z" transform="translate(-229.503 -180.282)"/><path class="m" d="M203.91,269.931a.793.793,0,0,1-.512-1.4,18.963,18.963,0,0,1,4.554-2.4.792.792,0,0,1,.55,1.486,17.768,17.768,0,0,0-4.08,2.128.791.791,0,0,1-.512.187" transform="translate(-156.967 -204.99)"/><path class="m" d="M326.131,223.038a.793.793,0,0,1-.234-1.55,15.677,15.677,0,0,0,3.345-2.71.792.792,0,1,1,1.116,1.125c-.455.452-2.789,2.727-3.993,3.1a.8.8,0,0,1-.234.036" transform="translate(-244.222 -171.058)"/><path class="m" d="M247.763,216.633a.793.793,0,0,1-.574-1.339,74.747,74.747,0,0,0,4.561-6.373c3.637-5.371,6.965-15.335,7-15.435a.792.792,0,1,1,1.5.5c-.138.417-3.429,10.271-7.19,15.825a71.168,71.168,0,0,1-4.724,6.575.789.789,0,0,1-.575.247" transform="translate(-188.274 -152.777)"/><path class="m" d="M232.439,195.972a.792.792,0,0,1-.676-.378c-.09-.146-2.2-3.589-2.763-4.889a33.882,33.882,0,0,1-2.871-11.906.793.793,0,0,1,.782-.8h.01a.793.793,0,0,1,.792.782,32.943,32.943,0,0,0,2.741,11.3c.518,1.2,2.638,4.654,2.659,4.689a.792.792,0,0,1-.675,1.207" transform="translate(-173.394 -142.107)"/><path class="m" d="M233.191,225.2a.793.793,0,0,1-.647-1.25,97.25,97.25,0,0,0,9.387-16.821.793.793,0,1,1,1.466.6,99.062,99.062,0,0,1-9.559,17.133.792.792,0,0,1-.648.335" transform="translate(-177.871 -162.556)"/><path class="o" d="M270.287,277.341s4.424-2.806,5.936-1.835,0,2.7,2.266,3.13,3.238-1.511,3.238,2.7,0,5.72-1.511,5.72H268.884s.324-7.446,1.4-9.713" transform="translate(-203.918 -211.575)"/><path class="m" d="M278.238,285.888H266.907a.792.792,0,0,1-.792-.827c.034-.779.363-7.675,1.479-10.019a.794.794,0,0,1,.291-.329c1.138-.722,4.991-2.987,6.789-1.832a2.643,2.643,0,0,1,1.176,2.112c.087.639.1.772.81.906a4.047,4.047,0,0,0,1.431-.027,1.972,1.972,0,0,1,1.71.277c.547.472.741,1.316.741,3.227a26.347,26.347,0,0,1-.206,4.6,2.049,2.049,0,0,1-2.1,1.912m-10.5-1.585h10.5c.273,0,.41,0,.546-.651a26.721,26.721,0,0,0,.172-4.276,6.078,6.078,0,0,0-.179-1.989,4.431,4.431,0,0,0-.453.053,5.574,5.574,0,0,1-1.961.016,2.275,2.275,0,0,1-2.084-2.25c-.072-.527-.118-.77-.463-.991-.615-.395-3.012.567-4.879,1.711-.679,1.708-1.058,6.036-1.2,8.378" transform="translate(-201.941 -209.616)"/><path class="o" d="M386.2,170.658a7.344,7.344,0,0,1,5.72-7.122,8.878,8.878,0,0,1,2.482,1.214s1.835-2.4,3.993-1.214,2.05,7.446,1.727,8.094-13.3,10.158-13.3,10.158Z" transform="translate(-287.673 -131.548)"/><path class="m" d="M384.844,180.607a.793.793,0,0,1-.791-.749l-.618-11.13c0-.009,0-.019,0-.029,0-.064-.046-6.374,6.327-7.908a.786.786,0,0,1,.429.017,11.985,11.985,0,0,1,2.126.917,3.787,3.787,0,0,1,4.487-.858c2.708,1.489,2.5,8.254,2.054,9.143-.1.2-.41.819-13.544,10.443a.793.793,0,0,1-.468.153m.174-11.948.536,9.65c4.629-3.405,11.028-8.19,11.888-9.046.264-1.1.081-6.19-1.4-7.007-1.543-.848-2.967.982-2.981,1a.793.793,0,0,1-1.178.091,7.18,7.18,0,0,0-1.965-.96,6.508,6.508,0,0,0-4.9,6.271" transform="translate(-285.696 -129.575)"/><path class="o" d="M247.357,168.6l-.728,3.319s1.079,9.281,3.669,12.195c0,0,3.669-4.209,4.1-8.85v-3.993s-1.349.27-7.042-2.671" transform="translate(-188.03 -135.399)"/><path class="m" d="M248.32,182.929a.794.794,0,0,1-.592-.266c-2.725-3.065-3.819-12.241-3.864-12.63a.794.794,0,0,1,.013-.261l.728-3.319a.793.793,0,0,1,1.138-.534c4.734,2.446,6.3,2.585,6.548,2.589a.69.69,0,0,1,.642.122.775.775,0,0,1,.281.664v3.993c0,.025,0,.049,0,.073-.45,4.839-4.136,9.117-4.292,9.3a.794.794,0,0,1-.594.272Zm-2.867-12.948c.286,2.355,1.276,8.107,2.894,10.837a16.612,16.612,0,0,0,3.281-7.568v-3.231a23.672,23.672,0,0,1-5.694-2.225Z" transform="translate(-186.052 -133.422)"/><path class="p" d="M250.108,173.033s4.693,2.266,5.5,2.212v1.187l-5.5,2.213s-1.458-5.234,0-5.612" transform="translate(-190.052 -138.564)"/><path class="m" d="M404.218,174.3a.793.793,0,0,1-.793-.793V170.7a5.589,5.589,0,0,1,2.914-4.78.793.793,0,0,1,.724,1.41,3.989,3.989,0,0,0-2.053,3.37V173.5a.793.793,0,0,1-.793.793" transform="translate(-299.969 -133.421)"/><path class="m" d="M229.28,103.178s-7.606-1.818-6.119-8.7,7.387-13.456,15.517-8.84c0,0,7.912.392,9.223,7.185s-.087,12.694-18.621,10.353" transform="translate(-171.139 -75.073)"/><path class="m" d="M234.954,102.747a59.343,59.343,0,0,1-7.358-.522.693.693,0,0,1-.069-.012c-.082-.02-8.2-2.05-6.6-9.457,1.013-4.692,3.787-8.566,7.238-10.11,2.789-1.249,5.932-.979,9.1.778,1.17.108,8.378,1.043,9.661,7.691.528,2.732.841,6.179-1.431,8.6-1.9,2.024-5.372,3.028-10.542,3.028m-7.16-1.789c8.9,1.12,14.383.428,16.766-2.115,1.464-1.562,1.806-3.871,1.108-7.485-1.2-6.227-8.552-6.663-8.626-6.666a.646.646,0,0,1-.285-.083c-2.878-1.634-5.592-1.9-8.065-.794-3.086,1.381-5.58,4.911-6.509,9.211-1.3,6.026,5.035,7.785,5.611,7.932" transform="translate(-169.535 -73.483)"/><path class="o" d="M237.581,112.654s2.091,1.43,1.808,2.847-.728,2.091.2,2.657a41.171,41.171,0,0,0,7.325,3.13c2.59.728,5.544.607,6.111-.729s2.1-5.544,2.023-8.5.365-10.806-2.954-12.87c0,0-1.133-1.578-1.74.364a9.377,9.377,0,0,1-5.331,5.706c-3.138,1.376-4.179,5.787-4.139,3.278s-3.2-2.968-4.054-2.145c-.465.451-1.6,2.253.749,6.259" transform="translate(-180.547 -85.415)"/><path class="m" d="M248.021,120.548a12.356,12.356,0,0,1-3.274-.475,41.511,41.511,0,0,1-7.523-3.216c-1.238-.754-.973-1.812-.74-2.745.058-.233.118-.473.173-.744.122-.611-.811-1.577-1.479-2.038a.8.8,0,0,1-.235-.253c-2.784-4.752-1-6.856-.617-7.229a3.326,3.326,0,0,1,3.424-.257,3.162,3.162,0,0,1,1.78,1.8,8.272,8.272,0,0,1,3.222-2.834,8.584,8.584,0,0,0,4.893-5.217c.281-.9.744-1.406,1.375-1.508a1.912,1.912,0,0,1,1.664.787c3.149,2.117,3.175,8.373,3.19,12.13,0,.5,0,.944.014,1.311.08,2.907-1.33,7.047-2.086,8.83-.495,1.167-2.005,1.657-3.781,1.657m-11.794-10.417c.572.426,2.318,1.878,1.984,3.546-.062.309-.13.58-.189.819-.215.86-.206.865.027,1.007a40.836,40.836,0,0,0,7.127,3.044c2.541.715,4.864.439,5.167-.275.571-1.345,2.036-5.435,1.961-8.167-.01-.378-.012-.834-.014-1.348-.013-3.249-.038-9.3-2.566-10.87a.792.792,0,0,1-.225-.211,1.309,1.309,0,0,0-.2-.208,1.934,1.934,0,0,0-.14.347,10.171,10.171,0,0,1-5.77,6.2,7.89,7.89,0,0,0-3.061,3.021c-.468.7-.838,1.257-1.518,1.043s-.679-1-.671-1.524a1.518,1.518,0,0,0-1.019-1.5,2.027,2.027,0,0,0-1.691-.059c-.057.055-1.356,1.382.8,5.146" transform="translate(-178.593 -83.438)"/><path class="m" d="M292.507,131.784c0,.71-.39,1.286-.872,1.286s-.872-.576-.872-1.286.39-1.286.872-1.286.872.576.872,1.286" transform="translate(-219.539 -108.197)"/><path class="m" d="M291.379,132.915c-.537,0-.974-.623-.974-1.388s.437-1.388.974-1.388.974.623.974,1.388-.437,1.388-.974,1.388m0-2.571c-.424,0-.769.531-.769,1.183s.345,1.183.769,1.183.769-.531.769-1.183-.345-1.183-.769-1.183" transform="translate(-219.283 -107.941)"/><path class="m" d="M276.946,131.784c0,.71-.39,1.286-.872,1.286s-.872-.576-.872-1.286.39-1.286.872-1.286.872.576.872,1.286" transform="translate(-208.43 -108.197)"/><path class="m" d="M275.818,132.915c-.537,0-.974-.623-.974-1.388s.437-1.388.974-1.388.974.623.974,1.388-.437,1.388-.974,1.388m0-2.571c-.424,0-.769.531-.769,1.183s.345,1.183.769,1.183.769-.531.769-1.183-.345-1.183-.769-1.183" transform="translate(-208.173 -107.941)"/><line class="m" x1="3.437" transform="translate(67.95 31.658)"/><path class="m" d="M280.775,162.019h-3.437a.793.793,0,0,1,0-1.585h3.437a.793.793,0,1,1,0,1.585" transform="translate(-209.388 -129.569)"/><line class="m" x2="1.251" transform="translate(69.974 28.627)"/><path class="m" d="M285.663,151.428h-1.251a.793.793,0,0,1,0-1.585h1.251a.793.793,0,0,1,0,1.585" transform="translate(-214.438 -122.008)"/></g></g></g></svg>