<svg xmlns="http://www.w3.org/2000/svg" xmlns:xlink="http://www.w3.org/1999/xlink" width="149" height="108" viewBox="0 0 149 108"><defs><style>.a,.q{fill:#fff;}.b{fill:none;}.c{clip-path:url(#a);}.d{fill:#5797e3;}.e{fill:#3b61ac;}.f{opacity:0.7;}.g{clip-path:url(#b);}.h{fill:#4cc7ec;}.i{opacity:0.3;}.j{fill:#c11e54;}.k{fill:#29266f;}.l{fill:#fbb32c;}.m{fill:#6dbf69;}.n{fill:#9e1c49;}.o{fill:#f8c2d3;}.p{fill:url(#e);}.q{font-size:13px;font-family:Montserrat-Medium, Montserrat;font-weight:500;}</style><clipPath id="a"><rect class="a" width="149" height="108" rx="8" transform="translate(-0.345)"/></clipPath><clipPath id="b"><rect class="b" width="98.604" height="37.22"/></clipPath><linearGradient id="e" x1="0.522" y1="0.073" x2="0.516" y2="1" gradientUnits="objectBoundingBox"><stop offset="0" stop-color="#190d33" stop-opacity="0"/><stop offset="0.236" stop-color="#1f083c" stop-opacity="0"/><stop offset="1" stop-color="#28004b"/></linearGradient></defs><g class="c" transform="translate(0.345)"><g transform="translate(-32.74 -9.224)"><g transform="translate(0 0)"><path class="d" d="M254.08,121H102.146a9.92,9.92,0,0,1-9.891-9.89V9.89A9.92,9.92,0,0,1,102.146,0H254.08a9.92,9.92,0,0,1,9.891,9.89V111.114A9.92,9.92,0,0,1,254.08,121" transform="translate(-72.8)"/><path class="e" d="M252.71,40.742l15.1,76.375c0,13.736-7.069,16.966-40.579,11.559H98.712a9.368,9.368,0,0,1-9.432-9.247V72.576a331.036,331.036,0,0,1,53.838,14.591c11.782,4.322,24.751,9.909,31.723,4.242,7.006-5.7,1.923-17.846,9.134-22.15,5.46-3.261,10.439,2.476,24.035,3.3,5.82.354,20.2,1.221,26.435-6.125,9.216-10.859-6.263-31.508,1.923-39.116,2.495-2.32,6.42-2.713,10.785-2.1a24.519,24.519,0,0,1,5.557,15.526" transform="translate(-62.62 -11.802)"/><g class="f" transform="translate(0 13.156)"><g class="g"><path class="h" d="M98.6,62.177s-2.162-21.84-23.137-18.164c0,0-4.974-19.894-20.326-19.029S34.6,35.148,34.6,39.04c0,0-13.623-.433-15.785,11.676,0,0-11.677-2.811-18.812,9.3Z" transform="translate(-0.001 -24.957)"/></g></g><g class="i" transform="translate(110.328 82.395)"><g class="g"><path class="h" d="M369.477,294.052s2.162-21.84,23.137-18.164c0,0,4.974-19.893,20.326-19.029s20.543,10.163,20.543,14.055c0,0,13.623-.433,15.785,11.677,0,0,11.676-2.811,18.813,9.3Z" transform="translate(-369.477 -256.832)"/></g></g><g class="i" transform="translate(103.863 17.729)"><g class="g"><path class="h" d="M347.826,77.492s2.163-21.84,23.137-18.164c0,0,4.974-19.894,20.326-19.029s20.542,10.163,20.542,14.055c0,0,13.623-.433,15.785,11.677,0,0,11.676-2.811,18.812,9.3Z" transform="translate(-347.826 -40.272)"/></g></g><path class="h" d="M188.732,57.237s-1.269-12.815-13.576-10.658c0,0-2.918-11.673-11.926-11.165s-12.053,5.963-12.053,8.247c0,0-7.993-.254-9.262,6.851,0,0-6.851-1.649-11.038,5.456Z" transform="translate(-91.796 -19.125)"/><path class="j" d="M230.188,250.238l-3.784,2.288a9.94,9.94,0,0,1-13.61-3.353l-30.222-49.986a9.94,9.94,0,0,1,3.353-13.609l3.784-2.288a9.94,9.94,0,0,1,13.61,3.353l30.222,49.986a9.94,9.94,0,0,1-3.353,13.609" transform="translate(-127.058 -121.858)"/><path class="k" d="M219.2,252.736a10.97,10.97,0,0,1-2.622-.32,10.732,10.732,0,0,1-6.665-4.89l-30.222-49.986A10.836,10.836,0,0,1,183.35,182.7l3.784-2.288a10.836,10.836,0,0,1,14.84,3.657L232.2,234.055a10.819,10.819,0,0,1-3.657,14.84l-3.784,2.288a10.7,10.7,0,0,1-5.553,1.554m-26.492-72.089a8.959,8.959,0,0,0-4.65,1.3l-3.784,2.288a9.044,9.044,0,0,0-3.05,12.379L211.449,246.6a9.026,9.026,0,0,0,12.379,3.05l3.784-2.288a9.044,9.044,0,0,0,3.05-12.379L200.441,185a9.019,9.019,0,0,0-7.73-4.349" transform="translate(-124.946 -119.747)"/><path class="l" d="M219.944,225.854l7.014-6.976,4.88,17.688,3.429-4.994,4.5,15.667,4.88-1.715L248,270.913l-7.319-15.744-3.66,1.22-6.709-14.638-3.965,2.117Z" transform="translate(-154.267 -147.817)"/><path class="k" d="M247.225,272.564l-9.449-20.325-3.664,1.221-6.647-14.5-4.042,2.158-6.943-19.528,8.5-8.458,4.775,17.31,3.414-4.972,4.762,16.58,5.024-1.766Zm-8.5-22.53,5.189,11.162L241.472,242.7l-4.735,1.664L232.5,229.613l-3.443,5.015-4.984-18.066-5.524,5.494,5.866,16.5,3.887-2.075,6.771,14.773Z" transform="translate(-151.838 -143.784)"/><path class="j" d="M241.207,95.975H218.755L196.8,103.9l-11.284,4.88s-2.744,1.22,0,4.117,9.759-1.982,9.759-1.982-3.659,3.05-3.049,5.184,7.319.3,8.844-1.525,18.6-8.058,18.6-8.058l23.787,1.654,1.4,13.113-2.01,11.283,25.922,6.976V106.954l11.283.61,4.879,26.226-2.135,9.149s2.135,3.431,3.66,2.325,3.355-5.718,3.355-5.718l.915,5.938s3.355,2.544,5.184,0,1.525-12.914,1.525-12.914l-2.135-8.844-3.659-17.8s-1.83-6.29-7.014-9.949H241.207Z" transform="translate(-129.263 -61.613)"/><path class="k" d="M291.641,145.406a6.608,6.608,0,0,1-3.564-1.313l-.289-.219-.514-3.337a10.393,10.393,0,0,1-2.4,3.348,2.019,2.019,0,0,1-1.609.348c-1.644-.322-3.068-2.493-3.337-2.925l-.2-.315,2.177-9.328-4.716-25.349-9.636-.521V138.61l-27.843-7.493,2.131-11.967-1.306-12.24-22.848-1.589c-8.235,3.009-17.191,6.7-18.042,7.725-1.434,1.72-6.147,3.21-8.548,2.7a2.2,2.2,0,0,1-1.846-1.506,3.544,3.544,0,0,1,.347-2.486c-2.344.945-5.137,1.457-6.845-.346-1.157-1.221-1.633-2.395-1.415-3.488a3.063,3.063,0,0,1,1.7-2.063l11.343-4.9,22.1-7.982H282.8l.232.164a21.31,21.31,0,0,1,7.358,10.431l.017.07,3.657,17.788,2.153,8.919,0,.093c.032,1.092.257,10.75-1.693,13.463a3.461,3.461,0,0,1-2.322,1.463,3.838,3.838,0,0,1-.567.041m-2.2-2.548a4.166,4.166,0,0,0,2.5.734,1.666,1.666,0,0,0,1.129-.736c1.194-1.66,1.466-8.365,1.359-12.272l-2.119-8.782-3.651-17.762a19.917,19.917,0,0,0-6.434-9.274H216.805l-21.783,7.866L183.763,107.5h0a1.3,1.3,0,0,0-.666.783c-.089.475.252,1.148.96,1.9,1.8,1.9,6.941-.951,8.6-2.1l1.085,1.424c-1.332,1.114-3.071,3.169-2.762,4.25.026.091.219.188.493.246,1.9.4,5.849-.956,6.8-2.1,1.6-1.918,16.094-7.272,18.984-8.326l.179-.065,24.725,1.719,1.493,13.986-1.888,10.6,24,6.459V103.9l12.931.7,5.043,27.1-2.09,8.955c.529.755,1.389,1.7,1.961,1.814a.233.233,0,0,0,.213-.041c.956-.693,2.376-3.633,3.048-5.323l1.216-3.063Z" transform="translate(-127.157 -59.509)"/><path class="m" d="M204.269,113.264l4.51,9.526-7.2,3.361-.7.553s-6.223,4.927-8.844,1.525,3.05-5.184,3.05-5.184-6.833,4.927-9.759,1.982,0-4.775,0-4.775Z" transform="translate(-129.074 -73.739)"/><path class="k" d="M192.479,128.217a4.839,4.839,0,0,1-.59-.035,3.845,3.845,0,0,1-2.669-1.511,3.708,3.708,0,0,1-.876-2.351c-2.039.64-4.245.758-5.76-.767a4.351,4.351,0,0,1-1.54-3.542,3.82,3.82,0,0,1,1.7-2.623.9.9,0,0,1,.165-.081l18.944-6.988a.9.9,0,0,1,1.119.457l4.51,9.526a.9.9,0,0,1-.431,1.2l-7.1,3.317-.622.489c-.157.124-3.718,2.913-6.848,2.913m-1.947-4.784a1.772,1.772,0,0,0-.345.6c-.053.169-.214.683.452,1.546a2.087,2.087,0,0,0,1.469.826c2.089.257,5.119-1.722,6.109-2.506l.706-.555a.9.9,0,0,1,.175-.107l6.381-2.98-3.774-7.971-18.067,6.664a2.021,2.021,0,0,0-.814,1.28,2.727,2.727,0,0,0,1.032,2.063c1.218,1.225,3.587.6,5.619-.348a8.871,8.871,0,0,1,3.236-1.858.9.9,0,0,1,.793,1.581,21.688,21.688,0,0,1-2.971,1.766" transform="translate(-126.969 -71.635)"/><path class="m" d="M513.692,191.232h12.279l1.968,8.151s.181,11.084-1.525,12.913a3.5,3.5,0,0,1-5.184,0c-1.248-1.22-.915-5.938-.915-5.938s-2.241,5.579-3.355,5.718-2.106-.143-3.66-2.325,2.316-4.222,2.135-9.149Z" transform="translate(-359.767 -128.426)"/><path class="k" d="M521.816,212.242a4.806,4.806,0,0,1-3.317-1.41,4.9,4.9,0,0,1-1.068-2.707c-1.392,2.6-2.161,2.7-2.464,2.736-1.706.214-2.969-.543-4.5-2.7-1.092-1.534-.3-3.016.473-4.45a9.592,9.592,0,0,0,1.5-5.121l-1.731-9.3a.9.9,0,0,1,.881-1.06h12.279a.9.9,0,0,1,.871.686l1.968,8.151a.9.9,0,0,1,.025.2c.031,1.911.093,11.546-1.765,13.539a4.265,4.265,0,0,1-3.052,1.438h-.1m-3.607-8.884a.909.909,0,0,1,.2.023.9.9,0,0,1,.693.936c-.145,2.071.062,4.661.648,5.234a3.06,3.06,0,0,0,2.12.9,2.481,2.481,0,0,0,1.782-.87c.9-.96,1.363-7.052,1.286-12.189l-1.779-7.369h-10.5l1.546,8.311a.873.873,0,0,1,.015.131,11.353,11.353,0,0,1-1.708,6.1c-.77,1.434-1,1.988-.592,2.564,1.423,2,2.149,2.032,2.719,1.968.522-.408,1.751-2.73,2.734-5.175a.9.9,0,0,1,.83-.562" transform="translate(-357.662 -126.321)"/><path class="n" d="M384.559,173.8l23.153-11.279v22.521l-24.193-6.353Z" transform="translate(-268.998 -108.288)"/><path class="n" d="M507.6,114.71l6.193-7.319s3.467,4.4,3.973,6.861,3.253,17.31,3.253,17.31H510.8Z" transform="translate(-356.03 -69.62)"/><rect class="k" width="5.919" height="3.685" transform="translate(115.26 52.001)"/><path class="k" d="M389.808,157.525h-5.919a.9.9,0,0,1-.9-.9v-3.685a.9.9,0,0,1,.9-.9h5.919a.9.9,0,0,1,.9.9v3.685a.9.9,0,0,1-.9.9m-5.023-1.792h4.128V153.84h-4.128Z" transform="translate(-268.629 -100.942)"/><rect class="k" width="7.777" height="3.685" transform="translate(130.938 52.001)"/><path class="k" d="M444.169,157.525h-7.777a.9.9,0,0,1-.9-.9v-3.685a.9.9,0,0,1,.9-.9h7.777a.9.9,0,0,1,.9.9v3.685a.9.9,0,0,1-.9.9m-6.881-1.792h5.985V153.84h-5.985Z" transform="translate(-305.455 -100.942)"/><path class="j" d="M266.923,198.858s11.588-8.153,16.01-7.674,8.6-.035,17.869,8.151l21.242,5.717s-4.749,10.832-19.566,8.328-18.63-12.567-18.63-12.567l-10.93,7.963Z" transform="translate(-187.218 -128.378)"/><path class="k" d="M303.913,212.545a26.362,26.362,0,0,1-4.4-.384c-12.469-2.107-17.388-9.349-18.83-12.088l-10.841,7.9-6.933-11.467.684-.481c1.214-.855,12-8.337,16.622-7.832.458.05.914.088,1.373.127,3.947.336,8.418.718,16.834,8.1l22.046,5.933-.418.954a15.739,15.739,0,0,1-4.492,5.447,18.371,18.371,0,0,1-11.642,3.788m-22.461-15.25.416,1.1c.15.389,3.852,9.62,17.941,12,11.518,1.945,16.586-4.4,18.093-6.873l-20.354-5.478-.157-.139c-8.075-7.129-12.083-7.47-15.958-7.8-.473-.04-.942-.081-1.414-.132-3.134-.334-11.112,4.589-14.711,7.041l5.055,8.36Z" transform="translate(-184.401 -126.277)"/><path class="j" d="M305.85,258.69l11.726-9.633s7.186,6.4,13.715,5.909l-18.61,15.023Z" transform="translate(-214.521 -168.984)"/><path class="k" d="M309.7,268.563l-7.763-12.84,12.917-10.612.573.509c.069.062,6.982,6.141,13.052,5.685l2.868-.216Zm-5.427-12.44,5.9,9.757L326.131,253c-4.966-.7-9.678-4.219-11.3-5.544Z" transform="translate(-211.779 -166.216)"/><line class="l" x2="5.198" y2="9.826" transform="translate(68.008 42.176)"/><rect class="k" width="1.792" height="11.116" transform="matrix(0.884, -0.468, 0.468, 0.884, 67.217, 42.594)"/><line class="l" x2="12.067" y2="0.438" transform="translate(155.843 69.435)"/><rect class="k" width="1.792" height="12.075" transform="translate(155.81 70.33) rotate(-87.92)"/><path class="l" d="M401.772,80.036h-14.1a3.594,3.594,0,0,1-3.583-3.583V58.689a3.594,3.594,0,0,1,3.583-3.583h14.1a3.594,3.594,0,0,1,3.583,3.583V76.453a3.594,3.594,0,0,1-3.583,3.583" transform="translate(-269.394 -32.948)"/><path class="k" d="M399.667,78.828h-14.1a4.484,4.484,0,0,1-4.479-4.479V56.585a4.484,4.484,0,0,1,4.479-4.479h14.1a4.484,4.484,0,0,1,4.479,4.479V74.349a4.484,4.484,0,0,1-4.479,4.479m-14.1-24.93a2.69,2.69,0,0,0-2.687,2.687V74.349a2.69,2.69,0,0,0,2.687,2.687h14.1a2.69,2.69,0,0,0,2.687-2.687V56.585a2.69,2.69,0,0,0-2.687-2.687Z" transform="translate(-267.29 -30.844)"/><path class="o" d="M377.182,84.972h0a9.325,9.325,0,0,1-9.3-9.3V70.944a3.594,3.594,0,0,1,3.583-3.583H382.9a3.594,3.594,0,0,1,3.583,3.583v4.731a9.324,9.324,0,0,1-9.3,9.3" transform="translate(-258.032 -41.543)"/><path class="k" d="M375.078,83.764a10.2,10.2,0,0,1-10.193-10.193V68.84a4.484,4.484,0,0,1,4.479-4.479h11.427a4.484,4.484,0,0,1,4.479,4.479v4.731a10.2,10.2,0,0,1-10.193,10.193m-5.714-17.611a2.69,2.69,0,0,0-2.687,2.687v4.731a8.4,8.4,0,0,0,16.8,0V68.84a2.691,2.691,0,0,0-2.687-2.687Z" transform="translate(-255.928 -39.439)"/><path class="k" d="M378.757,52.9H365.567a3.594,3.594,0,0,1-3.583-3.583v-.877a10.178,10.178,0,0,1,20.356,0v.877a3.594,3.594,0,0,1-3.583,3.583" transform="translate(-253.893 -21.132)"/><path class="k" d="M376.652,51.689H363.463a4.484,4.484,0,0,1-4.479-4.479v-.877a11.074,11.074,0,1,1,22.148,0v.877a4.484,4.484,0,0,1-4.479,4.479m-6.595-14.638a9.292,9.292,0,0,0-9.282,9.282v.877a2.69,2.69,0,0,0,2.687,2.687h13.189a2.69,2.69,0,0,0,2.687-2.687v-.877a9.292,9.292,0,0,0-9.282-9.282" transform="translate(-251.789 -19.027)"/><path class="e" d="M380.056,75.548v1.98a3.421,3.421,0,0,1-3.206,3.583h-4.027a3.421,3.421,0,0,1-3.207-3.583h-2.865a3.421,3.421,0,0,1-3.206,3.583h-4.024a3.421,3.421,0,0,1-3.207-3.583v-1.98a3.421,3.421,0,0,1,3.207-3.583h4.024a2.968,2.968,0,0,1,1.908.708h5.462a2.969,2.969,0,0,1,1.908-.708h4.027a3.421,3.421,0,0,1,3.206,3.583" transform="translate(-249.916 -44.773)"/><path class="k" d="M374.745,79.9h-4.027a4.218,4.218,0,0,1-4.02-3.583h-1.238a4.218,4.218,0,0,1-4.02,3.583h-4.025a4.308,4.308,0,0,1-4.1-4.479v-1.98a4.308,4.308,0,0,1,4.1-4.479h4.025a3.809,3.809,0,0,1,2.21.708h4.857a3.811,3.811,0,0,1,2.211-.708h4.027a4.308,4.308,0,0,1,4.1,4.479v1.98a4.308,4.308,0,0,1-4.1,4.479m-10.994-5.375h4.656v.9a2.523,2.523,0,0,0,2.311,2.687h4.027a2.523,2.523,0,0,0,2.311-2.687v-1.98a2.523,2.523,0,0,0-2.311-2.687h-4.027a2.072,2.072,0,0,0-1.335.5l-.249.207h-6.11l-.249-.208a2.07,2.07,0,0,0-1.334-.5h-4.025a2.523,2.523,0,0,0-2.311,2.687v1.98a2.523,2.523,0,0,0,2.311,2.687h4.025a2.523,2.523,0,0,0,2.311-2.687Z" transform="translate(-247.812 -42.668)"/><path class="n" d="M417.946,138.6v13.667l-.747,13.16" transform="translate(-292.621 -91.507)"/><path class="k" d="M415.389,165.5l-2.683-.152.745-13.123V138.595h2.688l0,13.743Z" transform="translate(-289.47 -91.506)"/><path class="k" d="M396.049,108.091a2.2,2.2,0,1,1-2.2-2.2,2.2,2.2,0,0,1,2.2,2.2" transform="translate(-274.697 -68.567)"/></g></g><path class="p" d="M0,0H149a0,0,0,0,1,0,0V58a8,8,0,0,1-8,8H8a8,8,0,0,1-8-8V0A0,0,0,0,1,0,0Z" transform="translate(-2.345 -78)"/><text class="q" transform="translate(71.655 -27)"><tspan x="-13.514" y="0">War</tspan></text></g></svg>