<svg xmlns="http://www.w3.org/2000/svg" xmlns:xlink="http://www.w3.org/1999/xlink" width="149" height="108" viewBox="0 0 149 108"><defs><style>.a{fill:none;}.b{clip-path:url(#a);}.c{fill:#f5b419;}.d{fill:#21bf3f;opacity:0.7;}.e{fill:#17dd2e;opacity:0.8;}.f{fill:#85d63e;}.f,.g,.j{opacity:0.6;}.g{fill:#7bd32f;}.h{fill:#1b91ea;}.i,.j{fill:#c9d2e8;}.i{opacity:0.5;}.k{fill:#99ef45;}.l{fill:#f2a775;}.m{fill:#29266f;}.n{fill:#ed6323;}.o{fill:#fff;}.p{fill:#3f5e91;}.q{fill:#4c1832;}.r{fill:#dab9ea;}</style><clipPath id="a"><rect class="a" width="149" height="108" rx="8" transform="translate(-0.345 0.076)"/></clipPath></defs><g transform="translate(0.345 -0.076)"><g class="b" transform="translate(0 0)"><rect class="c" width="157.804" height="112.056" rx="8" transform="translate(-4.543 -2.332)"/><path class="d" d="M937.655,152.258s7.449-2.546,10.9,6.251,6.908,8.114,8.388,5.125-.987-10.39,4.194-10.39,3.453,3.464,6.66-4.559,7.181-12.217,9.388-8.763-1.381,8.881,4.483,5.427,17.511-11.9,21.24-6.645,12.255,20.875,18.916,19.8,11.842-2.587,14.555,3.1-1.247,16.054,10.724,13.093,9.5,1.382,10.985,8.339,6.907,12.631,9.128,10.9,5.427.761,5.674,2.847-154.433,1.231-154.433,1.231Z" transform="translate(-918.34 -124.803)"/><path class="e" d="M981.241,187.736s4.949-1.692,7.243,4.153,4.589,5.39,5.572,3.4-.656-6.9,2.786-6.9,2.295,2.3,4.426-3.028,4.77-8.116,6.237-5.822-.917,5.9,2.978,3.605,11.633-7.9,14.11-4.415,8.142,13.868,12.567,13.157,7.867-1.719,9.67,2.063-.829,10.665,7.125,8.7,6.314.918,7.3,5.54,4.589,8.391,6.064,7.244,3.606.505,3.77,1.892-102.6.818-102.6.818Z" transform="translate(-942.449 -144.365)"/><path class="f" d="M870.91,167.3c2.2,1.348,16.99,10.343,20.137,7.879a7.837,7.837,0,0,0,.629-.566c.838-.964,1.121-2.449,2.435-6.438,3.216-9.762,5.634-17.1,11.382-21.012,2.289-1.559,2.382-.719,7.442-3.5,6.61-3.636,7.507-5.65,9.193-5.253,5.361,1.261,3.088,23.245,7.442,24.076,2.709.518,4.426-7.829,9.631-8.317,4.641-.436,10.6,5.513,10.507,10.944-.1,6.161-7.947,8.917-7,12.7.854,3.423,9.669,1.183,11.82,4.816,1.326,2.24.385,6.914-9.193,17.51l-73.981-.438Q871.129,183.494,870.91,167.3Z" transform="translate(-895.424 -125.443)"/><path class="g" d="M1120.174,197.62c1.412.867,10.925,6.651,12.949,5.067a4.961,4.961,0,0,0,.4-.364c.539-.62.721-1.575,1.566-4.14,2.069-6.278,3.623-11,7.319-13.513,1.472-1,1.532-.462,4.786-2.252,4.251-2.338,4.828-3.633,5.912-3.378,3.447.811,1.986,14.948,4.785,15.483,1.742.333,2.846-5.035,6.193-5.349,2.984-.28,6.815,3.546,6.756,7.038-.067,3.962-5.11,5.735-4.5,8.164.549,2.2,6.218.761,7.6,3.1.853,1.441.248,4.446-5.912,11.26l-47.575-.281Q1120.315,208.036,1120.174,197.62Z" transform="translate(-1015.549 -145.035)"/><path class="g" d="M931.809,157.743s-1.416-5.762,9.438-10.54,5.034-2.674,5.034-2.674a14.534,14.534,0,0,0-1.888,4.72c-.157,1.887,1.258,2.359-.157,4.719s-4.637,3.618-4.442,4.562-3.266-1.887-3.266-2.359-2.045,4.221-2.36,6.83-.786,5.125-.786,5.125,3.924,0,4.479-2.045,3.544-1.73,4.488-1.73,3.461-1.284,4.09-1.35-7,3.238-6.644,5.125,1.349,2.36-1.037,4.877-2.386,5.191-5.69,5.663-3.933,1.519-3.933,1.519v1.627s2.2-2.782,3.146-1.627,2.517,3.2,2.517,3.2,4.4-.629,7.394,4.4,1.258,3.618,3.3,7.079a18.682,18.682,0,0,1,2.345,5.034s-5.334-6.292-7.221-6.607-8.495,1.1-9.6-.787l-.944,2.674s4.719-2.517,6.135.315,4.862,3.461,2.274,10.854-2.746,4.09-2.589,7.394-2.674-.15-2.674-1.963c0,0-4.72-4.172-4.09-6.689s-2.348,1.258-4.714-2.36a18.112,18.112,0,0,0-4.882-5.191v7.236s3.146-.314,2.517,1.888-1.988,2.674-3.826,3.933-2.781,1.573-3.489,2.989.51,1.888-3.088,3.461-4.127,3.107-4.127,3.107-3.719-8.3,1-13.017l.853-2.2s4.653-1.888,6.384-.472l1.73,1.416.472-4.09a11.237,11.237,0,0,0-12.585,1.73s-.55-4.247,2.714-5.978a16.556,16.556,0,0,1,4.461-1.888s2.579.157,3.051,1.1l-.472-.944s-9.015-4.247-14.733,9.124c0,0,.142,2.517.516-4.719s-2.615-8.023,1.79-10.7,7.023-2.517,9.1.158a11.7,11.7,0,0,0,6.163,4.4c1.573.314-.472-4.562,0-5.506s.477-3.618,3.228-3.618,4.638.443,4.952-2.846-.314-4.391-.314-4.391-4.4,6.107-4.638,4.391.71-1.559,0-4.863-4.015-5.663-1.655-11.169l2.36-5.506s2.831,2.2,3.618,4.562,1.573,5.663,1.573,5.663,1.887,1.416,2.359-.786,1.573-1.888,2.2-4.4-6.607-5.978-3.933-16.045C927.718,149.563,929.606,156.642,931.809,157.743Z" transform="translate(-909.573 -128.196)"/><g transform="translate(-5.021 73.462)"><path class="h" d="M908.535,256.377l158.76-1.147V291.1H908.535Z" transform="translate(-908.535 -255.23)"/><rect class="i" width="11.539" height="2.067" rx="1.034" transform="translate(36.062 25.939)"/><rect class="i" width="11.539" height="2.067" rx="1.034" transform="translate(38.779 23.872)"/><rect class="j" width="11.539" height="2.067" rx="1.034" transform="translate(131.918 12.26)"/><rect class="j" width="11.539" height="2.067" rx="1.034" transform="translate(133.82 14.192)"/><rect class="j" width="11.539" height="2.067" rx="1.034" transform="translate(134.634 10.193)"/><rect class="i" width="11.539" height="2.067" rx="1.034" transform="translate(12.278 11.227)"/><rect class="i" width="11.539" height="2.067" rx="1.034" transform="translate(14.18 12.873)"/><rect class="i" width="11.539" height="2.067" rx="1.034" transform="translate(14.994 9.16)"/><rect class="i" width="11.539" height="2.067" rx="1.034" transform="translate(17.497 7.555)"/></g><g transform="translate(-22.743 -4.784)"><path class="k" d="M942.2,157.842s-1.416-5.762,9.438-10.54,5.034-2.674,5.034-2.674a14.524,14.524,0,0,0-1.887,4.719c-.158,1.888,1.258,2.36-.158,4.719s-4.637,3.618-4.442,4.562-3.266-1.888-3.266-2.36-2.045,4.222-2.36,6.83-.786,5.125-.786,5.125,3.924,0,4.479-2.045,3.544-1.73,4.488-1.73,3.461-1.284,4.09-1.35-7,3.237-6.644,5.125,1.348,2.359-1.037,4.877-2.386,5.191-5.69,5.663-3.933,1.519-3.933,1.519v1.627s2.2-2.783,3.146-1.627,2.517,3.2,2.517,3.2,4.4-.629,7.393,4.4,1.258,3.618,3.3,7.079A18.679,18.679,0,0,1,958.233,200s-5.334-6.293-7.222-6.607-8.494,1.1-9.6-.786l-.943,2.674s4.719-2.517,6.135.314,4.862,3.461,2.273,10.854-2.745,4.09-2.588,7.394-2.674-.15-2.674-1.962c0,0-4.719-4.173-4.09-6.689s-2.349,1.258-4.714-2.36a18.122,18.122,0,0,0-4.882-5.191v7.237s3.146-.314,2.517,1.887-1.989,2.674-3.826,3.933-2.781,1.573-3.489,2.989.51,1.887-3.088,3.461-4.126,3.107-4.126,3.107-3.719-8.3,1-13.018l.853-2.2s4.653-1.887,6.383-.471l1.73,1.415.472-4.09a11.236,11.236,0,0,0-12.585,1.73s-.55-4.248,2.714-5.978a16.537,16.537,0,0,1,4.461-1.887s2.579.157,3.051,1.1l-.472-.944s-9.015-4.247-14.733,9.124c0,0,.142,2.517.515-4.719s-2.615-8.022,1.789-10.7,7.023-2.517,9.1.157a11.7,11.7,0,0,0,6.163,4.4c1.573.315-.472-4.562,0-5.506s.478-3.618,3.228-3.618,4.638.443,4.953-2.846-.315-4.39-.315-4.39-4.4,6.107-4.638,4.39.711-1.559,0-4.862-4.014-5.663-1.654-11.169l2.359-5.506s2.832,2.2,3.618,4.562,1.573,5.663,1.573,5.663,1.888,1.416,2.36-.786,1.573-1.888,2.2-4.4-6.607-5.978-3.933-16.046C938.111,149.662,940,156.741,942.2,157.842Z" transform="translate(-891.839 -123.46)"/><path class="k" d="M905.868,126.948s-1.415-5.762,9.439-10.54,5.034-2.674,5.034-2.674a14.529,14.529,0,0,0-1.888,4.719c-.157,1.888,1.259,2.36-.157,4.719s-4.637,3.618-4.443,4.562-3.266-1.888-3.266-2.36-2.045,4.222-2.359,6.83-.786,5.125-.786,5.125,3.924,0,4.479-2.045,3.544-1.731,4.488-1.731,3.461-1.284,4.09-1.35-7,3.237-6.645,5.125,1.349,2.359-1.037,4.877-2.386,5.191-5.69,5.663-3.933,1.519-3.933,1.519v1.627s2.2-2.782,3.146-1.627,2.517,3.2,2.517,3.2,4.4-.629,7.394,4.4,1.259,3.618,3.3,7.079a18.713,18.713,0,0,1,2.345,5.034s-5.334-6.293-7.222-6.607-8.494,1.1-9.6-.786l-.944,2.674s4.719-2.517,6.135.314,4.862,3.461,2.274,10.854-2.746,4.09-2.588,7.393-2.674-.15-2.674-1.962c0,0-4.719-4.173-4.09-6.689s-2.348,1.258-4.713-2.36a18.117,18.117,0,0,0-4.882-5.191v7.237s3.146-.315,2.517,1.887-1.989,2.674-3.826,3.933-2.781,1.573-3.489,2.989.51,1.887-3.088,3.461-4.126,3.107-4.126,3.107-3.718-8.3,1-13.018l.852-2.2s4.653-1.887,6.384-.472l1.73,1.416.472-4.09a11.236,11.236,0,0,0-12.585,1.73s-.551-4.248,2.714-5.978a16.533,16.533,0,0,1,4.46-1.887s2.579.157,3.051,1.1-.471-.944-.471-.944-9.015-4.247-14.733,9.124c0,0,.141,2.517.515-4.719s-2.615-8.022,1.79-10.7,7.023-2.517,9.1.157a11.7,11.7,0,0,0,6.163,4.4c1.573.315-.472-4.562,0-5.506s.478-3.618,3.228-3.618,4.638.443,4.952-2.846-.314-4.39-.314-4.39-4.4,6.107-4.638,4.39.711-1.559,0-4.862-4.014-5.663-1.655-11.169l2.36-5.506s2.832,2.2,3.618,4.562S901.149,140,901.149,140s1.888,1.415,2.36-.787,1.573-1.887,2.2-4.4-6.607-5.978-3.933-16.046C901.778,118.768,903.665,125.847,905.868,126.948Z" transform="translate(-874.329 -108.571)"/><path class="k" d="M954.014,117.874s1.416-5.762-9.438-10.54-5.034-2.674-5.034-2.674a14.521,14.521,0,0,1,1.887,4.719c.157,1.888-1.258,2.36.157,4.719s4.637,3.618,4.442,4.562,3.266-1.888,3.266-2.36,2.045,4.222,2.36,6.83.786,5.125.786,5.125-3.923,0-4.479-2.045-3.544-1.731-4.488-1.731-3.461-1.284-4.09-1.35,7,3.237,6.644,5.125-1.348,2.359,1.037,4.877,2.386,5.191,5.689,5.663,3.933,1.519,3.933,1.519v1.627s-2.2-2.782-3.146-1.627-2.517,3.2-2.517,3.2-4.4-.629-7.394,4.4-1.258,3.618-3.3,7.079a18.711,18.711,0,0,0-2.345,5.034s5.334-6.293,7.222-6.607,8.494,1.1,9.6-.786l.944,2.674s-4.72-2.517-6.135.314-4.862,3.461-2.274,10.854,2.746,4.09,2.588,7.394,2.674-.15,2.674-1.962c0,0,4.719-4.173,4.09-6.689s2.349,1.258,4.714-2.36a18.12,18.12,0,0,1,4.882-5.191v7.237s-3.146-.315-2.517,1.887,1.989,2.674,3.826,3.933,2.781,1.573,3.489,2.989-.51,1.887,3.088,3.461,4.126,3.107,4.126,3.107,3.719-8.3-1-13.018l-.852-2.2s-4.653-1.887-6.384-.472l-1.73,1.416-.472-4.09a11.236,11.236,0,0,1,12.585,1.73s.551-4.248-2.714-5.978a16.53,16.53,0,0,0-4.46-1.887s-2.58.157-3.051,1.1l.472-.944s9.015-4.247,14.733,9.124c0,0-.142,2.517-.515-4.719s2.615-8.022-1.789-10.7-7.023-2.517-9.1.157a11.7,11.7,0,0,1-6.163,4.4c-1.573.315.472-4.562,0-5.506s-.478-3.618-3.228-3.618-4.638.443-4.953-2.846.315-4.39.315-4.39,4.4,6.107,4.638,4.39-.711-1.559,0-4.862,4.014-5.663,1.654-11.169l-2.359-5.506s-2.832,2.2-3.618,4.562-1.573,5.663-1.573,5.663-1.888,1.415-2.36-.786-1.573-1.888-2.2-4.4,6.607-5.978,3.933-16.046C958.1,109.694,956.216,116.773,954.014,117.874Z" transform="translate(-905.005 -104.199)"/><path class="k" d="M890.36,121.742s1.415-5.762-9.439-10.54-5.034-2.674-5.034-2.674a14.534,14.534,0,0,1,1.888,4.719c.157,1.888-1.259,2.36.157,4.72s4.637,3.618,4.443,4.562,3.266-1.888,3.266-2.36S887.686,124.39,888,127s.786,5.125.786,5.125-3.923,0-4.479-2.045-3.544-1.73-4.488-1.73-3.461-1.284-4.09-1.35,7,3.237,6.645,5.125-1.349,2.36,1.037,4.877,2.386,5.191,5.69,5.663,3.933,1.519,3.933,1.519v1.627s-2.2-2.782-3.146-1.627-2.517,3.2-2.517,3.2-4.4-.629-7.394,4.4-1.259,3.618-3.3,7.079a18.7,18.7,0,0,0-2.345,5.034s5.334-6.292,7.222-6.607,8.494,1.1,9.6-.786l.944,2.674s-4.719-2.517-6.135.314-4.862,3.461-2.274,10.854,2.746,4.09,2.588,7.394,2.674-.15,2.674-1.962c0,0,4.719-4.173,4.09-6.689s2.348,1.258,4.713-2.359a18.11,18.11,0,0,1,4.883-5.191v7.236s-3.146-.314-2.517,1.888,1.989,2.674,3.826,3.933,2.781,1.573,3.489,2.989-.51,1.887,3.087,3.461,4.127,3.107,4.127,3.107,3.718-8.3-1-13.017l-.852-2.2s-4.653-1.888-6.384-.472l-1.73,1.415-.472-4.09a11.236,11.236,0,0,1,12.585,1.73s.551-4.247-2.714-5.978a16.527,16.527,0,0,0-4.46-1.888s-2.58.157-3.051,1.1.471-.944.471-.944,9.015-4.247,14.733,9.124c0,0-.141,2.517-.516-4.72s2.615-8.022-1.789-10.7-7.023-2.517-9.1.157a11.7,11.7,0,0,1-6.163,4.4c-1.573.315.472-4.562,0-5.506s-.478-3.618-3.228-3.618-4.638.443-4.952-2.846.315-4.39.315-4.39,4.4,6.107,4.638,4.39-.711-1.558,0-4.862,4.014-5.663,1.655-11.169l-2.36-5.506s-2.832,2.2-3.618,4.562-1.573,5.663-1.573,5.663-1.888,1.416-2.36-.786-1.573-1.888-2.2-4.4,6.607-5.978,3.933-16.045C894.45,113.562,892.563,120.641,890.36,121.742Z" transform="translate(-874.329 -106.063)"/></g><g transform="translate(94.631 26.014)"><path class="k" d="M1140.084,194.628s-.818-3.328,5.451-6.087,2.907-1.544,2.907-1.544a8.385,8.385,0,0,0-1.09,2.726c-.091,1.09.727,1.363-.091,2.726s-2.678,2.089-2.565,2.635-1.886-1.091-1.886-1.363a12.887,12.887,0,0,0-1.363,3.945c-.182,1.507-.454,2.96-.454,2.96s2.266,0,2.587-1.181,2.047-1,2.592-1a22.054,22.054,0,0,0,2.362-.78c.364-.038-4.041,1.87-3.837,2.96s.779,1.363-.6,2.817-1.378,3-3.286,3.271-2.271.878-2.271.878v.939s1.272-1.607,1.817-.939,1.454,1.848,1.454,1.848a4.519,4.519,0,0,1,4.27,2.544c1.726,2.907.727,2.089,1.908,4.088a10.8,10.8,0,0,1,1.355,2.907s-3.081-3.634-4.171-3.816-4.906.636-5.542-.454l-.545,1.544s2.726-1.454,3.543.182,2.808,2,1.313,6.269-1.586,2.362-1.495,4.271-1.545-.087-1.545-1.134c0,0-2.726-2.41-2.362-3.863s-1.357.727-2.723-1.363a10.467,10.467,0,0,0-2.82-3v4.179s1.818-.181,1.454,1.091-1.148,1.544-2.209,2.271-1.607.909-2.016,1.726.295,1.091-1.783,2-2.383,1.795-2.383,1.795-2.148-4.793.578-7.518l.493-1.272s2.687-1.091,3.687-.272l1,.818.273-2.362a6.49,6.49,0,0,0-7.268,1s-.318-2.453,1.567-3.453a9.554,9.554,0,0,1,2.576-1.09s1.49.091,1.762.636l-.272-.546s-5.207-2.453-8.509,5.27c0,0,.082,1.454.3-2.726s-1.51-4.634,1.034-6.178,4.057-1.454,5.254.091a6.757,6.757,0,0,0,3.559,2.544c.909.182-.273-2.634,0-3.18s.276-2.089,1.865-2.089,2.678.256,2.86-1.644a4.813,4.813,0,0,0-.182-2.536s-2.541,3.527-2.678,2.536.41-.9,0-2.808-2.318-3.271-.956-6.451l1.363-3.18a7.1,7.1,0,0,1,2.089,2.635c.454,1.363.909,3.271.909,3.271s1.09.818,1.363-.454.909-1.091,1.273-2.544-3.816-3.452-2.272-9.267C1137.721,189.9,1138.812,193.992,1140.084,194.628Z" transform="translate(-1110.996 -174.77)"/><path class="k" d="M1119.1,176.785s-.817-3.328,5.451-6.087,2.908-1.545,2.908-1.545a8.386,8.386,0,0,0-1.09,2.726c-.091,1.09.727,1.363-.091,2.726s-2.678,2.089-2.566,2.634-1.886-1.09-1.886-1.363a12.9,12.9,0,0,0-1.363,3.945c-.182,1.507-.454,2.96-.454,2.96s2.266,0,2.587-1.181,2.047-1,2.592-1a22.2,22.2,0,0,0,2.362-.78c.363-.038-4.041,1.87-3.838,2.96s.779,1.363-.6,2.816-1.378,3-3.286,3.271-2.271.877-2.271.877v.94s1.272-1.607,1.817-.94,1.454,1.849,1.454,1.849a4.518,4.518,0,0,1,4.271,2.544c1.726,2.907.727,2.09,1.907,4.089a10.8,10.8,0,0,1,1.355,2.907s-3.081-3.634-4.171-3.816-4.906.636-5.542-.454l-.545,1.545s2.726-1.454,3.544.181,2.808,2,1.313,6.269-1.586,2.362-1.495,4.27-1.544-.087-1.544-1.134c0,0-2.726-2.41-2.362-3.863s-1.356.727-2.722-1.363a10.468,10.468,0,0,0-2.82-3v4.179s1.817-.181,1.454,1.091-1.149,1.544-2.209,2.271-1.606.909-2.015,1.726.294,1.09-1.784,2-2.383,1.795-2.383,1.795-2.148-4.793.578-7.518l.493-1.272s2.688-1.091,3.687-.273l1,.818.272-2.362a6.491,6.491,0,0,0-7.269,1s-.318-2.453,1.567-3.452a9.546,9.546,0,0,1,2.576-1.09s1.49.091,1.762.636l-.272-.545s-5.207-2.453-8.509,5.27c0,0,.082,1.454.3-2.726s-1.511-4.634,1.034-6.179,4.056-1.454,5.253.091a6.76,6.76,0,0,0,3.56,2.544c.908.182-.272-2.635,0-3.18s.276-2.089,1.864-2.089,2.679.256,2.86-1.644a4.806,4.806,0,0,0-.182-2.535s-2.541,3.527-2.679,2.535.411-.9,0-2.809-2.318-3.271-.956-6.451l1.363-3.18a7.087,7.087,0,0,1,2.089,2.635c.454,1.363.909,3.271.909,3.271s1.091.818,1.363-.454.908-1.09,1.272-2.544-3.816-3.452-2.271-9.267C1116.737,172.06,1117.827,176.148,1119.1,176.785Z" transform="translate(-1100.883 -166.171)"/><path class="k" d="M1146.907,171.544s.818-3.328-5.451-6.087-2.907-1.544-2.907-1.544a8.391,8.391,0,0,1,1.09,2.726c.091,1.09-.727,1.363.091,2.726s2.678,2.089,2.565,2.635,1.886-1.091,1.886-1.363a12.9,12.9,0,0,1,1.363,3.945c.181,1.507.454,2.96.454,2.96s-2.267,0-2.587-1.181-2.047-1-2.593-1a22.039,22.039,0,0,1-2.362-.78c-.364-.038,4.041,1.87,3.837,2.96s-.779,1.363.6,2.817,1.378,3,3.286,3.271,2.272.878,2.272.878v.939s-1.272-1.607-1.817-.939-1.454,1.848-1.454,1.848a4.519,4.519,0,0,0-4.27,2.544c-1.726,2.907-.727,2.09-1.908,4.089a10.783,10.783,0,0,0-1.354,2.907s3.081-3.634,4.171-3.816,4.906.636,5.542-.454l.545,1.544s-2.726-1.454-3.543.182-2.808,2-1.313,6.269,1.586,2.362,1.5,4.271,1.544-.087,1.544-1.134c0,0,2.726-2.41,2.362-3.863s1.356.727,2.723-1.363a10.46,10.46,0,0,1,2.819-3v4.179s-1.817-.181-1.454,1.091,1.149,1.544,2.21,2.271,1.606.909,2.015,1.726-.295,1.091,1.783,2,2.384,1.795,2.384,1.795,2.148-4.793-.578-7.518l-.492-1.272s-2.688-1.091-3.687-.273l-1,.818-.273-2.362a6.49,6.49,0,0,1,7.268,1s.318-2.453-1.567-3.453a9.551,9.551,0,0,0-2.576-1.09s-1.489.091-1.762.636l.273-.546s5.206-2.453,8.509,5.27c0,0-.082,1.454-.3-2.726s1.51-4.634-1.034-6.178-4.056-1.454-5.253.091a6.758,6.758,0,0,1-3.56,2.544c-.909.182.273-2.634,0-3.18s-.276-2.089-1.864-2.089-2.679.256-2.86-1.644a4.814,4.814,0,0,1,.181-2.535s2.541,3.527,2.679,2.535-.411-.9,0-2.808,2.318-3.271.955-6.451l-1.362-3.18a7.1,7.1,0,0,0-2.09,2.635c-.454,1.363-.909,3.271-.909,3.271s-1.09.818-1.363-.454-.909-1.091-1.272-2.544,3.816-3.452,2.271-9.267C1149.269,166.82,1148.178,170.908,1146.907,171.544Z" transform="translate(-1118.601 -163.645)"/><path class="k" d="M1110.142,173.778s.818-3.328-5.451-6.087-2.907-1.544-2.907-1.544a8.4,8.4,0,0,1,1.091,2.726c.091,1.09-.727,1.363.091,2.726s2.678,2.09,2.566,2.635,1.886-1.091,1.886-1.363a12.894,12.894,0,0,1,1.363,3.945c.182,1.507.454,2.96.454,2.96s-2.266,0-2.587-1.181-2.047-1-2.592-1a22,22,0,0,1-2.362-.78c-.364-.038,4.041,1.87,3.837,2.96s-.779,1.363.6,2.817,1.378,3,3.286,3.271,2.272.878,2.272.878v.94s-1.273-1.607-1.818-.94-1.454,1.848-1.454,1.848a4.519,4.519,0,0,0-4.27,2.544c-1.726,2.907-.727,2.089-1.908,4.088a10.784,10.784,0,0,0-1.354,2.907s3.08-3.634,4.171-3.816,4.906.636,5.542-.454l.545,1.544s-2.726-1.454-3.543.182-2.808,2-1.313,6.269,1.586,2.362,1.5,4.271,1.544-.087,1.544-1.134c0,0,2.725-2.41,2.363-3.864s1.356.727,2.722-1.363a10.452,10.452,0,0,1,2.819-3v4.179s-1.817-.182-1.454,1.09,1.149,1.544,2.21,2.271,1.607.909,2.015,1.726-.295,1.091,1.783,2,2.384,1.795,2.384,1.795,2.147-4.793-.578-7.518l-.492-1.272s-2.688-1.09-3.687-.273l-1,.818-.272-2.362a6.489,6.489,0,0,1,7.268,1s.318-2.453-1.568-3.452a9.55,9.55,0,0,0-2.576-1.091s-1.489.091-1.762.636l.273-.546s5.207-2.453,8.509,5.27c0,0-.082,1.454-.3-2.726s1.51-4.634-1.034-6.178-4.056-1.454-5.253.091a6.756,6.756,0,0,1-3.56,2.544c-.909.182.272-2.634,0-3.18s-.276-2.089-1.864-2.089-2.679.256-2.86-1.644a4.815,4.815,0,0,1,.182-2.535s2.541,3.527,2.679,2.535-.411-.9,0-2.808,2.318-3.271.955-6.451l-1.363-3.18a7.093,7.093,0,0,0-2.09,2.634c-.454,1.363-.909,3.271-.909,3.271s-1.09.818-1.363-.454-.909-1.091-1.272-2.544,3.816-3.452,2.271-9.267C1112.5,169.054,1111.415,173.142,1110.142,173.778Z" transform="translate(-1100.884 -164.722)"/></g><path class="d" d="M927.109,138.018s-1.415-5.762,9.439-10.539,5.034-2.674,5.034-2.674a14.529,14.529,0,0,0-1.888,4.719c-.157,1.887,1.259,2.359-.157,4.719s-4.637,3.618-4.443,4.562-3.266-1.888-3.266-2.36-2.045,4.221-2.359,6.83-.786,5.126-.786,5.126,3.923,0,4.479-2.045,3.544-1.73,4.488-1.73,3.461-1.284,4.09-1.35-7,3.238-6.645,5.126,1.349,2.359-1.037,4.876-2.386,5.191-5.69,5.663-3.933,1.52-3.933,1.52v1.627s2.2-2.782,3.146-1.627,2.517,3.2,2.517,3.2,4.4-.629,7.393,4.4,1.259,3.618,3.3,7.079a18.7,18.7,0,0,1,2.345,5.034s-5.334-6.293-7.222-6.607-8.494,1.1-9.6-.786l-.944,2.674s4.719-2.517,6.135.315,4.862,3.461,2.274,10.854-2.746,4.09-2.588,7.394-2.674-.15-2.674-1.963c0,0-4.719-4.172-4.09-6.689s-2.348,1.258-4.714-2.36a18.108,18.108,0,0,0-4.882-5.191v7.236s3.146-.314,2.517,1.888-1.989,2.674-3.826,3.933-2.781,1.573-3.489,2.989.51,1.888-3.087,3.461-4.127,3.107-4.127,3.107-3.718-8.3,1-13.018l.852-2.2s4.653-1.888,6.384-.472l1.73,1.416.472-4.09a11.238,11.238,0,0,0-12.585,1.73s-.551-4.247,2.714-5.978a16.554,16.554,0,0,1,4.46-1.888s2.58.158,3.051,1.1l-.471-.944s-9.015-4.247-14.733,9.124c0,0,.141,2.517.515-4.719s-2.615-8.023,1.79-10.7,7.023-2.517,9.1.158a11.7,11.7,0,0,0,6.163,4.4c1.573.314-.472-4.562,0-5.506s.478-3.618,3.228-3.618,4.638.443,4.952-2.846-.314-4.391-.314-4.391-4.4,6.107-4.638,4.391.711-1.559,0-4.862-4.014-5.663-1.655-11.169l2.36-5.506s2.832,2.2,3.618,4.562,1.573,5.663,1.573,5.663,1.888,1.416,2.36-.786,1.573-1.887,2.2-4.4-6.607-5.978-3.933-16.045C923.019,129.839,924.906,136.918,927.109,138.018Z" transform="translate(-907.308 -118.691)"/><path class="d" d="M1130.756,187.453s-.818-3.328,5.452-6.087,2.907-1.544,2.907-1.544a8.389,8.389,0,0,0-1.09,2.726c-.091,1.091.727,1.363-.091,2.726s-2.679,2.09-2.566,2.635-1.886-1.09-1.886-1.363a12.892,12.892,0,0,0-1.363,3.945c-.182,1.507-.454,2.96-.454,2.96s2.266,0,2.587-1.181,2.047-1,2.592-1a22.233,22.233,0,0,0,2.363-.78c.363-.038-4.041,1.87-3.838,2.96s.779,1.363-.6,2.816-1.378,3-3.286,3.271-2.271.878-2.271.878v.94s1.272-1.607,1.817-.94,1.454,1.849,1.454,1.849a4.519,4.519,0,0,1,4.271,2.544c1.726,2.907.727,2.089,1.908,4.089a10.808,10.808,0,0,1,1.354,2.907s-3.081-3.634-4.171-3.816-4.906.636-5.542-.454l-.545,1.544s2.726-1.454,3.544.182,2.808,2,1.313,6.269-1.585,2.362-1.495,4.27-1.544-.087-1.544-1.134c0,0-2.726-2.41-2.362-3.863s-1.356.727-2.723-1.363a10.468,10.468,0,0,0-2.82-3v4.179s1.817-.182,1.454,1.09-1.149,1.545-2.21,2.272-1.606.908-2.015,1.726.294,1.09-1.784,2-2.383,1.795-2.383,1.795-2.148-4.793.578-7.519l.492-1.272s2.687-1.09,3.687-.273l1,.818.272-2.362a6.489,6.489,0,0,0-7.269,1s-.318-2.453,1.567-3.452a9.57,9.57,0,0,1,2.576-1.091s1.49.091,1.762.636l-.272-.545s-5.207-2.453-8.509,5.269c0,0,.082,1.454.3-2.726s-1.511-4.634,1.034-6.178,4.056-1.454,5.253.091a6.758,6.758,0,0,0,3.56,2.544c.908.182-.272-2.635,0-3.18s.276-2.09,1.864-2.09,2.679.256,2.86-1.643a4.809,4.809,0,0,0-.182-2.536s-2.541,3.527-2.679,2.536.41-.9,0-2.808-2.318-3.271-.956-6.451l1.363-3.18a7.093,7.093,0,0,1,2.09,2.635c.454,1.363.908,3.271.908,3.271s1.091.818,1.363-.454.908-1.09,1.272-2.544-3.816-3.452-2.271-9.267C1128.394,182.729,1129.484,186.817,1130.756,187.453Z" transform="translate(-1011.871 -145.298)"/><path class="d" d="M1182.379,188.075s-.818-3.328,5.451-6.087,2.908-1.544,2.908-1.544a8.4,8.4,0,0,0-1.091,2.726c-.091,1.091.727,1.363-.091,2.726s-2.678,2.09-2.566,2.635-1.886-1.09-1.886-1.363a12.9,12.9,0,0,0-1.363,3.945c-.181,1.507-.454,2.96-.454,2.96s2.267,0,2.587-1.181,2.046-1,2.592-1a22.155,22.155,0,0,0,2.362-.78c.364-.038-4.041,1.87-3.837,2.96s.779,1.363-.6,2.816-1.378,3-3.286,3.271-2.271.878-2.271.878v.94s1.272-1.607,1.817-.94,1.454,1.849,1.454,1.849a4.518,4.518,0,0,1,4.27,2.544c1.726,2.907.727,2.089,1.908,4.089a10.787,10.787,0,0,1,1.354,2.907s-3.081-3.634-4.171-3.816-4.906.636-5.542-.454l-.545,1.544s2.726-1.454,3.543.182,2.809,2,1.313,6.269-1.586,2.362-1.5,4.27-1.544-.087-1.544-1.134c0,0-2.726-2.41-2.362-3.863s-1.357.727-2.723-1.363a10.467,10.467,0,0,0-2.82-3v4.179s1.817-.182,1.454,1.09-1.149,1.545-2.21,2.272-1.607.908-2.015,1.726.295,1.09-1.783,2-2.383,1.795-2.383,1.795-2.148-4.793.578-7.519l.492-1.272s2.688-1.09,3.687-.272l1,.818.272-2.362a6.489,6.489,0,0,0-7.268,1s-.318-2.453,1.567-3.452a9.572,9.572,0,0,1,2.576-1.091s1.49.091,1.762.636l-.273-.545s-5.207-2.453-8.509,5.269c0,0,.082,1.454.3-2.726s-1.51-4.634,1.034-6.178,4.057-1.454,5.254.091a6.759,6.759,0,0,0,3.559,2.544c.909.181-.272-2.635,0-3.18s.276-2.09,1.864-2.09,2.679.256,2.86-1.643a4.816,4.816,0,0,0-.181-2.536s-2.541,3.527-2.679,2.536.411-.9,0-2.809-2.318-3.271-.955-6.451l1.362-3.18a7.092,7.092,0,0,1,2.09,2.635c.454,1.363.909,3.271.909,3.271s1.09.818,1.363-.454.909-1.09,1.272-2.544-3.816-3.452-2.271-9.267C1180.016,183.351,1181.107,187.439,1182.379,188.075Z" transform="translate(-1036.749 -145.598)"/><g transform="translate(43.643 8.843)"><g transform="translate(14.389 13.165)"><path class="l" d="M1032.731,179.437l1.773-3.842s4.317-18.913,11.763-18.618,11.879,5.615,11.14,12.264c0,0-3.1,3.4-3.1,4.876s.966,7.831-9.195,9.161c0,0-.262,1.625-6.172-2.512a4.976,4.976,0,0,0-.591,2.827Z" transform="translate(-1032.008 -156.251)"/><path class="m" d="M1043.845,183.665c-.829,0-2.305-.478-5.245-2.457a3.024,3.024,0,0,0-.208,1.552.724.724,0,0,1-1.132.76l-5.615-4.156a.723.723,0,0,1-.226-.884l1.742-3.774c.351-1.507,4.684-19.418,12.479-19.1a12.617,12.617,0,0,1,9.255,4.11,11.579,11.579,0,0,1,2.575,8.956.72.72,0,0,1-.185.408c-1.4,1.536-2.914,3.651-2.914,4.388,0,.093,0,.206.009.336.072,2.011.292,8.086-9.516,9.5a1.2,1.2,0,0,1-.372.244A1.613,1.613,0,0,1,1043.845,183.665Zm-.105-1.157v0Zm-5.458-3.119a.72.72,0,0,1,.414.131c3.536,2.475,4.8,2.7,5.135,2.7h.024a.72.72,0,0,1,.5-.31c8.824-1.155,8.643-6.168,8.575-8.056-.006-.151-.01-.281-.01-.388,0-1.545,2.341-4.3,3.13-5.185a10.1,10.1,0,0,0-2.257-7.624,11.2,11.2,0,0,0-8.216-3.608c-.047,0-.094,0-.141,0-5.546,0-9.734,13-10.888,18.058a.72.72,0,0,1-.049.142l-1.526,3.307,4.026,2.981a7.173,7.173,0,0,1,.637-1.76.723.723,0,0,1,.469-.363A.713.713,0,0,1,1038.282,179.389Z" transform="translate(-1031.352 -155.596)"/></g><g transform="translate(26.768 75.424)"><path class="l" d="M1056.331,279.08s-.591-5.171,10.638-2.807c0,0,11.968,7.535,14.332,7.979s3.1.148,3.4,1.182,1.773,4.137,0,5.91a26.282,26.282,0,0,0-2.217,2.381l-7.683,7.667-6.354-2.807,7.683-9.161-16.4-6.5S1056.627,281,1056.331,279.08Z" transform="translate(-1055.604 -274.93)"/><path class="m" d="M1074.146,301.459a.724.724,0,0,1-.292-.061l-6.354-2.808a.723.723,0,0,1-.262-1.126l7.039-8.393-15.469-6.132a.728.728,0,0,1-.114-.057c-.346-.215-3.4-2.16-3.733-4.347,0-.009,0-.018,0-.028a3.426,3.426,0,0,1,1.166-2.76c1.785-1.625,5.264-1.906,10.34-.837a.72.72,0,0,1,.237.1c4.764,3,12.445,7.574,14.08,7.88.639.12,1.163.185,1.583.237,1.136.141,2.033.252,2.377,1.457.039.136.1.311.172.516.483,1.384,1.487,4.262-.356,6.1a27.49,27.49,0,0,0-2.146,2.3.7.7,0,0,1-.071.083l-7.683,7.667A.722.722,0,0,1,1074.146,301.459Zm-5.18-3.8,5.021,2.219,7.3-7.283a29.839,29.839,0,0,1,2.251-2.415c1.2-1.2.428-3.415.013-4.6-.083-.236-.153-.438-.2-.6-.076-.263-.082-.285-1.165-.419-.44-.055-.989-.122-1.672-.25-2.368-.444-12.808-6.962-14.474-8.009-5.931-1.227-8.147-.2-8.941.518a1.989,1.989,0,0,0-.7,1.517c.191,1.133,1.92,2.6,3.009,3.284l16.339,6.477a.723.723,0,0,1,.287,1.137Z" transform="translate(-1054.949 -274.274)"/></g><g transform="translate(1.541 34.241)"><path class="l" d="M1026.687,201.665a4.3,4.3,0,0,0,0,2.043c.313.591,1.938.147,2.529,1.182a33.935,33.935,0,0,1,4.251,8.275c1.955,5.319-3.956,23.05-3.956,23.05a63.762,63.762,0,0,0-20.834-.887s-2.228-5.172,3.393-16.253,9.659-21.925,9.659-21.925l2.344,2.135" transform="translate(-1007.518 -196.426)"/><path class="m" d="M1028.855,236.282a.71.71,0,0,1-.168-.02,63.548,63.548,0,0,0-20.569-.873.725.725,0,0,1-.761-.431c-.1-.224-2.3-5.612,3.412-16.867,5.536-10.915,9.586-21.742,9.626-21.85a.723.723,0,0,1,1.165-.282l2.344,2.135a.724.724,0,0,1-.975,1.07l-1.559-1.42c-1.137,2.941-4.715,11.941-9.311,21-4.39,8.657-3.862,13.6-3.518,15.13a65.808,65.808,0,0,1,19.826.838c1.007-3.151,5.41-17.474,3.763-21.956a30.974,30.974,0,0,0-3.683-7.361c-.214-.319-.384-.571-.517-.8-.154-.269-.523-.348-1.069-.438a1.8,1.8,0,0,1-1.471-.765,4.489,4.489,0,0,1-.068-2.533.723.723,0,1,1,1.414.3,4.468,4.468,0,0,0-.093,1.475,4.191,4.191,0,0,0,.453.09,2.664,2.664,0,0,1,2.09,1.148c.106.186.263.419.461.714a32.3,32.3,0,0,1,3.841,7.67c2.019,5.494-3.7,22.795-3.948,23.529A.724.724,0,0,1,1028.855,236.282Z" transform="translate(-1006.861 -195.771)"/></g><g transform="translate(0 71.937)"><path class="n" d="M1005.3,270.375a43.647,43.647,0,0,1,8.836-1.369s4.649,6.856,6.889,7.778l.29,1.57a31.726,31.726,0,0,0-5.959-.562c-1.66.207-4.177.911-4.428,2.14a3.464,3.464,0,0,0,1.5,3.813S1006.772,284.461,1005.3,270.375Z" transform="translate(-1004.579 -268.282)"/><path class="m" d="M1011.629,283.819a4.594,4.594,0,0,1-2.808-1.112c-2.565-2.034-4.212-6.379-4.893-12.913a.724.724,0,0,1,.512-.769,44.108,44.108,0,0,1,9-1.4.723.723,0,0,1,.645.316c1.75,2.582,5.081,6.9,6.565,7.516a.724.724,0,0,1,.436.538l.291,1.569a.723.723,0,0,1-.839.844,29.86,29.86,0,0,0-5.743-.556c-1.906.238-3.686.97-3.809,1.568a2.753,2.753,0,0,0,1.226,3.093.723.723,0,0,1-.348,1.293A1.939,1.939,0,0,1,1011.629,283.819Zm-6.195-13.561c.828,7.1,2.733,10.048,4.228,11.27a4.395,4.395,0,0,1-.1-2.4c.417-2.036,4.278-2.617,5.048-2.713a24.8,24.8,0,0,1,5.15.4l-.038-.205c-2.189-1.272-5.61-6.072-6.606-7.511A46.419,46.419,0,0,0,1005.434,270.258Z" transform="translate(-1003.924 -267.627)"/></g><g transform="translate(1.542)"><path class="m" d="M1023.454,171.663l3.234-9.919.608,7.093a23.59,23.59,0,0,1,4.137-9.457c3.4-4.58,9.013-10.491,9.013-10.491s1.33,4.728,0,8.423c0,0,3.25-.591,3.4-2.216a26.564,26.564,0,0,1,.739,5.181s1.773-2.21,2.512-1.923,3.1,1.913,5.024.879,1.182-9.161-1.625-12.264-12.116-13-22.9-12.116c0,0-5.91-3.25-8.274-2.955,0,0,5.319.887,5.615,3.4s-7.388,3.4-11.377,13-5.311,13.742-5.311,13.742,6.346-1.773,7.823,1.477S1020.2,171.663,1023.454,171.663Z" transform="translate(-1007.519 -131.155)"/><path class="m" d="M1022.8,171.732c-2.755,0-5.462-2.884-8.046-8.57-1-2.2-5.37-1.525-6.97-1.08a.723.723,0,0,1-.883-.917c.014-.042,1.377-4.277,5.333-13.8a22.307,22.307,0,0,1,9.094-10.552c1.232-.836,2.3-1.558,2.233-2.089-.189-1.6-3.775-2.561-5.016-2.769a.724.724,0,0,1,.029-1.432c2.357-.3,7.354,2.306,8.523,2.935,7.444-.518,15.488,3.755,23.281,12.369,2.231,2.466,3.289,7.847,2.744,11.011a3.112,3.112,0,0,1-1.312,2.375c-1.921,1.035-4.119-.084-5.175-.622-.137-.07-.27-.137-.367-.182a6.913,6.913,0,0,0-1.772,1.664.724.724,0,0,1-1.283-.534,15.7,15.7,0,0,0-.39-3.328,7.85,7.85,0,0,1-2.9,1.155.723.723,0,0,1-.81-.956,13.914,13.914,0,0,0,.264-6.672c-1.74,1.88-5.51,6.039-8.016,9.417a23.081,23.081,0,0,0-4,9.135.723.723,0,0,1-1.436-.047l-.3-3.543-2.129,6.532A.723.723,0,0,1,1022.8,171.732Zm-11.647-11.55c1.931,0,4.054.482,4.918,2.382,2.586,5.691,4.743,7.372,6.221,7.67l3.054-9.368a.723.723,0,0,1,1.408.162l.269,3.139a24.263,24.263,0,0,1,3.174-5.871c3.386-4.564,9.014-10.5,9.07-10.558a.723.723,0,0,1,1.221.3,17.957,17.957,0,0,1,.346,7.582c.827-.3,1.591-.753,1.636-1.246a.723.723,0,0,1,1.425-.1c.064.279.465,2.053.662,3.6.727-.659,1.5-1.1,2.146-.85.162.063.348.158.586.279.965.491,2.579,1.314,3.833.637.173-.093.427-.5.572-1.347.469-2.721-.493-7.7-2.391-9.794-7.555-8.351-15.27-12.456-22.307-11.881a.713.713,0,0,1-.408-.087c-.415-.228-1.031-.549-1.744-.893a2.582,2.582,0,0,1,.151.619c.165,1.4-1.1,2.265-2.858,3.455a21.032,21.032,0,0,0-8.57,9.91c-2.743,6.6-4.229,10.639-4.88,12.486A14.751,14.751,0,0,1,1011.151,160.181Z" transform="translate(-1006.864 -130.501)"/></g><g transform="translate(29.315 27.79)"><path class="m" d="M1063.072,191.187a2.723,2.723,0,0,1-1.571-.623c-1.309-.952-1.781-1.534-1.685-2.079.092-.517.661-.68.934-.758a.434.434,0,0,1,.239.835,1.847,1.847,0,0,0-.294.1,4.594,4.594,0,0,0,1.316,1.2c.41.3.979.606,1.355.38.478-.288.7-1.393.521-2.627-.328-2.3,1.949-3.986,2.047-4.057a.434.434,0,0,1,.51.7c-.034.025-1.951,1.458-1.7,3.233.186,1.3.04,2.907-.933,3.493A1.418,1.418,0,0,1,1063.072,191.187Z" transform="translate(-1059.804 -183.474)"/></g><g transform="translate(26.021 33.707)"><path class="m" d="M1055.2,196.131s-.018,2.364,1.616,2.512a8.83,8.83,0,0,0,2.323,0S1053.619,203.224,1055.2,196.131Z" transform="translate(-1054.184 -195.407)"/><path class="m" d="M1055.467,200.163a1.834,1.834,0,0,1-.973-.257c-1.33-.813-1.017-3.008-.666-4.588a.723.723,0,0,1,1.429.161c0,.028.028,1.7.958,1.788a8.71,8.71,0,0,0,2.114.012.724.724,0,0,1,.606,1.265A6.655,6.655,0,0,1,1055.467,200.163Zm-.408-1.814a.547.547,0,0,0,.19.322.8.8,0,0,0,.584,0A2.087,2.087,0,0,1,1055.059,198.349Z" transform="translate(-1053.524 -194.752)"/></g><g transform="translate(26.315 25.222)"><path class="o" d="M1054.912,181.974s1.681,2.364,3,1.379,1.222-3.842,1.222-3.842S1055.712,178.625,1054.912,181.974Z" transform="translate(-1054.478 -178.971)"/><path class="m" d="M1056.812,183.634a1.7,1.7,0,0,1-.266-.021,4.513,4.513,0,0,1-2.381-1.78.434.434,0,0,1-.068-.352,3.614,3.614,0,0,1,1.616-2.379,4.5,4.5,0,0,1,3.138-.4.434.434,0,0,1,.325.4c0,.126.089,3.1-1.4,4.2A1.6,1.6,0,0,1,1056.812,183.634Zm-1.819-2.147a3.464,3.464,0,0,0,1.689,1.268.731.731,0,0,0,.579-.143c.808-.6,1.021-2.234,1.047-3.13a3.428,3.428,0,0,0-2.153.367A2.691,2.691,0,0,0,1054.992,181.487Z" transform="translate(-1054.085 -178.578)"/></g><g transform="translate(34.038 27.691)"><path class="o" d="M1069.358,186.832s1.662,1.584,2.068.345.985-3.757,0-3.282S1069.358,186.832,1069.358,186.832Z" transform="translate(-1069.069 -183.547)"/><path class="m" d="M1070.6,187.677a3.169,3.169,0,0,1-1.7-.9.288.288,0,0,1-.065-.326c.115-.262,1.156-2.575,2.207-3.082a.6.6,0,0,1,.7.044c.652.571-.132,3.091-.3,3.59a.854.854,0,0,1-.844.671Zm-1.148-1.18c.383.324.936.664,1.224.593.039-.009.142-.036.218-.265a6.472,6.472,0,0,0,.475-2.959.331.331,0,0,0-.074.028A6.772,6.772,0,0,0,1069.448,186.5Z" transform="translate(-1068.807 -183.285)"/></g><g transform="translate(3.648 72.644)"><path class="m" d="M1012.709,282.857c-4.024-6.492-.184-13.584-.018-13.883l1.265.7-.633-.35.633.35c-.036.066-3.589,6.659-.018,12.42Z" transform="translate(-1010.878 -268.974)"/></g><g transform="translate(4.02 76.093)"><path class="m" d="M1022.642,281.569a.72.72,0,0,1-.332-.081c-4.138-2.143-8.865-4.376-9.809-4.5a.723.723,0,0,1-.626-1.276c.393-.3.988-.743,11.1,4.494a.724.724,0,0,1-.333,1.366Z" transform="translate(-1011.586 -275.549)"/></g><g transform="translate(1.018 40.635)"><path class="p" d="M1007.243,267.134s12.412-11.56,13.889-14.285a8.453,8.453,0,0,0,1.182-4.793s-11.082-16.7-3.842-19.5,7.092,0,7.092,0-3.989-6.206-3.4-8.422c0,0,2.513,5.172,3.4,5.172,0,0-1.182-6.945,0-8.127l1.625,6.5s2.512-11.968,6.058-12.707c0,0-2.216,4.967-2.364,7.36,0,0,5.467-9.28,12.116-8.985,0,0-5.468,2.874-5.763,4.688,0,0,5.172-3.21,9.309-2.028,0,0-5.467,1.1-5.91,2.028,0,0,4.581,3.587,5.91,3.734s14.628,8.275,10.786,16.7-5.319,9.161-5.762,12.116-2.069,8.865,7.683,16.4l5.467,4.876Z" transform="translate(-1006.52 -208.614)"/><path class="m" d="M1064.065,267.924h-.009l-57.478-.722a.723.723,0,0,1-.484-1.252c3.428-3.193,12.581-11.951,13.747-14.1a8.268,8.268,0,0,0,1.112-4.2c-.968-1.488-7.753-12.2-6.028-17.633a4.25,4.25,0,0,1,2.63-2.789,15.764,15.764,0,0,1,5.316-1.3h.027c-1.166-2.126-2.507-5.053-2.086-6.634a.723.723,0,0,1,1.35-.13c.515,1.06,1.133,2.206,1.68,3.116-.271-2.405-.373-5.337.556-6.266a.724.724,0,0,1,1.214.336l.91,3.641c1.033-3.839,3.074-9.786,5.924-10.38a.724.724,0,0,1,.808,1c-.013.028-.76,1.711-1.4,3.547,2.289-2.789,6.116-6.392,10.525-6.189a.724.724,0,0,1,.3,1.363,28.768,28.768,0,0,0-2.993,1.818,10.96,10.96,0,0,1,6.4-.494.724.724,0,0,1-.056,1.4,30.144,30.144,0,0,0-4.834,1.342c1.967,1.482,4.158,2.924,4.771,2.992,1.158.129,7.676,3.965,10.659,9.221,1.685,2.969,1.922,5.827.706,8.494-1.794,3.934-3.058,6.17-3.98,7.8a10.94,10.94,0,0,0-1.725,4.121c-.026.17-.055.35-.086.539-.51,3.118-1.362,8.336,7.5,15.182.014.01.026.022.039.033l5.467,4.876a.724.724,0,0,1-.482,1.263Zm-55.675-2.146,53.75.675-4-3.572c-9.519-7.365-8.544-13.335-8.019-16.544.03-.183.058-.356.083-.521a12.266,12.266,0,0,1,1.9-4.618c.909-1.61,2.155-3.815,3.924-7.691a7.42,7.42,0,0,0-.39-6.7c-2.545-4.987-8.916-8.793-9.834-8.979-1.408-.155-5.148-3.01-6.261-3.881a.724.724,0,0,1-.207-.882,1.158,1.158,0,0,1,.258-.334,17.748,17.748,0,0,0-2.623,1.261.723.723,0,0,1-1.095-.731,5.185,5.185,0,0,1,2.068-2.625c-4.071,2.369-7.045,7.338-7.084,7.405a.724.724,0,0,1-1.345-.412,18.957,18.957,0,0,1,1.2-4.554,39.449,39.449,0,0,0-3.46,10.095.723.723,0,0,1-.694.574.71.71,0,0,1-.716-.548l-.682-2.728a38.125,38.125,0,0,0,.472,4.056.724.724,0,0,1-.714.845c-.157,0-.425,0-.893-.438.281.528.573,1.048.862,1.536a1.786,1.786,0,0,1,.753,1.467.723.723,0,0,1-1.33.353c-.106-.164-.273-.428-.479-.768-.538-.228-2-.4-5.743,1.051a2.828,2.828,0,0,0-1.775,1.878c-1.607,5.061,5.883,16.437,5.958,16.551a.723.723,0,0,1,.113.3,9.141,9.141,0,0,1-1.262,5.24C1019.875,254.821,1011.65,262.7,1008.391,265.778Z" transform="translate(-1005.864 -207.958)"/></g><g transform="translate(29.58 48.607)"><path class="m" d="M1061.209,228.162a.724.724,0,0,1-.7-.555c-.379-1.578-.21-2.778.5-3.568a3.166,3.166,0,0,1,2.588-.863.723.723,0,0,1-.191,1.434,1.716,1.716,0,0,0-1.328.405,2.582,2.582,0,0,0-.165,2.254.725.725,0,0,1-.7.893Z" transform="translate(-1060.309 -223.156)"/></g><g transform="translate(33.673 46.058)"><path class="m" d="M1068.834,221.272a.724.724,0,0,1-.485-1.261l1.7-1.528a.723.723,0,1,1,.968,1.075l-1.7,1.528A.72.72,0,0,1,1068.834,221.272Z" transform="translate(-1068.11 -218.297)"/></g><g transform="translate(25.694 70.489)"><path class="m" d="M1053.624,269.12a.723.723,0,0,1-.559-1.182l2.306-2.807a.723.723,0,0,1,1.118.918l-2.306,2.808A.722.722,0,0,1,1053.624,269.12Z" transform="translate(-1052.9 -264.866)"/></g><g transform="translate(13.282 62.066)"><path class="m" d="M1035.728,253.8a.722.722,0,0,1-.593-.309,8.843,8.843,0,0,0-5.285-3.247.723.723,0,0,1,.229-1.428,10.236,10.236,0,0,1,6.241,3.846.724.724,0,0,1-.592,1.138Z" transform="translate(-1029.242 -248.811)"/></g><g transform="translate(28.649 53.201)"><path class="m" d="M1062.655,244.884a.724.724,0,0,1-.72-.668c-.033-.438-.265-4.322,1.967-5.7a16.08,16.08,0,0,1,1.847-.96c.874-.4,1.033-.511,1.066-.742.093-.65.3-2.177.445-3.22-5.738,1.543-7.4,3.722-7.417,3.746a.727.727,0,0,1-1.008.16.72.72,0,0,1-.17-1c.083-.117,2.1-2.881,9.291-4.572a.724.724,0,0,1,.883.8s-.444,3.254-.592,4.29c-.151,1.054-.959,1.424-1.9,1.853a14.489,14.489,0,0,0-1.691.877c-1.261.776-1.351,3.47-1.284,4.352a.722.722,0,0,1-.666.776Z" transform="translate(-1058.535 -231.912)"/></g><g transform="translate(46.27 35.61)"><path class="q" d="M1093.711,206.565s2.216,6.008,10.786,4.407a7.16,7.16,0,0,0,1.33-4.407c-.148-2.512-3.251-7.2-4.728-6.778S1093.711,206.565,1093.711,206.565Z" transform="translate(-1092.878 -199.036)"/><path class="m" d="M1101,211.309c-6.732,0-8.7-5.091-8.719-5.15l-.154-.418.3-.326c1.419-1.525,6.168-6.535,7.718-6.98a2,2,0,0,1,1.707.436,11.816,11.816,0,0,1,3.943,6.994,7.864,7.864,0,0,1-1.481,4.895l-.168.216-.27.05A15.71,15.71,0,0,1,1101,211.309Zm-7.18-5.261c.636,1.212,3.061,4.7,9.5,3.609a6.445,6.445,0,0,0,1.031-3.706,10.722,10.722,0,0,0-3.122-5.733c-.478-.4-.688-.388-.69-.39C1099.781,200.045,1096.533,203.157,1093.817,206.048Z" transform="translate(-1092.124 -198.381)"/></g><g transform="translate(33.66 59.702)"><path class="r" d="M1069.477,245.684s8.275,5.763,21.277,1.773c0,0,6.8-3.25,2.512,2.364s-10.49,8.563-15.071,6.054S1069.191,251.127,1069.477,245.684Z" transform="translate(-1068.74 -244.961)"/><path class="m" d="M1081.128,256.833a8.111,8.111,0,0,1-3.937-.978l-.418-.229c-4.413-2.411-8.976-4.9-8.674-10.635a.723.723,0,0,1,1.135-.556h0c.081.055,8.149,5.492,20.6,1.691,1.377-.653,3.758-1.553,4.634-.476.788.97-.207,2.544-1.284,3.956C1089.66,254.224,1085.133,256.833,1081.128,256.833Zm-11.557-10.525c.409,3.957,3.9,5.868,7.9,8.048l.419.229c4.018,2.2,9.836-.208,14.149-5.859a6.178,6.178,0,0,0,1.259-2.141,7.814,7.814,0,0,0-2.883.869.783.783,0,0,1-.1.038C1079.784,250.724,1072.329,247.76,1069.572,246.308Z" transform="translate(-1068.085 -244.305)"/></g><g transform="translate(34.521 42.414)"><path class="r" d="M1074.1,222.483l8.865-9.752s2.069,5.564,10.786,4.407c0,0,1.437-2.277,1.33-3.7,0,0,1.646,6.858.01,11.2h-2.079s-5.4,12.323-21.906,5.378l2.4-2.216Z" transform="translate(-1070.383 -212.007)"/><path class="m" d="M1079.775,232.2a24.815,24.815,0,0,1-9.6-2.166.723.723,0,0,1-.21-1.2l2.2-2.033.562-5.051a.718.718,0,0,1,.184-.407l8.865-9.752a.724.724,0,0,1,1.214.234c.076.2,1.963,4.863,9.67,3.985a6.832,6.832,0,0,0,1.047-2.972.723.723,0,0,1,1.425-.223c.069.289,1.678,7.126-.016,11.626a.724.724,0,0,1-.677.468H1092.8a14.536,14.536,0,0,1-4.815,5.177A14.831,14.831,0,0,1,1079.775,232.2Zm-7.993-3.078c6.12,2.339,11.283,2.2,15.36-.409a12.942,12.942,0,0,0,4.552-5.016.725.725,0,0,1,.662-.432h1.562a18.931,18.931,0,0,0,.311-7.317c-.248.485-.465.834-.522.925a.722.722,0,0,1-.516.331c-6.95.922-9.948-2.2-11.036-3.88l-8.018,8.821-.565,5.086a.72.72,0,0,1-.228.452Zm1.07-1.971h0Z" transform="translate(-1069.727 -211.351)"/></g><g transform="translate(38.105 94.373)"><path class="m" d="M1093.832,315.9h-16.549a.723.723,0,0,1-.626-1.085c.3-.519,3.016-5.048,5.825-4.346,2.376.594,11.227,3.891,11.6,4.03a.723.723,0,0,1-.252,1.4Zm-15.205-1.447h11.131c-2.794-1.01-6.313-2.253-7.626-2.581C1081.069,311.6,1079.6,313.125,1078.627,314.453Z" transform="translate(-1076.559 -310.394)"/></g><g transform="translate(33.103 50.78)"><path class="o" d="M1068.566,231.827s-2.23-3.5,0-3.938,3.855,2.815,3.855,2.815Z" transform="translate(-1067.286 -227.56)"/><path class="m" d="M1068.176,231.9l-.117-.183c-.148-.234-1.441-2.324-.907-3.567a1.4,1.4,0,0,1,1.1-.81c2.415-.472,4.1,2.829,4.169,2.969l.155.31Zm.538-4.026a1.831,1.831,0,0,0-.354.035.836.836,0,0,0-.675.47c-.318.741.355,2.163.752,2.843l3.292-.959C1071.308,229.56,1070.153,227.877,1068.714,227.877Z" transform="translate(-1067.023 -227.297)"/></g><g transform="translate(36.923 49.032)"><path class="o" d="M1075.884,224.532s-1.837.641-.591,1.74l1.246,1.1,2.152-2.382Z" transform="translate(-1074.569 -224.235)"/><path class="m" d="M1076.3,227.51l-1.461-1.289a1.208,1.208,0,0,1-.515-1.132c.14-.709,1.094-1.06,1.2-1.1l.069-.024,3.4.555Zm-.648-2.948c-.233.1-.7.343-.76.639-.041.208.157.433.33.586l1.032.911,1.6-1.776Z" transform="translate(-1074.306 -223.966)"/></g><g transform="translate(0.001 36.219)"><path class="l" d="M1018.066,200.919a31.962,31.962,0,0,0-8.865,15.515c-2.068,9.457-4.285,8.275-3.842,9.9s9.309,10.2,11.525,13.889,5.91,5.559,7.683,5.144,3.842-1.449,3.99-2.484.3-1.773,1.182-1.921,2.395-.591,2.33-1.281-.656-1.675-1.444-1.084-6.568-2.008-8.012-1.5a4.633,4.633,0,0,0-2.134,1.5s-3.35-8.964-7.093-13.791c0,0,.3-1.534,3.546-6.333a16.6,16.6,0,0,0,2.722-10.019Z" transform="translate(-1004.579 -200.196)"/><path class="m" d="M1023.4,245.488c-2.236,0-5.7-2.07-7.791-5.549a69.957,69.957,0,0,0-6.528-7.81c-3.074-3.385-4.825-5.345-5.075-6.261a1.887,1.887,0,0,1,.558-1.934c.644-.783,1.985-2.413,3.275-8.311a32.382,32.382,0,0,1,9.091-15.9.723.723,0,0,1,1.189.391l1.589,7.535a.624.624,0,0,1,.012.077,17.2,17.2,0,0,1-2.843,10.5,31.083,31.083,0,0,0-3.341,5.789c2.957,3.958,5.585,10.184,6.564,12.641a5.667,5.667,0,0,1,1.617-.89c.9-.32,2.442.095,4.869.816a15.527,15.527,0,0,0,3.029.728,1.385,1.385,0,0,1,1.379-.154,2.242,2.242,0,0,1,1.141,1.8c.131,1.4-2.007,1.907-2.932,2.062-.3.05-.422.169-.585,1.309-.237,1.656-3.074,2.743-4.541,3.087A2.987,2.987,0,0,1,1023.4,245.488Zm-6.421-43.772a31.429,31.429,0,0,0-7.726,14.217c-1.365,6.239-2.8,7.983-3.571,8.92-.34.413-.34.413-.28.634.186.642,2.716,3.429,4.75,5.669a70.123,70.123,0,0,1,6.7,8.039c2.064,3.44,5.466,5.15,6.9,4.811,1.971-.462,3.375-1.438,3.439-1.882.137-.966.326-2.29,1.779-2.532a4.212,4.212,0,0,0,1.715-.6,1.049,1.049,0,0,0-.243-.5l-.033.022c-.644.483-1.827.162-4.231-.553-1.29-.384-3.45-1.026-3.973-.84a3.986,3.986,0,0,0-1.786,1.234.726.726,0,0,1-1.267-.166c-.033-.089-3.355-8.918-6.986-13.6a.724.724,0,0,1-.139-.58c.033-.172.417-1.819,3.658-6.6a16.037,16.037,0,0,0,2.6-9.507Zm13.491,36.765Z" transform="translate(-1003.925 -199.541)"/></g><g transform="translate(5.372 80.665)"><path class="l" d="M1015.546,289.07s-.591-5.172,10.638-2.807c0,0,11.968,7.535,14.332,7.979s3.1.148,3.4,1.182,1.773,4.138,0,5.911a26.191,26.191,0,0,0-2.217,2.381l-7.683,7.667-6.353-2.807,7.683-9.161-16.4-6.5S1015.841,290.991,1015.546,289.07Z" transform="translate(-1014.819 -284.92)"/><path class="m" d="M1033.361,311.449a.723.723,0,0,1-.292-.061l-6.354-2.808a.723.723,0,0,1-.262-1.126l7.039-8.393-15.469-6.132a.755.755,0,0,1-.114-.057c-.347-.215-3.4-2.159-3.733-4.347a.186.186,0,0,1,0-.028,3.424,3.424,0,0,1,1.166-2.759c1.785-1.625,5.263-1.906,10.34-.838a.714.714,0,0,1,.236.1c4.764,3,12.445,7.573,14.08,7.88.639.12,1.162.185,1.583.237,1.136.141,2.033.252,2.378,1.458.039.136.1.311.172.516.483,1.383,1.487,4.262-.356,6.1a27.1,27.1,0,0,0-2.145,2.3.8.8,0,0,1-.072.083l-7.683,7.667A.722.722,0,0,1,1033.361,311.449Zm-5.18-3.8,5.02,2.218,7.3-7.282a29.717,29.717,0,0,1,2.25-2.415c1.2-1.2.428-3.416.013-4.605-.083-.236-.152-.438-.2-.595-.075-.263-.081-.285-1.164-.419-.441-.055-.989-.123-1.672-.251-2.368-.444-12.807-6.961-14.474-8.008-5.59-1.158-7.933-.374-8.914.493a2.008,2.008,0,0,0-.731,1.547c.217,1.264,2.236,2.79,3.008,3.28l16.34,6.477a.723.723,0,0,1,.287,1.137Z" transform="translate(-1014.164 -284.265)"/></g><g transform="translate(28.27 27.46)"><circle class="m" cx="0.813" cy="0.813" r="0.813" transform="translate(0.289 0.289)"/><path class="m" d="M1058.914,185.049a1.1,1.1,0,1,1,1.1-1.1A1.1,1.1,0,0,1,1058.914,185.049Zm0-1.625a.523.523,0,1,0,.523.524A.524.524,0,0,0,1058.914,183.424Z" transform="translate(-1057.812 -182.845)"/></g><g transform="translate(33.89 51.068)"><circle class="m" cx="0.813" cy="0.813" r="0.813" transform="translate(0.289 0.289)"/><path class="m" d="M1069.626,230.05a1.1,1.1,0,1,1,1.1-1.1A1.1,1.1,0,0,1,1069.626,230.05Zm0-1.625a.523.523,0,1,0,.523.523A.523.523,0,0,0,1069.626,228.425Z" transform="translate(-1068.524 -227.846)"/></g><g transform="translate(37.272 49.049)"><circle class="m" cx="0.677" cy="0.677" r="0.677" transform="translate(0.289 0.28)"/><path class="m" d="M1075.937,225.921a.966.966,0,0,1-.683-1.649.989.989,0,0,1,1.366,0h0a.966.966,0,0,1-.683,1.649Zm0-1.353a.384.384,0,0,0-.273.113.387.387,0,1,0,.548,0h0A.386.386,0,0,0,1075.937,224.568Z" transform="translate(-1074.972 -223.998)"/></g><g transform="translate(34.423 29.598)"><circle class="m" cx="0.813" cy="0.813" r="0.813" transform="translate(0.289 0.29)"/><path class="m" d="M1070.643,189.124a1.1,1.1,0,1,1,1.1-1.1A1.1,1.1,0,0,1,1070.643,189.124Zm0-1.625a.523.523,0,1,0,.524.523A.523.523,0,0,0,1070.643,187.5Z" transform="translate(-1069.541 -186.92)"/></g></g></g></g></svg>