<svg xmlns="http://www.w3.org/2000/svg" xmlns:xlink="http://www.w3.org/1999/xlink" width="148.838" height="107.593" viewBox="0 0 148.838 107.593"><defs><style>.a{fill:none;}.b{clip-path:url(#a);}.c{fill:#cc65e5;}.d{fill:#fbbeff;opacity:0.5;}.e{fill:#f1c5a2;}.f{fill:#29266f;}.g{fill:#dd916f;}.h,.j{fill:#fff;}.i{fill:#aa6161;}.j,.k{stroke:#29266f;stroke-miterlimit:10;stroke-width:5px;}.k{fill:#887499;}.l{fill:#c31411;}.m{fill:#9b5708;}.n{fill:#d99a3b;}</style><clipPath id="a"><rect class="a" width="148.838" height="107.593" rx="8" transform="translate(0 0)"/></clipPath></defs><g class="b" transform="translate(0 0)"><rect class="c" width="155.569" height="109.422" rx="10" transform="translate(-2.506 -1.229)"/><path class="d" d="M242.142,41.912,141.553,170.055s18.919-1.111,50.562,12.847,49.028,29.513,49.028,29.513L287.669,61.277Z" transform="translate(-146.985 -63.067)"/><path class="d" d="M155.983-94.555l121.931,167.1s-21.464-2.6-56.351,12.876-53.551,33.871-53.551,33.871L105.742-73.185Z" transform="translate(-121.501 34.049)"/><g transform="translate(22.36 5.181)"><g transform="translate(11.991)"><path class="e" d="M363.867,177.267c-2.8,10.159-17.964,13.1-17.964,13.1a11.867,11.867,0,0,1-10.75,8.982c-2.217.211-6.92,0-9.423,2.947s-.735,8.685-.735,8.685a10.366,10.366,0,0,1-8.72.064l-.037-.02-.078-.044a19.375,19.375,0,0,0-7.215-11.338,164.738,164.738,0,0,1-16.05-14.87c-1.473-1.621,0-5.744,0-5.744a42.407,42.407,0,0,1-10.306-16.785c-3.388-10.453,9.57-8.391,9.57-8.391-2.062-17.229,10.747-13.4,10.747-13.4,28.714-15.167,46.826,10.453,46.826,10.453,12.514,3.388,4.712,18.111,4.712,18.111S366.664,167.106,363.867,177.267Z" transform="translate(-281.303 -134.96)"/><path class="f" d="M318.708,210.967a10.43,10.43,0,0,1-4.538-.992l-.448-.248-.054-.349a18.833,18.833,0,0,0-6.939-10.876,166.025,166.025,0,0,1-16.147-14.959c-1.452-1.6-.668-4.8-.293-6.022a43.288,43.288,0,0,1-10.165-16.77c-.98-3.023-.759-5.4.656-7.05,2.244-2.623,6.819-2.552,8.788-2.382-.529-5.639.524-9.608,3.136-11.807,3.061-2.577,7.2-1.818,8.336-1.543,15-7.819,27.1-4.5,34.618-.324a42.294,42.294,0,0,1,12.73,10.917c3.25.936,5.463,2.712,6.578,5.282,1.962,4.52-.049,10.193-1.108,12.617,2.024-.114,5.89.018,7.98,2.359,1.445,1.619,1.763,3.947.945,6.918h0c-2.636,9.574-15.407,12.923-18.06,13.521a12.685,12.685,0,0,1-11.282,9.091c-.338.032-.731.055-1.146.079-2.333.134-5.859.337-7.8,2.617-2.215,2.605-.612,7.953-.6,8.007l.187.612-.585.259A11.806,11.806,0,0,1,318.708,210.967Zm-3.687-2.183a9.648,9.648,0,0,0,7.334.058c-.4-1.654-1.189-6.1,1.046-8.726,2.336-2.75,6.232-2.975,8.811-3.123.4-.023.782-.045,1.093-.075a11.147,11.147,0,0,0,10.109-8.4l.09-.481.481-.094c.147-.029,14.763-2.982,17.407-12.587h0c.679-2.468.468-4.343-.629-5.574-2.33-2.614-7.932-1.779-7.989-1.77l-1.419.22.67-1.27c.039-.073,3.854-7.4,1.615-12.549-.961-2.21-2.938-3.734-5.877-4.529l-.25-.067-.15-.212a41.168,41.168,0,0,0-12.454-10.727c-10.533-5.831-21.786-5.665-33.446.5l-.261.138-.282-.084c-.043-.013-4.392-1.26-7.3,1.193-2.348,1.984-3.2,5.829-2.529,11.431l.113.946-.942-.149c-.06-.009-6.076-.923-8.393,1.79-1.066,1.248-1.193,3.154-.379,5.667A42.078,42.078,0,0,0,291.6,176.784l.352.323-.16.451c-.343.965-1.107,3.959-.146,5.017A164.094,164.094,0,0,0,307.6,197.357,20.154,20.154,0,0,1,315.021,208.784Z" transform="translate(-279.523 -133.244)"/></g><path class="g" d="M360.505,298.839c-1.508.089-4.564.884-4.123,4.417s3.78,9.353,14.519,11.19,16.108-5.6,16.108-5.6.884-5.594-4.712-7.214S365.989,298.513,360.505,298.839Z" transform="translate(-322.198 -251.057)"/><g transform="translate(21.956 0)"><path class="f" d="M321.9,171.7V154.912s-.295-1.62,3.239-5.006,4.27-4.123,4.417-5.89,0-1.031,0-1.031,14.577,10.9,41.376,10.749c0,0,2.5,15.166,1.767,16.2s-5.743,8.1-5.006,11.338c0,0,8.393-10.749,11.338-12.368,0,0,7.362-15.019-4.712-18.111,0,0-18.111-25.326-46.824-10.454,0,0-12.516-3.976-10.749,13.4C316.748,153.734,322.2,169.784,321.9,171.7Z" transform="translate(-315.857 -134.96)"/><path class="f" d="M365.55,181.194l-.337-1.481c-.733-3.226,3.279-9.329,5.084-11.863.275-1.063-.656-8.361-1.754-15.109-22.225-.019-36.164-7.68-40.069-10.142-.227,1.908-1.232,2.872-4.613,6.112-2.871,2.752-3.017,4.186-3.023,4.377l.025.082-.02.027v16.478a2.01,2.01,0,0,1-.008.418l-1.433-.11V169.5c-.219-2.02-2.663-10.031-5.115-17.254l-.026-.078-.008-.081c-.635-6.244.466-10.566,3.273-12.847,3.031-2.463,7-1.683,8.115-1.4,15-7.66,27.088-4.353,34.605-.21a42.3,42.3,0,0,1,12.726,10.8,9.162,9.162,0,0,1,6.3,4.946c2.66,5.769-1.2,13.776-1.368,14.115l-.1.2-.2.11c-2.309,1.27-8.808,9.223-11.117,12.181Zm4.217-29.9.1.607c.006.038.634,3.846,1.162,7.732,1.106,8.124.729,8.652.48,9a33.361,33.361,0,0,0-4.687,8.623c2.494-3.089,7.482-9.074,9.872-10.579.551-1.215,3.43-8,1.264-12.691a7.882,7.882,0,0,0-5.595-4.216l-.254-.065-.153-.214A41.15,41.15,0,0,0,359.5,138.875c-10.535-5.786-21.79-5.655-33.452.385l-.265.137-.285-.09c-.041-.013-4.2-1.28-7.074,1.063-2.389,1.948-3.314,5.815-2.748,11.495.582,1.715,2.406,7.151,3.723,11.685V153.24c-.049-.5.07-2.32,3.462-5.57,3.491-3.346,4.074-3.944,4.2-5.429.02-.245.034-.432.044-.575l-.121-.091.089-.446c.156-.783.742-.74.858-.724a.606.606,0,0,1,.591.505c2.227,1.514,16.309,10.39,40.1,10.39h.527Zm-48.935,1.773Z" transform="translate(-314.078 -133.244)"/></g><g transform="translate(22.862 35.268)"><path class="f" d="M317.944,265.078a.7.7,0,0,1-.138-.013.72.72,0,0,1-.57-.845c1.191-6.13,4.446-7.69,4.83-7.855a8.35,8.35,0,0,1,4.427-.775,11.175,11.175,0,0,1,7.823,4.593,6.537,6.537,0,0,1,1.28,3.441.72.72,0,0,1-.7.745h-.025a.72.72,0,0,1-.72-.7,5.128,5.128,0,0,0-1.022-2.667,9.679,9.679,0,0,0-6.772-3.982,6.9,6.9,0,0,0-3.688.646l-.05.022c-.111.046-2.9,1.264-3.973,6.8A.721.721,0,0,1,317.944,265.078Z" transform="translate(-317.223 -255.552)"/></g><g transform="translate(58.226 43.745)"><path class="e" d="M442.363,290.15c.173-.626.77-.675,1.895-1.246a13.552,13.552,0,0,1,9.184-1.047,7.192,7.192,0,0,1,2.736,1.445,11.228,11.228,0,0,1,3.829,9.1" transform="translate(-441.642 -286.738)"/><path class="f" d="M458.229,297.336a.7.7,0,0,1-.081,0,.721.721,0,0,1-.636-.8,10.607,10.607,0,0,0-3.585-8.476,6.47,6.47,0,0,0-2.465-1.3,12.868,12.868,0,0,0-8.654,1c-.334.17-.624.3-.858.4-.537.234-.643.3-.671.4a.721.721,0,0,1-1.39-.384c.217-.784.833-1.052,1.485-1.337.227-.1.485-.211.777-.36a14.2,14.2,0,0,1,9.712-1.1,7.907,7.907,0,0,1,3.007,1.592,11.868,11.868,0,0,1,4.074,9.725A.721.721,0,0,1,458.229,297.336Z" transform="translate(-439.863 -284.949)"/></g><g transform="translate(30.875 16.504)"><path class="f" d="M362.84,204.809a.72.72,0,0,1-.667-.447c-.035-.086-3.6-8.64-9.193-11.716a4.016,4.016,0,0,0-3.636-.462c-2.137.96-2.9,4.227-2.908,4.26a.721.721,0,1,1-1.406-.319c.037-.163.938-4,3.723-5.256a5.363,5.363,0,0,1,4.922.514c6.043,3.324,9.68,12.062,9.832,12.432a.721.721,0,0,1-.667.994Z" transform="translate(-345.012 -190.48)"/></g><g transform="translate(30.876 25.969)"><path class="h" d="M361.2,232.647a6.842,6.842,0,0,1-5.917,6.779,10.469,10.469,0,0,0-7.3-4.288,6.843,6.843,0,1,1,13.215-2.491Z" transform="translate(-346.792 -225.083)"/><path class="f" d="M353.5,238.368a.72.72,0,0,1-.591-.308,9.68,9.68,0,0,0-6.773-3.982.721.721,0,0,1-.606-.455,7.563,7.563,0,1,1,8.066,4.739A.782.782,0,0,1,353.5,238.368Zm-6.768-5.673a11.268,11.268,0,0,1,7.086,4.167,6.122,6.122,0,1,0-7.086-4.167Z" transform="translate(-345.013 -223.304)"/></g><ellipse class="f" cx="1.487" cy="1.914" rx="1.487" ry="1.914" transform="translate(32.379 30.112)"/><ellipse class="f" cx="1.487" cy="1.345" rx="1.487" ry="1.345" transform="translate(64.863 46.197)"/><g transform="translate(54.646 43.806)"><path class="e" d="M428.728,287.462s4.79,2.033,4.5,5.47-4.5.934-4.5.934" transform="translate(-428.359 -286.798)"/><path class="f" d="M430.559,293.827a6.994,6.994,0,0,1-3.11-.979l.738-1.239c.64.378,2.193,1.042,2.916.67.1-.054.422-.217.493-1.046.247-2.883-4.016-4.727-4.059-4.745l.563-1.328c.215.092,5.267,2.283,4.932,6.2a2.507,2.507,0,0,1-1.272,2.206A2.607,2.607,0,0,1,430.559,293.827Z" transform="translate(-427.449 -285.16)"/></g><g transform="translate(41.432 22.695)"><path class="e" d="M387.933,234.392s-2.8-1.176-3.681,1.1,3,2.723,3,2.723-1.358,4.712,4.227,5.89,5.575-3.681,5.506-6.773-1.983-11.043,1.4-16.2a14.8,14.8,0,0,1,9.424-6.61c1.472-.311,6.479-.163,7.215,6.61" transform="translate(-383.401 -213.723)"/><path class="f" d="M391.269,243.236a8.368,8.368,0,0,1-1.719-.194,6.111,6.111,0,0,1-4.228-2.659,5.436,5.436,0,0,1-.683-3.354,4.328,4.328,0,0,1-2.719-1.6,2.156,2.156,0,0,1-.119-1.971,2.794,2.794,0,0,1,1.514-1.623,4.407,4.407,0,0,1,3.119.114.721.721,0,0,1-.557,1.33,3.013,3.013,0,0,0-2-.115,1.355,1.355,0,0,0-.729.815.729.729,0,0,0,.008.7c.374.621,1.779.971,2.4,1.044a.721.721,0,0,1,.61.916,4.227,4.227,0,0,0,.4,3.007,4.761,4.761,0,0,0,3.282,1.978,3.9,3.9,0,0,0,3.356-.426c1.381-1.146,1.319-3.95,1.281-5.625-.014-.611-.106-1.452-.214-2.426-.434-3.936-1.09-9.884,1.736-14.183a15.487,15.487,0,0,1,9.877-6.92,6.743,6.743,0,0,1,5.026,1.133c1.722,1.249,2.75,3.3,3.055,6.1a.721.721,0,0,1-1.433.156c-.259-2.38-1.089-4.094-2.468-5.093a5.292,5.292,0,0,0-3.882-.89,14.073,14.073,0,0,0-8.97,6.3c-2.54,3.866-1.919,9.5-1.508,13.233.111,1.007.207,1.877.222,2.551.043,1.936.115,5.176-1.8,6.767A4.331,4.331,0,0,1,391.269,243.236Z" transform="translate(-381.622 -211.949)"/></g><g transform="translate(57.301 32.812)"><path class="h" d="M452.838,256.377a6.806,6.806,0,0,1-1.681,4.489,13.554,13.554,0,0,0-9.184,1.047,6.843,6.843,0,1,1,10.865-5.536Z" transform="translate(-438.432 -248.813)"/><path class="f" d="M440.195,260.855a.721.721,0,0,1-.424-.138,7.566,7.566,0,1,1,10.151-1.156.722.722,0,0,1-.745.218,12.86,12.86,0,0,0-8.653,1A.721.721,0,0,1,440.195,260.855Zm4.023-12.379a6.122,6.122,0,0,0-3.933,10.813,14.4,14.4,0,0,1,8.829-1.018,6.12,6.12,0,0,0-4.9-9.8Z" transform="translate(-436.654 -247.034)"/></g><ellipse class="f" cx="1.487" cy="1.914" rx="1.487" ry="1.914" transform="translate(58.774 36.937)"/><g transform="translate(37.134 49.325)"><g transform="translate(1.405 0.513)"><path class="f" d="M388.456,314.548a22.934,22.934,0,0,1-5.685-.747c-10.717-2.84-11.165-7.17-11.181-7.654l.721-.024.72-.041c0,.037.415,3.756,10.11,6.324,3.008.8,7.5,1.2,10.267-.3l.687,1.268A12.054,12.054,0,0,1,388.456,314.548Z" transform="translate(-371.59 -306.082)"/></g><path class="f" d="M367.439,306.246a.721.721,0,0,1-.689-.935c.138-.446.732-1.168,3.16-.978a.721.721,0,0,1-.111,1.437,3.418,3.418,0,0,0-1.753.142A.722.722,0,0,1,367.439,306.246Zm.688-.506h0Zm0,0h0Z" transform="translate(-366.718 -304.302)"/><g transform="translate(21.83 4.736)"><path class="f" d="M444.631,325.307a.721.721,0,0,1-.717-.651A4.156,4.156,0,0,0,442.676,322a.721.721,0,0,1,.926-1.1,5.61,5.61,0,0,1,1.747,3.623.721.721,0,0,1-.648.787C444.678,325.306,444.655,325.307,444.631,325.307Z" transform="translate(-442.423 -320.727)"/></g></g><path class="f" d="M503.832,270.343s5.89-4.761,9.522-5.546,3.926.491,3.828.982.982,6.38-11.583,9.423c0,0-3.534-.491-1.276-3.141,0,0-1.963,2.552-.2,3.141a9.827,9.827,0,0,0,7.559-1.276,16.478,16.478,0,0,0,5.512-4.81c.476-.884,2.439-3.73.967-5.792s-6.38-1.178-9.718,1.374A15.31,15.31,0,0,0,503.832,270.343Z" transform="translate(-426.845 -225.001)"/><path class="f" d="M301.493,217.009s.785,1.963,0,2.258-2.552.393-5.1-2.258-3.828-7.853-1.669-10.012,7.559,5.988,8.246,8.638c0,0-.411-9.718-4.672-11.289s-6.126,1.276-6.224,3.141a21.356,21.356,0,0,0,1.865,7.494c.687,1.144,2.356,3.755,4.515,4.806s3.73,1.153,3.927.513S301.493,217.009,301.493,217.009Z" transform="translate(-276.457 -183.519)"/><ellipse class="f" cx="2.05" cy="3.693" rx="2.05" ry="3.693" transform="matrix(0.149, -0.989, 0.989, 0.149, 33.765, 18.703)"/><ellipse class="f" cx="2.05" cy="3.693" rx="2.05" ry="3.693" transform="matrix(0.251, -0.968, 0.968, 0.251, 64.438, 24.727)"/><g transform="translate(34.04 13.608)"><path class="f" d="M397.858,191.463A10.234,10.234,0,0,0,392.011,188a9.788,9.788,0,0,0-4.772.578l-.342.108c-2.737.85-9.144,2.838-13.784,1.408-2.625-.809-3.962-2.45-5.377-4.186-1.508-1.849-3.067-3.761-6.355-4.7a13.488,13.488,0,0,0-5.361-.378l-.035-.286a13.77,13.77,0,0,1,5.474.387c3.375.961,4.964,2.908,6.5,4.792,1.388,1.7,2.7,3.309,5.239,4.092,4.555,1.4,10.9-.566,13.613-1.407l.341-.107a10.027,10.027,0,0,1,4.906-.587,10.509,10.509,0,0,1,6.013,3.551Z" transform="translate(-355.985 -180.436)"/></g><g transform="translate(37.045 12.427)"><path class="f" d="M385.932,185.539c-.149,0-.29-.005-.425-.016a14.644,14.644,0,0,1-6.641-2.518,18,18,0,0,1-3.306-2.535,12.673,12.673,0,0,0-2.861-2.138,14.754,14.754,0,0,0-6.292-1.7l.015-.288a15.04,15.04,0,0,1,6.414,1.738,12.921,12.921,0,0,1,2.92,2.18,17.557,17.557,0,0,0,3.257,2.5,14.414,14.414,0,0,0,6.516,2.479c1.3.1,3.335-.322,7.376-1.165.622-.129,1.141-.243,1.59-.34a11.212,11.212,0,0,1,3.533-.447,10.755,10.755,0,0,1,5.25,1.889l-.161.24a10.467,10.467,0,0,0-5.109-1.841,10.824,10.824,0,0,0-3.451.441c-.449.1-.97.211-1.588.34A43.139,43.139,0,0,1,385.932,185.539Z" transform="translate(-366.408 -176.34)"/></g><g transform="translate(10.565 57.123)"><path class="i" d="M286.877,334.111s-8.992,2.191-9.712,1.744,6.642,7.914,14.1,13.01a82.8,82.8,0,0,0,16.1,8.237V349.74S298.979,346.557,286.877,334.111Z" transform="translate(-276.384 -333.313)"/><path class="f" d="M306.279,356.161l-.967-.352a84.338,84.338,0,0,1-16.258-8.319,75.96,75.96,0,0,1-9.913-8.363c-1.183-1.166-2.325-2.356-3.217-3.35-1.208-1.346-1.573-1.753-1.217-2.3a.735.735,0,0,1,.939-.255c.805.1,5.3-.819,9.253-1.782l.4-.1.287.3c11.82,12.157,20.146,15.426,20.229,15.458l.463.177Zm-29.506-21.586a68.826,68.826,0,0,0,28.064,19.507V348.25c-1.925-.846-9.524-4.613-20-15.312A73.52,73.52,0,0,1,276.773,334.575Zm-1.037-1.3h0Z" transform="translate(-274.576 -331.343)"/></g><g transform="translate(62.422 81.565)"><path class="i" d="M456.915,418.608l4.025,19.739h8.638l3.632-12.475s-5.745,6.086-7.732-2.061l-1.594,5.988Z" transform="translate(-456.194 -417.887)"/><path class="f" d="M467.8,437.288H459.16a.721.721,0,0,1-.706-.577l-4.025-19.739a.721.721,0,0,1,1.318-.525l6.089,9.777,1.166-4.38a.721.721,0,0,1,.7-.535h.007a.72.72,0,0,1,.693.55c.357,1.463,1.058,3.28,2.374,3.63,1.53.407,3.5-1.229,4.134-1.894a.721.721,0,0,1,1.216.7l-3.632,12.475A.721.721,0,0,1,467.8,437.288Zm-8.05-1.442h7.509l2.847-9.777a4.848,4.848,0,0,1-3.7.815,4.194,4.194,0,0,1-2.612-2.412L462.8,428.2a.721.721,0,0,1-1.309.2l-4.851-7.788Z" transform="translate(-454.414 -416.107)"/></g><path class="j" d="M414.7,422.283c-1.56-1.358-7.364-25.026-7.442-25.347a9.209,9.209,0,0,1-8.051-.591l-.038-.02-.078-.043-.533-.248,1.22,1.231s3.535,18.155,3.437,25.018Zm-10.8-.6,1.768-15.02,6.047,15.02Zm-2.154-18.259,3.137-5.2,2.748,3.875-2.16,3.878Z" transform="translate(-352.239 -320.257)"/><g transform="translate(40.753 72.384)"><path class="i" d="M391.446,416.789H383.3c.4-1.563-1.275-28.475-1.275-28.475l4.766,2.226,1.22,1.231S391.544,409.926,391.446,416.789Z" transform="translate(-381.228 -387.147)"/><path class="f" d="M390.2,414.63h-9.785l.227-.9c.256-1.236-.658-17.987-1.3-28.253l-.075-1.211,5.983,2.794,1.464,1.478.042.215c.145.745,3.548,18.307,3.45,25.166Zm-8.094-1.442h6.66c-.123-6.742-3-21.96-3.381-23.945l-.975-.984-3.551-1.658C381.209,392.374,382.193,408.969,382.1,413.189Z" transform="translate(-379.267 -384.268)"/></g><path class="k" d="M415.5,407.509l-2.16,3.878-3.725-2.552,3.137-5.2Z" transform="translate(-360.11 -325.666)"/><path class="k" d="M424.9,447.924h-7.814l1.768-15.02Z" transform="translate(-365.426 -346.496)"/><g transform="translate(54.293 75.284)"><path class="i" d="M440.877,422.845h-4.712c-1.56-1.358-7.365-25.026-7.442-25.347a8.8,8.8,0,0,0,.807-.363,5.933,5.933,0,0,0,.548-.311l6.773,6.28Z" transform="translate(-428.002 -396.104)"/><path class="f" d="M439.1,421.789h-4.711a.721.721,0,0,1-.473-.177c-.342-.3-1.142-.994-4.5-13.418-1.681-6.217-3.156-12.243-3.17-12.3a.721.721,0,0,1,.437-.842,8.061,8.061,0,0,0,.741-.333,5.433,5.433,0,0,0,.477-.27.724.724,0,0,1,.89.071l6.774,6.28a.721.721,0,0,1,.216.385l4.025,19.741a.721.721,0,0,1-.706.865Zm-4.361-1.442h3.478l-3.8-18.649-6.213-5.761-.12.063q-.143.073-.291.143C430.006,405.186,433.549,418.351,434.737,420.347Z" transform="translate(-426.223 -394.327)"/></g><g transform="translate(45.593 75.055)"><path class="i" d="M403.21,422.283h-2.266l-2.053-8.452,2.16-2.062-2.16-3.14-.337-12.6,1.22,1.231S403.308,415.42,403.21,422.283Z" transform="translate(-397.832 -395.312)"/><path class="f" d="M401.431,421.223h-2.267a.721.721,0,0,1-.7-.551l-2.053-8.452a.721.721,0,0,1,.2-.691l1.716-1.638-1.812-2.634a.718.718,0,0,1-.127-.389l-.337-12.6a.721.721,0,0,1,1.233-.527l1.22,1.231a.723.723,0,0,1,.2.37c.145.744,3.548,18.307,3.45,25.166A.721.721,0,0,1,401.431,421.223Zm-1.7-1.442h.977a85.883,85.883,0,0,0-.92-9.29l-.019.019-1.859,1.775Zm-1.9-13.165L399.6,409.2c-.714-4.853-1.587-9.688-2.029-12.063Z" transform="translate(-396.053 -393.531)"/></g><g transform="translate(54.293 75.304)"><path class="i" d="M437.639,422.894h-1.473c-1.56-1.358-7.365-25.026-7.442-25.347v0l.669-.652.138.292,4.441,9.406-1.488,3.178,3.486,2.612Z" transform="translate(-428.002 -396.172)"/><path class="f" d="M435.86,421.837h-1.473a.721.721,0,0,1-.473-.177c-.342-.3-1.142-.994-4.5-13.418-1.681-6.217-3.156-12.243-3.17-12.3a.725.725,0,0,1,.2-.69l.669-.652a.721.721,0,0,1,1.154.207l.138.291,4.441,9.408a.722.722,0,0,1,0,.614l-1.239,2.647,3.017,2.261a.72.72,0,0,1,.28.464L436.572,421a.721.721,0,0,1-.712.834Zm-1.123-1.442h.278L433.524,411l-2.344-1.756C432.673,414.673,434.073,419.279,434.737,420.395ZM428.3,398.261c.675,2.7,1.435,5.639,2.195,8.472l.9-1.919Z" transform="translate(-426.223 -394.394)"/></g><g transform="translate(48.783 77.248)"><path class="l" d="M415.5,407.509l-2.16,3.878-3.725-2.552,3.137-5.2Z" transform="translate(-408.892 -402.913)"/><path class="f" d="M411.56,410.331a.722.722,0,0,1-.407-.126l-3.725-2.552a.721.721,0,0,1-.21-.967l3.137-5.2a.721.721,0,0,1,1.205-.045l2.748,3.875a.72.72,0,0,1,.042.768l-2.159,3.879a.721.721,0,0,1-.465.351A.713.713,0,0,1,411.56,410.331Zm-2.757-3.483,2.512,1.72,1.554-2.79-1.848-2.606Z" transform="translate(-407.113 -401.135)"/></g><g transform="translate(50.937 85.687)"><g transform="translate(0.721 0.722)"><path class="l" d="M424.9,447.924h-7.814l1.768-15.02Z" transform="translate(-417.083 -432.904)"/></g><path class="f" d="M423.119,446.864H415.3a.72.72,0,0,1-.716-.805l1.768-15.02a.721.721,0,0,1,1.385-.185l6.046,15.02a.721.721,0,0,1-.669.99Zm-7-1.442h5.936l-4.594-11.41Z" transform="translate(-414.584 -430.401)"/></g><g transform="translate(0 20.761)"><path class="m" d="M253.817,210.839a54.068,54.068,0,0,0-8.344,5.721s-3.632-.785-3.435,2.16,1.472,5.694,4.123,2.847l3.828,3.585s-8.246-.454-9.424,7.061,6.184,1.631,6.184,1.631-.619,2.84.378,3.92l1,1.08s-6.871,14.724.687,18.749c0,0,4.025,1.767,2.454-12.663a6.023,6.023,0,0,0,3.435.491s-.785,9.816,0,11.682,2.749,2.454,3.73,1.08,1.963-10.209,0-14.234c0,0,.589,3.436,1.767,1.08s2.454-13.056-2.356-16.982a24.784,24.784,0,0,0-.884-16.393s2.258-3.42-.982-3.869S253.817,210.839,253.817,210.839Z" transform="translate(-239.716 -207.022)"/><path class="f" d="M255.25,257.878a2.527,2.527,0,0,1-.282-.016,3.513,3.513,0,0,1-2.711-2.259c-.712-1.69-.3-8.574-.12-11.142a6.468,6.468,0,0,1-1.819-.251c.627,6.681.071,10.708-1.658,11.976a1.969,1.969,0,0,1-1.918.289l-.049-.024c-7.39-3.935-2.329-16.652-1.2-19.246l-.674-.73a4.152,4.152,0,0,1-.755-2.883c-1.406.891-3.512,1.9-4.916,1.083-1.083-.629-1.434-2.053-1.074-4.352.911-5.816,5.754-7.235,8.416-7.571l-2.1-1.966a2.651,2.651,0,0,1-2.669.809c-1.735-.617-2.1-3.426-2.183-4.6a2.64,2.64,0,0,1,.837-2.3,4.093,4.093,0,0,1,3.095-.671,53.364,53.364,0,0,1,7.745-5.318,3.316,3.316,0,0,1,.509-2.666,2.684,2.684,0,0,1,2.571-.74,2.539,2.539,0,0,1,2.168,1.379,3.939,3.939,0,0,1-.479,3.26,25.424,25.424,0,0,1,.9,16.1c4.742,4.454,3.345,15.2,2.175,17.539a2.5,2.5,0,0,1-.9,1.087c.861,4.621-.01,10.878-.929,12.164A2.412,2.412,0,0,1,255.25,257.878Zm-2.329-14.957a.721.721,0,0,1,.719.778c-.3,3.728-.576,10.1-.054,11.344a2.121,2.121,0,0,0,1.542,1.386.967.967,0,0,0,.937-.446c.7-.975,1.57-7.6.519-11.841a5.086,5.086,0,0,1-.643-1.852.721.721,0,0,1,1.358-.438,8.737,8.737,0,0,1,.449,1.124l.026-.051c1.053-2.107,2.364-12.4-2.167-16.1a.721.721,0,0,1-.226-.791,24.261,24.261,0,0,0-.862-15.872.72.72,0,0,1,.059-.685c.3-.464.844-1.617.573-2.215-.128-.281-.482-.464-1.052-.543a1.48,1.48,0,0,0-1.273.245c-.4.47-.2,1.547-.1,1.886a.723.723,0,0,1-.341.841,53.689,53.689,0,0,0-8.208,5.625.724.724,0,0,1-.637.17,3.112,3.112,0,0,0-2.225.292c-.1.084-.391.339-.339,1.116.136,2.045.732,3.166,1.228,3.342.367.132.97-.21,1.648-.939a.72.72,0,0,1,.5-.229.69.69,0,0,1,.518.194l3.828,3.585a.721.721,0,0,1-.533,1.246c-.309-.016-7.61-.317-8.672,6.452-.243,1.552-.107,2.6.373,2.882.882.512,3.3-.847,4.649-1.926a.721.721,0,0,1,1.154.717c-.222,1.029-.306,2.726.2,3.278l1,1.08a.72.72,0,0,1,.124.794c-.066.141-6.471,14.1.332,17.787a.614.614,0,0,0,.51-.159c.611-.488,1.926-2.613.929-11.769a.721.721,0,0,1,1.025-.73,5.316,5.316,0,0,0,2.952.443A.727.727,0,0,1,252.921,242.921Zm-5.6,12.233Z" transform="translate(-237.937 -205.243)"/><g transform="translate(13.492 10.789)"><ellipse class="f" cx="0.564" cy="0.736" rx="0.564" ry="0.736" transform="translate(0 0.493) rotate(-25.894)"/></g><g transform="translate(15.582 9.775)"><ellipse class="f" cx="0.564" cy="0.736" rx="0.564" ry="0.736" transform="translate(0 0.493) rotate(-25.894)"/></g><g transform="translate(13.33 11.268)"><ellipse class="f" cx="3.081" cy="1.962" rx="3.081" ry="1.962" transform="translate(0 1.78) rotate(-16.789)"/></g><g transform="translate(15.644 13.002)"><ellipse class="h" cx="0.672" cy="0.428" rx="0.672" ry="0.428" transform="translate(0 0.388) rotate(-16.789)"/></g><g transform="translate(10.61 35.247)"><g transform="translate(0.535)"><line class="h" x1="0.404" y1="5.833"/></g><g transform="translate(0 0)"><path class="f" d="M275.67,333.313a4.713,4.713,0,0,1-.665-1.419,6.922,6.922,0,0,1-.257-1.448,6.832,6.832,0,0,1,.052-1.469,4.671,4.671,0,0,1,.465-1.5,4.664,4.664,0,0,1,.666,1.419,6.792,6.792,0,0,1,.255,1.448,6.926,6.926,0,0,1-.054,1.469A4.72,4.72,0,0,1,275.67,333.313Z" transform="translate(-274.731 -327.48)"/></g></g><g transform="translate(10.09 17.432)"><path class="f" d="M277.894,287.381l-.14-1.435c1.087-.108,2.8-.535,3.2-1.148.7-1.078,4.412-9.912-.5-15.009-.654-.678-4.789-1.985-7.516-2.7l.364-1.395c1.162.3,7.019,1.876,8.19,3.09,5.64,5.847,1.495,15.536.674,16.8C281.244,286.988,278.446,287.327,277.894,287.381Z" transform="translate(-272.93 -265.698)"/></g><g transform="translate(0.106 22.481)"><path class="n" d="M246.974,288.822s-2.344-3.357-5.638-3.1a10.365,10.365,0,0,0-.531,1.974c-.1.843.033,3.291.606,3.538a4,4,0,0,0,3.354-.465A8.434,8.434,0,0,0,246.974,288.822Z" transform="translate(-240.062 -284.985)"/><path class="f" d="M240.723,290.359a3.49,3.49,0,0,1-1.355-.245c-1.316-.567-1.04-4.249-1.036-4.285a11.028,11.028,0,0,1,.573-2.145l.163-.427.456-.035c3.669-.285,6.18,3.257,6.285,3.407l.3.426-.309.417a9.147,9.147,0,0,1-2.418,2.135A5.2,5.2,0,0,1,240.723,290.359Zm-.686-1.533a3.461,3.461,0,0,0,2.6-.456,7.9,7.9,0,0,0,1.646-1.345,6.406,6.406,0,0,0-4.187-2.375,7.807,7.807,0,0,0-.331,1.35A7.935,7.935,0,0,0,240.037,288.826Zm.034.058Z" transform="translate(-238.305 -283.205)"/></g><g transform="translate(5 45.302)"><path class="n" d="M258.175,365.123l5.924.54s-.629,3.772-2.194,3.994S258.445,367.122,258.175,365.123Z" transform="translate(-257.34 -364.323)"/><path class="f" d="M259.665,368.415a2.8,2.8,0,0,1-1.668-.636,7.576,7.576,0,0,1-2.6-4.535l-.121-.9,7.6.692-.128.766c-.119.717-.816,4.307-2.8,4.59A1.993,1.993,0,0,1,259.665,368.415Zm-2.61-4.458a6.129,6.129,0,0,0,1.811,2.672,1.317,1.317,0,0,0,.875.339c.512-.073,1.1-1.327,1.424-2.636Z" transform="translate(-255.278 -362.348)"/></g><g transform="translate(13.919 46.376)"><path class="n" d="M288.713,368.846l4.946.53s-.14,2.838-.878,3.454S288.545,375.086,288.713,368.846Z" transform="translate(-287.987 -368.046)"/><path class="f" d="M289.193,372.24a2.535,2.535,0,0,1-1.117-.251c-1.311-.635-1.937-2.364-1.862-5.137l.021-.781,6.4.686-.034.68c-.047.948-.251,3.233-1.136,3.971A3.9,3.9,0,0,1,289.193,372.24Zm-1.538-4.566c.047,1.648.413,2.709,1.05,3.018a2.027,2.027,0,0,0,1.836-.39,5.455,5.455,0,0,0,.567-2.258Z" transform="translate(-286.208 -366.072)"/></g><g transform="translate(18.588 34.206)"><path class="n" d="M302.838,327.229l.878,1.978a5.581,5.581,0,0,0,1.243-4.438Z" transform="translate(-302.711 -324.509)"/><path class="f" d="M303.367,328.753l-.969-2.184,2.329-2.7.026.249a5.64,5.64,0,0,1-1.275,4.526Zm-.716-2.146.782,1.761a5.634,5.634,0,0,0,1.127-3.976Z" transform="translate(-302.398 -323.868)"/></g><g transform="translate(6.419 21.067)"><path class="e" d="M262.694,286.154s-.2-4.7,6.381-5.288,5.5,3.044,4.712,3.486a20.826,20.826,0,0,1-4.123.834s4.718-1.852,4.715.4-1.083,5-4.911,2.4c0,0,4.319,1.589,2.061,3.323S264.167,290.852,262.694,286.154Z" transform="translate(-261.974 -280.081)"/><path class="f" d="M267.811,290.838a6.068,6.068,0,0,1-1.821-.3,9.214,9.214,0,0,1-5.759-5.949.724.724,0,0,1-.032-.186c0-.054-.142-5.395,7.036-6.036,4.277-.381,5.612.947,5.978,2.129a2.632,2.632,0,0,1-.289,2.145,1.72,1.72,0,0,1,.4,1.165c0,.891-.172,3.053-1.734,3.879a2.5,2.5,0,0,1-.566.217,1.741,1.741,0,0,1,.085.33,1.935,1.935,0,0,1-.916,1.865A3.855,3.855,0,0,1,267.811,290.838Zm-6.172-6.575a7.723,7.723,0,0,0,4.785,4.9,3.2,3.2,0,0,0,2.89-.211c.12-.092.4-.326.369-.505a1.443,1.443,0,0,0-.621-.714,7.919,7.919,0,0,1-1.775-.935.721.721,0,0,1,.654-1.273,8.68,8.68,0,0,1,1.778.9,1.6,1.6,0,0,0,1.2-.02c.711-.376.965-1.593.966-2.606,0-.2-.057-.234-.095-.26a.566.566,0,0,0-.148-.07,28.664,28.664,0,0,1-3.667.648.721.721,0,0,1-.347-1.387,9.677,9.677,0,0,1,3.913-.737.992.992,0,0,0,.12-.055,1.185,1.185,0,0,0,.149-1.1c-.172-.416-.95-1.349-4.443-1.037C262,280.285,261.657,283.659,261.639,284.263Z" transform="translate(-260.197 -278.303)"/></g></g><g transform="translate(70.986 83.136)"><path class="h" d="M486.613,427.687l1.351-3.632s1.571,6.381,5.89.884l-.924,5.988S488.011,435.54,486.613,427.687Z" transform="translate(-485.892 -423.334)"/><path class="f" d="M488.17,431.214a3.082,3.082,0,0,1-.978-.155c-1.532-.509-2.564-2.2-3.066-5.025a.72.72,0,0,1,.034-.377l1.351-3.632a.721.721,0,0,1,1.375.079c.148.592.794,2.333,1.789,2.546.726.155,1.732-.532,2.834-1.935a.721.721,0,0,1,1.279.555l-.924,5.988a.719.719,0,0,1-.219.415A5.853,5.853,0,0,1,488.17,431.214Zm-2.589-5.241c.4,2.118,1.117,3.4,2.066,3.718,1.086.361,2.37-.547,2.834-.919l.541-3.5a3.207,3.207,0,0,1-2.651.791,3.46,3.46,0,0,1-2.151-1.8Z" transform="translate(-484.114 -421.555)"/></g><g transform="translate(65.603 70.759)"><path class="e" d="M474.677,393.5s-7.23.785-6.707-2.945,3.762-2.356,3.762-2.356-4.376-3.71-.67-6.011c.323-.2,5.185-1.845,8.621-.617s4.123,3.823,3.337,5.078a7.432,7.432,0,0,1-2.454,2.139l-.671,6.379S476.543,399,474.677,393.5Z" transform="translate(-467.223 -380.403)"/><path class="f" d="M475.661,395.416a2.607,2.607,0,0,1-.512-.05c-1.147-.228-2.066-1.193-2.735-2.873-1.375.087-4.706.117-6.207-1.431a2.745,2.745,0,0,1-.727-2.377,3.608,3.608,0,0,1,1.644-2.841,2.914,2.914,0,0,1,1.021-.343,4.766,4.766,0,0,1-1.06-3.019,3.431,3.431,0,0,1,1.822-2.675c.558-.346,5.631-1.974,9.243-.683a5.876,5.876,0,0,1,3.9,3.455,3.118,3.118,0,0,1-.194,2.685,7.639,7.639,0,0,1-2.386,2.2l-.633,6.014a.718.718,0,0,1-.174.4A4.6,4.6,0,0,1,475.661,395.416Zm-2.76-4.407a.72.72,0,0,1,.682.489c.346,1.019.946,2.272,1.843,2.452a2.612,2.612,0,0,0,2-.875l.646-6.133a.721.721,0,0,1,.38-.561,6.739,6.739,0,0,0,2.181-1.884,1.727,1.727,0,0,0,.054-1.447,4.694,4.694,0,0,0-3.023-2.57c-3.107-1.112-7.546.34-8.016.561a2.042,2.042,0,0,0-1.127,1.542c-.1,1.291,1.339,2.817,1.9,3.3a.721.721,0,0,1-.749,1.213,2.419,2.419,0,0,0-1.846.008,2.289,2.289,0,0,0-.921,1.784,1.3,1.3,0,0,0,.334,1.173c1.118,1.153,4.488,1.074,5.581.955A.718.718,0,0,1,472.9,391.009Z" transform="translate(-465.446 -378.632)"/></g><g transform="translate(69.319 71.954)"><path class="e" d="M480.83,385.277s2.356.654,3.018,2.421.154,2.282.154,2.282" transform="translate(-480.11 -384.557)"/><path class="f" d="M482.224,388.923a.721.721,0,0,1-.573-1.158c.027-.073.151-.507-.256-1.592-.523-1.4-2.518-1.974-2.538-1.98a.721.721,0,0,1,.387-1.389c.11.031,2.719.776,3.5,2.862.765,2.04.187,2.844-.008,3.042A.72.72,0,0,1,482.224,388.923Zm-.578-1.147Zm.064-.08h0Zm0,0h0Z" transform="translate(-478.332 -382.778)"/></g><g transform="translate(73.883 70.766)"><path class="e" d="M496.659,381.157s3.608,3.532,2.43,4.861" transform="translate(-495.938 -380.436)"/><path class="f" d="M497.31,384.959a.721.721,0,0,1-.539-1.2c.365-.412-.821-2.327-2.394-3.867a.721.721,0,1,1,1.009-1.03c.961.941,3.98,4.145,2.465,5.854A.718.718,0,0,1,497.31,384.959Z" transform="translate(-494.16 -378.656)"/></g><g transform="translate(69.392 77.835)"><line class="e" x2="3.285" y2="1.472" transform="translate(0.721 0.721)"/><path class="f" d="M482.591,406.087a.725.725,0,0,1-.295-.063l-3.285-1.473a.721.721,0,1,1,.59-1.315l3.285,1.472a.721.721,0,0,1-.3,1.379Z" transform="translate(-478.585 -403.173)"/></g></g></g></svg>