<svg xmlns="http://www.w3.org/2000/svg" xmlns:xlink="http://www.w3.org/1999/xlink" width="148" height="108" viewBox="0 0 148 108"><defs><style>.a{fill:#fff;}.b{fill:none;}.c{clip-path:url(#a);}.d{fill:#7533d5;}.e{fill:#481e9b;}.f{fill:#3b1970;}.g{opacity:0.5;}.h{clip-path:url(#b);}.i{fill:#b88ff5;}.j{fill:#fcdbcf;}.k{fill:#29266f;}.l{fill:#cfd0e9;}.m{fill:#5a618e;}.n{fill:#76214f;}.o{fill:#ef9b8d;}.p{fill:#8086c1;}.q{fill:#4e0f34;}</style><clipPath id="a"><rect class="a" width="148" height="108" rx="8" transform="translate(0.375 0.077)"/></clipPath><clipPath id="b"><rect class="b" width="117.671" height="99.491"/></clipPath></defs><g class="c" transform="translate(-0.375 -0.077)"><g transform="translate(-19.127 -27.968)"><g transform="translate(0 0)"><g transform="translate(0 0)"><path class="d" d="M158.71,257.278H29.331a29.39,29.39,0,0,1-29.3-29.3V154.112a29.39,29.39,0,0,1,29.3-29.3H158.71a29.39,29.39,0,0,1,29.3,29.3v73.862a29.39,29.39,0,0,1-29.3,29.3" transform="translate(-0.028 -105.876)"/><path class="e" d="M50.61,276.037l.631-81.61L.029,188.772v87.264Z" transform="translate(17.627 -134.981)"/><path class="f" d="M246.273,0V27.452h-3.3l-2.151,7.9s-9.319.843-11.9,7.9h36.56s-4.158-8.511-12.9-7.9l-2.437-7.9h-2.939V0Z" transform="translate(-143.02 -0.001)"/><g class="g" transform="translate(44.017 43.245)"><g class="h"><path class="i" d="M123.811,151.765,81.923,251.256l117.671-.421-39.222-99.069Z" transform="translate(-81.923 -151.765)"/></g></g><path class="j" d="M247.952,216.73s-2.352,15.108.821,16.455c1.4.592,4.272-.427,5.98,1a8.95,8.95,0,0,1,2.421,3.275h8.544s-.251-26.28-17.766-20.727" transform="translate(-156.025 -154.422)"/><path class="k" d="M263.929,236.382h-8.543a.712.712,0,0,1-.665-.457,8.328,8.328,0,0,0-2.212-2.983c-.829-.691-2.1-.662-3.325-.635a6.207,6.207,0,0,1-2.478-.253c-1.048-.445-2.4-1.905-2.034-9.423.191-3.937.781-7.759.787-7.8a.712.712,0,0,1,.489-.569c4.352-1.38,8.075-.982,11.064,1.184,7.4,5.365,7.624,19.611,7.629,20.215a.712.712,0,0,1-.712.719m-8.084-1.425h7.345c-.146-2.938-1.09-14.064-7.016-18.357-2.508-1.817-5.661-2.188-9.374-1.106-1.028,6.893-1.147,14.565.462,15.248a5.472,5.472,0,0,0,1.89.141c1.35-.03,3.03-.068,4.269.964a9.769,9.769,0,0,1,2.424,3.11" transform="translate(-154.236 -152.634)"/><path class="k" d="M251.26,189.88l-1.424-3.417s-3.632,4.021-2.941,7.12,1.8,4.984,5.5,5.268,4.556-.427,5.838,2.99c0,0,3.133-.285,3.133,1.851s-2.278,2.99-2.563,3.987a19.9,19.9,0,0,0-.285,3.56s9.54.289,12.246-5.622,2.421-7.763,2.421-7.763-3.417.009-2.278-2.986a7.611,7.611,0,0,0-.427-5.842s-1.139,2.136-2.705,1.994-5.3-3.132-7.775-3.417-8.031.143-8.743,2.278" transform="translate(-155.806 -133.33)"/><path class="k" d="M257,210.166c-.154,0-.253,0-.287,0a.712.712,0,0,1-.691-.712,19.513,19.513,0,0,1,.312-3.755,3.46,3.46,0,0,1,1.118-1.446,3.284,3.284,0,0,0,1.418-2.345.851.851,0,0,0-.268-.674,3.315,3.315,0,0,0-2.089-.468.719.719,0,0,1-.73-.459c-.884-2.357-1.226-2.368-3.455-2.442-.511-.017-1.09-.036-1.771-.088-4.093-.315-5.417-2.556-6.145-5.824-.762-3.418,2.95-7.577,3.108-7.752a.713.713,0,0,1,1.186.2l.949,2.277c2.057-1.69,6.8-1.783,8.641-1.572a15.245,15.245,0,0,1,4.928,2.09,11.224,11.224,0,0,0,2.83,1.326c.892.079,1.773-1.175,2.013-1.621a.713.713,0,0,1,.624-.375h0a.712.712,0,0,1,.624.368,8.286,8.286,0,0,1,.469,6.439,1.519,1.519,0,0,0-.039,1.387,2.315,2.315,0,0,0,1.652.634.715.715,0,0,1,.7.6c.032.211.239,2.233-2.477,8.167-2.629,5.744-10.94,6.042-12.628,6.042m-.07-10.84a4.117,4.117,0,0,1,2.631.849,2.273,2.273,0,0,1,.734,1.728,4.575,4.575,0,0,1-1.875,3.392,3.168,3.168,0,0,0-.716.791,14.322,14.322,0,0,0-.246,2.643c2.18-.076,8.808-.681,10.875-5.2a25.152,25.152,0,0,0,2.329-6.824,3.148,3.148,0,0,1-2.082-1.176,2.809,2.809,0,0,1-.123-2.706,6.448,6.448,0,0,0,.056-4.125,3.205,3.205,0,0,1-2.587,1.239,10.738,10.738,0,0,1-3.4-1.5,14.5,14.5,0,0,0-4.394-1.917c-2.809-.322-7.5.354-7.985,1.8a.713.713,0,0,1-.65.486.728.728,0,0,1-.684-.438l-.964-2.315c-1.06,1.431-2.444,3.811-2.048,5.588.652,2.928,1.584,4.461,4.864,4.713.65.05,1.213.069,1.709.085,2.372.079,3.452.224,4.554,2.889" transform="translate(-154.022 -131.541)"/><path class="k" d="M246.9,259.388a.713.713,0,0,1-.278-1.369l1.686-.712a.712.712,0,0,1,.555,1.313l-1.686.712a.706.706,0,0,1-.277.056" transform="translate(-155.362 -183.947)"/><path class="k" d="M259.928,240.355h-1.281a.712.712,0,0,1,0-1.425h1.281a.712.712,0,1,1,0,1.425" transform="translate(-163.763 -170.847)"/><path class="l" d="M241.688,291.4a37.16,37.16,0,0,0-16.233,10.537l5.126,7.832s3.275-.57,3.7.712.142,17.372.142,17.372h23.5s1.005-.57,0-4.272-.863-24.777-.863-24.777-3.133-6.835-6.835-7.4Z" transform="translate(-140.538 -208.366)"/><path class="k" d="M256.141,326.778h-23.5a.713.713,0,0,1-.712-.725c.108-6.111.175-16.168-.107-17.138-.113-.341-1.579-.46-2.9-.231a.71.71,0,0,1-.718-.312l-5.126-7.832a.712.712,0,0,1,.054-.853,37.5,37.5,0,0,1,16.58-10.759.709.709,0,0,1,.194-.027h8.544a.728.728,0,0,1,.108.008c4.035.621,7.24,7.518,7.374,7.812a.715.715,0,0,1,.065.3c0,.21-.13,21.018.838,24.585,1.038,3.823.11,4.825-.336,5.078a.713.713,0,0,1-.351.093m-22.778-1.425h22.41c.115-.332.259-1.246-.319-3.373-.983-3.622-.9-22.7-.889-24.807-.894-1.888-3.543-6.39-6.179-6.848H240a36.921,36.921,0,0,0-15.446,9.886l4.582,7c1.123-.137,3.531-.242,4.031,1.257.412,1.237.254,13.053.191,16.885" transform="translate(-138.751 -206.578)"/><path class="m" d="M74.943,269.914H93.027s2.705.427,3.275,2.563,1.139,7.262,1.139,7.262H89.325l-.285-3.7H75.8a8.245,8.245,0,0,1-.854-6.123" transform="translate(-32.744 -193.002)"/><path class="k" d="M95.65,278.664H87.534a.712.712,0,0,1-.71-.658l-.235-3.044H74.006a.713.713,0,0,1-.593-.317,8.921,8.921,0,0,1-.954-6.684.712.712,0,0,1,.693-.546H91.236a.681.681,0,0,1,.111.009c.129.021,3.171.529,3.853,3.083a73.125,73.125,0,0,1,1.158,7.367.713.713,0,0,1-.708.791m-7.456-1.425h6.655a62.139,62.139,0,0,0-1.026-6.366c-.4-1.519-2.323-1.968-2.652-2.034H73.734a7.746,7.746,0,0,0,.689,4.7H87.249a.712.712,0,0,1,.71.658Z" transform="translate(-30.953 -191.214)"/><path class="n" d="M239.785,419.326l-6.835,21.359h11.961l7.4-10.679.854,10.679h11.107l-.541-10.679s3.246-2.706.541-10.679Z" transform="translate(-145.898 -299.839)"/><path class="k" d="M262.489,439.61H251.382a.713.713,0,0,1-.71-.656l-.695-8.691-6.268,9.041a.713.713,0,0,1-.586.306H231.163a.712.712,0,0,1-.678-.93l6.835-21.359a.712.712,0,0,1,.678-.5h24.491a.712.712,0,0,1,.674.483c2.391,7.047.305,10.275-.489,11.182l.526,10.37a.713.713,0,0,1-.712.749m-10.449-1.425h9.7l-.5-9.931a.713.713,0,0,1,.256-.583c.021-.019,2.685-2.465.481-9.42H238.518l-6.379,19.934h10.612l7.192-10.373a.712.712,0,0,1,1.3.349Z" transform="translate(-144.11 -298.051)"/><path class="j" d="M127.294,297.9l13.243,12.673,6.123-3.987,5.126,7.832s-10.394,4.414-12.245,4.7-5.838-4.841-5.838-4.841l-7.262-7.262s-5.411.569-6.265-.427a14.768,14.768,0,0,1-1.709-2.99s-7.12-3.275-.142-3.845h8.116Z" transform="translate(-61.743 -213.011)"/><path class="k" d="M137.622,318.048c-2.092,0-5.251-3.821-6.241-5.091l-6.992-6.992c-1.889.18-5.61.38-6.541-.706a14.179,14.179,0,0,1-1.711-2.922c-1.264-.608-3.609-1.943-3.356-3.375.224-1.267,2.095-1.58,3.7-1.711l.058,0h7.66l.664-1.437a.713.713,0,0,1,1.14-.216l12.834,12.282,5.649-3.679a.712.712,0,0,1,.985.207l5.126,7.832a.712.712,0,0,1-.317,1.046c-1.073.456-10.531,4.458-12.416,4.747a1.558,1.558,0,0,1-.24.018M124.654,304.51a.713.713,0,0,1,.5.209l7.262,7.262a.679.679,0,0,1,.058.066c1.8,2.316,4.308,4.7,5.168,4.575,1.329-.2,7.994-2.933,11.29-4.319l-4.269-6.523-5.527,3.6a.712.712,0,0,1-.881-.082l-12.521-11.983-.436.945a.713.713,0,0,1-.647.414h-8.087a4.665,4.665,0,0,0-2.369.55,7.244,7.244,0,0,0,2.781,1.935.714.714,0,0,1,.356.366,14.154,14.154,0,0,0,1.595,2.807c.4.368,3.048.457,5.65.183a.724.724,0,0,1,.075,0" transform="translate(-59.957 -211.224)"/><path class="o" d="M191.242,291.4l-33.747,1.851,6.907,6.61,12.458,2.076s6.265-7.547,14.382-10.537" transform="translate(-91.944 -208.366)"/><path class="k" d="M175.072,300.861a.705.705,0,0,1-.117-.01L162.5,298.775a.714.714,0,0,1-.375-.188l-6.908-6.61a.712.712,0,0,1,.454-1.226l33.747-1.851a.712.712,0,0,1,.285,1.38c-7.835,2.887-14.018,10.25-14.08,10.324a.714.714,0,0,1-.548.257m-12.124-3.454,11.845,1.973a42.518,42.518,0,0,1,10.928-8.85l-28.334,1.554Z" transform="translate(-90.156 -206.577)"/><path class="k" d="M294.457,455.728h-6.439a.712.712,0,0,1,0-1.425h6.439a.712.712,0,0,1,0,1.425" transform="translate(-184.765 -324.849)"/><path class="p" d="M225.36,294.819l.312,7.985s6.906-6.84,10.537-8.407Z" transform="translate(-140.47 -210.509)"/><path class="p" d="M240.446,343.022s3.017-1.833,3.8-1.584.823,1.531.574,3.631a5.934,5.934,0,0,0-3.239-.285Z" transform="translate(-151.258 -244.128)"/><path class="p" d="M309.229,293.8s4.037,2.756,4.559,7.076.047,22.355.237,23.115a8.493,8.493,0,0,1,.522,2.421,6.881,6.881,0,0,1-.332,1.9,3.859,3.859,0,0,0-.19.522h3.407a4.45,4.45,0,0,0,.029-2.183,26.9,26.9,0,0,1-.683-3.393c-.143-.406-.356-6.811-.356-6.811l-.356-11.154v-4.6s-3.139-7.487-6.837-6.886" transform="translate(-200.441 -210.057)"/><path class="o" d="M157.057,329s11.053,8.792,11.445,9.042,1.068.427,2.812-.356,8.205-3.079,8.205-3.079l1.122,1.744s-8.268,3.9-11.249,4.343c-.234.035-.388-.04-.961-.3-1.246-.57-11.374-11.392-11.374-11.392" transform="translate(-91.631 -235.253)"/><path class="q" d="M254.687,425.6l1.21-3.773h23.381s.612,3.489.612,4.343a7.873,7.873,0,0,1-1.458,5.624l.39,9.825H276.4l.142-9.825a6.57,6.57,0,0,0,.213-5.553,2.9,2.9,0,0,0-2.379-1.424c-1.751-.142-19.692.783-19.692.783" transform="translate(-161.441 -301.625)"/><path class="o" d="M295.039,273.713s1.958.143,2.243,1.638a10.784,10.784,0,0,1,.249,2.243h1.744l-.48-4.556s-3.2.926-3.756.676" transform="translate(-190.294 -195.235)"/><path class="n" d="M259.215,293.329l-.184,13.592s-.93,2.705-2.351,2.99l.163,6.48s4.111-1.946,6.1-8.484c0,0,.569-3.822,1.851-4.041s8.258,0,8.258,0a4.58,4.58,0,0,1,2.349,2.913c.57,2.136,1.566,6.384,3.275,7.927l.905.826-.193-16.727s-2.96-5.468-4.664-6.383l.036,4.247s-.427,2.065-1.424,2.492-7.222.143-7.222.143-1.962-.783-2.389-1.78-.071-6.123-.071-6.123Z" transform="translate(-162.866 -208.365)"/><path class="k" d="M255.054,315.317a.712.712,0,0,1-.712-.694l-.163-6.48a.712.712,0,0,1,.572-.716c.675-.136,1.429-1.461,1.781-2.42l.182-13.474a.712.712,0,0,1,.429-.644l4.444-1.929a.712.712,0,0,1,.994.7,26.955,26.955,0,0,0,.015,5.793,4.279,4.279,0,0,0,1.891,1.354,38.016,38.016,0,0,0,6.786-.091c.41-.176.829-1.2.991-1.911l-.035-4.167a.712.712,0,0,1,1.049-.634c1.838.988,4.64,6.092,4.953,6.671a.712.712,0,0,1,.086.331l.193,16.727a.713.713,0,0,1-1.193.535l-.905-.826c-1.724-1.557-2.694-5.261-3.336-7.711l-.147-.558a3.883,3.883,0,0,0-1.84-2.39c-2.783-.085-7.088-.154-7.96-.005-.353.09-1,1.646-1.267,3.445a.773.773,0,0,1-.023.1c-2.062,6.762-6.3,8.836-6.481,8.92a.715.715,0,0,1-.3.068m.562-6.707.118,4.7a14.477,14.477,0,0,0,4.728-7.345c.2-1.331.833-4.312,2.427-4.585,1.315-.225,7.68-.033,8.4-.01a.717.717,0,0,1,.263.059,5.292,5.292,0,0,1,2.753,3.383l.148.564c.487,1.86,1.363,5.2,2.611,6.7l-.171-14.868a35.361,35.361,0,0,0-3.227-4.943l.022,2.616a.719.719,0,0,1-.015.15c-.084.406-.567,2.456-1.841,3-1.064.456-6.036.268-7.535.2a.718.718,0,0,1-.232-.05c-.373-.149-2.263-.954-2.78-2.161-.359-.838-.287-3.55-.2-5.288l-2.957,1.283-.178,13.132a.714.714,0,0,1-.039.222c-.1.28-.893,2.49-2.3,3.244m1.626-3.475h0Z" transform="translate(-161.078 -206.579)"/><path class="q" d="M243.357,362.359a20.011,20.011,0,0,1-4.161,6.265l.427,8.757s2.208,3.417,4.628,1.211l-.073-16.233Z" transform="translate(-150.364 -259.104)"/><path class="k" d="M240.766,378.259a2.936,2.936,0,0,1-.378-.025,5.231,5.231,0,0,1-3.15-2.255.712.712,0,0,1-.113-.352l-.427-8.757a.714.714,0,0,1,.191-.522,19.6,19.6,0,0,0,4.009-6.016.714.714,0,0,1,.672-.475h.821a.712.712,0,0,1,.712.709l.073,16.233a.714.714,0,0,1-.232.53,3.2,3.2,0,0,1-2.178.929m-2.229-2.9a3.608,3.608,0,0,0,2.037,1.467,1.592,1.592,0,0,0,1.175-.351l-.065-14.416a22.961,22.961,0,0,1-3.55,5.046Z" transform="translate(-148.576 -257.317)"/><path class="k" d="M223.667,303.832a.712.712,0,0,1-.712-.712v-7.76a.712.712,0,0,1,1.425,0v7.76a.712.712,0,0,1-.712.712" transform="translate(-138.751 -210.687)"/><path class="q" d="M322.384,303.041a9.076,9.076,0,0,1,.776,3.037c.1,1.635.137,8.283.137,8.283s1.281,4.628,2.444,5.957l-.166-13.076-.025-1.9a46.9,46.9,0,0,0-3.289-5.026Z" transform="translate(-209.76 -214.738)"/><path class="k" d="M256.862,235.055a1.982,1.982,0,1,1-2.8,0,1.981,1.981,0,0,1,2.8,0" transform="translate(-160.577 -167.661)"/><rect class="k" width="1.14" height="1.484" transform="translate(91.427 68.833) rotate(-78.936)"/><rect class="k" width="8.31" height="1.14" transform="translate(96.386 68.24) rotate(-1.734)"/><path class="j" d="M241.015,241.43s-2.136,2.516-1.875,2.848a7.644,7.644,0,0,0,1.875.9Z" transform="translate(-150.308 -172.634)"/><path class="k" d="M239.919,244.536a.429.429,0,0,1-.142-.025,6.208,6.208,0,0,1-2.069-1.041c-.19-.242-.477-.607,1.885-3.389a.427.427,0,0,1,.753.277v3.75a.428.428,0,0,1-.427.427m-1.427-1.51a7.736,7.736,0,0,0,1,.464v-1.925a10.353,10.353,0,0,0-1,1.461" transform="translate(-149.212 -171.563)"/><line class="m" x2="16.235" transform="translate(41.96 80.08)"/><path class="k" d="M89.15,279.957H72.915a.712.712,0,0,1,0-1.425H89.15a.712.712,0,0,1,0,1.425" transform="translate(-30.956 -199.164)"/><path class="m" d="M104.359,291.4s.665,3.37,1.709,3.7a5.572,5.572,0,0,0,2.468,0h1.994l-.285-3.7Z" transform="translate(-53.949 -208.366)"/><path class="k" d="M105.394,294.177a4.46,4.46,0,0,1-1.33-.182c-1.3-.415-1.967-3.106-2.192-4.243a.712.712,0,0,1,.7-.85h5.885a.712.712,0,0,1,.71.658l.285,3.7a.713.713,0,0,1-.71.767h-1.917a7.309,7.309,0,0,1-1.431.149m-1.925-3.851a5.113,5.113,0,0,0,1.036,2.314,4.742,4.742,0,0,0,2.081-.018.7.7,0,0,1,.162-.019h1.224l-.176-2.277Z" transform="translate(-52.161 -206.578)"/></g></g></g></g></svg>