<svg xmlns="http://www.w3.org/2000/svg" xmlns:xlink="http://www.w3.org/1999/xlink" width="149" height="108" viewBox="0 0 149 108"><defs><style>.a{fill:none;}.b{clip-path:url(#a);}.c{fill:#e73f48;}.d{fill:#f2d453;opacity:0.7;}.e{fill:#f48863;opacity:0.6;}.f{fill:#2edbce;}.g{fill:#29266f;}.h{fill:#5e46e8;}.i{fill:#64a6f4;}.j{fill:#fbbc75;}.k{fill:#5172b8;}</style><clipPath id="a"><rect class="a" width="149" height="108" rx="8" transform="translate(-0.438 0.076)"/></clipPath></defs><g transform="translate(0.438 -0.076)"><g class="b" transform="translate(0 0)"><rect class="c" width="156.01" height="110.262" rx="10" transform="translate(-3.586 -0.538)"/><path class="d" d="M1173.974,460.7l61.2-70.51,14.807,108.135-62.531-1.172Z" transform="translate(-1081.483 -432.615)"/><path class="e" d="M1035.241,410.1l-33.487,166.056,150.287,18.118-73.6-181.993Z" transform="translate(-1007.765 -441.137)"/><g transform="translate(17.507 15.386)"><g transform="translate(37.314 63.266)"><path class="f" d="M1118.715,607.807a4.678,4.678,0,1,1-4.677-4.677A4.677,4.677,0,0,1,1118.715,607.807Z" transform="translate(-1108.647 -602.416)"/><path class="g" d="M1113.5,612.664a5.392,5.392,0,1,1,5.391-5.392A5.4,5.4,0,0,1,1113.5,612.664Zm0-9.354a3.963,3.963,0,1,0,3.963,3.963A3.944,3.944,0,0,0,1113.5,603.31Z" transform="translate(-1108.112 -601.881)"/></g><g transform="translate(6.98 29.424)"><path class="f" d="M1110.466,563.858l-1.858.7-4.014,1.51-5.676,2.136-5.694,2.142-5.522,2.078-5.516,2.075-5.67,2.133-5.434,2.045-7.231,2.719-7.527-20.135,7.1-2.631,5.5-2.036,5.576-2.066,5.676-2.1,5.573-2.063,5.582-2.066,5.7-2.114,4.129-1.528,1.861-.689Z" transform="translate(-1055.611 -543.247)"/><path class="g" d="M1063.318,581.573a.714.714,0,0,1-.669-.464l-7.528-20.135a.715.715,0,0,1,.421-.92l46.7-17.3a.714.714,0,0,1,.917.42l7.437,19.9a.715.715,0,0,1-.418.919l-46.614,17.534A.719.719,0,0,1,1063.318,581.573Zm-6.607-20.429,7.026,18.793,45.276-17.032-6.938-18.562Z" transform="translate(-1055.076 -542.712)"/></g><g transform="translate(45.182 23.74)"><path class="h" d="M1131.619,539.709l-1.861.689-4.129,1.528-2.513-6.615,2.87-1.072a3.371,3.371,0,0,1,4.166,1.614,2.991,2.991,0,0,1,.16.359Z" transform="translate(-1122.401 -533.311)"/><path class="g" d="M1125.094,542.1a.714.714,0,0,1-.668-.461l-2.513-6.615a.715.715,0,0,1,.418-.923l2.869-1.072a4.072,4.072,0,0,1,5.051,1.957,3.6,3.6,0,0,1,.2.44l1.306,3.492a.714.714,0,0,1-.421.92l-5.99,2.217A.713.713,0,0,1,1125.094,542.1Zm-1.591-6.912,2.007,5.282,4.653-1.723-1.057-2.826a2.187,2.187,0,0,0-.123-.277,2.645,2.645,0,0,0-3.282-1.277Z" transform="translate(-1121.867 -532.775)"/></g><g transform="translate(11.598 35.516)"><path class="h" d="M1072.386,561.15l-5.5,2.036-2.486-6.512,5.512-2.06Z" transform="translate(-1063.685 -553.899)"/><path class="g" d="M1066.351,563.366a.715.715,0,0,1-.667-.46l-2.486-6.512a.713.713,0,0,1,.417-.924l5.512-2.06a.714.714,0,0,1,.918.416l2.474,6.536a.714.714,0,0,1-.42.923l-5.5,2.036A.716.716,0,0,1,1066.351,563.366Zm-1.562-6.809,1.977,5.179,4.163-1.541-1.968-5.2Z" transform="translate(-1063.151 -553.364)"/></g><g transform="translate(5.513 37.577)"><path class="i" d="M1062.332,564.728l-7.1,2.631L1053.974,564a3.369,3.369,0,0,1,1.97-4.326l3.9-1.458Z" transform="translate(-1053.045 -557.501)"/><path class="g" d="M1054.692,567.539a.714.714,0,0,1-.669-.464l-1.254-3.359a4.083,4.083,0,0,1,2.389-5.245l3.9-1.459a.715.715,0,0,1,.917.414l2.486,6.512a.715.715,0,0,1-.419.925l-7.1,2.631A.713.713,0,0,1,1054.692,567.539Zm4.2-8.94-3.238,1.21a2.654,2.654,0,0,0-1.551,3.406l1.005,2.692,5.759-2.133Z" transform="translate(-1052.51 -556.967)"/></g><g transform="translate(17.111 33.448)"><path class="i" d="M1082.088,557.536l-5.576,2.066-2.474-6.537,5.537-2.069Z" transform="translate(-1073.323 -550.282)"/><path class="g" d="M1075.977,559.782a.715.715,0,0,1-.668-.462l-2.474-6.536a.713.713,0,0,1,.418-.922l5.536-2.069a.716.716,0,0,1,.917.413l2.513,6.54a.715.715,0,0,1-.419.926l-5.576,2.066A.712.712,0,0,1,1075.977,559.782Zm-1.552-6.833,1.969,5.2,4.233-1.568-2-5.2Z" transform="translate(-1072.789 -549.747)"/></g><g transform="translate(22.648 31.312)"><path class="h" d="M1091.907,553.835l-5.676,2.1-2.513-6.54,5.715-2.136Z" transform="translate(-1083.004 -546.548)"/><path class="g" d="M1085.7,556.117a.715.715,0,0,1-.667-.458l-2.513-6.54a.715.715,0,0,1,.417-.925l5.715-2.135a.714.714,0,0,1,.919.417l2.474,6.572a.715.715,0,0,1-.421.922l-5.676,2.1A.716.716,0,0,1,1085.7,556.117Zm-1.588-6.837,2,5.208,4.341-1.608-1.97-5.233Z" transform="translate(-1082.469 -546.013)"/></g><g transform="translate(28.363 29.225)"><path class="i" d="M1101.757,550.21l-5.573,2.063-2.474-6.573,5.582-2.087Z" transform="translate(-1092.996 -542.898)"/><path class="g" d="M1095.65,552.453a.715.715,0,0,1-.669-.463l-2.474-6.572a.714.714,0,0,1,.419-.921l5.582-2.088a.715.715,0,0,1,.92.419l2.465,6.6a.715.715,0,0,1-.422.92l-5.573,2.063A.724.724,0,0,1,1095.65,552.453Zm-1.553-6.869,1.972,5.237,4.235-1.567L1098.339,544Z" transform="translate(-1092.461 -542.364)"/></g><g transform="translate(33.945 27.159)"><path class="h" d="M1111.517,546.6l-5.582,2.066-2.465-6.6L1109,540Z" transform="translate(-1102.756 -539.287)"/><path class="g" d="M1105.4,548.844a.714.714,0,0,1-.669-.465l-2.465-6.6a.715.715,0,0,1,.419-.919l5.534-2.066a.715.715,0,0,1,.917.415l2.513,6.6a.715.715,0,0,1-.419.924l-5.582,2.066A.724.724,0,0,1,1105.4,548.844Zm-1.546-6.893,1.966,5.26,4.238-1.568-2-5.26Z" transform="translate(-1102.221 -538.752)"/></g><g transform="translate(39.479 25.026)"><path class="i" d="M1121.361,542.887l-5.7,2.115-2.513-6.6,5.7-2.133Z" transform="translate(-1112.431 -535.558)"/><path class="g" d="M1115.123,545.182a.715.715,0,0,1-.667-.46l-2.513-6.6a.714.714,0,0,1,.417-.923l5.7-2.133a.714.714,0,0,1,.918.416l2.514,6.615a.715.715,0,0,1-.42.924l-5.7,2.115A.711.711,0,0,1,1115.123,545.182Zm-1.589-6.894,2.005,5.263,4.364-1.618-2.005-5.278Z" transform="translate(-1111.896 -535.023)"/></g><g transform="translate(55.249 49.321)"><path class="i" d="M1145.66,585.86l-2.7,1.009-2.244-5.912,4.015-1.51,1.858-.7,1.039,2.785a2.793,2.793,0,0,1,.133.459A3.364,3.364,0,0,1,1145.66,585.86Z" transform="translate(-1140.004 -578.035)"/><path class="g" d="M1142.428,587.048a.716.716,0,0,1-.668-.461l-2.244-5.911a.709.709,0,0,1,.016-.547.717.717,0,0,1,.4-.375l5.872-2.208a.716.716,0,0,1,.921.419l1.039,2.785a3.614,3.614,0,0,1,.164.572,4.078,4.078,0,0,1-2.554,4.673l-2.7,1.008A.71.71,0,0,1,1142.428,587.048Zm-1.322-6.21,1.737,4.577,2.032-.76h0a2.649,2.649,0,0,0,1.655-3.042,2.265,2.265,0,0,0-.1-.361l-.791-2.117Z" transform="translate(-1139.469 -577.5)"/></g><g transform="translate(14.507 64.137)"><path class="h" d="M1078.943,610.486l-4.129,1.543a3.371,3.371,0,0,1-4.326-1.969l-1-2.688,7.231-2.719Z" transform="translate(-1068.771 -603.938)"/><path class="g" d="M1073.106,612.422a4.08,4.08,0,0,1-3.821-2.647l-1-2.689a.715.715,0,0,1,.418-.918l7.231-2.719a.715.715,0,0,1,.919.414l2.226,5.832a.715.715,0,0,1-.418.924l-4.129,1.543A4.056,4.056,0,0,1,1073.106,612.422Zm-3.237-5.167.754,2.021a2.65,2.65,0,0,0,3.406,1.549l3.455-1.292-1.716-4.5Z" transform="translate(-1068.236 -603.404)"/></g><g transform="translate(21.739 62.092)"><path class="i" d="M1089.777,606.928l-5.422,2.027-2.226-5.833,5.434-2.045Z" transform="translate(-1081.414 -600.363)"/><path class="g" d="M1083.82,609.135a.715.715,0,0,1-.668-.46l-2.226-5.832a.714.714,0,0,1,.416-.924l5.434-2.045a.714.714,0,0,1,.92.416l2.214,5.851a.714.714,0,0,1-.418.922l-5.422,2.027A.722.722,0,0,1,1083.82,609.135Zm-1.3-6.131,1.717,4.5,4.086-1.528-1.708-4.513Z" transform="translate(-1080.879 -599.829)"/></g><g transform="translate(27.173 59.959)"><path class="h" d="M1099.55,603.2l-5.706,2.133-2.214-5.851,5.67-2.133Z" transform="translate(-1090.915 -596.634)"/><path class="g" d="M1093.308,605.512a.714.714,0,0,1-.668-.462l-2.214-5.851a.714.714,0,0,1,.417-.921l5.67-2.133a.714.714,0,0,1,.918.412l2.25,5.851a.715.715,0,0,1-.416.926l-5.706,2.132A.711.711,0,0,1,1093.308,605.512Zm-1.293-6.149,1.709,4.516,4.364-1.631-1.737-4.516Z" transform="translate(-1090.38 -596.1)"/></g><g transform="translate(32.842 57.884)"><path class="i" d="M1109.272,599.6v0l-5.479,2.045-2.25-5.851,5.516-2.075Z" transform="translate(-1100.828 -593.006)"/><path class="g" d="M1103.258,601.827a.715.715,0,0,1-.667-.458l-2.25-5.851a.713.713,0,0,1,.415-.925l5.515-2.075a.715.715,0,0,1,.92.417l2.214,5.878a.724.724,0,0,1,.046.252v0a.713.713,0,0,1-.465.669l-5.479,2.045A.721.721,0,0,1,1103.258,601.827Zm-1.325-6.15,1.738,4.519,4.147-1.548-1.711-4.541Z" transform="translate(-1100.293 -592.472)"/></g><g transform="translate(38.358 55.806)"><path class="h" d="M1118.912,595.984l-5.512,2.06-2.214-5.878,5.521-2.078Z" transform="translate(-1110.471 -589.373)"/><path class="g" d="M1112.865,598.223a.715.715,0,0,1-.669-.463l-2.214-5.878a.715.715,0,0,1,.417-.92l5.522-2.078a.715.715,0,0,1,.921.418l2.2,5.9a.715.715,0,0,1-.419.92l-5.513,2.06A.726.726,0,0,1,1112.865,598.223Zm-1.294-6.175,1.711,4.542,4.175-1.561-1.7-4.556Z" transform="translate(-1109.937 -588.838)"/></g><g transform="translate(43.88 53.664)"><path class="i" d="M1128.781,592.239l-5.736,2.142-2.205-5.9,5.694-2.142Z" transform="translate(-1120.125 -585.628)"/><path class="g" d="M1122.51,594.561a.715.715,0,0,1-.669-.464l-2.2-5.9a.714.714,0,0,1,.417-.919l5.694-2.141a.714.714,0,0,1,.919.414l2.247,5.9a.714.714,0,0,1-.417.924l-5.737,2.141A.707.707,0,0,1,1122.51,594.561Zm-1.286-6.194,1.706,4.56,4.393-1.64-1.738-4.559Z" transform="translate(-1119.591 -585.093)"/></g><g transform="translate(49.573 51.528)"><path class="h" d="M1138.715,588.521l-5.673,2.12-2.247-5.9,5.676-2.136Z" transform="translate(-1130.08 -581.894)"/><path class="g" d="M1132.507,590.82a.715.715,0,0,1-.668-.46l-2.248-5.9a.715.715,0,0,1,.416-.923l5.676-2.136a.715.715,0,0,1,.92.415l2.244,5.911a.713.713,0,0,1-.417.923l-5.673,2.121A.706.706,0,0,1,1132.507,590.82Zm-1.324-6.195,1.739,4.562,4.335-1.62-1.736-4.574Z" transform="translate(-1129.545 -581.359)"/></g><g transform="translate(52.217 24.332)"><path class="h" d="M1148.468,562.183l-2.933,1.1a.331.331,0,0,1-.042.012,2.791,2.791,0,0,0-.133-.459l-1.039-2.785-7.437-19.9-1.307-3.5a3.032,3.032,0,0,0-.16-.359.114.114,0,0,1,.027-.013l2.933-1.1a2,2,0,0,1,2.562,1.166l.4,1.087,8.292,22.186A1.992,1.992,0,0,1,1148.468,562.183Z" transform="translate(-1134.701 -534.345)"/><path class="g" d="M1144.957,563.471a.714.714,0,0,1-.7-.577,2.132,2.132,0,0,0-.1-.344l-9.785-26.182a2.171,2.171,0,0,0-.124-.277.715.715,0,0,1,.228-.921.776.776,0,0,1,.2-.1l2.918-1.091a2.71,2.71,0,0,1,3.48,1.584l.406,1.089,8.291,22.186a2.707,2.707,0,0,1-1.585,3.478l-2.933,1.1a.868.868,0,0,1-.162.045A.727.727,0,0,1,1144.957,563.471Zm-.2-1.4-.008,0Zm-8.931-25.907,9.59,25.66,2.271-.849h0a1.279,1.279,0,0,0,.746-1.638l-8.7-23.275a1.283,1.283,0,0,0-1.642-.746Zm-.7.261h0Z" transform="translate(-1134.167 -533.809)"/></g><g transform="translate(35.093 65.81)"><line class="j" y1="0.003" transform="translate(0.714 0.715)"/><path class="g" d="M1104.942,607.759a.713.713,0,0,1-.714-.713v0a.714.714,0,1,1,.714.716Z" transform="translate(-1104.228 -606.329)"/></g><g transform="translate(46.085 62.416)"><path class="g" d="M1123.446,600.4v0h1.429Z" transform="translate(-1123.446 -600.396)"/></g><g transform="translate(0 13.516)"><path class="k" d="M1062.631,525.4a9.257,9.257,0,1,1-9.255-9.255A9.255,9.255,0,0,1,1062.631,525.4Z" transform="translate(-1043.407 -515.434)"/><path class="g" d="M1052.841,534.837a9.969,9.969,0,1,1,9.969-9.969A9.981,9.981,0,0,1,1052.841,534.837Zm0-18.509a8.54,8.54,0,1,0,8.541,8.54A8.522,8.522,0,0,0,1052.841,516.328Z" transform="translate(-1042.872 -514.899)"/></g><g transform="translate(25.804 38.449)"><path class="k" d="M1107.746,568.995a9.256,9.256,0,1,1-9.254-9.255A9.254,9.254,0,0,1,1107.746,568.995Z" transform="translate(-1088.523 -559.026)"/><path class="g" d="M1097.957,578.429a9.969,9.969,0,1,1,9.969-9.969A9.98,9.98,0,0,1,1097.957,578.429Zm0-18.51a8.54,8.54,0,1,0,8.54,8.54A8.52,8.52,0,0,0,1097.957,559.92Z" transform="translate(-1087.988 -558.491)"/></g><g transform="translate(4.578 17.804)"><path class="f" d="M1061.479,528.323a4.679,4.679,0,1,1-4.677-4.677A4.678,4.678,0,0,1,1061.479,528.323Z" transform="translate(-1051.411 -522.931)"/><path class="g" d="M1056.267,533.18a5.392,5.392,0,1,1,5.392-5.392A5.4,5.4,0,0,1,1056.267,533.18Zm0-9.354a3.963,3.963,0,1,0,3.963,3.963A3.957,3.957,0,0,0,1056.267,523.825Z" transform="translate(-1050.876 -522.396)"/></g><g transform="translate(21.896)"><path class="k" d="M1096.567,499.6a7.084,7.084,0,1,1-7.082-7.082A7.082,7.082,0,0,1,1096.567,499.6Z" transform="translate(-1081.689 -491.802)"/><path class="g" d="M1088.95,506.86a7.8,7.8,0,1,1,7.8-7.8A7.8,7.8,0,0,1,1088.95,506.86Zm0-14.163a6.367,6.367,0,1,0,6.368,6.368A6.351,6.351,0,0,0,1088.95,492.7Z" transform="translate(-1081.154 -491.268)"/></g><g transform="translate(26.169 4.274)"><path class="f" d="M1095.491,502.8a2.809,2.809,0,1,1-2.808-2.808A2.808,2.808,0,0,1,1095.491,502.8Z" transform="translate(-1089.161 -499.275)"/><path class="g" d="M1092.149,505.785a3.522,3.522,0,1,1,3.522-3.522A3.526,3.526,0,0,1,1092.149,505.785Zm0-5.616a2.094,2.094,0,1,0,2.093,2.094A2.087,2.087,0,0,0,1092.149,500.169Z" transform="translate(-1088.626 -498.74)"/></g><g transform="translate(58.144 11.478)"><path class="f" d="M1163.334,512.8c3.084,6.992,13.47,35.024,13.47,35.024s.206,1.565-1.953,1.42-16.453.009-16.453.009h-4.608l-8.011-21.439,15.833-14.249S1162.991,512.026,1163.334,512.8Z" transform="translate(-1145.065 -511.87)"/><path class="g" d="M1174.59,549.435c-.1,0-.212,0-.322-.011-2.108-.142-16.255.01-16.4.011h-4.616a.714.714,0,0,1-.669-.464l-8.011-21.439a.715.715,0,0,1,.191-.781l15.8-14.224c.459-.507,1.318-1.3,2.087-1.178a1.043,1.043,0,0,1,.8.63h0c3.058,6.932,13.383,34.784,13.487,35.064a.708.708,0,0,1,.038.155,2,2,0,0,1-.507,1.551A2.464,2.464,0,0,1,1174.59,549.435Zm-5.237-1.5c2.337,0,4.3.017,5.011.065a1.418,1.418,0,0,0,1.058-.22.54.54,0,0,0,.137-.347c-.7-1.885-10.16-27.366-13.268-34.54a4.676,4.676,0,0,0-.683.619.718.718,0,0,1-.054.054l-15.471,13.924,7.667,20.518h4.112C1158.251,548,1164.581,547.935,1169.354,547.935Z" transform="translate(-1144.53 -511.336)"/></g><g transform="translate(32.9 8.197)"><path class="i" d="M1111.511,511.632l-7.34,7.159-2.528-6.479,5.458-5.461Z" transform="translate(-1100.928 -506.135)"/><path class="g" d="M1103.636,518.97a.714.714,0,0,1-.666-.454l-2.528-6.48a.715.715,0,0,1,.16-.765l5.458-5.461a.67.67,0,0,1,.519-.209.715.715,0,0,1,.511.23l4.411,4.782a.714.714,0,0,1-.027,1l-7.34,7.159A.715.715,0,0,1,1103.636,518.97Zm-1.693-7.018,1.966,5.04,6.071-5.921-3.435-3.724Z" transform="translate(-1100.394 -505.599)"/></g><g transform="translate(28.281 13.66)"><path class="h" d="M1100.714,522.878l-4.758,4.643-2.389-6.5,4.618-4.622Z" transform="translate(-1092.853 -515.685)"/><path class="g" d="M1095.422,527.7a.736.736,0,0,1-.157-.018.714.714,0,0,1-.513-.451l-2.39-6.5a.715.715,0,0,1,.165-.752l4.619-4.621a.714.714,0,0,1,1.171.245l2.529,6.479a.715.715,0,0,1-.167.771l-4.757,4.643A.714.714,0,0,1,1095.422,527.7Zm-1.561-7.033,1.852,5.037,3.63-3.542-1.959-5.019Z" transform="translate(-1092.319 -515.15)"/></g><g transform="translate(23.08 18.281)"><path class="i" d="M1092.064,530.98l-5.159,5.032-2.431-6.331,5.2-5.2Z" transform="translate(-1083.759 -523.765)"/><path class="g" d="M1086.371,536.192a.691.691,0,0,1-.153-.017.712.712,0,0,1-.514-.441l-2.431-6.332a.714.714,0,0,1,.162-.761l5.2-5.2a.714.714,0,0,1,1.175.259l2.39,6.5a.716.716,0,0,1-.172.758l-5.16,5.032A.715.715,0,0,1,1086.371,536.192Zm-1.6-6.869,1.876,4.886,4.051-3.952-1.844-5.017Z" transform="translate(-1083.225 -523.231)"/></g><g transform="translate(18.15 23.482)"><path class="h" d="M1083.216,539.9l-3.724,3.634-1.574.532-2.063-5.567,4.93-4.93Z" transform="translate(-1075.14 -532.859)"/><path class="g" d="M1077.383,544.25a.715.715,0,0,1-.67-.466l-2.063-5.567a.714.714,0,0,1,.165-.754l4.93-4.93a.714.714,0,0,1,1.172.249l2.432,6.331a.715.715,0,0,1-.168.768l-3.724,3.634a.711.711,0,0,1-.27.165l-1.573.532A.713.713,0,0,1,1077.383,544.25Zm-1.234-6.1,1.663,4.487.762-.257,3.272-3.192-1.869-4.866Z" transform="translate(-1074.606 -532.324)"/></g><g transform="translate(8.681 28.412)"><path class="i" d="M1070.831,547.759l-11.532,3.906,9.469-9.473Z" transform="translate(-1058.584 -541.477)"/><path class="g" d="M1058.764,551.844a.715.715,0,0,1-.505-1.219l9.47-9.473a.714.714,0,0,1,1.175.257l2.063,5.567a.716.716,0,0,1-.44.925l-11.533,3.905A.709.709,0,0,1,1058.764,551.844Zm9.187-8.894-6.52,6.522,7.94-2.689Z" transform="translate(-1058.049 -540.942)"/></g><g transform="translate(61.168 24.201)"><rect class="g" width="1.429" height="12.936" transform="translate(0 0.511) rotate(-20.966)"/></g><g transform="translate(68.809 44.539)"><rect class="g" width="1.429" height="4.371" transform="matrix(0.929, -0.371, 0.371, 0.929, 0, 0.529)"/></g><g transform="translate(23.04 23.713)"><rect class="g" width="1.429" height="0.243" transform="matrix(0.933, -0.361, 0.361, 0.933, 0, 0.515)"/></g><g transform="translate(32.893 13.966)"><rect class="g" width="1.428" height="0.156" transform="translate(0 0.527) rotate(-21.649)"/></g><g transform="translate(30.012 43.388)"><path class="f" d="M1106.973,570.362l-10.38-1.987,4.266,10.607Z" transform="translate(-1095.879 -567.661)"/><path class="g" d="M1100.325,579.163a.682.682,0,0,1-.084-.005.713.713,0,0,1-.579-.443l-4.266-10.607a.714.714,0,0,1,.8-.968l10.38,1.987a.714.714,0,0,1,.449,1.115l-6.113,8.62A.715.715,0,0,1,1100.325,579.163Zm-3.116-10.374,3.29,8.178,4.714-6.647Z" transform="translate(-1095.344 -567.127)"/></g><g transform="translate(9.255 5.115)"><path class="g" d="M1059.767,510.04a.714.714,0,0,1-.179-1.406c.077-.02,7.707-2.02,10.018-4.206a10.811,10.811,0,0,0,2.122-3.726.715.715,0,0,1,1.359.443,12.078,12.078,0,0,1-2.5,4.321c-2.577,2.438-10.313,4.465-10.641,4.55A.722.722,0,0,1,1059.767,510.04Z" transform="translate(-1059.053 -500.21)"/></g><g transform="translate(23.965 69.97)"><path class="f" d="M1093.911,614.851h20.362l8.9,55.075-11.548-48.432-5.26-.309-1.77,47.507-1.971-47.815h-6.522l-10.086,49.049Z" transform="translate(-1085.307 -614.137)"/><path class="g" d="M1122.642,670.105a.715.715,0,0,1-.694-.549l-11.425-47.916-4-.234-1.743,46.777a.714.714,0,0,1-.713.688h0a.714.714,0,0,1-.714-.685l-1.943-47.13h-5.253l-9.968,48.479a.714.714,0,0,1-1.407-.245l7.89-55.074a.714.714,0,0,1,.707-.613h20.362a.714.714,0,0,1,.705.6l8.9,55.075a.715.715,0,0,1-.565.814A.7.7,0,0,1,1122.642,670.105Zm-16.807-50.17h.042l5.26.308a.713.713,0,0,1,.653.547l7.058,29.6-5.717-35.362H1094l-4.454,31.094,5.331-25.928a.715.715,0,0,1,.7-.57h6.521a.715.715,0,0,1,.714.685l1.221,29.626,1.092-29.315a.714.714,0,0,1,.714-.687Z" transform="translate(-1084.772 -613.602)"/></g></g></g></g></svg>