<svg xmlns="http://www.w3.org/2000/svg" xmlns:xlink="http://www.w3.org/1999/xlink" width="149" height="108" viewBox="0 0 149 108"><defs><style>.a{fill:none;}.b{clip-path:url(#a);}.c{fill:#f58b48;}.d{fill:#f27254;}.e{fill:#fab75c;}.f{fill:#fbe259;}.g{fill:#d61d69;}.h{fill:#ee4f7c;}.i{fill:#29266f;}.j{fill:#6bbf6a;}.k{fill:#0e9866;}</style><clipPath id="a"><rect class="a" width="149" height="108" rx="8" transform="translate(0)"/></clipPath></defs><g transform="translate(0 0)"><g class="b" transform="translate(0 0)"><path class="c" d="M158.956,163.711H56.52a23.269,23.269,0,0,1-23.2-23.2V82.03a23.269,23.269,0,0,1,23.2-23.2H158.956a23.269,23.269,0,0,1,23.2,23.2v58.48a23.269,23.269,0,0,1-23.2,23.2" transform="translate(-33.393 -58.878)"/><path class="c" d="M187.449,174.08H42.738a9.448,9.448,0,0,1-9.42-9.42V68.249a9.448,9.448,0,0,1,9.42-9.42H187.449a9.448,9.448,0,0,1,9.42,9.42v96.41a9.448,9.448,0,0,1-9.42,9.42" transform="translate(-40.749 -64.062)"/><path class="d" d="M250.11,21.158,204.654,91.595c-4.138-10.2-27.607-18.412-52.608-23.675-17.274-3.636-28.959-16-39.825-13.181-.056.016.055-.013,0,0L162.34,29.6,228.486,0Z" transform="translate(-89.737 -16.86)"/><path class="e" d="M0,37.1l55.567,84.679c3.257-8.034,9.806-52.443,29.488-56.586,13.6-2.863,26.219-2.929,34.773-.707.044.013.088.023.131.033L57.784,43.809,14.12,29Z" transform="translate(-9.596 -37.571)"/><path class="f" d="M247.2,148.823a43.486,43.486,0,1,1-43.486-43.486A43.486,43.486,0,0,1,247.2,148.823" transform="translate(-124.035 -92.096)"/><path class="g" d="M142.448,134.743c.85,1.543,6.8,12.35,21.813,10.514,13.344-7.123,12-19.386,11.814-21.137s-7.918-25.066-7.918-25.066c-11.813.473-17.75,2.348-17.75,2.348s-5.937,1.876-15.877,8.275c0,0,7.066,23.513,7.918,25.065" transform="translate(-105.682 -87.609)"/><path class="h" d="M132.359,116.321s7.065,23.514,7.916,25.064,6.752,12.264,21.634,10.536l-13.053-44.649a110.027,110.027,0,0,0-16.5,9.049" transform="translate(-104.132 -93.478)"/><path class="i" d="M206.018,118.912a.715.715,0,0,1-.224-1.393c8.625-2.854,14.963-1.481,15.229-1.42a.714.714,0,0,1-.313,1.394,29.931,29.931,0,0,0-14.466,1.383.709.709,0,0,1-.225.037" transform="translate(-156.232 -99.509)"/><path class="i" d="M139.8,137.262a.714.714,0,0,1-.527-1.2c.185-.2,4.624-4.983,13.322-7.6a.714.714,0,1,1,.412,1.368,30.064,30.064,0,0,0-12.679,7.2.712.712,0,0,1-.528.233" transform="translate(-108.938 -108.592)"/><path class="i" d="M212.867,195.984s-4.269-10.26-11.98-7.553-6.752,10.9-5.73,13.7c0,0,4.72-14.555,17.711-6.149" transform="translate(-148.497 -151.121)"/><path class="i" d="M217.058,149.287a.715.715,0,0,1-.684-.921,5.4,5.4,0,0,1,3.086-3.768c2.726-1.068,5.863.742,6,.82a.714.714,0,0,1-.722,1.233c-.026-.015-2.681-1.537-4.757-.721a4.057,4.057,0,0,0-2.235,2.849.715.715,0,0,1-.684.508" transform="translate(-164.117 -119.897)"/><path class="i" d="M168.217,164.143a.715.715,0,0,1-.649-1.01c.064-.139,1.592-3.424,4.436-4.115a5.4,5.4,0,0,1,4.691,1.311.715.715,0,0,1-.882,1.124,4.059,4.059,0,0,0-3.466-1.048c-2.169.524-3.467,3.3-3.48,3.323a.715.715,0,0,1-.65.416" transform="translate(-129.233 -130.345)"/><path class="i" d="M159.1,144.4a21.233,21.233,0,0,1-13.273-4.349,21.875,21.875,0,0,1-5.786-6.746h0c-.864-1.573-7.251-22.79-7.976-25.2a.714.714,0,0,1,.3-.806c9.907-6.378,15.8-8.278,16.049-8.356s6.164-1.91,17.936-2.381a.719.719,0,0,1,.707.489c.793,2.393,7.754,23.428,7.95,25.212a21.872,21.872,0,0,1-.861,8.848c-1.738,5.54-5.549,9.913-11.327,13a.707.707,0,0,1-.25.079,28.532,28.532,0,0,1-3.465.217m-17.808-11.784c1.968,3.574,7.941,11.7,20.968,10.165,11.541-6.228,11.765-16.31,11.323-20.365-.134-1.214-4.624-15.065-7.717-24.407-11.2.5-16.969,2.275-17.026,2.293s-5.8,1.875-15.253,7.9c2.835,9.422,7.115,23.335,7.7,24.41h0Z" transform="translate(-103.897 -85.824)"/><path class="j" d="M290.786,199.8c-1.2,2.258-9.637,18.082-31.5,15.711-19.534-10.09-17.83-27.939-17.587-30.487s11.014-36.585,11.014-36.585c17.178.453,25.843,3.062,25.843,3.062s8.666,2.608,23.239,11.714c0,0-9.806,34.313-11.014,36.586" transform="translate(-182.13 -122.882)"/><path class="k" d="M281.829,149.928l-19.27,64.011c-19.535-10.089-17.832-27.94-17.588-30.49s11.013-36.582,11.013-36.582c17.18.453,25.845,3.062,25.845,3.062" transform="translate(-184.463 -121.758)"/><path class="i" d="M288.783,192.783a.715.715,0,0,1-.215-.033c-12.132-3.833-21.135-1.752-21.224-1.731a.714.714,0,1,1-.333-1.389c.381-.091,9.482-2.194,21.988,1.757a.715.715,0,0,1-.215,1.4" transform="translate(-199.913 -151.844)"/><path class="i" d="M392.072,218.275a.712.712,0,0,1-.52-.225c-.064-.067-6.511-6.805-18.717-10.3a.714.714,0,0,1,.393-1.374c12.609,3.61,19.095,10.408,19.365,10.7a.714.714,0,0,1-.521,1.2" transform="translate(-275.52 -164.242)"/><path class="i" d="M287.7,278.848s-3.274,15.818,8.2,18.88,17.031-7.558,18.1-11.762c0,0-17.587,13.615-26.3-7.117" transform="translate(-214.772 -216.025)"/><path class="i" d="M298.111,236.841a.715.715,0,0,1-.681-.5c-.712-2.247-1.889-3.695-3.5-4.3-3.184-1.2-7.14,1.144-7.179,1.168a.714.714,0,0,1-.739-1.223c.185-.112,4.579-2.728,8.416-1.284,2.045.769,3.513,2.523,4.365,5.211a.715.715,0,0,1-.681.93" transform="translate(-213.63 -181.325)"/><path class="i" d="M369.4,257.506a.715.715,0,0,1-.647-.409c-.029-.061-2.031-4.183-5.341-4.936-1.679-.382-3.461.174-5.295,1.655a.714.714,0,0,1-.9-1.112c2.194-1.771,4.386-2.422,6.516-1.935,4,.914,6.216,5.521,6.309,5.717a.715.715,0,0,1-.645,1.02" transform="translate(-264.548 -195.858)"/><path class="i" d="M264.327,214.562a41.54,41.54,0,0,1-4.48-.249.717.717,0,0,1-.251-.075c-8.38-4.328-13.952-10.546-16.56-18.481a31.462,31.462,0,0,1-1.411-12.708c.252-2.609,10.6-35.343,11.044-36.735a.7.7,0,0,1,.7-.5c17.077.451,25.673,2.984,26.031,3.092s8.924,2.74,23.411,11.792a.714.714,0,0,1,.308.8c-.4,1.4-9.84,34.412-11.07,36.725h0l-.63-.336.63.337a31.454,31.454,0,0,1-8.192,9.817,30.668,30.668,0,0,1-19.531,6.517m-4.193-1.655c19.2,2.02,27.831-10.055,30.655-15.351l.631.335-.631-.335c.945-1.778,7.982-26.044,10.81-35.928-14.031-8.709-22.525-11.326-22.61-11.351s-8.612-2.532-25.118-3.017c-3.1,9.8-10.628,33.921-10.822,35.925-.569,5.975-.037,20.811,17.086,29.723" transform="translate(-182.075 -121.007)"/></g></g></svg>