<svg xmlns="http://www.w3.org/2000/svg" xmlns:xlink="http://www.w3.org/1999/xlink" width="149" height="107" viewBox="0 0 149 107"><defs><style>.a,.k{fill:none;}.b{clip-path:url(#a);}.c{fill:#24bec6;}.d{fill:#29266f;}.e{fill:#8086f9;}.f{fill:#9e1c20;}.g{fill:#ea2f3d;}.h{fill:#fc9;}.i{fill:#fcee27;}.j{fill:#fcb821;}.k{stroke:#29266f;stroke-linecap:round;stroke-linejoin:round;stroke-width:5px;}.l{fill:#f4b073;}.m{fill:#e89c05;}.n{fill:#dbc603;}.o{fill:#8ff7d7;opacity:0.6;}</style><clipPath id="a"><rect class="a" width="149" height="107" rx="8" transform="translate(0 0.178)"/></clipPath></defs><g transform="translate(0 -0.178)"><g class="b" transform="translate(0 0)"><rect class="c" width="163.183" height="113.849" rx="8" transform="translate(-6.887 -3.725)"/><g transform="translate(24.346 2.703)"><g transform="translate(5.53 28.96)"><path class="d" d="M1130.293,251.007h-82.444a4.148,4.148,0,0,1-4.143-4.144v-54.6a4.148,4.148,0,0,1,4.143-4.143h82.444a4.148,4.148,0,0,1,4.143,4.143v54.6A4.148,4.148,0,0,1,1130.293,251.007Zm-82.444-61.461a2.718,2.718,0,0,0-2.715,2.715v54.6a2.718,2.718,0,0,0,2.715,2.715h82.444a2.718,2.718,0,0,0,2.715-2.715v-54.6a2.718,2.718,0,0,0-2.715-2.715Z" transform="translate(-1043.705 -188.117)"/></g><g transform="translate(1.324 27.178)"><rect class="e" width="99.199" height="68.272" rx="8.45"/></g><g transform="translate(24.996)"><g transform="translate(21.402)"><circle class="f" cx="3.617" cy="3.617" r="3.617" transform="translate(0.714 0.714)"/><path class="d" d="M1138.693,132.539a4.332,4.332,0,1,1,4.332-4.332A4.336,4.336,0,0,1,1138.693,132.539Zm0-7.234a2.9,2.9,0,1,0,2.9,2.9A2.906,2.906,0,0,0,1138.693,125.305Z" transform="translate(-1134.362 -123.876)"/></g><g transform="translate(0 6.754)"><path class="d" d="M1087.6,157.133a.714.714,0,0,1-.434-1.282l22.031-16.845a.714.714,0,1,1,.868,1.135l-22.031,16.846A.714.714,0,0,1,1087.6,157.133Z" transform="translate(-1086.885 -138.858)"/></g><g transform="translate(27.409 6.332)"><path class="d" d="M1171.881,156.618a.712.712,0,0,1-.423-.139l-23.481-17.267a.714.714,0,1,1,.847-1.151l23.481,17.268a.715.715,0,0,1-.424,1.29Z" transform="translate(-1147.686 -137.921)"/></g></g><g transform="translate(0 24.476)"><path class="g" d="M1129.617,179.756h-93.383a3.134,3.134,0,0,0-3.213,3.03V247.82a3.135,3.135,0,0,0,3.213,3.03h93.383a3.135,3.135,0,0,0,3.213-3.03V182.786A3.134,3.134,0,0,0,1129.617,179.756Zm-.322,64.269a3.55,3.55,0,0,1-3.54,3.539h-85.094a3.55,3.55,0,0,1-3.539-3.539V187.668a3.55,3.55,0,0,1,3.539-3.539h85.094a3.55,3.55,0,0,1,3.54,3.539Z" transform="translate(-1032.307 -179.041)"/><path class="d" d="M1128.747,250.693h-93.382a3.844,3.844,0,0,1-3.928-3.744V181.915a3.844,3.844,0,0,1,3.928-3.744h93.382a3.844,3.844,0,0,1,3.927,3.744v65.034A3.844,3.844,0,0,1,1128.747,250.693ZM1035.365,179.6a2.415,2.415,0,0,0-2.5,2.315v65.034a2.415,2.415,0,0,0,2.5,2.315h93.382a2.415,2.415,0,0,0,2.5-2.315V181.915a2.415,2.415,0,0,0-2.5-2.315Zm89.521,67.808h-85.094a4.258,4.258,0,0,1-4.253-4.253V186.8a4.258,4.258,0,0,1,4.253-4.254h85.094a4.258,4.258,0,0,1,4.253,4.254v56.358A4.258,4.258,0,0,1,1124.886,247.408Zm-85.094-63.436a2.828,2.828,0,0,0-2.825,2.825v56.358a2.828,2.828,0,0,0,2.825,2.825h85.094a2.828,2.828,0,0,0,2.825-2.825V186.8a2.828,2.828,0,0,0-2.825-2.825Z" transform="translate(-1031.437 -178.171)"/></g><g transform="translate(15.72 26.278)"><g transform="translate(14.133 31.871)"><path class="h" d="M1111.382,260.785a21.906,21.906,0,0,1-2.906,3.731,6.151,6.151,0,0,1-2.618,1.714c-2.587.619-6.5-5.7-6.61-5.888l0,0,1.089-5.888h10.325l.089.788Z" transform="translate(-1098.53 -253.736)"/><path class="d" d="M1104.642,266.114c-3.032,0-6.631-5.867-6.87-6.262a.723.723,0,0,1-.1-.514l1.089-5.888a.714.714,0,0,1,.7-.584h10.325a.714.714,0,0,1,.71.634l.724,6.334a.713.713,0,0,1-.1.449,22.439,22.439,0,0,1-3.016,3.872,6.713,6.713,0,0,1-2.952,1.9A2.211,2.211,0,0,1,1104.642,266.114Zm-5.516-6.787c1.343,2.153,4.2,5.694,5.695,5.338a5.468,5.468,0,0,0,2.282-1.526,20.982,20.982,0,0,0,2.67-3.39l-.624-5.454h-9.092Z" transform="translate(-1097.66 -252.866)"/></g><g transform="translate(0.251 36.873)"><path class="i" d="M1132.558,281.734v15.821h-36.783v-.362h-27.323V282.518c-.181-19.205,14.132-16.875,14.132-16.875l0,0c.114.163,4.024,5.631,6.61,5.095a6.312,6.312,0,0,0,2.619-1.483c-.071.77-.106,1.562-.106,2.367,0,5.329,1.607,10.041,4.069,12.9a7.373,7.373,0,0,0,5.531,2.885,6.553,6.553,0,0,0,3.921-1.373c3.349-2.462,5.684-7.986,5.684-14.408a24.974,24.974,0,0,0-.479-4.925c1.167,1.49,4.038,4.825,6.085,4.4,2.629-.543,5.528-4.708,5.528-4.708a12.587,12.587,0,0,1,2.693.366,13.036,13.036,0,0,1,4.3,3.2h0C1133.159,274.433,1132.558,281.734,1132.558,281.734Z" transform="translate(-1067.736 -264.837)"/><path class="d" d="M1131.688,297.394h-36.783a.713.713,0,0,1-.621-.362h-26.7a.714.714,0,0,1-.714-.715V281.643c-.064-6.818,1.655-11.783,5.112-14.751a13,13,0,0,1,9.849-2.829.716.716,0,0,1,.39.2.772.772,0,0,1,.085.1c1.147,1.649,4.223,5.147,5.879,4.8a5.564,5.564,0,0,0,2.3-1.326.714.714,0,0,1,1.177.608c-.069.747-.1,1.521-.1,2.3,0,4.954,1.456,9.6,3.9,12.43a6.655,6.655,0,0,0,4.99,2.637,5.825,5.825,0,0,0,3.5-1.233c3.277-2.41,5.394-7.839,5.394-13.834a24.257,24.257,0,0,0-.465-4.784.715.715,0,0,1,1.263-.582c2.185,2.79,4.242,4.377,5.377,4.141,1.929-.4,4.326-3.324,5.087-4.417a.708.708,0,0,1,.609-.306,13.387,13.387,0,0,1,2.845.387.567.567,0,0,1,.07.022,12.851,12.851,0,0,1,4.4,3.2c.055.058.1.1.121.126l.016.015h0l.008.008c.012.012.024.024.035.037,4.179,4.552,3.744,11.681,3.7,12.285V296.68A.715.715,0,0,1,1131.688,297.394Zm-36.161-1.429h35.447V280.859c0-.019,0-.039,0-.058.006-.069.519-7.022-3.306-11.212-.043-.041-.095-.095-.182-.187a7.164,7.164,0,0,0-5.957-3.153c-.771,1.033-3.288,4.171-5.735,4.676-1.644.343-3.533-1.05-5.161-2.758.083.849.125,1.712.125,2.584,0,6.434-2.345,12.315-5.976,14.985a7.22,7.22,0,0,1-4.344,1.512,8.032,8.032,0,0,1-6.073-3.133c-2.656-3.081-4.242-8.077-4.242-13.363q0-.444.014-.885a5.319,5.319,0,0,1-1.665.7c-2.766.57-6.3-3.958-7.155-5.125a11.682,11.682,0,0,0-8.422,2.547c-3.113,2.682-4.661,7.274-4.6,13.648V295.6h26.609A.715.715,0,0,1,1095.527,295.965Z" transform="translate(-1066.866 -263.962)"/></g><g transform="translate(10.601 37.036)"><path class="j" d="M1094.524,265.909l6.61,5.095-7.518,4.889-2.207-9.966" transform="translate(-1090.694 -265.195)"/><path class="d" d="M1092.745,275.738a.714.714,0,0,1-.7-.56l-2.207-9.967a.714.714,0,0,1,1.395-.309l1.984,8.96,5.809-3.778-5.812-4.48a.715.715,0,0,1,.873-1.132l6.61,5.095a.715.715,0,0,1-.046,1.165l-7.519,4.889A.715.715,0,0,1,1092.745,275.738Z" transform="translate(-1089.824 -264.325)"/></g><g transform="translate(41.63 32.233)"><path class="h" d="M1172.208,261.419s-2.9,4.685-5.528,5.3l-6.156-5.335c-.081-.443-.177-.878-.283-1.3l.915-4.824h9.888Z" transform="translate(-1159.527 -254.539)"/><path class="d" d="M1165.81,266.558a.714.714,0,0,1-.468-.174l-6.156-5.335a.715.715,0,0,1-.235-.411c-.076-.414-.168-.836-.274-1.256a.718.718,0,0,1-.009-.308l.916-4.824a.714.714,0,0,1,.7-.581h9.888a.715.715,0,0,1,.7.582l1.163,6.166a.716.716,0,0,1-.095.509c-.313.505-3.137,4.957-5.974,5.615A.7.7,0,0,1,1165.81,266.558Zm-5.5-6.427,5.67,4.915c1.743-.668,3.768-3.354,4.6-4.642l-1-5.306h-8.7l-.776,4.09C1160.178,259.5,1160.248,259.818,1160.31,260.131Z" transform="translate(-1158.656 -253.669)"/></g><g transform="translate(52.434 32.233)"><path class="d" d="M1184.5,260.579a.714.714,0,0,1-.7-.566l-1.164-5.481a.714.714,0,0,1,.7-.863h.44a.715.715,0,0,1,.708.621l.724,5.482a.714.714,0,0,1-.588.8A.743.743,0,0,1,1184.5,260.579Z" transform="translate(-1182.622 -253.669)"/></g><g transform="translate(57.583 54.201)"><rect class="h" width="6.522" height="14.675" transform="translate(0.715 0.714)"/><path class="d" d="M1201.28,318.5h-6.522a.715.715,0,0,1-.715-.714V303.114a.715.715,0,0,1,.715-.714h6.522a.714.714,0,0,1,.715.714v14.675A.714.714,0,0,1,1201.28,318.5Zm-5.808-1.429h5.093V303.829h-5.093Z" transform="translate(-1194.043 -302.4)"/></g><g transform="translate(39.061 36.287)"><path class="k" d="M1152.958,262.662" transform="translate(-1152.958 -262.662)"/></g><g transform="translate(41.463 37.331)"><path class="d" d="M1159.45,266.755a.71.71,0,0,1-.436-.149l-.45-.348a.714.714,0,1,1,.873-1.131l.45.348a.714.714,0,0,1-.437,1.28Z" transform="translate(-1158.286 -264.978)"/></g><g transform="translate(10.601 1.841)"><ellipse class="h" cx="9.602" cy="15.784" rx="9.602" ry="15.784" transform="translate(0.714 0.714)"/><path class="d" d="M1100.14,219.25c-5.689,0-10.317-7.4-10.317-16.5s4.628-16.5,10.317-16.5,10.317,7.4,10.317,16.5S1105.829,219.25,1100.14,219.25Zm0-31.569c-4.9,0-8.888,6.76-8.888,15.07s3.987,15.07,8.888,15.07,8.888-6.76,8.888-15.07S1105.042,187.682,1100.14,187.682Z" transform="translate(-1089.824 -186.253)"/></g><g transform="translate(23.258 37.327)"><path class="h" d="M1138.693,272.175c0,6.422-2.335,11.946-5.684,14.409a6.554,6.554,0,0,1-3.921,1.373,7.373,7.373,0,0,1-5.531-2.885c-2.463-2.856-4.07-7.568-4.07-12.9,0-.805.036-1.6.106-2.367a19.5,19.5,0,0,0,2.906-3.229,10.112,10.112,0,0,1,6.411,2.246,11.038,11.038,0,0,1,2.718-1.515l6.06-.756,0,0c.025.036.213.3.521.692A25,25,0,0,1,1138.693,272.175Z" transform="translate(-1118.773 -265.84)"/><path class="d" d="M1128.218,287.8a8.032,8.032,0,0,1-6.073-3.133c-2.656-3.081-4.243-8.077-4.243-13.363,0-.827.037-1.645.11-2.433a.715.715,0,0,1,.247-.477,18.933,18.933,0,0,0,2.783-3.093.7.7,0,0,1,.609-.306,11.059,11.059,0,0,1,6.408,2.064,11.905,11.905,0,0,1,2.44-1.285.711.711,0,0,1,.17-.043l6.06-.756a.709.709,0,0,1,.593.2.735.735,0,0,1,.083.1c.035.049.221.306.5.661a.722.722,0,0,1,.138.3,25.729,25.729,0,0,1,.493,5.066c0,6.434-2.346,12.316-5.975,14.985A7.222,7.222,0,0,1,1128.218,287.8Zm-8.808-18.514c-.053.656-.079,1.334-.079,2.018,0,4.954,1.456,9.6,3.9,12.43a6.657,6.657,0,0,0,4.99,2.637,5.826,5.826,0,0,0,3.5-1.233c3.277-2.41,5.394-7.839,5.394-13.834a24.34,24.34,0,0,0-.432-4.62c-.069-.089-.13-.169-.183-.239l-5.557.692a10.342,10.342,0,0,0-2.462,1.385.713.713,0,0,1-.894-.021,9.331,9.331,0,0,0-5.6-2.061A20.223,20.223,0,0,1,1119.41,269.286Z" transform="translate(-1117.902 -264.97)"/></g><g transform="translate(23.365 32.552)"><path class="d" d="M1118.853,263.835a.714.714,0,0,1-.711-.779,22.072,22.072,0,0,1,2.353-8.3.714.714,0,0,1,1.338.243l.635,4.8a.714.714,0,0,1-.122.5,20.045,20.045,0,0,1-3.028,3.364A.716.716,0,0,1,1118.853,263.835Zm1.9-6.128a21.248,21.248,0,0,0-.909,3.435c.541-.605.959-1.149,1.173-1.438Z" transform="translate(-1118.138 -254.377)"/></g><g transform="translate(35.4 37.237)"><path class="d" d="M1145.549,267.045a.714.714,0,0,1-.258-1.38,13.45,13.45,0,0,1,6.433-.795.714.714,0,0,1-.027,1.414l-6.06.756A.651.651,0,0,1,1145.549,267.045Z" transform="translate(-1144.835 -264.77)"/></g><g transform="translate(41.46 36.419)"><path class="d" d="M1159.518,265.988a.714.714,0,0,1-.562-.274c-.309-.394-.5-.654-.536-.711a.726.726,0,0,1-.133-.536l.142-.908a.714.714,0,0,1,1.361-.174,1.046,1.046,0,0,1,.073.236c.109.388.2.779.284,1.164.028.127.053.243.074.362a.715.715,0,0,1-.7.842Z" transform="translate(-1158.279 -262.956)"/></g><g transform="translate(38.347 5.827)"><ellipse class="h" cx="9.602" cy="13.791" rx="9.602" ry="13.791" transform="translate(0.714 0.715)"/><path class="d" d="M1161.69,224.106c-5.689,0-10.317-6.507-10.317-14.506s4.628-14.506,10.317-14.506,10.317,6.508,10.317,14.506S1167.379,224.106,1161.69,224.106Zm0-27.583c-4.9,0-8.888,5.866-8.888,13.077s3.987,13.077,8.888,13.077,8.888-5.866,8.888-13.077S1166.591,196.523,1161.69,196.523Z" transform="translate(-1151.373 -195.094)"/></g><g transform="translate(3.983)"><path class="d" d="M1102.014,206.593s5.34-3.77,6.065-9.033-4.53-9.249-4.53-9.249.664-5.641-9.119-4.373-12.078,3.286-12.078,3.286-9.877,4.523-3.442,14.153c0,0,1.087,5.232,4.439,6.319l-.544-7.79s11.142-1.946,14.947-5.412c0,0-1.761,1.443-.493,3.065s3.408,1.472,4.3,3.818A11.963,11.963,0,0,1,1102.014,206.593Z" transform="translate(-1076.016 -183.038)"/><path class="d" d="M1082.476,207.542a.711.711,0,0,1-.22-.035c-3.421-1.11-4.677-5.819-4.887-6.714-2.032-3.087-2.677-6.013-1.916-8.7,1.138-4.017,5.026-6.049,5.65-6.353.535-.4,3.406-2.222,12.363-3.383,4.054-.525,6.941.03,8.58,1.65a4.55,4.55,0,0,1,1.352,3.1c1.147.964,5.195,4.751,4.516,9.681-.758,5.507-6.132,9.358-6.361,9.519a.715.715,0,0,1-1.118-.689,11.3,11.3,0,0,0-.419-4.856,3.778,3.778,0,0,0-2.1-2.037,6.237,6.237,0,0,1-2.095-1.594,2.716,2.716,0,0,1-.612-1.5c-4.074,2.235-10.479,3.6-12.523,3.99l.5,7.155a.715.715,0,0,1-.713.764ZM1096.2,183.6a20,20,0,0,0-2.554.178c-9.3,1.206-11.684,3.1-11.707,3.121a.811.811,0,0,1-.166.106c-.038.018-3.927,1.85-4.952,5.491-.646,2.293-.038,4.856,1.806,7.616a.708.708,0,0,1,.105.252c.009.041.8,3.7,2.939,5.257l-.456-6.533a.714.714,0,0,1,.59-.753c.108-.019,10.724-1.9,14.457-5.119.054-.051.108-.1.161-.142a.714.714,0,0,1,.934,1.081l-.124.11a1.424,1.424,0,0,0-.288,1.987,4.95,4.95,0,0,0,1.653,1.22,5.107,5.107,0,0,1,2.749,2.785,11.013,11.013,0,0,1,.61,3.863c1.553-1.412,4.075-4.173,4.537-7.525.658-4.778-4.2-8.545-4.254-8.582a.716.716,0,0,1-.277-.652,3.065,3.065,0,0,0-.945-2.351C1100.063,184.074,1098.42,183.6,1096.2,183.6Z" transform="translate(-1075.144 -182.168)"/></g><g transform="translate(35.4 2.712)"><path class="d" d="M1171.863,227.818l-.011-.011a9.07,9.07,0,0,0-4.541-2.671,5.235,5.235,0,0,0-2.693-.366l-.724-5.482h-.44l-.078-.362s6.291-5.861,5.195-12.251-6.606-2.92-9.342-4.552a16.353,16.353,0,0,1-3.53-2.536s-5.378,3.27-5.18,7.428-1.307,7.289,2.969,10.982l-.866,5.478-.142.908a12.8,12.8,0,0,0-6.06.756V196.507s3.917-5.255,8.448-3.623c0,0,7-7.792,13.734,1.266,0,0,2.867,1.452,3.261,7.792S1171.863,227.818,1171.863,227.818Z" transform="translate(-1145.705 -189.054)"/><path class="d" d="M1170.993,227.663a.715.715,0,0,1-.505-.209l-.02-.021a8.421,8.421,0,0,0-4.2-2.474.7.7,0,0,1-.069-.021,4.506,4.506,0,0,0-2.313-.334.714.714,0,0,1-.842-.608l-.645-4.886a.714.714,0,0,1-.509-.538l-.078-.362a.715.715,0,0,1,.211-.673c.06-.056,5.995-5.681,4.978-11.608-.616-3.6-2.612-3.547-5.143-3.476a7.114,7.114,0,0,1-3.861-.584,23.146,23.146,0,0,1-3.24-2.24c-1.226.859-4.534,3.468-4.39,6.484a27.936,27.936,0,0,1-.043,2.826c-.141,2.818-.252,5.043,2.765,7.649a.715.715,0,0,1,.239.652l-1.008,6.385a.714.714,0,0,1-.821.595,12.206,12.206,0,0,0-5.687.717.714.714,0,0,1-.972-.666V195.637a.71.71,0,0,1,.142-.427c.168-.225,4.05-5.338,8.818-4.009.917-.884,3.633-3.168,7.11-3.009,2.669.124,5.129,1.654,7.315,4.55.672.436,3.12,2.415,3.485,8.287.395,6.3.006,25.739,0,25.935a.714.714,0,0,1-.714.7Zm-4.341-4.08a10,10,0,0,1,3.655,1.766c.084-4.783.3-19.048-.028-24.232-.358-5.77-2.854-7.19-2.879-7.2a.753.753,0,0,1-.242-.207c-1.936-2.6-4.059-3.979-6.31-4.087-3.528-.168-6.293,2.843-6.321,2.873a.714.714,0,0,1-.773.194c-3.527-1.271-6.782,2.342-7.491,3.2v27.384a13.873,13.873,0,0,1,4.744-.536l.843-5.333c-3.237-2.958-3.1-5.67-2.958-8.535.043-.861.087-1.753.042-2.686-.217-4.531,5.288-7.931,5.522-8.073a.714.714,0,0,1,.908.138,16.6,16.6,0,0,0,3.359,2.394,6.089,6.089,0,0,0,3.089.383c2.435-.067,5.766-.164,6.592,4.663.953,5.553-3.216,10.6-4.817,12.3a.721.721,0,0,1,.145.345l.634,4.8h.008A6.758,6.758,0,0,1,1166.652,223.583Z" transform="translate(-1144.835 -188.183)"/></g><g transform="translate(52.434 32.233)"><path class="d" d="M1184.5,260.579a.714.714,0,0,1-.7-.566l-1.164-5.481a.714.714,0,0,1,.7-.863h.44a.715.715,0,0,1,.708.621l.724,5.482a.714.714,0,0,1-.588.8A.743.743,0,0,1,1184.5,260.579Z" transform="translate(-1182.622 -253.669)"/></g><g transform="translate(56.29 38.08)"><path class="d" d="M1196.433,270.74a.712.712,0,0,1-.45-.16,17.823,17.823,0,0,0-4.338-2.556.714.714,0,0,1,.423-1.363,9.81,9.81,0,0,1,4.891,2.881.715.715,0,0,1-.527,1.2Z" transform="translate(-1191.177 -266.64)"/></g><g transform="translate(14.133 29.38)"><path class="d" d="M1117.2,248.926s-14.335,1.631-11.888,16.85c0,0-5.526,3.621-6.069,7.971,0,0,6.513,1.7,10.685-1.324,0,0-1.26-5.127-.9-8.368,0,0,2.718-2.3,6.523-5.093a39.038,39.038,0,0,0,9.6,5.184l3.442,2.354-1.02,4.893s-.973,2.354,8.086,2.354a9.3,9.3,0,0,0-5.435-7.247s3.4-13.587-9.715-17.573Z" transform="translate(-1098.53 -248.212)"/><path class="d" d="M1102.531,274.073a18.739,18.739,0,0,1-4.338-.5.714.714,0,0,1-.528-.78c.5-3.98,4.694-7.276,6-8.216-.663-4.663.156-8.55,2.438-11.558,3.706-4.884,9.881-5.638,10.142-5.668a.8.8,0,0,1,.081,0h3.31a.7.7,0,0,1,.207.031c12.038,3.659,10.788,15.157,10.315,17.858a9.921,9.921,0,0,1,5.341,7.592.714.714,0,0,1-.713.767c-4.86,0-7.655-.646-8.545-1.976a1.5,1.5,0,0,1-.233-1.275l.915-4.39-2.978-2.036a40.741,40.741,0,0,1-9.275-4.932c-2.919,2.157-5.147,3.989-5.834,4.562a31.7,31.7,0,0,0,.911,7.839.714.714,0,0,1-.275.749A11.839,11.839,0,0,1,1102.531,274.073Zm-3.327-1.75c1.625.3,5.955.856,9.048-1.087a29.407,29.407,0,0,1-.8-8.13.714.714,0,0,1,.247-.466c.028-.023,2.781-2.353,6.562-5.124a.716.716,0,0,1,.865.016,38.748,38.748,0,0,0,9.41,5.075.712.712,0,0,1,.152.079l3.442,2.354a.716.716,0,0,1,.3.736l-1.021,4.893a.428.428,0,0,1-.015.057.412.412,0,0,0,.127.195c.347.353,1.658,1.15,6.429,1.235a8.607,8.607,0,0,0-4.891-5.878.715.715,0,0,1-.392-.821,17.779,17.779,0,0,0,.044-7.023c-1-4.834-4.082-8.085-9.173-9.662h-3.157c-.495.068-5.948.9-9.137,5.118-2.1,2.779-2.807,6.448-2.09,10.9a.715.715,0,0,1-.314.71C1104.785,265.535,1100.128,268.632,1099.2,272.323Zm28.162-1.53h0Zm0,0v0Zm0,0h0Zm0,0h0Z" transform="translate(-1097.66 -247.342)"/></g><g transform="translate(14.133 58.729)"><path class="j" d="M1108.37,314.03h20.407s4.892,2.538,6.885,10.147h-36.417S1103.2,315.815,1108.37,314.03Z" transform="translate(-1098.53 -313.315)"/><path class="d" d="M1134.791,324.022h-36.417a.715.715,0,0,1-.646-1.02c.167-.353,4.149-8.655,9.538-10.517a.723.723,0,0,1,.234-.039h20.407a.716.716,0,0,1,.329.081c.211.109,5.2,2.774,7.247,10.6a.714.714,0,0,1-.691.9Zm-35.242-1.429h34.3c-1.8-5.822-5.38-8.261-6.13-8.718h-20.092C1103.891,315.242,1100.755,320.382,1099.549,322.592Z" transform="translate(-1097.659 -312.445)"/></g><g transform="translate(16.178 19.783)"><circle class="d" cx="1.253" cy="1.253" r="1.253"/><g transform="translate(6.542)"><circle class="d" cx="1.253" cy="1.253" r="1.253"/></g></g><g transform="translate(28.887 45.715)"><circle class="d" cx="1.253" cy="1.253" r="1.253"/><g transform="translate(6.542)"><circle class="d" cx="1.253" cy="1.253" r="1.253"/></g></g><g transform="translate(44.14 20.138)"><circle class="d" cx="1.253" cy="1.253" r="1.253"/><g transform="translate(6.542)"><circle class="d" cx="1.253" cy="1.253" r="1.253"/></g></g><g transform="translate(0 53.839)"><path class="h" d="M1067.9,303.183h7.247l-.182,14.675h-7.067Z" transform="translate(-1067.179 -302.468)"/><path class="d" d="M1074.09,317.7h-7.067a.714.714,0,0,1-.714-.714l0-14.675a.714.714,0,0,1,.714-.715h7.247a.714.714,0,0,1,.714.724L1074.8,317A.715.715,0,0,1,1074.09,317.7Zm-6.353-1.429h5.647l.164-13.246h-5.809Z" transform="translate(-1066.309 -301.598)"/></g><g transform="translate(19.116 22.767)"><path class="d" d="M1110.637,237.181h-1.209a.714.714,0,0,1-.7-.846l.576-3.08a.715.715,0,0,1,1.4.263l-.418,2.234h.349a.714.714,0,1,1,0,1.429Z" transform="translate(-1108.713 -232.673)"/></g><g transform="translate(47.49 22.404)"><path class="d" d="M1173.578,236.376h-1.21a.715.715,0,0,1,0-1.429h.35l-.419-2.234a.714.714,0,0,1,1.4-.263l.577,3.08a.714.714,0,0,1-.7.846Z" transform="translate(-1171.654 -231.867)"/></g><g transform="translate(19.83 28.192)"><path class="k" d="M1110.3,244.706" transform="translate(-1110.298 -244.706)"/></g><g transform="translate(17.969 28.67)"><path class="d" d="M1108.635,249.249a.714.714,0,0,1-.543-.251l-1.752-2.053a.714.714,0,0,1,.544-1.178h3.321a.714.714,0,0,1,.568,1.148l-1.569,2.053a.714.714,0,0,1-.548.28Zm-.2-2.053.173.2.155-.2Z" transform="translate(-1106.169 -245.767)"/></g><g transform="translate(45.379 28.353)"><path class="d" d="M1169.437,248.546a.715.715,0,0,1-.543-.25l-1.752-2.053a.714.714,0,0,1,.543-1.178h3.321a.714.714,0,0,1,.567,1.148l-1.569,2.053a.716.716,0,0,1-.548.28Zm-.2-2.053.173.2.155-.2Z" transform="translate(-1166.971 -245.064)"/></g><g transform="translate(32.428 47.119)"><path class="d" d="M1140.168,291.2h-1.21a.715.715,0,0,1,0-1.429h.349l-.418-2.234a.714.714,0,1,1,1.4-.263l.576,3.08a.714.714,0,0,1-.7.846Z" transform="translate(-1138.244 -286.692)"/></g><g transform="translate(30.317 53.069)"><path class="d" d="M1136.027,303.371a.715.715,0,0,1-.543-.251l-1.752-2.053a.714.714,0,0,1,.544-1.178h3.321a.715.715,0,0,1,.568,1.148l-1.569,2.053a.714.714,0,0,1-.549.281Zm-.2-2.053.173.2.155-.2Z" transform="translate(-1133.561 -299.889)"/></g><g transform="translate(50.358 17.05)"><path class="l" d="M1181.389,219.989s-1.377,14.823-3.371,15.944a5.946,5.946,0,0,0,3.08-2.114c1.389-1.751,3.986-4.256,3.986-8.591S1183.493,219.989,1181.389,219.989Z" transform="translate(-1178.018 -219.989)"/></g><g transform="translate(12.195 16.446)"><path class="l" d="M1093.417,219.556l3.926-.906s-1.269,2.717.482,9.18,2.6,7.368,2.6,7.368-3.744-.785-5.616-6.432S1093.417,219.556,1093.417,219.556Z" transform="translate(-1093.361 -218.65)"/></g><g transform="translate(15.726 33.597)"><path class="l" d="M1102.187,256.7s1.631,1.993,5.677,1.269a6.267,6.267,0,0,0-4.529,4.348l-2.142-1.623Z" transform="translate(-1101.193 -256.696)"/></g><g transform="translate(49.875 34.124)"><path class="l" d="M1176.946,258.667l2.657-.8.845,5.09-1.751,2.081Z" transform="translate(-1176.946 -257.865)"/></g><g transform="translate(36.682 45.253)"><path class="l" d="M1149.277,282.552s1.151,9.059-1.6,12.38c0,0,3.29-2.8,3.954-5.173s1.539-5.214,1.539-5.214Z" transform="translate(-1147.679 -282.552)"/></g><g transform="translate(4.699 55.391)"><path class="l" d="M1079.03,305.04v12.932h-2.3Z" transform="translate(-1076.732 -305.04)"/></g><g transform="translate(59.276 55.822)"><path class="l" d="M1197.8,306l1.953,12.984H1197.8Z" transform="translate(-1197.799 -305.996)"/></g><g transform="translate(36.682 60.29)"><path class="m" d="M1147.679,315.909h7.517a19.653,19.653,0,0,1,5.677,8.516h-11.052A17.631,17.631,0,0,0,1147.679,315.909Z" transform="translate(-1147.679 -315.909)"/></g><g transform="translate(54.281 39.214)"><path class="n" d="M1186.719,270.725s7.521.846,7.7,13.347h2.114s.725-5.537-.785-8.415-2.053-4.388-8.032-6.5Z" transform="translate(-1186.719 -269.155)"/></g><g transform="translate(1.803 38.91)"><path class="n" d="M1079.609,270.867s-6.633-.082-6.814,12.419l-2.486-.124s-.06-5,1.449-7.875,1.446-5.053,7.428-6.805Z" transform="translate(-1070.308 -268.482)"/></g></g></g><path class="o" d="M1101.374,95.606l22.782,12.935-41.286,135.182L963.752,225.5Z" transform="translate(-969.919 -105.647)"/><path class="o" d="M953.605,105.335l21.751-14.6,145.086,127.709-117.475,19.9Z" transform="translate(-964.346 -102.971)"/><g transform="translate(31.433 19.76)"><g transform="translate(17.84 40.231)"><path class="h" d="M1114.566,262.447a27.636,27.636,0,0,1-3.668,4.71,7.765,7.765,0,0,1-3.305,2.164c-3.265.781-8.2-7.194-8.344-7.433l0-.005,1.375-7.432h13.033l.111.994Z" transform="translate(-1098.343 -253.549)"/><path class="d" d="M1106.474,269.589c-3.828,0-8.37-7.406-8.672-7.905a.914.914,0,0,1-.127-.648l1.375-7.432a.9.9,0,0,1,.887-.738h13.033a.9.9,0,0,1,.9.8l.913,8a.9.9,0,0,1-.123.567,28.318,28.318,0,0,1-3.807,4.888,8.472,8.472,0,0,1-3.727,2.4A2.792,2.792,0,0,1,1106.474,269.589Zm-6.962-8.567c1.7,2.717,5.306,7.188,7.189,6.738a6.9,6.9,0,0,0,2.88-1.927,26.489,26.489,0,0,0,3.371-4.28l-.788-6.884h-11.476Z" transform="translate(-1097.66 -252.866)"/></g><g transform="translate(0.317 46.545)"><path class="i" d="M1149.374,285.978v19.971h-46.431v-.457h-34.491V286.968c-.228-24.243,17.839-21.3,17.839-21.3l0,0c.143.206,5.079,7.108,8.344,6.431a7.967,7.967,0,0,0,3.305-1.872c-.09.972-.134,1.971-.134,2.988,0,6.727,2.029,12.675,5.137,16.28a9.307,9.307,0,0,0,6.982,3.641,8.272,8.272,0,0,0,4.949-1.733c4.228-3.108,7.175-10.081,7.175-18.188a31.526,31.526,0,0,0-.6-6.216c1.474,1.881,5.1,6.091,7.681,5.553,3.319-.685,6.978-5.943,6.978-5.943a15.89,15.89,0,0,1,3.4.461c2.808,1.03,5.215,3.862,5.43,4.037h0C1150.133,276.762,1149.374,285.978,1149.374,285.978Z" transform="translate(-1067.549 -264.648)"/><path class="d" d="M1148.692,306.164H1102.26c-.336,0-34.491-.457-34.491-.457a.9.9,0,0,1-.9-.9V286.282c-.081-8.607,2.09-14.874,6.453-18.62a16.408,16.408,0,0,1,12.432-3.571.9.9,0,0,1,.493.253,1,1,0,0,1,.107.127c1.448,2.082,5.33,6.5,7.421,6.064a7.022,7.022,0,0,0,2.9-1.674.9.9,0,0,1,1.485.767c-.087.942-.131,1.919-.131,2.9,0,6.253,1.839,12.119,4.919,15.691a8.4,8.4,0,0,0,6.3,3.328,7.352,7.352,0,0,0,4.413-1.556c4.137-3.042,6.81-9.9,6.81-17.463a30.622,30.622,0,0,0-.588-6.039.9.9,0,0,1,1.595-.734c2.758,3.521,5.355,5.526,6.788,5.227,2.435-.5,5.461-4.2,6.421-5.576a.894.894,0,0,1,.769-.386,16.9,16.9,0,0,1,3.592.489.728.728,0,0,1,.089.028,16.224,16.224,0,0,1,5.559,4.044c.07.073.121.128.153.159a.2.2,0,0,1,.021.019h0l.01.01c.016.015.03.03.045.046,5.275,5.746,4.726,14.745,4.669,15.507v19.936A.9.9,0,0,1,1148.692,306.164Zm-45.647-1.8h44.745V285.292c0-.024,0-.049,0-.073.007-.088.656-8.864-4.173-14.153-.054-.052-.12-.12-.23-.236a9.043,9.043,0,0,0-7.519-3.981c-.974,1.3-4.15,5.265-7.239,5.9-2.075.433-4.46-1.326-6.514-3.481.1,1.072.158,2.161.158,3.261,0,8.121-2.961,15.546-7.543,18.915a9.114,9.114,0,0,1-5.483,1.908,10.139,10.139,0,0,1-7.666-3.955c-3.353-3.889-5.355-10.2-5.355-16.868q0-.561.018-1.118a6.715,6.715,0,0,1-2.1.885c-3.492.72-7.951-5-9.032-6.47a14.746,14.746,0,0,0-10.631,3.215c-3.929,3.385-5.883,9.182-5.807,17.228V303.9S1102.89,304.088,1103.045,304.36Z" transform="translate(-1066.866 -263.962)"/></g><g transform="translate(13.381 46.751)"><path class="j" d="M1095.341,265.909l8.344,6.431-9.49,6.172-2.786-12.581" transform="translate(-1090.507 -265.008)"/><path class="d" d="M1093.511,278.732a.9.9,0,0,1-.88-.707l-2.785-12.581a.9.9,0,0,1,1.761-.39l2.5,11.31,7.333-4.769-7.336-5.655a.9.9,0,0,1,1.1-1.429l8.343,6.431a.9.9,0,0,1-.059,1.47L1094,278.586A.9.9,0,0,1,1093.511,278.732Z" transform="translate(-1089.824 -264.325)"/></g><g transform="translate(52.55 40.688)"><path class="h" d="M1175.348,263.036s-3.659,5.914-6.978,6.684l-7.771-6.735c-.1-.559-.224-1.108-.358-1.642l1.155-6.09h12.482Z" transform="translate(-1159.339 -254.352)"/><path class="d" d="M1167.687,269.939a.9.9,0,0,1-.591-.22l-7.771-6.735a.9.9,0,0,1-.3-.518c-.1-.522-.212-1.056-.345-1.585a.906.906,0,0,1-.011-.389l1.156-6.09a.9.9,0,0,1,.885-.733H1173.2a.9.9,0,0,1,.886.734l1.469,7.783a.9.9,0,0,1-.119.642c-.395.638-3.959,6.257-7.541,7.088A.884.884,0,0,1,1167.687,269.939Zm-6.944-8.113,7.158,6.2c2.2-.843,4.756-4.234,5.811-5.86l-1.264-6.7H1161.46l-.98,5.162C1160.578,261.033,1160.665,261.431,1160.743,261.826Z" transform="translate(-1158.656 -253.669)"/></g><g transform="translate(66.188 40.688)"><path class="d" d="M1184.991,262.392a.9.9,0,0,1-.881-.715l-1.469-6.919a.9.9,0,0,1,.882-1.089h.556a.9.9,0,0,1,.894.784l.913,6.92a.9.9,0,0,1-.741,1.007A.942.942,0,0,1,1184.991,262.392Z" transform="translate(-1182.621 -253.669)"/></g><g transform="translate(72.687 68.418)"><rect class="h" width="8.233" height="18.525" transform="translate(0.902 0.901)"/><path class="d" d="M1203.178,322.728h-8.233a.9.9,0,0,1-.9-.9V303.3a.9.9,0,0,1,.9-.9h8.233a.9.9,0,0,1,.9.9v18.525A.9.9,0,0,1,1203.178,322.728Zm-7.332-1.8h6.43V304.2h-6.43Z" transform="translate(-1194.043 -302.4)"/></g><g transform="translate(49.308 45.805)"><path class="k" d="M1152.958,262.662" transform="translate(-1152.958 -262.662)"/></g><g transform="translate(52.34 47.123)"><path class="d" d="M1159.756,267.221a.9.9,0,0,1-.55-.188l-.569-.439a.9.9,0,0,1,1.1-1.427l.568.439a.9.9,0,0,1-.551,1.616Z" transform="translate(-1158.286 -264.978)"/></g><g transform="translate(13.381 2.325)"><ellipse class="h" cx="12.121" cy="19.925" rx="12.121" ry="19.925" transform="translate(0.902 0.902)"/><path class="d" d="M1102.847,227.906c-7.181,0-13.023-9.343-13.023-20.827s5.842-20.826,13.023-20.826,13.023,9.343,13.023,20.826S1110.027,227.906,1102.847,227.906Zm0-39.849c-6.186,0-11.219,8.533-11.219,19.023s5.034,19.023,11.219,19.023,11.219-8.534,11.219-19.023S1109.033,188.056,1102.847,188.056Z" transform="translate(-1089.824 -186.253)"/></g><g transform="translate(29.359 47.118)"><path class="h" d="M1143.73,273.649c0,8.107-2.947,15.08-7.175,18.188a8.273,8.273,0,0,1-4.949,1.733,9.307,9.307,0,0,1-6.982-3.641c-3.109-3.605-5.137-9.553-5.137-16.28,0-1.016.045-2.016.134-2.988a24.6,24.6,0,0,0,3.668-4.076,12.765,12.765,0,0,1,8.093,2.835,13.926,13.926,0,0,1,3.431-1.912l7.65-.954,0,0c.031.045.269.376.658.873A31.547,31.547,0,0,1,1143.73,273.649Z" transform="translate(-1118.585 -265.653)"/><path class="d" d="M1130.924,293.789a10.139,10.139,0,0,1-7.666-3.956c-3.353-3.889-5.356-10.2-5.356-16.868,0-1.044.047-2.076.138-3.071a.9.9,0,0,1,.312-.6,23.9,23.9,0,0,0,3.513-3.9.883.883,0,0,1,.769-.386,13.96,13.96,0,0,1,8.089,2.606,15.033,15.033,0,0,1,3.08-1.622.891.891,0,0,1,.215-.054l7.65-.954a.9.9,0,0,1,.749.257.942.942,0,0,1,.105.125c.044.062.279.386.63.834a.915.915,0,0,1,.175.378,32.483,32.483,0,0,1,.622,6.394c0,8.122-2.961,15.546-7.543,18.915A9.117,9.117,0,0,1,1130.924,293.789Zm-11.118-23.371c-.067.829-.1,1.684-.1,2.548,0,6.253,1.838,12.119,4.918,15.691a8.4,8.4,0,0,0,6.3,3.328,7.354,7.354,0,0,0,4.413-1.556c4.137-3.042,6.809-9.9,6.809-17.463a30.737,30.737,0,0,0-.546-5.832c-.087-.112-.164-.213-.231-.3l-7.014.874a13.054,13.054,0,0,0-3.107,1.748.9.9,0,0,1-1.128-.027,11.779,11.779,0,0,0-7.068-2.6A25.543,25.543,0,0,1,1119.806,270.419Z" transform="translate(-1117.902 -264.97)"/></g><g transform="translate(29.494 41.09)"><path class="d" d="M1119.04,266.316a.9.9,0,0,1-.9-.984,27.864,27.864,0,0,1,2.969-10.477.9.9,0,0,1,1.689.306l.8,6.059a.9.9,0,0,1-.154.633,25.311,25.311,0,0,1-3.822,4.247A.9.9,0,0,1,1119.04,266.316Zm2.394-7.736a26.793,26.793,0,0,0-1.147,4.336c.683-.764,1.21-1.45,1.481-1.815Z" transform="translate(-1118.138 -254.377)"/></g><g transform="translate(44.685 47.005)"><path class="d" d="M1145.736,267.641a.9.9,0,0,1-.325-1.742,16.978,16.978,0,0,1,8.121-1,.9.9,0,0,1-.034,1.785l-7.65.954A.818.818,0,0,1,1145.736,267.641Z" transform="translate(-1144.835 -264.77)"/></g><g transform="translate(52.336 45.972)"><path class="d" d="M1159.843,266.784a.9.9,0,0,1-.709-.346c-.39-.5-.626-.826-.677-.9a.914.914,0,0,1-.167-.677l.179-1.147a.9.9,0,0,1,1.718-.22,1.3,1.3,0,0,1,.091.3c.137.49.258.984.359,1.469.035.16.067.306.094.456a.9.9,0,0,1-.887,1.063Z" transform="translate(-1158.278 -262.956)"/></g><g transform="translate(48.406 7.355)"><ellipse class="h" cx="12.121" cy="17.409" rx="12.121" ry="17.409" transform="translate(0.902 0.902)"/><path class="d" d="M1164.4,231.716c-7.181,0-13.023-8.214-13.023-18.311s5.842-18.311,13.023-18.311,13.023,8.215,13.023,18.311S1171.577,231.716,1164.4,231.716Zm0-34.818c-6.186,0-11.219,7.405-11.219,16.507s5.033,16.507,11.219,16.507,11.219-7.4,11.219-16.507S1170.583,196.9,1164.4,196.9Z" transform="translate(-1151.373 -195.094)"/></g><g transform="translate(5.028)"><path class="d" d="M1108.646,212.585s6.741-4.759,7.655-11.4-5.718-11.675-5.718-11.675.839-7.121-11.511-5.52-15.247,4.148-15.247,4.148-12.468,5.71-4.345,17.866c0,0,1.373,6.6,5.6,7.977l-.686-9.834s14.065-2.457,18.868-6.831c0,0-2.224,1.822-.623,3.869s4.3,1.858,5.426,4.819A15.1,15.1,0,0,1,1108.646,212.585Z" transform="translate(-1075.828 -182.851)"/><path class="d" d="M1084.4,214.2a.9.9,0,0,1-.278-.044c-4.318-1.4-5.9-7.345-6.169-8.475-2.565-3.9-3.379-7.59-2.418-10.979,1.436-5.07,6.344-7.636,7.132-8.02.676-.5,4.3-2.8,15.606-4.27,5.118-.662,8.762.038,10.831,2.083a5.743,5.743,0,0,1,1.707,3.909c1.448,1.217,6.557,6,5.7,12.221-.957,6.951-7.741,11.812-8.029,12.016a.9.9,0,0,1-1.412-.87,14.266,14.266,0,0,0-.529-6.129,4.77,4.77,0,0,0-2.648-2.572,7.874,7.874,0,0,1-2.645-2.012,3.429,3.429,0,0,1-.772-1.89c-5.143,2.821-13.228,4.538-15.808,5.037l.63,9.032a.9.9,0,0,1-.9.965Zm17.328-30.224a25.25,25.25,0,0,0-3.224.225c-11.739,1.522-14.749,3.916-14.778,3.94a1.021,1.021,0,0,1-.209.134c-.048.022-4.956,2.335-6.251,6.931-.816,2.895-.048,6.13,2.28,9.614a.891.891,0,0,1,.133.318c.011.052,1.01,4.67,3.71,6.636l-.575-8.247a.9.9,0,0,1,.744-.951c.136-.024,13.537-2.4,18.249-6.462.069-.065.136-.125.2-.179a.9.9,0,0,1,1.179,1.364l-.156.139a1.8,1.8,0,0,0-.363,2.508,6.248,6.248,0,0,0,2.087,1.54,6.447,6.447,0,0,1,3.471,3.516,13.907,13.907,0,0,1,.77,4.877c1.96-1.783,5.144-5.267,5.727-9.5.831-6.031-5.307-10.786-5.37-10.834a.9.9,0,0,1-.349-.823,3.87,3.87,0,0,0-1.193-2.968C1106.6,184.574,1104.526,183.974,1101.728,183.974Z" transform="translate(-1075.144 -182.168)"/></g><g transform="translate(44.685 3.423)"><path class="d" d="M1178.537,237.8l-.014-.014a11.451,11.451,0,0,0-5.733-3.372,6.607,6.607,0,0,0-3.4-.462l-.914-6.92h-.556l-.1-.457s7.941-7.4,6.557-15.465-8.339-3.686-11.792-5.746a20.639,20.639,0,0,1-4.456-3.2s-6.789,4.127-6.538,9.376-1.649,9.2,3.748,13.863l-1.093,6.915-.179,1.147a16.15,16.15,0,0,0-7.65.954V198.275s4.944-6.633,10.664-4.573c0,0,8.836-9.835,17.337,1.6,0,0,3.619,1.832,4.117,9.835S1178.537,237.8,1178.537,237.8Z" transform="translate(-1145.518 -188.867)"/><path class="d" d="M1177.854,238.018a.9.9,0,0,1-.638-.264l-.025-.027a10.631,10.631,0,0,0-5.306-3.124.868.868,0,0,1-.087-.027,5.688,5.688,0,0,0-2.92-.422.9.9,0,0,1-1.062-.768L1167,227.22a.9.9,0,0,1-.642-.679l-.1-.457a.9.9,0,0,1,.266-.85c.076-.071,7.567-7.171,6.283-14.653-.778-4.549-3.3-4.478-6.492-4.387-1.708.047-3.474.1-4.874-.738a29.206,29.206,0,0,1-4.09-2.827c-1.547,1.085-5.723,4.377-5.541,8.185a35.245,35.245,0,0,1-.054,3.568c-.178,3.557-.318,6.365,3.49,9.655a.9.9,0,0,1,.3.823l-1.272,8.06a.9.9,0,0,1-1.036.751,15.408,15.408,0,0,0-7.179.9.9.9,0,0,1-1.227-.841V197.592a.9.9,0,0,1,.179-.539c.212-.285,5.112-6.739,11.132-5.061,1.157-1.116,4.587-4,8.974-3.8,3.369.156,6.475,2.088,9.234,5.743.848.55,3.939,3.048,4.4,10.46.5,7.948.007,32.49,0,32.737a.9.9,0,0,1-.9.884Zm-5.48-5.15a12.621,12.621,0,0,1,4.615,2.23c.106-6.037.375-24.044-.035-30.589-.452-7.284-3.6-9.076-3.635-9.093a.953.953,0,0,1-.3-.261c-2.444-3.287-5.124-5.023-7.965-5.16-4.453-.212-7.944,3.589-7.979,3.627a.9.9,0,0,1-.975.245c-4.452-1.6-8.561,2.957-9.456,4.04v34.568a17.512,17.512,0,0,1,5.989-.677l1.063-6.732c-4.086-3.734-3.915-7.157-3.734-10.774.054-1.087.11-2.213.053-3.391-.274-5.719,6.675-10.011,6.971-10.191a.9.9,0,0,1,1.146.175,20.944,20.944,0,0,0,4.24,3.022,7.686,7.686,0,0,0,3.9.483c3.074-.084,7.278-.207,8.321,5.886,1.2,7.01-4.06,13.375-6.08,15.52a.908.908,0,0,1,.183.436l.8,6.065h.01A8.529,8.529,0,0,1,1172.375,232.868Z" transform="translate(-1144.835 -188.183)"/></g><g transform="translate(66.188 40.688)"><path class="d" d="M1184.991,262.392a.9.9,0,0,1-.881-.715l-1.469-6.919a.9.9,0,0,1,.882-1.089h.556a.9.9,0,0,1,.894.784l.913,6.92a.9.9,0,0,1-.741,1.007A.942.942,0,0,1,1184.991,262.392Z" transform="translate(-1182.621 -253.669)"/></g><g transform="translate(71.056 48.069)"><path class="d" d="M1197.811,271.816a.9.9,0,0,1-.568-.2,22.5,22.5,0,0,0-5.476-3.226.9.9,0,0,1,.534-1.72,12.384,12.384,0,0,1,6.174,3.636.9.9,0,0,1-.665,1.511Z" transform="translate(-1191.177 -266.64)"/></g><g transform="translate(17.84 37.087)"><path class="d" d="M1121.911,248.926s-18.095,2.058-15.006,21.269c0,0-6.976,4.571-7.661,10.061,0,0,8.221,2.145,13.488-1.671,0,0-1.59-6.472-1.137-10.563,0,0,3.431-2.91,8.234-6.429a49.276,49.276,0,0,0,12.121,6.544l4.345,2.972-1.288,6.176s-1.228,2.972,10.207,2.972a11.737,11.737,0,0,0-6.861-9.148s4.29-17.151-12.263-22.183Z" transform="translate(-1098.342 -248.025)"/><path class="d" d="M1103.809,281.084a23.658,23.658,0,0,1-5.475-.637.9.9,0,0,1-.667-.984c.626-5.024,5.925-9.184,7.58-10.371-.838-5.886.2-10.793,3.078-14.59,4.677-6.165,12.473-7.117,12.8-7.155a1.021,1.021,0,0,1,.1-.005h4.178a.888.888,0,0,1,.262.039c15.2,4.618,13.617,19.133,13.02,22.543a12.523,12.523,0,0,1,6.742,9.584.9.9,0,0,1-.9.969c-6.135,0-9.663-.815-10.786-2.494a1.9,1.9,0,0,1-.294-1.61l1.155-5.541-3.759-2.57a51.434,51.434,0,0,1-11.708-6.225c-3.685,2.723-6.5,5.035-7.365,5.758-.307,3.9,1.134,9.834,1.149,9.9a.9.9,0,0,1-.347.945A14.945,14.945,0,0,1,1103.809,281.084Zm-4.2-2.209c2.051.383,7.517,1.081,11.421-1.372-.389-1.743-1.4-6.766-1.014-10.263a.9.9,0,0,1,.312-.588c.035-.03,3.51-2.97,8.284-6.468a.9.9,0,0,1,1.092.02,48.9,48.9,0,0,0,11.879,6.406.9.9,0,0,1,.193.1l4.345,2.972a.9.9,0,0,1,.374.929l-1.288,6.176a.646.646,0,0,1-.018.072.516.516,0,0,0,.16.246c.438.446,2.093,1.452,8.116,1.559a10.866,10.866,0,0,0-6.174-7.419.9.9,0,0,1-.5-1.037,22.44,22.44,0,0,0,.055-8.866c-1.258-6.1-5.152-10.205-11.579-12.2h-3.986c-.625.085-7.508,1.139-11.534,6.46-2.655,3.508-3.543,8.139-2.638,13.765a.9.9,0,0,1-.4.9C1106.654,270.308,1100.776,274.217,1099.609,278.875Zm35.55-1.931v0Zm0,0v0Zm0,0v0Zm0,0h0Z" transform="translate(-1097.66 -247.342)"/></g><g transform="translate(17.84 74.134)"><path class="j" d="M1110.763,314.03h25.76s6.175,3.2,8.691,12.809h-45.97S1104.241,316.283,1110.763,314.03Z" transform="translate(-1098.342 -313.128)"/><path class="d" d="M1144.53,327.058h-45.969a.9.9,0,0,1-.816-1.288c.211-.445,5.238-10.926,12.04-13.276a.91.91,0,0,1,.295-.05h25.76a.9.9,0,0,1,.415.1c.267.138,6.561,3.5,9.148,13.381a.9.9,0,0,1-.873,1.131Zm-44.486-1.8h43.292c-2.275-7.349-6.792-10.428-7.738-11.005h-25.362C1105.526,315.975,1101.567,322.464,1100.044,325.254Z" transform="translate(-1097.659 -312.445)"/></g><g transform="translate(20.421 24.972)"><circle class="d" cx="1.582" cy="1.582" r="1.582"/><g transform="translate(8.258)"><circle class="d" cx="1.582" cy="1.582" r="1.582"/></g></g><g transform="translate(36.464 57.707)"><circle class="d" cx="1.582" cy="1.582" r="1.582"/><g transform="translate(8.258)"><circle class="d" cx="1.582" cy="1.582" r="1.582"/></g></g><g transform="translate(55.718 25.42)"><circle class="d" cx="1.582" cy="1.582" r="1.582"/><g transform="translate(8.258)"><circle class="d" cx="1.582" cy="1.582" r="1.582"/></g></g><g transform="translate(0 67.962)"><path class="h" d="M1067.9,303.183h9.148l-.23,18.525h-8.92Z" transform="translate(-1066.992 -302.281)"/><path class="d" d="M1076.131,321.926h-8.921a.9.9,0,0,1-.9-.9l0-18.525a.9.9,0,0,1,.9-.9h9.148a.9.9,0,0,1,.9.913l-.229,18.524A.9.9,0,0,1,1076.131,321.926Zm-8.019-1.8h7.129l.207-16.721h-7.333Z" transform="translate(-1066.309 -301.598)"/></g><g transform="translate(24.13 28.74)"><path class="d" d="M1111.142,238.364h-1.526a.9.9,0,0,1-.887-1.068l.727-3.888a.9.9,0,0,1,1.773.332l-.528,2.82h.441a.9.9,0,1,1,0,1.8Z" transform="translate(-1108.713 -232.673)"/></g><g transform="translate(59.947 28.281)"><path class="d" d="M1174.083,237.559h-1.527a.9.9,0,0,1,0-1.8H1173l-.528-2.82a.9.9,0,1,1,1.772-.332l.728,3.888a.9.9,0,0,1-.887,1.068Z" transform="translate(-1171.654 -231.867)"/></g><g transform="translate(25.032 35.587)"><path class="k" d="M1110.3,244.706" transform="translate(-1110.298 -244.706)"/></g><g transform="translate(22.682 36.191)"><path class="d" d="M1109.282,250.163a.9.9,0,0,1-.685-.316l-2.212-2.592a.9.9,0,0,1,.686-1.488h4.192a.9.9,0,0,1,.716,1.449L1110,249.808a.9.9,0,0,1-.692.354Zm-.257-2.592.218.256.2-.256Z" transform="translate(-1106.169 -245.767)"/></g><g transform="translate(57.282 35.791)"><path class="d" d="M1170.084,249.459a.9.9,0,0,1-.686-.316l-2.211-2.592a.9.9,0,0,1,.686-1.488h4.192a.9.9,0,0,1,.716,1.449l-1.981,2.592a.9.9,0,0,1-.692.354Zm-.256-2.591.218.255.2-.255Z" transform="translate(-1166.971 -245.064)"/></g><g transform="translate(40.935 59.479)"><path class="d" d="M1140.673,292.384h-1.527a.9.9,0,0,1,0-1.8h.441l-.527-2.82a.9.9,0,1,1,1.773-.332l.727,3.888a.9.9,0,0,1-.886,1.068Z" transform="translate(-1138.244 -286.692)"/></g><g transform="translate(38.27 66.989)"><path class="d" d="M1136.674,304.284a.9.9,0,0,1-.686-.316l-2.211-2.592a.9.9,0,0,1,.686-1.487h4.192a.9.9,0,0,1,.716,1.449l-1.981,2.591a.9.9,0,0,1-.693.355Zm-.256-2.592.218.256.195-.256Z" transform="translate(-1133.561 -299.889)"/></g><g transform="translate(63.568 21.522)"><path class="l" d="M1182.274,219.989s-1.739,18.712-4.256,20.126a7.505,7.505,0,0,0,3.888-2.668c1.753-2.211,5.032-5.372,5.032-10.844S1184.929,219.989,1182.274,219.989Z" transform="translate(-1178.018 -219.989)"/></g><g transform="translate(15.394 20.76)"><path class="l" d="M1093.431,219.793l4.956-1.143s-1.6,3.43.609,11.588,3.278,9.3,3.278,9.3-4.727-.991-7.09-8.119S1093.431,219.793,1093.431,219.793Z" transform="translate(-1093.361 -218.65)"/></g><g transform="translate(19.851 42.41)"><path class="l" d="M1102.448,256.7s2.058,2.516,7.166,1.6a7.911,7.911,0,0,0-5.717,5.488l-2.7-2.049Z" transform="translate(-1101.193 -256.696)"/></g><g transform="translate(62.958 43.075)"><path class="l" d="M1176.946,258.877l3.354-1.012,1.067,6.425-2.211,2.627Z" transform="translate(-1176.946 -257.865)"/></g><g transform="translate(46.304 57.124)"><path class="l" d="M1149.7,282.552s1.453,11.435-2.018,15.628c0,0,4.152-3.53,4.99-6.53s1.943-6.582,1.943-6.582Z" transform="translate(-1147.679 -282.552)"/></g><g transform="translate(5.931 69.92)"><path class="l" d="M1079.633,305.04v16.324h-2.9Z" transform="translate(-1076.732 -305.04)"/></g><g transform="translate(74.824 70.464)"><path class="l" d="M1197.8,306l2.466,16.39H1197.8Z" transform="translate(-1197.799 -305.996)"/></g><g transform="translate(46.304 76.105)"><path class="m" d="M1147.679,315.909h9.489a24.809,24.809,0,0,1,7.166,10.749h-13.951S1150.54,320.559,1147.679,315.909Z" transform="translate(-1147.679 -315.909)"/></g><g transform="translate(68.519 49.5)"><path class="n" d="M1186.719,271.137s9.494,1.068,9.722,16.848h2.668s.915-6.99-.991-10.622-2.592-5.539-10.139-8.207Z" transform="translate(-1186.719 -269.155)"/></g><g transform="translate(2.276 49.117)"><path class="n" d="M1082.049,271.492s-8.373-.1-8.6,15.677l-3.138-.156s-.076-6.308,1.83-9.941,1.825-6.378,9.376-8.59Z" transform="translate(-1070.308 -268.482)"/></g></g></g></g></svg>