<svg xmlns="http://www.w3.org/2000/svg" xmlns:xlink="http://www.w3.org/1999/xlink" width="148" height="108" viewBox="0 0 148 108"><defs><style>.a{fill:#fff;}.b{fill:none;}.c{clip-path:url(#a);}.d{fill:#f290bc;}.e{opacity:0.5;}.f{clip-path:url(#b);}.g{fill:#f3b6d2;}.h{fill:#f8cbdf;}.i{fill:#f4b0ce;}.j{opacity:0.8;}.k{clip-path:url(#c);}.l{fill:#8b9fd1;}.m{fill:#29266f;}.n{fill:#c2d6e3;}.o{fill:#663995;}.p{fill:#fbb32c;}.q{opacity:0.6;}.r{fill:#ee4676;}</style><clipPath id="a"><rect class="a" width="148" height="108" rx="8" transform="translate(0.375 0)"/></clipPath><clipPath id="b"><rect class="b" width="150.516" height="56.815"/></clipPath><clipPath id="c"><rect class="b" width="95.77" height="36.15"/></clipPath></defs><g transform="translate(-0.375 0)"><g class="c" transform="translate(0 0)"><g transform="translate(-13.38 -1.716)"><g transform="translate(0 0)"><path class="d" d="M216,108.523H72.483A9.12,9.12,0,0,1,63.141,99.7V9.419A9.12,9.12,0,0,1,72.483.6H216a9.12,9.12,0,0,1,9.342,8.821V99.7A9.12,9.12,0,0,1,216,108.523" transform="translate(-55.967 -0.598)"/><g class="e" transform="translate(92.044 61.64)"><g class="f"><path class="g" d="M317.365,260.673s3.3-33.338,35.318-27.727c0,0,7.592-30.367,31.028-29.047s31.357,15.514,31.357,21.455c0,0,20.795-.66,24.1,17.824,0,0,17.824-4.291,28.717,14.193Z" transform="translate(-317.365 -203.857)"/></g></g><path class="h" d="M175.472,311.292s1.382-13.955,14.784-11.606c0,0,3.178-12.711,12.988-12.159s13.126,6.494,13.126,8.981c0,0,8.7-.276,10.086,7.461,0,0,7.461-1.8,12.02,5.941Z" transform="translate(-124.581 -201.608)"/><path class="i" d="M349.907,101.8S348.137,83.91,330.959,86.92c0,0-4.073-16.292-16.646-15.583S297.49,79.66,297.49,82.848c0,0-11.156-.354-12.927,9.563,0,0-9.563-2.3-15.407,7.615Z" transform="translate(-191.094 -50.805)"/><g class="j" transform="translate(3.947 10.75)"><g class="k"><path class="h" d="M13.608,73.814S15.708,52.6,36.08,56.172c0,0,4.831-19.322,19.742-18.482s19.952,9.871,19.952,13.651c0,0,13.231-.42,15.332,11.341,0,0,11.341-2.73,18.272,9.031Z" transform="translate(-13.608 -37.663)"/></g></g><path class="h" d="M438.428,118.17s-1.5-15.126-16.025-12.58c0,0-3.444-13.778-14.077-13.179S394.1,99.45,394.1,102.146c0,0-9.435-.3-10.933,8.087,0,0-8.087-1.947-13.029,6.44Z" transform="translate(-262.788 -65.77)"/><path class="l" d="M224.042,249.906s1.135,2.951-4.536,9.847c0,0-.553,3.011,2.314,6.313s4.236,4.856,5.507,5.633,4.791,1.942,3.128,5.439h-5.671a3.5,3.5,0,0,0-2.542-4.565s-10.853-8.256-8.995-13.986c0,0,11.125-7.262,10.793-8.682" transform="translate(-151.25 -177.601)"/><path class="m" d="M228.691,276.088H223.02a.725.725,0,0,1-.685-.962,3.191,3.191,0,0,0-.141-2.2,3.061,3.061,0,0,0-1.932-1.434.722.722,0,0,1-.222-.115c-.46-.35-11.239-8.638-9.245-14.787a.724.724,0,0,1,.293-.384c4.728-3.086,10.018-7,10.465-8.042a.725.725,0,0,1,1.4-.293c.131.34,1.1,3.5-4.519,10.4a7.669,7.669,0,0,0,2.169,5.54c2.858,3.292,4.171,4.777,5.338,5.49.153.093.352.2.583.32,1.479.778,4.557,2.4,2.822,6.049a.725.725,0,0,1-.655.414m-4.794-1.45h4.314c.7-1.924-.6-2.8-2.362-3.729-.243-.128-.472-.248-.664-.366-1.351-.826-2.717-2.368-5.677-5.777-3.061-3.525-2.505-6.783-2.48-6.92a.721.721,0,0,1,.153-.329,20.889,20.889,0,0,0,4.191-7.028,49.847,49.847,0,0,1-3.94,3.1c-2.275,1.655-4.6,3.2-5.325,3.68-1.053,4.252,5.8,10.635,8.714,12.876a4.384,4.384,0,0,1,2.673,2.136,4.319,4.319,0,0,1,.4,2.356M221.57,248.3h0" transform="translate(-149.484 -175.825)"/><path class="n" d="M249.871,325.05l-5.084.874s3.715.874,2.542,4.565H253s1.906-3.788-3.129-5.439" transform="translate(-173.793 -230.951)"/><path class="m" d="M251.229,329.439h-5.671a.725.725,0,0,1-.691-.945,2.785,2.785,0,0,0-.084-2.258,3.381,3.381,0,0,0-1.936-1.382.725.725,0,0,1,.046-1.419l5.084-.874a.725.725,0,0,1,.349.026A5.53,5.53,0,0,1,252,325.512a4.551,4.551,0,0,1-.126,3.528.724.724,0,0,1-.647.4m-4.761-1.45h4.257a2.948,2.948,0,0,0-.068-1.933,4.076,4.076,0,0,0-2.615-2.035l-2.832.487a3.868,3.868,0,0,1,.83,1,3.822,3.822,0,0,1,.428,2.476" transform="translate(-172.022 -229.176)"/><path class="o" d="M325.417,34.138s-6.844-8.628-15.839-4.354-6.746,15.426-6.746,15.426l.766,6.331v.874s4.709-18.551,19.473-16.706c0,0,1.766-1.282,2.346-1.57" transform="translate(-214.826 -20.475)"/><path class="m" d="M301.141,56.438V49.827l-.758-6.264c-.128-.7-2-11.844,7.152-16.19,9.408-4.468,16.646,4.468,16.718,4.559l.556.7-.8.4c-.383.19-1.579,1.026-2.243,1.508l-.232.168-.284-.036c-5.82-.728-10.72,1.735-14.563,7.32a31.323,31.323,0,0,0-4.117,8.845Zm11.806-28.881a11.058,11.058,0,0,0-4.789,1.125c-8.386,3.984-6.368,14.521-6.347,14.627l.009.057.463,3.833a31.827,31.827,0,0,1,3.184-6c4.056-5.914,9.474-8.678,15.675-8,.323-.232.91-.647,1.428-.988-1.318-1.4-4.885-4.654-9.624-4.654" transform="translate(-213.094 -18.72)"/><path class="o" d="M280.488,76.183a57.73,57.73,0,0,0,0-17.385c-1.467-9.421,8.238-10.4,8.238-10.4s-2.188,3.022-1.938,10.209,1.015,7.867,1.015,7.867-2.917,9.518-7.316,9.712" transform="translate(-199.033 -34.532)"/><path class="m" d="M277.832,74.783l.164-.9a57.539,57.539,0,0,0,0-17.143,9.275,9.275,0,0,1,1.572-7.369c2.591-3.354,7.119-3.848,7.31-3.868l1.608-.163-.948,1.309c-.018.026-2.037,2.966-1.8,9.759.2,5.758.733,7.176.845,7.415l.276.245-.137.445c-.314,1.024-3.2,10.014-7.977,10.225Zm7.786-27.543a9.3,9.3,0,0,0-4.912,3.03,7.891,7.891,0,0,0-1.28,6.251,59.273,59.273,0,0,1,.163,16.56c2.668-1.114,4.865-6.283,5.653-8.7-.6-1.376-.853-4.951-.956-7.916a22.174,22.174,0,0,1,1.332-9.224" transform="translate(-197.254 -32.367)"/><path class="l" d="M349.952,191.521s7.923,3.705,7.923,8.562-2.444,4.759-2.444,5.73,3.911,7.673,3.911,7.673,2.59-.319,3.544-3.948.4-11.506-1.071-13.068a14.282,14.282,0,0,0-11.863-4.949" transform="translate(-248.457 -136.136)"/><path class="m" d="M357.567,212.437a.725.725,0,0,1-.626-.36c-1.5-2.566-4.01-7.023-4.01-8.038a1.74,1.74,0,0,1,.812-1.325c.65-.552,1.632-1.386,1.632-4.405,0-4.336-7.43-7.87-7.506-7.9a.725.725,0,0,1,.276-1.381,14.964,14.964,0,0,1,12.4,5.156c1.744,1.849,2.249,10.02,1.264,13.77-1.066,4.057-4.031,4.467-4.156,4.483a.706.706,0,0,1-.089.006m-3.177-8.353a54.16,54.16,0,0,0,3.523,6.78,4.452,4.452,0,0,0,2.5-3.284c.969-3.685.25-11.17-.9-12.386a13.6,13.6,0,0,0-8.374-4.592c2.445,1.6,5.686,4.359,5.686,7.706,0,3.691-1.342,4.83-2.144,5.511a3.864,3.864,0,0,0-.292.264" transform="translate(-246.683 -134.362)"/><path class="n" d="M243.115,99.663l4.791,6.507s3.617,1.262,3.422-7.09c0,0-1.466-8.644-1.466-10.878s-3.031-7.284-9.093-8.838A4.024,4.024,0,0,1,239.3,74.9c.978-2.72-2.835-9.13-2.738-10s0-6.6.684-6.7c0,0,1.564,4.37,7.626,5.245a4.129,4.129,0,0,1,2.836,2.331c.978,2.039,5.28,2.622,6.355,1.457s3.031-3.4-2.151-9.907a8.619,8.619,0,0,0-5.182-8.838s-1.271-.874.293-2.817a13.17,13.17,0,0,0,2.249-4.079c.1-.291-5.964.486-9.386,3.5,0,0-9.973-.874-13.688,4.856s-6.8,15.275-7.43,16.414c-.444.8-2.053,5.536-6.844,6.507s-12.808-1.457-18.283,2.72-8.506,10.878-8.115,15.54a29.607,29.607,0,0,0,3.129,11.073c1.564,3.3-.782,7.187-.782,7.187s-1.467,1.943.782,6.8,4.3,3.788,5.768,13.209h10.266s2.053-2.331-2.053-4.565c0,0-11.146-7.867-9-13.986,0,0,10.657-6.993,11.146-9.421,0,0,15.546-2.039,22.585-13.209,0,0,5.866-3.456,8.506-2.748s8.506,2.845,9.679,6.245-2.444,7.964-2.444,7.964" transform="translate(-131.697 -29.655)"/><path class="m" d="M202.92,128.372H192.654a.725.725,0,0,1-.717-.613c-.947-6.086-2.108-7.613-3.451-9.381a17.99,17.99,0,0,1-2.258-3.635c-2.258-4.876-1-7.1-.734-7.5.164-.285,2.059-3.69.736-6.483a30.2,30.2,0,0,1-3.2-11.322c-.383-4.564,2.378-11.586,8.4-16.177,3.839-2.929,8.728-2.787,13.04-2.66a26.378,26.378,0,0,0,5.539-.193c3.876-.786,5.51-4.338,6.125-5.675.1-.207.171-.369.228-.472.141-.256.508-1.22.933-2.336,1.309-3.438,3.745-9.837,6.524-14.122,3.575-5.513,12.271-5.31,14.052-5.205,3.285-2.706,9.159-3.953,10.019-3.383a.751.751,0,0,1,.3.861l-.009.028a14.12,14.12,0,0,1-2.362,4.276,2.152,2.152,0,0,0-.615,1.4.6.6,0,0,0,.152.348,9.361,9.361,0,0,1,5.534,9.231c4.744,6.058,3.648,8.77,1.937,10.623a4.124,4.124,0,0,1-3.58.745c-1.469-.22-3.281-.962-3.961-2.381a3.4,3.4,0,0,0-2.3-1.929,10.5,10.5,0,0,1-7.267-4.079c-.1,1.148-.131,2.674-.148,3.417-.016.674-.027,1.172-.052,1.438a16.365,16.365,0,0,0,.762,1.912c1.137,2.609,2.7,6.181,1.933,8.3a3.225,3.225,0,0,0,1.112,3.559c6.318,1.689,9.49,6.984,9.49,9.5,0,2.148,1.442,10.671,1.457,10.757a.744.744,0,0,1,.01.1c.09,3.834-.6,6.314-2.05,7.369a2.664,2.664,0,0,1-2.336.423.727.727,0,0,1-.345-.255l-4.791-6.507a.726.726,0,0,1,.015-.88c.034-.043,3.356-4.3,2.327-7.278-1-2.886-6.24-4.992-9.182-5.781-1.867-.5-6.124,1.619-7.8,2.585-6.6,10.292-19.964,12.906-22.579,13.327-1.367,2.7-8.97,7.853-11.056,9.231-1.546,5.356,8.133,12.448,8.769,12.906,1.682.924,2.645,2.01,2.861,3.228a3.057,3.057,0,0,1-.649,2.431.725.725,0,0,1-.544.246m-9.649-1.45h9.259a1.551,1.551,0,0,0,.152-.992c-.143-.754-.891-1.519-2.162-2.21a.75.75,0,0,1-.071-.045c-.474-.334-11.567-8.258-9.261-14.819a.725.725,0,0,1,.286-.366c4.32-2.835,10.537-7.489,10.833-8.958a.725.725,0,0,1,.616-.576c.152-.02,15.3-2.133,22.066-12.877a.73.73,0,0,1,.245-.238c.627-.37,6.211-3.587,9.062-2.824,1.447.388,8.737,2.536,10.176,6.709,1.074,3.111-1.313,6.909-2.228,8.2l4.305,5.848a1.273,1.273,0,0,0,.853-.271c.575-.436,1.522-1.808,1.43-6.092-.134-.794-1.468-8.745-1.468-10.947,0-1.692-2.542-6.6-8.548-8.136a.725.725,0,0,1-.242-.113,4.69,4.69,0,0,1-1.727-5.3c.568-1.578-.976-5.117-1.9-7.232-.662-1.519-.929-2.153-.878-2.608.021-.189.034-.756.048-1.355.112-4.845.323-5.851,1.255-5.983a.726.726,0,0,1,.785.474c.059.159,1.525,3.975,7.047,4.771a4.848,4.848,0,0,1,3.386,2.735,3.8,3.8,0,0,0,2.869,1.573,3.1,3.1,0,0,0,2.3-.295c.929-1.007,2.658-2.881-2.186-8.964a.726.726,0,0,1-.15-.555,7.84,7.84,0,0,0-4.761-8.074.687.687,0,0,1-.114-.064,2.007,2.007,0,0,1-.778-1.327,3.345,3.345,0,0,1,.918-2.542,12.944,12.944,0,0,0,1.753-2.884c-1.758.265-5.515,1.249-7.846,3.3a.722.722,0,0,1-.542.178c-.1-.008-9.585-.765-13.017,4.528-2.694,4.156-5.1,10.461-6.385,13.849-.56,1.47-.837,2.191-1.019,2.521-.046.082-.1.212-.18.377-.7,1.52-2.557,5.558-7.154,6.49a27.238,27.238,0,0,1-5.87.222c-4.072-.12-8.687-.253-12.118,2.364-5.544,4.229-8.173,10.835-7.832,14.9a28.89,28.89,0,0,0,3.061,10.823c1.711,3.613-.713,7.7-.817,7.872-.013.021-.027.042-.042.062,0,0-1.131,1.755.861,6.057a16.536,16.536,0,0,0,2.1,3.367c1.356,1.785,2.64,3.473,3.631,9.421" transform="translate(-129.925 -27.919)"/><path class="o" d="M136.51,184.2s-15.252-2.234-15.839,16.609-2.835,16.317-5.475,17.483,6.55.51,9.728-1.476c3.815-2.384,6.4-7.557,6.4-15.424s2.279-12.044,3.975-12.044a41.311,41.311,0,0,0,1.207-5.148" transform="translate(-81.453 -130.889)"/><path class="m" d="M114.174,217.788a3.534,3.534,0,0,1-1.522-.219.83.83,0,0,1-.424-.768c.035-.581.62-.839.9-.963a7.213,7.213,0,0,1,1.212-.385c1.72-.427,3.345-.832,3.831-16.457.2-6.432,2.094-11.193,5.627-14.152a15.107,15.107,0,0,1,11.041-3.151l.62.091v.627a37.142,37.142,0,0,1-1.236,5.349l-.151.524h-.545c-.925,0-3.25,3.367-3.25,11.318,0,7.625-2.4,13.321-6.745,16.039-2.07,1.294-6.82,2.147-9.36,2.147m19.125-34.73a13.472,13.472,0,0,0-8.582,2.909c-3.195,2.683-4.909,7.082-5.1,13.075-.387,12.428-1.455,15.882-3.241,17.133a18.571,18.571,0,0,0,6.385-1.764c3.91-2.443,6.063-7.7,6.063-14.809,0-7.6,2.033-11.992,4.126-12.675.346-1.228.782-2.887.966-3.855-.179-.008-.388-.014-.622-.014" transform="translate(-79.678 -129.104)"/><path class="p" d="M396.824,45.583l16.425-7.867L401.32,49.994s-2.541-4.411-4.5-4.411" transform="translate(-281.735 -26.951)"/><path class="m" d="M399.545,48.944a.716.716,0,0,1-.09-.006.725.725,0,0,1-.539-.357c-.942-1.633-2.823-4.048-3.868-4.048a.725.725,0,0,1-.313-1.379l16.425-7.867a.725.725,0,0,1,.834,1.159L400.065,48.724a.726.726,0,0,1-.52.22m-2.735-5.176a12.957,12.957,0,0,1,2.864,3.277l8.448-8.695Z" transform="translate(-279.96 -25.176)"/><path class="m" d="M381.886,77.652c.968.813,1.363,1.928.884,2.492s-1.653.361-2.62-.452-1.364-1.928-.884-2.492,1.653-.361,2.62.452" transform="translate(-269.125 -54.757)"/><path class="m" d="M380.187,79.407a3.674,3.674,0,0,1-2.278-.945,3.553,3.553,0,0,1-1.339-2.271,1.662,1.662,0,0,1,.369-1.246c.761-.894,2.325-.737,3.639.366h0a3.551,3.551,0,0,1,1.339,2.271,1.659,1.659,0,0,1-.37,1.246,1.728,1.728,0,0,1-1.361.579m-1.9-3.588a.331.331,0,0,0-.241.066.29.29,0,0,0-.028.185,2.183,2.183,0,0,0,.827,1.282c.747.627,1.479.682,1.6.537a.285.285,0,0,0,.029-.185,2.181,2.181,0,0,0-.827-1.282,2.312,2.312,0,0,0-1.361-.6" transform="translate(-267.35 -52.972)"/><path class="a" d="M384.272,80.468a.82.82,0,0,1,.156,1.151.833.833,0,0,1-1.169.039.82.82,0,0,1-.156-1.151.833.833,0,0,1,1.168-.039" transform="translate(-271.873 -57.148)"/><path class="n" d="M222.335,328.063h-9.171l.959,4.565h10.755s1.369-2.185-2.542-4.565" transform="translate(-151.341 -233.09)"/><path class="m" d="M223.1,331.579H212.348a.725.725,0,0,1-.71-.576l-.959-4.565a.725.725,0,0,1,.71-.874h9.171a.724.724,0,0,1,.377.106,6,6,0,0,1,3.035,3.474,2.842,2.842,0,0,1-.255,2.1.725.725,0,0,1-.614.34m-10.166-1.45h9.656c.087-.557-.066-1.738-2.238-3.115h-8.072Z" transform="translate(-149.567 -231.316)"/><path class="n" d="M386.347,229.4a20.377,20.377,0,0,1-2,3.459l4.791,6.507s2.52,1.242,3.362-4.721Z" transform="translate(-272.879 -163.043)"/><path class="m" d="M387.917,238.426a2.077,2.077,0,0,1-.871-.183.728.728,0,0,1-.263-.22l-4.791-6.508a.725.725,0,0,1,.019-.885,19.728,19.728,0,0,0,1.9-3.3.725.725,0,0,1,1.131-.252l6.156,5.245a.726.726,0,0,1,.248.653c-.393,2.784-1.218,4.526-2.452,5.178a2.287,2.287,0,0,1-1.077.274m-.109-1.456a.863.863,0,0,0,.537-.116c.422-.24,1.173-1.038,1.606-3.692l-5.135-4.375a20.092,20.092,0,0,1-1.338,2.3Z" transform="translate(-271.104 -161.268)"/><path class="n" d="M370.792,233.309l5.506,6.342s-1.246,3.7-3.543,3.948l-3.911-7.673a14.913,14.913,0,0,0,1.949-2.617" transform="translate(-261.869 -165.817)"/><path class="m" d="M370.978,242.55a.725.725,0,0,1-.646-.4l-3.911-7.673a.726.726,0,0,1,.106-.813,13.684,13.684,0,0,0,1.8-2.358.725.725,0,0,1,1.237-.251l5.506,6.342a.725.725,0,0,1,.14.706c-.057.169-1.426,4.149-4.155,4.437a.754.754,0,0,1-.077,0m-3.041-8.289,3.426,6.723c1.1-.456,1.945-2.019,2.329-2.957l-4.565-5.258c-.376.53-.849,1.1-1.19,1.492" transform="translate(-260.095 -164.043)"/><g class="q" transform="translate(0 74.465)"><g class="k"><path class="h" d="M95.771,284.228s-2.1-21.212-22.472-17.642c0,0-4.831-19.322-19.742-18.482S33.6,257.975,33.6,261.755c0,0-13.231-.42-15.331,11.341,0,0-11.341-2.73-18.272,9.031Z" transform="translate(-0.001 -248.077)"/></g></g><path class="r" d="M441.816,58.4s4.483-.416,5.23-3.944c0,0,1.4,3.664,4.39,3.944,0,0-5.323,3.082-4.81,5.51,0,0-.7-4.483-4.809-5.51" transform="translate(-313.679 -38.835)"/><path class="m" d="M444.85,62.859a.725.725,0,0,1-.709-.575c-.009-.043-.017-.085-.023-.127-.119-.61-.929-4-4.253-4.829a.725.725,0,0,1,.108-1.425c.063-.006,3.965-.427,4.589-3.372a.725.725,0,0,1,1.387-.109c.012.031,1.283,3.247,3.78,3.481a.725.725,0,0,1,.3,1.349c-1.988,1.153-4.653,3.342-4.475,4.667.01.055.016.09.018.1a.725.725,0,0,1-.585.825.709.709,0,0,1-.132.012m-2.578-6.05a7.353,7.353,0,0,1,2.549,2.975,12.632,12.632,0,0,1,3.115-2.917,6.876,6.876,0,0,1-2.576-2.461,6.107,6.107,0,0,1-3.088,2.4" transform="translate(-311.904 -37.061)"/><path class="r" d="M458.4,38.294s3.314-.308,3.867-2.916c0,0,1.036,2.709,3.245,2.916,0,0-3.936,2.278-3.556,4.074,0,0-.518-3.314-3.556-4.074" transform="translate(-325.452 -25.291)"/><path class="m" d="M460.179,41.318a.725.725,0,0,1-.709-.575c-.007-.033-.013-.066-.018-.1a4.372,4.372,0,0,0-3-3.421.725.725,0,0,1,.107-1.425c.028,0,2.793-.3,3.227-2.344a.725.725,0,0,1,1.387-.109c.008.021.909,2.291,2.635,2.453a.725.725,0,0,1,.3,1.349c-1.436.833-3.325,2.412-3.217,3.256.008.041.012.068.014.079a.725.725,0,0,1-.717.837M458.661,36.7a5.626,5.626,0,0,1,1.527,1.806,9.714,9.714,0,0,1,1.921-1.785,5.3,5.3,0,0,1-1.55-1.5,4.658,4.658,0,0,1-1.9,1.48" transform="translate(-323.677 -23.516)"/><path class="r" d="M233.555,108.959s2.878-.267,3.358-2.532c0,0,.9,2.352,2.818,2.532,0,0-3.418,1.979-3.088,3.538a4.5,4.5,0,0,0-3.088-3.538" transform="translate(-165.818 -75.734)"/><path class="m" d="M234.868,111.448a.725.725,0,0,1-.709-.575c-.006-.03-.012-.059-.017-.089a3.7,3.7,0,0,0-2.538-2.9.725.725,0,0,1,.107-1.425c.046,0,2.358-.262,2.718-1.961a.725.725,0,0,1,1.386-.109c.007.017.769,1.934,2.209,2.069a.725.725,0,0,1,.3,1.349c-1.379.8-2.825,2.1-2.748,2.73.007.036.011.059.012.068a.725.725,0,0,1-.717.837m-1.138-4.088a4.98,4.98,0,0,1,1.16,1.382,8.6,8.6,0,0,1,1.486-1.377,4.728,4.728,0,0,1-1.18-1.149,4.126,4.126,0,0,1-1.466,1.145" transform="translate(-164.044 -73.959)"/><path class="r" d="M216.983,77.774s4.483-.416,5.23-3.943c0,0,1.4,3.664,4.389,3.943,0,0-5.323,3.082-4.809,5.51,0,0-.7-4.483-4.81-5.51" transform="translate(-154.053 -52.592)"/><path class="m" d="M220.017,82.234a.725.725,0,0,1-.709-.575c-.009-.043-.017-.085-.023-.128-.12-.61-.93-4-4.253-4.829a.725.725,0,0,1,.108-1.425c.063-.006,3.965-.427,4.588-3.372a.725.725,0,0,1,1.387-.109c.012.031,1.283,3.247,3.78,3.481a.725.725,0,0,1,.3,1.349c-1.988,1.153-4.653,3.342-4.475,4.666.01.055.016.09.018.1a.725.725,0,0,1-.585.825.7.7,0,0,1-.132.012m-2.579-6.05a7.351,7.351,0,0,1,2.549,2.975,12.626,12.626,0,0,1,3.115-2.917,6.875,6.875,0,0,1-2.576-2.461,6.106,6.106,0,0,1-3.088,2.4" transform="translate(-152.278 -50.816)"/><path class="r" d="M311.487,190.192s4.483-.416,5.23-3.944c0,0,1.4,3.664,4.389,3.944,0,0-5.323,3.082-4.81,5.51,0,0-.7-4.483-4.809-5.51" transform="translate(-221.148 -132.405)"/><path class="m" d="M314.52,194.652a.725.725,0,0,1-.709-.575c-.009-.043-.017-.085-.023-.128-.12-.611-.93-4-4.253-4.829a.725.725,0,0,1,.108-1.425c.063-.006,3.965-.427,4.589-3.372a.725.725,0,0,1,1.387-.109c.012.031,1.283,3.247,3.78,3.481a.725.725,0,0,1,.3,1.349c-1.988,1.153-4.652,3.342-4.475,4.667.01.055.016.09.018.1a.725.725,0,0,1-.585.825.709.709,0,0,1-.132.012m-2.578-6.05a7.353,7.353,0,0,1,2.549,2.975,12.632,12.632,0,0,1,3.115-2.917,6.876,6.876,0,0,1-2.576-2.461,6.106,6.106,0,0,1-3.088,2.4" transform="translate(-219.372 -130.63)"/><path class="r" d="M335.729,213.586s3.286-.305,3.834-2.891c0,0,1.027,2.686,3.217,2.891,0,0-3.9,2.259-3.526,4.039,0,0-.513-3.286-3.526-4.039" transform="translate(-238.359 -149.762)"/><path class="m" d="M337.479,216.576a.725.725,0,0,1-.709-.575c-.007-.033-.013-.066-.018-.1a4.33,4.33,0,0,0-2.974-3.387.725.725,0,0,1,.107-1.425c.031,0,2.765-.3,3.194-2.32a.725.725,0,0,1,1.386-.109c.008.021.9,2.268,2.608,2.428a.725.725,0,0,1,.3,1.349c-1.422.825-3.294,2.388-3.187,3.222.008.041.012.068.014.078a.725.725,0,0,1-.585.825.7.7,0,0,1-.132.012m-1.493-4.586a5.587,5.587,0,0,1,1.5,1.779,9.647,9.647,0,0,1,1.893-1.759,5.27,5.27,0,0,1-1.526-1.478,4.627,4.627,0,0,1-1.869,1.458" transform="translate(-236.584 -147.987)"/><path class="r" d="M266.734,284.251s4.483-.416,5.23-3.944c0,0,1.4,3.664,4.389,3.944,0,0-5.323,3.082-4.81,5.51,0,0-.7-4.483-4.809-5.51" transform="translate(-189.375 -199.185)"/><path class="m" d="M269.768,288.712a.725.725,0,0,1-.709-.575c-.009-.043-.017-.085-.023-.128-.12-.61-.929-4-4.253-4.829a.725.725,0,0,1,.107-1.425c.04,0,3.963-.418,4.589-3.372a.725.725,0,0,1,1.387-.109c.012.031,1.283,3.247,3.78,3.481a.725.725,0,0,1,.3,1.349c-1.988,1.153-4.653,3.342-4.475,4.667.01.055.016.09.018.1a.725.725,0,0,1-.585.825.7.7,0,0,1-.132.012m-2.579-6.05a7.353,7.353,0,0,1,2.549,2.975,12.622,12.622,0,0,1,3.115-2.917,6.875,6.875,0,0,1-2.576-2.461,6.107,6.107,0,0,1-3.088,2.4" transform="translate(-187.599 -197.41)"/><path class="r" d="M291.659,311.785a3.664,3.664,0,0,0,3.126-2.9s.837,2.693,2.624,2.9c0,0-3.182,2.266-2.875,4.051,0,0-.419-3.3-2.875-4.051" transform="translate(-207.071 -219.475)"/><path class="m" d="M292.759,314.787a.725.725,0,0,1-.713-.6c0-.027-.009-.053-.012-.079-.061-.376-.532-2.839-2.362-3.4a.725.725,0,0,1,.128-1.413,2.925,2.925,0,0,0,2.5-2.3.725.725,0,0,1,1.407-.092c.2.623.942,2.271,2.015,2.394a.725.725,0,0,1,.338,1.31c-1.148.82-2.688,2.368-2.588,3.292.006.04.01.067.011.077a.725.725,0,0,1-.612.809.716.716,0,0,1-.108.008m-1.148-4.607a5.318,5.318,0,0,1,1.182,1.6,9.707,9.707,0,0,1,1.446-1.578,4.7,4.7,0,0,1-1.182-1.313,4.283,4.283,0,0,1-1.447,1.287" transform="translate(-205.297 -217.701)"/></g></g></g></g></svg>