<svg xmlns="http://www.w3.org/2000/svg" xmlns:xlink="http://www.w3.org/1999/xlink" width="148" height="107" viewBox="0 0 148 107"><defs><style>.a{fill:none;}.b{clip-path:url(#a);}.c{fill:#e20a1f;}.d{fill:#f48863;}.d,.e{opacity:0.4;}.e{fill:#fbbc75;}.f{fill:#efea41;}.g{fill:#29266f;}.h{fill:#f4b41b;}.i{fill:#35b44a;}.j{fill:#38f253;}</style><clipPath id="a"><rect class="a" width="148" height="107" rx="8" transform="translate(0.188 0.178)"/></clipPath></defs><g transform="translate(-0.188 -0.178)"><g class="b" transform="translate(0 0)"><rect class="c" width="170.356" height="121.022" rx="8" transform="translate(-10.963 -6.71)"/><path class="d" d="M1114.96,73.224l25.927,14.72L1103.3,225.228l-132.635-25.9Z" transform="translate(-987.244 -100.115)"/><path class="e" d="M1016.969,93.534l-24.862,14.115,38.838,136.572L1159,220.92Z" transform="translate(-994.596 -107.079)"/><g transform="translate(24.853 12.339)"><path class="f" d="M1052.494,134.716l5.754,9.837a6.01,6.01,0,0,1-1.128,5.284c-2.02,2.536-10.167,9.638-10.441,16.01s.129,5.81.129,5.81l15.757,30.238s3.827,4.067,5.351,4.172,6.01,2.635,18.55.143c0,0,3.594-.218,5.318,2.65s4.931,10.132,4.931,10.132-.335,3.606-3.966,2.164c0,0-4.4-5.023-8.165-6.185a20.265,20.265,0,0,0-5.7-1.119s-6.871,2.228-10.889,2.04-16.637-1.292-24.223-18.84c0,0,7.517-4.318,4.525-8.128s-8.267,1.706-8.267,1.706-9.6-14.735-2.818-27.2c0,0,1.961-5.164,8.212-10.424,0,0,4.593-5.084,3.616-11.706l-.246-4.842S1049.26,132.435,1052.494,134.716Z" transform="translate(-1034.085 -133.3)"/><path class="g" d="M1093.941,221.84a4.978,4.978,0,0,1-1.823-.392l-.16-.064-.114-.129c-.043-.049-4.314-4.885-7.838-5.974a21.434,21.434,0,0,0-5.381-1.086c-.945.3-7.167,2.22-11.029,2.038-11.027-.515-19.619-7.179-24.846-19.269l-.253-.585.553-.318c1.2-.691,4.4-2.959,4.824-5.129a2.292,2.292,0,0,0-.5-1.939,2.526,2.526,0,0,0-1.924-1.064c-2.418-.128-5.236,2.794-5.265,2.824l-.624.649-.491-.754a37.931,37.931,0,0,1-4.039-9.113c-2.08-7.028-1.675-13.52,1.17-18.782.227-.573,2.317-5.535,8.359-10.634.373-.435,4.286-5.159,3.411-11.09l-.007-.068-.248-4.9.007-.058c.026-.227.3-2.237,1.745-2.884a3.086,3.086,0,0,1,3.075.643l.126.089,5.872,10.038.024.074a6.7,6.7,0,0,1-1.249,5.95c-.428.537-1.079,1.228-1.9,2.1-3.057,3.245-8.174,8.675-8.381,13.491a38.8,38.8,0,0,0-.031,5.295l.08.154,15.711,30.149c1.742,1.839,4.054,3.826,4.813,3.878a7.615,7.615,0,0,1,1.322.284c2.267.606,6.989,1.868,17.039-.129l.1-.012c.164-.011,4.048-.208,5.974,3,1.728,2.873,4.84,9.914,4.972,10.212l.075.17-.018.185a3.865,3.865,0,0,1-1.573,2.735A2.9,2.9,0,0,1,1093.941,221.84Zm-1.141-1.662a2.242,2.242,0,0,0,1.933.029,2.278,2.278,0,0,0,.877-1.489c-.517-1.162-3.278-7.323-4.805-9.863a5.376,5.376,0,0,0-4.621-2.306c-10.34,2.047-15.264.73-17.632.1a7.23,7.23,0,0,0-1.051-.238c-1.674-.115-4.881-3.393-5.823-4.4l-.068-.072-.046-.088-15.626-29.988c-.388-.266-.565-1.168-.339-6.42.23-5.347,5.575-11.02,8.769-14.409.77-.818,1.436-1.524,1.827-2.015a5.308,5.308,0,0,0,1.026-4.555l-5.629-9.623c-.481-.32-1.1-.618-1.542-.422-.576.256-.842,1.281-.9,1.693l.241,4.742c.995,6.859-3.6,12.037-3.8,12.255l-.07.068c-6.014,5.062-7.984,10.082-8,10.132l-.04.087c-5.651,10.39.573,22.632,2.347,25.732,1.113-.982,3.439-2.738,5.692-2.626a3.927,3.927,0,0,1,2.98,1.609,3.693,3.693,0,0,1,.783,3.1c-.511,2.631-3.67,4.916-4.967,5.755,3.56,7.941,10.464,17.243,23.353,17.845,3.829.177,10.568-1.985,10.635-2.007l.1-.033.1,0a20.694,20.694,0,0,1,5.926,1.151C1088.031,215.029,1092.044,219.341,1092.8,220.178Z" transform="translate(-1033.717 -132.926)"/><g transform="translate(22.401 16.209)"><rect class="g" width="1.429" height="63.554" transform="matrix(0.887, -0.462, 0.462, 0.887, 0, 0.66)"/></g><g transform="translate(1.693 1.714)"><path class="h" d="M1052.4,136.386a30.7,30.7,0,0,0,.152,6.854c.472,4.92-1.489,10.1-4.449,12.347a31.63,31.63,0,0,0-9.2,13.595c-1.695,5.487,2.314,17.751,3.9,18.91l-1.939,1.5s-1.955-3.9-2.725-5.857-2.262-8.409-1.726-12.315a25.793,25.793,0,0,1,4.581-11.1,66.257,66.257,0,0,1,6.337-6.785s3.063-4.635,3.111-7.179a24.464,24.464,0,0,0,.243-3.119c-.069-.777-.376-5.255-.376-5.255s0-2.367.828-2.437S1052.4,136.386,1052.4,136.386Z" transform="translate(-1036.294 -135.534)"/></g><g transform="translate(10.962 62.572)"><path class="h" d="M1052.49,228.152l-2.091,1.655s3.426,7.034,6.445,9.77,5.138,4.661,8.592,5.934a33.7,33.7,0,0,0,7.147,1.659,39.124,39.124,0,0,0,11.529-2.021,18.152,18.152,0,0,1,6.934,1.4s3.886,2.042,5.324,3.722c0,0,2.124,2.133,2.335,2.284s2.242.469,2.26-1.036c0,0-6.663-7.9-13.051-8.067s-10.282,2.1-14.39,1.72-11.785-2.489-15.575-7.18A34.592,34.592,0,0,1,1052.49,228.152Z" transform="translate(-1050.399 -228.152)"/></g><g transform="translate(9.837 63.44)"><path class="g" d="M1061.444,246a3.781,3.781,0,0,1-2.34-.794,4.185,4.185,0,0,1-1.465-3.594c.114-1.485,1.005-3.673,4.6-5.661l.691,1.251c-3.042,1.68-3.784,3.385-3.871,4.52a2.767,2.767,0,0,0,.915,2.354c1.54,1.191,3.594-.065,4.681-.919,2.9-2.279,3.437-5.263,1.589-8.869-1.9-3.711-13.231-3.565-17.437-3.2l-.125-1.423c1.646-.145,16.154-1.264,18.834,3.968,2.141,4.181,1.438,7.961-1.979,10.645A6.745,6.745,0,0,1,1061.444,246Z" transform="translate(-1048.687 -229.473)"/></g><g transform="translate(0.182 35.115)"><path class="g" d="M1040.095,208.95l-1.059-.959c2.833-3.13,9.788-12.075,7.976-15.831-1.76-3.65-4.462-5.024-8.031-4.086-1.338.352-3.579,1.232-3.559,3.177a2.768,2.768,0,0,0,1.325,2.151c.957.615,2.764,1.053,5.939-.358l.58,1.306c-3.757,1.67-6.04,1.059-7.293.254a4.181,4.181,0,0,1-1.981-3.337c-.012-1.25.572-3.508,4.624-4.573,4.2-1.1,7.641.617,9.681,4.848C1050.854,196.835,1041.2,207.726,1040.095,208.95Z" transform="translate(-1033.994 -186.366)"/></g></g><g transform="translate(74.468 3.646)"><g transform="translate(33.89 2.644)"><g transform="translate(3.018 5.992)"><path class="i" d="M1166.479,145.724l8.227-11.8,6.271.949-8.213,11.8Z" transform="translate(-1165.764 -133.212)"/><path class="g" d="M1172.39,147.016a.725.725,0,0,1-.106-.008l-6.284-.951a.715.715,0,0,1-.479-1.115l8.226-11.8a.709.709,0,0,1,.693-.3l6.272.949a.714.714,0,0,1,.479,1.114l-8.213,11.8A.715.715,0,0,1,1172.39,147.016Zm-5.04-2.2,4.709.713,7.3-10.492-4.7-.711Z" transform="translate(-1165.391 -132.839)"/></g><path class="i" d="M1169.91,124.807l-8.024,11.936,3.153,5.5,8.03-11.925Z" transform="translate(-1161.172 -124.093)"/><path class="g" d="M1164.666,142.589h-.026a.712.712,0,0,1-.593-.359l-3.153-5.5a.714.714,0,0,1,.027-.754l8.024-11.936a.715.715,0,0,1,1.213.043l3.159,5.515a.714.714,0,0,1-.028.754l-8.03,11.924A.714.714,0,0,1,1164.666,142.589Zm-2.312-6.188,2.362,4.122,7.14-10.6-2.367-4.132Z" transform="translate(-1160.799 -123.72)"/></g><g transform="translate(39.254 12.222)"><g transform="translate(3.749 5.465)"><path class="i" d="M1175.755,159.45l8.3-11.748,6.265.986-8.284,11.75Z" transform="translate(-1175.041 -146.987)"/><path class="g" d="M1181.661,160.78a.7.7,0,0,1-.111-.009l-6.279-.988a.715.715,0,0,1-.472-1.118l8.3-11.748a.715.715,0,0,1,.695-.293l6.265.986a.714.714,0,0,1,.473,1.117l-8.284,11.75A.712.712,0,0,1,1181.661,160.78Zm-5.032-2.23,4.7.741,7.366-10.448-4.692-.739Z" transform="translate(-1174.668 -146.615)"/></g><path class="i" d="M1178.073,139.384l-8.024,11.936,3.153,5.5,8.03-11.925Z" transform="translate(-1169.335 -138.67)"/><path class="g" d="M1172.829,157.166h-.026a.714.714,0,0,1-.594-.358l-3.153-5.5a.714.714,0,0,1,.027-.754l8.024-11.936a.715.715,0,0,1,1.213.043l3.159,5.515a.715.715,0,0,1-.027.754l-8.03,11.924A.714.714,0,0,1,1172.829,157.166Zm-2.312-6.188,2.362,4.122,7.14-10.6-2.367-4.132Z" transform="translate(-1168.962 -138.297)"/></g><g transform="translate(40.098)"><g transform="translate(3.749 5.465)"><path class="j" d="M1177.039,140.849l8.3-11.748,6.265.986-8.284,11.75Z" transform="translate(-1176.325 -128.387)"/><path class="g" d="M1182.945,142.179a.7.7,0,0,1-.111-.009l-6.278-.988a.715.715,0,0,1-.473-1.118l8.3-11.748a.717.717,0,0,1,.695-.293l6.266.986a.714.714,0,0,1,.472,1.117l-8.284,11.75A.713.713,0,0,1,1182.945,142.179Zm-5.032-2.23,4.7.741,7.366-10.448-4.693-.739Z" transform="translate(-1175.952 -128.014)"/></g><path class="j" d="M1179.357,120.783l-8.024,11.936,3.153,5.5,8.03-11.925Z" transform="translate(-1170.619 -120.069)"/><path class="g" d="M1174.113,138.565h-.026a.711.711,0,0,1-.594-.358l-3.153-5.5a.713.713,0,0,1,.027-.754l8.024-11.936a.714.714,0,0,1,1.212.043l3.159,5.515a.715.715,0,0,1-.027.754l-8.031,11.924A.713.713,0,0,1,1174.113,138.565Zm-2.312-6.188,2.361,4.122,7.141-10.6-2.367-4.132Z" transform="translate(-1170.246 -119.697)"/></g><g transform="translate(0 22.405)"><path class="f" d="M1138.464,155.795l-26.618,38.844s-2.941,4.9-.661,9.308,11.768,7.02,17.056,3.864,9.386-6.919,16.154-22.68c0,0,7.707-9.953,7.8-15.5s-8.6-13.81-11.69-14.6C1140.5,155.034,1139.425,154.393,1138.464,155.795Z" transform="translate(-1109.599 -154.169)"/><path class="g" d="M1122.151,209.546a17.518,17.518,0,0,1-4.778-.688c-3.4-.97-6.093-2.823-7.2-4.957-2.436-4.707.553-9.79.682-10l.023-.036,26.618-38.845a2.248,2.248,0,0,1,2.894-1.025c1.754.5,4.736,2.826,7.306,5.708,1.83,2.053,4.891,6.026,4.834,9.571-.09,5.526-7.13,14.858-7.891,15.851-7.053,16.4-11.251,19.851-16.408,22.929A11.918,11.918,0,0,1,1122.151,209.546Zm-10.077-14.9c-.168.293-2.636,4.721-.63,8.6.927,1.791,3.289,3.375,6.32,4.24,3.6,1.026,7.332.773,9.735-.661,4.934-2.944,8.96-6.271,15.864-22.349l.036-.083.056-.072c.076-.1,7.562-9.829,7.648-15.073.084-5.155-8.393-13.19-11.152-13.894l-.1-.026-.089-.053c-.109-.056-.564-.21-1.085.55Z" transform="translate(-1109.223 -153.794)"/></g><g transform="translate(1.359 23.852)"><path class="h" d="M1140.224,156.11s2.128.242,4.546,2.813l-30.419,47.357a7.071,7.071,0,0,1-3.058-5.755,15.1,15.1,0,0,1,1.453-4.832c1.068-1.763,27.086-39.643,27.086-39.643S1139.416,155.895,1140.224,156.11Z" transform="translate(-1111.291 -155.996)"/></g><g transform="translate(31.293 34.186)"><path class="g" d="M1161.957,189.235c-.727-1.045-7.034-10.326-4.522-14.181,2.709-4.158,6.183-3.534,8.013-2.793,2.245.909,3.4,2.4,3.162,4.1a3.372,3.372,0,0,1-1.922,2.465c-1.066.5-2.913.757-5.661-.913l.743-1.221c2.2,1.34,3.557,1.2,4.305.842a1.969,1.969,0,0,0,1.12-1.371c.189-1.359-1.35-2.2-2.283-2.574-2.528-1.025-4.64-.268-6.28,2.248-1.5,2.3,1.963,8.94,4.5,12.585Z" transform="translate(-1156.847 -171.723)"/></g><g transform="translate(24.422 45.749)"><path class="g" d="M1151.5,206.832c-.727-1.045-7.034-10.325-4.522-14.181,2.709-4.158,6.184-3.535,8.013-2.793,2.244.909,3.4,2.4,3.161,4.1a3.369,3.369,0,0,1-1.922,2.465c-1.066.505-2.912.758-5.661-.912l.743-1.222c2.2,1.34,3.558,1.2,4.305.842a1.965,1.965,0,0,0,1.119-1.371c.189-1.359-1.349-2.2-2.283-2.575-2.526-1.024-4.64-.268-6.279,2.249-1.5,2.3,1.963,8.94,4.5,12.585Z" transform="translate(-1146.39 -189.32)"/></g><g transform="translate(16.897 55.992)"><path class="g" d="M1140.047,222.42c-.727-1.045-7.033-10.326-4.521-14.181,2.708-4.158,6.183-3.535,8.013-2.793,2.244.909,3.4,2.4,3.161,4.1a3.368,3.368,0,0,1-1.921,2.465c-1.066.505-2.912.758-5.661-.912l.743-1.221c2.2,1.34,3.558,1.2,4.305.842a1.969,1.969,0,0,0,1.119-1.371c.189-1.359-1.349-2.2-2.283-2.575-2.527-1.024-4.64-.267-6.279,2.249-1.5,2.3,1.962,8.941,4.5,12.585Z" transform="translate(-1134.937 -204.908)"/></g><g transform="translate(7.495 63.896)"><path class="g" d="M1123.44,230.694c-2.731-4.978-3.476-8.484-2.216-10.422,2.709-4.163,6.184-3.536,8.015-2.793,2.244.908,3.4,2.4,3.158,4.1a3.359,3.359,0,0,1-1.917,2.462c-1.066.507-2.914.76-5.662-.912l.743-1.22c2.2,1.34,3.558,1.2,4.306.842a1.965,1.965,0,0,0,1.116-1.369c.19-1.362-1.348-2.2-2.281-2.576-2.527-1.026-4.64-.271-6.279,2.249-.912,1.4-.084,4.665,2.27,8.956Z" transform="translate(-1120.63 -216.938)"/></g><g transform="translate(1.668 62.376)"><path class="g" d="M1115.664,222.109a7.6,7.6,0,0,1-3.9-1.292l.742-1.222c2.205,1.34,3.559,1.2,4.306.844a1.972,1.972,0,0,0,1.12-1.371c.19-1.36-1.348-2.2-2.281-2.575a5.353,5.353,0,0,0-2.4-.43,4.133,4.133,0,0,0-.931.176l-.422-1.365a5.556,5.556,0,0,1,1.25-.236,6.783,6.783,0,0,1,3.038.531c2.244.908,3.4,2.4,3.159,4.1a3.367,3.367,0,0,1-1.923,2.464A4.059,4.059,0,0,1,1115.664,222.109Z" transform="translate(-1111.762 -214.624)"/></g><g transform="translate(44.116 5.783)"><path class="g" d="M1186.815,136.2l-6.7-1.014-3.75-5.924,1.207-.764,3.4,5.373,6.06.917Z" transform="translate(-1176.361 -128.498)"/></g><g transform="translate(42.662 19.242)"><path class="g" d="M1185.37,155.56l-6.523-.987-4.7-4.568,1-1.024,4.368,4.248,6.069.918Z" transform="translate(-1174.149 -148.981)"/></g><g transform="translate(37.988 9.027)"><rect class="g" width="1.429" height="6.763" transform="matrix(0.872, -0.489, 0.489, 0.872, 0, 0.698)"/></g><g transform="translate(34.018 20.405)"><rect class="g" width="5.707" height="1.429" transform="translate(0 4.763) rotate(-56.583)"/></g><g transform="translate(40.55 29.962)"><rect class="g" width="3.427" height="1.429" transform="matrix(0.581, -0.814, 0.814, 0.581, 0, 2.789)"/></g><g transform="translate(36.866 17.767)"><rect class="g" width="12.018" height="1.429" transform="translate(0 10.111) rotate(-57.278)"/></g></g></g></g></svg>