<svg xmlns="http://www.w3.org/2000/svg" xmlns:xlink="http://www.w3.org/1999/xlink" width="149" height="108" viewBox="0 0 149 108"><defs><style>.a{fill:#fff;}.b{clip-path:url(#a);}.c{fill:#29266f;}.d{fill:#663995;}.e{fill:#ffd777;}.f{fill:#9bb9c2;}.g{fill:#4cc7ec;}.h{fill:#3baae0;}.i{fill:none;}</style><clipPath id="a"><rect class="a" width="149" height="108" rx="8" transform="translate(0 0.077)"/></clipPath></defs><g class="b" transform="translate(0 -0.077)"><g transform="translate(-4.93 -1.962)"><path class="c" d="M152.059,114.332H11.641A9.168,9.168,0,0,1,2.5,105.191V11.641A9.168,9.168,0,0,1,11.641,2.5H152.059a9.168,9.168,0,0,1,9.141,9.141v93.55a9.168,9.168,0,0,1-9.141,9.141" transform="translate(-2.5 -2.5)"/><path class="d" d="M381.816,129.472H349.475a3.006,3.006,0,0,1-3-3V125.9a3.006,3.006,0,0,1,3-3h32.341a3.006,3.006,0,0,1,3,3v.577a3.006,3.006,0,0,1-3,3" transform="translate(-243.479 -84.848)"/><path class="d" d="M326.572,131.088H294.231a3.006,3.006,0,0,1-3-3v-.577a3.006,3.006,0,0,1,3-3h32.341a3.006,3.006,0,0,1,3,3v.577a3.006,3.006,0,0,1-3,3" transform="translate(-203.872 -86.007)"/><path class="d" d="M327.9,115.45H295.559a3.006,3.006,0,0,1-3-3v-.577a3.006,3.006,0,0,1,3-3H327.9a3.006,3.006,0,0,1,3,3v.577a3.006,3.006,0,0,1-3,3" transform="translate(-204.824 -74.795)"/><path class="d" d="M300.2,99.239H267.856a3.006,3.006,0,0,1-3-3v-.577a3.006,3.006,0,0,1,3-3H300.2a3.006,3.006,0,0,1,3,3v.577a3.006,3.006,0,0,1-3,3" transform="translate(-184.962 -63.173)"/><path class="d" d="M99.2,261.781H66.737a2.947,2.947,0,0,1-2.938-2.938v-.566a2.947,2.947,0,0,1,2.938-2.938H99.2a2.947,2.947,0,0,1,2.938,2.938v.566a2.947,2.947,0,0,1-2.938,2.938" transform="translate(-40.811 -179.802)"/><path class="d" d="M78.919,285.768H47.377a3.406,3.406,0,0,1-3.4-3.4v-1.031a3.407,3.407,0,0,1,3.4-3.4H78.919a3.407,3.407,0,0,1,3.4,3.4v1.031a3.406,3.406,0,0,1-3.4,3.4" transform="translate(-26.602 -196.008)"/><path class="d" d="M56.759,307.927H18.421a3.406,3.406,0,0,1-3.4-3.4v-.881a3.406,3.406,0,0,1,3.4-3.4H56.759a3.406,3.406,0,0,1,3.4,3.4v.881a3.406,3.406,0,0,1-3.4,3.4" transform="translate(-5.841 -212.003)"/><path class="d" d="M149.561,202.664H118.019a3.406,3.406,0,0,1-3.4-3.4v-3.517a3.407,3.407,0,0,1,3.4-3.4h31.543a3.407,3.407,0,0,1,3.4,3.4v3.517a3.406,3.406,0,0,1-3.4,3.4" transform="translate(-77.249 -134.644)"/><path class="d" d="M397.161,298H364.517a2.854,2.854,0,0,1-2.846-2.846v-.548a2.854,2.854,0,0,1,2.846-2.846h32.644a2.854,2.854,0,0,1,2.846,2.846v.548A2.854,2.854,0,0,1,397.161,298" transform="translate(-254.372 -205.917)"/><path class="d" d="M49.964,148.59H18.422a3.406,3.406,0,0,1-3.4-3.4v-.684a3.406,3.406,0,0,1,3.4-3.4H49.964a3.406,3.406,0,0,1,3.4,3.4v.684a3.406,3.406,0,0,1-3.4,3.4" transform="translate(-5.842 -97.906)"/><path class="d" d="M90.1,132.315H56.462a3.406,3.406,0,0,1-3.4-3.4v-.684a3.406,3.406,0,0,1,3.4-3.4H90.1a3.406,3.406,0,0,1,3.4,3.4v.684a3.406,3.406,0,0,1-3.4,3.4" transform="translate(-33.115 -86.238)"/><path class="d" d="M114.442,114.757H80.809a3.406,3.406,0,0,1-3.4-3.4v-.684a3.406,3.406,0,0,1,3.4-3.4h33.634a3.406,3.406,0,0,1,3.4,3.4v.684a3.406,3.406,0,0,1-3.4,3.4" transform="translate(-50.571 -73.65)"/><path class="e" d="M334.615,27.249a6.182,6.182,0,1,1-6.182-6.182,6.182,6.182,0,0,1,6.182,6.182" transform="translate(-226.11 -11.839)"/><path class="f" d="M70.893,223.278a.977.977,0,1,1-.977-.977.977.977,0,0,1,.977.977" transform="translate(-44.496 -156.115)"/><path class="f" d="M425.177,347.33a.977.977,0,1,1-.977-.977.977.977,0,0,1,.977.977" transform="translate(-298.503 -245.055)"/><path class="f" d="M112.571,89.108a.977.977,0,1,1-.977-.977.977.977,0,0,1,.977.977" transform="translate(-74.377 -59.921)"/><path class="f" d="M159.5,114.562a.977.977,0,1,1-.977-.977.977.977,0,0,1,.977.977" transform="translate(-108.025 -78.17)"/><path class="f" d="M177.394,33.882a.977.977,0,1,1-.977-.977.977.977,0,0,1,.977.977" transform="translate(-120.852 -20.326)"/><path class="f" d="M218.108,350.781a.977.977,0,1,1-.977-.977.977.977,0,0,1,.977.977" transform="translate(-150.042 -247.529)"/><path class="f" d="M450.043,193.331a.977.977,0,1,1-.977-.977.977.977,0,0,1,.977.977" transform="translate(-316.33 -134.644)"/><path class="c" d="M243.038,153.49a9.015,9.015,0,0,1-3.263-1.213,13.89,13.89,0,0,0-3.35-1.347c-3.434-.509-5.26-.544-7.68.556-.475.216-.955.481-1.419.736-1.364.753-2.542,1.4-3.483.774-.768-.514-.991-1.658-.745-3.826,0-.023.007-.047.012-.07.084-.391,2.125-9.573,7-9.979,4.73-.4,8.521,1.006,12.8,9.188,1.464,2.8,1.751,4.1,1.058,4.811a1.233,1.233,0,0,1-.928.367m-10.189-4.32a26.037,26.037,0,0,1,3.784.361,14.394,14.394,0,0,1,3.77,1.478,12.916,12.916,0,0,0,2.5,1.057,9.825,9.825,0,0,0-1.252-3.1c-3.935-7.523-7.171-8.789-11.43-8.434-3.166.264-5.2,6.432-5.723,8.833-.243,2.178.126,2.452.129,2.454.226.153,1.432-.516,2.012-.836.487-.269.992-.547,1.517-.786a10.845,10.845,0,0,1,4.69-1.029" transform="translate(-154.953 -96.437)"/><path class="g" d="M113.026,120.116s7.71,1.591,12.85-3.3,7.71-9.423,7.71-19.458c0,0-6-1.591-5.018-4.9,0,0-3.182,1.714-3.671,0s0-17.5,0-17.5,2.325-2.447,3.794-2.081a43.263,43.263,0,0,1,4.9,1.958V59.66s.245-10.652,11.626-16.154,23.13,1.958,25.822,7.954,2.815,9.668,2.815,11.5V74.713s4.283-3.06,5.874-2.081,3.182,2.57,3.3,4.283,0,13.829,0,13.829-.123,2.2-1.713,2.448a4.392,4.392,0,0,1-2.937-.735s1.224,2.693-4.406,4.773c0,0,1.645,24.966-25.917,22.273,0,0-22.789,8.444-35.027.612" transform="translate(-76.104 -26.549)"/><path class="h" d="M168.656,97.441c-.273,3.128-2.106,16.579-13.761,23.47a37.5,37.5,0,0,1-6.845-.085s-22.785,8.443-35.024.614c.187.037,7.772,1.528,12.847-3.306,5.14-4.9,7.709-9.423,7.709-19.459,0,0-6-1.592-5.017-4.9,0,0-3.183,1.713-3.671,0s0-17.5,0-17.5,2.325-2.447,3.793-2.08a43.133,43.133,0,0,1,4.9,1.957V60.983s.245-10.652,11.627-16.153A19.21,19.21,0,0,1,158.715,43.6a46.809,46.809,0,0,0-12.654,8.514c-4.146,4.164-4.16,7.348-4.16,15.728s-.491,40.934,0,41.913,1.224,4.16,3.06,1.345,3.943-8.191,5.656-15.908l.136-.612s1.8,14.929-2.855,18.724-5.14,4.528-4.4,5.629,10.524-1.1,15.786-6.241c5.01-4.894,8.912-10.786,9.379-15.249" transform="translate(-76.104 -27.497)"/><path class="c" d="M228.137,81.23c-1.916-.063-3.487,1.468-4.619,6.119s-.031,5.262,1.682,6.486,6.241,0,5.874-5.752-1.023-6.791-2.937-6.853" transform="translate(-154.991 -54.972)"/><path class="c" d="M224.915,93.177a3.307,3.307,0,0,1-1.925-.558l-.153-.109c-1.927-1.37-2.96-2.376-1.8-7.12.709-2.91,2.032-6.756,5.33-6.659,2.672.087,3.271,2.044,3.62,7.515.187,2.929-.84,5.239-2.819,6.339a4.682,4.682,0,0,1-2.248.592m1.308-13.033c-1.082,0-2.615.648-3.816,5.581-.985,4.043-.238,4.574,1.25,5.631l.156.111a2.649,2.649,0,0,0,2.663-.119c.871-.484,2.3-1.778,2.094-5.012-.374-5.858-1.03-6.151-2.254-6.191h0l-.093,0" transform="translate(-153.192 -53.18)"/><path class="c" d="M224.779,151.044s1.958-9.056,6.363-9.423,7.955.857,12.116,8.811-2.447,2.08-5.752,1.591-5.385-.612-8.077.612-5.262,3.794-4.65-1.591" transform="translate(-156.161 -98.23)"/><path class="c" d="M242.223,153.49a9.015,9.015,0,0,1-3.263-1.213,13.89,13.89,0,0,0-3.35-1.347c-3.434-.509-5.26-.544-7.68.556-.475.216-.955.481-1.419.736-1.364.753-2.542,1.4-3.483.774-.768-.514-.991-1.658-.744-3.826l.011-.07c.085-.391,2.125-9.573,7-9.979,4.729-.4,8.521,1.006,12.8,9.188,1.464,2.8,1.751,4.1,1.058,4.811a1.233,1.233,0,0,1-.928.367m-10.189-4.32a26.037,26.037,0,0,1,3.784.361,14.4,14.4,0,0,1,3.77,1.478,12.916,12.916,0,0,0,2.5,1.057,9.824,9.824,0,0,0-1.252-3.1c-3.935-7.523-7.171-8.789-11.43-8.434-3.166.264-5.2,6.432-5.723,8.833-.243,2.178.126,2.452.129,2.454.226.153,1.432-.516,2.012-.836.487-.269.992-.547,1.517-.786a10.845,10.845,0,0,1,4.69-1.029" transform="translate(-154.368 -96.437)"/><path class="d" d="M250.959,156.33c-3.068-.454-5.081-.593-7.508.371a13.4,13.4,0,0,1,7.84-9.109c1.772,1.316,3.533,3.541,5.42,7.148,4.16,7.953-2.448,2.08-5.752,1.59" transform="translate(-169.614 -102.552)"/><path class="c" d="M125.038,122.359c-5.061,0-10.149-.879-14.186-3.463a.708.708,0,0,1,.524-1.289c.11.022,7.428,1.438,12.219-3.124,4.88-4.648,7.4-8.81,7.488-18.422-1.124-.371-3.713-1.388-4.707-3.159a3.192,3.192,0,0,1-.39-1.138,3.816,3.816,0,0,1-2.6.184,1.655,1.655,0,0,1-.966-1.112c-.506-1.768-.078-16.089-.027-17.716a.707.707,0,0,1,.194-.465c.436-.459,2.7-2.723,4.478-2.28a32.5,32.5,0,0,1,4.016,1.549V57.845a20.547,20.547,0,0,1,12.026-16.791,20.088,20.088,0,0,1,15.894-.682c4.9,1.783,9.269,5.394,10.881,8.984,2.877,6.408,2.877,10.321,2.877,11.794V71.583c1.54-.943,4.121-2.241,5.537-1.369.808.5,3.459,2.316,3.639,4.835.123,1.722.007,13.391,0,13.887,0,.011,0,.021,0,.032-.057,1.031-.609,2.845-2.312,3.108a4.616,4.616,0,0,1-2.272-.256,3.256,3.256,0,0,1-.2.681c-.56,1.343-1.988,2.483-4.249,3.393.044,2.245-.208,11.011-6.419,17.028-4.608,4.465-11.381,6.31-20.133,5.486-1.459.527-11.333,3.951-21.315,3.951m-10.326-3.1c12.221,4.716,31.1-2.156,31.3-2.233a.707.707,0,0,1,.314-.04c8.39.819,14.838-.886,19.163-5.07,6.551-6.339,5.986-16.353,5.98-16.453a.709.709,0,0,1,.461-.71c2.64-.975,3.574-2.032,3.893-2.746a1.474,1.474,0,0,0,.107-1.085.7.7,0,0,1,.2-.834A.713.713,0,0,1,177,90.07a3.717,3.717,0,0,0,2.414.607c.952-.147,1.1-1.633,1.113-1.776.006-.573.118-12.118,0-13.751-.1-1.468-1.6-2.89-2.969-3.731-.777-.478-3.457.886-5.092,2.054a.708.708,0,0,1-1.119-.576V61.149c0-1.39,0-5.083-2.753-11.214-1.22-2.716-4.807-6.315-10.075-8.233a18.7,18.7,0,0,0-14.794.626c-10.835,5.238-11.216,15.116-11.227,15.534V73.02a.708.708,0,0,1-1.006.642,42.975,42.975,0,0,0-4.769-1.913c-.674-.167-2.067.853-2.923,1.693-.185,6.085-.348,15.854-.018,17.007a.249.249,0,0,0,.156.2,4.26,4.26,0,0,0,2.5-.625.708.708,0,0,1,1.014.824,1.685,1.685,0,0,0,.155,1.364c.8,1.429,3.423,2.395,4.366,2.646a.708.708,0,0,1,.526.684c0,10.44-2.787,15.073-7.93,19.971a14.66,14.66,0,0,1-9.86,3.749" transform="translate(-74.313 -24.733)"/><path class="d" d="M234.549,94.52c-1.693-.756-2.723-1.395-2.555-5.844.171-4.55,1.294-6.413,3.029-6.862,1.54.246,2.114,1.58,2.446,6.811.219,3.424-1.3,5.242-2.921,5.9" transform="translate(-161.387 -55.391)"/><path class="c" d="M225.73,93.177a3.307,3.307,0,0,1-1.925-.558l-.153-.109c-1.927-1.37-2.96-2.376-1.8-7.12.709-2.91,2.033-6.756,5.33-6.659,2.672.087,3.271,2.044,3.62,7.515.187,2.929-.84,5.239-2.819,6.339a4.683,4.683,0,0,1-2.248.592m1.308-13.033c-1.082,0-2.615.648-3.816,5.581-.985,4.043-.238,4.574,1.25,5.631l.156.111a2.649,2.649,0,0,0,2.663-.119c.871-.484,2.3-1.778,2.094-5.012-.374-5.858-1.03-6.151-2.254-6.191h0l-.093,0" transform="translate(-153.777 -53.18)"/><path class="c" d="M266.807,81.23c1.916-.063,3.487,1.468,4.619,6.119s.031,5.262-1.682,6.486-6.241,0-5.874-5.752,1.023-6.791,2.937-6.853" transform="translate(-184.238 -54.972)"/><path class="c" d="M266.44,93.176a4.679,4.679,0,0,1-2.248-.592c-1.979-1.1-3.006-3.41-2.819-6.338.349-5.471.948-7.429,3.62-7.515l.134,0c3.2,0,4.5,3.791,5.2,6.661,1.156,4.744.122,5.75-1.8,7.12l-.153.109a3.309,3.309,0,0,1-1.925.558m-1.308-13.033-.093,0c-1.224.04-1.88.333-2.254,6.191-.207,3.233,1.223,4.528,2.094,5.012a2.649,2.649,0,0,0,2.663.119l.156-.111c1.488-1.058,2.235-1.589,1.25-5.631-1.2-4.932-2.734-5.581-3.816-5.581" transform="translate(-182.447 -53.179)"/><path class="d" d="M276.413,94.611c1.617-.909,2.582-1.64,2.005-6.055-.59-4.515-1.88-6.267-3.649-6.554-1.511.387-1.959,1.768-1.808,7.008.1,3.43,1.774,5.1,3.452,5.6" transform="translate(-190.752 -55.526)"/><path class="c" d="M267.255,93.176a4.68,4.68,0,0,1-2.248-.592c-1.978-1.1-3.006-3.41-2.819-6.338.35-5.471.948-7.428,3.62-7.515l.134,0c3.2,0,4.5,3.791,5.2,6.661,1.156,4.744.122,5.75-1.8,7.12l-.153.109a3.309,3.309,0,0,1-1.925.558m-1.308-13.033-.093,0c-1.224.04-1.881.333-2.254,6.191-.206,3.233,1.223,4.528,2.095,5.012a2.648,2.648,0,0,0,2.662.119l.156-.111c1.488-1.058,2.234-1.589,1.25-5.631-1.2-4.932-2.734-5.581-3.816-5.581m-.116-.706h0Z" transform="translate(-183.031 -53.179)"/><path class="h" d="M203.972,245.092a6.71,6.71,0,0,1-1.218-.1l1.177-6.115a.807.807,0,0,0-.1-.017,4.043,4.043,0,0,0,2.9-1.166c1.757-1.518,4.756-5.882,5.107-18.052a3.114,3.114,0,0,1,6.224.18c-.329,11.393-2.889,19.09-7.61,22.876a10.331,10.331,0,0,1-6.477,2.392" transform="translate(-140.435 -152.042)"/><path class="h" d="M266,258.246l-1.655-3.954-.037.016c.058-.027,5.827-2.835,10.358-16.527a2.143,2.143,0,0,1,4.07,1.346c-5.148,15.556-11.974,18.8-12.736,19.119" transform="translate(-184.566 -166.158)"/><path class="g" d="M251.973,190.127s6.324,1.3,10.54-2.71,6.324-7.729,6.324-15.961c0,0-4.919-1.305-4.115-4.015,0,0-2.61,1.405-3.012,0s0-14.355,0-14.355,1.907-2.008,3.112-1.707a35.551,35.551,0,0,1,4.015,1.606V140.539s.2-8.738,9.536-13.251,18.972,1.606,21.18,6.525,2.309,7.93,2.309,9.436v9.637s3.513-2.51,4.819-1.706,2.61,2.108,2.71,3.513,0,11.343,0,11.343-.1,1.807-1.405,2.008a3.6,3.6,0,0,1-2.409-.6s1,2.208-3.614,3.915c0,0,1.35,20.478-21.259,18.27,0,0-18.693,6.926-28.731.5" transform="translate(-175.723 -86.864)"/><path class="h" d="M297.6,171.528c-.224,2.566-1.727,13.6-11.287,19.252a30.79,30.79,0,0,1-5.614-.07s-18.69,6.925-28.728.5c.153.03,6.374,1.253,10.538-2.712,4.216-4.016,6.323-7.73,6.323-15.961,0,0-4.919-1.305-4.115-4.016,0,0-2.611,1.4-3.012,0s0-14.354,0-14.354,1.907-2.008,3.111-1.706a35.4,35.4,0,0,1,4.016,1.605V141.623s.2-8.737,9.537-13.25a15.758,15.758,0,0,1,11.078-1.01,38.4,38.4,0,0,0-10.379,6.984c-3.4,3.416-3.413,6.027-3.413,12.9s-.4,33.576,0,34.379,1,3.412,2.51,1.1,3.234-6.719,4.639-13.049l.111-.5s1.473,12.246-2.342,15.358-4.216,3.714-3.613,4.617,8.633-.9,12.948-5.119c4.11-4.014,7.31-8.847,7.693-12.508" transform="translate(-175.723 -87.642)"/><path class="c" d="M343.638,215.5s1.606-7.428,5.22-7.73,6.525.7,9.938,7.228-2.008,1.706-4.718,1.3-4.417-.5-6.625.5-4.316,3.112-3.815-1.3" transform="translate(-241.389 -145.661)"/><path class="c" d="M357.63,217.309a7.453,7.453,0,0,1-2.738-1.01,11.364,11.364,0,0,0-2.709-1.093c-2.79-.414-4.273-.443-6.229.446-.385.175-.777.391-1.155.6-1.107.611-2.154,1.189-2.989.629-.675-.452-.875-1.426-.666-3.258l.012-.07c.176-.813,1.833-7.95,5.853-8.285,3.936-.327,7.08.83,10.623,7.6,1.232,2.355,1.462,3.465.847,4.094a1.127,1.127,0,0,1-.848.341m-8.366-3.8a21.5,21.5,0,0,1,3.126.3,11.876,11.876,0,0,1,3.13,1.224,14.348,14.348,0,0,0,1.842.816,10.266,10.266,0,0,0-.984-2.317c-3.2-6.108-5.815-7.137-9.252-6.85-2.521.21-4.152,5.191-4.58,7.14a3.726,3.726,0,0,0,.051,1.875h.007a5.733,5.733,0,0,0,1.511-.68c.4-.222.818-.451,1.253-.65a9.011,9.011,0,0,1,3.9-.855" transform="translate(-239.599 -143.868)"/><path class="c" d="M346.393,158.231c-1.571-.051-2.86,1.2-3.789,5.019s-.026,4.316,1.38,5.32,5.12,0,4.819-4.718-.839-5.57-2.409-5.622" transform="translate(-240.43 -110.178)"/><path class="c" d="M343.443,167.843a2.83,2.83,0,0,1-1.653-.489l-.125-.089c-1.578-1.122-2.5-2.011-1.53-5.974.583-2.4,1.671-5.561,4.384-5.561l.115,0c2.29.075,2.8,1.711,3.093,6.284.157,2.453-.71,4.392-2.377,5.318a3.963,3.963,0,0,1-1.906.509m1.075-10.7c-.844,0-2.044.519-3.009,4.481-.787,3.232-.235,3.625.975,4.486l.128.091a2.076,2.076,0,0,0,2.048-.106c.688-.382,1.817-1.409,1.652-3.991-.314-4.913-.875-4.931-1.726-4.959h-.07" transform="translate(-238.648 -108.386)"/><path class="c" d="M378.111,158.231c1.571-.051,2.86,1.2,3.789,5.019s.026,4.316-1.38,5.32-5.12,0-4.819-4.718.839-5.57,2.409-5.622" transform="translate(-264.42 -110.178)"/><path class="c" d="M377.489,167.843a3.961,3.961,0,0,1-1.906-.509c-1.668-.926-2.534-2.865-2.378-5.318.292-4.573.8-6.209,3.093-6.284,2.8-.078,3.907,3.129,4.5,5.559.966,3.963.048,4.852-1.53,5.974l-.125.089a2.832,2.832,0,0,1-1.652.489m-1.145-10.7c-.851.028-1.412.046-1.726,4.959-.165,2.582.965,3.609,1.652,3.991a2.076,2.076,0,0,0,2.049.106l.128-.091c1.21-.86,1.763-1.253.975-4.486-.992-4.072-2.23-4.511-3.078-4.479" transform="translate(-262.628 -108.387)"/><path class="d" d="M365.113,219.833c-2.516-.372-4.168-.486-6.158.3a10.993,10.993,0,0,1,6.431-7.471,16.8,16.8,0,0,1,4.445,5.863c3.413,6.524-2.008,1.706-4.718,1.3" transform="translate(-252.425 -149.207)"/><path class="d" d="M351.652,169.132c-1.389-.62-2.233-1.144-2.1-4.794.14-3.732,1.062-5.26,2.485-5.629,1.264.2,1.734,1.3,2.007,5.587.179,2.809-1.063,4.3-2.4,4.836" transform="translate(-245.676 -110.523)"/><path class="d" d="M385.992,169.208c1.326-.746,2.118-1.345,1.645-4.967-.483-3.7-1.542-5.14-2.993-5.376-1.239.317-1.607,1.45-1.483,5.748.08,2.813,1.455,4.183,2.831,4.594" transform="translate(-269.764 -110.635)"/><path class="c" d="M261.5,191.77c-4.173,0-8.371-.726-11.7-2.859a.708.708,0,0,1,.524-1.289c.06.012,6.021,1.174,9.91-2.53,3.961-3.772,6.014-7.153,6.1-14.925-.99-.331-3.023-1.162-3.844-2.623a2.774,2.774,0,0,1-.308-.828,3.115,3.115,0,0,1-2.08.1,1.481,1.481,0,0,1-.866-.994c-.411-1.438-.094-12.39-.027-14.57a.709.709,0,0,1,.194-.466c.366-.385,2.269-2.285,3.8-1.906a25.326,25.326,0,0,1,3.136,1.2V138.727c.009-.391.322-9.24,9.936-13.888a16.6,16.6,0,0,1,13.135-.564c4.047,1.474,7.663,4.462,9,7.436,2.371,5.281,2.371,8.51,2.371,9.726v8.329c1.333-.8,3.318-1.718,4.482-1,.676.416,2.893,1.938,3.045,4.066.1,1.418.006,10.994,0,11.4,0,.011,0,.021,0,.032-.049.884-.526,2.44-2,2.668a3.855,3.855,0,0,1-1.788-.17,2.793,2.793,0,0,1-.144.441c-.466,1.117-1.633,2.065-3.474,2.819.027,1.988-.253,9.079-5.305,13.974-3.8,3.685-9.383,5.213-16.586,4.537a57.406,57.406,0,0,1-17.5,3.237m-7.831-2.572c9.981,3.417,24.829-1.987,24.994-2.048a.716.716,0,0,1,.314-.041c6.842.669,12.1-.718,15.616-4.122,5.331-5.157,4.873-13.316,4.868-13.4a.708.708,0,0,1,.461-.71c2.113-.781,2.861-1.613,3.117-2.175a1.1,1.1,0,0,0,.09-.8.7.7,0,0,1,.2-.831.713.713,0,0,1,.868-.014,2.908,2.908,0,0,0,1.885.475c.672-.1.794-1.22.805-1.338.005-.526.1-9.934,0-11.264-.082-1.156-1.281-2.288-2.375-2.961-.533-.328-2.555.623-4.036,1.68a.708.708,0,0,1-1.119-.576v-9.637c0-1.133,0-4.142-2.247-9.146-.99-2.2-3.906-5.126-8.192-6.687a15.215,15.215,0,0,0-12.036.509c-8.812,4.26-9.128,12.291-9.137,12.631v12.43a.708.708,0,0,1-1.006.642,35.133,35.133,0,0,0-3.889-1.562c-.433-.111-1.478.579-2.241,1.32-.151,4.987-.284,12.931-.018,13.86.018.064.031.069.055.079a3.408,3.408,0,0,0,1.942-.508.708.708,0,0,1,1.013.824,1.247,1.247,0,0,0,.117,1.022c.639,1.137,2.744,1.907,3.5,2.109a.707.707,0,0,1,.526.684c0,8.609-2.3,12.431-6.544,16.473a11.906,11.906,0,0,1-7.537,3.081" transform="translate(-173.93 -85.053)"/><path class="c" d="M358.3,217.309a7.458,7.458,0,0,1-2.737-1.01,11.354,11.354,0,0,0-2.709-1.093c-2.791-.414-4.273-.443-6.229.447-.385.175-.776.391-1.155.6-1.107.611-2.154,1.189-2.989.629-.675-.451-.875-1.426-.666-3.258a.642.642,0,0,1,.012-.07c.176-.813,1.833-7.95,5.852-8.285,3.937-.328,7.081.831,10.624,7.6,1.232,2.355,1.462,3.465.846,4.094a1.127,1.127,0,0,1-.848.341m-8.366-3.8a21.5,21.5,0,0,1,3.126.3,11.892,11.892,0,0,1,3.13,1.224,14.33,14.33,0,0,0,1.841.816,10.258,10.258,0,0,0-.984-2.317c-3.2-6.108-5.816-7.137-9.252-6.851-2.521.211-4.152,5.191-4.579,7.14a3.727,3.727,0,0,0,.051,1.875h.007a5.74,5.74,0,0,0,1.511-.68c.4-.222.818-.452,1.253-.65a9.012,9.012,0,0,1,3.9-.856m-6.651,2.21h0Z" transform="translate(-240.078 -143.868)"/><path class="c" d="M344.111,167.843a2.831,2.831,0,0,1-1.652-.489l-.126-.089c-1.577-1.122-2.5-2.01-1.53-5.974.592-2.43,1.71-5.64,4.5-5.559,2.289.075,2.8,1.711,3.093,6.284.156,2.453-.71,4.392-2.378,5.319a3.964,3.964,0,0,1-1.906.508m1.076-10.7c-.844,0-2.044.519-3.009,4.481-.787,3.232-.235,3.625.975,4.486l.129.091a2.074,2.074,0,0,0,2.048-.106c.688-.382,1.817-1.409,1.653-3.991-.314-4.913-.876-4.931-1.726-4.959h-.07" transform="translate(-239.128 -108.387)"/><path class="c" d="M378.157,167.843a3.963,3.963,0,0,1-1.906-.508c-1.668-.926-2.534-2.865-2.378-5.319.292-4.573.8-6.209,3.092-6.284l.115,0c2.713,0,3.8,3.165,4.384,5.561.966,3.963.047,4.852-1.53,5.974l-.125.089a2.829,2.829,0,0,1-1.652.489m-1.145-10.7c-.85.028-1.412.046-1.726,4.959-.165,2.583.965,3.609,1.652,3.991a2.074,2.074,0,0,0,2.048.106l.128-.091c1.21-.86,1.763-1.253.976-4.486-.992-4.072-2.231-4.511-3.078-4.479" transform="translate(-263.108 -108.386)"/><path class="h" d="M326.5,292.432a5.669,5.669,0,0,1-1.022-.082l1.016-5.281a.671.671,0,0,0-.093-.016,3.21,3.21,0,0,0,2.285-.934c1.42-1.234,3.845-4.785,4.131-14.7a2.689,2.689,0,0,1,5.376.155c-.271,9.387-2.388,15.734-6.293,18.866a8.613,8.613,0,0,1-5.4,1.991" transform="translate(-228.427 -189.458)"/><path class="h" d="M372.1,299.068a1.415,1.415,0,0,1-.562-2.714c.125-.059,5.585-2.714,9.832-15.548a1.415,1.415,0,0,1,2.687.889c-4.742,14.33-11.141,17.151-11.411,17.264a1.412,1.412,0,0,1-.546.11" transform="translate(-260.834 -197.364)"/><path class="g" d="M127.363,189.318s-4.241.875-7.069-1.818-4.241-5.184-4.241-10.7c0,0,3.3-.875,2.76-2.693,0,0,1.751.942,2.02,0s0-9.627,0-9.627-1.279-1.346-2.087-1.144a23.834,23.834,0,0,0-2.693,1.077v-8.348a10.811,10.811,0,0,0-6.4-8.886c-6.261-3.027-12.723,1.077-14.2,4.376a14.622,14.622,0,0,0-1.548,6.328v6.463s-2.356-1.683-3.232-1.144a3.491,3.491,0,0,0-1.818,2.356c-.067.943,0,7.607,0,7.607s.067,1.212.943,1.346a2.417,2.417,0,0,0,1.616-.4s-.673,1.481,2.424,2.625c0,0-.905,13.734,14.257,12.253,0,0,12.537,4.645,19.269.337" transform="translate(-58.754 -101.495)"/><path class="h" d="M116.862,176.845c.15,1.721,1.158,9.121,7.57,12.911a20.638,20.638,0,0,0,3.765-.047s12.534,4.644,19.266.338c-.1.02-4.275.84-7.067-1.819-2.827-2.693-4.241-5.184-4.241-10.7,0,0,3.3-.875,2.76-2.693,0,0,1.751.942,2.02,0s0-9.627,0-9.627-1.279-1.347-2.087-1.144a23.7,23.7,0,0,0-2.693,1.077v-8.348a10.809,10.809,0,0,0-6.4-8.886,10.568,10.568,0,0,0-7.43-.678,25.757,25.757,0,0,1,6.961,4.684c2.28,2.291,2.288,4.042,2.288,8.652s.27,22.517,0,23.056-.673,2.289-1.683.74a28.7,28.7,0,0,1-3.111-8.751l-.075-.337s-.988,8.212,1.571,10.3,2.827,2.491,2.423,3.1-5.789-.606-8.683-3.433c-2.757-2.692-4.9-5.934-5.159-8.389" transform="translate(-78.854 -102.017)"/><path class="c" d="M135.769,206.331s-1.077-4.982-3.5-5.183-4.376.471-6.665,4.847,1.346,1.144,3.164.875a7.024,7.024,0,0,1,4.443.337c1.481.673,2.895,2.087,2.558-.875" transform="translate(-84.596 -140.926)"/><path class="c" d="M123.378,207.188a.967.967,0,0,1-.726-.3c-.572-.585-.24-1.549.528-3.017,2.436-4.657,4.62-5.453,7.35-5.224,2.863.238,4.012,5.177,4.134,5.739l.012.07c.106.937.125,1.954-.549,2.4s-1.476.014-2.247-.411c-.25-.138-.508-.281-.758-.394a6.35,6.35,0,0,0-4.047-.281,7.537,7.537,0,0,0-1.748.711,5.133,5.133,0,0,1-1.948.7m5.609-3.012a6.309,6.309,0,0,1,2.72.592c.3.136.583.292.857.443a7.867,7.867,0,0,0,.737.375,4.343,4.343,0,0,0-.027-.934c-.265-1.19-1.328-4.467-2.86-4.594-1.907-.157-3.676.067-5.979,4.47a11.186,11.186,0,0,0-.5,1.054c.251-.111.536-.252.761-.364a8.116,8.116,0,0,1,2.169-.843,14.535,14.535,0,0,1,2.119-.2" transform="translate(-82.799 -139.131)"/><path class="c" d="M150.455,167.926c1.054-.034,1.918.808,2.541,3.366s.017,2.895-.926,3.568-3.433,0-3.231-3.164.562-3.736,1.616-3.77" transform="translate(-101.773 -117.13)"/><path class="c" d="M149.444,174.015a2.886,2.886,0,0,1-1.391-.369,3.723,3.723,0,0,1-1.714-3.785c.173-2.717.415-4.371,2.3-4.432,2.048-.053,2.835,2.2,3.252,3.906.669,2.748.024,3.44-1.118,4.251l-.084.06a2.133,2.133,0,0,1-1.244.37m-.76-7.172c-.411.013-.736.024-.933,3.108-.1,1.6.576,2.229.989,2.459a1.168,1.168,0,0,0,1.125.085l.086-.061c.766-.545,1.053-.749.563-2.763C149.818,166.8,148.966,166.832,148.685,166.842Z" transform="translate(-99.979 -115.338)"/><path class="c" d="M129.182,167.926c-1.054-.034-1.918.808-2.541,3.366s-.017,2.895.926,3.568,3.433,0,3.231-3.164-.562-3.736-1.616-3.77" transform="translate(-85.684 -117.13)"/><path class="c" d="M126.616,174.013a2.133,2.133,0,0,1-1.245-.37l-.084-.059c-1.142-.812-1.787-1.5-1.118-4.252.41-1.684,1.183-3.907,3.164-3.907h.088c1.884.061,2.125,1.715,2.3,4.432a3.723,3.723,0,0,1-1.714,3.786,2.888,2.888,0,0,1-1.39.369m.7-7.174c-.327,0-1.117.144-1.771,2.828-.491,2.014-.2,2.218.563,2.763l.086.061a1.168,1.168,0,0,0,1.125-.085c.413-.23,1.091-.855.989-2.459-.2-3.084-.521-3.094-.933-3.108h-.059" transform="translate(-83.899 -115.337)"/><path class="c" d="M117.978,190.059a38.716,38.716,0,0,1-11.767-2.164c-4.878.445-8.663-.6-11.256-3.113-3.328-3.224-3.628-7.837-3.629-9.385a4.062,4.062,0,0,1-2.311-1.955c-.014-.032-.026-.065-.038-.1a2.759,2.759,0,0,1-1.078.054,2.032,2.032,0,0,1-1.541-2.006c0-.011,0-.021,0-.032,0-.273-.067-6.7,0-7.665a4.082,4.082,0,0,1,2.153-2.908c.776-.478,1.956-.046,2.894.466v-5.182a15.233,15.233,0,0,1,1.611-6.618,10.956,10.956,0,0,1,6.167-5.111,11.825,11.825,0,0,1,15.786,9.895v7.274a14.675,14.675,0,0,1,1.813-.674c1.121-.279,2.405.958,2.772,1.344a.71.71,0,0,1,.194.466c.064,2.063.251,8.87-.027,9.843a1.234,1.234,0,0,1-.714.817,2.1,2.1,0,0,1-1.322.012,2.139,2.139,0,0,1-.167.375,4.855,4.855,0,0,1-2.546,1.809c.085,5.011,1.437,7.218,4.017,9.676,2.517,2.4,6.4,1.645,6.439,1.637a.708.708,0,0,1,.523,1.289,14.8,14.8,0,0,1-7.974,1.951M106.3,186.468a.707.707,0,0,1,.246.044c.1.038,8.983,3.27,15.532,1.685a7.822,7.822,0,0,1-4.066-1.99c-2.893-2.755-4.461-5.359-4.461-11.216a.708.708,0,0,1,.526-.684,4.166,4.166,0,0,0,2.206-1.3.607.607,0,0,0,.057-.5.707.707,0,0,1,1.014-.824,2.956,2.956,0,0,0,1.021.336c.123-.851.082-5.114-.035-9.036a2.726,2.726,0,0,0-1.22-.761,22.289,22.289,0,0,0-2.563,1.032.708.708,0,0,1-1.006-.642v-8.348a10.418,10.418,0,0,0-13.887-8.581,9.551,9.551,0,0,0-5.36,4.361,13.89,13.89,0,0,0-1.487,6.038v6.463a.708.708,0,0,1-1.119.576A5.13,5.13,0,0,0,89.239,162a2.818,2.818,0,0,0-1.47,1.8c-.053.747-.017,5.665,0,7.528.012.123.1.639.343.676a1.73,1.73,0,0,0,1.1-.28.735.735,0,0,1,.907.025.664.664,0,0,1,.157.83c-.078.307.243,1.027,2.017,1.683a.708.708,0,0,1,.461.71c0,.053-.3,5.425,3.2,8.8,2.308,2.231,5.77,3.139,10.285,2.7q.034,0,.069,0" transform="translate(-56.961 -99.689)"/><path class="d" d="M128.768,209.241a7.287,7.287,0,0,1,4.13.2,7.373,7.373,0,0,0-4.313-5.01,11.264,11.264,0,0,0-2.981,3.932c-2.289,4.375,1.346,1.144,3.164.875" transform="translate(-84.596 -143.305)"/><path class="c" d="M122.929,207.188a.967.967,0,0,1-.726-.3c-.572-.585-.24-1.549.528-3.017,2.436-4.657,4.62-5.453,7.351-5.224,2.863.238,4.012,5.177,4.134,5.739,0,.023.009.046.011.07.106.937.125,1.954-.549,2.4s-1.476.014-2.247-.411c-.25-.138-.509-.281-.759-.394a6.351,6.351,0,0,0-4.047-.281,7.528,7.528,0,0,0-1.748.711,5.134,5.134,0,0,1-1.948.7m5.609-3.012a6.309,6.309,0,0,1,2.72.592c.3.136.583.292.857.444a7.926,7.926,0,0,0,.737.375,4.362,4.362,0,0,0-.027-.934c-.265-1.19-1.328-4.467-2.86-4.594-1.908-.157-3.676.067-5.979,4.47a11.239,11.239,0,0,0-.5,1.054c.251-.111.535-.252.76-.364a8.119,8.119,0,0,1,2.169-.843,14.538,14.538,0,0,1,2.12-.2" transform="translate(-82.477 -139.131)"/><path class="d" d="M150.446,175.238c.932-.416,1.5-.767,1.405-3.215-.094-2.5-.712-3.528-1.666-3.775-.847.135-1.163.869-1.346,3.747-.121,1.883.713,2.884,1.607,3.243" transform="translate(-101.773 -117.361)"/><path class="d" d="M127.222,175.288c-.889-.5-1.421-.9-1.1-3.331.324-2.484,1.034-3.447,2.007-3.605.831.213,1.078.973.995,3.855-.053,1.886-.975,2.806-1.9,3.081" transform="translate(-85.425 -117.436)"/><path class="c" d="M149,174.015a2.885,2.885,0,0,1-1.391-.369,3.723,3.723,0,0,1-1.714-3.785c.173-2.717.415-4.371,2.3-4.432,2.05-.053,2.836,2.2,3.252,3.906.669,2.748.024,3.44-1.118,4.251l-.084.06a2.133,2.133,0,0,1-1.244.37m-.76-7.172c-.411.013-.736.024-.932,3.108-.1,1.6.575,2.229.989,2.459a1.168,1.168,0,0,0,1.125.085l.086-.061c.766-.545,1.053-.749.563-2.763C149.37,166.8,148.518,166.832,148.237,166.842Z" transform="translate(-99.658 -115.338)"/><path class="c" d="M126.167,174.014a2.134,2.134,0,0,1-1.245-.37l-.084-.06c-1.142-.812-1.787-1.5-1.118-4.251.416-1.708,1.207-3.971,3.252-3.906h0c1.884.061,2.125,1.715,2.3,4.432a3.723,3.723,0,0,1-1.714,3.785,2.884,2.884,0,0,1-1.39.369m.7-7.174c-.327,0-1.117.144-1.771,2.828-.491,2.014-.2,2.218.563,2.763l.086.061a1.167,1.167,0,0,0,1.125-.085c.414-.23,1.091-.855.989-2.459-.2-3.084-.521-3.094-.933-3.108h-.059" transform="translate(-83.578 -115.337)"/><path class="h" d="M153.3,257.873a5.812,5.812,0,0,1-3.645-1.343c-2.628-2.107-4.052-6.373-4.234-12.679a1.84,1.84,0,1,1,3.678-.106c.191,6.631,1.808,9,2.755,9.829a2.127,2.127,0,0,0,1.507.62.511.511,0,0,0-.065.011l.7,3.613a3.832,3.832,0,0,1-.691.055" transform="translate(-99.331 -170.208)"/><path class="h" d="M122.186,262.747a.7.7,0,0,1-.271-.055c-.177-.074-4.371-1.924-7.517-11.431a.708.708,0,0,1,1.344-.444c2.912,8.8,6.688,10.556,6.726,10.572a.709.709,0,0,1-.281,1.358" transform="translate(-77.062 -176.211)"/><path class="f" d="M88.175,330.752a.977.977,0,1,1-1.258.572.977.977,0,0,1,1.258-.572" transform="translate(-57.341 -233.825)"/><rect class="i" width="148.838" height="105.301" transform="translate(4.93 3.266)"/></g></g></svg>