<svg xmlns="http://www.w3.org/2000/svg" xmlns:xlink="http://www.w3.org/1999/xlink" width="149" height="108" viewBox="0 0 149 108"><defs><style>.a{fill:#fff;}.b{fill:none;}.c{clip-path:url(#a);}.d{fill:#d61d69;}.e{opacity:0.5;}.f{clip-path:url(#b);}.g{fill:#ef6ca8;}.h{opacity:0.3;}.i{clip-path:url(#c);}.j{fill:#f185b5;}.k{fill:#f290bc;}.l{fill:#29266f;}.m{fill:#663995;}.n{fill:#3baae0;}.o{fill:#4cc7ec;}.p{opacity:0.6;}.q{clip-path:url(#d);}.r{clip-path:url(#e);}.s{clip-path:url(#f);}.t{clip-path:url(#g);}.u{clip-path:url(#h);}.v{clip-path:url(#i);}.w{fill:#272361;}</style><clipPath id="a"><rect class="a" width="149" height="108" rx="8" transform="translate(0.094 0.077)"/></clipPath><clipPath id="b"><rect class="b" width="104.24" height="94.739"/></clipPath><clipPath id="c"><rect class="b" width="109.845" height="105.562"/></clipPath><clipPath id="d"><rect class="b" width="29.822" height="33.634"/></clipPath><clipPath id="e"><rect class="b" width="14.524" height="16.38"/></clipPath><clipPath id="f"><rect class="b" width="17.684" height="19.944"/></clipPath><clipPath id="g"><rect class="b" width="17.234" height="19.437"/></clipPath><clipPath id="h"><rect class="b" width="10.023" height="18.483"/></clipPath><clipPath id="i"><rect class="b" width="13.695" height="25.255"/></clipPath></defs><g class="c" transform="translate(-0.094 -0.077)"><g transform="translate(-9.178 -12.284)"><path class="d" d="M187.541,173.75H35.514a9.926,9.926,0,0,1-9.9-9.9V62.568a9.926,9.926,0,0,1,9.9-9.9H187.541a9.926,9.926,0,0,1,9.9,9.9V163.853a9.926,9.926,0,0,1-9.9,9.9" transform="translate(-25.618 -45.563)"/><g class="e" transform="translate(55.604 10.823)"><g class="f"><path class="g" d="M284.472,37.787l-36.451,94.739c-4.233-6.285-20.23-14.623-37.811-14.623-12.147,0-22.954,2.216-29.871,5.656-.036.019-.071.036-.107.052l31.477-32.973,44.706-51.1Z" transform="translate(-180.232 -37.787)"/></g></g><g class="h" transform="translate(3.982 0)"><g class="i"><path class="j" d="M109.845,95.841l-48.515.543c-.036.019-9.673.246-9.709.263-2.97,1.495-6.524,7.047-7.832,8.915L0,21.437,16.626,0,80.378,66.523Z"/></g></g><path class="k" d="M226.924,329.367c0,6.553-17.4,11.864-38.874,11.864s-38.871-5.311-38.871-11.864a4.7,4.7,0,0,1,1.349-3.109,17.835,17.835,0,0,1,6.7-4.122c.037-.013.073-.027.109-.042,7.111-2.791,18.222-4.588,30.71-4.588,18.076,0,33.27,3.765,37.622,8.864a4.621,4.621,0,0,1,1.252,3" transform="translate(-102.469 -226.566)"/><path class="l" d="M207.371,229.061a14.412,14.412,0,0,1,6.222,13.676l29.9,22.919-4.8,7.076-32.6-19.044a14.411,14.411,0,1,1,1.272-24.627" transform="translate(-127.941 -161.682)"/><path class="l" d="M237.149,271.919,204.31,252.737a15.124,15.124,0,1,1,8.27-12.092L242.7,263.73Zm-32.8-20.82.346.2,32.023,18.707,4.042-5.963-29.692-22.757.049-.406a13.7,13.7,0,1,0-7.121,10.406Z" transform="translate(-126.172 -159.913)"/><path class="m" d="M209.167,259.647l32.6,19.044-3.067,4.525-32.6-19.044a14.414,14.414,0,0,1-16.993-22.9,14.412,14.412,0,0,0,20.06,18.377" transform="translate(-127.941 -172.166)"/><rect class="n" width="4.233" height="7.813" transform="translate(91.936 96.802) rotate(-55.871)"/><path class="l" d="M310.808,331.852l-7.89-5.348,3.34-4.927,7.89,5.348Zm-5.5-5.806,5.045,3.419,1.411-2.082-5.045-3.42Z" transform="translate(-212.175 -229.472)"/><path class="l" d="M236.836,271.755l-32.888-19.212a15.267,15.267,0,1,1,8.425-12.32l30.165,23.119Zm-32.844-21.176,32.323,18.881,3.891-5.74L210.556,241l.059-.487a13.554,13.554,0,1,0-7.047,10.3Z" transform="translate(-125.815 -159.557)"/><rect class="n" width="17.9" height="5.865" transform="matrix(0.561, -0.828, 0.828, 0.561, 76.911, 94.286)"/><path class="o" d="M259.006,306.632l5.223,2.746-4.749,7.006-4.854-3.29Z" transform="translate(-177.715 -218.808)"/><path class="l" d="M255.783,295.192l-6.277-4.255,11.008-16.24,6.277,4.255Zm-3.89-4.713,3.432,2.326,9.079-13.4-3.432-2.327Z" transform="translate(-174.061 -196.019)"/><path class="l" d="M164.737,86.515a11.661,11.661,0,0,0-4.58,11.26l-23.42,19.512,4.11,5.563,25.729-16.468a11.66,11.66,0,1,0-1.839-19.867" transform="translate(-93.591 -60.107)"/><path class="l" d="M138.234,122.044l-4.909-6.645,23.631-19.688a12.378,12.378,0,1,1,7.24,9.715Zm-2.955-6.409,3.311,4.481,25.5-16.323.361.175a10.941,10.941,0,1,0-6.024-8.078l.066.4Z" transform="translate(-91.156 -58.336)"/><path class="m" d="M167.639,110.489,141.91,126.957l2.629,3.558,25.728-16.468a11.662,11.662,0,0,0,12.984-19.074,11.661,11.661,0,0,1-15.612,15.516" transform="translate(-97.282 -67.771)"/><rect class="n" width="6.321" height="3.425" transform="matrix(0.804, -0.594, 0.594, 0.804, 54.885, 51.608)"/><path class="l" d="M176.583,171.789l-3.057-4.137,6.466-4.777,3.057,4.137Zm-.653-3.776,1.014,1.373,3.7-2.736-1.014-1.373Z" transform="translate(-119.843 -116.224)"/><path class="l" d="M137.712,121.879l-5.069-6.861,23.675-19.724a12.521,12.521,0,1,1,7.4,9.937Zm-2.724-6.579,3.151,4.265L163.6,103.271l.433.209a10.8,10.8,0,1,0-5.945-7.971l.079.484Z" transform="translate(-90.67 -57.978)"/><rect class="n" width="4.745" height="14.483" transform="translate(61.645 39.249) rotate(-36.46)"/><path class="o" d="M221.3,150.123l-4.132,2.392,4.069,5.507,3.816-2.819Z" transform="translate(-150.986 -107.126)"/><path class="l" d="M207.574,140.97l-9.628-13.03,5.2-3.841,9.628,13.03ZM200.35,128.3l7.585,10.266,2.434-1.8L202.784,126.5Z" transform="translate(-137.269 -88.555)"/><g class="p" transform="translate(116.875 28.156)"><g class="q"><path class="k" d="M403.985,118.145s-10.347-1.856-9.808,4.917,10.308,7.677,12.315.751l1.1-18.011,12.148,3.5-.874,14.349s-4.494-4.256-8.562.092,1.949,9.617,8.077,7.846c4.372-1.264,4.419-5.6,4.084-7.977a11.349,11.349,0,0,0-.33-1.6l1.847-19.192L405.195,98.3Z" transform="translate(-394.157 -98.303)"/></g></g><g class="p" transform="translate(30.203 34.516)"><g class="r"><path class="k" d="M96.332,130.174s-5.039-.9-4.777,2.394,5.02,3.739,6,.366l.534-8.771,5.916,1.7-.426,6.988s-2.189-2.073-4.17.045.949,4.683,3.934,3.821c2.129-.616,2.152-2.726,1.989-3.885a5.514,5.514,0,0,0-.161-.779l.9-9.347-9.148-2.2Z" transform="translate(-91.546 -120.511)"/></g></g><g class="p" transform="translate(27.029 88.925)"><g class="s"><path class="k" d="M92.321,322.241s6.136-1.1,5.816,2.916-6.112,4.552-7.3.445l-.651-10.68L82.98,317,83.5,325.5s2.665-2.524,5.077.054-1.156,5.7-4.79,4.652c-2.593-.749-2.62-3.319-2.421-4.73a6.693,6.693,0,0,1,.2-.948l-1.095-11.38L91.6,310.475Z" transform="translate(-80.465 -310.475)"/></g></g><g class="p" transform="translate(88.645 46.154)"><g class="t"><path class="k" d="M307.15,172.612s5.979-1.072,5.668,2.842-5.957,4.437-7.117.434l-.634-10.409-7.021,2.021.505,8.292s2.6-2.459,4.948.053-1.126,5.557-4.668,4.534c-2.527-.73-2.554-3.234-2.36-4.61a6.56,6.56,0,0,1,.19-.924L295.6,163.754l10.856-2.609Z" transform="translate(-295.595 -161.145)"/></g></g><g class="p" transform="translate(39.616 69.926)"><g class="u"><path class="k" d="M129.947,256.05s-3.336,3.033-2.123,4.852,4.549,2.73,6.065,0a3.1,3.1,0,0,0-.607-4.226l-4.89-5.857s1.91.455,2.6-1.934,2.854-3.127,3.138-2.956-.454-2.047-1.193-1.763-2.274.4-2.616,1.649-.625,2.1-.967,2.274-1.307,1.478-2.274.8-.91-1.023-.91-1.023-1.763.17-1.763,1.08Z" transform="translate(-124.413 -244.141)"/></g></g><g class="p" transform="translate(109.488 56.476)"><g class="v"><path class="k" d="M374.5,213.454s4.559,4.144,2.9,6.629-6.215,3.73-8.287,0,.829-5.775.829-5.775l6.681-8s-2.61.622-3.558-2.642-3.9-4.273-4.288-4.039.621-2.8,1.631-2.408,3.108.543,3.574,2.253.854,2.875,1.322,3.107,1.785,2.02,3.106,1.088,1.244-1.4,1.244-1.4,2.408.233,2.408,1.476Z" transform="translate(-368.367 -197.182)"/></g></g><path class="w" d="M27.62,232.723c-1.172,0-2.533-.064-4.119-.213a76.7,76.7,0,0,1-7.629-1.128l.759-3.645c6.334,1.317,14.124,1.811,15.626.445,1.761-1.6,1.592-4.456,1.444-6.975a20.957,20.957,0,0,1-.05-2.684c.772-10.325,17.668-14.7,18.387-14.88l.911,3.61h0c-4.174,1.058-15.108,5.192-15.584,11.547a18.846,18.846,0,0,0,.054,2.188c.178,3.018.422,7.151-2.656,9.949-.894.813-2.589,1.786-7.142,1.786" transform="translate(-7.344 -145.316)"/><path class="w" d="M384.383,271.954c-4.076,0-8.022-3.248-8.513-3.667l2.414-2.834-1.207,1.417,1.2-1.419c1.044.883,4.551,3.273,6.884,2.689.508-.127,12.407-3.26,9.3-16.108a16.039,16.039,0,0,1,2.04-12.631c7.27-11.728,27.848-16.531,28.72-16.73l.827,3.63c-.2.046-19.94,4.661-26.386,15.066a12.282,12.282,0,0,0-1.582,9.791c3.168,13.118-6.478,19.207-12.02,20.593a6.936,6.936,0,0,1-1.687.2" transform="translate(-264.233 -158.895)"/></g></g></svg>