<svg xmlns="http://www.w3.org/2000/svg" xmlns:xlink="http://www.w3.org/1999/xlink" width="149" height="108" viewBox="0 0 149 108"><defs><style>.a{fill:none;}.b{clip-path:url(#a);}.c{fill:#3e6ab2;}.d{fill:#303086;}.e{opacity:0.3;}.f{clip-path:url(#b);}.g{fill:#3baae0;}.h{fill:#3b61ac;}.i{opacity:0.6;}.j{clip-path:url(#c);}.k{fill:#4cc7ec;}.l{fill:#fcdcd2;}.m{fill:#29266f;}.n{opacity:0.8;}.o{clip-path:url(#d);}.p{fill:#de2f44;}.q{fill:#8086c1;}.r{fill:#a0dcf3;}.s{fill:#f59b9a;}.t{fill:#f58b70;}.u{fill:#c36050;}</style><clipPath id="a"><rect class="a" width="149" height="108" rx="8" transform="translate(0.094)"/></clipPath><clipPath id="b"><rect class="a" width="154.163" height="111.557"/></clipPath><clipPath id="c"><rect class="a" width="143.018" height="154.406"/></clipPath><clipPath id="d"><rect class="a" width="13.555" height="10.724"/></clipPath></defs><g transform="translate(-0.094 0)"><g transform="translate(0 0)"><g transform="translate(0 0)"><g class="b"><path class="c" d="M212.464,245.786H69.743a9.333,9.333,0,0,1-9.291-9.321v-95.4a9.333,9.333,0,0,1,9.291-9.321H212.464a9.333,9.333,0,0,1,9.291,9.321v95.4a9.333,9.333,0,0,1-9.291,9.321" transform="translate(-66.604 -136.392)"/><path class="d" d="M287.461,21.691A21.619,21.619,0,1,1,265.841,0a21.655,21.655,0,0,1,21.619,21.691" transform="translate(-191.628 -38.012)"/><g class="e" transform="translate(11.625 -4.647)"><g class="f"><path class="g" d="M100.851,116.376,255.014,227.933H115.452Z" transform="translate(-100.851 -116.376)"/></g></g><path class="h" d="M154.019,116.52,0,228.078H139.432Z" transform="translate(-17.195 -121.126)"/><g class="i" transform="translate(3.562 -0.075)"><g class="j"><path class="k" d="M127.905,132.321,72.635,239.5l5.127,28.487,63.991,18.739,65.829-28.694,8.07-18.532L157.58,132.321Z" transform="translate(-72.635 -132.321)"/></g></g><path class="l" d="M278.576,200.411c0,7.843-5.651,14.2-12.622,14.2s-12.622-6.358-12.622-14.2,5.651-14.2,12.622-14.2,12.622,6.358,12.622,14.2" transform="translate(-198.134 -170.835)"/><path class="m" d="M264.169,213.545c-7.354,0-13.336-6.692-13.336-14.918s5.983-14.918,13.336-14.918,13.336,6.692,13.336,14.918-5.983,14.918-13.336,14.918m0-28.4c-6.566,0-11.908,6.049-11.908,13.484s5.342,13.484,11.908,13.484,11.908-6.049,11.908-13.484-5.342-13.484-11.908-13.484" transform="translate(-196.35 -169.052)"/><path class="h" d="M239.516,181.172a40.173,40.173,0,0,0,13.471.2c5.192-.893,10.608-3.233,13.67-8.687,0,0-4.524-11.566-17.073-8.637s-10.068,17.129-10.068,17.129" transform="translate(-188.124 -154.685)"/><path class="m" d="M245.192,180.794a39.968,39.968,0,0,1-7.615-.7.715.715,0,0,1-.556-.577,21,21,0,0,1,.338-7.76,13.088,13.088,0,0,1,10.272-10.191c13-3.032,17.852,8.953,17.9,9.074a.718.718,0,0,1-.042.613c-2.723,4.851-7.491,7.893-14.172,9.042a36.326,36.326,0,0,1-6.124.5m-6.829-2.01a39.876,39.876,0,0,0,12.712.1c6.093-1.048,10.462-3.749,12.993-8.028-.813-1.8-5.315-10.407-16.113-7.892a11.569,11.569,0,0,0-9.2,9.092,20.056,20.056,0,0,0-.394,6.729" transform="translate(-186.333 -152.907)"/><g class="n" transform="translate(52.894 42.871)"><g class="o"><path class="p" d="M257.295,284.617s.756,4.22-.892,4.22-3.3-2.627-3.3-2.627l-5.335,3.6s5.507,3.985,6.887,4.087a4.865,4.865,0,0,0,5.237-4.633,37.732,37.732,0,0,0-.388-3.932Z" transform="translate(-247.056 -283.9)"/><path class="m" d="M253.184,292.841c-.122,0-.244,0-.364-.013-1.467-.108-5.923-3.257-7.253-4.22a.718.718,0,0,1,.019-1.176l5.335-3.6a.713.713,0,0,1,1,.213c.558.886,1.783,2.292,2.693,2.292.036,0,.045,0,.076-.038.349-.418.34-2.063.113-3.338a.716.716,0,0,1,.922-.809l2.212.714a.715.715,0,0,1,.488.58,36.1,36.1,0,0,1,.394,4.061,5.285,5.285,0,0,1-1.745,3.834,6,6,0,0,1-3.894,1.5m-5.942-4.8c2.389,1.674,5.032,3.308,5.682,3.356a4.531,4.531,0,0,0,3.2-1.126,3.832,3.832,0,0,0,1.27-2.819,30.52,30.52,0,0,0-.319-3.36l-.714-.231c.089,1.08.072,2.584-.571,3.356a1.484,1.484,0,0,1-1.172.552c-1.481,0-2.818-1.479-3.48-2.357Z" transform="translate(-245.27 -282.116)"/></g></g><path class="d" d="M323.359,315.46s3.129,13.762,3.462,16.69-.16,33.394-.16,33.394h35.207s-1.005-49.938-9.47-58.136l-31.52-1.994Z" transform="translate(-246.379 -255.863)"/><path class="m" d="M360.241,363.511H325.035a.715.715,0,0,1-.714-.726c0-.259.328-29.487,0-32.337-.321-2.831-3.365-16.246-3.447-16.6L318.4,303.8a.716.716,0,0,1,.738-.888l31.52,1.994a.713.713,0,0,1,.451.2c8.576,8.307,9.8,55.8,9.848,57.666a.716.716,0,0,1-.714.735m-34.484-1.434H359.5c-.2-5.828-1.783-47.97-9.207-55.754l-30.277-1.915,2.246,9.1,0,.013c.128.563,3.142,13.834,3.475,16.768.305,2.7.066,27.487.013,31.792" transform="translate(-244.593 -254.081)"/><path class="d" d="M391.857,315.6s5.983,8.638,4.378,13.03a25.311,25.311,0,0,1-4.378,7.466l7.442,13.469s10.068-8.83,11.673-19.055-7.985-22.23-7.985-22.23.251,5.856-11.131,7.32" transform="translate(-297.075 -257.91)"/><path class="m" d="M397.513,348.509a.743.743,0,0,1-.123-.011.715.715,0,0,1-.5-.359l-7.442-13.469a.719.719,0,0,1,.095-.828,24.831,24.831,0,0,0,4.237-7.233c1.211-3.313-2.689-10.055-4.293-12.374a.717.717,0,0,1,.5-1.12c10.5-1.351,10.513-6.372,10.508-6.586a.722.722,0,0,1,.47-.693.711.711,0,0,1,.8.221c.4.5,9.768,12.372,8.133,22.79-1.627,10.363-11.49,19.115-11.909,19.483a.713.713,0,0,1-.47.177m-6.577-14.1,6.759,12.234c2.23-2.145,9.475-9.67,10.785-18.018,1.242-7.913-4.582-17.115-6.91-20.415-.744,1.946-3.067,4.978-10.286,6.163,1.538,2.436,5.235,8.9,3.835,12.73a26.241,26.241,0,0,1-4.183,7.307" transform="translate(-295.289 -256.134)"/><path class="d" d="M301.37,385.821a24.294,24.294,0,0,1-5.735,4.122h-9.48v14.933H301.37Z" transform="translate(-221.577 -313.217)"/><path class="m" d="M299.584,403.81H284.368a.715.715,0,0,1-.714-.717V388.161a.715.715,0,0,1,.714-.717h9.3a23.777,23.777,0,0,0,5.4-3.9.714.714,0,0,1,1.234.492v19.055a.715.715,0,0,1-.714.717m-14.5-1.434H298.87V385.659a28.657,28.657,0,0,1-4.682,3.133.707.707,0,0,1-.339.086h-8.766Z" transform="translate(-219.792 -311.435)"/><path class="d" d="M228.448,226.07s-6.129,3.331-4.961,5.985,13.133-.234,17.8-5.305c0,0-11.09.639-12.841-.679" transform="translate(-176.712 -199.267)"/><path class="m" d="M224.417,231.987a7.592,7.592,0,0,1-1.238-.091,2.583,2.583,0,0,1-2.133-1.335c-1.393-3.167,4.588-6.531,5.275-6.9a.713.713,0,0,1,.769.057c1.063.8,7.875.8,12.371.537a.717.717,0,0,1,.566,1.2c-3.679,4-11.392,6.535-15.609,6.535m2.253-6.884c-1.873,1.089-4.958,3.423-4.318,4.879.1.218.492.4,1.061.5,2.981.5,10.01-1.435,14.152-4.708-3.209.121-8.862.193-10.9-.671" transform="translate(-174.924 -197.484)"/><path class="d" d="M314.642,202.576s10.391,5.3,13.164,2.368-3.577-8.445-7-8.491a13.281,13.281,0,0,1-6.16,6.123" transform="translate(-241.925 -178.141)"/><path class="m" d="M323.3,204.745c-4.113,0-9.931-2.887-10.771-3.315a.718.718,0,0,1,.045-1.3,12.587,12.587,0,0,0,5.788-5.76.7.7,0,0,1,.66-.42c2.774.037,6.825,2.991,8.027,5.853a3.4,3.4,0,0,1-.515,3.848,4.314,4.314,0,0,1-3.234,1.092m-8.839-3.973c3.9,1.789,9.468,3.55,11.037,1.893a1.973,1.973,0,0,0,.234-2.3,9.992,9.992,0,0,0-6.3-4.94,14.317,14.317,0,0,1-4.972,5.351" transform="translate(-240.139 -176.356)"/><path class="l" d="M261.823,399.555s-6.183-.881-7.879.614c-1.8,1.582-2.27,3.925-1.5,6.56s7.482,3.221,9.379,2.489Z" transform="translate(-197.246 -322.83)"/><path class="m" d="M257.762,408.443a13.928,13.928,0,0,1-5.716-1.162,3.66,3.66,0,0,1-2.076-2.14c-.868-2.97-.259-5.562,1.714-7.3,1.889-1.664,7.785-.88,8.451-.785a.716.716,0,0,1,.614.71v9.662a.717.717,0,0,1-.458.669,7.538,7.538,0,0,1-2.529.345m-1.439-10.221c-1.606,0-3.108.178-3.7.7-1.963,1.729-1.783,4.119-1.286,5.82A2.475,2.475,0,0,0,252.68,406a12.78,12.78,0,0,0,6.641.889V398.4a27.282,27.282,0,0,0-3-.176" transform="translate(-195.458 -321.041)"/><path class="m" d="M238.89,386.451a.717.717,0,0,1-.492-1.236l.8-.76a.716.716,0,0,1,1.044.974,5.176,5.176,0,0,1-.926.882.71.71,0,0,1-.424.14" transform="translate(-187.309 -312.103)"/><path class="q" d="M191.6,356.024l-3.2,3.053c-2.36,2.87-7.7,2.365-11.93-1.132s-5.744-8.658-3.386-11.531l.789-.754.006,0,3.206-3.059a4.821,4.821,0,0,0-.989,2.093c-.606,2.887,1.04,6.68,4.375,9.435,2.889,2.388,6.3,3.383,8.918,2.858a5.384,5.384,0,0,0,2.209-.96" transform="translate(-140.027 -282.386)"/><path class="m" d="M182.208,359.855a12.85,12.85,0,0,1-7.938-3.141c-4.524-3.742-6.087-9.367-3.483-12.54a.73.73,0,0,1,.059-.063l.789-.754.04-.035,3.173-3.027a.715.715,0,0,1,1.043.976,4.1,4.1,0,0,0-.841,1.785c-.569,2.712,1.09,6.223,4.13,8.734,2.628,2.172,5.817,3.21,8.325,2.708a4.662,4.662,0,0,0,1.918-.83.716.716,0,0,1,.923,1.091l-3.168,3.025a6.284,6.284,0,0,1-4.97,2.071m-10.344-14.737c-2.065,2.57-.585,7.265,3.315,10.491,3.917,3.239,8.818,3.791,10.925,1.229a.762.762,0,0,1,.059-.063l.788-.753a12.549,12.549,0,0,1-8.68-3.126c-3.173-2.622-5-6.293-4.732-9.375l-.914.872c-.013.012-.025.024-.039.034Z" transform="translate(-138.278 -280.603)"/><path class="m" d="M174.08,352.964a.711.711,0,0,1-.488-.193.718.718,0,0,1-.062-.981,5.4,5.4,0,0,1,.909-.869.711.711,0,0,1,.974.11.719.719,0,0,1-.052.982l-.789.754a.711.711,0,0,1-.493.2" transform="translate(-141.019 -288.22)"/><path class="r" d="M202.4,350.625l-.8.76-.006.006a5.387,5.387,0,0,1-2.209.96c-2.623.525-6.029-.47-8.919-2.858-3.335-2.755-4.981-6.548-4.375-9.435a4.82,4.82,0,0,1,.989-2.093c2.36-2.873,7.7-2.365,11.928,1.129s5.747,8.658,3.389,11.531" transform="translate(-150.024 -277.752)"/><path class="m" d="M196.187,351.463a12.964,12.964,0,0,1-7.951-3.157c-3.439-2.842-5.3-6.915-4.62-10.136a5.524,5.524,0,0,1,1.137-2.4c2.605-3.17,8.407-2.707,12.933,1.033s6.089,9.368,3.487,12.54l-.059.064-.865.818a6.072,6.072,0,0,1-2.5,1.091,7.94,7.94,0,0,1-1.562.15m-6.438-16.4a4.868,4.868,0,0,0-3.894,1.612,4.1,4.1,0,0,0-.841,1.785c-.569,2.712,1.09,6.223,4.13,8.734,2.628,2.172,5.817,3.21,8.325,2.708a4.678,4.678,0,0,0,1.885-.8l.742-.706c2.063-2.569.583-7.264-3.318-10.49a11.5,11.5,0,0,0-7.028-2.838" transform="translate(-148.242 -276.012)"/><path class="q" d="M229.466,392.466l6.465,4.882a7.9,7.9,0,0,1,1.855-4.234l-5.116-3.707Z" transform="translate(-181.088 -315.775)"/><path class="m" d="M234.144,396.28a.711.711,0,0,1-.429-.144l-6.465-4.882a.718.718,0,0,1-.063-1.092l3.2-3.059a.712.712,0,0,1,.911-.062l5.117,3.707a.718.718,0,0,1,.091,1.083,7.215,7.215,0,0,0-1.654,3.8.714.714,0,0,1-.712.646m-5.361-5.662,4.876,3.683a8.393,8.393,0,0,1,1.3-2.843l-4.01-2.905Z" transform="translate(-179.303 -313.991)"/><path class="m" d="M270.33,253.054h0a1.147,1.147,0,1,1-1.331.921,1.15,1.15,0,0,1,1.331-.921" transform="translate(-209.311 -218.502)"/><path class="m" d="M270.035,255.275a1.183,1.183,0,1,1,1.159-.97,1.175,1.175,0,0,1-1.159.97m0-2.294a1.108,1.108,0,1,0,.2.018,1.137,1.137,0,0,0-.2-.018" transform="translate(-209.222 -218.411)"/><path class="m" d="M285.281,273.956l-.59,1.214a1.167,1.167,0,0,1-1.558.538l-.334-.163a1.174,1.174,0,0,1-.537-1.563l.59-1.214a1.167,1.167,0,0,1,1.558-.538l.334.163a1.174,1.174,0,0,1,.537,1.562" transform="translate(-218.714 -232.109)"/><path class="m" d="M283.551,275.772a1.191,1.191,0,0,1-.524-.122l-.334-.163a1.208,1.208,0,0,1-.553-1.61l.59-1.214a1.2,1.2,0,0,1,1.605-.555l.334.163a1.209,1.209,0,0,1,.553,1.61l-.59,1.214a1.2,1.2,0,0,1-1.081.677m.261-3.714a1.136,1.136,0,0,0-1.019.636l-.59,1.214a1.136,1.136,0,0,0,.52,1.515l.334.164a1.13,1.13,0,0,0,1.51-.522l.59-1.214a1.138,1.138,0,0,0-.52-1.515l-.334-.163a1.118,1.118,0,0,0-.491-.114" transform="translate(-218.623 -232.019)"/><path class="s" d="M259.6,409.324s2.809-1.94,3.757-3.7a8.3,8.3,0,0,0,.766-4.026l2.408.211v8.426s-3.976.913-6.931-.915" transform="translate(-202.612 -324.473)"/><path class="h" d="M333.133,362.305s7.491.83,10.068-2.977,3.259-4.929.632-11.566-5.7-9.709-5.1-13.859S345,338.442,345,338.442s2.772-1.611,2.821-4.538.486-5.451-2.383-9.55c0,0-10.1,1.633-12.394-3.117a64.819,64.819,0,0,0-4.338-5.975s-.013,2.387.085,3.175c.448,3.61,3.174,14.2,3.174,14.2a32.9,32.9,0,0,1,1.216,7.592c.1,3.876-.049,22.079-.049,22.079" transform="translate(-251.97 -262.888)"/><path class="h" d="M396.836,334.388s7.686-1.11,8.478-3.8a.093.093,0,0,1,.175-.015c.82,1.821,5.546,12.71,3.677,17.933-2.043,5.71-8.171,14.361-8.171,14.361l-5.946-10.76s4.487-6.393,4.536-9.321-2.748-8.393-2.748-8.393" transform="translate(-299.354 -273.767)"/><path class="s" d="M258.056,239.355s7.88-3.112,8.828-5.216l-1.512-1.656s-2.464,2.7-8.139,4.57Z" transform="translate(-200.921 -203.842)"/><path class="t" d="M300.9,222.308s-6.923-2.071-7.33-2.749c0,0-4.491,2.23-6.968,2.452l-.892,1.253,1.512,1.656,10.652,2.49L300.9,224.2Z" transform="translate(-221.264 -194.623)"/><path class="h" d="M311.979,231.146s4.086,6.149,9.485,8.638a70.116,70.116,0,0,1,13.862,9.223c1.751,1.61,2.772,9.077-10.214,11.273s-17.8-7.32-17.8-7.32v9.223a15.886,15.886,0,0,0-7.588-5.417s1.022-15.079,12.257-25.62" transform="translate(-231.268 -202.888)"/><path class="m" d="M305.524,261.118a.713.713,0,0,1-.588-.309,15.312,15.312,0,0,0-7.22-5.143.717.717,0,0,1-.493-.731c.042-.627,1.17-15.483,12.482-26.095a.713.713,0,0,1,1.082.126c.04.06,4.042,6.012,9.189,8.384a70.988,70.988,0,0,1,14.047,9.346,5.3,5.3,0,0,1,.994,5.2c-.62,2.1-2.949,5.854-11.572,7.311-6.955,1.177-11.624-.964-14.315-2.967a16.424,16.424,0,0,1-2.891-2.756v6.92a.714.714,0,0,1-.714.717m-6.821-6.627a16.721,16.721,0,0,1,6.107,3.978v-7.292a.714.714,0,0,1,1.352-.324c.188.368,4.759,9.013,17.046,6.938,7.858-1.329,9.913-4.52,10.439-6.3a3.927,3.927,0,0,0-.589-3.733,69.113,69.113,0,0,0-13.678-9.1c-4.488-2.069-8.03-6.481-9.29-8.2-9.207,9.07-11.079,21.329-11.387,24.035" transform="translate(-229.483 -201.106)"/><path class="m" d="M325.05,263.5a.715.715,0,0,1-.689-.908,50.056,50.056,0,0,1,8.825-16.684.715.715,0,1,1,1.1.913,49.57,49.57,0,0,0-8.55,16.153.715.715,0,0,1-.688.526" transform="translate(-248.848 -213.232)"/><path class="d" d="M280.759,175.517s-.948,10.468-14.008,14.054c0,0,7.588.439,13.685-3.074l5.357-4.612a14.47,14.47,0,0,0-5.034-6.368" transform="translate(-207.719 -163.208)"/><path class="m" d="M251.249,285.757c-.609-.692-2.268-.221-3.705,1.052s-2.109,2.866-1.5,3.558,2.268.221,3.7-1.052,2.109-2.866,1.5-3.558" transform="translate(-192.769 -241.614)"/><path class="m" d="M245.092,289.639a1.755,1.755,0,0,1-1.372-.562,2.132,2.132,0,0,1-.14-2.315,6.559,6.559,0,0,1,1.7-2.255c1.789-1.584,3.815-2.009,4.713-.989h0a2.133,2.133,0,0,1,.14,2.315,7.128,7.128,0,0,1-4.144,3.67,3.308,3.308,0,0,1-.9.136m3.537-5.252a4.127,4.127,0,0,0-2.4,1.2,5.192,5.192,0,0,0-1.332,1.739c-.194.46-.169.735-.1.808s.336.13.812,0a5.724,5.724,0,0,0,3.216-2.849c.193-.456.167-.738.105-.808a.409.409,0,0,0-.3-.081" transform="translate(-190.98 -239.85)"/><path class="u" d="M285.715,223.264l.892-1.253a27.106,27.106,0,0,0,6.967-2.452l2.756,1.261-9.1,4.1Z" transform="translate(-221.264 -194.623)"/><path class="m" d="M389.489,404.477a.714.714,0,0,1-.622-.362l-10.652-18.786a.715.715,0,1,1,1.242-.709l10.652,18.786a.718.718,0,0,1-.268.977.709.709,0,0,1-.353.094" transform="translate(-287.264 -312.102)"/><path class="m" d="M295.688,235.564a.721.721,0,0,1-.086-.005c-2.174-.261-9.371-1.229-10.689-2.727-1.159-1.317-1.449-1.593-1.461-1.6a.721.721,0,0,1-.039-1.01.71.71,0,0,1,1-.048c.05.046.362.343,1.568,1.713.655.744,5.59,1.749,9.788,2.253a.717.717,0,0,1-.084,1.428" transform="translate(-219.486 -202.06)"/><path class="m" d="M311.322,310.71h0a1.389,1.389,0,1,1,.353-1.935,1.387,1.387,0,0,1-.353,1.935" transform="translate(-238.002 -257.833)"/><path class="m" d="M310.445,310.9a1.426,1.426,0,1,1,.806-.252,1.421,1.421,0,0,1-.806.252m0-2.781a1.341,1.341,0,0,0-.765.239,1.349,1.349,0,1,0,.765-.239" transform="translate(-237.91 -257.741)"/><path class="m" d="M264.965,250.1a.717.717,0,0,1-.408-1.306l2.58-1.793a.716.716,0,0,1,.814,1.178l-2.58,1.793a.71.71,0,0,1-.406.128" transform="translate(-205.933 -214.104)"/></g></g></g></g></svg>