<svg xmlns="http://www.w3.org/2000/svg" xmlns:xlink="http://www.w3.org/1999/xlink" width="148" height="108" viewBox="0 0 148 108"><defs><style>.a{fill:none;}.b{clip-path:url(#a);}.c{fill:#de2f44;}.d{fill:#9c3331;}.e{opacity:0.6;}.f{clip-path:url(#b);}.g{fill:#f1748b;}.h{opacity:0.5;}.i{clip-path:url(#c);}.j{fill:#b9202d;}.k{clip-path:url(#d);}.l{clip-path:url(#e);}.m{clip-path:url(#f);}.n{fill:#f7aca9;}.o{fill:#29266f;}.p{fill:#8086c1;}.q{fill:#3b61ac;}.r{fill:#f27e80;}.s{fill:#cfd0e9;}.t{fill:#ec1b30;}.u{fill:#ee4676;}.v{fill:#8d1d35;}.w{fill:#9d1f60;}.x{fill:#303086;}.y{fill:#5b67ae;}.z{fill:#fff;}</style><clipPath id="a"><rect class="a" width="148" height="108" rx="8" transform="translate(0.281 0)"/></clipPath><clipPath id="b"><rect class="a" width="150.442" height="111.541"/></clipPath><clipPath id="c"><rect class="a" width="24.534" height="22.863"/></clipPath><clipPath id="d"><rect class="a" width="58.057" height="54.103"/></clipPath><clipPath id="e"><rect class="a" width="47.02" height="45.692"/></clipPath><clipPath id="f"><rect class="a" width="33.44" height="34.27"/></clipPath></defs><g transform="translate(-0.281 0)"><g transform="translate(0 0)"><g class="b"><path class="c" d="M168.584,226.56H23.694a9.46,9.46,0,0,1-9.432-9.432V120.6a9.46,9.46,0,0,1,9.432-9.432H168.584a9.46,9.46,0,0,1,9.432,9.432v96.53a9.46,9.46,0,0,1-9.432,9.432" transform="translate(-21.417 -116.096)"/><path class="d" d="M40.794,104.432v33.657H36.751l-2.637,9.683s-11.426,1.034-14.59,9.682H64.349s-5.1-10.435-15.821-9.682l-2.988-9.683h-3.6V104.432Z" transform="translate(-17.717 -106.031)"/><path class="d" d="M231.986,0V33.656h-4.043l-2.637,9.683s-11.426,1.034-14.59,9.683h44.825s-5.1-10.435-15.821-9.683l-2.988-9.683h-3.6V0Z" transform="translate(-154.275 -31.441)"/><path class="d" d="M405.134,92.773v33.656h-4.043l-2.637,9.683s-11.426,1.034-14.59,9.683H428.69s-5.1-10.435-15.821-9.683l-2.988-9.683h-3.6V92.773Z" transform="translate(-277.944 -97.703)"/><g class="e" transform="translate(0.303 20.359)"><g class="f"><path class="g" d="M70.508,181.272,14.263,249.329v43.484H163.2l1.5-44.913-50.184-66.628Z" transform="translate(-14.263 -181.272)"/></g></g><g class="h" transform="translate(3.949 65.308)"><g class="i"><path class="j" d="M40.758,361.434s10.1-9.2,10.732-14.573c.723-6.174-4.768-11.89-13.014-5.473,0,0-10.195-2.738-11.325,3.249-1.7,8.98,13.607,16.8,13.607,16.8" transform="translate(-27.02 -338.57)"/></g></g><g class="h" transform="translate(109.179 63.139)"><g class="k"><path class="j" d="M412.09,369.393s23.906-21.774,25.4-34.485c1.712-14.61-11.281-28.136-30.8-12.95,0,0-24.124-6.479-26.8,7.688-4.013,21.251,32.2,39.746,32.2,39.746" transform="translate(-379.58 -315.29)"/></g></g><g class="h" transform="translate(-3.772 7.49)"><g class="l"><path class="j" d="M8.658,181.93s27.069-3.959,34.128-12.168c8.114-9.437,5.4-25.071-15.47-23.654,0,0-13.854-15.959-22.434-7.289-12.87,13.005,3.776,43.111,3.776,43.111" transform="translate(0 -136.239)"/></g></g><g class="h" transform="translate(102.384 -8.004)"><g class="m"><path class="j" d="M404.642,114.155s1.687-20.436-3.114-26.98c-5.518-7.521-17.394-8.185-19.889,7.3,0,0-14,7.417-9.117,15.149,7.319,11.6,32.119,4.535,32.119,4.535" transform="translate(-371.489 -82.015)"/></g></g><path class="n" d="M146.739,294.735a11.682,11.682,0,0,1-.386,3.892c-.877,1.263-6.129.874-6.129.874v2.626a12.144,12.144,0,0,1-4.292-.063,29.465,29.465,0,0,1-6.49-1.989l.569-10.107-1.266-2.238a2.907,2.907,0,0,1,.295-3.406,3.143,3.143,0,0,1,2.04-1.137,1.156,1.156,0,0,1,.508.069c1.566.563,3,4.086,3,4.086a3.62,3.62,0,0,1,1.006-4,.713.713,0,0,1,.743-.089.886.886,0,0,0,.254.08h0a40.661,40.661,0,0,0,5.844.083c2.1-.066,3.92-.163,3.92-.163s.429,6.9.386,11.479" transform="translate(-95.429 -233.702)"/><path class="o" d="M136.639,301.22a15.874,15.874,0,0,1-2.617-.236,29.92,29.92,0,0,1-6.668-2.044.714.714,0,0,1-.416-.69l.557-9.9-1.163-2.055a3.608,3.608,0,0,1,.367-4.215,3.875,3.875,0,0,1,2.522-1.392,1.87,1.87,0,0,1,.816.107,4.887,4.887,0,0,1,2.086,1.961,3.4,3.4,0,0,1,1.3-1.8,1.412,1.412,0,0,1,1.449-.119l.046.011.027,0a34.515,34.515,0,0,0,5.681.069c2.064-.065,3.885-.161,3.9-.162a.718.718,0,0,1,.751.669c0,.069.43,6.974.387,11.53h0c-.027,3.156-.262,3.927-.512,4.29-.88,1.266-4.217,1.3-6,1.227v1.869a.714.714,0,0,1-.574.7,9.868,9.868,0,0,1-1.935.178m-8.246-3.389a28.664,28.664,0,0,0,5.866,1.743,12.434,12.434,0,0,0,3.46.157v-2.016a.714.714,0,0,1,.228-.523.706.706,0,0,1,.539-.189c2.581.19,5.147-.076,5.49-.569a12.513,12.513,0,0,0,.258-3.491h0c.034-3.654-.237-8.853-.343-10.724-.726.035-1.929.088-3.227.128a37.606,37.606,0,0,1-5.981-.091l-.028,0a1.658,1.658,0,0,1-.405-.127.434.434,0,0,0-.067.036,2.969,2.969,0,0,0-.711,3.178.714.714,0,0,1-1.342.487c-.545-1.341-1.7-3.37-2.575-3.683a.446.446,0,0,0-.2-.03A2.423,2.423,0,0,0,127.8,283a2.207,2.207,0,0,0-.221,2.6l1.266,2.237a.712.712,0,0,1,.091.392Zm6.486-16.991h0" transform="translate(-93.639 -231.916)"/><path class="p" d="M118.406,342.3S111,355.93,113.332,377.137h24.417s1.07-20.331-8.561-32.783c0,0-3.762,1.439-10.782-2.053" transform="translate(-84.394 -275.927)"/><path class="o" d="M135.977,376.065H111.56a.714.714,0,0,1-.71-.636c-2.332-21.184,5.082-35.117,5.157-35.255a.713.713,0,0,1,.946-.3c6.591,3.278,10.178,2.036,10.214,2.023a.722.722,0,0,1,.815.232c9.682,12.518,8.753,32.417,8.709,33.258a.714.714,0,0,1-.713.677M112.2,374.636h23.082c.071-3.567-.052-20.4-8.145-31.253-1.267.278-4.746.63-10.179-1.917-1.337,2.827-6.575,15.267-4.758,33.171" transform="translate(-82.622 -274.14)"/><path class="p" d="M146.52,385.23s.195,9.533.195,11.09,2.626,2.626,2.626,2.626h14.008V407.8H142.628c-4.767-2.238-6.031-8.464-6.031-8.464V387.078" transform="translate(-101.336 -306.588)"/><path class="o" d="M161.564,406.727H140.844a.715.715,0,0,1-.3-.068c-5.034-2.363-6.373-8.7-6.428-8.968a.7.7,0,0,1-.014-.142V385.292a.714.714,0,1,1,1.429,0v12.179c.147.638,1.461,5.836,5.48,7.827H160.85v-7.424H147.556a.714.714,0,0,1-.27-.053c-.314-.128-3.071-1.309-3.071-3.288,0-1.531-.192-10.98-.194-11.075a.714.714,0,0,1,.7-.729h.015a.714.714,0,0,1,.714.7c.008.39.195,9.558.195,11.1,0,.763,1.314,1.578,2.059,1.912h13.862a.714.714,0,0,1,.714.714v8.852a.714.714,0,0,1-.714.714" transform="translate(-99.551 -304.802)"/><path class="n" d="M230.6,435.184s7-2.53,7.685-1.362-1.167,3.4-.876,4.281,5.545.292,6.615,1.07a3.638,3.638,0,0,1,1.167,3.113c-.1.681-14.981,0-14.981,0Z" transform="translate(-168.202 -341.075)"/><path class="o" d="M239.482,441.522c-1.02,0-2.23-.015-3.616-.047-3.7-.084-7.433-.254-7.471-.256a.714.714,0,0,1-.681-.753l.389-7.1a.715.715,0,0,1,.471-.633c.073-.026,1.8-.649,3.647-1.138,2.981-.79,4.4-.765,4.9.087.57.977.056,2.177-.4,3.235a7.668,7.668,0,0,0-.395,1.049,15.711,15.711,0,0,0,2.525.221c1.943.079,3.169.16,3.811.628a4.358,4.358,0,0,1,1.454,3.791c-.109.762-.929.852-3.073.9q-.686.015-1.561.015m-10.3-1.7c5.782.252,11.921.367,13.533.167a2.766,2.766,0,0,0-.893-2.02,10.768,10.768,0,0,0-3.028-.355c-2.129-.087-3.536-.143-3.844-1.067a3.306,3.306,0,0,1,.459-2.2,4.012,4.012,0,0,0,.509-1.877c-.678-.21-3.491.423-6.413,1.442Z" transform="translate(-166.415 -339.295)"/><path class="n" d="M295.917,453.441s2.043-4.966,9.436-4.234v4.537Z" transform="translate(-215.129 -352.231)"/><path class="o" d="M303.567,452.671h-.023l-9.436-.3a.715.715,0,0,1-.638-.986c.092-.223,2.335-5.445,10.167-4.673a.715.715,0,0,1,.644.711v4.537a.714.714,0,0,1-.714.714m-8.2-1.692,7.481.24V448.08c-4.377-.24-6.552,1.68-7.481,2.9" transform="translate(-213.343 -350.443)"/><path class="q" d="M366.868,356.148s7.491.583,10.312-2.237c0,0,6.128,4.572.875,31.518l-13.424.3s-4.475-14.4-4.378-15.91,6.615-13.673,6.615-13.673" transform="translate(-261.079 -284.219)"/><path class="o" d="M362.847,384.66a.715.715,0,0,1-.682-.5c-.754-2.425-4.509-14.6-4.408-16.168.1-1.588,5.6-11.912,6.7-13.965a.718.718,0,0,1,.685-.375c.072,0,7.2.524,9.751-2.031a.715.715,0,0,1,.932-.067c.265.2,6.428,5.152,1.149,32.228a.714.714,0,0,1-.685.577l-13.425.3h-.016M365.5,355.1c-3.079,5.765-6.236,12.1-6.317,12.981-.045.909,2.1,8.376,4.187,15.137l12.31-.277c4.091-21.4.812-28.185-.353-29.817-2.843,2.119-8.2,2.053-9.828,1.977" transform="translate(-259.295 -282.433)"/><path class="r" d="M353.94,277.315s-2.8,11.187,1.508,16.44,10.142,0,10.142,0l3.162-3.509s.462-6.657-4.888-9.819c0,0-5.3,2.48-9.923-3.113" transform="translate(-255.933 -229.511)"/><path class="o" d="M358.187,295.019c-.16,0-.321-.006-.483-.018a6.511,6.511,0,0,1-4.613-2.578c-4.481-5.468-1.766-16.6-1.648-17.066a.715.715,0,0,1,1.244-.282c4.219,5.108,9.021,2.943,9.069,2.921a.715.715,0,0,1,.666.032c5.665,3.348,5.258,10.194,5.238,10.483a.715.715,0,0,1-.182.429l-3.162,3.509c-.017.019-.034.036-.053.053a10.276,10.276,0,0,1-6.076,2.518m-5.635-17.98c-.563,3.059-1.533,10.6,1.644,14.478a5.14,5.14,0,0,0,3.616,2.059c2.7.2,5.2-1.879,5.47-2.116l2.958-3.283c.011-1.136-.185-6.118-4.259-8.743a9.087,9.087,0,0,1-9.43-2.4" transform="translate(-254.129 -227.726)"/><path class="n" d="M393.231,316.62v11.264s-1.712,1.782-8.055,1.657v-5.583s7.058-4.376,8.055-7.339" transform="translate(-278.881 -257.584)"/><path class="o" d="M384.024,328.476q-.316,0-.647-.007a.715.715,0,0,1-.7-.714v-5.583a.714.714,0,0,1,.338-.607c1.9-1.18,7-4.731,7.754-6.959a.714.714,0,0,1,1.391.228V326.1a.716.716,0,0,1-.2.5c-.191.2-1.987,1.883-7.937,1.883m.081-5.909v4.48c4.257-.011,6.07-.927,6.626-1.294v-8.514a35.165,35.165,0,0,1-6.626,5.327" transform="translate(-277.096 -255.798)"/><path class="o" d="M399.269,251.574s2.982-5.126,7.505-2.208-.721,8.318-.721,8.318-4.148-6.383-6.784-6.11" transform="translate(-288.947 -208.908)"/><path class="o" d="M404.268,256.611a.621.621,0,0,1-.069,0,.713.713,0,0,1-.53-.321c-1.625-2.5-4.6-5.945-6.112-5.789a.715.715,0,0,1-.691-1.07,7.575,7.575,0,0,1,4.214-3.325,5.406,5.406,0,0,1,4.3.876,4.326,4.326,0,0,1,2.138,3.2c.343,3.011-2.608,6.088-2.734,6.218a.713.713,0,0,1-.512.217m-5.532-7.321c2.173.844,4.494,3.852,5.6,5.431.752-.954,1.947-2.757,1.76-4.384a2.93,2.93,0,0,0-1.493-2.156,4.04,4.04,0,0,0-3.18-.69,5.386,5.386,0,0,0-2.685,1.8" transform="translate(-287.162 -207.12)"/><path class="s" d="M299.075,380.464h5.837s3.054,12.646-2.918,12.646c-5.35,0-2.918-12.646-2.918-12.646" transform="translate(-216.99 -303.184)"/><path class="o" d="M300.217,392.039a3.321,3.321,0,0,1-2.673-1.253c-2.648-3.205-1.018-11.875-.947-12.242a.715.715,0,0,1,.7-.58h5.837a.715.715,0,0,1,.694.547c.086.355,2.071,8.741-.572,12.1a3.682,3.682,0,0,1-3.041,1.43M297.9,379.393c-.439,2.68-.958,8.418.748,10.484a1.928,1.928,0,0,0,1.571.734,2.289,2.289,0,0,0,1.918-.885c1.706-2.166.974-7.752.429-10.333Z" transform="translate(-215.214 -301.399)"/><path class="s" d="M237.29,380.464h5.837s3.054,12.646-2.918,12.646c-5.351,0-2.918-12.646-2.918-12.646" transform="translate(-172.861 -303.184)"/><path class="o" d="M238.431,392.039a3.321,3.321,0,0,1-2.673-1.253c-2.648-3.205-1.018-11.875-.947-12.242a.715.715,0,0,1,.7-.58h5.837a.714.714,0,0,1,.694.547c.086.355,2.071,8.741-.572,12.1a3.682,3.682,0,0,1-3.041,1.43m-2.319-12.646c-.44,2.68-.958,8.418.748,10.484a1.928,1.928,0,0,0,1.571.734,2.288,2.288,0,0,0,1.918-.885c1.706-2.166.974-7.752.429-10.333Z" transform="translate(-171.084 -301.399)"/><path class="o" d="M308.88,430.7a.714.714,0,0,1-.714-.714v-7.05a.714.714,0,0,1,1.429,0v7.05a.714.714,0,0,1-.714.714" transform="translate(-223.877 -333.008)"/><path class="o" d="M247.5,427.407a.714.714,0,0,1-.714-.714v-1.356a.714.714,0,1,1,1.429,0v1.356a.714.714,0,0,1-.714.714" transform="translate(-180.034 -334.724)"/><path class="t" d="M341.8,195.829s7.726-1.556,9.631-4.027c2.189-2.84,1.167-7.3-4.815-6.566,0,0-4.232-4.378-6.566-1.751-3.5,3.94,1.751,12.344,1.751,12.344" transform="translate(-245.79 -161.894)"/><path class="o" d="M340.021,194.758a.715.715,0,0,1-.606-.336c-.226-.362-5.493-8.907-1.679-13.2a3.065,3.065,0,0,1,2.3-1.078h.072c2.077,0,4.249,1.867,4.982,2.558,3.713-.349,5.215,1.246,5.786,2.249a5.013,5.013,0,0,1-.664,5.5c-2.009,2.607-9.238,4.126-10.055,4.291a.682.682,0,0,1-.141.014m.094-13.184h-.046a1.667,1.667,0,0,0-1.265.6c-2.688,3.024.606,9.363,1.572,11.064,2.372-.527,7.385-1.937,8.71-3.657a3.648,3.648,0,0,0,.553-3.92c-.713-1.252-2.388-1.784-4.716-1.5a.709.709,0,0,1-.6-.212c-.645-.665-2.646-2.373-4.208-2.373" transform="translate(-244.011 -160.108)"/><path class="t" d="M251.989,329.355s7.726-1.556,9.631-4.027c2.189-2.84,1.167-7.3-4.815-6.566,0,0-4.232-4.378-6.566-1.751-3.5,3.94,1.751,12.344,1.751,12.344" transform="translate(-181.643 -257.264)"/><path class="o" d="M250.21,328.284a.715.715,0,0,1-.606-.336c-.226-.362-5.493-8.907-1.679-13.2a3.067,3.067,0,0,1,2.3-1.078h.072c2.077,0,4.249,1.866,4.983,2.558,3.716-.348,5.215,1.246,5.786,2.249a5.013,5.013,0,0,1-.663,5.5c-2.009,2.607-9.238,4.126-10.055,4.291a.72.72,0,0,1-.141.014M250.3,315.1h-.046a1.668,1.668,0,0,0-1.265.6c-2.688,3.024.606,9.362,1.572,11.063,2.371-.528,7.385-1.937,8.71-3.657a3.648,3.648,0,0,0,.553-3.92c-.713-1.252-2.389-1.785-4.716-1.5a.711.711,0,0,1-.6-.213c-.644-.664-2.645-2.372-4.208-2.372" transform="translate(-179.864 -255.479)"/><path class="u" d="M176.379,299.918s1.571-.966,1.79-1.663c.251-.8-.333-1.7-1.588-1.053,0,0-1.283-.62-1.584.146-.451,1.148,1.382,2.57,1.382,2.57" transform="translate(-128.711 -243.546)"/><path class="o" d="M175.649,299.552l-.157-.121c-.081-.063-2-1.568-1.473-2.9a.842.842,0,0,1,.486-.49,2.017,2.017,0,0,1,1.358.134,1.359,1.359,0,0,1,1.531.066,1.29,1.29,0,0,1,.335,1.388c-.243.776-1.743,1.716-1.913,1.821Zm-.717-3.014a.608.608,0,0,0-.219.035.271.271,0,0,0-.162.167c-.275.7.62,1.666,1.138,2.113.575-.377,1.373-1,1.5-1.4a.735.735,0,0,0-.159-.78c-.218-.185-.583-.161-1.027.066l-.126.065-.128-.061a2.155,2.155,0,0,0-.813-.208" transform="translate(-128 -242.833)"/><path class="t" d="M259.947,239.051s10.1-9.2,10.732-14.573c.724-6.174-4.767-11.89-13.014-5.472,0,0-10.195-2.738-11.326,3.249-1.7,8.98,13.607,16.8,13.607,16.8" transform="translate(-179.625 -185.851)"/><path class="o" d="M258.158,237.973a.712.712,0,0,1-.325-.078c-.644-.329-15.759-8.167-13.984-17.565a4.81,4.81,0,0,1,2.229-3.311c3.075-1.931,8.243-.908,9.637-.582,5.073-3.817,8.579-2.851,10.232-1.92,2.632,1.483,4.066,4.722,3.653,8.252-.653,5.573-10.54,14.635-10.961,15.018a.714.714,0,0,1-.481.186M250.976,217.3a7.946,7.946,0,0,0-4.139.929,3.388,3.388,0,0,0-1.584,2.365c-1.423,7.534,10.348,14.447,12.792,15.792,1.8-1.7,9.61-9.3,10.136-13.785.341-2.91-.838-5.659-2.935-6.84-2.371-1.337-5.543-.621-8.93,2.015a.715.715,0,0,1-.624.126,20.9,20.9,0,0,0-4.716-.6" transform="translate(-177.836 -184.059)"/><path class="t" d="M176.584,192.438s5.6-5.1,5.95-8.079c.4-3.423-2.643-6.592-7.215-3.034,0,0-5.652-1.518-6.279,1.8-.94,4.979,7.544,9.312,7.544,9.312" transform="translate(-124.456 -159.835)"/><path class="o" d="M174.8,191.36a.711.711,0,0,1-.325-.078c-.366-.187-8.949-4.639-7.921-10.081a2.975,2.975,0,0,1,1.38-2.046c1.71-1.074,4.468-.607,5.439-.4,2.894-2.121,4.93-1.546,5.9-1a4.846,4.846,0,0,1,2.185,4.889c-.369,3.152-5.585,7.984-6.179,8.524a.713.713,0,0,1-.481.186M170.83,179.9a4.148,4.148,0,0,0-2.141.464,1.577,1.577,0,0,0-.734,1.1c-.716,3.79,5.074,7.367,6.732,8.306,1.7-1.612,5.109-5.23,5.35-7.289A3.479,3.479,0,0,0,178.57,179c-1.2-.674-2.829-.286-4.6,1.091a.715.715,0,0,1-.624.126,10.731,10.731,0,0,0-2.517-.321" transform="translate(-122.669 -158.042)"/><rect class="v" width="95.285" height="5.485" transform="translate(25.242 101.513)"/><path class="o" d="M195.033,469.682H99.748a.714.714,0,0,1-.714-.714v-5.485a.714.714,0,0,1,.714-.714h95.285a.714.714,0,0,1,.714.714v5.485a.714.714,0,0,1-.714.714m-94.57-1.429h93.856V464.2H100.463Z" transform="translate(-74.507 -361.969)"/><path class="q" d="M352.284,388.974V402.3s.292,5.35-3.21,7.782l-20.137.692v-4.537l15.078-.074a6.433,6.433,0,0,0,2.529-3.475c.486-2.14,0-12.257,0-12.257" transform="translate(-238.713 -309.263)"/><path class="o" d="M327.151,409.7a.714.714,0,0,1-.714-.714v-4.537a.714.714,0,0,1,.711-.714l14.85-.073a5.586,5.586,0,0,0,2.064-2.92c.381-1.677.117-9.277-.017-12.064a.714.714,0,1,1,1.427-.069c.02.417.485,10.24-.017,12.45a7.126,7.126,0,0,1-2.835,3.914.714.714,0,0,1-.387.116l-14.368.07v3.087l19.18-.659c2.952-2.227,2.742-6.989,2.739-7.038,0-.012,0-.026,0-.038V387.188a.714.714,0,1,1,1.429,0V400.5c.021.44.191,5.812-3.517,8.387a.714.714,0,0,1-.383.127l-20.137.692h-.025" transform="translate(-236.927 -307.477)"/><path class="w" d="M239.289,400.208h5.691s.046,4.086-.816,5.18a2.548,2.548,0,0,1-1.738,1.117s-1.678.415-2.554-1.7a10.515,10.515,0,0,1-.583-4.6" transform="translate(-174.65 -317.286)"/><path class="w" d="M300.989,400.208h5.693s.278,3.721-.816,5.18a2.362,2.362,0,0,1-1.824,1.076s-1.592.456-2.467-1.659a10.532,10.532,0,0,1-.586-4.6" transform="translate(-218.719 -317.286)"/><path class="r" d="M232.913,454.932l12.792.462a3.349,3.349,0,0,1,.656,1.727s-11.479.17-13.595-.243Z" transform="translate(-170.024 -356.373)"/><path class="r" d="M300.427,459.48l7.417.229v-1.2a43.112,43.112,0,0,0-7.417.973" transform="translate(-218.35 -358.926)"/><path class="r" d="M404.552,325.273l.073,8.408a5.2,5.2,0,0,1-2.353.912l-.164-7.022a27.227,27.227,0,0,0,2.444-2.3" transform="translate(-290.975 -263.765)"/><path class="n" d="M361.907,285.729a58.453,58.453,0,0,0,1.892,5.595c.881,1.7,4.128,4.518,4.128,4.518a8.217,8.217,0,0,1-1.423,1.366c-.851.632-2.14,1.483-2.14,1.483a5.441,5.441,0,0,1-2.991.73,5.8,5.8,0,0,1-4.329-2.821c-1.386-1.995-2.6-8.245-1.119-13.668a10.607,10.607,0,0,0,5.983,2.8" transform="translate(-257.504 -233.523)"/><path class="u" d="M361.705,304.441s1.571-.966,1.79-1.663c.251-.8-.333-1.7-1.589-1.053,0,0-1.283-.62-1.584.146-.451,1.148,1.382,2.57,1.382,2.57" transform="translate(-261.079 -246.777)"/><path class="o" d="M360.974,304.074l-.157-.121c-.081-.063-2-1.568-1.473-2.9a.841.841,0,0,1,.486-.49,2.013,2.013,0,0,1,1.358.134,1.358,1.358,0,0,1,1.531.065,1.291,1.291,0,0,1,.336,1.388c-.244.776-1.743,1.716-1.913,1.821Zm-.717-3.014a.608.608,0,0,0-.219.035.271.271,0,0,0-.162.167c-.275.7.62,1.666,1.138,2.113a4.378,4.378,0,0,0,1.5-1.4.736.736,0,0,0-.159-.78c-.219-.184-.584-.161-1.027.067l-.126.065-.128-.061a2.155,2.155,0,0,0-.813-.208" transform="translate(-260.367 -246.062)"/><path class="x" d="M352.574,359.179v22.289s-1.32,4.337-2.192,4.54-18.315.373-18.315.373v1.109l18.9-.508A8.433,8.433,0,0,0,353.7,382.2l.079-15.687s.293-.657.75-.657.74.358.772,1.387c.034,1.057-.1,11.053-.17,14.555a12,12,0,0,1-1.787,4.975c-.443.553-.656.545-.656.545l4.632.172s1.68-10.236,1.9-14.619c.219-4.425.2-10.076-1.158-13.071s-1.03-2.171-1.03-2.171Z" transform="translate(-240.948 -286.8)"/><path class="r" d="M142.043,286.109s-4.152,11.09-4.59,17.054a28.469,28.469,0,0,1-5.624-1.587l.535-9.752-1.7-3.137s-.608-2.918,2.067-2.87c0,0,.706-.195,2.189,2.383,0,0,.768,1.751,1.405,1.751s.516-.9.443-1.9.486-2.14,1.07-2.116c0,0,4.061.073,4.207.17" transform="translate(-97.054 -235.581)"/><path class="y" d="M126.418,347.661s-.693,19.473-.365,22.012,2.481,6.661,3.32,6.916,18.021.511,18.021.511v1.788H127.585a10.257,10.257,0,0,1-3.83-3.83,25.551,25.551,0,0,1-1.642-3.94V358.933s-.1-.839-.705-.729-.718.328-.718.656v12.622a20.436,20.436,0,0,0,2.1,4.8,15.361,15.361,0,0,0,2.165,2.6h-9.217s-.754-9.363-.219-13.643,3.064-18.24,5.01-19.5Z" transform="translate(-86.146 -278.383)"/><path class="u" d="M143.609,331.022s-10.657-1.641-10.541-3.708" transform="translate(-98.814 -265.222)"/><path class="o" d="M141.823,329.95a.718.718,0,0,1-.11-.008c-.11-.017-2.728-.423-5.38-1.092-4.115-1.038-5.839-2.044-5.765-3.362a.714.714,0,0,1,1.427.06c.3.821,4.931,2.211,9.936,2.982a.714.714,0,0,1-.108,1.421" transform="translate(-97.028 -263.436)"/><path class="z" d="M251.712,395.513a.283.283,0,0,1-.13-.031.286.286,0,0,1-.124-.385c.965-1.876.485-8.536.48-8.6a.286.286,0,0,1,.264-.306.281.281,0,0,1,.306.264c.021.281.5,6.889-.541,8.907a.286.286,0,0,1-.255.155" transform="translate(-183.352 -307.271)"/><path class="z" d="M305.031,395.262a.286.286,0,0,1-.255-.155c-1.038-2.018-.562-8.626-.541-8.907a.281.281,0,0,1,.306-.264.286.286,0,0,1,.264.306c-.005.067-.485,6.727.48,8.6a.286.286,0,0,1-.254.416" transform="translate(-220.979 -307.092)"/><path class="o" d="M125.849,261.3s-4.475-8.171,1.654-12.938,9.144-.292,11.576,0,6.031.584,6.323,0,3.21,6.42-1.946,8.463h-10.02s-2.335.1-1.751,4.086c0,0-1.849-3.933-3.5-4.155s-3.6,2.307-2.335,4.544" transform="translate(-92.533 -207.273)"/><path class="o" d="M124.111,260.25a.713.713,0,0,1-.622-.363,3.965,3.965,0,0,1-.195-.394c-.816-1.743-3.713-8.991,2.032-13.46,4.892-3.8,8.133-2.065,10.277-.914a6.022,6.022,0,0,0,1.823.769c3.721.447,5.313.355,5.7.231a.759.759,0,0,1,.721-.257c1.03.191,1.5,2.914,1.572,3.633.295,3.022-.928,5.234-3.441,6.23a.714.714,0,0,1-.263.05h-9.995a1.14,1.14,0,0,0-.7.438,3.653,3.653,0,0,0-.367,2.83.714.714,0,0,1-1.353.408c-.68-1.445-2.088-3.636-2.951-3.752a1.737,1.737,0,0,0-1.482.9,2.422,2.422,0,0,0-.219,2.426c.045.09.077.148.089.17a.715.715,0,0,1-.627,1.057m2.135-5.986a2.2,2.2,0,0,1,.295.019c1.03.138,2.013,1.211,2.759,2.295a3.313,3.313,0,0,1,.643-1.3,2.5,2.5,0,0,1,1.726-.929h9.909a3.766,3.766,0,0,0,2.29-2.614,7.3,7.3,0,0,0-.378-4.228c-.812.206-2.507.249-6.233-.2a6.981,6.981,0,0,1-2.328-.928c-2.14-1.148-4.567-2.451-8.724.783-3.309,2.574-3.263,6.227-2.645,8.833.04-.067.083-.133.127-.2a3.238,3.238,0,0,1,2.561-1.532" transform="translate(-90.795 -205.506)"/><path class="o" d="M180.837,322.971a5.517,5.517,0,0,1-2.209-.511.714.714,0,0,1,.572-1.309c1.829.8,2.654.146,2.688.118a.706.706,0,0,1,1,.046.722.722,0,0,1-.047,1.016,3.034,3.034,0,0,1-2.007.641" transform="translate(-131.05 -260.771)"/><path class="o" d="M356.781,324.938a5.364,5.364,0,0,1-2.163-.438.714.714,0,0,1,.572-1.309,5.312,5.312,0,0,0,4.181-.327.714.714,0,0,1,.694,1.249,7.377,7.377,0,0,1-3.284.825" transform="translate(-256.75 -261.981)"/><path class="o" d="M356.172,262.229s4.377,5.156,9.923,3.113c0,0,5.739,4.758,6.42,8.119a10.707,10.707,0,0,0,2.53-9.555c-1.167-6.054-9.322-7.708-9.322-7.708s-5.951-.389-9.55,6.031" transform="translate(-258.165 -214.425)"/><path class="o" d="M370.729,272.386a.705.705,0,0,1-.215-.033.715.715,0,0,1-.485-.539c-.486-2.4-4.153-5.971-5.873-7.453-5.749,1.818-10.127-3.236-10.314-3.458a.715.715,0,0,1-.079-.812c3.776-6.736,9.959-6.412,10.22-6.395a.713.713,0,0,1,.1.013c.352.071,8.638,1.823,9.882,8.273a11.347,11.347,0,0,1-2.74,10.209.715.715,0,0,1-.491.2m-6.42-9.547a.714.714,0,0,1,.456.164c.214.178,4.687,3.913,6.225,7.24a10.252,10.252,0,0,0,1.567-7.991c-1.017-5.275-8.056-6.984-8.715-7.133-.566-.022-5.369-.029-8.571,5.222,1.08,1.088,4.566,4.1,8.79,2.541a.713.713,0,0,1,.247-.044m-9.923-2.4h0Z" transform="translate(-256.38 -212.636)"/><path class="r" d="M389.592,289.64s1.608-1.9,2.766-1.167,1.469,5.122,0,5.261" transform="translate(-282.035 -237.361)"/><path class="o" d="M390.57,292.647a.714.714,0,0,1-.066-1.426c.053-.027.293-.337.335-1.232a4.062,4.062,0,0,0-.649-2.713c-.443-.28-1.432.544-1.84,1.025a.714.714,0,0,1-1.09-.924c.206-.243,2.057-2.34,3.691-1.31,1.236.779,1.532,3.5,1.185,4.951-.315,1.32-1.074,1.585-1.5,1.625-.023,0-.045,0-.068,0" transform="translate(-280.249 -235.561)"/></g></g></g></svg>