<svg xmlns="http://www.w3.org/2000/svg" xmlns:xlink="http://www.w3.org/1999/xlink" width="148" height="108" viewBox="0 0 148 108"><defs><style>.a{fill:#fff;}.b{fill:none;}.c{clip-path:url(#a);}.d{fill:#663995;}.e{opacity:0.4;}.f{clip-path:url(#b);}.g{fill:#779ad0;}.h{opacity:0.6;}.i{clip-path:url(#c);}.j{fill:#f070a7;}.k{fill:#e7f5fd;}.l{fill:#4cc7ec;}.m{fill:#3baae0;}.n{fill:#a6b6d0;}.o{fill:#ee4578;}.p{fill:#29266f;}.q{fill:#6bbf6a;}.r{fill:#d61d69;}.s{fill:#f6e177;}</style><clipPath id="a"><rect class="a" width="148" height="108" rx="8" transform="translate(0.281 0.076)"/></clipPath><clipPath id="b"><rect class="b" width="82.35" height="64.259"/></clipPath><clipPath id="c"><rect class="b" width="55.754" height="93.079"/></clipPath></defs><g class="c" transform="translate(-0.281 -0.076)"><g transform="translate(-9.293 -5.315)"><g transform="translate(0 0)"><path class="d" d="M157.951,118.5H9.843A9.67,9.67,0,0,1,.2,108.859V10.185A9.67,9.67,0,0,1,9.843.544H157.951a9.67,9.67,0,0,1,9.641,9.641v98.674a9.67,9.67,0,0,1-9.641,9.641" transform="translate(-0.202 -0.544)"/><g class="e" transform="translate(42.37 76.326)"><g class="f"><path class="g" d="M145.3,243.24,119.656,307.5h82.35l-24.364-63.69Z" transform="translate(-119.656 -243.24)"/></g></g><g class="h" transform="translate(55.976 77.069)"><g class="i"><path class="j" d="M183.434,245.772l-17.364,93.079h55.754l-16.5-92.254Z" transform="translate(-166.069 -245.772)"/></g></g><path class="k" d="M245.682,245.772a11.586,11.586,0,0,1-11.3,11.465c-6.117,0-11.1-5.251-11.3-11.32Z" transform="translate(-150.394 -168.703)"/><path class="l" d="M187.218,142.766a5.331,5.331,0,0,1-.984,2.988c-4.81,7.2-26.658,12.635-52.886,12.635s-48.073-5.435-52.884-12.635a6.168,6.168,0,0,1-.72-1.432,4.806,4.806,0,0,1-.264-1.556c0-5.38,9.378-10.125,23.649-12.933q-.241.784-.448,1.582a35.235,35.235,0,0,0-.886,4.665c-.069.546-.121,1.1-.164,1.654a170.074,170.074,0,0,0,31.717,2.761,170.79,170.79,0,0,0,31.463-2.711c-.045-.593-.1-1.179-.174-1.762a35.556,35.556,0,0,0-.891-4.657c-.14-.535-.293-1.063-.453-1.585,14.429,2.8,23.926,7.572,23.926,12.986" transform="translate(-48.887 -86.714)"/><path class="m" d="M140.619,153.214a158.564,158.564,0,0,0,30.688-2.783c-9.737,2.806-23.151,4.539-37.959,4.539-26.226,0-48.073-5.435-52.884-12.635a6.181,6.181,0,0,1-.72-1.432,4.815,4.815,0,0,1-.264-1.556c0-5.322,9.175-10.022,23.182-12.839-9.826,2.827-15.911,6.749-15.911,11.082a4.806,4.806,0,0,0,.264,1.556,6.161,6.161,0,0,0,.72,1.432c4.81,7.2,26.658,12.636,52.884,12.636" transform="translate(-48.887 -84.401)"/><path class="k" d="M217.945,78.666a170.789,170.789,0,0,1-31.463,2.711,170.074,170.074,0,0,1-31.717-2.761c.042-.557.095-1.108.164-1.654a35.232,35.232,0,0,1,.886-4.665q.206-.8.448-1.582a33.636,33.636,0,0,1,13.609-18.266,29.99,29.99,0,0,1,32.922-.026,33.625,33.625,0,0,1,13.633,18.24c.161.522.314,1.049.453,1.585a35.561,35.561,0,0,1,.891,4.657c.071.583.129,1.168.174,1.762" transform="translate(-102.103 -28.563)"/><path class="n" d="M194.229,49.382c-.354-.013-.709-.018-1.068-.018A30.045,30.045,0,0,0,176.68,54.3a33.632,33.632,0,0,0-13.609,18.266q-.241.783-.448,1.582a35.183,35.183,0,0,0-.887,4.665c-.063.509-.113,1.023-.156,1.543-2.84-.372-5.546-.809-8.088-1.3.042-.556.095-1.108.164-1.654a35.187,35.187,0,0,1,.886-4.665q.206-.8.449-1.582A33.634,33.634,0,0,1,168.6,52.884a29.971,29.971,0,0,1,25.63-3.5" transform="translate(-101.203 -28.872)"/><path class="o" d="M187.218,187.046c0,8.629-24.118,15.623-53.87,15.623S79.48,195.676,79.48,187.046a4.806,4.806,0,0,1,.264-1.556,6.1,6.1,0,0,1,.72-1.429c4.81,7.2,26.658,12.635,52.884,12.635s48.076-5.435,52.886-12.635a5.329,5.329,0,0,1,.984,2.985" transform="translate(-48.887 -125.082)"/><path class="p" d="M77.359,177.749a.879.879,0,0,1-.879-.879v-7.185a.879.879,0,1,1,1.759,0v7.185a.879.879,0,0,1-.879.879" transform="translate(-46.766 -114.299)"/><path class="p" d="M444.884,176.833a.879.879,0,0,1-.879-.879v-5.973a.879.879,0,1,1,1.759,0v5.973a.879.879,0,0,1-.879.879" transform="translate(-306.554 -114.509)"/><path class="q" d="M246.583,76.548c0,7.932-11.8,13.854-11.8,13.854s-11.8-5.413-11.8-13.346,5.285-14.363,11.8-14.363,11.8,5.922,11.8,13.854" transform="translate(-150.317 -39.293)"/><path class="p" d="M232.658,89.161a.88.88,0,0,1-.367-.08c-.5-.231-12.317-5.745-12.317-14.145s5.69-15.243,12.684-15.243c7.113,0,12.684,6.472,12.684,14.734,0,8.379-11.788,14.389-12.29,14.64a.879.879,0,0,1-.394.093m0-27.709c-6.024,0-10.925,6.049-10.925,13.484,0,6.51,8.93,11.364,10.908,12.359,1.968-1.075,10.942-6.34,10.942-12.868,0-7.276-4.8-12.975-10.925-12.975" transform="translate(-148.196 -37.173)"/><path class="r" d="M241.36,105.219s1.145-9.7-6.666-8.013c0,0-2.424,7.542,6.666,8.013" transform="translate(-158.394 -63.549)"/><path class="p" d="M239.24,103.976h-.046c-3.187-.165-5.443-1.178-6.707-3.009a7.643,7.643,0,0,1-.751-6.152.879.879,0,0,1,.652-.59c2.332-.5,4.2-.131,5.563,1.1,2.759,2.51,2.187,7.653,2.162,7.871a.88.88,0,0,1-.873.776m-5.946-8.131a5.587,5.587,0,0,0,.648,4.132c.831,1.2,2.333,1.924,4.474,2.17.031-1.389-.119-4.131-1.65-5.52a4.052,4.052,0,0,0-3.471-.782" transform="translate(-156.273 -61.427)"/><path class="r" d="M266.771,105.219s-1.145-9.7,6.666-8.013c0,0,2.424,7.542-6.666,8.013" transform="translate(-181.233 -63.549)"/><path class="p" d="M264.648,103.976a.879.879,0,0,1-.873-.776c-.026-.218-.6-5.361,2.162-7.871,1.358-1.236,3.231-1.607,5.563-1.105a.881.881,0,0,1,.652.591,7.644,7.644,0,0,1-.751,6.151c-1.263,1.832-3.52,2.844-6.707,3.009h-.046m4.973-8.208a3.579,3.579,0,0,0-2.5.862c-1.433,1.3-1.689,3.939-1.653,5.517,2.149-.246,3.656-.977,4.486-2.18a5.553,5.553,0,0,0,.643-4.122,6.562,6.562,0,0,0-.976-.077" transform="translate(-179.11 -61.427)"/><path class="p" d="M259.473,138.615h-1.31a1,1,0,0,1-1-1v-.292a1,1,0,0,1,1-1h1.31a1,1,0,0,1,1,1v.292a1,1,0,0,1-1,1" transform="translate(-174.484 -91.341)"/><path class="p" d="M257.352,137.374h-1.31a1.881,1.881,0,0,1-1.878-1.878V135.2a1.88,1.88,0,0,1,1.878-1.878h1.31a1.88,1.88,0,0,1,1.878,1.878v.292a1.88,1.88,0,0,1-1.878,1.878m-1.31-2.289a.123.123,0,0,0-.12.119v.292a.123.123,0,0,0,.12.12h1.31a.123.123,0,0,0,.119-.12V135.2a.122.122,0,0,0-.119-.119Z" transform="translate(-172.363 -89.22)"/><path class="p" d="M185.514,104.89a.9.9,0,0,1-.5-.149.879.879,0,0,1-.244-1.219c.013-.019.026-.038.04-.056.046-.129.117-.351.181-.552.539-1.688,1.66-5.2,4.016-7.507a.879.879,0,0,1,1.231,1.257c-2.044,2-3.075,5.232-3.571,6.785-.285.894-.392,1.228-.861,1.392a.888.888,0,0,1-.293.049" transform="translate(-123.208 -62.239)"/><path class="p" d="M205.027,83.061a.88.88,0,0,1-.692-1.422c.575-.734,2.017-2.476,2.973-2.795a.88.88,0,1,1,.556,1.669,10.756,10.756,0,0,0-2.145,2.211.879.879,0,0,1-.693.337" transform="translate(-137.009 -50.678)"/><path class="p" d="M131.227,154.532c-12.65,0-24.966-1.294-34.679-3.642-12.486-3.019-17.189-6.77-18.936-9.384a7.091,7.091,0,0,1-.821-1.636,5.7,5.7,0,0,1-.311-1.841c0-5.721,8.878-10.75,24.358-13.8l1.443-.284-.433,1.406c-.161.523-.308,1.042-.437,1.543a34.455,34.455,0,0,0-.865,4.551c-.034.27-.064.546-.092.833a170.539,170.539,0,0,0,30.772,2.6,171.32,171.32,0,0,0,30.519-2.549c-.03-.314-.065-.628-.1-.938a34.822,34.822,0,0,0-.869-4.542c-.126-.484-.271-.99-.444-1.549l-.432-1.4,1.44.279c15.658,3.039,24.638,8.088,24.638,13.85a6.2,6.2,0,0,1-1.133,3.478c-1.746,2.614-6.449,6.364-18.935,9.383-9.714,2.349-22.031,3.642-34.682,3.642M99.764,126.247c-13.319,2.809-21.525,7.279-21.525,11.782a3.955,3.955,0,0,0,.217,1.273,5.342,5.342,0,0,0,.619,1.227c2.223,3.327,8.575,6.4,17.886,8.652,9.582,2.317,21.751,3.593,34.266,3.593s24.686-1.276,34.268-3.593c9.311-2.252,15.664-5.324,17.887-8.652a4.485,4.485,0,0,0,.836-2.5c0-4.541-8.312-9.033-21.8-11.839l.057.215a36.608,36.608,0,0,1,.913,4.772c.073.6.133,1.2.178,1.8l.059.782-.77.148a171.608,171.608,0,0,1-31.629,2.727,170.82,170.82,0,0,1-31.885-2.778l-.768-.15.06-.78c.046-.611.1-1.166.168-1.7a36.252,36.252,0,0,1,.908-4.778l.055-.209" transform="translate(-46.766 -82.557)"/><path class="p" d="M131.227,197.964c-14.469,0-28.083-1.638-38.335-4.611-6.13-1.778-16.412-5.686-16.412-11.892a5.7,5.7,0,0,1,.31-1.839,7.008,7.008,0,0,1,.821-1.635l.731-1.094.731,1.094c2.223,3.327,8.575,6.4,17.887,8.652,9.582,2.317,21.751,3.593,34.266,3.593s24.686-1.276,34.268-3.593c9.311-2.252,15.664-5.324,17.887-8.652l.731-1.093.731,1.093a6.2,6.2,0,0,1,1.133,3.475c0,6.206-10.283,10.115-16.413,11.892-10.252,2.973-23.867,4.611-38.337,4.611M78.493,180.081c-.013.035-.025.071-.037.106a3.957,3.957,0,0,0-.217,1.274c0,7.12,21.292,14.744,52.988,14.744s52.991-7.624,52.991-14.744a3.961,3.961,0,0,0-.256-1.379c-2.278,2.5-7.256,5.655-18.054,8.266-9.714,2.349-22.031,3.642-34.682,3.642s-24.966-1.294-34.679-3.642c-10.8-2.611-15.776-5.77-18.054-8.267" transform="translate(-46.766 -120.016)"/><path class="p" d="M184.5,81.456a170.82,170.82,0,0,1-31.885-2.777l-.768-.15.06-.78c.046-.611.1-1.166.168-1.7a36.2,36.2,0,0,1,.908-4.778c.135-.525.29-1.071.459-1.619a34.5,34.5,0,0,1,13.969-18.744,30.87,30.87,0,0,1,33.881-.027A34.5,34.5,0,0,1,215.286,69.6c.181.586.333,1.117.465,1.625A36.56,36.56,0,0,1,216.664,76c.073.6.133,1.2.178,1.8l.059.782-.77.148A171.581,171.581,0,0,1,184.5,81.456M153.73,77.1A170.565,170.565,0,0,0,184.5,79.7a171.317,171.317,0,0,0,30.519-2.549c-.03-.314-.065-.628-.1-.938a34.833,34.833,0,0,0-.869-4.542c-.126-.483-.271-.99-.444-1.548a32.734,32.734,0,0,0-13.271-17.761,29.11,29.11,0,0,0-31.963.025,32.74,32.74,0,0,0-13.249,17.79c-.161.521-.308,1.04-.437,1.541a34.461,34.461,0,0,0-.865,4.552c-.034.27-.064.546-.092.833" transform="translate(-100.041 -27.376)"/><path class="q" d="M246.016,147.213v5.064l9.3-.047.176-4.911-4.526,2.865Z" transform="translate(-166.604 -99.036)"/><path class="p" d="M243.9,151.035a.879.879,0,0,1-.879-.879v-5.064a.879.879,0,0,1,1.332-.754l4.48,2.693,4.068-2.576a.879.879,0,0,1,1.349.775l-.176,4.911a.879.879,0,0,1-.874.848l-9.3.047Zm.879-4.389v2.626l7.567-.038.086-2.4-3.117,1.973a.881.881,0,0,1-.924.011Z" transform="translate(-164.483 -96.915)"/><path class="m" d="M417.457,58.509a2.336,2.336,0,1,1-2.336-2.336,2.336,2.336,0,0,1,2.336,2.336" transform="translate(-284.486 -34.684)"/><path class="p" d="M413.353,59.811a3.069,3.069,0,1,1,3.069-3.069,3.072,3.072,0,0,1-3.069,3.069m0-4.672a1.6,1.6,0,1,0,1.6,1.6,1.605,1.605,0,0,0-1.6-1.6" transform="translate(-282.718 -32.917)"/><path class="m" d="M128.82,311.257a2.336,2.336,0,1,1-2.336-2.336,2.336,2.336,0,0,1,2.336,2.336" transform="translate(-80.461 -213.341)"/><path class="p" d="M124.717,312.56a3.069,3.069,0,1,1,3.069-3.069,3.073,3.073,0,0,1-3.069,3.069m0-4.672a1.6,1.6,0,1,0,1.6,1.6,1.605,1.605,0,0,0-1.6-1.6" transform="translate(-78.694 -211.574)"/><path class="m" d="M120.851,335.526a2.336,2.336,0,1,1-2.336-2.336,2.336,2.336,0,0,1,2.336,2.336" transform="translate(-74.828 -230.495)"/><path class="p" d="M116.747,336.828a3.069,3.069,0,1,1,3.069-3.069,3.073,3.073,0,0,1-3.069,3.069m0-4.672a1.6,1.6,0,1,0,1.6,1.6,1.605,1.605,0,0,0-1.6-1.6" transform="translate(-73.06 -228.728)"/><path class="m" d="M392.1,61.473a2.336,2.336,0,1,1-2.336-2.336,2.336,2.336,0,0,1,2.336,2.336" transform="translate(-266.559 -36.779)"/><path class="p" d="M387.993,62.775a3.069,3.069,0,1,1,3.069-3.069,3.072,3.072,0,0,1-3.069,3.069m0-4.672a1.6,1.6,0,1,0,1.6,1.6,1.605,1.605,0,0,0-1.6-1.6" transform="translate(-264.792 -35.012)"/><path class="m" d="M97.829,43.476a2.222,2.222,0,1,1-2.222-2.222,2.222,2.222,0,0,1,2.222,2.222" transform="translate(-58.716 -24.138)"/><path class="p" d="M93.84,44.664A2.955,2.955,0,1,1,96.8,41.709a2.958,2.958,0,0,1-2.955,2.955m0-4.444a1.489,1.489,0,1,0,1.489,1.489A1.491,1.491,0,0,0,93.84,40.22" transform="translate(-56.949 -22.371)"/><path class="p" d="M388.525,117.547a.876.876,0,0,1-.414-.1c-2.522-1.351-6.2-1.368-7.968-1.376-1.054,0-1.371-.006-1.669-.405a.906.906,0,0,1-.142-.784.88.88,0,0,1,1.091-.6l.063.021c.151.006.422.008.667.009,1.91.009,5.884.027,8.79,1.585a.88.88,0,0,1-.416,1.655" transform="translate(-260.107 -75.731)"/><path class="p" d="M421.586,125.842a.878.878,0,0,1-.714-.364,10.761,10.761,0,0,0-2.751-1.385.88.88,0,0,1,.621-1.646c.872.329,2.966,1.184,3.556,2a.879.879,0,0,1-.712,1.394" transform="translate(-287.855 -81.49)"/><path class="s" d="M106.92,68.128s4.531-.421,5.286-3.986c0,0,1.416,3.7,4.436,3.986,0,0-5.38,3.115-4.861,5.569,0,0-.708-4.531-4.861-5.569" transform="translate(-68.283 -40.317)"/><path class="p" d="M110.014,72.663a.733.733,0,0,1-.716-.581c-.009-.043-.017-.086-.023-.129-.121-.617-.94-4.042-4.3-4.881a.733.733,0,0,1,.109-1.441c.064-.006,4.007-.432,4.638-3.408a.733.733,0,0,1,1.4-.11c.012.031,1.3,3.281,3.821,3.518a.733.733,0,0,1,.3,1.364c-2.009,1.165-4.7,3.378-4.523,4.717.01.055.016.091.018.106a.733.733,0,0,1-.725.846m-2.606-6.116a7.431,7.431,0,0,1,2.576,3.007,12.76,12.76,0,0,1,3.149-2.948,6.95,6.95,0,0,1-2.6-2.488,6.172,6.172,0,0,1-3.121,2.429" transform="translate(-66.516 -38.55)"/><path class="s" d="M348.058,38.5s4.531-.421,5.286-3.986c0,0,1.416,3.7,4.436,3.986,0,0-5.38,3.115-4.862,5.569,0,0-.708-4.531-4.861-5.569" transform="translate(-238.733 -19.372)"/><path class="p" d="M351.151,43.033a.733.733,0,0,1-.716-.581c-.009-.043-.017-.086-.023-.129-.121-.617-.939-4.041-4.3-4.881A.733.733,0,0,1,346.221,36c.066-.007,4.008-.432,4.638-3.408a.733.733,0,0,1,1.4-.11c.012.032,1.3,3.282,3.82,3.518a.733.733,0,0,1,.3,1.364c-2.009,1.165-4.7,3.377-4.523,4.717.011.055.016.091.018.106a.733.733,0,0,1-.591.834.741.741,0,0,1-.133.012m-2.606-6.116a7.429,7.429,0,0,1,2.576,3.006,12.765,12.765,0,0,1,3.148-2.948,6.949,6.949,0,0,1-2.6-2.488,6.174,6.174,0,0,1-3.121,2.43" transform="translate(-236.965 -17.605)"/><path class="s" d="M378.81,324.233s4.531-.421,5.286-3.986c0,0,1.416,3.7,4.436,3.986,0,0-5.38,3.115-4.861,5.569,0,0-.708-4.531-4.861-5.569" transform="translate(-260.47 -221.346)"/><path class="p" d="M381.9,328.769a.733.733,0,0,1-.716-.581c-.009-.043-.017-.086-.023-.129-.121-.616-.939-4.042-4.3-4.881a.733.733,0,0,1,.109-1.441c.064-.006,4.007-.431,4.638-3.408a.733.733,0,0,1,1.4-.11c.012.031,1.3,3.281,3.821,3.518a.733.733,0,0,1,.3,1.364c-2.009,1.165-4.7,3.378-4.523,4.717.011.055.016.091.018.106a.733.733,0,0,1-.591.834.718.718,0,0,1-.133.012m-2.606-6.116a7.432,7.432,0,0,1,2.576,3.007,12.767,12.767,0,0,1,3.149-2.949,6.95,6.95,0,0,1-2.6-2.487,6.173,6.173,0,0,1-3.121,2.429" transform="translate(-258.703 -219.58)"/><path class="m" d="M91.826,228.179s-11.913,21.657-12.668,24.065,1.837,3.62,4.076,2.408,19.612-23.594,19.612-23.594-9.719-.667-11.021-2.879" transform="translate(-48.565 -156.268)"/><path class="m" d="M365.643,231.487l11.183-2.911,12.668,24.065s.873,4.572-3.913,2.884Z" transform="translate(-251.163 -156.548)"/><path class="p" d="M79.31,254.282a3.525,3.525,0,0,1-2.258-.757,2.943,2.943,0,0,1-.846-3.269c.759-2.422,11.513-22,12.736-24.226a.88.88,0,0,1,.758-.456h.013a.879.879,0,0,1,.758.434c.513.871,4.6,2.054,10.323,2.448a.88.88,0,0,1,.635,1.417c-2.92,3.762-17.6,22.591-19.889,23.828a4.717,4.717,0,0,1-2.23.581m10.639-26.43c-3.618,6.595-11.5,21.12-12.064,22.931a1.188,1.188,0,0,0,.286,1.385,2.344,2.344,0,0,0,2.532-.014c1.452-.8,11.616-13.456,18.34-22.08-2.682-.264-7-.883-9.094-2.222" transform="translate(-46.452 -154.427)"/><path class="p" d="M385.317,254.656a6.559,6.559,0,0,1-2.149-.424.878.878,0,0,1-.384-.268l-19.937-24.038a.879.879,0,0,1,.455-1.412l11.183-2.911a.88.88,0,0,1,1,.441l12.668,24.065a.888.888,0,0,1,.086.245c.047.247.421,2.449-.964,3.64a2.9,2.9,0,0,1-1.956.661m-1.339-2.007c1.017.325,1.774.332,2.147.013.48-.41.461-1.407.4-1.864l-12.275-23.318-9.17,2.386Z" transform="translate(-249.043 -154.427)"/></g></g></g></svg>