<svg xmlns="http://www.w3.org/2000/svg" xmlns:xlink="http://www.w3.org/1999/xlink" width="148" height="108" viewBox="0 0 148 108"><defs><style>.a{fill:none;}.b{clip-path:url(#a);}.c{fill:#0578f5;}.d{fill:#d61d69;}.e{fill:#f9f2f7;}.f{fill:#e9dcec;}.g{fill:#4158a6;}.h{fill:#5467af;}.i{fill:#6e7dbc;}.j{fill:#8893c9;}.k{fill:#231f20;}.l{fill:#29266f;}.m{opacity:0.6;}.n{clip-path:url(#b);}.o{fill:#02b2fe;}.p{opacity:0.4;}.q{clip-path:url(#c);}.r{fill:#0555f0;}.s{fill:#02daff;}</style><clipPath id="a"><rect class="a" width="148" height="108" rx="8" transform="translate(0.188 0)"/></clipPath><clipPath id="b"><rect class="a" width="76.941" height="82.938"/></clipPath><clipPath id="c"><rect class="a" width="130.569" height="86.469"/></clipPath></defs><g transform="translate(-0.188 0)"><g transform="translate(0 0)"><g class="b"><path class="c" d="M218.033,159.816H78.857a9.087,9.087,0,0,1-9.06-9.06V58.033a9.087,9.087,0,0,1,9.06-9.06H218.033a9.087,9.087,0,0,1,9.06,9.06v92.723a9.087,9.087,0,0,1-9.06,9.06" transform="translate(-72.533 -50.318)"/><path class="d" d="M423.947,208.627h0a2.726,2.726,0,0,1-2.495-2.349,2.243,2.243,0,0,1,.1-1.175l2.347-6.537a.268.268,0,0,1,.521.011l2.077,6.651a2.189,2.189,0,0,1,.047,1.136,2.729,2.729,0,0,1-2.6,2.263" transform="translate(-320.779 -155.14)"/><path class="e" d="M305.94,93.759l-2.163,3.535,21.031,12.873a15.635,15.635,0,0,0,11.927,1.854Z" transform="translate(-236.825 -80.486)"/><path class="f" d="M317.355,59.4l-6.024,9.839L342.126,87.5a15.641,15.641,0,0,0,9.635-7.043Z" transform="translate(-242.216 -55.964)"/><path class="g" d="M290.479,43.684l-8.329,13.607a2.853,2.853,0,0,0,.944,3.923l.875.536a2.854,2.854,0,0,0,3.923-.944L296.221,47.2a2.853,2.853,0,0,0-.944-3.923l-.875-.535a2.853,2.853,0,0,0-3.923.944" transform="translate(-221.092 -43.776)"/><path class="h" d="M290.659,44.623,282.465,58.01l.526.322a3.429,3.429,0,0,0,4.716-1.135L295.9,43.81l-.526-.322a3.43,3.43,0,0,0-4.716,1.135" transform="translate(-221.616 -44.25)"/><path class="i" d="M223.248,3.856l-6.024,9.12-.34.538L215.312,16l9.574,6.048a2.716,2.716,0,0,0,3.222-.182c.317-.277,1.128-1.165,2.144-.894,2.065.551,7.309,4.021,7.309,4.021l1.572-2.489,3.891-6.16Z" transform="translate(-173.692 -16.326)"/><path class="j" d="M227.065,3.675l-6.024,9.12-.34.538,5.409,3.416c1.409.89,3.113,1.094,4.122.387a2.58,2.58,0,0,1,2.6-.606c2.649.95,9.549,5.424,10.12,5.8l3.891-6.16Z" transform="translate(-177.537 -16.197)"/><rect class="k" width="0.286" height="0.205" transform="translate(68.865 13.291) rotate(-59.324)"/><path class="l" d="M314.068,78.558l-.415-.253L300.97,70.542,310.054,55.7l26.858,16.439-.423.726c-.072.123-1.786,3.013-4.575,3.157a13.766,13.766,0,0,1-4.624-.624c-.433-.115-.843-.224-1.272-.318-1.607-.354-2.994-.659-6.791,1.057-3.848,1.74-4.72,2.191-4.728,2.195Zm-10.736-8.585,10.814,6.619c.579-.279,1.833-.87,4.374-2.019,4.006-1.811,5.787-1.627,7.867-1.169.466.1.913.221,1.345.336a12.217,12.217,0,0,0,4.094.569,4.058,4.058,0,0,0,2.684-1.624l-23.887-14.62Z" transform="translate(-234.822 -53.327)"/><path class="l" d="M284.659,61.463a3.737,3.737,0,0,1-1.956-.554l-.8-.488a3.761,3.761,0,0,1-1.464-4.748,3.838,3.838,0,0,1,.219-.416l7.777-12.706.505-.824a3.83,3.83,0,0,1,.627-.774l.081-.072a3.959,3.959,0,0,1,4.521-.361l.064.038.673.412c.056.033.118.074.179.117a3.758,3.758,0,0,1,1.064,5.05l-8.282,13.53a3.73,3.73,0,0,1-2.325,1.691,3.794,3.794,0,0,1-.885.105m5.88-19.028-8.411,13.717a2.1,2.1,0,0,0-.12.227,2.04,2.04,0,0,0,.795,2.576l.8.488a2.038,2.038,0,0,0,2.8-.673l8.282-13.53a2.04,2.04,0,0,0-.579-2.742c-.031-.021-.058-.04-.087-.057l-.694-.425a2.239,2.239,0,0,0-2.57.18l-.011.01a2.069,2.069,0,0,0-.206.229" transform="translate(-219.935 -42.104)"/><path class="l" d="M310.655,46.159,309.2,45.25l.914-1.49,1.475.9Z" transform="translate(-240.693 -44.805)"/><path class="l" d="M329.11,45.523l-.817-.565-.058-.038L328.2,44.9l.434-.719-.618-.309.62.306.452-.748.052.031.768.47Z" transform="translate(-254.124 -44.567)"/><path class="l" d="M236.184,23.7l-.732-.484c-1.426-.944-5.475-3.485-7.057-3.907-.418-.111-.853.247-1.226.592-.05.046-.093.086-.131.119a3.583,3.583,0,0,1-4.246.261l-10.3-6.507,2.37-3.754,6.5-9.836,21.188,13.382-.5.735c-.015.021-.028.043-.042.065l-2.284,3.731Zm-7.96-6.133a2.371,2.371,0,0,1,.614.082c1.732.462,5.256,2.648,6.826,3.656l2.6-4.115,1.9-3.1-18.3-11.555L216.3,10.95l-1.443,2.287,8.848,5.589a1.856,1.856,0,0,0,2.2-.1l.1-.087a3.382,3.382,0,0,1,2.22-1.072" transform="translate(-171.679 -13.704)"/><path class="l" d="M303.934,49.2l-1.459-.907,2.284-3.731c.028-.046.056-.09.086-.134l.46-.676,1.48.914-.927,1.488Z" transform="translate(-235.896 -44.796)"/><path class="l" d="M245.481,14.828l-.737-.459-.027.043L225.7,2.4l-5.561,8.417-.771,1.22-1.5-.934.8-1.27L225.169,0l20.507,12.952.69.46,0,.007.024.015-.471.708Z" transform="translate(-175.516 -13.574)"/><rect class="l" width="1.718" height="0.206" transform="translate(68.877 14.03) rotate(-59.324)"/><path class="l" d="M421.252,206.444h-.084a3.875,3.875,0,0,1-3.708-3.027,2.8,2.8,0,0,1,.153-1.69l2.689-6.53a1.175,1.175,0,0,1,1.092-.732h.026a1.175,1.175,0,0,1,1.085.779l2.419,6.657a2.758,2.758,0,0,1,.082,1.647,3.872,3.872,0,0,1-3.755,2.9m.112-9.314-2.162,5.25a1.094,1.094,0,0,0-.066.658,2.161,2.161,0,0,0,2.067,1.687h0a2.164,2.164,0,0,0,2.141-1.614,1.043,1.043,0,0,0-.034-.624Z" transform="translate(-317.909 -152.355)"/><path class="d" d="M368.474,114.14l8.619,5.383a11.821,11.821,0,0,1-4.31,4.613l.189,8.526a2.845,2.845,0,0,1-2.591,2.725,2.267,2.267,0,0,1-2.782-1.921l-.141-3.44a2.871,2.871,0,0,0-5.3-.134v10.723a2.618,2.618,0,0,1-2.86,2.279c-2.547-.179-2.422-2.279-2.422-2.279V127.7s-.147-2.294-.746-2.642-9.3-5.783-9.3-5.783,3.635-1.732,4.772-2.216,2.767-1.646,5.278-1.646,11.163-.271,11.6-1.275" transform="translate(-267.549 -95.032)"/><path class="l" d="M355.12,140.626c-.106,0-.215,0-.328-.012a3.13,3.13,0,0,1-3.221-3.157V124.6a6.387,6.387,0,0,0-.392-1.971c-1.013-.608-8.908-5.538-9.254-5.754l-1.329-.83,1.415-.674c.149-.071,3.664-1.745,4.805-2.231.215-.091.458-.214.739-.356a10.232,10.232,0,0,1,4.876-1.359c3.695,0,9.765-.361,10.873-.91l.329-.764,10.122,6.322-.337.694a12.8,12.8,0,0,1-4.213,4.718l.178,8.044v.017a3.671,3.671,0,0,1-3.345,3.562,3.366,3.366,0,0,1-2.6-.619,3.232,3.232,0,0,1-1.141-2.065l0-.055-.134-3.28a1.882,1.882,0,0,0-1.85-1.174,2.1,2.1,0,0,0-1.738,1.023l-.007,10.653a3.415,3.415,0,0,1-3.444,3.039m-10.951-24.382c3.128,1.952,7.544,4.7,7.946,4.937.823.478,1.092,2.075,1.172,3.33l0,.055v12.964c-.008.285.083,1.262,1.624,1.371a1.714,1.714,0,0,0,1.941-1.484v-10.8l.044-.132a3.7,3.7,0,0,1,3.222-2.28,3.646,3.646,0,0,1,3.694,2.378l.05.131.145,3.545c.059.412.357,1.322,1.821,1.14a1.944,1.944,0,0,0,1.837-1.88l-.2-9.015.45-.253a10.626,10.626,0,0,0,3.575-3.572l-7.418-4.633a16.777,16.777,0,0,1-5,.828c-2.532.194-5.36.264-6.643.264a8.634,8.634,0,0,0-4.1,1.174c-.3.149-.575.29-.841.4-.654.279-2.176.99-3.32,1.529" transform="translate(-263.102 -91.896)"/><g class="m" transform="translate(-20.032 -7.485)"><g class="n"><path class="o" d="M10.835,21.268,76.941,49.577,64.449,104.206,0,97.427Z" transform="translate(0 -21.268)"/></g></g><g class="p" transform="translate(48.501 -9.226)"><g transform="translate(0 0)"><g class="q"><path class="r" d="M239.339,46.91l87.324-31.722,43.245,48.057-124.64,38.412Z" transform="translate(-239.34 -15.187)"/></g></g></g><path class="s" d="M219.859,148.1a28.6,28.6,0,0,1-57.19,0,27.915,27.915,0,0,1,5.923-17.22c.027-.032.054-.064.08-.1a28.743,28.743,0,0,1,50.266,10.181,27.971,27.971,0,0,1,.921,7.139" transform="translate(-136.122 -99.109)"/><path class="i" d="M479.465,287.537l-8.248,15.5,10.546,6.543-6.273,2.667-22.959-13.061a4.363,4.363,0,0,1-2.216-4.686c.148-.66.779-2.486-.383-3.711-2.362-2.492-11.281-7.23-11.281-7.23l2.307-4.129,5.708-10.217Z" transform="translate(-333.079 -205.699)"/><path class="j" d="M500.13,293.926l-12.25,17.587-20.052-12.6c-2.336-1.305-3.933-3.554-3.707-5.52a4.144,4.144,0,0,0-1.14-4.134c-3.373-3.008-14.981-9.314-15.942-9.835l5.708-10.217Z" transform="translate(-339.065 -205.699)"/><rect class="k" width="0.299" height="0.33" transform="matrix(0.512, -0.859, 0.859, 0.512, 94.977, 74.115)"/><path class="e" d="M278.8,232.4l-3.329,5.764-34.3-19.8a25.114,25.114,0,0,1-11.767-15.409Z" transform="translate(-183.751 -158.414)"/><path class="f" d="M286,169l-9.264,16.049-49.4-29.448a25.118,25.118,0,0,1,2.548-19Z" transform="translate(-181.68 -111.061)"/><path class="g" d="M410.224,249.35l-12.871,22.293a4.524,4.524,0,0,1-6.18,1.656l-1.528-.882a4.524,4.524,0,0,1-1.656-6.181l12.871-22.293a4.524,4.524,0,0,1,6.181-1.656l1.528.882a4.525,4.525,0,0,1,1.656,6.181" transform="translate(-296.491 -186.052)"/><path class="h" d="M423.144,251.533,410.5,273.428l-.919-.531a5.439,5.439,0,0,1-1.991-7.43l12.641-21.895.918.53a5.439,5.439,0,0,1,1.991,7.43" transform="translate(-310.394 -187.403)"/><path class="l" d="M311.3,208.595,290.591,196.64l-.008-.508c0-.014-.032-1.581-.532-8.383-.5-6.834-2.046-8.614-3.834-10.675-.47-.542-.963-1.063-1.44-1.567a21.754,21.754,0,0,1-4.343-5.924c-1.825-3.813.809-8.231.922-8.417l.455-.749,42.974,24.812Zm-18.941-13,18.286,10.557,11.7-20.261-39.848-23.007c-.573,1.259-1.457,3.809-.44,5.932a20,20,0,0,0,4.028,5.466c.49.518,1,1.053,1.492,1.625,2.179,2.512,3.761,4.822,4.268,11.717.361,4.906.479,7.095.518,7.972" transform="translate(-219.708 -128.058)"/><path class="l" d="M389.645,271.107a5.526,5.526,0,0,1-2.769-.742l-1.3-.752a5.549,5.549,0,0,1-2.033-7.582l12.74-22.067a5.554,5.554,0,0,1,7.311-2.179c.093.046.187.1.281.153l1.143.661a5.875,5.875,0,0,1,2.775,6.174l-.032.137a5.654,5.654,0,0,1-.561,1.357l-.51.878,0,0-.257.46-11.97,20.732a5.551,5.551,0,0,1-4.813,2.773m11.447-32.127a3.759,3.759,0,0,0-3.259,1.88l-12.74,22.068a3.758,3.758,0,0,0,1.377,5.134l1.3.752a3.761,3.761,0,0,0,5.136-1.376l11.962-20.719.986-1.767a3.988,3.988,0,0,0,.17-.493l.01-.043a4.081,4.081,0,0,0-1.947-4.284l-1.118-.646c-.066-.039-.123-.07-.182-.1a3.751,3.751,0,0,0-1.7-.405" transform="translate(-293.217 -182.845)"/><path class="l" d="M461.421,266.326l-1.559-.883L461,263.409l1.588.9Z" transform="translate(-348.217 -201.559)"/><path class="l" d="M460.851,248.287,459.1,247.9a4.081,4.081,0,0,0-1.944-4.3l.9-1.55.179.1a5.573,5.573,0,0,1,2.615,6.131" transform="translate(-346.287 -186.318)"/><path class="l" d="M450.483,240.008l-.056-.033c-.042-.023-.083-.045-.126-.067l-.929-.464,1.066-1.523.876.5.072.042-.463.793.516.361-.519-.357Z" transform="translate(-340.73 -183.37)"/><path class="l" d="M471.107,309.174l-.28-.162-23.423-13.5a5.265,5.265,0,0,1-2.643-5.658c.017-.075.039-.164.064-.263.232-.917.425-1.952-.223-2.636-2.234-2.357-10.964-7.008-11.052-7.055l-.808-.429,4.942-8.845,3.519-6.1c.023-.04.048-.084.071-.129l.418-.807,48.5,26.026-11.145,14.989-.2,2.008-2.812,1.706ZM435.2,278.753c2.28,1.244,8.676,4.828,10.707,6.97,1.381,1.457.875,3.455.659,4.308-.021.082-.039.154-.053.215a3.468,3.468,0,0,0,1.779,3.709L471.441,307.3l3.96-.684,1.758-1.067.161-1.611,10.2-13.719-45.1-24.2-3.173,5.5Z" transform="translate(-328.863 -201.69)"/><path class="l" d="M451.56,271.381,450,270.5l3.957-7.086,1.607.911-.382.772c-.035.067-.072.133-.109.2Z" transform="translate(-341.18 -201.559)"/><rect class="l" width="1.791" height="0.33" transform="matrix(0.512, -0.859, 0.859, 0.512, 94.131, 74.318)"/><path class="d" d="M244.579,145.076s-2.517,4.145-.881,7.566,3.719,5.058,5.653,7.289,3.54,4.247,4.051,11.2.534,8.434.534,8.434l-7.472-4.314s-1.923,0-2.072,1.69-.1,11.8-.1,11.8a2.513,2.513,0,0,1-2.628,2.529c-2.678.1-2.727-3.074-2.727-3.074V175.451s.248-3.173-2.479-3.173a2.543,2.543,0,0,0-2.727,2.529v5.008s-.645,2.612-2.926,2.347a2.937,2.937,0,0,1-2.578-2.447l.084-21.216s-4.907-12.1,1.6-21.894Z" transform="translate(-181.702 -111.064)"/><path class="l" d="M237.7,187.867a3.2,3.2,0,0,1-2.257-.856,4.711,4.711,0,0,1-1.25-3.1V171.116l0-.035a2.755,2.755,0,0,0-.509-1.814,1.388,1.388,0,0,0-1.076-.393,1.619,1.619,0,0,0-1.831,1.641v5.109l-.026.106c-.289,1.168-1.475,3.305-3.9,3.021a3.811,3.811,0,0,1-3.361-3.214l-.009-.062.083-21.109,0-.007c-.011-.029-.025-.066-.039-.1a26.529,26.529,0,0,1-.809-2.692,31.157,31.157,0,0,1-.923-7.334v-.052a26.133,26.133,0,0,1,3.479-12.3l.074-.123.576-.556,16.049,9.263-.475.783c-.022.036-2.242,3.782-.838,6.715a20,20,0,0,0,4.028,5.466c.49.518,1,1.053,1.492,1.625,2.179,2.511,3.761,4.822,4.268,11.717s.535,8.424.536,8.486l.025,1.58-8.6-4.965a1,1,0,0,0-.971.855c-.144,1.625-.1,11.617-.1,11.718a3.4,3.4,0,0,1-3.49,3.428c-.051,0-.1,0-.151,0m-1.715-16.685V183.9a2.947,2.947,0,0,0,.7,1.821,1.448,1.448,0,0,0,1.1.359c1.709-.063,1.77-1.357,1.765-1.616,0-.428-.049-10.191.1-11.9a2.844,2.844,0,0,1,2.962-2.506h.241l6.26,3.614c-.07-1.239-.2-3.339-.455-6.773-.5-6.834-2.046-8.614-3.834-10.675-.47-.542-.963-1.063-1.44-1.567a21.752,21.752,0,0,1-4.343-5.924c-1.383-2.889-.205-6.127.5-7.606L226.4,133.538a24.328,24.328,0,0,0-2.815,10.688,29.4,29.4,0,0,0,.871,6.907,24.8,24.8,0,0,0,.75,2.5l.043.116.019.048c.026.064.038.1.038.1l.052.146,0,.16-.083,21.143a2,2,0,0,0,1.784,1.629c1.294.154,1.8-1.178,1.928-1.58v-4.885a3.416,3.416,0,0,1,3.622-3.424,3.159,3.159,0,0,1,2.395.972,4.489,4.489,0,0,1,.979,3.127" transform="translate(-178.317 -107.202)"/><path class="d" d="M266.352,356.728h0a4.861,4.861,0,0,0,4.717-3.688,3.147,3.147,0,0,0-.136-1.889l-4.1-10.576a.519.519,0,0,0-.967,0l-4.11,10.609a3.067,3.067,0,0,0-.132,1.822,4.862,4.862,0,0,0,4.725,3.722" transform="translate(-206.686 -256.392)"/><path class="d" d="M308.247,311.373h0a3.958,3.958,0,0,0,3.84-3,2.562,2.562,0,0,0-.111-1.538l-3.336-8.611a.422.422,0,0,0-.787,0l-3.347,8.638a2.5,2.5,0,0,0-.107,1.484,3.958,3.958,0,0,0,3.848,3.03" transform="translate(-237.222 -226.21)"/><path class="d" d="M329.082,360.485a3.428,3.428,0,1,1-3.428-3.428,3.428,3.428,0,0,1,3.428,3.428" transform="translate(-249.992 -268.391)"/><path class="l" d="M262.5,353.862a5.735,5.735,0,0,1-5.6-4.409,3.945,3.945,0,0,1,.167-2.355l4.11-10.609a1.414,1.414,0,0,1,2.638,0l4.1,10.577a4.02,4.02,0,0,1,.17,2.428,5.742,5.742,0,0,1-5.587,4.368m0-15.818-3.759,9.7a2.163,2.163,0,0,0-.1,1.29,3.965,3.965,0,0,0,7.7.028,2.238,2.238,0,0,0-.1-1.35Z" transform="translate(-203.297 -253.068)"/><path class="l" d="M304.4,308.506a4.835,4.835,0,0,1-4.719-3.717,3.379,3.379,0,0,1,.143-2.016l3.347-8.638a1.318,1.318,0,0,1,2.458,0l3.336,8.612a3.438,3.438,0,0,1,.145,2.077,4.842,4.842,0,0,1-4.71,3.683m0-12.585-2.905,7.5a1.6,1.6,0,0,0-.071.952,3.062,3.062,0,0,0,5.948.021,1.654,1.654,0,0,0-.076-1Z" transform="translate(-233.834 -222.886)"/><path class="l" d="M321.8,361.047a4.323,4.323,0,1,1,4.323-4.323,4.328,4.328,0,0,1-4.323,4.323m0-6.856a2.532,2.532,0,1,0,2.532,2.532,2.535,2.535,0,0,0-2.532-2.532" transform="translate(-246.604 -265.068)"/></g></g></g></svg>