<svg xmlns="http://www.w3.org/2000/svg" xmlns:xlink="http://www.w3.org/1999/xlink" width="149" height="107" viewBox="0 0 149 107"><defs><style>.a{fill:none;}.b{clip-path:url(#a);}.c{fill:#e01230;}.d{fill:#f8a002;}.e,.g{fill:#f9f69b;}.f{fill:#6f0934;opacity:0.314;}.g{opacity:0.283;}.h{fill:#e02448;}.i{fill:#29266f;}.j{fill:#ffaa35;}.k{fill:#fdd0b0;}.l{fill:#3f0001;}.m{fill:#1b1464;}</style><clipPath id="a"><rect class="a" width="149" height="107" rx="8" transform="translate(0.095 0.178)"/></clipPath></defs><g transform="translate(-0.095 -0.178)"><g class="b" transform="translate(0 0)"><rect class="c" width="159" height="115" rx="8" transform="translate(-4.906 -3.822)"/><g transform="translate(9.412 6.576)"><circle class="d" cx="52.537" cy="52.537" r="52.537" transform="translate(15.823 12.609)"/><path class="e" d="M1177.514,189.458s11.133-9.887,13.657-14.2,2.672-5.646,1.113-6.834-8.832,0-8.832,0,5.436-2.985,9.844-.528S1193.249,178.723,1177.514,189.458Z" transform="translate(-1071.388 -144.077)"/><path class="e" d="M1024.643,259.228s-12.469,12.256-12.618,15.967,7.126,1.781,7.126,1.781-7.571,4.12-8.016.5S1008.908,274.582,1024.643,259.228Z" transform="translate(-998.676 -184.344)"/><circle class="e" cx="3.198" cy="3.198" r="3.198" transform="translate(43.037 22.851)"/><circle class="f" cx="13.061" cy="13.061" r="13.061" transform="translate(0 3.125)"/><circle class="g" cx="4.543" cy="4.543" r="4.543" transform="translate(123.732 2.229)"/><circle class="g" cx="2.302" cy="2.302" r="2.302" transform="translate(128.215 62.302)"/><circle class="e" cx="3.198" cy="3.198" r="3.198" transform="translate(95.041 60.348)"/><circle class="e" cx="3.198" cy="3.198" r="3.198" transform="translate(120.026 34.116)"/><circle class="e" cx="3.198" cy="3.198" r="3.198" transform="translate(5.77 84.319)"/><circle class="e" cx="3.198" cy="3.198" r="3.198" transform="translate(36.641 79.345)"/><circle class="e" cx="3.198" cy="3.198" r="3.198" transform="translate(37.253 69.05)"/><circle class="e" cx="2.341" cy="2.341" r="2.341" transform="translate(83.265 22.851)"/><circle class="a" cx="3.502" cy="3.502" r="3.502" transform="translate(116.22 63.956)"/><circle class="e" cx="2.449" cy="2.449" r="2.449" transform="translate(100.782 89.515)"/><circle class="e" cx="2.325" cy="2.325" r="2.325" transform="translate(90.391 70.96)"/><circle class="a" cx="2.914" cy="2.914" r="2.914" transform="translate(43.037 67.458)"/><circle class="e" cx="1.983" cy="1.983" r="1.983" transform="translate(20.177 52.299)"/><circle class="e" cx="1.93" cy="1.93" r="1.93" transform="translate(25.966 39.787)"/><g transform="translate(22.26)"><g transform="translate(19.021 32.087)"><path class="h" d="M1063.777,187.941l16.7-3.34s1.806,6.457,9.587,5.79,9.785-5.79,9.785-5.79l17.145,4.008-10.243,39.634s-17.368,4.454-32.954,0Z" transform="translate(-1063.05 -183.874)"/><path class="i" d="M1088.655,230.372a57.4,57.4,0,0,1-15.621-1.992.725.725,0,0,1-.505-.523l-10.02-40.3a.727.727,0,0,1,.563-.888l16.7-3.34a.726.726,0,0,1,.842.517c.068.238,1.764,5.868,8.825,5.261,7.247-.622,9.152-5.283,9.17-5.33a.73.73,0,0,1,.842-.443l17.145,4.008a.729.729,0,0,1,.538.89l-10.243,39.634a.729.729,0,0,1-.524.522A80.174,80.174,0,0,1,1088.655,230.372Zm-14.818-3.276c13.79,3.794,29.068.6,31.757-.02l9.947-38.49-15.859-3.708c-.8,1.441-3.466,5.1-10.119,5.675-6.776.575-9.375-3.964-10.111-5.68l-15.349,3.07Z" transform="translate(-1062.488 -183.312)"/></g><g transform="translate(24.811 87.753)"><path class="h" d="M1077.831,283.346s-3.34,7.125-3.785,11.8h40.748a73.393,73.393,0,0,0-3.563-11.8S1094.976,288.69,1077.831,283.346Z" transform="translate(-1073.319 -282.619)"/><path class="i" d="M1114.231,295.311h-40.748a.726.726,0,0,1-.723-.8c.452-4.746,3.712-11.745,3.85-12.04a.726.726,0,0,1,.875-.386c16.729,5.215,32.8.056,32.956,0a.727.727,0,0,1,.89.392,73.03,73.03,0,0,1,3.611,11.948.727.727,0,0,1-.711.878Zm-39.923-1.453h39.016a71.956,71.956,0,0,0-3.065-10.194c-3.157.9-17.548,4.473-32.591,0A47.743,47.743,0,0,0,1074.308,293.858Z" transform="translate(-1072.757 -282.056)"/></g><g transform="translate(0 43.22)"><path class="h" d="M1042.384,204.35l7.793,14.251-7.793,9.352s-7.793-7.348-11.8,3.34c0,0-2.227-5.344,2.45-10.911Z" transform="translate(-1029.316 -203.623)"/><path class="i" d="M1030.013,231.457a.726.726,0,0,1-.67-.447c-.1-.234-2.329-5.789,2.523-11.61l9.321-15.979a.726.726,0,0,1,.628-.361h.01a.727.727,0,0,1,.627.378l7.793,14.25a.726.726,0,0,1-.079.814l-7.793,9.352a.727.727,0,0,1-1.057.064c-.03-.028-3.086-2.853-6.079-2.153-1.881.439-3.409,2.2-4.543,5.22a.728.728,0,0,1-.667.472Zm11.781-26.192-8.7,14.92a.686.686,0,0,1-.071.1,10.866,10.866,0,0,0-2.776,8.155c1.224-2.284,2.789-3.657,4.672-4.094,2.895-.673,5.637,1.1,6.808,2.016l7.01-8.412Z" transform="translate(-1028.746 -203.061)"/></g><g transform="translate(71.125 43.22)"><path class="h" d="M1162.882,204.35l12.247,20.708s1.559,1.559,0,6.234c0,0-3.117-11.133-12.247-3.34l-6.68-10.132Z" transform="translate(-1155.475 -203.623)"/><path class="i" d="M1174.566,231.457h-.018a.727.727,0,0,1-.682-.53c-.013-.043-1.293-4.46-4.394-5.4-1.884-.569-4.132.242-6.68,2.417a.726.726,0,0,1-1.078-.152l-6.68-10.132a.726.726,0,0,1-.044-.723l6.68-13.471a.727.727,0,0,1,1.277-.047l12.211,20.647c.368.437,1.614,2.352.1,6.895A.727.727,0,0,1,1174.566,231.457Zm-6.311-7.564a5.6,5.6,0,0,1,1.644.243,8.093,8.093,0,0,1,4.509,4.283c.413-2.482-.346-3.4-.356-3.41a.727.727,0,0,1-.112-.144l-11.565-19.555-5.9,11.9,6.007,9.11A9.621,9.621,0,0,1,1168.255,223.893Z" transform="translate(-1154.912 -203.06)"/></g><g transform="translate(28.596 75.729)"><path class="j" d="M1081.206,262.017l-.445,12.024a59.826,59.826,0,0,0,33.4,0V262.017A72.6,72.6,0,0,1,1081.206,262.017Z" transform="translate(-1080.034 -261.29)"/><path class="i" d="M1097.083,276.561a58.727,58.727,0,0,1-17.121-2.4.728.728,0,0,1-.49-.715l.445-12.024a.728.728,0,0,1,.895-.68,72.526,72.526,0,0,0,32.591.007.726.726,0,0,1,.922.7v12.024a.727.727,0,0,1-.518.7A58.265,58.265,0,0,1,1097.083,276.561Zm-16.138-3.611a60.032,60.032,0,0,0,31.926-.015V262.381a75.053,75.053,0,0,1-31.534-.021Z" transform="translate(-1079.471 -260.727)"/></g><g transform="translate(61.995 36.095)"><path class="j" d="M1150.25,191.711s7.571.668,7.794,1.336-18.036,38.3-18.036,38.3Z" transform="translate(-1139.28 -190.984)"/><path class="i" d="M1139.445,231.509a.72.72,0,0,1-.25-.045.727.727,0,0,1-.453-.864l10.243-39.634a.726.726,0,0,1,.768-.542c8.046.71,8.27,1.384,8.419,1.83.14.419.232.7-8.969,19.943-4.486,9.385-9.058,18.809-9.1,18.9A.726.726,0,0,1,1139.445,231.509Zm10.792-39.581-8.255,31.945c6.225-12.894,13.464-28.074,14.63-31.033A50.461,50.461,0,0,0,1150.236,191.929Zm6.529.472Z" transform="translate(-1138.718 -190.422)"/></g><g transform="translate(10.882 35.513)"><path class="j" d="M1057.12,190.679s-7.571.668-7.793,1.336,18.036,38.3,18.036,38.3Z" transform="translate(-1048.605 -189.952)"/><path class="i" d="M1066.806,230.478a.727.727,0,0,1-.654-.41c-.046-.094-4.618-9.518-9.1-18.9-9.2-19.247-9.108-19.524-8.968-19.943.149-.446.373-1.12,8.418-1.83a.726.726,0,0,1,.768.542l10.242,39.634a.728.728,0,0,1-.453.864A.736.736,0,0,1,1066.806,230.478Zm-17.166-38.668c1.166,2.96,8.406,18.139,14.63,31.033l-8.255-31.945A50.582,50.582,0,0,0,1049.64,191.809Z" transform="translate(-1048.049 -189.39)"/></g><g transform="translate(35.721 26.521)"><path class="j" d="M1093.4,180.293l2.672-4.231s-.918,4.048,7.236,5.122,7.014-6.457,7.014-6.457l2.449,5.566s-1.979,5.344-9.785,5.79S1093.4,180.293,1093.4,180.293Z" transform="translate(-1092.673 -174.001)"/><path class="i" d="M1101.642,186.27a9.567,9.567,0,0,1-9.5-6.339.726.726,0,0,1,.085-.587l2.672-4.231a.727.727,0,0,1,1.323.549,2.276,2.276,0,0,0,.489,1.64c.651.9,2.245,2.089,6.133,2.6,2.271.3,3.946-.082,4.98-1.131,1.619-1.643,1.225-4.47,1.22-4.5a.727.727,0,0,1,1.384-.4l2.449,5.567a.726.726,0,0,1,.016.545c-.087.236-2.239,5.8-10.425,6.262C1102.185,186.262,1101.909,186.27,1101.642,186.27Zm-8-6.446c.453,1.171,2.509,5.324,8.745,4.97,6.325-.36,8.537-4.04,9.032-5.062l-1.129-2.566a5.734,5.734,0,0,1-1.423,2.615c-1.371,1.4-3.461,1.923-6.213,1.56-3.58-.471-5.991-1.565-7.167-3.252a4.347,4.347,0,0,1-.36-.618Zm-.8-.093h0Z" transform="translate(-1092.11 -173.439)"/></g><g transform="translate(74.304 52.127)"><path class="j" d="M1161.841,229.536l11.071-9.387,4.008,6.457-12.53,6.8Z" transform="translate(-1161.115 -219.422)"/><path class="i" d="M1163.829,233.566a.728.728,0,0,1-.608-.326l-2.549-3.866a.728.728,0,0,1,.137-.955l11.07-9.386a.727.727,0,0,1,1.088.171l4.008,6.458a.727.727,0,0,1-.271,1.022l-12.53,6.8A.719.719,0,0,1,1163.829,233.566Zm-1.589-4.455,1.828,2.772,11.266-6.11-3.157-5.087Z" transform="translate(-1160.552 -218.86)"/></g><g transform="translate(1.087 52.127)"><path class="j" d="M1047.042,229.536l-11.071-9.387-4.008,6.457,12.53,6.8Z" transform="translate(-1031.237 -219.422)"/><path class="i" d="M1043.93,233.566a.719.719,0,0,1-.345-.088l-12.53-6.8a.727.727,0,0,1-.271-1.022l4.008-6.458a.727.727,0,0,1,1.087-.171l11.071,9.386a.728.728,0,0,1,.136.955l-2.549,3.866A.727.727,0,0,1,1043.93,233.566Zm-11.505-7.794,11.266,6.11,1.827-2.772-9.936-8.425Z" transform="translate(-1030.674 -218.86)"/></g><g transform="translate(71.015 64.337)"><path class="j" d="M1162.8,244.3l-6.79,13.8a6.8,6.8,0,0,1,5.231,5.567l13.805-16.032S1171.7,237.169,1162.8,244.3Z" transform="translate(-1155.28 -241.083)"/><path class="i" d="M1160.675,263.83a.727.727,0,0,1-.719-.624,6.024,6.024,0,0,0-4.654-4.956.728.728,0,0,1-.511-1.033l6.79-13.805a.736.736,0,0,1,.2-.247c2.882-2.306,5.552-3.109,7.933-2.39,3.852,1.164,5.4,5.876,5.459,6.077a.728.728,0,0,1-.142.7l-13.805,16.032A.727.727,0,0,1,1160.675,263.83Zm-4.2-6.736a7.52,7.52,0,0,1,4.576,4.463l12.6-14.636c-.418-1.045-1.8-3.987-4.363-4.758-1.863-.561-4.041.124-6.474,2.036Z" transform="translate(-1154.718 -240.519)"/></g><g transform="translate(61.901 80.626)"><path class="h" d="M1148.955,270.706s-5.234-.074-4.12,2.3c0,0-5.782,2.617-4.9,4.824s.668,9.352,6.012,5.9a33.131,33.131,0,0,0,8.239-7.459S1153.3,271.819,1148.955,270.706Z" transform="translate(-1139.115 -269.978)"/><path class="i" d="M1142.908,284.825a2.745,2.745,0,0,1-1.082-.216c-1.79-.758-2.287-3.256-2.686-5.262a12.248,12.248,0,0,0-.443-1.809c-.952-2.38,3-4.638,4.7-5.486a1.7,1.7,0,0,1,.26-1.155c.942-1.46,4.116-1.494,4.739-1.481a.747.747,0,0,1,.17.023,8.232,8.232,0,0,1,5.764,6.128.728.728,0,0,1-.123.568,33.579,33.579,0,0,1-8.433,7.644A5.468,5.468,0,0,1,1142.908,284.825Zm5.369-13.957c-1.236,0-3.045.275-3.395.816-.029.045-.1.149.046.45a.727.727,0,0,1-.358.97c-2.158.979-4.931,2.876-4.524,3.893a12.61,12.61,0,0,1,.518,2.066c.315,1.582.746,3.749,1.828,4.207.6.253,1.473.013,2.6-.713a33.576,33.576,0,0,0,7.842-7.012,6.684,6.684,0,0,0-4.538-4.678Z" transform="translate(-1138.551 -269.414)"/></g><g transform="translate(0.01 64.337)"><path class="j" d="M1042.3,244.3l6.79,13.8a6.8,6.8,0,0,0-5.232,5.567l-13.805-16.032S1033.393,237.169,1042.3,244.3Z" transform="translate(-1029.326 -241.082)"/><path class="i" d="M1043.3,263.83a.727.727,0,0,1-.551-.253l-13.805-16.032a.728.728,0,0,1-.142-.7c.064-.2,1.608-4.912,5.459-6.077,2.382-.72,5.052.083,7.935,2.39a.733.733,0,0,1,.2.247l6.79,13.805a.726.726,0,0,1-.513,1.034,6.024,6.024,0,0,0-4.651,4.956.727.727,0,0,1-.719.624Zm-12.975-16.909,12.6,14.636a7.518,7.518,0,0,1,4.576-4.463l-6.343-12.895c-2.435-1.913-4.614-2.6-6.479-2.034C1032.107,242.943,1030.735,245.877,1030.32,246.921Z" transform="translate(-1028.764 -240.518)"/></g><g transform="translate(13.815 80.627)"><path class="h" d="M1059.773,270.706s5.234-.074,4.12,2.3c0,0,5.782,2.617,4.9,4.824s-.668,9.352-6.012,5.9a33.129,33.129,0,0,1-8.239-7.459S1055.431,271.819,1059.773,270.706Z" transform="translate(-1053.815 -269.978)"/><path class="i" d="M1064.694,284.825a5.467,5.467,0,0,1-2.87-1.046,33.6,33.6,0,0,1-8.434-7.644.725.725,0,0,1-.123-.568,8.23,8.23,0,0,1,5.764-6.128.756.756,0,0,1,.17-.023c.621-.011,3.8.021,4.739,1.48a1.7,1.7,0,0,1,.26,1.156c1.71.848,5.657,3.106,4.7,5.486a12.177,12.177,0,0,0-.442,1.808c-.4,2.007-.9,4.5-2.686,5.262A2.749,2.749,0,0,1,1064.694,284.825Zm-9.925-9.279a33.579,33.579,0,0,0,7.843,7.012c1.125.726,2,.966,2.6.713,1.081-.458,1.512-2.625,1.827-4.208a12.667,12.667,0,0,1,.518-2.065c.406-1.016-2.366-2.914-4.524-3.893a.727.727,0,0,1-.358-.97c.141-.3.074-.406.046-.45-.349-.542-2.159-.817-3.394-.817h-.017A6.685,6.685,0,0,0,1054.77,275.547Z" transform="translate(-1053.253 -269.415)"/></g><g transform="translate(28.912 40.103)"><path class="j" d="M1096.147,207.726a9.207,9.207,0,0,1,1.892-8.906,15.93,15.93,0,0,1,1.67,8.906s-.223-2.672,6.234-5.789c0,0-.668,6.412-2.894,7.993a10.026,10.026,0,0,1,7.793-2.872s-.223,1.756-6.012,6.556c0,0,5.634-2.706,9.483,1.794,0,0-6.667,2.9-9.3,2.062,0,0,5.383,1.1,6.5,5.584,0,0-2.672,2.04-8.684-2.859a14.612,14.612,0,0,1,3.339,8.684s-5.566-2.226-6.9-7.348a13.451,13.451,0,0,1-1.225,9.352s-3.2-4.9-2.324-9.129c0,0-.9,4.008-5.8,7.125,0,0,.223-7.348,3.117-9.352,0,0-4.676,3.938-9.129,3.527,0,0,1.113-4.079,7.126-5.584,0,0-5.824.5-9.7-2.619,0,0,6.809-2.7,9.7-1.237,0,0-6.235-1.435-7.126-6.556a13.826,13.826,0,0,1,8.907,2.872s-4.008-5.989-2.894-9.107C1089.912,200.824,1095.033,203.5,1096.147,207.726Z" transform="translate(-1080.595 -198.093)"/><path class="i" d="M1097.477,231.049a.728.728,0,0,1-.608-.33,18.106,18.106,0,0,1-2.455-6.281,15.493,15.493,0,0,1-4.673,4.493.727.727,0,0,1-1.117-.635,23.887,23.887,0,0,1,1.245-6.742,12.117,12.117,0,0,1-6.6,1.663.726.726,0,0,1-.634-.915,8.7,8.7,0,0,1,4.31-4.812,13.586,13.586,0,0,1-6.643-2.634.727.727,0,0,1,.188-1.242,28.117,28.117,0,0,1,5.884-1.591,8.162,8.162,0,0,1-3.754-5.4.727.727,0,0,1,.633-.846,13.485,13.485,0,0,1,6.939,1.516c-1.1-2.137-2.279-5.17-1.527-7.273a.727.727,0,0,1,1.021-.4,16.9,16.9,0,0,1,4.761,3.893,9.381,9.381,0,0,1,2.495-5.743.727.727,0,0,1,1.172.14,17.271,17.271,0,0,1,1.827,6.28,17.366,17.366,0,0,1,5.125-3.466.727.727,0,0,1,1.039.73,25.153,25.153,0,0,1-1.172,5.336,11.511,11.511,0,0,1,5.38-1.016.728.728,0,0,1,.69.817c-.037.288-.4,1.715-3.955,5.006a8.02,8.02,0,0,1,7.257,2.78.727.727,0,0,1-.262,1.139,34.81,34.81,0,0,1-6.153,2.007,7.793,7.793,0,0,1,3.765,4.8.728.728,0,0,1-.264.753c-.263.2-2.332,1.587-6.552-.774a13.731,13.731,0,0,1,1.493,6.021.727.727,0,0,1-1,.675,14.514,14.514,0,0,1-5.566-4.262,13.007,13.007,0,0,1-1.661,5.954.727.727,0,0,1-.609.364Zm-2.324-10.582a.7.7,0,0,1,.156.017.726.726,0,0,1,.556.856c-.562,2.709.728,5.8,1.568,7.429a13.073,13.073,0,0,0,.572-7.591l-.007-.025a.727.727,0,0,1,1.4-.375c0,.008.005.023.011.043.89,3.347,3.8,5.391,5.392,6.287a14.454,14.454,0,0,0-3.087-6.994.727.727,0,0,1,1-1.044c4.058,3.307,6.413,3.25,7.34,3.013-1.1-2.977-4.431-4.105-5.454-4.387a3.3,3.3,0,0,1-.378-.1.727.727,0,0,1,.366-1.4c.032.007.168.036.38.092,1.792.309,5.4-.882,7.5-1.7-3.364-2.971-7.7-.969-7.9-.875a.727.727,0,0,1-.777-1.215,28.867,28.867,0,0,0,5.276-5.261,9.42,9.42,0,0,0-5.506,2.1,3.616,3.616,0,0,1-.666.626.727.727,0,0,1-.971-1.067,6.158,6.158,0,0,1,.617-.6c.988-1.248,1.609-3.826,1.914-5.637-3.646,2-4.4,3.654-4.555,4.242-.014.121-.029.242-.046.365a.716.716,0,0,1-.741.623.727.727,0,0,1-.7-.666,2.041,2.041,0,0,1,.057-.595,15.028,15.028,0,0,0-1.17-7.006,8.438,8.438,0,0,0-1.166,6.875c.053.158.1.319.144.481a.727.727,0,0,1-1.386.434c-.013-.036-.073-.205-.146-.483-.9-2.639-3.5-4.614-4.876-5.5-.055,2.424,2.039,6.148,2.969,7.538a.727.727,0,0,1-1.029.994,13.963,13.963,0,0,0-7.558-2.755c.924,2.814,3.762,4.227,5.318,4.808a4.518,4.518,0,0,1,1.211.392.727.727,0,0,1-.49,1.357,10.723,10.723,0,0,1-1.146-.352c-1.927-.3-4.874.451-6.811,1.085a15.63,15.63,0,0,0,8.058,1.69.727.727,0,0,1,.239,1.429c-3.836.961-5.515,2.987-6.192,4.169,3.147-.194,6.26-2.38,7.238-3.126a3.954,3.954,0,0,1,.368-.289.727.727,0,0,1,.882,1.153c-.028.024-.149.125-.348.278-1.5,1.377-2.161,4.771-2.4,7.042a11.7,11.7,0,0,0,4.26-5.812A.729.729,0,0,1,1095.152,220.467Z" transform="translate(-1080.033 -197.531)"/></g><g transform="translate(40.788 51.714)"><path class="i" d="M1106.513,228.955a5.414,5.414,0,1,1,5.414-5.414A5.42,5.42,0,0,1,1106.513,228.955Zm0-9.374a3.961,3.961,0,1,0,3.961,3.96A3.964,3.964,0,0,0,1106.513,219.58Z" transform="translate(-1101.099 -218.127)"/></g><g transform="translate(38.393 25.407)"><path class="k" d="M1098.14,175.2v-2.449h13.8l1.033,2.449s-.588,5.344-7.6,5.122S1098.14,175.2,1098.14,175.2Z" transform="translate(-1097.413 -172.025)"/><path class="i" d="M1105.235,180.493c-.146,0-.294,0-.445-.007-7.6-.241-7.937-5.759-7.939-5.815,0-.011,0-.022,0-.033v-2.449a.727.727,0,0,1,.727-.727h13.806a.728.728,0,0,1,.67.444l1.033,2.449a.737.737,0,0,1,.053.362C1113.131,174.777,1112.417,180.493,1105.235,180.493Zm-6.931-5.878c.023.316.442,4.225,6.532,4.418,5.609.182,6.659-3.448,6.829-4.3l-.765-1.812h-12.6Zm-.727.023h0Z" transform="translate(-1096.85 -171.462)"/></g><g transform="translate(33.717)"><path class="l" d="M1098.751,135.952s-5.566,2.672-5.566,4.008v5.121s-3.34-1.781-3.34-4.565,1.559-15.475,8.906-11.912c0,0,8.016-3.785,11.579,4.008s1.176,9.575-.971,13.359v-5.121S1106.768,137.357,1098.751,135.952Z" transform="translate(-1089.118 -126.957)"/><path class="i" d="M1108.07,148.164v-7.608c-.622-.673-3.355-3.236-9.776-4.41-2.483,1.215-4.752,2.716-4.945,3.279v6.3l-1.069-.57c-.152-.081-3.724-2.023-3.724-5.206,0-2.024.8-10.086,4.741-12.552a5.007,5.007,0,0,1,4.9-.155,10.794,10.794,0,0,1,7.347-.342,8.673,8.673,0,0,1,4.882,4.843c3.251,7.112,1.67,9.666-.161,12.623-.276.446-.561.906-.839,1.4Zm-12.306-20.023a3.129,3.129,0,0,0-1.7.492c-3.1,1.94-4.06,8.977-4.06,11.32a4.423,4.423,0,0,0,1.886,3.191V139.4c0-1.56,3.747-3.591,5.979-4.663l.211-.1.229.04c8.207,1.438,10.953,5.03,11.066,5.182l.143.193V142.8c1.457-2.448,2.226-4.668-.417-10.45a7.275,7.275,0,0,0-4.058-4.081,9.584,9.584,0,0,0-6.549.428l-.315.148-.313-.152A4.871,4.871,0,0,0,1095.764,128.141Zm-2.419,11.3Z" transform="translate(-1088.556 -126.393)"/></g><g transform="translate(53.231 15.926)"><path class="k" d="M1125.543,155.934s1.546-.038,1.249,1.793-.9,4.5-2.332,4.206v-5.542Z" transform="translate(-1123.734 -155.206)"/><path class="i" d="M1124.113,162.119a1.777,1.777,0,0,1-.363-.038.727.727,0,0,1-.579-.711v-5.542a.728.728,0,0,1,.444-.67l1.082-.457a.736.736,0,0,1,.265-.056,2.084,2.084,0,0,1,1.55.67,2.3,2.3,0,0,1,.435,1.966c-.411,2.531-.983,3.927-1.854,4.527A1.716,1.716,0,0,1,1124.113,162.119Zm.512-5.809v3.872a9.662,9.662,0,0,0,.888-3.134,1.016,1.016,0,0,0-.091-.773.567.567,0,0,0-.325-.164Z" transform="translate(-1123.172 -154.644)"/></g><g transform="translate(35.059 15.926)"><path class="k" d="M1093.513,155.934s-1.546-.038-1.249,1.793.9,4.5,2.331,4.206v-5.542Z" transform="translate(-1091.499 -155.207)"/><path class="i" d="M1093.818,162.12a1.713,1.713,0,0,1-.98-.312c-.872-.6-1.444-2-1.854-4.527a2.3,2.3,0,0,1,.434-1.965,2.1,2.1,0,0,1,1.55-.67.732.732,0,0,1,.265.056l1.082.457a.727.727,0,0,1,.444.67v5.542a.727.727,0,0,1-.578.711A1.776,1.776,0,0,1,1093.818,162.12Zm-.984-6.008a.563.563,0,0,0-.325.164,1.014,1.014,0,0,0-.091.773,9.669,9.669,0,0,0,.887,3.134v-3.872Z" transform="translate(-1090.937 -154.645)"/></g><g transform="translate(36.891 8.28)"><path class="k" d="M1095.642,146.379s-.372,7.249,0,8.436,2.909,6.885,3.731,7.6,1.91,1.7,1.91,1.7h5.839l3.365-4.379,1.33-3.142V147.27a18.226,18.226,0,0,0-10.608-4.9S1095.713,144.758,1095.642,146.379Z" transform="translate(-1094.75 -141.644)"/><path class="i" d="M1106.559,164.282h-5.839a.724.724,0,0,1-.489-.189c-.011-.01-1.093-.992-1.9-1.693-1.033-.9-3.6-6.825-3.948-7.93-.391-1.248-.1-7.452-.032-8.689.087-1.871,4.226-3.868,6-4.639a.722.722,0,0,1,.349-.058,18.806,18.806,0,0,1,11.069,5.117.725.725,0,0,1,.205.506v9.327a.733.733,0,0,1-.057.284l-1.331,3.142a.7.7,0,0,1-.093.16L1107.135,164A.727.727,0,0,1,1106.559,164.282ZM1101,162.829h5.2l3.09-4.021,1.236-2.921v-8.869a17.674,17.674,0,0,0-9.76-4.469c-2.592,1.149-4.936,2.7-4.962,3.3v.006a57.456,57.456,0,0,0-.032,8.182c.436,1.391,2.912,6.729,3.514,7.268S1100.642,162.5,1101,162.829Zm-5.921-17.012h0Z" transform="translate(-1094.187 -141.082)"/></g><g transform="translate(40.224 15.411)"><path class="i" d="M1104.437,155.68a.732.732,0,0,1-.1-.007l-3.613-.494a.727.727,0,0,1,.2-1.44l3.612.495a.727.727,0,0,1-.1,1.447Z" transform="translate(-1100.098 -153.731)"/></g><g transform="translate(47.25 15.659)"><path class="i" d="M1113.288,156.416a.727.727,0,0,1-.159-1.436l3.513-.791a.727.727,0,0,1,.319,1.418l-3.513.791A.717.717,0,0,1,1113.288,156.416Z" transform="translate(-1112.562 -154.171)"/></g><g transform="translate(43.836 23.081)"><path class="i" d="M1108.8,169.483a.732.732,0,0,1-.293-.061l-1.572-.693a.727.727,0,0,1,.586-1.33l1.314.579,1.772-.6a.727.727,0,1,1,.467,1.376l-2.04.693A.739.739,0,0,1,1108.8,169.483Z" transform="translate(-1106.505 -167.336)"/></g><g transform="translate(41.515 17.821)"><circle class="m" cx="1.147" cy="1.147" r="1.147"/></g><g transform="translate(48.586 17.821)"><circle class="m" cx="1.147" cy="1.147" r="1.147"/></g><g transform="translate(43.539 26.52)"><path class="i" d="M1111.026,174.891h-4.321a.727.727,0,0,1,0-1.454h4.321a.727.727,0,1,1,0,1.454Z" transform="translate(-1105.979 -173.437)"/></g></g></g></g></g></svg>