<svg xmlns="http://www.w3.org/2000/svg" xmlns:xlink="http://www.w3.org/1999/xlink" width="148" height="108" viewBox="0 0 148 108"><defs><style>.a{fill:none;}.b{clip-path:url(#a);}.c{fill:#f5b419;}.d{fill:#29266f;}.e{fill:#d79829;}.f{fill:#ffd371;}.g{opacity:0.6;}.h{clip-path:url(#b);}.i{fill:#70ad43;}.j{fill:#746655;}.k{fill:#5a6635;}.l{fill:#308440;}.m{fill:#c9dd79;}.n{fill:#c3dc7e;}.o{fill:#fbed92;}.p{fill:#468942;}.q{opacity:0.5;}.r{clip-path:url(#c);}</style><clipPath id="a"><rect class="a" width="148" height="108" rx="8" transform="translate(0.468 0)"/></clipPath><clipPath id="b"><rect class="a" width="113.829" height="42.967"/></clipPath><clipPath id="c"><rect class="a" width="102.224" height="38.587"/></clipPath></defs><g transform="translate(-0.468 0)"><g transform="translate(0 0)"><g class="b"><line class="c" y1="4.815" x2="6.979" transform="translate(124.15 6.986)"/><path class="d" d="M453.449,29.07a1,1,0,0,1-.569-1.823l6.979-4.815a1,1,0,1,1,1.136,1.646l-6.979,4.815a.993.993,0,0,1-.567.177" transform="translate(-329.298 -16.269)"/><line class="c" y1="2.115" x2="11.029" transform="translate(125.323 11.928)"/><path class="d" d="M457.548,43.661a1,1,0,0,1-.187-1.983l11.029-2.115a1,1,0,1,1,.377,1.965l-11.029,2.115a1.021,1.021,0,0,1-.189.018" transform="translate(-332.227 -28.619)"/><path class="c" d="M176.422,116.778H30.285a9.541,9.541,0,0,1-9.513-9.513V9.9A9.513,9.513,0,0,1,30.285.391H176.422A9.541,9.541,0,0,1,185.935,9.9v97.361a9.541,9.541,0,0,1-9.513,9.513" transform="translate(-27.241 -5.067)"/><line class="c" x2="8.796" y2="0.921" transform="translate(126.158 16.904)"/><path class="d" d="M469.27,59.881a1.009,1.009,0,0,1-.105-.005l-8.8-.921a1,1,0,1,1,.208-1.99l8.8.921a1,1,0,0,1-.1,1.995" transform="translate(-334.314 -41.056)"/><path class="e" d="M272.663,305.774c.064,1.207-17.279,3.11-38.738,4.251s-38.905,1.087-38.97-.121,17.279-3.11,38.738-4.251,38.905-1.087,38.97.121" transform="translate(-145.386 -218.097)"/><path class="f" d="M74.916,123.792s-1.643-16.593-17.579-13.8c0,0-3.779-15.115-15.443-14.458s-15.607,7.722-15.607,10.679c0,0-10.35-.328-11.993,8.872,0,0-8.871-2.135-14.293,7.065Z" transform="translate(-6.141 -68.593)"/><g class="g" transform="translate(1.692 4.959)"><g class="h"><path class="f" d="M27.411,61.63s2.5-25.212,26.71-20.969c0,0,5.741-22.965,23.465-21.967S101.3,30.427,101.3,34.921c0,0,15.726-.5,18.223,13.48,0,0,13.48-3.245,21.717,10.734Z" transform="translate(-27.411 -18.663)"/></g></g><path class="f" d="M343.489,108.234s-1.709-17.253-18.278-14.349c0,0-3.929-15.716-16.057-15.032s-16.228,8.028-16.228,11.1c0,0-10.762-.342-12.47,9.224,0,0-9.224-2.221-14.861,7.345Z" transform="translate(-195.839 -56.678)"/><path class="i" d="M336.65,165.8l-22.332,2.345,14.71,8.922,20.072-2.6Z" transform="translate(-230.639 -118.797)"/><path class="d" d="M327.242,176a.714.714,0,0,1-.371-.1l-14.71-8.921a.714.714,0,0,1,.3-1.321l22.332-2.345a.719.719,0,0,1,.483.124l12.451,8.67a.714.714,0,0,1-.317,1.295l-20.073,2.6a.7.7,0,0,1-.091.006m-12.526-9.147,12.683,7.692,17.989-2.327-10.714-7.46Z" transform="translate(-228.854 -117.012)"/><path class="j" d="M261.614,212.042a8.715,8.715,0,0,0-2.838,7.438c.584,4.634,1.959,6.544,5.349,9.024l27.276,5.451s6.844-1.893,8.342-8.114c0,0,.938-5.967-.924-8.8s-5.37-7.359-7.809-7.3-29.4,2.3-29.4,2.3" transform="translate(-190.921 -150.177)"/><path class="d" d="M289.614,232.884a.723.723,0,0,1-.14-.014L262.2,227.42a.711.711,0,0,1-.282-.124c-3.312-2.423-5-4.464-5.636-9.511a9.37,9.37,0,0,1,3.094-8.08.715.715,0,0,1,.393-.159c1.1-.092,27.006-2.246,29.438-2.306h.063c3.027,0,6.85,5.321,8.36,7.621,1.991,3.032,1.073,9.053,1.033,9.307,0,.019-.007.038-.011.056-1.579,6.555-8.551,8.554-8.847,8.635a.706.706,0,0,1-.19.026m-26.98-6.834,26.943,5.384c.983-.32,6.406-2.309,7.678-7.516.063-.429.809-5.794-.82-8.274-2.287-3.483-5.38-6.977-7.161-6.977h-.033c-2.27.056-26.446,2.06-29.117,2.282a7.91,7.91,0,0,0-2.426,6.657c.57,4.522,1.928,6.225,4.936,8.444" transform="translate(-189.134 -148.392)"/><path class="d" d="M341.4,249.294c.289,2.752-.9,5.131-2.644,5.315s-3.4-1.9-3.69-4.65.895-5.131,2.644-5.315,3.4,1.9,3.69,4.65" transform="translate(-245.427 -175.1)"/><path class="d" d="M336.746,253.55a3.537,3.537,0,0,1-2.732-1.506,7.4,7.4,0,0,1-1.448-3.8c-.335-3.192,1.106-5.871,3.28-6.1s4.14,2.093,4.475,5.286-1.106,5.872-3.28,6.1a2.778,2.778,0,0,1-.3.016m-.608-9.988a1.415,1.415,0,0,0-.143.007c-1.331.14-2.251,2.214-2.008,4.53a5.96,5.96,0,0,0,1.146,3.056,2.149,2.149,0,0,0,1.759.958c1.332-.14,2.251-2.214,2.008-4.53-.235-2.232-1.48-4.021-2.762-4.021" transform="translate(-243.639 -173.315)"/><path class="d" d="M373.515,251.339c.289,2.752-.9,5.131-2.644,5.315s-3.4-1.9-3.69-4.65.895-5.131,2.644-5.315,3.4,1.9,3.69,4.65" transform="translate(-268.365 -176.561)"/><path class="d" d="M368.864,255.595a3.537,3.537,0,0,1-2.732-1.506,7.9,7.9,0,0,1-.82-7.809,3.434,3.434,0,0,1,2.652-2.087c2.173-.224,4.14,2.093,4.475,5.286s-1.106,5.872-3.28,6.1a2.769,2.769,0,0,1-.3.016m-.608-9.988a1.41,1.41,0,0,0-.143.007,2.156,2.156,0,0,0-1.521,1.3,6.488,6.488,0,0,0,.66,6.284,2.152,2.152,0,0,0,1.759.958c1.331-.14,2.251-2.214,2.008-4.53-.235-2.232-1.48-4.021-2.762-4.021" transform="translate(-266.58 -174.776)"/><path class="d" d="M284.337,242.364c.265,2.519-.819,4.7-2.421,4.866s-3.114-1.738-3.379-4.257.819-4.7,2.421-4.866,3.114,1.738,3.379,4.258" transform="translate(-205.055 -170.432)"/><path class="d" d="M279.925,246.169a3.3,3.3,0,0,1-2.547-1.4,6.835,6.835,0,0,1-1.339-3.506c-.31-2.956,1.032-5.439,3.057-5.651A3.2,3.2,0,0,1,281.921,237a7.3,7.3,0,0,1,.757,7.214,3.2,3.2,0,0,1-2.475,1.944,2.664,2.664,0,0,1-.278.015m-.556-9.145a1.209,1.209,0,0,0-.124.006c-1.187.125-2,1.994-1.785,4.082a5.4,5.4,0,0,0,1.037,2.767,1.558,1.558,0,0,0,2.9-.3,5.88,5.88,0,0,0-.6-5.689,2.012,2.012,0,0,0-1.432-.861" transform="translate(-203.267 -168.645)"/><path class="d" d="M312.783,248.108c.265,2.52-.819,4.7-2.421,4.866s-3.114-1.738-3.379-4.257.819-4.7,2.421-4.866,3.114,1.738,3.379,4.257" transform="translate(-225.373 -174.535)"/><path class="d" d="M308.374,251.912a3.3,3.3,0,0,1-2.547-1.4,7.3,7.3,0,0,1-.758-7.214,2.958,2.958,0,0,1,5.3-.557,7.295,7.295,0,0,1,.757,7.214,3.2,3.2,0,0,1-2.475,1.944,2.654,2.654,0,0,1-.278.015m-.556-9.145a1.208,1.208,0,0,0-.124.006,1.919,1.919,0,0,0-1.345,1.159,5.881,5.881,0,0,0,.6,5.689,1.558,1.558,0,0,0,2.9-.3,5.879,5.879,0,0,0-.6-5.689,2.012,2.012,0,0,0-1.433-.861" transform="translate(-223.587 -172.747)"/><path class="k" d="M259.47,190.081l-.376-3.579a10.806,10.806,0,0,1,5.695-9.108l10.109-1.361,15.412,9.683-28.421,2.253s-1.742,2.041-2.419,2.113" transform="translate(-191.196 -126.104)"/><path class="d" d="M257.683,189.01a.715.715,0,0,1-.71-.64l-.376-3.579c0-.016,0-.033,0-.049a11.439,11.439,0,0,1,6.048-9.75.715.715,0,0,1,.266-.091l10.108-1.361a.718.718,0,0,1,.475.1l15.412,9.683a.714.714,0,0,1-.324,1.317l-28.129,2.23c-.857.978-1.956,2.056-2.693,2.134a.727.727,0,0,1-.075,0m.338-4.34.251,2.392a15.878,15.878,0,0,0,1.287-1.342.714.714,0,0,1,.487-.248l26.272-2.083-13.368-8.4-9.708,1.307a10.024,10.024,0,0,0-5.221,8.374" transform="translate(-189.409 -124.318)"/><path class="d" d="M316.464,184.921a.714.714,0,0,1-.71-.64l-.808-7.691a.715.715,0,0,1,1.421-.149l.807,7.691a.714.714,0,0,1-.636.785.667.667,0,0,1-.075,0" transform="translate(-231.085 -125.938)"/><path class="d" d="M270.309,203.736a.714.714,0,0,1-.068-1.425l25.313-2.462a.714.714,0,1,1,.138,1.422l-25.313,2.462c-.023,0-.047,0-.07,0" transform="translate(-198.697 -143.111)"/><path class="i" d="M366.849,199.274s5.181,3.668,7.4,7.44l24.187-2.54s-1.106-6.144-6.7-8.2Z" transform="translate(-268.159 -140.349)"/><path class="d" d="M369.118,205.644l-.233-.4c-2.111-3.593-7.143-7.183-7.193-7.219l-1.485-1.052,26.86-3.559.165.061c5.912,2.169,7.111,8.474,7.159,8.741l.137.757Zm-5.2-7.717a28.716,28.716,0,0,1,5.959,6.2l22.916-2.406c-.485-1.6-2-5.329-5.889-6.842Z" transform="translate(-263.415 -138.52)"/><path class="d" d="M384.458,212.3h-.04a.714.714,0,0,1-.674-.753c.108-1.943-3.424-5.395-5.675-7.113a.714.714,0,1,1,.867-1.136c.658.5,6.42,5,6.235,8.329a.714.714,0,0,1-.713.675" transform="translate(-275.972 -145.47)"/><path class="l" d="M373.114,246.719l18.535-2.337s10.135-7.683,9.292-16.773L380.532,229.8a12.842,12.842,0,0,1,.924,8.8c-1.234,5.02-8.342,8.114-8.342,8.114" transform="translate(-272.634 -162.941)"/><path class="d" d="M371.328,245.647a.714.714,0,0,1-.285-1.369c.068-.03,6.8-3.016,7.934-7.63a12.26,12.26,0,0,0-.852-8.281.715.715,0,0,1,.545-1.063l20.409-2.192a.714.714,0,0,1,.788.644c.87,9.377-9.145,17.085-9.571,17.409a.716.716,0,0,1-.343.14l-18.535,2.337a.678.678,0,0,1-.09.006m8.484-17.029a13.815,13.815,0,0,1,.553,8.371c-.737,3-3.339,5.311-5.517,6.78l14.729-1.857c1.181-.947,9.107-7.6,8.91-15.3Z" transform="translate(-270.849 -161.155)"/><path class="d" d="M400.023,236a.714.714,0,0,1-.074-1.425l19.632-2.061a.714.714,0,1,1,.149,1.421L400.1,236a.675.675,0,0,1-.075,0" transform="translate(-291.344 -166.444)"/><path class="d" d="M401.614,247.391a.714.714,0,0,1-.074-1.425l18.472-1.939a.714.714,0,1,1,.149,1.421l-18.472,1.939a.673.673,0,0,1-.075,0" transform="translate(-292.48 -174.665)"/><path class="d" d="M400.895,257.418a.714.714,0,0,1-.074-1.425l17.39-1.826a.714.714,0,0,1,.149,1.421l-17.39,1.826a.682.682,0,0,1-.075,0" transform="translate(-291.966 -181.908)"/><path class="d" d="M397.726,267.059a.714.714,0,0,1-.074-1.425l16.741-1.758a.714.714,0,0,1,.149,1.421L397.8,267.055a.677.677,0,0,1-.075,0" transform="translate(-289.703 -188.842)"/><path class="d" d="M393.712,276.836a.714.714,0,0,1-.074-1.425l15.567-1.635a.714.714,0,1,1,.149,1.421l-15.566,1.634a.668.668,0,0,1-.075,0" transform="translate(-286.836 -195.913)"/><path class="m" d="M223.5,225.025l43.315-5.282,3.452,2.132-44.155,5.663Z" transform="translate(-165.776 -157.324)"/><path class="d" d="M224.329,226.467a.715.715,0,0,1-.5-.2l-2.612-2.514a.714.714,0,0,1,.409-1.224l43.315-5.282a.707.707,0,0,1,.462.1l3.452,2.132a.714.714,0,0,1-.284,1.316l-44.155,5.664a.751.751,0,0,1-.091.006m-1.034-2.7L224.577,225l41.815-5.363-1.522-.94Z" transform="translate(-163.99 -155.537)"/><path class="i" d="M182.275,178.161l37.006-3.886,17.991,12.05-43.728,5.545Z" transform="translate(-136.329 -124.848)"/><path class="d" d="M189.756,190.784l-12.363-15.039,38.584-4.051,19.792,13.256Zm-9.573-13.9,10.176,12.379,41.443-5.255-16.19-10.844Z" transform="translate(-132.842 -123.005)"/><path class="d" d="M234.947,211.128a.721.721,0,0,1-.195-.027l-3.4-.963a.715.715,0,0,1-.5-.867l1.1-4.223a.715.715,0,0,1,1.344-.111l2.305,5.187a.714.714,0,0,1-.653,1m-2.535-2.175,1.263.358-.856-1.926Z" transform="translate(-171.008 -146.445)"/><path class="n" d="M237.169,205.241l6.748-.708,1.687,4.884-6.13,1.01Z" transform="translate(-175.537 -146.46)"/><path class="d" d="M237.688,209.358a.715.715,0,0,1-.652-.424l-2.305-5.187a.714.714,0,0,1,.578-1l6.748-.709a.718.718,0,0,1,.75.477l1.687,4.885a.714.714,0,0,1-.559.938l-6.13,1.01a.7.7,0,0,1-.117.009m-1.253-5.293,1.682,3.784,4.749-.783-1.225-3.548Z" transform="translate(-173.751 -144.675)"/><path class="o" d="M311.446,193.694a3.9,3.9,0,1,1-4.29-3.474,3.9,3.9,0,0,1,4.29,3.474" transform="translate(-223.027 -136.221)"/><path class="d" d="M305.77,196.934a4.622,4.622,0,1,1,.491-.026,4.645,4.645,0,0,1-.491.026m.011-7.807a3.248,3.248,0,0,0-.336.018,3.186,3.186,0,1,0,.336-.018" transform="translate(-221.242 -134.435)"/><path class="d" d="M209.991,196.724a.712.712,0,0,1-.557-.266l-2.615-3.246a.714.714,0,1,1,1.113-.9l2.615,3.247a.714.714,0,0,1-.556,1.162" transform="translate(-153.747 -137.542)"/><path class="p" d="M222.2,234.591l-4.162,12.762L259.469,243l7.458-14.208Z" transform="translate(-161.871 -163.788)"/><path class="d" d="M216.251,246.282a.715.715,0,0,1-.679-.936l4.162-12.762a.714.714,0,0,1,.588-.487l44.728-5.8a.715.715,0,0,1,.724,1.041l-7.458,14.208a.714.714,0,0,1-.558.379l-41.432,4.35a.737.737,0,0,1-.075,0m4.7-12.826-3.681,11.286,39.956-4.2,6.642-12.653Z" transform="translate(-160.086 -162.003)"/><path class="d" d="M224.794,251.76a.715.715,0,0,1-.164-1.41l15.319-3.621a.671.671,0,0,1,.09-.015l21.551-2.263a.7.7,0,0,1,.157,0l6.462.752a.714.714,0,1,1-.165,1.419l-6.383-.743-21.427,2.25-15.275,3.611a.713.713,0,0,1-.165.019" transform="translate(-166.188 -174.968)"/><path class="d" d="M220.425,267.39a.714.714,0,0,1-.083-1.424l42.5-4.992a.715.715,0,0,1,.167,1.419l-42.5,4.992a.758.758,0,0,1-.084,0" transform="translate(-163.068 -186.769)"/><path class="i" d="M136.03,187.873l-18.5,2.652,6.576,10.46,20.073-2.6Z" transform="translate(-90.084 -134.561)"/><path class="d" d="M122.319,199.913a.714.714,0,0,1-.6-.334l-6.576-10.46a.714.714,0,0,1,.5-1.087l18.5-2.652a.712.712,0,0,1,.666.27l8.147,10.516a.714.714,0,0,1-.473,1.146l-20.073,2.6a.7.7,0,0,1-.092.006m-5.385-10.624,5.747,9.142,18.383-2.378-7.128-9.2Z" transform="translate(-88.299 -132.773)"/><path class="j" d="M36.359,240.571a8.715,8.715,0,0,0-2.838,7.439c.584,4.634,1.959,6.544,5.349,9.024l27.275,5.451s6.844-1.892,8.343-8.114c0,0,.938-5.968-.924-8.8s-5.37-7.359-7.809-7.3-29.4,2.3-29.4,2.3" transform="translate(-30.035 -170.553)"/><path class="d" d="M64.359,261.413a.72.72,0,0,1-.14-.014l-27.276-5.45a.711.711,0,0,1-.282-.124c-3.312-2.423-5-4.464-5.636-9.511a9.37,9.37,0,0,1,3.094-8.08.714.714,0,0,1,.393-.159c1.1-.092,27.005-2.246,29.437-2.306,3.046-.077,6.9,5.3,8.424,7.621,1.991,3.032,1.073,9.053,1.033,9.307,0,.019-.007.038-.011.056-1.579,6.556-8.551,8.554-8.847,8.636a.706.706,0,0,1-.19.026m-26.98-6.834,26.943,5.384c.983-.32,6.406-2.308,7.678-7.516.063-.429.809-5.794-.82-8.274-2.287-3.483-5.38-6.977-7.161-6.977h-.033c-2.27.056-26.446,2.06-29.117,2.282a7.911,7.911,0,0,0-2.426,6.657c.57,4.522,1.928,6.225,4.936,8.444" transform="translate(-28.247 -168.768)"/><path class="d" d="M116.144,277.823c.289,2.752-.895,5.131-2.644,5.315s-3.4-1.9-3.691-4.65.895-5.131,2.644-5.315,3.4,1.9,3.69,4.65" transform="translate(-84.54 -195.477)"/><path class="d" d="M111.492,282.075c-2.055,0-3.861-2.254-4.181-5.3-.335-3.192,1.106-5.871,3.28-6.1s4.14,2.094,4.476,5.286a7.4,7.4,0,0,1-.629,4.013,3.433,3.433,0,0,1-2.651,2.087,2.766,2.766,0,0,1-.295.015m-.608-9.988a1.405,1.405,0,0,0-.143.007c-1.332.14-2.251,2.214-2.008,4.53s1.58,4.152,2.905,4.014a2.156,2.156,0,0,0,1.521-1.3,5.96,5.96,0,0,0,.487-3.228c-.234-2.232-1.48-4.021-2.762-4.021" transform="translate(-82.752 -193.689)"/><path class="d" d="M148.26,279.869c.289,2.752-.895,5.131-2.644,5.315s-3.4-1.9-3.691-4.65.9-5.131,2.644-5.315,3.4,1.9,3.69,4.65" transform="translate(-107.479 -196.938)"/><path class="d" d="M143.606,284.123a3.537,3.537,0,0,1-2.731-1.506,7.4,7.4,0,0,1-1.449-3.8c-.335-3.192,1.106-5.871,3.28-6.1s4.14,2.093,4.476,5.286a7.4,7.4,0,0,1-.629,4.013,3.433,3.433,0,0,1-2.651,2.087,2.78,2.78,0,0,1-.3.016M143,274.135a1.4,1.4,0,0,0-.143.007c-1.332.14-2.251,2.215-2.008,4.53a5.961,5.961,0,0,0,1.146,3.056,1.765,1.765,0,0,0,3.28-.344,5.96,5.96,0,0,0,.487-3.228c-.234-2.232-1.48-4.021-2.762-4.021" transform="translate(-105.69 -195.152)"/><path class="d" d="M59.081,270.893c.265,2.519-.819,4.7-2.421,4.866s-3.114-1.738-3.379-4.258.819-4.7,2.421-4.866,3.114,1.738,3.379,4.258" transform="translate(-44.168 -190.808)"/><path class="d" d="M54.672,274.7c-1.913,0-3.592-2.087-3.888-4.908-.31-2.956,1.032-5.439,3.057-5.651s3.853,1.937,4.164,4.894-1.032,5.439-3.057,5.651a2.645,2.645,0,0,1-.276.015m-.556-9.145a1.236,1.236,0,0,0-.126.007c-1.186.125-2,1.994-1.785,4.082s1.409,3.745,2.594,3.621,2-1.994,1.785-4.081c-.211-2.014-1.324-3.628-2.468-3.628" transform="translate(-42.381 -189.02)"/><path class="d" d="M87.527,276.638c.265,2.519-.819,4.7-2.421,4.866s-3.114-1.738-3.379-4.257.819-4.7,2.421-4.866,3.114,1.738,3.379,4.257" transform="translate(-64.485 -194.912)"/><path class="d" d="M83.116,280.443a3.294,3.294,0,0,1-2.547-1.4,6.835,6.835,0,0,1-1.339-3.506c-.31-2.956,1.032-5.439,3.057-5.651a3.2,3.2,0,0,1,2.825,1.387,7.294,7.294,0,0,1,.758,7.214,3.2,3.2,0,0,1-2.476,1.944,2.653,2.653,0,0,1-.277.015M82.56,271.3a1.213,1.213,0,0,0-.124.006c-1.186.125-2,1.994-1.785,4.082a5.4,5.4,0,0,0,1.037,2.767,1.557,1.557,0,0,0,2.9-.3,5.881,5.881,0,0,0-.6-5.689,2.013,2.013,0,0,0-1.433-.861" transform="translate(-62.698 -193.125)"/><path class="p" d="M34.215,213.319l-.376-3.579a10.8,10.8,0,0,1,5.695-9.108l18.22-3.478,7.3,11.8-28.421,2.253s-1.742,2.042-2.419,2.113" transform="translate(-30.309 -141.189)"/><path class="d" d="M32.426,212.248a.715.715,0,0,1-.71-.64l-.376-3.579c0-.016,0-.033,0-.049a11.439,11.439,0,0,1,6.048-9.75.723.723,0,0,1,.227-.085l18.219-3.478a.717.717,0,0,1,.742.326l7.3,11.8a.714.714,0,0,1-.551,1.088l-28.129,2.23c-.857.978-1.956,2.057-2.693,2.134a.672.672,0,0,1-.075,0m.339-4.339.251,2.391a15.97,15.97,0,0,0,1.287-1.343.715.715,0,0,1,.487-.248l27.254-2.161-6.427-10.386L38,199.524a10.141,10.141,0,0,0-5.238,8.384" transform="translate(-28.522 -139.404)"/><path class="d" d="M91.208,213.45a.714.714,0,0,1-.71-.64l-.808-7.691a.714.714,0,0,1,1.421-.149l.808,7.691a.714.714,0,0,1-.636.785.672.672,0,0,1-.075,0" transform="translate(-70.199 -146.315)"/><path class="d" d="M45.054,232.265a.714.714,0,0,1-.068-1.425L70.3,228.378a.714.714,0,0,1,.138,1.422l-25.313,2.462c-.023,0-.047,0-.07,0" transform="translate(-37.81 -163.488)"/><path class="d" d="M93.911,222.918a.714.714,0,0,1-.074-1.425l8.045-.845a.714.714,0,1,1,.149,1.421l-8.046.845a.679.679,0,0,1-.075,0" transform="translate(-72.706 -157.967)"/><path class="d" d="M91.606,215.274a.714.714,0,0,1-.074-1.425l7.449-.782a.714.714,0,1,1,.149,1.421l-7.449.782a.668.668,0,0,1-.075,0" transform="translate(-71.059 -152.552)"/><path class="d" d="M90.651,206.453a.714.714,0,0,1-.074-1.425l6.386-.671a.714.714,0,0,1,.149,1.421l-6.385.67a.682.682,0,0,1-.075,0" transform="translate(-70.377 -146.332)"/><path class="i" d="M141.594,227.8s6.221,2.77,7.4,7.44l24.187-2.54s-1.106-6.144-6.7-8.2Z" transform="translate(-107.273 -160.725)"/><path class="d" d="M147.2,234.173a.714.714,0,0,1-.692-.54c-1.078-4.283-6.935-6.936-6.994-6.962a.715.715,0,0,1,.2-1.361l24.881-3.3a.72.72,0,0,1,.34.038c5.912,2.169,7.111,8.474,7.159,8.741a.714.714,0,0,1-.628.837l-24.187,2.54a.747.747,0,0,1-.075,0m-5.132-7.733c1.905,1.184,4.64,3.315,5.647,6.247l22.774-2.391c-.485-1.6-2-5.329-5.888-6.842Z" transform="translate(-105.487 -158.94)"/><path class="d" d="M162.316,240.5h-.04a.715.715,0,0,1-.674-.753c.108-1.943-3.424-5.4-5.675-7.114a.714.714,0,1,1,.867-1.136c.658.5,6.42,5,6.236,8.329a.714.714,0,0,1-.713.675" transform="translate(-117.309 -165.614)"/><path class="l" d="M147.859,275.248l18.535-2.337s10.135-7.683,9.292-16.773l-20.409,2.193a12.842,12.842,0,0,1,.924,8.8c-1.234,5.021-8.342,8.114-8.342,8.114" transform="translate(-111.748 -183.317)"/><path class="d" d="M146.073,274.177a.714.714,0,0,1-.285-1.369c.068-.03,6.8-3.016,7.934-7.63a12.166,12.166,0,0,0-.851-8.28.714.714,0,0,1,.544-1.064l20.409-2.192a.714.714,0,0,1,.788.644c.87,9.377-9.145,17.085-9.571,17.409a.716.716,0,0,1-.342.14l-18.535,2.337a.686.686,0,0,1-.09.006m8.484-17.029a13.814,13.814,0,0,1,.553,8.371c-.736,3-3.339,5.311-5.517,6.78l14.73-1.857c1.181-.947,9.107-7.6,8.909-15.3Z" transform="translate(-109.962 -181.533)"/><path class="d" d="M174.768,264.533a.714.714,0,0,1-.074-1.425l19.632-2.061a.714.714,0,1,1,.149,1.421l-19.632,2.062a.679.679,0,0,1-.075,0" transform="translate(-130.457 -186.821)"/><path class="d" d="M176.36,275.921a.714.714,0,0,1-.074-1.425l18.472-1.94a.714.714,0,0,1,.149,1.421l-18.472,1.94a.678.678,0,0,1-.075,0" transform="translate(-131.594 -195.042)"/><path class="d" d="M175.639,285.947a.714.714,0,0,1-.074-1.425l17.39-1.826a.714.714,0,0,1,.149,1.421l-17.39,1.826a.672.672,0,0,1-.075,0" transform="translate(-131.079 -202.284)"/><path class="d" d="M172.47,295.588a.714.714,0,0,1-.074-1.425l16.741-1.758a.714.714,0,0,1,.149,1.421l-16.741,1.758a.672.672,0,0,1-.075,0" transform="translate(-128.816 -209.219)"/><path class="d" d="M168.457,305.366a.714.714,0,0,1-.074-1.425l15.566-1.635a.714.714,0,0,1,.149,1.421l-15.567,1.634a.665.665,0,0,1-.075,0" transform="translate(-125.95 -216.291)"/><rect class="k" width="35.385" height="2.262" transform="translate(38.962 51.773) rotate(-5.998)"/><path class="d" d="M156.283,174.421a.714.714,0,0,1-.71-.64l-.236-2.249a.715.715,0,0,1,.636-.785l35.192-3.7a.713.713,0,0,1,.785.636l.236,2.249a.715.715,0,0,1-.636.785l-35.192,3.7a.676.676,0,0,1-.075,0m.55-2.328.087.828,33.771-3.546-.087-.828Z" transform="translate(-117.086 -119.686)"/><path class="p" d="M131.4,147.285s-2.655-12.706,7.431-15.159c0,0,11.536,2.97,15.14,12.5Z" transform="translate(-99.765 -94.744)"/><path class="d" d="M129.1,146.23l-.134-.64c-.028-.134-2.673-13.413,7.962-16l.174-.042.173.045c.485.125,11.938,3.175,15.63,12.935l.324.855Zm7.987-15.206c-7.96,2.071-7.208,11.1-6.833,13.631l20.963-2.473c-3.511-7.805-12.764-10.759-14.13-11.157" transform="translate(-98.028 -92.903)"/><path class="i" d="M157.5,123.058l25.19-2.938S194,122.086,195.925,125.7s2.657,4.343,2.74,7.929l-25.765,3s-1.187-8.165-15.4-13.569" transform="translate(-118.634 -86.168)"/><path class="d" d="M171.113,135.556a.715.715,0,0,1-.706-.612c-.011-.074-1.365-7.84-14.947-13a.715.715,0,0,1,.171-1.378l25.19-2.938a.759.759,0,0,1,.205.006c1.193.207,11.718,2.136,13.743,5.948.29.546.553,1.025.79,1.459,1.345,2.454,1.958,3.573,2.033,6.789a.715.715,0,0,1-.632.726l-25.765,3a.753.753,0,0,1-.083,0m-12.589-13.892c10.081,4.549,12.568,10.41,13.139,12.394l24.477-2.849c-.125-2.369-.634-3.3-1.833-5.485-.24-.438-.506-.923-.8-1.475-1.423-2.679-9.5-4.637-12.625-5.193Z" transform="translate(-116.848 -84.384)"/><path class="n" d="M124.995,150.426l4.235.509-.429,5.694-4.094.136Z" transform="translate(-95.211 -107.814)"/><path class="d" d="M122.922,155.7a.714.714,0,0,1-.714-.747l.288-6.339a.715.715,0,0,1,.8-.677l4.235.509a.714.714,0,0,1,.627.763l-.429,5.694a.715.715,0,0,1-.689.66l-4.094.136h-.024m.967-6.252-.218,4.8,2.681-.089.329-4.374Z" transform="translate(-93.426 -106.03)"/><path class="n" d="M166.75,118.34l.229,2.177,9.013-.791-.245-2.33Z" transform="translate(-125.24 -84.222)"/><path class="d" d="M165.192,119.446a.715.715,0,0,1-.71-.64l-.229-2.177a.715.715,0,0,1,.636-.785l9-.945a.714.714,0,0,1,.785.636l.245,2.33a.714.714,0,0,1-.648.786l-9.013.792c-.021,0-.042,0-.063,0m.557-2.256.081.768,7.589-.667-.094-.9Z" transform="translate(-123.454 -82.437)"/><path class="d" d="M267.36,138.547a.715.715,0,0,1-.71-.648c-.437-4.642,1.277-11.783,1.35-12.085a.715.715,0,0,1,1.389.337c-.017.072-1.731,7.211-1.316,11.614a.714.714,0,0,1-.644.778c-.023,0-.045,0-.068,0" transform="translate(-196.542 -89.846)"/><path class="p" d="M226.515,120.629s-3.046,2.668-1.209,5.483,5.661,1.606,6.965,0c0,0-4.131-.96-2.418-3.854l1.469-1.034Z" transform="translate(-166.643 -86.532)"/><path class="d" d="M226.687,126.728q-.134,0-.268-.007a4.282,4.282,0,0,1-3.486-2c-1.72-2.638.123-5.346,1.337-6.41a.712.712,0,0,1,.558-.171l4.807.6a.715.715,0,0,1,.323,1.293l-1.337.942a1.411,1.411,0,0,0-.161,1.246c.349.822,1.706,1.305,2.2,1.422a.715.715,0,0,1,.391,1.146,5.97,5.97,0,0,1-4.363,1.95m-1.7-7.134c-.595.619-2.087,2.464-.863,4.341a2.866,2.866,0,0,0,2.364,1.359,4.666,4.666,0,0,0,2.612-.708,3.83,3.83,0,0,1-1.959-1.812,2.85,2.85,0,0,1,.316-2.665.72.72,0,0,1,.162-.189Z" transform="translate(-164.868 -84.746)"/><path class="d" d="M199.251,81.155a.715.715,0,0,1-.654-.426l-6.835-15.495a.714.714,0,1,1,1.307-.576L199.9,80.152a.715.715,0,0,1-.653,1" transform="translate(-143.061 -46.25)"/><path class="p" d="M243.325,79.9l43.68-17.131s-.272,3.623,1.947,4.857L244.244,84.495a2.512,2.512,0,0,1-2.606-1.431c-.65-1.675,1.688-3.168,1.688-3.168" transform="translate(-178.647 -45.203)"/><path class="d" d="M242.177,83.439a3.1,3.1,0,0,1-2.993-1.9c-.68-1.753.918-3.357,1.969-4.029a.712.712,0,0,1,.124-.063l43.68-17.131a.714.714,0,0,1,.973.719c0,.03-.207,3.185,1.581,4.18a.714.714,0,0,1-.095,1.292L242.708,83.377a.735.735,0,0,1-.163.041,3.036,3.036,0,0,1-.368.022m-.3-4.694c-.292.205-1.74,1.288-1.357,2.274A1.748,1.748,0,0,0,242.3,82L285.775,65.6a6.375,6.375,0,0,1-1.258-3.575Z" transform="translate(-176.859 -43.417)"/><path class="p" d="M401.562,45.821s-2.317,1.931-.734,5.543a11,11,0,0,0,2.082,2.648l7.938-1.829s-3.391-1.552-3.558-4.542,2.552-5.036,2.552-5.036Z" transform="translate(-292.034 -30.803)"/><path class="d" d="M401.107,52.94a.714.714,0,0,1-.392-.117,11.088,11.088,0,0,1-2.307-2.885.752.752,0,0,1-.037-.073c-1.779-4.057.819-6.285.93-6.378a.719.719,0,0,1,.2-.117l8.28-3.217a.714.714,0,0,1,.688,1.237c-.023.017-2.412,1.864-2.268,4.426.141,2.515,3.113,3.919,3.143,3.932a.715.715,0,0,1-.138,1.345l-7.938,1.83a.725.725,0,0,1-.16.018m-1.444-3.687a12.033,12.033,0,0,0,1.619,2.2l5.935-1.368a5.855,5.855,0,0,1-2.444-4.19,6,6,0,0,1,.869-3.379l-5.5,2.136c-.342.345-1.649,1.9-.482,4.6" transform="translate(-290.23 -29.017)"/><path class="n" d="M289.053,132.146l3.128-1.56a8.212,8.212,0,0,1,3.151,7.959l-2.621.275a22.337,22.337,0,0,0-3.659-6.674" transform="translate(-212.594 -93.644)"/><path class="d" d="M290.925,137.748a.715.715,0,0,1-.677-.486,21.754,21.754,0,0,0-3.51-6.421.715.715,0,0,1,.21-1.12l3.128-1.56a.712.712,0,0,1,.716.046,8.865,8.865,0,0,1,3.459,8.662.715.715,0,0,1-.632.6l-2.621.275c-.025,0-.05,0-.075,0m-2.531-7.152a23.6,23.6,0,0,1,3.013,5.669l1.5-.158a7.448,7.448,0,0,0-2.593-6.469Z" transform="translate(-210.809 -91.857)"/><path class="d" d="M425.732,41.357a4.643,4.643,0,0,1,4.838,4.407,4.381,4.381,0,1,1-8.655.909,4.643,4.643,0,0,1,3.817-5.316" transform="translate(-307.468 -29.897)"/><path class="d" d="M424.559,50.029a5.427,5.427,0,0,1-5.141-5.069,5.889,5.889,0,0,1,1.037-4.062,4.8,4.8,0,0,1,3.417-2.039h0a4.8,4.8,0,0,1,3.766,1.285,6.039,6.039,0,0,1,.821,7.82A4.8,4.8,0,0,1,425.041,50a4.652,4.652,0,0,1-.482.025m-.2-9.766a3.226,3.226,0,0,0-.336.017h0a3.393,3.393,0,0,0-2.4,1.451,4.463,4.463,0,0,0-.776,3.08,3.933,3.933,0,0,0,4.053,3.771,3.393,3.393,0,0,0,2.4-1.451,4.612,4.612,0,0,0-.623-5.931,3.435,3.435,0,0,0-2.318-.938m-.411-.693h0Z" transform="translate(-305.681 -28.11)"/><g class="q" transform="translate(71.331 70.448)"><g class="r"><path class="f" d="M373.333,286.425s-2.242-22.641-23.987-18.831c0,0-5.156-20.624-21.073-19.728s-21.3,10.536-21.3,14.572c0,0-14.123-.449-16.365,12.105,0,0-12.105-2.914-19.5,9.639Z" transform="translate(-271.109 -247.839)"/></g></g><path class="d" d="M457.906,40.053a.857.857,0,0,1-.195-1.692l9.231-2.165a.857.857,0,1,1,.391,1.669L458.1,40.03a.854.854,0,0,1-.2.023" transform="translate(-332.584 -26.21)"/><path class="d" d="M449.835,20.309a.857.857,0,0,1-.612-1.458l6.2-6.326a.857.857,0,0,1,1.224,1.2l-6.2,6.326a.856.856,0,0,1-.612.257" transform="translate(-326.819 -9.136)"/></g></g></g></svg>