<svg xmlns="http://www.w3.org/2000/svg" xmlns:xlink="http://www.w3.org/1999/xlink" width="148" height="108" viewBox="0 0 148 108"><defs><style>.a{fill:#fff;}.b{clip-path:url(#a);}.c{fill:#fbbc75;}.d{fill:#481549;}.e{fill:#f48863;}.f{fill:#2e1218;}.g{fill:#8e193c;}.h{fill:#e73f48;}.i{fill:#921c1e;}.j{fill:#29266f;}.k{fill:#fcdbcf;}.l{fill:#ef5657;}.m{fill:#c11e54;}.n{fill:#831619;}.o{fill:#98444d;}.p{fill:#d28a2d;}.q{fill:#ef9b8d;}.r{fill:#d7daee;}</style><clipPath id="a"><rect class="a" width="148" height="108" rx="8" transform="translate(0.188 0.076)"/></clipPath></defs><g class="b" transform="translate(-0.188 -0.076)"><g transform="translate(-14.346 -2.61)"><path class="c" d="M89.037,245.963a1.948,1.948,0,0,1-1.61-1.811v-9.728s.8-1.073.8,0v9.526a2.309,2.309,0,0,0,1.208.951v-7.09s.113-1.27.49-.27.283,10.113.283,10.113.547,1.056.736,0,0-16.17,0-16.17.415-.83.811-.075.208,16.132.208,16.132a1.493,1.493,0,0,1-1.736,1.491l-.038,2.792h-.943Z" transform="translate(-61.584 -162.943)"/><path class="c" d="M96.205,195.481a1.949,1.949,0,0,0,1.61-1.811v-9.727s-.8-1.074-.8,0v9.526a2.31,2.31,0,0,1-1.208.951V187.33s-.113-1.27-.491-.27-.283,10.113-.283,10.113-.547,1.056-.736,0,0-16.17,0-16.17-.415-.83-.811-.075-.207,16.132-.207,16.132a1.493,1.493,0,0,0,1.736,1.491l.038,2.792h.943l.118-3.228Z" transform="translate(-65.671 -127.383)"/><path class="d" d="M182.022,109.037H45.8a8.894,8.894,0,0,1-8.868-8.868V9.411A8.894,8.894,0,0,1,45.8.543H182.022a8.894,8.894,0,0,1,8.868,8.868v90.758a8.894,8.894,0,0,1-8.868,8.868" transform="translate(-26.012 -0.543)"/><path class="e" d="M338.2,22.96a8.167,8.167,0,1,1-8.167-8.167A8.167,8.167,0,0,1,338.2,22.96" transform="translate(-226.725 -10.581)"/><path class="f" d="M45.13,65.416s1.413-7.439,6-7.439,6.3-18.113,6.3-18.113H61.14V59.486s2.447,2.114,2.582,3.925,0,4.528,0,4.528,2.908,2.214,3.456,3.972,5.434,8.405,8.453,6.9S78.348,71.3,81.367,66.9s7.283-1.485,7.283-1.485S87.908,61.6,90.826,61.6s6.856,1.811,6.856,1.811-1.825-2.194,4.062-3.965,8,4.87,10.415,1.851.6-11.773,2.415-16.3,5.109-5.132,5.109-5.132V25.373l3.645-2.415a11.908,11.908,0,0,1,3.925,7.547c.3,4.529,0,11.472,0,11.472s-2.147,5.434.134,7.245,3.821-1.51,3.806-6.943,0-9.141,0-9.141l3.86,2.5.4,9.962,1.76-6.876s1.418-.369,1.917,2.046-.591,8.755-.591,8.755.747,5.434,3.333,5.736,8.65,2.415,10.3.3,7.685-.3,9.5-12.377,1.8-11.339,5.732-10.047-.3,14.994,3.929,19.162a16.306,16.306,0,0,0,9.66,4.45V141.9H18.226V46.2s6.99,4.226,10.613-2.717,8.353-8.318,7.95-4.763a34.951,34.951,0,0,0,0,11.4c.8,6.34,1.529,12.377,4.186,11.472s4.156,3.816,4.156,3.816" transform="translate(-12.838 -16.332)"/><path class="g" d="M28.577,159.293s12.806-.6,19.689,4.83S56.96,175.6,67.526,176.2s15.094-1.415,22.037-1.764,13.283,5.99,27.472,9.915,15.362-.509,23.379-9.915,7.137-12.726,19.049-11.519,7.182,6.736,13.018,11.519,10.057,4.179,10.057,4.179v30.947l.76,19.121H28.577Z" transform="translate(-20.13 -112.353)"/><path class="h" d="M0,107.656s12.378.871,54.944,15.663,52.494,8.453,65.341,0,17.773-1.811,26.933,1.51,9.16-46.793,13.386-48,5.736,0,5.736,0l1.811,92.378L1.536,167.4Z" transform="translate(0 -53.901)"/><path class="e" d="M9.048,239.754s4.01-4.292,29.047,3.59,73.038-3.28,84.962-2.378,24.379,8.146,32.189,8.448,16.565-7.547,16.565-7.547v41.661L5.2,281.716Z" transform="translate(-3.661 -168.222)"/><path class="c" d="M174.74,271.974s-25.45-4.528-41.253,0-23,4.528-31.175,2.717-30.716-6.34-36.05-5.736S38.835,279,25.179,275.822s-14.967-3.135-14.967-3.135v29.173l164.83,1.51Z" transform="translate(-7.193 -189.574)"/><path class="f" d="M167.426,306.328s-4.1-4.292-29.664,3.59-74.591-3.28-86.769-2.378-24.9,8.146-32.874,8.448S1.2,308.441,1.2,308.441V350.1L171.36,348.29Z" transform="translate(-0.847 -215.117)"/><path class="i" d="M201.581,93.067s-12.462,2.623-13.008,5.247,7.98,6.887,25.142,7a171.16,171.16,0,0,0,28.2-1.858s8.2-1.967,8.527-3.607-5.684-5.466-12.462-6.012c0,0-1.312-13.773-7.106-16.834-3.718-1.965-6.777.765-8.2,1.093s-3.276,1.093-5.794.218c-1.168-.406-4.372-2.637-7-1.482s-7.542,3.669-8.307,16.24" transform="translate(-132.813 -53.901)"/><path class="j" d="M213.312,104.3q-.675,0-1.362,0c-14.239-.091-22.94-3.012-25.246-5.868a2.382,2.382,0,0,1-.614-2.018c.185-.887,1.134-2.283,7.214-4.163,2.394-.74,4.774-1.3,5.817-1.536.933-12.891,6.37-15.284,8.711-16.314,2.391-1.051,5.054.264,6.645,1.05.37.183.691.341.891.411a7.309,7.309,0,0,0,4.689-.064c.243-.064.475-.126.7-.177a6.769,6.769,0,0,0,1.129-.494c1.653-.824,4.42-2.2,7.581-.532,5.424,2.866,7.093,14.033,7.429,16.809,5.289.581,10.423,3.12,12.021,5.238a2.012,2.012,0,0,1,.5,1.6c-.366,1.83-5.845,3.4-9.079,4.181l-.043.009a171.524,171.524,0,0,1-26.975,1.874M209.776,75.48a3.321,3.321,0,0,0-1.35.268c-2.127.936-7.108,3.129-7.868,15.608a.739.739,0,0,1-.585.678c-5.79,1.219-12.169,3.389-12.437,4.675a1.128,1.128,0,0,0,.317.788c1.686,2.087,9.5,5.225,24.106,5.318.456,0,.91,0,1.356,0a170.669,170.669,0,0,0,26.692-1.848c3.9-.939,7.59-2.348,7.95-3.034-.056-1.049-5.335-4.6-11.795-5.125a.739.739,0,0,1-.676-.667c-.013-.134-1.341-13.412-6.715-16.25-2.491-1.317-4.653-.239-6.231.548a7.21,7.21,0,0,1-1.455.611c-.207.048-.424.106-.65.166a8.78,8.78,0,0,1-5.552.031,10.2,10.2,0,0,1-1.061-.482,9.825,9.825,0,0,0-4.045-1.29m-9.955,15.831h0Z" transform="translate(-131.054 -52.146)"/><path class="k" d="M234.673,171.708v15.133s-.055,3.061,2.022,4.7,8.964,7,8.964,7l11.915.437,10.275-8.2s1.53-2.3,1.53-3.935V171.708s-26.04,2.094-34.706,0" transform="translate(-165.304 -121.112)"/><path class="j" d="M255.812,197.953h-.027l-11.915-.437a.737.737,0,0,1-.427-.155c-.069-.053-6.912-5.377-8.968-7-2.338-1.845-2.305-5.154-2.3-5.294V169.947a.739.739,0,0,1,.913-.718c8.453,2.042,34.215,0,34.474-.018a.739.739,0,0,1,.8.737V185.08a9.753,9.753,0,0,1-1.654,4.345.749.749,0,0,1-.154.168l-10.275,8.2a.74.74,0,0,1-.461.161m-11.65-1.906,11.4.419,9.968-7.953a8.239,8.239,0,0,0,1.345-3.432V170.745c-4.36.328-24.668,1.729-33.229.115V185.08c0,.039-.015,2.734,1.741,4.121,1.859,1.467,7.651,5.975,8.772,6.846" transform="translate(-163.543 -119.351)"/><path class="k" d="M223.743,171.708s-.327,8.027,3.225,9.339v-9.339Z" transform="translate(-157.6 -121.112)"/><path class="j" d="M225.2,180.025a.73.73,0,0,1-.256-.046c-3.943-1.456-3.743-9.186-3.708-10.062a.739.739,0,0,1,.738-.709H225.2a.739.739,0,0,1,.739.739v9.339a.739.739,0,0,1-.739.739m-2.5-9.339c.011,2.022.351,5.572,1.759,7.189v-7.189Z" transform="translate(-155.828 -119.351)"/><path class="k" d="M356.192,172.342s.327,8.027-3.225,9.339v-9.339Z" transform="translate(-248.631 -121.559)"/><path class="j" d="M351.205,180.659a.739.739,0,0,1-.739-.739v-9.339a.739.739,0,0,1,.739-.739h3.225a.739.739,0,0,1,.738.709c.036.876.235,8.606-3.707,10.062a.738.738,0,0,1-.256.046m.739-9.339v7.19c1.407-1.618,1.747-5.167,1.758-7.19Z" transform="translate(-246.869 -119.798)"/><path class="l" d="M208.637,253.126s.377,2.543-.825,3.2-6.34,1.858-10.822,5.684-7.652,13.446-8.745,21.207l-1.093,7.761h62.321s-1-22.956-10.074-29.3-8.741-4.263-9.615-5.356-2-2.939-2-2.939l-3.683,2.939-11.915-.437Z" transform="translate(-131.83 -178.463)"/><path class="j" d="M247.712,289.956H185.391a.739.739,0,0,1-.732-.842l1.093-7.761c1.114-7.913,4.328-17.681,9-21.666a30.429,30.429,0,0,1,9.576-5.225,13.947,13.947,0,0,0,1.372-.546c.485-.265.572-1.589.448-2.443a.739.739,0,0,1,1.185-.69l3.359,2.615,11.4.419,3.469-2.768a.739.739,0,0,1,1.092.192c.011.018,1.113,1.819,1.947,2.863.107.134.107.134.363.188.887.187,2.733.574,9.1,5.025,9.261,6.475,10.347,28.917,10.389,29.869a.739.739,0,0,1-.738.771m-61.471-1.478h60.686c-.277-4.018-1.963-22.534-9.712-27.951-6.118-4.277-7.826-4.636-8.556-4.79a1.75,1.75,0,0,1-1.213-.711c-.554-.693-1.193-1.657-1.61-2.307l-3.036,2.423a.728.728,0,0,1-.488.161l-11.915-.437a.741.741,0,0,1-.427-.155l-2.328-1.813a2.831,2.831,0,0,1-1.236,2.316,13.547,13.547,0,0,1-1.571.636,28.692,28.692,0,0,0-9.126,4.961c-4.35,3.714-7.452,13.359-8.493,20.748Z" transform="translate(-130.069 -176.703)"/><path class="m" d="M223.736,269.8s.336,5.521,18.045,11.314h5.138s18.247-6.887,18.251-11.314l-7.866-4.86s-11.927,7.539-12.851,14.1c0,0-6.717-14.539-10.87-15.085,0,0-8.98,3.389-9.846,5.848" transform="translate(-157.6 -186.087)"/><path class="j" d="M242.775,279.975l-.066-.142H239.5l-.134-.044c-17.768-5.813-18.616-11.477-18.654-12.1l-.011-.179.06-.169c.955-2.712,8.806-5.793,10.37-6.383l.208-.079.221.029c3.657.481,8.395,9.149,10.57,13.532,2.756-6.16,12.116-12.133,12.561-12.415l.469-.3,8.759,5.412v.5c0,1.423-1,3.812-9.619,8.11-4.55,2.269-9.161,4.015-9.206,4.033l-.152.057H242.8Zm.27-1.915h1.574c.821-.316,4.889-1.907,8.9-3.909,6.551-3.268,8.156-5.206,8.524-6.086l-6.864-4.241c-2.162,1.445-11.23,7.795-11.986,13.17Zm-3.258,0h2.1l-.378-.818c-2.458-5.32-7.273-13.809-9.986-14.539-3.4,1.305-8.142,3.607-8.995,5.027.316.951,2.558,5.5,17.255,10.33" transform="translate(-155.464 -183.922)"/><path class="m" d="M289.186,319.724a2.572,2.572,0,1,1-2.572-2.573,2.572,2.572,0,0,1,2.572,2.573" transform="translate(-200.079 -223.562)"/><path class="j" d="M284.5,321.069a3.459,3.459,0,1,1,3.459-3.459,3.463,3.463,0,0,1-3.459,3.459m0-5.145a1.686,1.686,0,1,0,1.685,1.686,1.688,1.688,0,0,0-1.685-1.686" transform="translate(-197.966 -221.449)"/><path class="m" d="M272.558,325.854s-6.559.5-4.373,9.029c0,0,5.8-4.279,5.689-6.785,0,0-1.535-1.107-1.317-2.244" transform="translate(-188.596 -229.693)"/><path class="j" d="M265.537,334.06l-.327-1.274c-.824-3.213-.575-5.773.739-7.607a6.449,6.449,0,0,1,4.425-2.527l1.158-.089-.219,1.14c-.071.368.526,1.037.967,1.359l.343.251.022.427c.129,2.835-5.016,6.778-6.049,7.539ZM269.7,324.6a4.461,4.461,0,0,0-2.317,1.626,6.348,6.348,0,0,0-.734,4.762c1.866-1.536,3.882-3.579,4.189-4.825A4.315,4.315,0,0,1,269.7,324.6" transform="translate(-186.48 -227.375)"/><path class="m" d="M298.878,325.854s6.559.5,4.373,9.029c0,0-5.8-4.279-5.689-6.785,0,0,1.535-1.107,1.316-2.244" transform="translate(-209.602 -229.693)"/><path class="j" d="M301.671,334.059l-1.059-.781c-1.033-.762-6.178-4.7-6.049-7.54l.02-.428.348-.251c.438-.32,1.035-.989.964-1.357l-.219-1.141,1.158.089a6.449,6.449,0,0,1,4.425,2.527c1.314,1.834,1.563,4.394.739,7.607Zm-5.3-7.894c.307,1.246,2.323,3.289,4.189,4.825a6.331,6.331,0,0,0-.747-4.779,4.442,4.442,0,0,0-2.3-1.614,4.311,4.311,0,0,1-1.139,1.568" transform="translate(-207.489 -227.374)"/><path class="n" d="M316.029,79.119s4.7,1.64,4.7,8.089a129,129,0,0,0,.765,13.008s4.372,2.3,4.646,5.083c0,0,10.276-1.038,13.391-3.826a10.787,10.787,0,0,0-3.8-2.87c-2.842-1.476-7.679-2.381-8.694-2.217a47.09,47.09,0,0,0-1.22-7.1c-.881-3.218-2.193-6.662-3.5-8.035s-2.856-3.095-6.286-2.132" transform="translate(-222.612 -55.695)"/><path class="o" d="M242.135,80.892s-3.443-.273-5.083,5.794a133.685,133.685,0,0,0-2.733,14.593s-4.544,3.826-5.114,5.465c0,0,11.509,1.381,12.93.991,0,0,.383-4.708,1.2-5.637,0,0-.218-9.237.765-13.61s2.036-5.916,2.036-5.916-1.175-.383-1.79-.642a14.624,14.624,0,0,0-2.213-1.038" transform="translate(-161.453 -57.139)"/><path class="p" d="M235.056,121.759s18.212,3.99,33.974,0l.566,3.607s-14.043,3.936-34.923,0Z" transform="translate(-165.304 -85.928)"/><path class="j" d="M251.174,126.08a99.462,99.462,0,0,1-18.4-1.748.739.739,0,0,1-.6-.8l.382-3.607a.74.74,0,0,1,.893-.644c.181.039,18.23,3.905,33.635.005a.739.739,0,0,1,.911.6l.566,3.607a.739.739,0,0,1-.531.826,69.711,69.711,0,0,1-16.861,1.763M233.719,123c17.644,3.2,30.361.722,33.281.047l-.336-2.144c-13.679,3.22-29.065.668-32.719-.026Z" transform="translate(-163.543 -84.167)"/><path class="e" d="M237.549,216.712s3.689,5.271,5.452,5.148a6.4,6.4,0,0,0,4.8-1.927c1.886-1.722,9.8-1.516,10.576-1.107s2.952,2.337,3.935,2.706,2.091.82,3.32-.123a71.249,71.249,0,0,0,4.96-5.165v2.706l-1.353,2.665-9.961,7.912-11.4-.41-7.994-6.231s-2.172-1.394-2.336-2.91a19.028,19.028,0,0,1,0-3.262" transform="translate(-167.279 -152.483)"/><path class="j" d="M257.857,180h-6.641a.739.739,0,1,1,0-1.478h6.641a.739.739,0,0,1,0,1.478" transform="translate(-176.437 -125.91)"/><path class="j" d="M316.194,180h-6.641a.739.739,0,0,1,0-1.478h6.641a.739.739,0,0,1,0,1.478" transform="translate(-217.529 -125.91)"/><path class="j" d="M263,182.51a1.489,1.489,0,1,1-1.489-1.49A1.489,1.489,0,0,1,263,182.51" transform="translate(-183.159 -127.671)"/><path class="j" d="M320.411,182.51a1.489,1.489,0,1,1-1.489-1.49,1.489,1.489,0,0,1,1.489,1.49" transform="translate(-223.6 -127.671)"/><path class="j" d="M289.537,189.2a.739.739,0,0,1-.092-.006l-2.542-.314a.74.74,0,0,1-.649-.734v-6.395a.739.739,0,0,1,1.478,0V187.5l1.894.234a.739.739,0,0,1-.09,1.472" transform="translate(-201.639 -127.669)"/><path class="j" d="M282.279,232.376a.739.739,0,0,1-.179-1.456c.255-.064,2.717-.723,3.984-1.062a.739.739,0,1,1,.383,1.428c-.15.04-3.678.986-4.009,1.069a.736.736,0,0,1-.18.022" transform="translate(-198.317 -162.055)"/><path class="j" d="M233.275,137.364c-.022,0-.043,0-.065,0-2.927-.256-4.4-.81-4.781-1.8a1.3,1.3,0,0,1,.086-1.115l.363-3.257a.739.739,0,0,1,1.469.163l-.383,3.44a.738.738,0,0,1-.095.289c.2.161.955.583,3.47.8a.739.739,0,0,1-.064,1.475" transform="translate(-160.844 -92.111)"/><path class="j" d="M281.824,139.985c-1.574,0-3.275-.025-5.114-.08a.739.739,0,1,1,.044-1.477c15.557.464,21.011-1.248,22.388-1.825l-.3-2.656a.739.739,0,0,1,1.469-.164l.355,3.17a.739.739,0,0,1-.316.691c-.153.1-3.595,2.341-18.529,2.341" transform="translate(-194.41 -93.935)"/><path class="j" d="M240.536,217.547a6.092,6.092,0,0,1-1.213-.145c-.112-.022-.215-.043-.307-.056-.318-.045-1.065-.152-6.331-7.061l1.176-.9a58.432,58.432,0,0,0,5.466,6.51c.088.015.182.033.282.053a2.474,2.474,0,0,0,2.6-.625c1.5-1.5,2.614-2.5,4.359-2.736,1.567-.211,8.035-.108,8.309-.1h.08l.077.018a7.28,7.28,0,0,1,3.814,2.8c1,1.351,2.713.5,3.1.291l5.764-6.077,1.072,1.017-5.9,6.221-.08.05c-1.108.693-3.609,1.453-5.14-.626a6.062,6.062,0,0,0-2.9-2.215c-2.32-.036-6.841-.063-7.991.092-1.245.168-2.063.869-3.511,2.317a3.7,3.7,0,0,1-2.715,1.175" transform="translate(-163.904 -147.655)"/><path class="k" d="M258.413,254.471l-1.38,2.767s8.954,5.834,10.608,5.848,5.707-1.783,8.755-4.308,2.024-2.326,2.024-2.326L277,254.3l-3.684,2.939-11.915-.437Z" transform="translate(-181.055 -179.289)"/><path class="j" d="M265.9,262.064h-.025c-1.734-.015-8.861-4.572-11-5.968a.739.739,0,0,1-.258-.949l1.38-2.767a.739.739,0,0,1,1.116-.253l2.8,2.183,11.4.419,3.47-2.768a.739.739,0,0,1,1.079.172l1.257,1.914a.82.82,0,0,1,.364.378c.286.6.019,1.177-2.377,3.162-2.888,2.393-7.179,4.477-9.207,4.477m-9.671-6.848c4.092,2.637,8.8,5.355,9.658,5.37h.014c1.338,0,5.2-1.6,8.263-4.137a18.038,18.038,0,0,0,1.732-1.573l-.824-1.255-3.05,2.433a.736.736,0,0,1-.488.161l-11.915-.437a.738.738,0,0,1-.427-.155l-2.28-1.775Zm20.57.2h0" transform="translate(-179.293 -177.529)"/><path class="q" d="M261.96,258.288l2.46,1.927,12.544.451,3.115-2.542.574.9-3.362,3.033H265.608l-3.894-2.706Z" transform="translate(-184.352 -181.984)"/><path class="r" d="M248.208,256.552s-3.826,3.935,0,11.806l2.733,4.263,9.067-7.215,9.3,7.215s6.668-8.2,2.624-16.069c0,0-8.081,9.292-12.02,8.035s-11.7-6.613-11.7-8.035" transform="translate(-173.641 -180.876)"/><path class="j" d="M248.593,268.722l-3.314-5.181c-4.051-8.334-.012-12.633.161-12.812l1.523-1.566v2.114c.543,1.279,7.3,6.053,11.083,7.26,2.459.788,8.1-4.35,11.082-7.772l.859-.988.6,1.164c4.261,8.291-2.437,16.681-2.724,17.034l-.547.673-9.432-7.319Zm10.837-8.438,7.565,5.87c1.319-1.938,4.608-7.59,2.543-13.2-1.989,2.132-6.537,6.626-10.108,7.328m-12.578,2.435,2.174,3.392,7.731-6.152a37.791,37.791,0,0,1-6.81-3.8,22.624,22.624,0,0,1-3.9-3.18c-.765,1.515-1.618,4.729.8,9.742" transform="translate(-171.509 -175.672)"/><path class="f" d="M473.781,272.123a1.949,1.949,0,0,1-1.61-1.811v-9.727s.8-1.073.8,0v9.526a2.31,2.31,0,0,0,1.208.951v-7.09s.113-1.27.49-.27.283,10.113.283,10.113.547,1.057.736,0,0-16.17,0-16.17.415-.83.812-.075.207,16.132.207,16.132a1.493,1.493,0,0,1-1.736,1.491l-.038,2.792h-.943Z" transform="translate(-332.598 -181.37)"/><path class="f" d="M163.877,296.953a1.949,1.949,0,0,1-1.61-1.811v-9.727s.8-1.074.8,0v9.526a2.312,2.312,0,0,0,1.208.952V288.8s.113-1.27.491-.27.283,10.113.283,10.113.547,1.056.736,0,0-16.17,0-16.17.415-.83.811-.075.208,16.132.208,16.132a1.493,1.493,0,0,1-1.736,1.49l-.038,2.793h-.943Z" transform="translate(-114.301 -198.86)"/><path class="e" d="M433.436,212.133a1.948,1.948,0,0,1-1.61-1.811v-9.727s.8-1.074.8,0v9.526a2.31,2.31,0,0,0,1.208.951v-7.089s.113-1.27.49-.27.283,10.113.283,10.113.547,1.056.736,0,0-16.17,0-16.17.415-.83.811-.075.208,16.132.208,16.132a1.493,1.493,0,0,1-1.736,1.491l-.038,2.793h-.943Z" transform="translate(-304.179 -139.113)"/><path class="c" d="M99.695,243.753a1.948,1.948,0,0,1-1.61-1.811v-9.728s.8-1.073.8,0v9.526a2.308,2.308,0,0,0,1.208.952V235.6s.113-1.271.49-.271.283,10.113.283,10.113.547,1.056.736,0,0-16.17,0-16.17.415-.83.811-.075.208,16.132.208,16.132a1.493,1.493,0,0,1-1.736,1.491l-.038,2.792h-.943Z" transform="translate(-69.091 -161.386)"/><path class="c" d="M106.863,193.271a1.949,1.949,0,0,0,1.61-1.811v-9.728s-.8-1.073-.8,0v9.526a2.31,2.31,0,0,1-1.207.951V185.12s-.113-1.271-.491-.27-.283,10.113-.283,10.113-.547,1.056-.736,0,0-16.17,0-16.17-.415-.83-.811-.075-.208,16.132-.208,16.132a1.493,1.493,0,0,0,1.736,1.491l.038,2.792h.943l.118-3.228Z" transform="translate(-73.179 -125.827)"/></g></g></svg>