<svg xmlns="http://www.w3.org/2000/svg" width="30" height="30" viewBox="0 0 30 30"><defs><style>.a{opacity:0.999;}.b{fill:#29f87e;}</style></defs><g transform="translate(-716 -640)"><circle class="a" cx="15" cy="15" r="15" transform="translate(716 640)"/><path class="b" d="M16.032,482.664,8.569,475.1v4.954a8.936,8.936,0,0,0-5.917,2.674A9.173,9.173,0,0,0,0,489.217v1.917l.91-1.681A8.074,8.074,0,0,1,8,485.2q.282,0,.564.02v5.006ZM8,484.218a9.011,9.011,0,0,0-6.824,3.137,8.12,8.12,0,0,1,7.873-6.329h.485v-3.552l5.122,5.19-5.122,5.189v-3.513l-.425-.053A8.957,8.957,0,0,0,8,484.218Z" transform="translate(723.34 171.727)"/></g></svg>