<svg xmlns="http://www.w3.org/2000/svg" width="24.001" height="24" viewBox="0 0 24.001 24"><defs><style>.a{fill:#337fff;}.b{fill:#fff;}</style></defs><g transform="translate(-361.318 -96.173)"><g transform="translate(361.318 96.173)"><path class="a" d="M385.319,108.176a12,12,0,1,0-13.875,11.857v-8.388H368.4v-3.469h3.047v-2.645c0-3.008,1.791-4.67,4.533-4.67a18.419,18.419,0,0,1,2.686.235v2.953h-1.513a1.735,1.735,0,0,0-1.956,1.875v2.252h3.329l-.533,3.469h-2.8v8.388A12,12,0,0,0,385.319,108.176Z" transform="translate(-361.318 -96.173)"/><path class="b" d="M380.969,113.441l.512-3.332h-3.2v-2.163a1.667,1.667,0,0,1,1.879-1.8h1.454v-2.837a17.7,17.7,0,0,0-2.581-.225c-2.633,0-4.354,1.6-4.354,4.485v2.54h-2.927v3.332h2.927V121.5a11.648,11.648,0,0,0,3.6,0v-8.056Z" transform="translate(-364.467 -97.637)"/></g></g></svg>