<svg xmlns="http://www.w3.org/2000/svg" xmlns:xlink="http://www.w3.org/1999/xlink" width="24" height="24" viewBox="0 0 24 24"><defs><style>.a{fill:url(#a);}.b{fill:#fff;}</style><linearGradient id="a" x1="0.032" y1="0.104" x2="1.031" y2="0.949" gradientUnits="objectBoundingBox"><stop offset="0.001" stop-color="#fbe18a"/><stop offset="0.209" stop-color="#fcbb45"/><stop offset="0.376" stop-color="#f75274"/><stop offset="0.524" stop-color="#d53692"/><stop offset="0.739" stop-color="#8f39ce"/><stop offset="1" stop-color="#5b4fe9"/></linearGradient></defs><g transform="translate(-361.318 -150.755)"><circle class="a" cx="12" cy="12" r="12" transform="translate(361.318 150.755)"/><g transform="translate(366.189 155.608)"><g transform="translate(0 0)"><path class="b" d="M384.121,161.753a.836.836,0,1,0,.836.836A.836.836,0,0,0,384.121,161.753Z" transform="translate(-373.216 -159.207)"/><path class="b" d="M377.5,163.312a3.512,3.512,0,1,0,3.512,3.512A3.516,3.516,0,0,0,377.5,163.312Zm0,5.761a2.249,2.249,0,1,1,2.249-2.249A2.252,2.252,0,0,1,377.5,169.074Z" transform="translate(-370.31 -159.694)"/><path class="b" d="M378.614,172.309h-5.693a4.288,4.288,0,0,1-4.283-4.283v-5.693a4.288,4.288,0,0,1,4.283-4.283h5.693a4.288,4.288,0,0,1,4.283,4.283v5.693A4.288,4.288,0,0,1,378.614,172.309Zm-5.693-12.918a2.945,2.945,0,0,0-2.942,2.942v5.693a2.945,2.945,0,0,0,2.942,2.942h5.693a2.945,2.945,0,0,0,2.942-2.942v-5.693a2.945,2.945,0,0,0-2.942-2.942Z" transform="translate(-368.638 -158.049)"/></g></g></g></svg>