<svg xmlns="http://www.w3.org/2000/svg" width="24" height="24" viewBox="0 0 24 24"><defs><style>.a{fill:#3cf;}.b{fill:#fff;}</style></defs><g transform="translate(-361.319 -205.336)"><circle class="a" cx="12" cy="12" r="12" transform="translate(361.319 205.336)"/><path class="b" d="M382.6,216.353a5.4,5.4,0,0,1-1.323.377c.213-.036.526-.421.651-.577a2.42,2.42,0,0,0,.439-.8c.012-.022.02-.052,0-.068a.074.074,0,0,0-.07.006,6.771,6.771,0,0,1-1.57.6.1.1,0,0,1-.109-.029,1.221,1.221,0,0,0-.137-.14,2.758,2.758,0,0,0-.76-.466,2.648,2.648,0,0,0-1.166-.188,2.787,2.787,0,0,0-1.106.313,2.851,2.851,0,0,0-.892.729,2.736,2.736,0,0,0-.533,1.068A2.9,2.9,0,0,0,376,218.3c.009.063,0,.071-.054.063a8.382,8.382,0,0,1-5.393-2.744c-.063-.072-.1-.072-.149.005a2.734,2.734,0,0,0,.466,3.231c.106.1.214.2.332.291a2.735,2.735,0,0,1-1.041-.291c-.063-.04-.095-.018-.1.054a1.61,1.61,0,0,0,.017.309,2.765,2.765,0,0,0,1.7,2.2,1.652,1.652,0,0,0,.345.106,3.089,3.089,0,0,1-1.02.031c-.075-.014-.1.023-.075.094a2.87,2.87,0,0,0,2.144,1.8c.1.017.195.017.292.04-.006.009-.012.009-.018.017a3.4,3.4,0,0,1-1.464.777,5.241,5.241,0,0,1-2.224.284c-.12-.018-.145-.016-.177,0s0,.049.034.08c.152.1.306.189.463.275a7.346,7.346,0,0,0,1.486.595,7.92,7.92,0,0,0,7.687-1.8,8.069,8.069,0,0,0,2.128-5.885c0-.085.1-.132.159-.176a5.2,5.2,0,0,0,1.047-1.088.333.333,0,0,0,.069-.209v-.011C382.656,216.319,382.656,216.329,382.6,216.353Z" transform="translate(-2.654 -3.129)"/></g></svg>