<svg xmlns="http://www.w3.org/2000/svg" width="24" height="24" viewBox="0 0 24 24"><defs><style>.a{fill:red;}.b{fill:#fff;}</style></defs><g transform="translate(-361.318 -423.664)"><circle class="a" cx="12" cy="12" r="12" transform="translate(361.318 423.664)"/><path class="b" d="M382.253,437.46a2.881,2.881,0,0,0-2.882-2.882H372a2.882,2.882,0,0,0-2.881,2.882v3.429A2.882,2.882,0,0,0,372,443.771h7.368a2.881,2.881,0,0,0,2.882-2.881Zm-4.333,1.972-3.3,1.634c-.13.071-.57-.024-.57-.171V437.54c0-.149.444-.243.573-.169l3.163,1.721C377.915,439.168,378.054,439.359,377.92,439.432Z" transform="translate(-2.51 -3.511)"/></g></svg>